%TF.GenerationSoftware,KiCad,Pcbnew,7.0.5-1.fc38*%
%TF.CreationDate,2023-07-07T14:10:54-04:00*%
%TF.ProjectId,bno085-i2c-board-v3-panel-base,626e6f30-3835-42d6-9932-632d626f6172,rev?*%
%TF.SameCoordinates,Original*%
%TF.FileFunction,Legend,Top*%
%TF.FilePolarity,Positive*%
%FSLAX46Y46*%
G04 Gerber Fmt 4.6, Leading zero omitted, Abs format (unit mm)*
G04 Created by KiCad (PCBNEW 7.0.5-1.fc38) date 2023-07-07 14:10:54*
%MOMM*%
%LPD*%
G01*
G04 APERTURE LIST*
G04 Aperture macros list*
%AMRoundRect*
0 Rectangle with rounded corners*
0 $1 Rounding radius*
0 $2 $3 $4 $5 $6 $7 $8 $9 X,Y pos of 4 corners*
0 Add a 4 corners polygon primitive as box body*
4,1,4,$2,$3,$4,$5,$6,$7,$8,$9,$2,$3,0*
0 Add four circle primitives for the rounded corners*
1,1,$1+$1,$2,$3*
1,1,$1+$1,$4,$5*
1,1,$1+$1,$6,$7*
1,1,$1+$1,$8,$9*
0 Add four rect primitives between the rounded corners*
20,1,$1+$1,$2,$3,$4,$5,0*
20,1,$1+$1,$4,$5,$6,$7,0*
20,1,$1+$1,$6,$7,$8,$9,0*
20,1,$1+$1,$8,$9,$2,$3,0*%
G04 Aperture macros list end*
%ADD10C,0.100000*%
%ADD11C,0.150000*%
%ADD12C,0.120000*%
%ADD13R,0.850000X0.850000*%
%ADD14RoundRect,0.140000X-0.170000X0.140000X-0.170000X-0.140000X0.170000X-0.140000X0.170000X0.140000X0*%
%ADD15R,0.254000X0.675000*%
%ADD16R,0.675000X0.254000*%
%ADD17RoundRect,0.135000X0.185000X-0.135000X0.185000X0.135000X-0.185000X0.135000X-0.185000X-0.135000X0*%
%ADD18RoundRect,0.135000X-0.185000X0.135000X-0.185000X-0.135000X0.185000X-0.135000X0.185000X0.135000X0*%
G04 APERTURE END LIST*
D10*
X90970368Y-66667617D02*
X90941797Y-66724760D01*
X90941797Y-66724760D02*
X90941797Y-66810474D01*
X90941797Y-66810474D02*
X90970368Y-66896188D01*
X90970368Y-66896188D02*
X91027511Y-66953331D01*
X91027511Y-66953331D02*
X91084654Y-66981902D01*
X91084654Y-66981902D02*
X91198940Y-67010474D01*
X91198940Y-67010474D02*
X91284654Y-67010474D01*
X91284654Y-67010474D02*
X91398940Y-66981902D01*
X91398940Y-66981902D02*
X91456083Y-66953331D01*
X91456083Y-66953331D02*
X91513226Y-66896188D01*
X91513226Y-66896188D02*
X91541797Y-66810474D01*
X91541797Y-66810474D02*
X91541797Y-66753331D01*
X91541797Y-66753331D02*
X91513226Y-66667617D01*
X91513226Y-66667617D02*
X91484654Y-66639045D01*
X91484654Y-66639045D02*
X91284654Y-66639045D01*
X91284654Y-66639045D02*
X91284654Y-66753331D01*
X91541797Y-66381902D02*
X90941797Y-66381902D01*
X90941797Y-66381902D02*
X91541797Y-66039045D01*
X91541797Y-66039045D02*
X90941797Y-66039045D01*
X91541797Y-65753331D02*
X90941797Y-65753331D01*
X90941797Y-65753331D02*
X90941797Y-65610474D01*
X90941797Y-65610474D02*
X90970368Y-65524760D01*
X90970368Y-65524760D02*
X91027511Y-65467617D01*
X91027511Y-65467617D02*
X91084654Y-65439046D01*
X91084654Y-65439046D02*
X91198940Y-65410474D01*
X91198940Y-65410474D02*
X91284654Y-65410474D01*
X91284654Y-65410474D02*
X91398940Y-65439046D01*
X91398940Y-65439046D02*
X91456083Y-65467617D01*
X91456083Y-65467617D02*
X91513226Y-65524760D01*
X91513226Y-65524760D02*
X91541797Y-65610474D01*
X91541797Y-65610474D02*
X91541797Y-65753331D01*
X87315698Y-69773898D02*
X87401413Y-69802469D01*
X87401413Y-69802469D02*
X87544270Y-69802469D01*
X87544270Y-69802469D02*
X87601413Y-69773898D01*
X87601413Y-69773898D02*
X87629984Y-69745326D01*
X87629984Y-69745326D02*
X87658555Y-69688183D01*
X87658555Y-69688183D02*
X87658555Y-69631040D01*
X87658555Y-69631040D02*
X87629984Y-69573898D01*
X87629984Y-69573898D02*
X87601413Y-69545326D01*
X87601413Y-69545326D02*
X87544270Y-69516755D01*
X87544270Y-69516755D02*
X87429984Y-69488183D01*
X87429984Y-69488183D02*
X87372841Y-69459612D01*
X87372841Y-69459612D02*
X87344270Y-69431040D01*
X87344270Y-69431040D02*
X87315698Y-69373898D01*
X87315698Y-69373898D02*
X87315698Y-69316755D01*
X87315698Y-69316755D02*
X87344270Y-69259612D01*
X87344270Y-69259612D02*
X87372841Y-69231040D01*
X87372841Y-69231040D02*
X87429984Y-69202469D01*
X87429984Y-69202469D02*
X87572841Y-69202469D01*
X87572841Y-69202469D02*
X87658555Y-69231040D01*
X88258556Y-69745326D02*
X88229984Y-69773898D01*
X88229984Y-69773898D02*
X88144270Y-69802469D01*
X88144270Y-69802469D02*
X88087127Y-69802469D01*
X88087127Y-69802469D02*
X88001413Y-69773898D01*
X88001413Y-69773898D02*
X87944270Y-69716755D01*
X87944270Y-69716755D02*
X87915699Y-69659612D01*
X87915699Y-69659612D02*
X87887127Y-69545326D01*
X87887127Y-69545326D02*
X87887127Y-69459612D01*
X87887127Y-69459612D02*
X87915699Y-69345326D01*
X87915699Y-69345326D02*
X87944270Y-69288183D01*
X87944270Y-69288183D02*
X88001413Y-69231040D01*
X88001413Y-69231040D02*
X88087127Y-69202469D01*
X88087127Y-69202469D02*
X88144270Y-69202469D01*
X88144270Y-69202469D02*
X88229984Y-69231040D01*
X88229984Y-69231040D02*
X88258556Y-69259612D01*
X88801413Y-69802469D02*
X88515699Y-69802469D01*
X88515699Y-69802469D02*
X88515699Y-69202469D01*
X88710165Y-62735232D02*
X88624451Y-62706660D01*
X88624451Y-62706660D02*
X88481593Y-62706660D01*
X88481593Y-62706660D02*
X88424451Y-62735232D01*
X88424451Y-62735232D02*
X88395879Y-62763803D01*
X88395879Y-62763803D02*
X88367308Y-62820946D01*
X88367308Y-62820946D02*
X88367308Y-62878089D01*
X88367308Y-62878089D02*
X88395879Y-62935232D01*
X88395879Y-62935232D02*
X88424451Y-62963803D01*
X88424451Y-62963803D02*
X88481593Y-62992374D01*
X88481593Y-62992374D02*
X88595879Y-63020946D01*
X88595879Y-63020946D02*
X88653022Y-63049517D01*
X88653022Y-63049517D02*
X88681593Y-63078089D01*
X88681593Y-63078089D02*
X88710165Y-63135232D01*
X88710165Y-63135232D02*
X88710165Y-63192374D01*
X88710165Y-63192374D02*
X88681593Y-63249517D01*
X88681593Y-63249517D02*
X88653022Y-63278089D01*
X88653022Y-63278089D02*
X88595879Y-63306660D01*
X88595879Y-63306660D02*
X88453022Y-63306660D01*
X88453022Y-63306660D02*
X88367308Y-63278089D01*
X88110164Y-62706660D02*
X88110164Y-63306660D01*
X88110164Y-63306660D02*
X87967307Y-63306660D01*
X87967307Y-63306660D02*
X87881593Y-63278089D01*
X87881593Y-63278089D02*
X87824450Y-63220946D01*
X87824450Y-63220946D02*
X87795879Y-63163803D01*
X87795879Y-63163803D02*
X87767307Y-63049517D01*
X87767307Y-63049517D02*
X87767307Y-62963803D01*
X87767307Y-62963803D02*
X87795879Y-62849517D01*
X87795879Y-62849517D02*
X87824450Y-62792374D01*
X87824450Y-62792374D02*
X87881593Y-62735232D01*
X87881593Y-62735232D02*
X87967307Y-62706660D01*
X87967307Y-62706660D02*
X88110164Y-62706660D01*
X87538736Y-62878089D02*
X87253022Y-62878089D01*
X87595879Y-62706660D02*
X87395879Y-63306660D01*
X87395879Y-63306660D02*
X87195879Y-62706660D01*
X85032279Y-65569180D02*
X85032279Y-65940608D01*
X85032279Y-65940608D02*
X84803708Y-65740608D01*
X84803708Y-65740608D02*
X84803708Y-65826323D01*
X84803708Y-65826323D02*
X84775136Y-65883466D01*
X84775136Y-65883466D02*
X84746565Y-65912037D01*
X84746565Y-65912037D02*
X84689422Y-65940608D01*
X84689422Y-65940608D02*
X84546565Y-65940608D01*
X84546565Y-65940608D02*
X84489422Y-65912037D01*
X84489422Y-65912037D02*
X84460851Y-65883466D01*
X84460851Y-65883466D02*
X84432279Y-65826323D01*
X84432279Y-65826323D02*
X84432279Y-65654894D01*
X84432279Y-65654894D02*
X84460851Y-65597751D01*
X84460851Y-65597751D02*
X84489422Y-65569180D01*
X85032279Y-66112037D02*
X84432279Y-66312037D01*
X84432279Y-66312037D02*
X85032279Y-66512037D01*
X85032279Y-66654895D02*
X85032279Y-67026323D01*
X85032279Y-67026323D02*
X84803708Y-66826323D01*
X84803708Y-66826323D02*
X84803708Y-66912038D01*
X84803708Y-66912038D02*
X84775136Y-66969181D01*
X84775136Y-66969181D02*
X84746565Y-66997752D01*
X84746565Y-66997752D02*
X84689422Y-67026323D01*
X84689422Y-67026323D02*
X84546565Y-67026323D01*
X84546565Y-67026323D02*
X84489422Y-66997752D01*
X84489422Y-66997752D02*
X84460851Y-66969181D01*
X84460851Y-66969181D02*
X84432279Y-66912038D01*
X84432279Y-66912038D02*
X84432279Y-66740609D01*
X84432279Y-66740609D02*
X84460851Y-66683466D01*
X84460851Y-66683466D02*
X84489422Y-66654895D01*
%TO.C,C1*%
X85871571Y-70144563D02*
X85895381Y-70168372D01*
X85895381Y-70168372D02*
X85919190Y-70239801D01*
X85919190Y-70239801D02*
X85919190Y-70287420D01*
X85919190Y-70287420D02*
X85895381Y-70358848D01*
X85895381Y-70358848D02*
X85847761Y-70406467D01*
X85847761Y-70406467D02*
X85800142Y-70430277D01*
X85800142Y-70430277D02*
X85704904Y-70454086D01*
X85704904Y-70454086D02*
X85633476Y-70454086D01*
X85633476Y-70454086D02*
X85538238Y-70430277D01*
X85538238Y-70430277D02*
X85490619Y-70406467D01*
X85490619Y-70406467D02*
X85443000Y-70358848D01*
X85443000Y-70358848D02*
X85419190Y-70287420D01*
X85419190Y-70287420D02*
X85419190Y-70239801D01*
X85419190Y-70239801D02*
X85443000Y-70168372D01*
X85443000Y-70168372D02*
X85466809Y-70144563D01*
X85919190Y-69668372D02*
X85919190Y-69954086D01*
X85919190Y-69811229D02*
X85419190Y-69811229D01*
X85419190Y-69811229D02*
X85490619Y-69858848D01*
X85490619Y-69858848D02*
X85538238Y-69906467D01*
X85538238Y-69906467D02*
X85562047Y-69954086D01*
D11*
%TO.C,U1*%
X87238095Y-65704819D02*
X87238095Y-66514342D01*
X87238095Y-66514342D02*
X87285714Y-66609580D01*
X87285714Y-66609580D02*
X87333333Y-66657200D01*
X87333333Y-66657200D02*
X87428571Y-66704819D01*
X87428571Y-66704819D02*
X87619047Y-66704819D01*
X87619047Y-66704819D02*
X87714285Y-66657200D01*
X87714285Y-66657200D02*
X87761904Y-66609580D01*
X87761904Y-66609580D02*
X87809523Y-66514342D01*
X87809523Y-66514342D02*
X87809523Y-65704819D01*
X88809523Y-66704819D02*
X88238095Y-66704819D01*
X88523809Y-66704819D02*
X88523809Y-65704819D01*
X88523809Y-65704819D02*
X88428571Y-65847676D01*
X88428571Y-65847676D02*
X88333333Y-65942914D01*
X88333333Y-65942914D02*
X88238095Y-65990533D01*
D10*
%TO.C,R4*%
X89553601Y-62069356D02*
X89315506Y-62236022D01*
X89553601Y-62355070D02*
X89053601Y-62355070D01*
X89053601Y-62355070D02*
X89053601Y-62164594D01*
X89053601Y-62164594D02*
X89077411Y-62116975D01*
X89077411Y-62116975D02*
X89101220Y-62093165D01*
X89101220Y-62093165D02*
X89148839Y-62069356D01*
X89148839Y-62069356D02*
X89220268Y-62069356D01*
X89220268Y-62069356D02*
X89267887Y-62093165D01*
X89267887Y-62093165D02*
X89291696Y-62116975D01*
X89291696Y-62116975D02*
X89315506Y-62164594D01*
X89315506Y-62164594D02*
X89315506Y-62355070D01*
X89220268Y-61640784D02*
X89553601Y-61640784D01*
X89029792Y-61759832D02*
X89386934Y-61878879D01*
X89386934Y-61878879D02*
X89386934Y-61569356D01*
%TO.C,R1*%
X89508328Y-70503476D02*
X89270233Y-70670142D01*
X89508328Y-70789190D02*
X89008328Y-70789190D01*
X89008328Y-70789190D02*
X89008328Y-70598714D01*
X89008328Y-70598714D02*
X89032138Y-70551095D01*
X89032138Y-70551095D02*
X89055947Y-70527285D01*
X89055947Y-70527285D02*
X89103566Y-70503476D01*
X89103566Y-70503476D02*
X89174995Y-70503476D01*
X89174995Y-70503476D02*
X89222614Y-70527285D01*
X89222614Y-70527285D02*
X89246423Y-70551095D01*
X89246423Y-70551095D02*
X89270233Y-70598714D01*
X89270233Y-70598714D02*
X89270233Y-70789190D01*
X89508328Y-70027285D02*
X89508328Y-70312999D01*
X89508328Y-70170142D02*
X89008328Y-70170142D01*
X89008328Y-70170142D02*
X89079757Y-70217761D01*
X89079757Y-70217761D02*
X89127376Y-70265380D01*
X89127376Y-70265380D02*
X89151185Y-70312999D01*
%TO.C,R5*%
X92507114Y-64730693D02*
X92269019Y-64897359D01*
X92507114Y-65016407D02*
X92007114Y-65016407D01*
X92007114Y-65016407D02*
X92007114Y-64825931D01*
X92007114Y-64825931D02*
X92030924Y-64778312D01*
X92030924Y-64778312D02*
X92054733Y-64754502D01*
X92054733Y-64754502D02*
X92102352Y-64730693D01*
X92102352Y-64730693D02*
X92173781Y-64730693D01*
X92173781Y-64730693D02*
X92221400Y-64754502D01*
X92221400Y-64754502D02*
X92245209Y-64778312D01*
X92245209Y-64778312D02*
X92269019Y-64825931D01*
X92269019Y-64825931D02*
X92269019Y-65016407D01*
X92007114Y-64278312D02*
X92007114Y-64516407D01*
X92007114Y-64516407D02*
X92245209Y-64540216D01*
X92245209Y-64540216D02*
X92221400Y-64516407D01*
X92221400Y-64516407D02*
X92197590Y-64468788D01*
X92197590Y-64468788D02*
X92197590Y-64349740D01*
X92197590Y-64349740D02*
X92221400Y-64302121D01*
X92221400Y-64302121D02*
X92245209Y-64278312D01*
X92245209Y-64278312D02*
X92292828Y-64254502D01*
X92292828Y-64254502D02*
X92411876Y-64254502D01*
X92411876Y-64254502D02*
X92459495Y-64278312D01*
X92459495Y-64278312D02*
X92483305Y-64302121D01*
X92483305Y-64302121D02*
X92507114Y-64349740D01*
X92507114Y-64349740D02*
X92507114Y-64468788D01*
X92507114Y-64468788D02*
X92483305Y-64516407D01*
X92483305Y-64516407D02*
X92459495Y-64540216D01*
%TO.C,R3*%
X84007347Y-67851621D02*
X83769252Y-68018287D01*
X84007347Y-68137335D02*
X83507347Y-68137335D01*
X83507347Y-68137335D02*
X83507347Y-67946859D01*
X83507347Y-67946859D02*
X83531157Y-67899240D01*
X83531157Y-67899240D02*
X83554966Y-67875430D01*
X83554966Y-67875430D02*
X83602585Y-67851621D01*
X83602585Y-67851621D02*
X83674014Y-67851621D01*
X83674014Y-67851621D02*
X83721633Y-67875430D01*
X83721633Y-67875430D02*
X83745442Y-67899240D01*
X83745442Y-67899240D02*
X83769252Y-67946859D01*
X83769252Y-67946859D02*
X83769252Y-68137335D01*
X83507347Y-67684954D02*
X83507347Y-67375430D01*
X83507347Y-67375430D02*
X83697823Y-67542097D01*
X83697823Y-67542097D02*
X83697823Y-67470668D01*
X83697823Y-67470668D02*
X83721633Y-67423049D01*
X83721633Y-67423049D02*
X83745442Y-67399240D01*
X83745442Y-67399240D02*
X83793061Y-67375430D01*
X83793061Y-67375430D02*
X83912109Y-67375430D01*
X83912109Y-67375430D02*
X83959728Y-67399240D01*
X83959728Y-67399240D02*
X83983538Y-67423049D01*
X83983538Y-67423049D02*
X84007347Y-67470668D01*
X84007347Y-67470668D02*
X84007347Y-67613525D01*
X84007347Y-67613525D02*
X83983538Y-67661144D01*
X83983538Y-67661144D02*
X83959728Y-67684954D01*
%TO.C,R2*%
X92488305Y-67846373D02*
X92250210Y-68013039D01*
X92488305Y-68132087D02*
X91988305Y-68132087D01*
X91988305Y-68132087D02*
X91988305Y-67941611D01*
X91988305Y-67941611D02*
X92012115Y-67893992D01*
X92012115Y-67893992D02*
X92035924Y-67870182D01*
X92035924Y-67870182D02*
X92083543Y-67846373D01*
X92083543Y-67846373D02*
X92154972Y-67846373D01*
X92154972Y-67846373D02*
X92202591Y-67870182D01*
X92202591Y-67870182D02*
X92226400Y-67893992D01*
X92226400Y-67893992D02*
X92250210Y-67941611D01*
X92250210Y-67941611D02*
X92250210Y-68132087D01*
X92035924Y-67655896D02*
X92012115Y-67632087D01*
X92012115Y-67632087D02*
X91988305Y-67584468D01*
X91988305Y-67584468D02*
X91988305Y-67465420D01*
X91988305Y-67465420D02*
X92012115Y-67417801D01*
X92012115Y-67417801D02*
X92035924Y-67393992D01*
X92035924Y-67393992D02*
X92083543Y-67370182D01*
X92083543Y-67370182D02*
X92131162Y-67370182D01*
X92131162Y-67370182D02*
X92202591Y-67393992D01*
X92202591Y-67393992D02*
X92488305Y-67679706D01*
X92488305Y-67679706D02*
X92488305Y-67370182D01*
D12*
%TO.C,C1*%
X86726101Y-69308511D02*
X86726101Y-69524183D01*
X86006101Y-69308511D02*
X86006101Y-69524183D01*
%TO.C,U1*%
X85290000Y-64240000D02*
X85550000Y-64240000D01*
X85290000Y-68260000D02*
X85290000Y-68000000D01*
X85290000Y-68260000D02*
X85550000Y-68260000D01*
X90710000Y-64240000D02*
X90450000Y-64240000D01*
X90710000Y-64240000D02*
X90710000Y-64500000D01*
X90710000Y-68260000D02*
X90450000Y-68260000D01*
X90710000Y-68260000D02*
X90710000Y-68000000D01*
%TO.C,R4*%
X89572362Y-63199667D02*
X89572362Y-62892385D01*
X90332362Y-63199667D02*
X90332362Y-62892385D01*
%TO.C,R1*%
X89565121Y-69601202D02*
X89565121Y-69293920D01*
X90325121Y-69601202D02*
X90325121Y-69293920D01*
%TO.C,R5*%
X91843430Y-64096359D02*
X91843430Y-64403641D01*
X91083430Y-64096359D02*
X91083430Y-64403641D01*
%TO.C,R3*%
X84899054Y-68109062D02*
X84899054Y-68416344D01*
X84139054Y-68109062D02*
X84139054Y-68416344D01*
%TO.C,R2*%
X91837740Y-68087740D02*
X91837740Y-68395022D01*
X91077740Y-68087740D02*
X91077740Y-68395022D01*
%TD*%
%LPC*%
D13*
%TO.C,J3*%
X83750000Y-66250000D03*
%TD*%
D14*
%TO.C,C1*%
X86366101Y-68936347D03*
X86366101Y-69896347D03*
%TD*%
D15*
%TO.C,U1*%
X85750000Y-64587500D03*
D16*
X85612500Y-65500000D03*
X85612500Y-66000000D03*
X85612500Y-66500000D03*
X85612500Y-67000000D03*
D15*
X85750000Y-67912500D03*
X86250000Y-67912500D03*
X86750000Y-67912500D03*
X87250000Y-67912500D03*
X87750000Y-67912500D03*
X88250000Y-67912500D03*
X88750000Y-67912500D03*
X89250000Y-67912500D03*
X89750000Y-67912500D03*
X90250000Y-67912500D03*
D16*
X90387500Y-67000000D03*
X90387500Y-66500000D03*
X90387500Y-66000000D03*
X90387500Y-65500000D03*
D15*
X90250000Y-64587500D03*
X89750000Y-64587500D03*
X89250000Y-64587500D03*
X88750000Y-64587500D03*
X88250000Y-64587500D03*
X87750000Y-64587500D03*
X87250000Y-64587500D03*
X86750000Y-64587500D03*
X86250000Y-64587500D03*
%TD*%
D13*
%TO.C,J4*%
X92250000Y-66250000D03*
%TD*%
D17*
%TO.C,R4*%
X89952362Y-63556026D03*
X89952362Y-62536026D03*
%TD*%
D13*
%TO.C,J2*%
X88000000Y-70500000D03*
%TD*%
D17*
%TO.C,R1*%
X89945121Y-69957561D03*
X89945121Y-68937561D03*
%TD*%
D18*
%TO.C,R5*%
X91463430Y-63740000D03*
X91463430Y-64760000D03*
%TD*%
D13*
%TO.C,J1*%
X88000000Y-62000000D03*
%TD*%
D18*
%TO.C,R3*%
X84519054Y-67752703D03*
X84519054Y-68772703D03*
%TD*%
%TO.C,R2*%
X91457740Y-67731381D03*
X91457740Y-68751381D03*
%TD*%
%LPD*%
M02*
