%TF.GenerationSoftware,KiCad,Pcbnew,7.0.7-7.0.7~ubuntu20.04.1*%
%TF.CreationDate,2023-08-14T16:59:11-04:00*%
%TF.ProjectId,bno085-debug-board-panel,626e6f30-3835-42d6-9465-6275672d626f,rev?*%
%TF.SameCoordinates,Original*%
%TF.FileFunction,Profile,NP*%
%FSLAX46Y46*%
G04 Gerber Fmt 4.6, Leading zero omitted, Abs format (unit mm)*
G04 Created by KiCad (PCBNEW 7.0.7-7.0.7~ubuntu20.04.1) date 2023-08-14 16:59:11*
%MOMM*%
%LPD*%
G01*
G04 APERTURE LIST*
%TA.AperFunction,Profile*%
%ADD10C,0.100000*%
%TD*%
G04 APERTURE END LIST*
D10*
X84110381Y-29485634D02*
X84137173Y-29442650D01*
X110444483Y-103662396D02*
X110479379Y-103625686D01*
X60014365Y-128410381D02*
X60057349Y-128437173D01*
X84025686Y-81220620D02*
X83985634Y-81189618D01*
X84177069Y-29349681D02*
X84189764Y-29300649D01*
X86599350Y-29689764D02*
X86649415Y-29697434D01*
X59993947Y-31804612D02*
X59955516Y-31837603D01*
X85200000Y-47583333D02*
X86200000Y-47583333D01*
X110342650Y-128437173D02*
X110385634Y-128410381D01*
X7062826Y-106057349D02*
X7040521Y-106102822D01*
X31049681Y-29677069D02*
X31097177Y-29659478D01*
X67183333Y-30700000D02*
X67183333Y-31700000D01*
X32400000Y-40016666D02*
X33400000Y-40016666D01*
X58800000Y-114116666D02*
X59800000Y-114116666D01*
X59810235Y-32099350D02*
X59802565Y-32149415D01*
X7120620Y-29525686D02*
X7155516Y-29562396D01*
X137000000Y-70783333D02*
X137000000Y-64716666D01*
X110100000Y-105800000D02*
X103216666Y-105800000D01*
X110597434Y-81549415D02*
X110597434Y-81549415D01*
X86355516Y-81237603D02*
X86320620Y-81274313D01*
X32400000Y-22883333D02*
X33400000Y-22883333D01*
X68683333Y-128500000D02*
X68683333Y-128500000D01*
X57449681Y-54377069D02*
X57497177Y-54359478D01*
X86599350Y-81110235D02*
X86550318Y-81122930D01*
X57800000Y-29200000D02*
X57800000Y-22883333D01*
X101716666Y-56400000D02*
X101716666Y-56400000D01*
X30950584Y-105802565D02*
X30900000Y-105800000D01*
X7193947Y-31804612D02*
X7155516Y-31837603D01*
X139000000Y-15316666D02*
X139000000Y-21383333D01*
X57695387Y-7193947D02*
X57662396Y-7155516D01*
X86355516Y-78962396D02*
X86393947Y-78995387D01*
X42283333Y-103800000D02*
X48916666Y-103800000D01*
X110297177Y-31740521D02*
X110249681Y-31722930D01*
X57789764Y-32099350D02*
X57777069Y-32050318D01*
X7214365Y-56489618D02*
X7193947Y-56504612D01*
X112602565Y-81549415D02*
X112600000Y-81600000D01*
X60150318Y-128477069D02*
X60199350Y-128489764D01*
X7257349Y-7062826D02*
X7235517Y-7075677D01*
X84079379Y-103625686D02*
X84110381Y-103585634D01*
X15883333Y-55400000D02*
X15883333Y-54400000D01*
X110385634Y-56489618D02*
X110342650Y-56462826D01*
X86200000Y-128000000D02*
X86202565Y-128050584D01*
X75316666Y-54400000D02*
X75316666Y-55400000D01*
X33462826Y-56657349D02*
X33440521Y-56702822D01*
X112999350Y-128489764D02*
X113049415Y-128497434D01*
X30900000Y-54400000D02*
X30950584Y-54397434D01*
X110200649Y-54389764D02*
X110249681Y-54377069D01*
X7040521Y-81402822D02*
X7022930Y-81450318D01*
X75316666Y-105800000D02*
X68683333Y-105800000D01*
X57644483Y-78962396D02*
X57679379Y-78925686D01*
X60174673Y-7015961D02*
X60126347Y-7031123D01*
X84189764Y-7399350D02*
X84177069Y-7350318D01*
X103216666Y-7000000D02*
X103216666Y-5000000D01*
X7000000Y-22883333D02*
X7000000Y-29200000D01*
X83700000Y-128500000D02*
X83750584Y-128497434D01*
X40783333Y-56400000D02*
X33900000Y-56400000D01*
X136697177Y-79059478D02*
X136742650Y-79037173D01*
X110589764Y-32099350D02*
X110577069Y-32050318D01*
X57737173Y-128242650D02*
X57759478Y-128197177D01*
X59800000Y-40016666D02*
X59800000Y-40016666D01*
X57625686Y-128379379D02*
X57644483Y-128362396D01*
X31400000Y-46083333D02*
X31400000Y-40016666D01*
X59800000Y-53900000D02*
X59802565Y-53950584D01*
X111600000Y-46083333D02*
X110600000Y-46083333D01*
X59920620Y-105974313D02*
X59889618Y-106014365D01*
X5000000Y-130500000D02*
X5000000Y-121683333D01*
X110406052Y-103695387D02*
X110444483Y-103662396D01*
X83800649Y-7010235D02*
X83750584Y-7002565D01*
X57724322Y-56635517D02*
X57695387Y-56593947D01*
X86393947Y-78995387D02*
X86414365Y-79010381D01*
X59840521Y-128197177D02*
X59862826Y-128242650D01*
X59840521Y-81402822D02*
X59822930Y-81450318D01*
X31359478Y-78797177D02*
X31377069Y-78749681D01*
X57400649Y-105810235D02*
X57350584Y-105802565D01*
X33520620Y-29525686D02*
X33555516Y-29562396D01*
X110385634Y-105889618D02*
X110342650Y-105862826D01*
X110600000Y-40016666D02*
X111600000Y-40016666D01*
X57497177Y-54359478D02*
X57520197Y-54348902D01*
X57679379Y-29525686D02*
X57710381Y-29485634D01*
X112602565Y-32149415D02*
X112600000Y-32200000D01*
X84200000Y-70783333D02*
X84200000Y-64716666D01*
X113100000Y-29700000D02*
X119983333Y-29700000D01*
X57800000Y-13816666D02*
X57800000Y-7500000D01*
X33422930Y-29349681D02*
X33440521Y-29397177D01*
X68683333Y-79100000D02*
X75316666Y-79100000D01*
X136600649Y-29689764D02*
X136649681Y-29677069D01*
X59802565Y-32149415D02*
X59800000Y-32200000D01*
X60199350Y-81110235D02*
X60150318Y-81122930D01*
X31225686Y-7120620D02*
X31185634Y-7089618D01*
X59904612Y-103606052D02*
X59937603Y-103644483D01*
X58800000Y-15316666D02*
X58800000Y-15316666D01*
X33422930Y-54049681D02*
X33440521Y-54097177D01*
X42283333Y-128500000D02*
X42283333Y-128500000D01*
X48916666Y-104800000D02*
X48916666Y-104800000D01*
X95083333Y-31700000D02*
X95083333Y-30700000D01*
X31337173Y-106057349D02*
X31310381Y-106014365D01*
X110297177Y-54359478D02*
X110342650Y-54337173D01*
X59840521Y-106102822D02*
X59822930Y-106150318D01*
X7010235Y-103400649D02*
X7022930Y-103449681D01*
X84197434Y-128050584D02*
X84200000Y-128000000D01*
X59920620Y-81274313D02*
X59889618Y-81314365D01*
X33440521Y-32002822D02*
X33422930Y-32050318D01*
X110425686Y-105920620D02*
X110385634Y-105889618D01*
X31377069Y-103449681D02*
X31389764Y-103400649D01*
X7089618Y-54185634D02*
X7120620Y-54225686D01*
X31337173Y-54142650D02*
X31359478Y-54097177D01*
X57800000Y-95483333D02*
X57800000Y-89416666D01*
X59889618Y-103585634D02*
X59904612Y-103606052D01*
X136500000Y-56400000D02*
X129616666Y-56400000D01*
X110100000Y-31700000D02*
X103216666Y-31700000D01*
X86320620Y-31874313D02*
X86289618Y-31914365D01*
X60150318Y-54377069D02*
X60199350Y-54389764D01*
X103216666Y-54400000D02*
X110100000Y-54400000D01*
X112902822Y-79059478D02*
X112950318Y-79077069D01*
X31185634Y-54310381D02*
X31206052Y-54295387D01*
X7062826Y-54142650D02*
X7089618Y-54185634D01*
X86240521Y-103497177D02*
X86262826Y-103542650D01*
X67183333Y-80100000D02*
X67183333Y-81100000D01*
X86222930Y-56750318D02*
X86210235Y-56799350D01*
X84110381Y-103585634D02*
X84137173Y-103542650D01*
X112600000Y-95483333D02*
X111600000Y-95483333D01*
X75316666Y-5000000D02*
X75316666Y-7000000D01*
X57789764Y-56799350D02*
X57777069Y-56750318D01*
X60150318Y-105822930D02*
X60102822Y-105840521D01*
X136997434Y-29250584D02*
X137000000Y-29200000D01*
X113049415Y-29697434D02*
X113100000Y-29700000D01*
X33849415Y-103797434D02*
X33900000Y-103800000D01*
X57520197Y-54348902D02*
X57564482Y-54324322D01*
X33422930Y-32050318D02*
X33410235Y-32099350D01*
X59800000Y-72283333D02*
X59800000Y-78600000D01*
X112610235Y-81499350D02*
X112602565Y-81549415D01*
X59822930Y-78749681D02*
X59840521Y-78797177D01*
X110249681Y-103777069D02*
X110297177Y-103759478D01*
X137000000Y-72283333D02*
X139000000Y-72283333D01*
X7302822Y-29659478D02*
X7350318Y-29677069D01*
X93583333Y-7000000D02*
X86700000Y-7000000D01*
X85200000Y-70783333D02*
X84200000Y-70783333D01*
X57625686Y-105920620D02*
X57585634Y-105889618D01*
X68683333Y-29700000D02*
X75316666Y-29700000D01*
X33400000Y-120183333D02*
X32400000Y-120183333D01*
X57644483Y-128362396D02*
X57679379Y-128325686D01*
X57800000Y-70783333D02*
X57800000Y-64716666D01*
X101716666Y-7000000D02*
X101716666Y-7000000D01*
X137000000Y-63216666D02*
X137000000Y-56900000D01*
X86202565Y-7449415D02*
X86200000Y-7500000D01*
X83750584Y-29697434D02*
X83800649Y-29689764D01*
X60300000Y-128500000D02*
X67183333Y-128500000D01*
X136785634Y-79010381D02*
X136806052Y-78995387D01*
X31337173Y-29442650D02*
X31359478Y-29397177D01*
X59974313Y-29579379D02*
X60014365Y-29610381D01*
X60102822Y-105840521D02*
X60057349Y-105862826D01*
X110600000Y-7500000D02*
X110597434Y-7449415D01*
X24016666Y-130500000D02*
X24016666Y-128500000D01*
X31400000Y-81600000D02*
X31397434Y-81549415D01*
X84044483Y-103662396D02*
X84079379Y-103625686D01*
X86550318Y-79077069D02*
X86599350Y-79089764D01*
X136600649Y-54389764D02*
X136649681Y-54377069D01*
X85200000Y-38516666D02*
X84200000Y-38516666D01*
X136937173Y-128242650D02*
X136959478Y-128197177D01*
X31400000Y-32200000D02*
X31397434Y-32149415D01*
X59955516Y-81237603D02*
X59920620Y-81274313D01*
X59889618Y-54185634D02*
X59920620Y-54225686D01*
X84200000Y-22883333D02*
X85200000Y-22883333D01*
X59840521Y-32002822D02*
X59822930Y-32050318D01*
X7010235Y-106199350D02*
X7002565Y-106249415D01*
X110200649Y-103789764D02*
X110200649Y-103789764D01*
X111600000Y-112616666D02*
X110600000Y-112616666D01*
X7120620Y-54225686D02*
X7155516Y-54262396D01*
X84200000Y-46083333D02*
X84200000Y-40016666D01*
X112793947Y-78995387D02*
X112814365Y-79010381D01*
X129616666Y-54400000D02*
X136500000Y-54400000D01*
X57800000Y-89416666D02*
X58800000Y-89416666D01*
X110479379Y-31874313D02*
X110462396Y-31855516D01*
X15883333Y-103800000D02*
X22516666Y-103800000D01*
X7214365Y-128410381D02*
X7257349Y-128437173D01*
X112755516Y-7137603D02*
X112720620Y-7174313D01*
X31185634Y-128410381D02*
X31225686Y-128379379D01*
X58800000Y-64716666D02*
X59800000Y-64716666D01*
X59822930Y-54049681D02*
X59840521Y-54097177D01*
X76816666Y-103800000D02*
X83700000Y-103800000D01*
X31389764Y-128100649D02*
X31397434Y-128050584D01*
X30950584Y-7002565D02*
X30900000Y-7000000D01*
X76816666Y-56400000D02*
X76816666Y-55400000D01*
X137000000Y-46083333D02*
X137000000Y-46083333D01*
X110297177Y-103759478D02*
X110342650Y-103737173D01*
X7062826Y-7257349D02*
X7040521Y-7302822D01*
X110600000Y-89416666D02*
X111600000Y-89416666D01*
X31400000Y-128000000D02*
X31400000Y-121683333D01*
X83800649Y-29689764D02*
X83825326Y-29684038D01*
X68683333Y-54400000D02*
X75316666Y-54400000D01*
X84062396Y-31855516D02*
X84025686Y-31820620D01*
X112950318Y-81122930D02*
X112902822Y-81140521D01*
X86414365Y-79010381D02*
X86457349Y-79037173D01*
X31244483Y-78962396D02*
X31279379Y-78925686D01*
X111600000Y-64716666D02*
X112600000Y-64716666D01*
X84200000Y-72283333D02*
X85200000Y-72283333D01*
X110406052Y-78995387D02*
X110444483Y-78962396D01*
X136959478Y-103497177D02*
X136977069Y-103449681D01*
X7040521Y-54097177D02*
X7062826Y-54142650D01*
X112600000Y-46083333D02*
X111600000Y-46083333D01*
X136649681Y-54377069D02*
X136697177Y-54359478D01*
X59800000Y-78600000D02*
X59802565Y-78650584D01*
X110559478Y-106102822D02*
X110537173Y-106057349D01*
X110249681Y-7022930D02*
X110200649Y-7010235D01*
X60014365Y-105889618D02*
X59974313Y-105920620D01*
X136600649Y-79089764D02*
X136649681Y-79077069D01*
X112610235Y-29300649D02*
X112622930Y-29349681D01*
X59993947Y-81204612D02*
X59955516Y-81237603D01*
X119983333Y-5000000D02*
X119983333Y-7000000D01*
X33400000Y-121683333D02*
X33400000Y-128000000D01*
X57497177Y-105840521D02*
X57449681Y-105822930D01*
X86222930Y-7350318D02*
X86210235Y-7399350D01*
X83942650Y-7062826D02*
X83897177Y-7040521D01*
X60079802Y-31751097D02*
X60035517Y-31775677D01*
X57777069Y-32050318D02*
X57759478Y-32002822D01*
X136937173Y-56657349D02*
X136910381Y-56614365D01*
X14383333Y-56400000D02*
X7500000Y-56400000D01*
X85200000Y-46083333D02*
X84200000Y-46083333D01*
X112600000Y-120183333D02*
X111600000Y-120183333D01*
X33555516Y-105937603D02*
X33520620Y-105974313D01*
X31359478Y-128197177D02*
X31377069Y-128149681D01*
X60300000Y-56400000D02*
X60249415Y-56402565D01*
X86240521Y-7302822D02*
X86222930Y-7350318D01*
X112622930Y-56750318D02*
X112610235Y-56799350D01*
X33400000Y-29200000D02*
X33402565Y-29250584D01*
X86393947Y-105904612D02*
X86355516Y-105937603D01*
X31400000Y-78600000D02*
X31400000Y-72283333D01*
X85200000Y-96983333D02*
X86200000Y-96983333D01*
X33555516Y-54262396D02*
X33593947Y-54295387D01*
X7002565Y-106249415D02*
X7000000Y-106300000D01*
X58800000Y-40016666D02*
X59800000Y-40016666D01*
X121483333Y-128500000D02*
X128116666Y-128500000D01*
X112662826Y-29442650D02*
X112689618Y-29485634D01*
X136649681Y-103777069D02*
X136697177Y-103759478D01*
X50416666Y-56400000D02*
X50416666Y-55400000D01*
X86202565Y-128050584D02*
X86210235Y-128100649D01*
X14383333Y-81100000D02*
X7500000Y-81100000D01*
X110342650Y-103737173D02*
X110385634Y-103710381D01*
X68683333Y-7000000D02*
X68683333Y-5000000D01*
X76816666Y-55400000D02*
X76816666Y-54400000D01*
X137000000Y-38516666D02*
X137000000Y-32200000D01*
X110600000Y-13816666D02*
X110600000Y-7500000D01*
X31185634Y-81189618D02*
X31142650Y-81162826D01*
X57797434Y-81549415D02*
X57789764Y-81499350D01*
X86700000Y-29700000D02*
X93583333Y-29700000D01*
X136910381Y-7214365D02*
X136879379Y-7174313D01*
X110577069Y-54049681D02*
X110589764Y-54000649D01*
X112999350Y-31710235D02*
X112950318Y-31722930D01*
X60102822Y-128459478D02*
X60150318Y-128477069D01*
X33410235Y-78700649D02*
X33422930Y-78749681D01*
X86550318Y-103777069D02*
X86599350Y-103789764D01*
X112600000Y-70783333D02*
X111600000Y-70783333D01*
X137000000Y-63216666D02*
X137000000Y-63216666D01*
X110200649Y-128489764D02*
X110249681Y-128477069D01*
X14383333Y-79100000D02*
X14383333Y-80100000D01*
X139000000Y-38516666D02*
X137000000Y-38516666D01*
X33400000Y-63216666D02*
X32400000Y-63216666D01*
X110577069Y-7350318D02*
X110559478Y-7302822D01*
X48916666Y-130500000D02*
X42283333Y-130500000D01*
X110577069Y-81450318D02*
X110559478Y-81402822D01*
X137000000Y-120183333D02*
X137000000Y-120183333D01*
X86502822Y-128459478D02*
X86550318Y-128477069D01*
X103216666Y-56400000D02*
X103216666Y-55400000D01*
X84177069Y-103449681D02*
X84189764Y-103400649D01*
X110100000Y-7000000D02*
X103216666Y-7000000D01*
X31097177Y-7040521D02*
X31049681Y-7022930D01*
X113100000Y-54400000D02*
X119983333Y-54400000D01*
X136785634Y-31789618D02*
X136742650Y-31762826D01*
X31400000Y-63216666D02*
X31400000Y-56900000D01*
X31185634Y-56489618D02*
X31142650Y-56462826D01*
X136977069Y-103449681D02*
X136989764Y-103400649D01*
X33400000Y-70783333D02*
X32400000Y-70783333D01*
X112662826Y-103542650D02*
X112689618Y-103585634D01*
X57350584Y-56402565D02*
X57300000Y-56400000D01*
X84137173Y-128242650D02*
X84159478Y-128197177D01*
X31377069Y-32050318D02*
X31359478Y-32002822D01*
X31368876Y-81426347D02*
X31348902Y-81379802D01*
X57497177Y-103759478D02*
X57542650Y-103737173D01*
X110537173Y-7257349D02*
X110510381Y-7214365D01*
X5000000Y-21383333D02*
X5000000Y-15316666D01*
X85200000Y-22883333D02*
X86200000Y-22883333D01*
X50416666Y-105800000D02*
X50416666Y-104800000D01*
X86202565Y-32149415D02*
X86200000Y-32200000D01*
X33422930Y-103449681D02*
X33440521Y-103497177D01*
X59937603Y-29544483D02*
X59974313Y-29579379D01*
X57606052Y-54295387D02*
X57644483Y-54262396D01*
X7089618Y-78885634D02*
X7120620Y-78925686D01*
X59800000Y-128000000D02*
X59802565Y-128050584D01*
X84124322Y-56635517D02*
X84095387Y-56593947D01*
X112622930Y-78749681D02*
X112640521Y-78797177D01*
X60150318Y-103777069D02*
X60199350Y-103789764D01*
X33422930Y-128149681D02*
X33440521Y-128197177D01*
X33400000Y-15316666D02*
X33400000Y-15316666D01*
X33400000Y-47583333D02*
X33400000Y-53900000D01*
X112857349Y-128437173D02*
X112902822Y-128459478D01*
X59802565Y-78650584D02*
X59810235Y-78700649D01*
X112602565Y-56849415D02*
X112600000Y-56900000D01*
X112814365Y-31789618D02*
X112793947Y-31804612D01*
X7002565Y-7449415D02*
X7000000Y-7500000D01*
X31225686Y-81220620D02*
X31185634Y-81189618D01*
X112689618Y-7214365D02*
X112662826Y-7257349D01*
X85200000Y-121683333D02*
X86200000Y-121683333D01*
X136937173Y-103542650D02*
X136959478Y-103497177D01*
X119983333Y-7000000D02*
X119983333Y-7000000D01*
X112600000Y-89416666D02*
X112600000Y-89416666D01*
X15883333Y-105800000D02*
X15883333Y-104800000D01*
X57497177Y-128459478D02*
X57542650Y-128437173D01*
X59810235Y-106199350D02*
X59802565Y-106249415D01*
X112689618Y-56614365D02*
X112662826Y-56657349D01*
X7257349Y-81162826D02*
X7214365Y-81189618D01*
X110600000Y-72283333D02*
X111600000Y-72283333D01*
X59810235Y-103400649D02*
X59822930Y-103449681D01*
X84189764Y-81499350D02*
X84189764Y-81499350D01*
X58800000Y-120183333D02*
X57800000Y-120183333D01*
X33520620Y-105974313D02*
X33489618Y-106014365D01*
X110150584Y-103797434D02*
X110200649Y-103789764D01*
X33520620Y-54225686D02*
X33555516Y-54262396D01*
X136997434Y-78650584D02*
X137000000Y-78600000D01*
X31000649Y-31710235D02*
X30950584Y-31702565D01*
X86393947Y-81204612D02*
X86355516Y-81237603D01*
X57800000Y-63216666D02*
X57800000Y-56900000D01*
X31397434Y-78650584D02*
X31400000Y-78600000D01*
X31397434Y-32149415D02*
X31397434Y-32149415D01*
X57737173Y-29442650D02*
X57759478Y-29397177D01*
X15883333Y-104800000D02*
X15883333Y-103800000D01*
X7000000Y-128000000D02*
X7002565Y-128050584D01*
X101716666Y-31700000D02*
X95083333Y-31700000D01*
X95083333Y-55400000D02*
X95083333Y-54400000D01*
X112720620Y-56574313D02*
X112689618Y-56614365D01*
X33593947Y-56504612D02*
X33555516Y-56537603D01*
X33402565Y-53950584D02*
X33410235Y-54000649D01*
X60300000Y-105800000D02*
X60249415Y-105802565D01*
X86320620Y-105974313D02*
X86289618Y-106014365D01*
X7257349Y-56462826D02*
X7214365Y-56489618D01*
X112640521Y-81402822D02*
X112622930Y-81450318D01*
X57497177Y-81140521D02*
X57449681Y-81122930D01*
X7002565Y-103350584D02*
X7010235Y-103400649D01*
X57350584Y-31702565D02*
X57300000Y-31700000D01*
X111600000Y-95483333D02*
X110600000Y-95483333D01*
X103216666Y-29700000D02*
X110100000Y-29700000D01*
X57542650Y-103737173D02*
X57585634Y-103710381D01*
X112814365Y-79010381D02*
X112857349Y-79037173D01*
X33900000Y-105800000D02*
X33849415Y-105802565D01*
X112720620Y-103625686D02*
X112755516Y-103662396D01*
X60249415Y-56402565D02*
X60199350Y-56410235D01*
X83920197Y-54348902D02*
X83964482Y-54324322D01*
X32400000Y-95483333D02*
X31400000Y-95483333D01*
X112999350Y-81110235D02*
X112950318Y-81122930D01*
X7104612Y-128306052D02*
X7137603Y-128344483D01*
X59800000Y-96983333D02*
X59800000Y-103300000D01*
X112999350Y-54389764D02*
X113049415Y-54397434D01*
X110342650Y-54337173D02*
X110385634Y-54310381D01*
X86649415Y-7002565D02*
X86599350Y-7010235D01*
X110597434Y-56849415D02*
X110589764Y-56799350D01*
X7000000Y-87916666D02*
X5000000Y-87916666D01*
X84159478Y-128197177D02*
X84177069Y-128149681D01*
X7155516Y-81237603D02*
X7120620Y-81274313D01*
X84079379Y-29525686D02*
X84110381Y-29485634D01*
X7002565Y-29250584D02*
X7010235Y-29300649D01*
X67183333Y-103800000D02*
X67183333Y-104800000D01*
X57300000Y-54400000D02*
X57350584Y-54397434D01*
X112640521Y-103497177D02*
X112662826Y-103542650D01*
X136989764Y-56799350D02*
X136977069Y-56750318D01*
X57520197Y-79048902D02*
X57564482Y-79024322D01*
X84189764Y-81499350D02*
X84177069Y-81450318D01*
X85200000Y-89416666D02*
X86200000Y-89416666D01*
X60057349Y-29637173D02*
X60102822Y-29659478D01*
X57759478Y-29397177D02*
X57777069Y-29349681D01*
X57789764Y-106199350D02*
X57777069Y-106150318D01*
X24016666Y-5000000D02*
X40783333Y-5000000D01*
X60014365Y-103710381D02*
X60057349Y-103737173D01*
X136937173Y-31957349D02*
X136910381Y-31914365D01*
X136785634Y-56489618D02*
X136742650Y-56462826D01*
X48916666Y-55400000D02*
X48916666Y-56400000D01*
X58800000Y-89416666D02*
X59800000Y-89416666D01*
X15883333Y-56400000D02*
X15883333Y-55400000D01*
X110200649Y-103789764D02*
X110249681Y-103777069D01*
X137000000Y-112616666D02*
X137000000Y-112616666D01*
X31324322Y-7235517D02*
X31295387Y-7193947D01*
X24016666Y-29700000D02*
X30900000Y-29700000D01*
X86222930Y-103449681D02*
X86240521Y-103497177D01*
X33593947Y-29595387D02*
X33635517Y-29624322D01*
X121483333Y-54400000D02*
X128116666Y-54400000D01*
X84006052Y-29595387D02*
X84044483Y-29562396D01*
X110444483Y-78962396D02*
X110479379Y-78925686D01*
X112814365Y-54310381D02*
X112857349Y-54337173D01*
X86200000Y-106300000D02*
X86200000Y-112616666D01*
X110600000Y-22883333D02*
X111600000Y-22883333D01*
X110510381Y-78885634D02*
X110537173Y-78842650D01*
X86210235Y-103400649D02*
X86222930Y-103449681D01*
X7399350Y-56410235D02*
X7350318Y-56422930D01*
X112720620Y-81274313D02*
X112689618Y-81314365D01*
X111600000Y-120183333D02*
X110600000Y-120183333D01*
X86393947Y-7104612D02*
X86355516Y-7137603D01*
X119983333Y-7000000D02*
X113100000Y-7000000D01*
X93583333Y-55400000D02*
X93583333Y-56400000D01*
X110406052Y-29595387D02*
X110444483Y-29562396D01*
X57662396Y-105955516D02*
X57625686Y-105920620D01*
X33440521Y-29397177D02*
X33462826Y-29442650D01*
X15883333Y-29700000D02*
X22516666Y-29700000D01*
X84044483Y-128362396D02*
X84079379Y-128325686D01*
X86200000Y-89416666D02*
X86200000Y-95483333D01*
X110559478Y-103497177D02*
X110577069Y-103449681D01*
X84025686Y-103679379D02*
X84044483Y-103662396D01*
X30900000Y-56400000D02*
X24016666Y-56400000D01*
X136806052Y-103695387D02*
X136844483Y-103662396D01*
X86289618Y-54185634D02*
X86320620Y-54225686D01*
X128116666Y-7000000D02*
X128116666Y-7000000D01*
X60102822Y-79059478D02*
X60150318Y-79077069D01*
X57800000Y-32200000D02*
X57797434Y-32149415D01*
X112600000Y-96983333D02*
X112600000Y-103300000D01*
X112600000Y-114116666D02*
X112600000Y-114116666D01*
X33555516Y-81237603D02*
X33520620Y-81274313D01*
X136742650Y-56462826D02*
X136697177Y-56440521D01*
X103216666Y-103800000D02*
X110100000Y-103800000D01*
X40783333Y-30700000D02*
X40783333Y-31700000D01*
X137000000Y-78600000D02*
X137000000Y-72283333D01*
X110462396Y-56555516D02*
X110425686Y-56520620D01*
X57300000Y-29700000D02*
X57300000Y-29700000D01*
X110589764Y-29300649D02*
X110597434Y-29250584D01*
X33849415Y-128497434D02*
X33900000Y-128500000D01*
X22516666Y-56400000D02*
X15883333Y-56400000D01*
X7214365Y-103710381D02*
X7257349Y-103737173D01*
X112662826Y-81357349D02*
X112640521Y-81402822D01*
X86262826Y-56657349D02*
X86240521Y-56702822D01*
X136959478Y-78797177D02*
X136977069Y-78749681D01*
X86320620Y-7174313D02*
X86289618Y-7214365D01*
X86414365Y-56489618D02*
X86393947Y-56504612D01*
X57777069Y-106150318D02*
X57759478Y-106102822D01*
X110510381Y-31914365D02*
X110479379Y-31874313D01*
X32400000Y-46083333D02*
X31400000Y-46083333D01*
X59800000Y-81600000D02*
X59800000Y-87916666D01*
X112622930Y-54049681D02*
X112640521Y-54097177D01*
X95083333Y-105800000D02*
X95083333Y-104800000D01*
X83942650Y-81162826D02*
X83897177Y-81140521D01*
X60249415Y-79097434D02*
X60300000Y-79100000D01*
X83942650Y-31762826D02*
X83897177Y-31740521D01*
X136550584Y-29697434D02*
X136600649Y-29689764D01*
X136785634Y-105889618D02*
X136742650Y-105862826D01*
X33400000Y-38516666D02*
X32400000Y-38516666D01*
X111600000Y-89416666D02*
X112600000Y-89416666D01*
X32400000Y-21383333D02*
X31400000Y-21383333D01*
X31397434Y-103350584D02*
X31400000Y-103300000D01*
X42283333Y-30700000D02*
X42283333Y-29700000D01*
X33799350Y-105810235D02*
X33750318Y-105822930D01*
X57800000Y-81600000D02*
X57800000Y-81600000D01*
X33489618Y-103585634D02*
X33504612Y-103606052D01*
X84200000Y-47583333D02*
X85200000Y-47583333D01*
X136862396Y-7155516D02*
X136825686Y-7120620D01*
X33402565Y-29250584D02*
X33410235Y-29300649D01*
X33702822Y-29659478D02*
X33750318Y-29677069D01*
X137000000Y-47583333D02*
X139000000Y-47583333D01*
X112600000Y-128000000D02*
X112602565Y-128050584D01*
X101716666Y-7000000D02*
X95083333Y-7000000D01*
X31389764Y-29300649D02*
X31397434Y-29250584D01*
X112622930Y-7350318D02*
X112610235Y-7399350D01*
X33489618Y-31914365D02*
X33462826Y-31957349D01*
X136825686Y-31820620D02*
X136785634Y-31789618D01*
X119983333Y-54400000D02*
X119983333Y-55400000D01*
X110200649Y-81110235D02*
X110150584Y-81102565D01*
X136785634Y-81189618D02*
X136742650Y-81162826D01*
X59802565Y-56849415D02*
X59800000Y-56900000D01*
X67183333Y-7000000D02*
X60300000Y-7000000D01*
X83700000Y-7000000D02*
X76816666Y-7000000D01*
X31400000Y-112616666D02*
X31400000Y-106300000D01*
X136959478Y-106102822D02*
X136937173Y-106057349D01*
X33900000Y-81100000D02*
X33849415Y-81102565D01*
X33657349Y-56462826D02*
X33614365Y-56489618D01*
X31244483Y-29562396D02*
X31279379Y-29525686D01*
X110600000Y-56900000D02*
X110597434Y-56849415D01*
X57662396Y-56555516D02*
X57625686Y-56520620D01*
X31206052Y-78995387D02*
X31244483Y-78962396D01*
X33440521Y-106102822D02*
X33422930Y-106150318D01*
X110385634Y-79010381D02*
X110406052Y-78995387D01*
X112602565Y-53950584D02*
X112610235Y-54000649D01*
X112999350Y-79089764D02*
X113049415Y-79097434D01*
X33574313Y-128379379D02*
X33614365Y-128410381D01*
X84197434Y-103350584D02*
X84200000Y-103300000D01*
X57300000Y-29700000D02*
X57350584Y-29697434D01*
X40783333Y-29700000D02*
X40783333Y-30700000D01*
X86240521Y-128197177D02*
X86262826Y-128242650D01*
X113100000Y-56400000D02*
X113049415Y-56402565D01*
X7449415Y-56402565D02*
X7399350Y-56410235D01*
X33849415Y-56402565D02*
X33799350Y-56410235D01*
X112814365Y-56489618D02*
X112793947Y-56504612D01*
X121483333Y-79100000D02*
X128116666Y-79100000D01*
X136500000Y-7000000D02*
X129616666Y-7000000D01*
X31295387Y-7193947D02*
X31262396Y-7155516D01*
X58800000Y-63216666D02*
X57800000Y-63216666D01*
X59993947Y-56504612D02*
X59955516Y-56537603D01*
X7022930Y-54049681D02*
X7040521Y-54097177D01*
X68683333Y-80100000D02*
X68683333Y-79100000D01*
X110342650Y-56462826D02*
X110297177Y-56440521D01*
X58800000Y-21383333D02*
X57800000Y-21383333D01*
X15883333Y-130500000D02*
X15883333Y-128500000D01*
X60300000Y-31700000D02*
X60249415Y-31702565D01*
X7089618Y-7214365D02*
X7062826Y-7257349D01*
X48916666Y-54400000D02*
X48916666Y-55400000D01*
X22516666Y-7000000D02*
X22516666Y-7000000D01*
X7000000Y-47583333D02*
X7000000Y-53900000D01*
X110249681Y-56422930D02*
X110200649Y-56410235D01*
X33440521Y-103497177D02*
X33462826Y-103542650D01*
X84159478Y-78797177D02*
X84177069Y-78749681D01*
X59810235Y-78700649D02*
X59822930Y-78749681D01*
X57350584Y-29697434D02*
X57400649Y-29689764D01*
X32400000Y-70783333D02*
X31400000Y-70783333D01*
X136977069Y-29349681D02*
X136989764Y-29300649D01*
X136806052Y-128395387D02*
X136844483Y-128362396D01*
X48916666Y-7000000D02*
X42283333Y-7000000D01*
X110342650Y-105862826D02*
X110297177Y-105840521D01*
X57625686Y-103679379D02*
X57644483Y-103662396D01*
X110597434Y-29250584D02*
X110600000Y-29200000D01*
X31400000Y-114116666D02*
X32400000Y-114116666D01*
X24016666Y-103800000D02*
X30900000Y-103800000D01*
X31244483Y-54262396D02*
X31279379Y-54225686D01*
X111600000Y-40016666D02*
X112600000Y-40016666D01*
X7302822Y-128459478D02*
X7350318Y-128477069D01*
X112857349Y-103737173D02*
X112902822Y-103759478D01*
X103216666Y-30700000D02*
X103216666Y-29700000D01*
X42283333Y-130500000D02*
X42283333Y-128500000D01*
X7000000Y-38516666D02*
X5000000Y-38516666D01*
X59993947Y-54295387D02*
X60035517Y-54324322D01*
X30900000Y-29700000D02*
X30950584Y-29697434D01*
X86200000Y-21383333D02*
X85200000Y-21383333D01*
X84110381Y-54185634D02*
X84137173Y-54142650D01*
X110589764Y-56799350D02*
X110577069Y-56750318D01*
X57585634Y-81189618D02*
X57542650Y-81162826D01*
X57800000Y-114116666D02*
X57800000Y-114116666D01*
X86502822Y-79059478D02*
X86550318Y-79077069D01*
X128116666Y-56400000D02*
X121483333Y-56400000D01*
X85200000Y-120183333D02*
X84200000Y-120183333D01*
X136937173Y-7257349D02*
X136910381Y-7214365D01*
X85200000Y-114116666D02*
X86200000Y-114116666D01*
X76816666Y-29700000D02*
X83700000Y-29700000D01*
X112600000Y-81600000D02*
X112600000Y-87916666D01*
X83849681Y-54377069D02*
X83897177Y-54359478D01*
X113100000Y-103800000D02*
X119983333Y-103800000D01*
X119983333Y-104800000D02*
X119983333Y-105800000D01*
X60079802Y-7051097D02*
X60035517Y-7075677D01*
X57710381Y-128285634D02*
X57737173Y-128242650D01*
X110510381Y-29485634D02*
X110537173Y-29442650D01*
X136550584Y-31702565D02*
X136500000Y-31700000D01*
X112720620Y-105974313D02*
X112689618Y-106014365D01*
X57737173Y-54142650D02*
X57759478Y-54097177D01*
X7155516Y-29562396D02*
X7193947Y-29595387D01*
X33849415Y-29697434D02*
X33900000Y-29700000D01*
X60035517Y-81175677D02*
X59993947Y-81204612D01*
X57564482Y-54324322D02*
X57606052Y-54295387D01*
X137000000Y-53900000D02*
X137000000Y-47583333D01*
X30900000Y-128500000D02*
X30950584Y-128497434D01*
X30950584Y-81102565D02*
X30900000Y-81100000D01*
X101716666Y-104800000D02*
X101716666Y-105800000D01*
X136649681Y-31722930D02*
X136600649Y-31710235D01*
X110600000Y-96983333D02*
X111600000Y-96983333D01*
X32400000Y-89416666D02*
X32400000Y-89416666D01*
X112755516Y-29562396D02*
X112793947Y-29595387D01*
X7062826Y-128242650D02*
X7089618Y-128285634D01*
X60126347Y-7031123D02*
X60079802Y-7051097D01*
X32400000Y-40016666D02*
X32400000Y-40016666D01*
X60300000Y-103800000D02*
X67183333Y-103800000D01*
X110297177Y-7040521D02*
X110249681Y-7022930D01*
X110385634Y-103710381D02*
X110406052Y-103695387D01*
X111600000Y-96983333D02*
X112600000Y-96983333D01*
X7002565Y-53950584D02*
X7010235Y-54000649D01*
X110150584Y-79097434D02*
X110200649Y-79089764D01*
X136879379Y-56574313D02*
X136862396Y-56555516D01*
X57449681Y-81122930D02*
X57400649Y-81110235D01*
X60079802Y-79048902D02*
X60102822Y-79059478D01*
X128116666Y-130500000D02*
X121483333Y-130500000D01*
X75316666Y-55400000D02*
X75316666Y-56400000D01*
X7000000Y-72283333D02*
X7000000Y-78600000D01*
X59889618Y-106014365D02*
X59862826Y-106057349D01*
X86200000Y-13816666D02*
X85200000Y-13816666D01*
X86200000Y-103300000D02*
X86202565Y-103350584D01*
X59862826Y-81357349D02*
X59840521Y-81402822D01*
X86393947Y-54295387D02*
X86414365Y-54310381D01*
X128116666Y-81100000D02*
X128116666Y-81100000D01*
X84137173Y-78842650D02*
X84159478Y-78797177D01*
X33537603Y-128344483D02*
X33574313Y-128379379D01*
X95083333Y-128500000D02*
X101716666Y-128500000D01*
X83964482Y-54324322D02*
X84006052Y-54295387D01*
X128116666Y-128500000D02*
X128116666Y-130500000D01*
X5000000Y-120183333D02*
X5000000Y-114116666D01*
X84200000Y-21383333D02*
X84200000Y-15316666D01*
X136550584Y-81102565D02*
X136500000Y-81100000D01*
X33750318Y-54377069D02*
X33799350Y-54389764D01*
X112640521Y-106102822D02*
X112622930Y-106150318D01*
X112755516Y-103662396D02*
X112793947Y-103695387D01*
X83897177Y-7040521D02*
X83849681Y-7022930D01*
X30900000Y-81100000D02*
X24016666Y-81100000D01*
X110249681Y-128477069D02*
X110297177Y-128459478D01*
X75316666Y-31700000D02*
X68683333Y-31700000D01*
X137000000Y-87916666D02*
X137000000Y-81600000D01*
X33593947Y-78995387D02*
X33614365Y-79010381D01*
X136697177Y-7040521D02*
X136649681Y-7022930D01*
X112999350Y-7010235D02*
X112950318Y-7022930D01*
X84200000Y-87916666D02*
X84200000Y-81600000D01*
X60199350Y-31710235D02*
X60174673Y-31715961D01*
X7257349Y-29637173D02*
X7302822Y-29659478D01*
X86222930Y-106150318D02*
X86210235Y-106199350D01*
X57300000Y-103800000D02*
X57350584Y-103797434D01*
X86200000Y-96983333D02*
X86200000Y-103300000D01*
X31397434Y-128050584D02*
X31400000Y-128000000D01*
X22516666Y-128500000D02*
X22516666Y-130500000D01*
X121483333Y-29700000D02*
X128116666Y-29700000D01*
X7214365Y-81189618D02*
X7193947Y-81204612D01*
X59800000Y-22883333D02*
X59800000Y-29200000D01*
X83700000Y-103800000D02*
X83750584Y-103797434D01*
X60199350Y-103789764D02*
X60249415Y-103797434D01*
X83800649Y-103789764D02*
X83849681Y-103777069D01*
X110342650Y-7062826D02*
X110297177Y-7040521D01*
X7193947Y-56504612D02*
X7155516Y-56537603D01*
X57800000Y-15316666D02*
X58800000Y-15316666D01*
X86502822Y-54359478D02*
X86550318Y-54377069D01*
X112999350Y-103789764D02*
X113049415Y-103797434D01*
X58800000Y-47583333D02*
X59800000Y-47583333D01*
X84197434Y-53950584D02*
X84200000Y-53900000D01*
X84189764Y-56799350D02*
X84177069Y-56750318D01*
X33900000Y-31700000D02*
X33849415Y-31702565D01*
X121483333Y-30700000D02*
X121483333Y-29700000D01*
X33555516Y-78962396D02*
X33593947Y-78995387D01*
X33520620Y-81274313D02*
X33489618Y-81314365D01*
X103216666Y-31700000D02*
X103216666Y-30700000D01*
X7000000Y-81600000D02*
X7000000Y-87916666D01*
X110597434Y-128050584D02*
X110600000Y-128000000D01*
X110200649Y-79089764D02*
X110249681Y-79077069D01*
X110600000Y-112616666D02*
X110600000Y-106300000D01*
X136785634Y-128410381D02*
X136806052Y-128395387D01*
X86649415Y-103797434D02*
X86700000Y-103800000D01*
X129616666Y-5000000D02*
X139000000Y-5000000D01*
X59810235Y-81499350D02*
X59802565Y-81549415D01*
X7040521Y-56702822D02*
X7022930Y-56750318D01*
X7449415Y-103797434D02*
X7500000Y-103800000D01*
X60300000Y-29700000D02*
X67183333Y-29700000D01*
X33614365Y-56489618D02*
X33593947Y-56504612D01*
X110597434Y-81549415D02*
X110589764Y-81499350D01*
X7350318Y-79077069D02*
X7399350Y-79089764D01*
X33537603Y-103644483D02*
X33574313Y-103679379D01*
X112600000Y-87916666D02*
X111600000Y-87916666D01*
X14383333Y-7000000D02*
X7500000Y-7000000D01*
X101716666Y-130500000D02*
X95083333Y-130500000D01*
X85200000Y-15316666D02*
X86200000Y-15316666D01*
X110150584Y-54397434D02*
X110200649Y-54389764D01*
X84200000Y-64716666D02*
X85200000Y-64716666D01*
X112600000Y-13816666D02*
X111600000Y-13816666D01*
X139000000Y-121683333D02*
X139000000Y-130500000D01*
X84095387Y-31893947D02*
X84062396Y-31855516D01*
X112793947Y-54295387D02*
X112814365Y-54310381D01*
X48916666Y-104800000D02*
X48916666Y-105800000D01*
X84200000Y-121683333D02*
X85200000Y-121683333D01*
X5000000Y-112616666D02*
X5000000Y-96983333D01*
X86700000Y-7000000D02*
X86649415Y-7002565D01*
X110559478Y-29397177D02*
X110577069Y-29349681D01*
X31000649Y-128489764D02*
X31049681Y-128477069D01*
X57789764Y-29300649D02*
X57797434Y-29250584D01*
X86262826Y-103542650D02*
X86289618Y-103585634D01*
X59955516Y-7137603D02*
X59920620Y-7174313D01*
X83985634Y-128410381D02*
X84025686Y-128379379D01*
X113049415Y-81102565D02*
X112999350Y-81110235D01*
X7214365Y-79010381D02*
X7257349Y-79037173D01*
X57797434Y-128050584D02*
X57800000Y-128000000D01*
X57585634Y-31789618D02*
X57542650Y-31762826D01*
X95083333Y-56400000D02*
X95083333Y-55400000D01*
X103216666Y-130500000D02*
X103216666Y-128500000D01*
X33702822Y-128459478D02*
X33750318Y-128477069D01*
X68683333Y-55400000D02*
X68683333Y-54400000D01*
X24016666Y-128500000D02*
X24016666Y-128500000D01*
X110249681Y-81122930D02*
X110200649Y-81110235D01*
X59802565Y-53950584D02*
X59810235Y-54000649D01*
X136742650Y-105862826D02*
X136697177Y-105840521D01*
X31049681Y-54377069D02*
X31097177Y-54359478D01*
X59822930Y-128149681D02*
X59840521Y-128197177D01*
X7010235Y-29300649D02*
X7022930Y-29349681D01*
X93583333Y-54400000D02*
X93583333Y-55400000D01*
X112950318Y-105822930D02*
X112902822Y-105840521D01*
X76816666Y-130500000D02*
X76816666Y-128500000D01*
X31000649Y-56410235D02*
X30950584Y-56402565D01*
X7350318Y-56422930D02*
X7302822Y-56440521D01*
X57520197Y-29648902D02*
X57564482Y-29624322D01*
X111600000Y-114116666D02*
X112600000Y-114116666D01*
X111600000Y-22883333D02*
X112600000Y-22883333D01*
X31097177Y-81140521D02*
X31049681Y-81122930D01*
X31324322Y-81335517D02*
X31295387Y-81293947D01*
X139000000Y-87916666D02*
X137000000Y-87916666D01*
X76816666Y-80100000D02*
X76816666Y-79100000D01*
X136500000Y-103800000D02*
X136550584Y-103797434D01*
X33750318Y-79077069D02*
X33799350Y-79089764D01*
X33410235Y-29300649D02*
X33422930Y-29349681D01*
X129616666Y-7000000D02*
X129616666Y-5000000D01*
X86262826Y-106057349D02*
X86240521Y-106102822D01*
X119983333Y-81100000D02*
X113100000Y-81100000D01*
X83897177Y-54359478D02*
X83920197Y-54348902D01*
X31400000Y-70783333D02*
X31400000Y-64716666D01*
X31049681Y-31722930D02*
X31000649Y-31710235D01*
X57350584Y-81102565D02*
X57300000Y-81100000D01*
X112602565Y-29250584D02*
X112610235Y-29300649D01*
X136989764Y-106199350D02*
X136977069Y-106150318D01*
X86202565Y-81549415D02*
X86200000Y-81600000D01*
X136977069Y-81450318D02*
X136959478Y-81402822D01*
X31348902Y-81379802D02*
X31324322Y-81335517D01*
X57800000Y-64716666D02*
X58800000Y-64716666D01*
X7449415Y-105802565D02*
X7399350Y-105810235D01*
X57800000Y-112616666D02*
X57800000Y-106300000D01*
X7010235Y-54000649D02*
X7022930Y-54049681D01*
X110577069Y-106150318D02*
X110559478Y-106102822D01*
X86355516Y-29562396D02*
X86393947Y-29595387D01*
X86210235Y-54000649D02*
X86222930Y-54049681D01*
X67183333Y-81100000D02*
X60300000Y-81100000D01*
X31225686Y-56520620D02*
X31185634Y-56489618D01*
X84177069Y-81450318D02*
X84159478Y-81402822D01*
X86210235Y-56799350D02*
X86202565Y-56849415D01*
X84095387Y-7193947D02*
X84062396Y-7155516D01*
X86289618Y-29485634D02*
X86320620Y-29525686D01*
X15883333Y-31700000D02*
X15883333Y-30700000D01*
X110385634Y-29610381D02*
X110406052Y-29595387D01*
X57585634Y-7089618D02*
X57542650Y-7062826D01*
X86457349Y-29637173D02*
X86502822Y-29659478D01*
X7000000Y-120183333D02*
X5000000Y-120183333D01*
X86202565Y-106249415D02*
X86200000Y-106300000D01*
X75316666Y-7000000D02*
X75316666Y-7000000D01*
X40783333Y-103800000D02*
X40783333Y-104800000D01*
X136977069Y-128149681D02*
X136989764Y-128100649D01*
X84200000Y-128000000D02*
X84200000Y-121683333D01*
X33410235Y-103400649D02*
X33422930Y-103449681D01*
X33900000Y-56400000D02*
X33849415Y-56402565D01*
X7000000Y-72283333D02*
X7000000Y-72283333D01*
X112902822Y-31740521D02*
X112857349Y-31762826D01*
X110406052Y-128395387D02*
X110444483Y-128362396D01*
X137000000Y-87916666D02*
X137000000Y-87916666D01*
X7449415Y-54397434D02*
X7500000Y-54400000D01*
X31397434Y-106249415D02*
X31389764Y-106199350D01*
X110537173Y-56657349D02*
X110510381Y-56614365D01*
X33400000Y-95483333D02*
X32400000Y-95483333D01*
X111600000Y-47583333D02*
X112600000Y-47583333D01*
X7089618Y-29485634D02*
X7120620Y-29525686D01*
X111600000Y-13816666D02*
X110600000Y-13816666D01*
X31185634Y-103710381D02*
X31225686Y-103679379D01*
X5000000Y-87916666D02*
X5000000Y-72283333D01*
X84177069Y-106150318D02*
X84159478Y-106102822D01*
X31397434Y-81549415D02*
X31397434Y-81549415D01*
X93583333Y-81100000D02*
X86700000Y-81100000D01*
X129616666Y-29700000D02*
X136500000Y-29700000D01*
X84159478Y-81402822D02*
X84148902Y-81379802D01*
X7000000Y-7500000D02*
X7000000Y-13816666D01*
X111600000Y-15316666D02*
X112600000Y-15316666D01*
X84148902Y-81379802D02*
X84124322Y-81335517D01*
X76816666Y-31700000D02*
X76816666Y-30700000D01*
X86200000Y-112616666D02*
X85200000Y-112616666D01*
X40783333Y-5000000D02*
X40783333Y-7000000D01*
X86414365Y-31789618D02*
X86393947Y-31804612D01*
X112793947Y-103695387D02*
X112814365Y-103710381D01*
X7302822Y-105840521D02*
X7257349Y-105862826D01*
X84062396Y-7155516D02*
X84025686Y-7120620D01*
X101716666Y-81100000D02*
X95083333Y-81100000D01*
X31397434Y-56849415D02*
X31389764Y-56799350D01*
X33657349Y-105862826D02*
X33614365Y-105889618D01*
X136742650Y-29637173D02*
X136785634Y-29610381D01*
X86320620Y-103625686D02*
X86355516Y-103662396D01*
X84177069Y-56750318D02*
X84159478Y-56702822D01*
X84044483Y-54262396D02*
X84079379Y-54225686D01*
X57777069Y-29349681D02*
X57789764Y-29300649D01*
X31142650Y-31762826D02*
X31097177Y-31740521D01*
X129616666Y-81100000D02*
X129616666Y-80100000D01*
X95083333Y-79100000D02*
X101716666Y-79100000D01*
X136742650Y-7062826D02*
X136697177Y-7040521D01*
X136600649Y-103789764D02*
X136649681Y-103777069D01*
X33489618Y-106014365D02*
X33462826Y-106057349D01*
X31400000Y-21383333D02*
X31400000Y-15316666D01*
X57644483Y-29562396D02*
X57679379Y-29525686D01*
X57300000Y-7000000D02*
X50416666Y-7000000D01*
X86649415Y-56402565D02*
X86599350Y-56410235D01*
X86599350Y-128489764D02*
X86649415Y-128497434D01*
X30950584Y-103797434D02*
X31000649Y-103789764D01*
X33657349Y-79037173D02*
X33702822Y-79059478D01*
X31400000Y-38516666D02*
X31400000Y-32200000D01*
X95083333Y-104800000D02*
X95083333Y-103800000D01*
X7000000Y-40016666D02*
X7000000Y-46083333D01*
X86289618Y-56614365D02*
X86262826Y-56657349D01*
X7155516Y-54262396D02*
X7193947Y-54295387D01*
X33593947Y-31804612D02*
X33555516Y-31837603D01*
X57625686Y-7120620D02*
X57585634Y-7089618D01*
X31400000Y-47583333D02*
X32400000Y-47583333D01*
X57777069Y-7350318D02*
X57759478Y-7302822D01*
X86200000Y-78600000D02*
X86202565Y-78650584D01*
X33900000Y-128500000D02*
X40783333Y-128500000D01*
X40783333Y-31700000D02*
X33900000Y-31700000D01*
X103216666Y-105800000D02*
X103216666Y-104800000D01*
X32400000Y-64716666D02*
X32400000Y-64716666D01*
X68683333Y-105800000D02*
X68683333Y-104800000D01*
X24016666Y-55400000D02*
X24016666Y-54400000D01*
X136989764Y-128100649D02*
X136997434Y-128050584D01*
X136997434Y-106249415D02*
X136989764Y-106199350D01*
X110577069Y-78749681D02*
X110589764Y-78700649D01*
X110249681Y-79077069D02*
X110297177Y-79059478D01*
X112857349Y-7062826D02*
X112814365Y-7089618D01*
X112857349Y-29637173D02*
X112902822Y-29659478D01*
X60199350Y-105810235D02*
X60150318Y-105822930D01*
X31359478Y-103497177D02*
X31377069Y-103449681D01*
X136806052Y-54295387D02*
X136844483Y-54262396D01*
X110425686Y-81220620D02*
X110385634Y-81189618D01*
X33462826Y-128242650D02*
X33489618Y-128285634D01*
X83873652Y-29668876D02*
X83920197Y-29648902D01*
X31097177Y-105840521D02*
X31049681Y-105822930D01*
X33400000Y-13816666D02*
X32400000Y-13816666D01*
X86550318Y-29677069D02*
X86599350Y-29689764D01*
X112600000Y-121683333D02*
X112600000Y-128000000D01*
X86200000Y-95483333D02*
X85200000Y-95483333D01*
X24016666Y-128500000D02*
X30900000Y-128500000D01*
X136879379Y-54225686D02*
X136910381Y-54185634D01*
X7062826Y-56657349D02*
X7040521Y-56702822D01*
X86355516Y-54262396D02*
X86393947Y-54295387D01*
X31397434Y-81549415D02*
X31389764Y-81499350D01*
X22516666Y-5000000D02*
X22516666Y-7000000D01*
X57585634Y-128410381D02*
X57625686Y-128379379D01*
X33849415Y-79097434D02*
X33900000Y-79100000D01*
X136862396Y-105955516D02*
X136825686Y-105920620D01*
X60102822Y-56440521D02*
X60079802Y-56451097D01*
X5000000Y-70783333D02*
X5000000Y-64716666D01*
X112662826Y-78842650D02*
X112689618Y-78885634D01*
X33462826Y-81357349D02*
X33440521Y-81402822D01*
X110600000Y-38516666D02*
X110600000Y-32200000D01*
X60249415Y-54397434D02*
X60300000Y-54400000D01*
X86700000Y-79100000D02*
X93583333Y-79100000D01*
X7235517Y-29624322D02*
X7257349Y-29637173D01*
X110100000Y-54400000D02*
X110150584Y-54397434D01*
X32400000Y-89416666D02*
X33400000Y-89416666D01*
X59955516Y-78962396D02*
X59993947Y-78995387D01*
X5000000Y-47583333D02*
X7000000Y-47583333D01*
X84025686Y-7120620D02*
X83985634Y-7089618D01*
X31279379Y-128325686D02*
X31310381Y-128285634D01*
X7500000Y-103800000D02*
X14383333Y-103800000D01*
X136742650Y-103737173D02*
X136785634Y-103710381D01*
X95083333Y-29700000D02*
X101716666Y-29700000D01*
X110100000Y-79100000D02*
X110150584Y-79097434D01*
X84006052Y-54295387D02*
X84044483Y-54262396D01*
X33593947Y-7104612D02*
X33555516Y-7137603D01*
X112720620Y-128325686D02*
X112755516Y-128362396D01*
X33635517Y-29624322D02*
X33657349Y-29637173D01*
X83849681Y-128477069D02*
X83897177Y-128459478D01*
X31389764Y-78700649D02*
X31397434Y-78650584D01*
X112950318Y-7022930D02*
X112902822Y-7040521D01*
X59800000Y-106300000D02*
X59800000Y-112616666D01*
X59810235Y-128100649D02*
X59822930Y-128149681D01*
X86700000Y-105800000D02*
X86649415Y-105802565D01*
X33635517Y-7075677D02*
X33593947Y-7104612D01*
X57748902Y-81379802D02*
X57724322Y-81335517D01*
X111600000Y-121683333D02*
X112600000Y-121683333D01*
X31000649Y-103789764D02*
X31049681Y-103777069D01*
X57759478Y-56702822D02*
X57748902Y-56679802D01*
X57800000Y-72283333D02*
X58800000Y-72283333D01*
X31097177Y-31740521D02*
X31049681Y-31722930D01*
X112640521Y-7302822D02*
X112622930Y-7350318D01*
X33400000Y-64716666D02*
X33400000Y-70783333D01*
X40783333Y-80100000D02*
X40783333Y-81100000D01*
X59974313Y-105920620D02*
X59955516Y-105937603D01*
X7000000Y-121683333D02*
X7000000Y-121683333D01*
X7137603Y-103644483D02*
X7174313Y-103679379D01*
X112793947Y-128395387D02*
X112814365Y-128410381D01*
X7350318Y-128477069D02*
X7399350Y-128489764D01*
X110200649Y-7010235D02*
X110150584Y-7002565D01*
X7089618Y-81314365D02*
X7062826Y-81357349D01*
X31000649Y-79089764D02*
X31049681Y-79077069D01*
X57449681Y-105822930D02*
X57400649Y-105810235D01*
X136879379Y-128325686D02*
X136910381Y-128285634D01*
X84062396Y-81255516D02*
X84025686Y-81220620D01*
X113049415Y-7002565D02*
X112999350Y-7010235D01*
X112902822Y-56440521D02*
X112857349Y-56462826D01*
X83700000Y-29700000D02*
X83750584Y-29697434D01*
X33520620Y-56574313D02*
X33489618Y-56614365D01*
X136959478Y-7302822D02*
X136937173Y-7257349D01*
X57300000Y-31700000D02*
X50416666Y-31700000D01*
X57777069Y-81450318D02*
X57759478Y-81402822D01*
X57564482Y-79024322D02*
X57606052Y-78995387D01*
X111600000Y-15316666D02*
X111600000Y-15316666D01*
X103216666Y-79100000D02*
X110100000Y-79100000D01*
X86457349Y-81162826D02*
X86414365Y-81189618D01*
X112610235Y-103400649D02*
X112622930Y-103449681D01*
X7040521Y-29397177D02*
X7062826Y-29442650D01*
X40783333Y-105800000D02*
X33900000Y-105800000D01*
X112640521Y-54097177D02*
X112662826Y-54142650D01*
X121483333Y-105800000D02*
X121483333Y-104800000D01*
X84200000Y-53900000D02*
X84200000Y-47583333D01*
X110537173Y-31957349D02*
X110510381Y-31914365D01*
X110559478Y-56702822D02*
X110537173Y-56657349D01*
X42283333Y-55400000D02*
X42283333Y-55400000D01*
X7350318Y-31722930D02*
X7302822Y-31740521D01*
X58800000Y-13816666D02*
X57800000Y-13816666D01*
X7399350Y-81110235D02*
X7350318Y-81122930D01*
X33402565Y-128050584D02*
X33410235Y-128100649D01*
X7302822Y-7040521D02*
X7257349Y-7062826D01*
X50416666Y-81100000D02*
X50416666Y-80100000D01*
X31397434Y-7449415D02*
X31389764Y-7399350D01*
X86200000Y-46083333D02*
X85200000Y-46083333D01*
X33400000Y-46083333D02*
X32400000Y-46083333D01*
X136862396Y-31855516D02*
X136825686Y-31820620D01*
X59974313Y-128379379D02*
X60014365Y-128410381D01*
X24016666Y-30700000D02*
X24016666Y-29700000D01*
X86320620Y-78925686D02*
X86355516Y-78962396D01*
X7089618Y-106014365D02*
X7062826Y-106057349D01*
X112600000Y-112616666D02*
X111600000Y-112616666D01*
X75316666Y-128500000D02*
X75316666Y-130500000D01*
X136649681Y-81122930D02*
X136600649Y-81110235D01*
X110589764Y-103400649D02*
X110597434Y-103350584D01*
X7350318Y-29677069D02*
X7399350Y-29689764D01*
X112755516Y-105937603D02*
X112720620Y-105974313D01*
X31384038Y-56774673D02*
X31368876Y-56726347D01*
X112600000Y-32200000D02*
X112600000Y-38516666D01*
X110510381Y-54185634D02*
X110537173Y-54142650D01*
X129616666Y-56400000D02*
X129616666Y-55400000D01*
X33489618Y-7214365D02*
X33462826Y-7257349D01*
X84197434Y-56849415D02*
X84189764Y-56799350D01*
X93583333Y-128500000D02*
X93583333Y-130500000D01*
X7120620Y-78925686D02*
X7155516Y-78962396D01*
X84197434Y-7449415D02*
X84189764Y-7399350D01*
X57759478Y-106102822D02*
X57737173Y-106057349D01*
X33702822Y-79059478D02*
X33750318Y-79077069D01*
X60035517Y-54324322D02*
X60079802Y-54348902D01*
X84189764Y-78700649D02*
X84197434Y-78650584D01*
X57606052Y-29595387D02*
X57644483Y-29562396D01*
X22516666Y-7000000D02*
X15883333Y-7000000D01*
X59822930Y-56750318D02*
X59810235Y-56799350D01*
X31389764Y-81499350D02*
X31384038Y-81474673D01*
X139000000Y-120183333D02*
X137000000Y-120183333D01*
X86457349Y-105862826D02*
X86414365Y-105889618D01*
X137000000Y-81600000D02*
X136997434Y-81549415D01*
X33462826Y-7257349D02*
X33440521Y-7302822D01*
X86210235Y-78700649D02*
X86222930Y-78749681D01*
X31225686Y-128379379D02*
X31244483Y-128362396D01*
X128116666Y-7000000D02*
X121483333Y-7000000D01*
X84197434Y-32149415D02*
X84189764Y-32099350D01*
X7002565Y-81549415D02*
X7000000Y-81600000D01*
X7040521Y-7302822D02*
X7022930Y-7350318D01*
X7399350Y-105810235D02*
X7350318Y-105822930D01*
X59800000Y-87916666D02*
X58800000Y-87916666D01*
X136910381Y-54185634D02*
X136937173Y-54142650D01*
X7193947Y-78995387D02*
X7214365Y-79010381D01*
X68683333Y-103800000D02*
X75316666Y-103800000D01*
X31389764Y-54000649D02*
X31397434Y-53950584D01*
X86200000Y-7500000D02*
X86200000Y-13816666D01*
X31142650Y-128437173D02*
X31185634Y-128410381D01*
X112999350Y-56410235D02*
X112950318Y-56422930D01*
X59810235Y-56799350D02*
X59802565Y-56849415D01*
X31262396Y-56555516D02*
X31225686Y-56520620D01*
X5000000Y-13816666D02*
X5000000Y-5000000D01*
X31400000Y-72283333D02*
X32400000Y-72283333D01*
X86649415Y-105802565D02*
X86599350Y-105810235D01*
X136742650Y-81162826D02*
X136697177Y-81140521D01*
X7062826Y-31957349D02*
X7040521Y-32002822D01*
X68683333Y-31700000D02*
X68683333Y-30700000D01*
X33440521Y-7302822D02*
X33422930Y-7350318D01*
X59800000Y-32200000D02*
X59800000Y-38516666D01*
X111600000Y-70783333D02*
X110600000Y-70783333D01*
X7062826Y-103542650D02*
X7089618Y-103585634D01*
X7022930Y-106150318D02*
X7010235Y-106199350D01*
X31142650Y-56462826D02*
X31097177Y-56440521D01*
X33574313Y-103679379D02*
X33614365Y-103710381D01*
X86502822Y-105840521D02*
X86457349Y-105862826D01*
X110385634Y-54310381D02*
X110406052Y-54295387D01*
X110600000Y-120183333D02*
X110600000Y-114116666D01*
X33555516Y-7137603D02*
X33520620Y-7174313D01*
X33750318Y-56422930D02*
X33702822Y-56440521D01*
X31400000Y-103300000D02*
X31400000Y-96983333D01*
X86393947Y-128395387D02*
X86414365Y-128410381D01*
X121483333Y-56400000D02*
X121483333Y-56400000D01*
X83942650Y-103737173D02*
X83985634Y-103710381D01*
X101716666Y-29700000D02*
X101716666Y-30700000D01*
X57300000Y-79100000D02*
X57350584Y-79097434D01*
X83849681Y-105822930D02*
X83800649Y-105810235D01*
X58800000Y-38516666D02*
X57800000Y-38516666D01*
X76816666Y-79100000D02*
X83700000Y-79100000D01*
X137000000Y-22883333D02*
X139000000Y-22883333D01*
X57759478Y-32002822D02*
X57737173Y-31957349D01*
X33440521Y-56702822D02*
X33422930Y-56750318D01*
X7120620Y-56574313D02*
X7089618Y-56614365D01*
X33402565Y-106249415D02*
X33400000Y-106300000D01*
X95083333Y-130500000D02*
X95083333Y-128500000D01*
X15883333Y-29700000D02*
X15883333Y-29700000D01*
X136977069Y-106150318D02*
X136959478Y-106102822D01*
X31097177Y-29659478D02*
X31142650Y-29637173D01*
X60035517Y-7075677D02*
X59993947Y-7104612D01*
X86200000Y-32200000D02*
X86200000Y-38516666D01*
X59955516Y-31837603D02*
X59920620Y-31874313D01*
X33849415Y-31702565D02*
X33799350Y-31710235D01*
X14383333Y-54400000D02*
X14383333Y-55400000D01*
X57800000Y-103300000D02*
X57800000Y-96983333D01*
X112857349Y-56462826D02*
X112814365Y-56489618D01*
X59920620Y-54225686D02*
X59955516Y-54262396D01*
X40783333Y-55400000D02*
X40783333Y-56400000D01*
X7000000Y-64716666D02*
X7000000Y-64716666D01*
X7022930Y-7350318D02*
X7010235Y-7399350D01*
X136742650Y-31762826D02*
X136697177Y-31740521D01*
X7040521Y-103497177D02*
X7062826Y-103542650D01*
X31389764Y-106199350D02*
X31377069Y-106150318D01*
X31337173Y-103542650D02*
X31359478Y-103497177D01*
X31397434Y-106249415D02*
X31397434Y-106249415D01*
X86550318Y-56422930D02*
X86502822Y-56440521D01*
X86414365Y-105889618D02*
X86393947Y-105904612D01*
X22516666Y-55400000D02*
X22516666Y-56400000D01*
X68683333Y-81100000D02*
X68683333Y-80100000D01*
X136600649Y-81110235D02*
X136550584Y-81102565D01*
X0Y-135500000D02*
X0Y-135500000D01*
X84110381Y-106014365D02*
X84095387Y-105993947D01*
X67183333Y-128500000D02*
X67183333Y-130500000D01*
X101716666Y-54400000D02*
X101716666Y-55400000D01*
X112610235Y-106199350D02*
X112602565Y-106249415D01*
X57425326Y-29684038D02*
X57473652Y-29668876D01*
X31400000Y-121683333D02*
X32400000Y-121683333D01*
X101716666Y-55400000D02*
X101716666Y-56400000D01*
X83800649Y-54389764D02*
X83849681Y-54377069D01*
X33750318Y-128477069D02*
X33799350Y-128489764D01*
X31400000Y-120183333D02*
X31400000Y-114116666D01*
X57800000Y-21383333D02*
X57800000Y-15316666D01*
X50416666Y-55400000D02*
X50416666Y-54400000D01*
X112950318Y-29677069D02*
X112999350Y-29689764D01*
X31225686Y-31820620D02*
X31185634Y-31789618D01*
X59800000Y-103300000D02*
X59802565Y-103350584D01*
X24016666Y-81100000D02*
X24016666Y-80100000D01*
X7022930Y-78749681D02*
X7040521Y-78797177D01*
X31295387Y-105993947D02*
X31262396Y-105955516D01*
X33614365Y-79010381D02*
X33657349Y-79037173D01*
X112600000Y-47583333D02*
X112600000Y-53900000D01*
X57679379Y-128325686D02*
X57710381Y-128285634D01*
X119983333Y-31700000D02*
X113100000Y-31700000D01*
X57789764Y-7399350D02*
X57777069Y-7350318D01*
X24016666Y-31700000D02*
X24016666Y-30700000D01*
X101716666Y-105800000D02*
X95083333Y-105800000D01*
X33400000Y-128000000D02*
X33402565Y-128050584D01*
X22516666Y-54400000D02*
X22516666Y-55400000D01*
X110577069Y-103449681D02*
X110589764Y-103400649D01*
X112662826Y-56657349D02*
X112640521Y-56702822D01*
X139000000Y-64716666D02*
X139000000Y-70783333D01*
X95083333Y-54400000D02*
X101716666Y-54400000D01*
X31310381Y-103585634D02*
X31337173Y-103542650D01*
X110600000Y-106300000D02*
X110597434Y-106249415D01*
X86550318Y-7022930D02*
X86502822Y-7040521D01*
X112857349Y-105862826D02*
X112814365Y-105889618D01*
X7104612Y-103606052D02*
X7137603Y-103644483D01*
X7500000Y-128500000D02*
X14383333Y-128500000D01*
X32400000Y-13816666D02*
X31400000Y-13816666D01*
X110597434Y-32149415D02*
X110597434Y-32149415D01*
X86289618Y-128285634D02*
X86320620Y-128325686D01*
X57300000Y-56400000D02*
X50416666Y-56400000D01*
X129616666Y-105800000D02*
X129616666Y-104800000D01*
X57585634Y-103710381D02*
X57625686Y-103679379D01*
X22516666Y-31700000D02*
X15883333Y-31700000D01*
X59840521Y-54097177D02*
X59862826Y-54142650D01*
X57625686Y-81220620D02*
X57585634Y-81189618D01*
X83700000Y-54400000D02*
X83750584Y-54397434D01*
X136862396Y-81255516D02*
X136825686Y-81220620D01*
X110600000Y-103300000D02*
X110600000Y-96983333D01*
X75316666Y-103800000D02*
X75316666Y-104800000D01*
X83942650Y-105862826D02*
X83897177Y-105840521D01*
X57737173Y-7257349D02*
X57710381Y-7214365D01*
X57724322Y-81335517D02*
X57695387Y-81293947D01*
X42283333Y-79100000D02*
X48916666Y-79100000D01*
X57800000Y-63216666D02*
X57800000Y-63216666D01*
X139000000Y-13816666D02*
X137000000Y-13816666D01*
X136649681Y-29677069D02*
X136697177Y-29659478D01*
X57777069Y-103449681D02*
X57789764Y-103400649D01*
X7155516Y-7137603D02*
X7120620Y-7174313D01*
X112689618Y-128285634D02*
X112720620Y-128325686D01*
X57759478Y-128197177D02*
X57777069Y-128149681D01*
X33593947Y-81204612D02*
X33555516Y-81237603D01*
X59862826Y-78842650D02*
X59889618Y-78885634D01*
X33400000Y-15316666D02*
X33400000Y-21383333D01*
X110597434Y-78650584D02*
X110600000Y-78600000D01*
X31164482Y-29624322D02*
X31206052Y-29595387D01*
X112950318Y-128477069D02*
X112999350Y-128489764D01*
X15883333Y-128500000D02*
X22516666Y-128500000D01*
X59800000Y-46083333D02*
X58800000Y-46083333D01*
X121483333Y-103800000D02*
X128116666Y-103800000D01*
X110577069Y-29349681D02*
X110589764Y-29300649D01*
X86599350Y-7010235D02*
X86550318Y-7022930D01*
X7235517Y-31775677D02*
X7193947Y-31804612D01*
X7000000Y-89416666D02*
X7000000Y-95483333D01*
X110342650Y-31762826D02*
X110297177Y-31740521D01*
X93583333Y-7000000D02*
X93583333Y-7000000D01*
X86200000Y-70783333D02*
X85200000Y-70783333D01*
X57710381Y-54185634D02*
X57737173Y-54142650D01*
X83985634Y-56489618D02*
X83942650Y-56462826D01*
X7000000Y-13816666D02*
X5000000Y-13816666D01*
X83897177Y-31740521D02*
X83849681Y-31722930D01*
X31049681Y-7022930D02*
X31000649Y-7010235D01*
X83700000Y-79100000D02*
X83750584Y-79097434D01*
X50416666Y-29700000D02*
X57300000Y-29700000D01*
X121483333Y-55400000D02*
X121483333Y-54400000D01*
X113049415Y-31702565D02*
X112999350Y-31710235D01*
X33657349Y-81162826D02*
X33614365Y-81189618D01*
X7000000Y-103300000D02*
X7002565Y-103350584D01*
X84159478Y-54097177D02*
X84177069Y-54049681D01*
X86222930Y-32050318D02*
X86210235Y-32099350D01*
X129616666Y-128500000D02*
X136500000Y-128500000D01*
X7010235Y-128100649D02*
X7022930Y-128149681D01*
X86262826Y-29442650D02*
X86289618Y-29485634D01*
X31097177Y-128459478D02*
X31142650Y-128437173D01*
X59889618Y-128285634D02*
X59904612Y-128306052D01*
X86262826Y-81357349D02*
X86240521Y-81402822D01*
X83750584Y-7002565D02*
X83700000Y-7000000D01*
X76816666Y-54400000D02*
X76816666Y-54400000D01*
X31377069Y-128149681D02*
X31389764Y-128100649D01*
X110200649Y-29689764D02*
X110249681Y-29677069D01*
X14383333Y-55400000D02*
X14383333Y-56400000D01*
X57400649Y-103789764D02*
X57449681Y-103777069D01*
X57585634Y-56489618D02*
X57542650Y-56462826D01*
X7000000Y-56900000D02*
X7000000Y-63216666D01*
X33400000Y-53900000D02*
X33402565Y-53950584D01*
X113049415Y-128497434D02*
X113100000Y-128500000D01*
X136879379Y-103625686D02*
X136910381Y-103585634D01*
X40783333Y-7000000D02*
X33900000Y-7000000D01*
X31377069Y-78749681D02*
X31389764Y-78700649D01*
X31359478Y-7302822D02*
X31337173Y-7257349D01*
X83800649Y-105810235D02*
X83750584Y-105802565D01*
X121483333Y-30700000D02*
X121483333Y-30700000D01*
X32400000Y-112616666D02*
X31400000Y-112616666D01*
X136742650Y-79037173D02*
X136785634Y-79010381D01*
X7120620Y-105974313D02*
X7089618Y-106014365D01*
X31400000Y-15316666D02*
X32400000Y-15316666D01*
X112793947Y-7104612D02*
X112755516Y-7137603D01*
X95083333Y-80100000D02*
X95083333Y-79100000D01*
X112720620Y-54225686D02*
X112755516Y-54262396D01*
X86200000Y-89416666D02*
X86200000Y-89416666D01*
X7010235Y-56799350D02*
X7002565Y-56849415D01*
X112602565Y-106249415D02*
X112600000Y-106300000D01*
X112662826Y-31957349D02*
X112640521Y-32002822D01*
X58800000Y-15316666D02*
X59800000Y-15316666D01*
X95083333Y-81100000D02*
X95083333Y-80100000D01*
X86457349Y-31762826D02*
X86414365Y-31789618D01*
X57350584Y-128497434D02*
X57400649Y-128489764D01*
X86502822Y-29659478D02*
X86550318Y-29677069D01*
X85200000Y-13816666D02*
X84200000Y-13816666D01*
X59800000Y-38516666D02*
X58800000Y-38516666D01*
X5000000Y-22883333D02*
X7000000Y-22883333D01*
X7089618Y-103585634D02*
X7104612Y-103606052D01*
X110510381Y-56614365D02*
X110479379Y-56574313D01*
X7000000Y-89416666D02*
X7000000Y-89416666D01*
X110537173Y-128242650D02*
X110559478Y-128197177D01*
X93583333Y-104800000D02*
X93583333Y-105800000D01*
X86355516Y-31837603D02*
X86320620Y-31874313D01*
X112640521Y-56702822D02*
X112622930Y-56750318D01*
X33489618Y-54185634D02*
X33520620Y-54225686D01*
X137000000Y-95483333D02*
X137000000Y-95483333D01*
X136697177Y-56440521D02*
X136649681Y-56422930D01*
X86457349Y-79037173D02*
X86502822Y-79059478D01*
X31262396Y-105955516D02*
X31225686Y-105920620D01*
X57350584Y-7002565D02*
X57300000Y-7000000D01*
X33410235Y-56799350D02*
X33402565Y-56849415D01*
X33400000Y-78600000D02*
X33402565Y-78650584D01*
X110600000Y-63216666D02*
X110600000Y-56900000D01*
X50416666Y-128500000D02*
X50416666Y-128500000D01*
X110589764Y-128100649D02*
X110597434Y-128050584D01*
X7089618Y-31914365D02*
X7062826Y-31957349D01*
X67183333Y-130500000D02*
X50416666Y-130500000D01*
X31000649Y-54389764D02*
X31049681Y-54377069D01*
X31142650Y-81162826D02*
X31097177Y-81140521D01*
X59840521Y-29397177D02*
X59862826Y-29442650D01*
X112814365Y-7089618D02*
X112793947Y-7104612D01*
X75316666Y-56400000D02*
X68683333Y-56400000D01*
X84189764Y-128100649D02*
X84197434Y-128050584D01*
X7000000Y-46083333D02*
X5000000Y-46083333D01*
X60057349Y-105862826D02*
X60014365Y-105889618D01*
X42283333Y-55400000D02*
X42283333Y-54400000D01*
X57800000Y-53900000D02*
X57800000Y-47583333D01*
X60300000Y-81100000D02*
X60249415Y-81102565D01*
X33702822Y-56440521D02*
X33657349Y-56462826D01*
X31389764Y-103400649D02*
X31397434Y-103350584D01*
X110100000Y-128500000D02*
X110150584Y-128497434D01*
X7000000Y-121683333D02*
X7000000Y-128000000D01*
X83700000Y-105800000D02*
X76816666Y-105800000D01*
X7000000Y-15316666D02*
X7000000Y-21383333D01*
X57606052Y-78995387D02*
X57644483Y-78962396D01*
X59955516Y-56537603D02*
X59920620Y-56574313D01*
X86502822Y-56440521D02*
X86457349Y-56462826D01*
X84062396Y-105955516D02*
X84025686Y-105920620D01*
X7449415Y-81102565D02*
X7399350Y-81110235D01*
X33702822Y-103759478D02*
X33750318Y-103777069D01*
X83849681Y-103777069D02*
X83897177Y-103759478D01*
X57797434Y-103350584D02*
X57800000Y-103300000D01*
X112600000Y-63216666D02*
X111600000Y-63216666D01*
X57800000Y-121683333D02*
X58800000Y-121683333D01*
X83825326Y-29684038D02*
X83873652Y-29668876D01*
X60150318Y-56422930D02*
X60102822Y-56440521D01*
X136825686Y-56520620D02*
X136785634Y-56489618D01*
X86550318Y-105822930D02*
X86502822Y-105840521D01*
X60249415Y-128497434D02*
X60300000Y-128500000D01*
X7257349Y-31762826D02*
X7235517Y-31775677D01*
X84200000Y-95483333D02*
X84200000Y-89416666D01*
X110425686Y-7120620D02*
X110385634Y-7089618D01*
X136879379Y-81274313D02*
X136862396Y-81255516D01*
X57797434Y-7449415D02*
X57789764Y-7399350D01*
X7000000Y-114116666D02*
X7000000Y-114116666D01*
X57350584Y-79097434D02*
X57400649Y-79089764D01*
X24016666Y-54400000D02*
X30900000Y-54400000D01*
X86599350Y-54389764D02*
X86649415Y-54397434D01*
X112622930Y-32050318D02*
X112610235Y-32099350D01*
X5000000Y-121683333D02*
X7000000Y-121683333D01*
X31262396Y-7155516D02*
X31225686Y-7120620D01*
X119983333Y-29700000D02*
X119983333Y-30700000D01*
X86200000Y-15316666D02*
X86200000Y-21383333D01*
X84200000Y-89416666D02*
X85200000Y-89416666D01*
X7399350Y-54389764D02*
X7449415Y-54397434D01*
X84148902Y-56679802D02*
X84124322Y-56635517D01*
X57777069Y-54049681D02*
X57789764Y-54000649D01*
X60249415Y-105802565D02*
X60199350Y-105810235D01*
X32400000Y-64716666D02*
X33400000Y-64716666D01*
X33702822Y-105840521D02*
X33657349Y-105862826D01*
X136910381Y-31914365D02*
X136879379Y-31874313D01*
X57759478Y-81402822D02*
X57748902Y-81379802D01*
X136500000Y-128500000D02*
X136550584Y-128497434D01*
X84197434Y-106249415D02*
X84189764Y-106199350D01*
X33555516Y-56537603D02*
X33520620Y-56574313D01*
X59993947Y-78995387D02*
X60035517Y-79024322D01*
X76816666Y-81100000D02*
X76816666Y-80100000D01*
X136649681Y-105822930D02*
X136600649Y-105810235D01*
X112902822Y-105840521D02*
X112857349Y-105862826D01*
X112902822Y-103759478D02*
X112950318Y-103777069D01*
X57800000Y-40016666D02*
X58800000Y-40016666D01*
X30950584Y-128497434D02*
X31000649Y-128489764D01*
X33400000Y-87916666D02*
X32400000Y-87916666D01*
X112720620Y-31874313D02*
X112689618Y-31914365D01*
X113100000Y-79100000D02*
X119983333Y-79100000D01*
X14383333Y-7000000D02*
X14383333Y-7000000D01*
X83750584Y-79097434D02*
X83800649Y-79089764D01*
X31097177Y-56440521D02*
X31049681Y-56422930D01*
X112640521Y-29397177D02*
X112662826Y-29442650D01*
X86550318Y-31722930D02*
X86502822Y-31740521D01*
X57542650Y-128437173D02*
X57585634Y-128410381D01*
X31049681Y-81122930D02*
X31000649Y-81110235D01*
X57777069Y-56750318D02*
X57759478Y-56702822D01*
X103216666Y-104800000D02*
X103216666Y-103800000D01*
X24016666Y-7000000D02*
X24016666Y-5000000D01*
X137000000Y-120183333D02*
X137000000Y-114116666D01*
X33657349Y-7062826D02*
X33635517Y-7075677D01*
X136844483Y-78962396D02*
X136879379Y-78925686D01*
X86502822Y-31740521D02*
X86457349Y-31762826D01*
X137000000Y-21383333D02*
X137000000Y-15316666D01*
X84200000Y-15316666D02*
X85200000Y-15316666D01*
X84137173Y-54142650D02*
X84159478Y-54097177D01*
X84200000Y-38516666D02*
X84200000Y-32200000D01*
X85200000Y-21383333D02*
X84200000Y-21383333D01*
X110600000Y-128000000D02*
X110600000Y-121683333D01*
X139000000Y-22883333D02*
X139000000Y-38516666D01*
X84197434Y-78650584D02*
X84200000Y-78600000D01*
X31185634Y-105889618D02*
X31142650Y-105862826D01*
X57400649Y-7010235D02*
X57350584Y-7002565D01*
X86502822Y-103759478D02*
X86550318Y-103777069D01*
X136500000Y-105800000D02*
X129616666Y-105800000D01*
X136937173Y-106057349D02*
X136910381Y-106014365D01*
X86355516Y-128362396D02*
X86393947Y-128395387D01*
X112999350Y-105810235D02*
X112950318Y-105822930D01*
X136910381Y-81314365D02*
X136879379Y-81274313D01*
X139000000Y-130500000D02*
X129616666Y-130500000D01*
X112689618Y-54185634D02*
X112720620Y-54225686D01*
X136977069Y-56750318D02*
X136959478Y-56702822D01*
X86200000Y-120183333D02*
X85200000Y-120183333D01*
X7302822Y-79059478D02*
X7350318Y-79077069D01*
X110150584Y-56402565D02*
X110100000Y-56400000D01*
X86240521Y-56702822D02*
X86222930Y-56750318D01*
X86262826Y-31957349D02*
X86240521Y-32002822D01*
X101716666Y-80100000D02*
X101716666Y-81100000D01*
X7174313Y-103679379D02*
X7214365Y-103710381D01*
X84137173Y-106057349D02*
X84110381Y-106014365D01*
X136959478Y-29397177D02*
X136977069Y-29349681D01*
X60035517Y-31775677D02*
X59993947Y-31804612D01*
X68683333Y-105800000D02*
X68683333Y-105800000D01*
X136600649Y-128489764D02*
X136649681Y-128477069D01*
X136959478Y-56702822D02*
X136937173Y-56657349D01*
X5000000Y-40016666D02*
X7000000Y-40016666D01*
X83700000Y-81100000D02*
X76816666Y-81100000D01*
X48916666Y-5000000D02*
X48916666Y-7000000D01*
X136500000Y-29700000D02*
X136550584Y-29697434D01*
X121483333Y-104800000D02*
X121483333Y-104800000D01*
X139000000Y-96983333D02*
X139000000Y-112616666D01*
X136844483Y-128362396D02*
X136879379Y-128325686D01*
X60079802Y-54348902D02*
X60102822Y-54359478D01*
X59889618Y-31914365D02*
X59862826Y-31957349D01*
X57542650Y-105862826D02*
X57497177Y-105840521D01*
X33849415Y-54397434D02*
X33900000Y-54400000D01*
X58800000Y-95483333D02*
X57800000Y-95483333D01*
X110589764Y-81499350D02*
X110577069Y-81450318D01*
X58800000Y-87916666D02*
X57800000Y-87916666D01*
X15883333Y-54400000D02*
X22516666Y-54400000D01*
X112640521Y-32002822D02*
X112622930Y-32050318D01*
X33400000Y-89416666D02*
X33400000Y-95483333D01*
X86355516Y-7137603D02*
X86320620Y-7174313D01*
X112610235Y-54000649D02*
X112622930Y-54049681D01*
X95083333Y-128500000D02*
X95083333Y-128500000D01*
X112602565Y-128050584D02*
X112610235Y-128100649D01*
X60199350Y-128489764D02*
X60249415Y-128497434D01*
X33400000Y-96983333D02*
X33400000Y-103300000D01*
X7089618Y-56614365D02*
X7062826Y-56657349D01*
X112600000Y-7500000D02*
X112600000Y-13816666D01*
X31097177Y-79059478D02*
X31142650Y-79037173D01*
X31262396Y-81255516D02*
X31225686Y-81220620D01*
X86202565Y-56849415D02*
X86200000Y-56900000D01*
X112689618Y-106014365D02*
X112662826Y-106057349D01*
X101716666Y-5000000D02*
X101716666Y-7000000D01*
X113049415Y-54397434D02*
X113100000Y-54400000D01*
X112602565Y-78650584D02*
X112610235Y-78700649D01*
X95083333Y-31700000D02*
X95083333Y-31700000D01*
X110150584Y-105802565D02*
X110100000Y-105800000D01*
X137000000Y-128000000D02*
X137000000Y-121683333D01*
X59955516Y-105937603D02*
X59920620Y-105974313D01*
X33520620Y-7174313D02*
X33489618Y-7214365D01*
X86262826Y-78842650D02*
X86289618Y-78885634D01*
X33900000Y-7000000D02*
X33849415Y-7002565D01*
X103216666Y-5000000D02*
X119983333Y-5000000D01*
X110600000Y-53900000D02*
X110600000Y-47583333D01*
X31142650Y-54337173D02*
X31185634Y-54310381D01*
X128116666Y-54400000D02*
X128116666Y-55400000D01*
X84200000Y-13816666D02*
X84200000Y-7500000D01*
X136600649Y-31710235D02*
X136550584Y-31702565D01*
X136550584Y-103797434D02*
X136600649Y-103789764D01*
X128116666Y-30700000D02*
X128116666Y-31700000D01*
X57800000Y-96983333D02*
X58800000Y-96983333D01*
X86200000Y-64716666D02*
X86200000Y-64716666D01*
X33593947Y-54295387D02*
X33614365Y-54310381D01*
X33489618Y-81314365D02*
X33462826Y-81357349D01*
X5000000Y-96983333D02*
X7000000Y-96983333D01*
X76816666Y-30700000D02*
X76816666Y-29700000D01*
X31337173Y-78842650D02*
X31359478Y-78797177D01*
X33799350Y-103789764D02*
X33849415Y-103797434D01*
X112600000Y-56900000D02*
X112600000Y-63216666D01*
X31279379Y-78925686D02*
X31310381Y-78885634D01*
X101716666Y-30700000D02*
X101716666Y-31700000D01*
X7000000Y-15316666D02*
X7000000Y-15316666D01*
X48916666Y-105800000D02*
X42283333Y-105800000D01*
X85200000Y-64716666D02*
X86200000Y-64716666D01*
X129616666Y-104800000D02*
X129616666Y-103800000D01*
X84079379Y-78925686D02*
X84110381Y-78885634D01*
X86700000Y-54400000D02*
X93583333Y-54400000D01*
X112755516Y-81237603D02*
X112720620Y-81274313D01*
X57710381Y-29485634D02*
X57737173Y-29442650D01*
X86320620Y-128325686D02*
X86355516Y-128362396D01*
X68683333Y-5000000D02*
X75316666Y-5000000D01*
X86289618Y-103585634D02*
X86320620Y-103625686D01*
X111600000Y-64716666D02*
X111600000Y-64716666D01*
X7500000Y-7000000D02*
X7449415Y-7002565D01*
X137000000Y-7500000D02*
X136997434Y-7449415D01*
X110342650Y-29637173D02*
X110385634Y-29610381D01*
X84200000Y-81600000D02*
X84197434Y-81549415D01*
X84200000Y-32200000D02*
X84200000Y-32200000D01*
X48916666Y-81100000D02*
X42283333Y-81100000D01*
X33400000Y-21383333D02*
X32400000Y-21383333D01*
X110385634Y-31789618D02*
X110342650Y-31762826D01*
X84006052Y-78995387D02*
X84044483Y-78962396D01*
X84137173Y-31957349D02*
X84110381Y-31914365D01*
X7000000Y-22883333D02*
X7000000Y-22883333D01*
X57564482Y-29624322D02*
X57606052Y-29595387D01*
X121483333Y-56400000D02*
X121483333Y-55400000D01*
X86289618Y-106014365D02*
X86262826Y-106057349D01*
X57800000Y-46083333D02*
X57800000Y-40016666D01*
X48916666Y-128500000D02*
X48916666Y-130500000D01*
X86457349Y-128437173D02*
X86502822Y-128459478D01*
X137000000Y-13816666D02*
X137000000Y-13816666D01*
X33410235Y-128100649D02*
X33422930Y-128149681D01*
X42283333Y-7000000D02*
X42283333Y-5000000D01*
X60035517Y-79024322D02*
X60079802Y-79048902D01*
X111600000Y-72283333D02*
X112600000Y-72283333D01*
X84110381Y-31914365D02*
X84095387Y-31893947D01*
X75316666Y-104800000D02*
X75316666Y-105800000D01*
X86210235Y-81499350D02*
X86202565Y-81549415D01*
X75316666Y-81100000D02*
X68683333Y-81100000D01*
X33657349Y-31762826D02*
X33635517Y-31775677D01*
X83897177Y-56440521D02*
X83849681Y-56422930D01*
X31185634Y-79010381D02*
X31206052Y-78995387D01*
X85200000Y-95483333D02*
X84200000Y-95483333D01*
X33462826Y-106057349D02*
X33440521Y-106102822D01*
X121483333Y-81100000D02*
X121483333Y-80100000D01*
X40783333Y-7000000D02*
X40783333Y-7000000D01*
X33799350Y-54389764D02*
X33849415Y-54397434D01*
X136785634Y-54310381D02*
X136806052Y-54295387D01*
X95083333Y-80100000D02*
X95083333Y-80100000D01*
X136550584Y-79097434D02*
X136600649Y-79089764D01*
X83700000Y-56400000D02*
X76816666Y-56400000D01*
X136937173Y-29442650D02*
X136959478Y-29397177D01*
X7002565Y-56849415D02*
X7000000Y-56900000D01*
X112902822Y-128459478D02*
X112950318Y-128477069D01*
X112610235Y-78700649D02*
X112622930Y-78749681D01*
X112814365Y-103710381D02*
X112857349Y-103737173D01*
X7010235Y-81499350D02*
X7002565Y-81549415D01*
X22516666Y-103800000D02*
X22516666Y-104800000D01*
X85200000Y-112616666D02*
X84200000Y-112616666D01*
X57710381Y-78885634D02*
X57737173Y-78842650D01*
X60199350Y-79089764D02*
X60249415Y-79097434D01*
X137000000Y-64716666D02*
X139000000Y-64716666D01*
X59802565Y-29250584D02*
X59810235Y-29300649D01*
X7174313Y-105920620D02*
X7155516Y-105937603D01*
X7000000Y-114116666D02*
X7000000Y-120183333D01*
X84044483Y-78962396D02*
X84079379Y-78925686D01*
X110559478Y-7302822D02*
X110537173Y-7257349D01*
X33702822Y-81140521D02*
X33657349Y-81162826D01*
X112720620Y-7174313D02*
X112689618Y-7214365D01*
X50416666Y-5000000D02*
X67183333Y-5000000D01*
X136910381Y-56614365D02*
X136879379Y-56574313D01*
X101716666Y-128500000D02*
X101716666Y-130500000D01*
X119983333Y-103800000D02*
X119983333Y-104800000D01*
X112857349Y-31762826D02*
X112814365Y-31789618D01*
X119983333Y-105800000D02*
X113100000Y-105800000D01*
X144000000Y-135500000D02*
X144000000Y0D01*
X57737173Y-78842650D02*
X57759478Y-78797177D01*
X112640521Y-78797177D02*
X112662826Y-78842650D01*
X136910381Y-103585634D02*
X136937173Y-103542650D01*
X136825686Y-7120620D02*
X136785634Y-7089618D01*
X33750318Y-105822930D02*
X33702822Y-105840521D01*
X136879379Y-7174313D02*
X136862396Y-7155516D01*
X136910381Y-128285634D02*
X136937173Y-128242650D01*
X59800000Y-120183333D02*
X58800000Y-120183333D01*
X110537173Y-103542650D02*
X110559478Y-103497177D01*
X57542650Y-31762826D02*
X57497177Y-31740521D01*
X137000000Y-96983333D02*
X139000000Y-96983333D01*
X86240521Y-81402822D02*
X86222930Y-81450318D01*
X7022930Y-56750318D02*
X7010235Y-56799350D01*
X112600000Y-89416666D02*
X112600000Y-95483333D01*
X111600000Y-63216666D02*
X110600000Y-63216666D01*
X86414365Y-54310381D02*
X86457349Y-54337173D01*
X93583333Y-105800000D02*
X86700000Y-105800000D01*
X67183333Y-55400000D02*
X67183333Y-56400000D01*
X83964482Y-29624322D02*
X84006052Y-29595387D01*
X136600649Y-105810235D02*
X136550584Y-105802565D01*
X113100000Y-81100000D02*
X113049415Y-81102565D01*
X110597434Y-103350584D02*
X110600000Y-103300000D01*
X57473652Y-29668876D02*
X57520197Y-29648902D01*
X110479379Y-103625686D02*
X110510381Y-103585634D01*
X60150318Y-79077069D02*
X60199350Y-79089764D01*
X112950318Y-31722930D02*
X112902822Y-31740521D01*
X60079802Y-56451097D02*
X60035517Y-56475677D01*
X112662826Y-54142650D02*
X112689618Y-54185634D01*
X129616666Y-128500000D02*
X129616666Y-128500000D01*
X31185634Y-31789618D02*
X31142650Y-31762826D01*
X33489618Y-29485634D02*
X33520620Y-29525686D01*
X86262826Y-54142650D02*
X86289618Y-54185634D01*
X57400649Y-29689764D02*
X57425326Y-29684038D01*
X48916666Y-56400000D02*
X42283333Y-56400000D01*
X33440521Y-81402822D02*
X33422930Y-81450318D01*
X14383333Y-80100000D02*
X14383333Y-81100000D01*
X31359478Y-32002822D02*
X31337173Y-31957349D01*
X7302822Y-81140521D02*
X7257349Y-81162826D01*
X33799350Y-128489764D02*
X33849415Y-128497434D01*
X33799350Y-79089764D02*
X33849415Y-79097434D01*
X57748902Y-56679802D02*
X57724322Y-56635517D01*
X112793947Y-29595387D02*
X112814365Y-29610381D01*
X60199350Y-54389764D02*
X60249415Y-54397434D01*
X136550584Y-54397434D02*
X136600649Y-54389764D01*
X136989764Y-7399350D02*
X136977069Y-7350318D01*
X110100000Y-29700000D02*
X110150584Y-29697434D01*
X59822930Y-32050318D02*
X59810235Y-32099350D01*
X136989764Y-32099350D02*
X136977069Y-32050318D01*
X84189764Y-29300649D02*
X84197434Y-29250584D01*
X93583333Y-30700000D02*
X93583333Y-31700000D01*
X84189764Y-106199350D02*
X84177069Y-106150318D01*
X31397434Y-56849415D02*
X31397434Y-56849415D01*
X83800649Y-31710235D02*
X83750584Y-31702565D01*
X60035517Y-56475677D02*
X59993947Y-56504612D01*
X103216666Y-128500000D02*
X103216666Y-128500000D01*
X86414365Y-103710381D02*
X86457349Y-103737173D01*
X110100000Y-103800000D02*
X110150584Y-103797434D01*
X58800000Y-112616666D02*
X57800000Y-112616666D01*
X86393947Y-29595387D02*
X86414365Y-29610381D01*
X33440521Y-128197177D02*
X33462826Y-128242650D01*
X83800649Y-81110235D02*
X83750584Y-81102565D01*
X110100000Y-56400000D02*
X103216666Y-56400000D01*
X7022930Y-103449681D02*
X7040521Y-103497177D01*
X83897177Y-105840521D02*
X83849681Y-105822930D01*
X59955516Y-54262396D02*
X59993947Y-54295387D01*
X60249415Y-7002565D02*
X60199350Y-7010235D01*
X57350584Y-54397434D02*
X57400649Y-54389764D01*
X31377069Y-29349681D02*
X31389764Y-29300649D01*
X110600000Y-114116666D02*
X111600000Y-114116666D01*
X7399350Y-128489764D02*
X7449415Y-128497434D01*
X14383333Y-128500000D02*
X14383333Y-130500000D01*
X7022930Y-29349681D02*
X7040521Y-29397177D01*
X110537173Y-81357349D02*
X110510381Y-81314365D01*
X86393947Y-31804612D02*
X86355516Y-31837603D01*
X33614365Y-103710381D02*
X33657349Y-103737173D01*
X86222930Y-128149681D02*
X86240521Y-128197177D01*
X59800000Y-112616666D02*
X58800000Y-112616666D01*
X30950584Y-31702565D02*
X30900000Y-31700000D01*
X110559478Y-54097177D02*
X110577069Y-54049681D01*
X57679379Y-103625686D02*
X57710381Y-103585634D01*
X112640521Y-128197177D02*
X112662826Y-128242650D01*
X33462826Y-78842650D02*
X33489618Y-78885634D01*
X42283333Y-104800000D02*
X42283333Y-103800000D01*
X86355516Y-103662396D02*
X86393947Y-103695387D01*
X31279379Y-103625686D02*
X31310381Y-103585634D01*
X67183333Y-5000000D02*
X67183333Y-7000000D01*
X57449681Y-128477069D02*
X57497177Y-128459478D01*
X33489618Y-78885634D02*
X33520620Y-78925686D01*
X60057349Y-103737173D02*
X60102822Y-103759478D01*
X136742650Y-128437173D02*
X136785634Y-128410381D01*
X7040521Y-106102822D02*
X7022930Y-106150318D01*
X110589764Y-54000649D02*
X110597434Y-53950584D01*
X86289618Y-78885634D02*
X86320620Y-78925686D01*
X112689618Y-29485634D02*
X112720620Y-29525686D01*
X48916666Y-31700000D02*
X42283333Y-31700000D01*
X59800000Y-114116666D02*
X59800000Y-120183333D01*
X110297177Y-56440521D02*
X110249681Y-56422930D01*
X7062826Y-81357349D02*
X7040521Y-81402822D01*
X86222930Y-78749681D02*
X86240521Y-78797177D01*
X33400000Y-22883333D02*
X33400000Y-29200000D01*
X84200000Y-29200000D02*
X84200000Y-22883333D01*
X112950318Y-103777069D02*
X112999350Y-103789764D01*
X57800000Y-38516666D02*
X57800000Y-32200000D01*
X33799350Y-31710235D02*
X33750318Y-31722930D01*
X112600000Y-53900000D02*
X112602565Y-53950584D01*
X84200000Y-63216666D02*
X84200000Y-56900000D01*
X7350318Y-54377069D02*
X7399350Y-54389764D01*
X110249681Y-31722930D02*
X110200649Y-31710235D01*
X84095387Y-81293947D02*
X84062396Y-81255516D01*
X59800000Y-95483333D02*
X58800000Y-95483333D01*
X136977069Y-54049681D02*
X136989764Y-54000649D01*
X42283333Y-80100000D02*
X42283333Y-79100000D01*
X93583333Y-103800000D02*
X93583333Y-104800000D01*
X111600000Y-87916666D02*
X110600000Y-87916666D01*
X86599350Y-105810235D02*
X86550318Y-105822930D01*
X110200649Y-105810235D02*
X110150584Y-105802565D01*
X33400000Y-56900000D02*
X33400000Y-63216666D01*
X33422930Y-56750318D02*
X33410235Y-56799350D01*
X31348902Y-56679802D02*
X31324322Y-56635517D01*
X33410235Y-106199350D02*
X33402565Y-106249415D01*
X15883333Y-79100000D02*
X22516666Y-79100000D01*
X31000649Y-7010235D02*
X30950584Y-7002565D01*
X110444483Y-29562396D02*
X110479379Y-29525686D01*
X60300000Y-79100000D02*
X67183333Y-79100000D01*
X84200000Y-120183333D02*
X84200000Y-114116666D01*
X86200000Y-56900000D02*
X86200000Y-63216666D01*
X59800000Y-64716666D02*
X59800000Y-70783333D01*
X48916666Y-29700000D02*
X48916666Y-30700000D01*
X86599350Y-56410235D02*
X86550318Y-56422930D01*
X112622930Y-106150318D02*
X112610235Y-106199350D01*
X7500000Y-56400000D02*
X7449415Y-56402565D01*
X84025686Y-56520620D02*
X83985634Y-56489618D01*
X86222930Y-81450318D02*
X86210235Y-81499350D01*
X5000000Y-46083333D02*
X5000000Y-40016666D01*
X84110381Y-7214365D02*
X84095387Y-7193947D01*
X31400000Y-56900000D02*
X31397434Y-56849415D01*
X110150584Y-128497434D02*
X110200649Y-128489764D01*
X59974313Y-103679379D02*
X60014365Y-103710381D01*
X67183333Y-79100000D02*
X67183333Y-80100000D01*
X31400000Y-40016666D02*
X32400000Y-40016666D01*
X128116666Y-105800000D02*
X121483333Y-105800000D01*
X110597434Y-56849415D02*
X110597434Y-56849415D01*
X30950584Y-54397434D02*
X31000649Y-54389764D01*
X57789764Y-78700649D02*
X57797434Y-78650584D01*
X84200000Y-56900000D02*
X84197434Y-56849415D01*
X57679379Y-54225686D02*
X57710381Y-54185634D01*
X57777069Y-128149681D02*
X57789764Y-128100649D01*
X68683333Y-130500000D02*
X68683333Y-128500000D01*
X110297177Y-81140521D02*
X110249681Y-81122930D01*
X22516666Y-104800000D02*
X22516666Y-105800000D01*
X75316666Y-29700000D02*
X75316666Y-30700000D01*
X139000000Y-47583333D02*
X139000000Y-63216666D01*
X84189764Y-32099350D02*
X84177069Y-32050318D01*
X101716666Y-79100000D02*
X101716666Y-80100000D01*
X57710381Y-31914365D02*
X57695387Y-31893947D01*
X136937173Y-54142650D02*
X136959478Y-54097177D01*
X7089618Y-128285634D02*
X7104612Y-128306052D01*
X84159478Y-32002822D02*
X84137173Y-31957349D01*
X60057349Y-128437173D02*
X60102822Y-128459478D01*
X59937603Y-128344483D02*
X59974313Y-128379379D01*
X110462396Y-81255516D02*
X110425686Y-81220620D01*
X57300000Y-128500000D02*
X57350584Y-128497434D01*
X7120620Y-7174313D02*
X7089618Y-7214365D01*
X113049415Y-103797434D02*
X113100000Y-103800000D01*
X83985634Y-7089618D02*
X83942650Y-7062826D01*
X33400000Y-106300000D02*
X33400000Y-112616666D01*
X112600000Y-38516666D02*
X111600000Y-38516666D01*
X31337173Y-7257349D02*
X31324322Y-7235517D01*
X59862826Y-31957349D02*
X59840521Y-32002822D01*
X139000000Y-114116666D02*
X139000000Y-120183333D01*
X137000000Y-103300000D02*
X137000000Y-96983333D01*
X110479379Y-7174313D02*
X110462396Y-7155516D01*
X136649681Y-128477069D02*
X136697177Y-128459478D01*
X33504612Y-103606052D02*
X33537603Y-103644483D01*
X57737173Y-31957349D02*
X57710381Y-31914365D01*
X110150584Y-81102565D02*
X110100000Y-81100000D01*
X31397434Y-29250584D02*
X31400000Y-29200000D01*
X7000000Y-53900000D02*
X7002565Y-53950584D01*
X137000000Y-15316666D02*
X139000000Y-15316666D01*
X83985634Y-105889618D02*
X83942650Y-105862826D01*
X7155516Y-78962396D02*
X7193947Y-78995387D01*
X24016666Y-104800000D02*
X24016666Y-103800000D01*
X33504612Y-128306052D02*
X33537603Y-128344483D01*
X15883333Y-5000000D02*
X22516666Y-5000000D01*
X110537173Y-106057349D02*
X110510381Y-106014365D01*
X95083333Y-7000000D02*
X95083333Y-5000000D01*
X33462826Y-31957349D02*
X33440521Y-32002822D01*
X50416666Y-80100000D02*
X50416666Y-79100000D01*
X86200000Y-38516666D02*
X85200000Y-38516666D01*
X7500000Y-79100000D02*
X14383333Y-79100000D01*
X110600000Y-95483333D02*
X110600000Y-89416666D01*
X112602565Y-7449415D02*
X112600000Y-7500000D01*
X57789764Y-103400649D02*
X57797434Y-103350584D01*
X31397434Y-53950584D02*
X31400000Y-53900000D01*
X110297177Y-29659478D02*
X110342650Y-29637173D01*
X33799350Y-7010235D02*
X33750318Y-7022930D01*
X110297177Y-128459478D02*
X110342650Y-128437173D01*
X50416666Y-31700000D02*
X50416666Y-30700000D01*
X83897177Y-103759478D02*
X83942650Y-103737173D01*
X60249415Y-103797434D02*
X60300000Y-103800000D01*
X86550318Y-81122930D02*
X86502822Y-81140521D01*
X15883333Y-55400000D02*
X15883333Y-55400000D01*
X7500000Y-54400000D02*
X14383333Y-54400000D01*
X15883333Y-30700000D02*
X15883333Y-29700000D01*
X33400000Y-40016666D02*
X33400000Y-46083333D01*
X59862826Y-103542650D02*
X59889618Y-103585634D01*
X110597434Y-7449415D02*
X110589764Y-7399350D01*
X7000000Y-40016666D02*
X7000000Y-40016666D01*
X86289618Y-7214365D02*
X86262826Y-7257349D01*
X112755516Y-78962396D02*
X112793947Y-78995387D01*
X75316666Y-7000000D02*
X68683333Y-7000000D01*
X84200000Y-106300000D02*
X84197434Y-106249415D01*
X110589764Y-78700649D02*
X110597434Y-78650584D01*
X112600000Y-29200000D02*
X112602565Y-29250584D01*
X59840521Y-56702822D02*
X59822930Y-56750318D01*
X7155516Y-105937603D02*
X7120620Y-105974313D01*
X137000000Y-46083333D02*
X137000000Y-40016666D01*
X83750584Y-105802565D02*
X83700000Y-105800000D01*
X111600000Y-21383333D02*
X110600000Y-21383333D01*
X110385634Y-7089618D02*
X110342650Y-7062826D01*
X86457349Y-103737173D02*
X86502822Y-103759478D01*
X83897177Y-81140521D02*
X83849681Y-81122930D01*
X31279379Y-29525686D02*
X31310381Y-29485634D01*
X86700000Y-56400000D02*
X86649415Y-56402565D01*
X33900000Y-79100000D02*
X40783333Y-79100000D01*
X136697177Y-54359478D02*
X136742650Y-54337173D01*
X33422930Y-81450318D02*
X33410235Y-81499350D01*
X110297177Y-105840521D02*
X110249681Y-105822930D01*
X84137173Y-7257349D02*
X84110381Y-7214365D01*
X136825686Y-81220620D02*
X136785634Y-81189618D01*
X112662826Y-7257349D02*
X112640521Y-7302822D01*
X31225686Y-103679379D02*
X31244483Y-103662396D01*
X33489618Y-56614365D02*
X33462826Y-56657349D01*
X31337173Y-31957349D02*
X31324322Y-31935517D01*
X7010235Y-78700649D02*
X7022930Y-78749681D01*
X60249415Y-31702565D02*
X60199350Y-31710235D01*
X57542650Y-7062826D02*
X57497177Y-7040521D01*
X83750584Y-31702565D02*
X83700000Y-31700000D01*
X59810235Y-54000649D02*
X59822930Y-54049681D01*
X33520620Y-78925686D02*
X33555516Y-78962396D01*
X110510381Y-103585634D02*
X110537173Y-103542650D01*
X33750318Y-29677069D02*
X33799350Y-29689764D01*
X84189764Y-54000649D02*
X84197434Y-53950584D01*
X31000649Y-81110235D02*
X30950584Y-81102565D01*
X7257349Y-128437173D02*
X7302822Y-128459478D01*
X22516666Y-130500000D02*
X15883333Y-130500000D01*
X110479379Y-54225686D02*
X110510381Y-54185634D01*
X137000000Y-21383333D02*
X137000000Y-21383333D01*
X103216666Y-80100000D02*
X103216666Y-79100000D01*
X139000000Y-89416666D02*
X139000000Y-95483333D01*
X58800000Y-22883333D02*
X59800000Y-22883333D01*
X7040521Y-128197177D02*
X7062826Y-128242650D01*
X83800649Y-56410235D02*
X83750584Y-56402565D01*
X7302822Y-54359478D02*
X7350318Y-54377069D01*
X31049681Y-79077069D02*
X31097177Y-79059478D01*
X7002565Y-78650584D02*
X7010235Y-78700649D01*
X31097177Y-54359478D02*
X31142650Y-54337173D01*
X59862826Y-128242650D02*
X59889618Y-128285634D01*
X112814365Y-128410381D02*
X112857349Y-128437173D01*
X57710381Y-106014365D02*
X57695387Y-105993947D01*
X14383333Y-5000000D02*
X14383333Y-7000000D01*
X57800000Y-89416666D02*
X57800000Y-89416666D01*
X7000000Y-29200000D02*
X7002565Y-29250584D01*
X86289618Y-81314365D02*
X86262826Y-81357349D01*
X57797434Y-29250584D02*
X57800000Y-29200000D01*
X7022930Y-32050318D02*
X7010235Y-32099350D01*
X67183333Y-104800000D02*
X67183333Y-105800000D01*
X7302822Y-31740521D02*
X7257349Y-31762826D01*
X57449681Y-7022930D02*
X57400649Y-7010235D01*
X57449681Y-31722930D02*
X57400649Y-31710235D01*
X137000000Y-38516666D02*
X137000000Y-38516666D01*
X113049415Y-56402565D02*
X112999350Y-56410235D01*
X7000000Y-96983333D02*
X7000000Y-96983333D01*
X136997434Y-56849415D02*
X136989764Y-56799350D01*
X76816666Y-105800000D02*
X76816666Y-104800000D01*
X84159478Y-56702822D02*
X84148902Y-56679802D01*
X7399350Y-79089764D02*
X7449415Y-79097434D01*
X32400000Y-96983333D02*
X33400000Y-96983333D01*
X112622930Y-81450318D02*
X112610235Y-81499350D01*
X57797434Y-78650584D02*
X57800000Y-78600000D01*
X84200000Y-40016666D02*
X84200000Y-40016666D01*
X30900000Y-31700000D02*
X24016666Y-31700000D01*
X86210235Y-128100649D02*
X86222930Y-128149681D01*
X7500000Y-81100000D02*
X7449415Y-81102565D01*
X59822930Y-29349681D02*
X59840521Y-29397177D01*
X30900000Y-105800000D02*
X24016666Y-105800000D01*
X110150584Y-7002565D02*
X110100000Y-7000000D01*
X86599350Y-79089764D02*
X86649415Y-79097434D01*
X128116666Y-31700000D02*
X121483333Y-31700000D01*
X7174313Y-128379379D02*
X7214365Y-128410381D01*
X5000000Y-5000000D02*
X14383333Y-5000000D01*
X57679379Y-78925686D02*
X57710381Y-78885634D01*
X112600000Y-106300000D02*
X112600000Y-112616666D01*
X84197434Y-106249415D02*
X84197434Y-106249415D01*
X83750584Y-128497434D02*
X83800649Y-128489764D01*
X7193947Y-29595387D02*
X7235517Y-29624322D01*
X86355516Y-105937603D02*
X86320620Y-105974313D01*
X33400000Y-103300000D02*
X33402565Y-103350584D01*
X7002565Y-32149415D02*
X7000000Y-32200000D01*
X83942650Y-128437173D02*
X83985634Y-128410381D01*
X60102822Y-103759478D02*
X60150318Y-103777069D01*
X128116666Y-103800000D02*
X128116666Y-104800000D01*
X136910381Y-29485634D02*
X136937173Y-29442650D01*
X110249681Y-54377069D02*
X110297177Y-54359478D01*
X57400649Y-54389764D02*
X57449681Y-54377069D01*
X110200649Y-56410235D02*
X110150584Y-56402565D01*
X83849681Y-31722930D02*
X83800649Y-31710235D01*
X31142650Y-103737173D02*
X31185634Y-103710381D01*
X59920620Y-7174313D02*
X59889618Y-7214365D01*
X136879379Y-78925686D02*
X136910381Y-78885634D01*
X136785634Y-103710381D02*
X136806052Y-103695387D01*
X112720620Y-29525686D02*
X112755516Y-29562396D01*
X57300000Y-81100000D02*
X50416666Y-81100000D01*
X86649415Y-81102565D02*
X86599350Y-81110235D01*
X31142650Y-79037173D02*
X31185634Y-79010381D01*
X57350584Y-103797434D02*
X57400649Y-103789764D01*
X68683333Y-30700000D02*
X68683333Y-29700000D01*
X5000000Y-38516666D02*
X5000000Y-22883333D01*
X57449681Y-103777069D02*
X57497177Y-103759478D01*
X110559478Y-32002822D02*
X110537173Y-31957349D01*
X57777069Y-78749681D02*
X57789764Y-78700649D01*
X112793947Y-105904612D02*
X112755516Y-105937603D01*
X86700000Y-31700000D02*
X86649415Y-31702565D01*
X31310381Y-106014365D02*
X31295387Y-105993947D01*
X31400000Y-22883333D02*
X32400000Y-22883333D01*
X112814365Y-29610381D02*
X112857349Y-29637173D01*
X112857349Y-54337173D02*
X112902822Y-54359478D01*
X86649415Y-54397434D02*
X86700000Y-54400000D01*
X112950318Y-56422930D02*
X112902822Y-56440521D01*
X57497177Y-56440521D02*
X57449681Y-56422930D01*
X86550318Y-128477069D02*
X86599350Y-128489764D01*
X33849415Y-105802565D02*
X33799350Y-105810235D01*
X7000000Y-47583333D02*
X7000000Y-47583333D01*
X22516666Y-80100000D02*
X22516666Y-80100000D01*
X83964482Y-79024322D02*
X84006052Y-78995387D01*
X59800000Y-40016666D02*
X59800000Y-46083333D01*
X33750318Y-81122930D02*
X33702822Y-81140521D01*
X84079379Y-54225686D02*
X84110381Y-54185634D01*
X5000000Y-95483333D02*
X5000000Y-89416666D01*
X112600000Y-78600000D02*
X112602565Y-78650584D01*
X136500000Y-31700000D02*
X129616666Y-31700000D01*
X137000000Y-95483333D02*
X137000000Y-89416666D01*
X113100000Y-31700000D02*
X113049415Y-31702565D01*
X31310381Y-128285634D02*
X31337173Y-128242650D01*
X83849681Y-56422930D02*
X83800649Y-56410235D01*
X136997434Y-81549415D02*
X136989764Y-81499350D01*
X15883333Y-81100000D02*
X15883333Y-80100000D01*
X85200000Y-40016666D02*
X86200000Y-40016666D01*
X136959478Y-81402822D02*
X136937173Y-81357349D01*
X30900000Y-103800000D02*
X30950584Y-103797434D01*
X59800000Y-29200000D02*
X59802565Y-29250584D01*
X83985634Y-103710381D02*
X84025686Y-103679379D01*
X84025686Y-31820620D02*
X83985634Y-31789618D01*
X85200000Y-72283333D02*
X86200000Y-72283333D01*
X110479379Y-29525686D02*
X110510381Y-29485634D01*
X129616666Y-80100000D02*
X129616666Y-79100000D01*
X7214365Y-105889618D02*
X7174313Y-105920620D01*
X7062826Y-78842650D02*
X7089618Y-78885634D01*
X57662396Y-31855516D02*
X57625686Y-31820620D01*
X112857349Y-81162826D02*
X112814365Y-81189618D01*
X57800000Y-106300000D02*
X57800000Y-106300000D01*
X136879379Y-29525686D02*
X136910381Y-29485634D01*
X7257349Y-103737173D02*
X7302822Y-103759478D01*
X136977069Y-32050318D02*
X136959478Y-32002822D01*
X40783333Y-81100000D02*
X33900000Y-81100000D01*
X57800000Y-78600000D02*
X57800000Y-72283333D01*
X83800649Y-79089764D02*
X83849681Y-79077069D01*
X136989764Y-29300649D02*
X136997434Y-29250584D01*
X7399350Y-103789764D02*
X7449415Y-103797434D01*
X139000000Y-5000000D02*
X139000000Y-13816666D01*
X33799350Y-29689764D02*
X33849415Y-29697434D01*
X84025686Y-105920620D02*
X83985634Y-105889618D01*
X7000000Y-70783333D02*
X5000000Y-70783333D01*
X60102822Y-81140521D02*
X60079802Y-81151097D01*
X112600000Y-15316666D02*
X112600000Y-21383333D01*
X84159478Y-106102822D02*
X84137173Y-106057349D01*
X31400000Y-106300000D02*
X31397434Y-106249415D01*
X22516666Y-81100000D02*
X15883333Y-81100000D01*
X110425686Y-31820620D02*
X110385634Y-31789618D01*
X137000000Y-70783333D02*
X137000000Y-70783333D01*
X86222930Y-54049681D02*
X86240521Y-54097177D01*
X144000000Y0D02*
X0Y0D01*
X31377069Y-106150318D02*
X31359478Y-106102822D01*
X137000000Y-13816666D02*
X137000000Y-7500000D01*
X113100000Y-105800000D02*
X113049415Y-105802565D01*
X57695387Y-31893947D02*
X57662396Y-31855516D01*
X33400000Y-112616666D02*
X32400000Y-112616666D01*
X31142650Y-105862826D02*
X31097177Y-105840521D01*
X139000000Y-70783333D02*
X137000000Y-70783333D01*
X112610235Y-56799350D02*
X112602565Y-56849415D01*
X136697177Y-31740521D02*
X136649681Y-31722930D01*
X136989764Y-103400649D02*
X136997434Y-103350584D01*
X86355516Y-56537603D02*
X86320620Y-56574313D01*
X57400649Y-79089764D02*
X57449681Y-79077069D01*
X57797434Y-32149415D02*
X57789764Y-32099350D01*
X7449415Y-31702565D02*
X7399350Y-31710235D01*
X86393947Y-103695387D02*
X86414365Y-103710381D01*
X60079802Y-81151097D02*
X60035517Y-81175677D01*
X24016666Y-105800000D02*
X24016666Y-104800000D01*
X110559478Y-78797177D02*
X110577069Y-78749681D01*
X7350318Y-105822930D02*
X7302822Y-105840521D01*
X112689618Y-81314365D02*
X112662826Y-81357349D01*
X59920620Y-56574313D02*
X59889618Y-56614365D01*
X86320620Y-56574313D02*
X86289618Y-56614365D01*
X110600000Y-21383333D02*
X110600000Y-15316666D01*
X86200000Y-22883333D02*
X86200000Y-29200000D01*
X7302822Y-56440521D02*
X7257349Y-56462826D01*
X59840521Y-103497177D02*
X59862826Y-103542650D01*
X113049415Y-105802565D02*
X112999350Y-105810235D01*
X110600000Y-81600000D02*
X110597434Y-81549415D01*
X112755516Y-54262396D02*
X112793947Y-54295387D01*
X14383333Y-130500000D02*
X5000000Y-130500000D01*
X86200000Y-81600000D02*
X86200000Y-87916666D01*
X110577069Y-128149681D02*
X110589764Y-128100649D01*
X95083333Y-103800000D02*
X101716666Y-103800000D01*
X137000000Y-106300000D02*
X136997434Y-106249415D01*
X59802565Y-103350584D02*
X59810235Y-103400649D01*
X86222930Y-29349681D02*
X86240521Y-29397177D01*
X112600000Y-72283333D02*
X112600000Y-78600000D01*
X7214365Y-54310381D02*
X7257349Y-54337173D01*
X110150584Y-31702565D02*
X110100000Y-31700000D01*
X57800000Y-106300000D02*
X57797434Y-106249415D01*
X32400000Y-63216666D02*
X31400000Y-63216666D01*
X83985634Y-31789618D02*
X83942650Y-31762826D01*
X93583333Y-56400000D02*
X86700000Y-56400000D01*
X7449415Y-29697434D02*
X7500000Y-29700000D01*
X110462396Y-31855516D02*
X110425686Y-31820620D01*
X59800000Y-47583333D02*
X59800000Y-53900000D01*
X84200000Y-40016666D02*
X85200000Y-40016666D01*
X33635517Y-31775677D02*
X33593947Y-31804612D01*
X110495387Y-105993947D02*
X110462396Y-105955516D01*
X42283333Y-128500000D02*
X48916666Y-128500000D01*
X84110381Y-128285634D02*
X84137173Y-128242650D01*
X110600000Y-121683333D02*
X111600000Y-121683333D01*
X57710381Y-103585634D02*
X57737173Y-103542650D01*
X31400000Y-29200000D02*
X31400000Y-22883333D01*
X84200000Y-96983333D02*
X85200000Y-96983333D01*
X42283333Y-29700000D02*
X48916666Y-29700000D01*
X83849681Y-7022930D02*
X83800649Y-7010235D01*
X42283333Y-81100000D02*
X42283333Y-80100000D01*
X86200000Y-53900000D02*
X86202565Y-53950584D01*
X84200000Y-7500000D02*
X84197434Y-7449415D01*
X112622930Y-29349681D02*
X112640521Y-29397177D01*
X59800000Y-121683333D02*
X59800000Y-128000000D01*
X121483333Y-80100000D02*
X121483333Y-79100000D01*
X33657349Y-54337173D02*
X33702822Y-54359478D01*
X31310381Y-54185634D02*
X31337173Y-54142650D01*
X119983333Y-56400000D02*
X113100000Y-56400000D01*
X84197434Y-81549415D02*
X84189764Y-81499350D01*
X31389764Y-56799350D02*
X31384038Y-56774673D01*
X33614365Y-105889618D02*
X33574313Y-105920620D01*
X7000000Y-63216666D02*
X5000000Y-63216666D01*
X86210235Y-7399350D02*
X86202565Y-7449415D01*
X86550318Y-54377069D02*
X86599350Y-54389764D01*
X83750584Y-103797434D02*
X83800649Y-103789764D01*
X31400000Y-64716666D02*
X32400000Y-64716666D01*
X7010235Y-7399350D02*
X7002565Y-7449415D01*
X31279379Y-54225686D02*
X31310381Y-54185634D01*
X33400000Y-72283333D02*
X33400000Y-78600000D01*
X110537173Y-78842650D02*
X110559478Y-78797177D01*
X137000000Y-89416666D02*
X139000000Y-89416666D01*
X95083333Y-30700000D02*
X95083333Y-29700000D01*
X110385634Y-81189618D02*
X110342650Y-81162826D01*
X31400000Y-7500000D02*
X31397434Y-7449415D01*
X112814365Y-105889618D02*
X112793947Y-105904612D01*
X112689618Y-78885634D02*
X112720620Y-78925686D01*
X113049415Y-79097434D02*
X113100000Y-79100000D01*
X136910381Y-106014365D02*
X136895387Y-105993947D01*
X48916666Y-30700000D02*
X48916666Y-31700000D01*
X112902822Y-29659478D02*
X112950318Y-29677069D01*
X86649415Y-79097434D02*
X86700000Y-79100000D01*
X112755516Y-56537603D02*
X112720620Y-56574313D01*
X136844483Y-103662396D02*
X136879379Y-103625686D01*
X139000000Y-72283333D02*
X139000000Y-87916666D01*
X75316666Y-79100000D02*
X75316666Y-80100000D01*
X84025686Y-128379379D02*
X84044483Y-128362396D01*
X137000000Y-32200000D02*
X136997434Y-32149415D01*
X83700000Y-31700000D02*
X76816666Y-31700000D01*
X85200000Y-87916666D02*
X84200000Y-87916666D01*
X136550584Y-7002565D02*
X136500000Y-7000000D01*
X86457349Y-7062826D02*
X86414365Y-7089618D01*
X59800000Y-89416666D02*
X59800000Y-95483333D01*
X136550584Y-128497434D02*
X136600649Y-128489764D01*
X93583333Y-5000000D02*
X93583333Y-7000000D01*
X33750318Y-31722930D02*
X33702822Y-31740521D01*
X86202565Y-29250584D02*
X86210235Y-29300649D01*
X15883333Y-128500000D02*
X15883333Y-128500000D01*
X136997434Y-53950584D02*
X137000000Y-53900000D01*
X111600000Y-40016666D02*
X111600000Y-40016666D01*
X136997434Y-32149415D02*
X136989764Y-32099350D01*
X121483333Y-31700000D02*
X121483333Y-30700000D01*
X30950584Y-56402565D02*
X30900000Y-56400000D01*
X110600000Y-70783333D02*
X110600000Y-64716666D01*
X68683333Y-31700000D02*
X68683333Y-31700000D01*
X57789764Y-81499350D02*
X57777069Y-81450318D01*
X57789764Y-128100649D02*
X57797434Y-128050584D01*
X22516666Y-79100000D02*
X22516666Y-80100000D01*
X31295387Y-81293947D02*
X31262396Y-81255516D01*
X129616666Y-55400000D02*
X129616666Y-54400000D01*
X7040521Y-32002822D02*
X7022930Y-32050318D01*
X7257349Y-105862826D02*
X7214365Y-105889618D01*
X112600000Y-103300000D02*
X112602565Y-103350584D01*
X31400000Y-53900000D02*
X31400000Y-47583333D01*
X48916666Y-79100000D02*
X48916666Y-80100000D01*
X136500000Y-79100000D02*
X136550584Y-79097434D01*
X31359478Y-106102822D02*
X31337173Y-106057349D01*
X76816666Y-128500000D02*
X76816666Y-128500000D01*
X112610235Y-128100649D02*
X112622930Y-128149681D01*
X57449681Y-56422930D02*
X57400649Y-56410235D01*
X112902822Y-81140521D02*
X112857349Y-81162826D01*
X33614365Y-54310381D02*
X33657349Y-54337173D01*
X59822930Y-103449681D02*
X59840521Y-103497177D01*
X136600649Y-56410235D02*
X136550584Y-56402565D01*
X86700000Y-81100000D02*
X86649415Y-81102565D01*
X42283333Y-80100000D02*
X42283333Y-80100000D01*
X31397434Y-32149415D02*
X31389764Y-32099350D01*
X137000000Y-40016666D02*
X139000000Y-40016666D01*
X84110381Y-78885634D02*
X84137173Y-78842650D01*
X110462396Y-105955516D02*
X110425686Y-105920620D01*
X84159478Y-29397177D02*
X84177069Y-29349681D01*
X111600000Y-38516666D02*
X110600000Y-38516666D01*
X7235517Y-7075677D02*
X7193947Y-7104612D01*
X30900000Y-7000000D02*
X24016666Y-7000000D01*
X33410235Y-54000649D02*
X33422930Y-54049681D01*
X48916666Y-7000000D02*
X48916666Y-7000000D01*
X60199350Y-29689764D02*
X60249415Y-29697434D01*
X67183333Y-29700000D02*
X67183333Y-30700000D01*
X57497177Y-7040521D02*
X57449681Y-7022930D01*
X33402565Y-56849415D02*
X33400000Y-56900000D01*
X48916666Y-103800000D02*
X48916666Y-104800000D01*
X84200000Y-114116666D02*
X85200000Y-114116666D01*
X33489618Y-128285634D02*
X33504612Y-128306052D01*
X86649415Y-29697434D02*
X86700000Y-29700000D01*
X57759478Y-7302822D02*
X57737173Y-7257349D01*
X136550584Y-56402565D02*
X136500000Y-56400000D01*
X110510381Y-106014365D02*
X110495387Y-105993947D01*
X110600000Y-32200000D02*
X110597434Y-32149415D01*
X57695387Y-81293947D02*
X57662396Y-81255516D01*
X7193947Y-7104612D02*
X7155516Y-7137603D01*
X59862826Y-7257349D02*
X59840521Y-7302822D01*
X119983333Y-80100000D02*
X119983333Y-81100000D01*
X57759478Y-103497177D02*
X57777069Y-103449681D01*
X60199350Y-7010235D02*
X60174673Y-7015961D01*
X57737173Y-106057349D02*
X57710381Y-106014365D01*
X84200000Y-15316666D02*
X84200000Y-15316666D01*
X30950584Y-29697434D02*
X31000649Y-29689764D01*
X136844483Y-29562396D02*
X136879379Y-29525686D01*
X112999350Y-29689764D02*
X113049415Y-29697434D01*
X121483333Y-104800000D02*
X121483333Y-103800000D01*
X112600000Y-64716666D02*
X112600000Y-70783333D01*
X139000000Y-46083333D02*
X137000000Y-46083333D01*
X33422930Y-7350318D02*
X33410235Y-7399350D01*
X112689618Y-31914365D02*
X112662826Y-31957349D01*
X50416666Y-104800000D02*
X50416666Y-103800000D01*
X86240521Y-32002822D02*
X86222930Y-32050318D01*
X57449681Y-79077069D02*
X57497177Y-79059478D01*
X75316666Y-130500000D02*
X68683333Y-130500000D01*
X103216666Y-81100000D02*
X103216666Y-80100000D01*
X5000000Y-64716666D02*
X7000000Y-64716666D01*
X33422930Y-106150318D02*
X33410235Y-106199350D01*
X110597434Y-106249415D02*
X110589764Y-106199350D01*
X59800000Y-7500000D02*
X59800000Y-13816666D01*
X31310381Y-29485634D02*
X31337173Y-29442650D01*
X84079379Y-128325686D02*
X84110381Y-128285634D01*
X50416666Y-128500000D02*
X57300000Y-128500000D01*
X121483333Y-5000000D02*
X128116666Y-5000000D01*
X76816666Y-104800000D02*
X76816666Y-103800000D01*
X139000000Y-21383333D02*
X137000000Y-21383333D01*
X15883333Y-80100000D02*
X15883333Y-79100000D01*
X110342650Y-79037173D02*
X110385634Y-79010381D01*
X57800000Y-7500000D02*
X57797434Y-7449415D01*
X32400000Y-114116666D02*
X32400000Y-114116666D01*
X112600000Y-40016666D02*
X112600000Y-46083333D01*
X32400000Y-120183333D02*
X31400000Y-120183333D01*
X7449415Y-128497434D02*
X7500000Y-128500000D01*
X7010235Y-32099350D02*
X7002565Y-32149415D01*
X33702822Y-54359478D02*
X33750318Y-54377069D01*
X31295387Y-56593947D02*
X31262396Y-56555516D01*
X57800000Y-81600000D02*
X57797434Y-81549415D01*
X57497177Y-79059478D02*
X57520197Y-79048902D01*
X110600000Y-87916666D02*
X110600000Y-81600000D01*
X86202565Y-103350584D02*
X86210235Y-103400649D01*
X31389764Y-32099350D02*
X31377069Y-32050318D01*
X119983333Y-79100000D02*
X119983333Y-80100000D01*
X7120620Y-81274313D02*
X7089618Y-81314365D01*
X84177069Y-78749681D02*
X84189764Y-78700649D01*
X93583333Y-31700000D02*
X86700000Y-31700000D01*
X112622930Y-128149681D02*
X112640521Y-128197177D01*
X86649415Y-31702565D02*
X86599350Y-31710235D01*
X110406052Y-54295387D02*
X110444483Y-54262396D01*
X42283333Y-105800000D02*
X42283333Y-104800000D01*
X31384038Y-81474673D02*
X31368876Y-81426347D01*
X33402565Y-103350584D02*
X33410235Y-103400649D01*
X7000000Y-95483333D02*
X5000000Y-95483333D01*
X136937173Y-78842650D02*
X136959478Y-78797177D01*
X57800000Y-56900000D02*
X57797434Y-56849415D01*
X7449415Y-7002565D02*
X7399350Y-7010235D01*
X58800000Y-72283333D02*
X59800000Y-72283333D01*
X86240521Y-78797177D02*
X86262826Y-78842650D01*
X31400000Y-95483333D02*
X31400000Y-89416666D01*
X84177069Y-32050318D02*
X84159478Y-32002822D01*
X136989764Y-54000649D02*
X136997434Y-53950584D01*
X31377069Y-54049681D02*
X31389764Y-54000649D01*
X31400000Y-87916666D02*
X31400000Y-81600000D01*
X137000000Y-56900000D02*
X136997434Y-56849415D01*
X86502822Y-7040521D02*
X86457349Y-7062826D01*
X113100000Y-128500000D02*
X119983333Y-128500000D01*
X57662396Y-81255516D02*
X57625686Y-81220620D01*
X119983333Y-55400000D02*
X119983333Y-56400000D01*
X110249681Y-105822930D02*
X110200649Y-105810235D01*
X57542650Y-81162826D02*
X57497177Y-81140521D01*
X112793947Y-81204612D02*
X112755516Y-81237603D01*
X86320620Y-54225686D02*
X86355516Y-54262396D01*
X33402565Y-81549415D02*
X33400000Y-81600000D01*
X86414365Y-7089618D02*
X86393947Y-7104612D01*
X60102822Y-54359478D02*
X60150318Y-54377069D01*
X60126347Y-31731123D02*
X60079802Y-31751097D01*
X86289618Y-31914365D02*
X86262826Y-31957349D01*
X7500000Y-105800000D02*
X7449415Y-105802565D01*
X58800000Y-70783333D02*
X57800000Y-70783333D01*
X59920620Y-31874313D02*
X59889618Y-31914365D01*
X112600000Y-22883333D02*
X112600000Y-29200000D01*
X7350318Y-7022930D02*
X7302822Y-7040521D01*
X119983333Y-130500000D02*
X103216666Y-130500000D01*
X33799350Y-56410235D02*
X33750318Y-56422930D01*
X137000000Y-112616666D02*
X137000000Y-106300000D01*
X60249415Y-29697434D02*
X60300000Y-29700000D01*
X136937173Y-81357349D02*
X136910381Y-81314365D01*
X58800000Y-46083333D02*
X57800000Y-46083333D01*
X85200000Y-114116666D02*
X85200000Y-114116666D01*
X136697177Y-29659478D02*
X136742650Y-29637173D01*
X31359478Y-54097177D02*
X31377069Y-54049681D01*
X86200000Y-29200000D02*
X86202565Y-29250584D01*
X110510381Y-128285634D02*
X110537173Y-128242650D01*
X50416666Y-7000000D02*
X50416666Y-5000000D01*
X84095387Y-56593947D02*
X84062396Y-56555516D01*
X60174673Y-31715961D02*
X60126347Y-31731123D01*
X31359478Y-29397177D02*
X31377069Y-29349681D01*
X84197434Y-29250584D02*
X84200000Y-29200000D01*
X139000000Y-95483333D02*
X137000000Y-95483333D01*
X136697177Y-103759478D02*
X136742650Y-103737173D01*
X84137173Y-29442650D02*
X84159478Y-29397177D01*
X83920197Y-79048902D02*
X83964482Y-79024322D01*
X136844483Y-54262396D02*
X136879379Y-54225686D01*
X136785634Y-29610381D02*
X136806052Y-29595387D01*
X112950318Y-79077069D02*
X112999350Y-79089764D01*
X119983333Y-30700000D02*
X119983333Y-31700000D01*
X128116666Y-29700000D02*
X128116666Y-30700000D01*
X110537173Y-54142650D02*
X110559478Y-54097177D01*
X32400000Y-114116666D02*
X33400000Y-114116666D01*
X67183333Y-54400000D02*
X67183333Y-55400000D01*
X48916666Y-29700000D02*
X48916666Y-29700000D01*
X137000000Y-29200000D02*
X137000000Y-22883333D01*
X33440521Y-78797177D02*
X33462826Y-78842650D01*
X86649415Y-128497434D02*
X86700000Y-128500000D01*
X22516666Y-105800000D02*
X15883333Y-105800000D01*
X86599350Y-31710235D02*
X86550318Y-31722930D01*
X59904612Y-29506052D02*
X59937603Y-29544483D01*
X86262826Y-7257349D02*
X86240521Y-7302822D01*
X86210235Y-106199350D02*
X86202565Y-106249415D01*
X112622930Y-103449681D02*
X112640521Y-103497177D01*
X83750584Y-56402565D02*
X83700000Y-56400000D01*
X57400649Y-81110235D02*
X57350584Y-81102565D01*
X57585634Y-105889618D02*
X57542650Y-105862826D01*
X7500000Y-31700000D02*
X7449415Y-31702565D01*
X59889618Y-81314365D02*
X59862826Y-81357349D01*
X30900000Y-79100000D02*
X30950584Y-79097434D01*
X112720620Y-78925686D02*
X112755516Y-78962396D01*
X110479379Y-81274313D02*
X110462396Y-81255516D01*
X33849415Y-81102565D02*
X33799350Y-81110235D01*
X110425686Y-56520620D02*
X110385634Y-56489618D01*
X93583333Y-79100000D02*
X93583333Y-80100000D01*
X57400649Y-31710235D02*
X57350584Y-31702565D01*
X84200000Y-103300000D02*
X84200000Y-96983333D01*
X59810235Y-29300649D02*
X59822930Y-29349681D01*
X110444483Y-128362396D02*
X110479379Y-128325686D01*
X136500000Y-81100000D02*
X129616666Y-81100000D01*
X57800000Y-114116666D02*
X58800000Y-114116666D01*
X7155516Y-56537603D02*
X7120620Y-56574313D01*
X7000000Y-106300000D02*
X7000000Y-112616666D01*
X112610235Y-7399350D02*
X112602565Y-7449415D01*
X31389764Y-7399350D02*
X31377069Y-7350318D01*
X86200000Y-87916666D02*
X85200000Y-87916666D01*
X32400000Y-72283333D02*
X33400000Y-72283333D01*
X31049681Y-56422930D02*
X31000649Y-56410235D01*
X136977069Y-7350318D02*
X136959478Y-7302822D01*
X42283333Y-31700000D02*
X42283333Y-30700000D01*
X103216666Y-55400000D02*
X103216666Y-54400000D01*
X110479379Y-56574313D02*
X110462396Y-56555516D01*
X7000000Y-32200000D02*
X7000000Y-38516666D01*
X32400000Y-121683333D02*
X33400000Y-121683333D01*
X57644483Y-103662396D02*
X57679379Y-103625686D01*
X86393947Y-56504612D02*
X86355516Y-56537603D01*
X15883333Y-7000000D02*
X15883333Y-5000000D01*
X112755516Y-31837603D02*
X112720620Y-31874313D01*
X129616666Y-30700000D02*
X129616666Y-29700000D01*
X24016666Y-79100000D02*
X30900000Y-79100000D01*
X86457349Y-56462826D02*
X86414365Y-56489618D01*
X112902822Y-7040521D02*
X112857349Y-7062826D01*
X57759478Y-78797177D02*
X57777069Y-78749681D01*
X59840521Y-7302822D02*
X59822930Y-7350318D01*
X14383333Y-30700000D02*
X14383333Y-31700000D01*
X7193947Y-54295387D02*
X7214365Y-54310381D01*
X68683333Y-54400000D02*
X68683333Y-54400000D01*
X31400000Y-96983333D02*
X32400000Y-96983333D01*
X136997434Y-103350584D02*
X137000000Y-103300000D01*
X33900000Y-29700000D02*
X40783333Y-29700000D01*
X136649681Y-79077069D02*
X136697177Y-79059478D01*
X110537173Y-29442650D02*
X110559478Y-29397177D01*
X57695387Y-105993947D02*
X57662396Y-105955516D01*
X83849681Y-81122930D02*
X83800649Y-81110235D01*
X32400000Y-87916666D02*
X31400000Y-87916666D01*
X110462396Y-7155516D02*
X110425686Y-7120620D01*
X50416666Y-79100000D02*
X57300000Y-79100000D01*
X121483333Y-128500000D02*
X121483333Y-128500000D01*
X7399350Y-29689764D02*
X7449415Y-29697434D01*
X121483333Y-7000000D02*
X121483333Y-5000000D01*
X136649681Y-56422930D02*
X136600649Y-56410235D01*
X5000000Y-63216666D02*
X5000000Y-47583333D01*
X59802565Y-7449415D02*
X59800000Y-7500000D01*
X136785634Y-7089618D02*
X136742650Y-7062826D01*
X42283333Y-56400000D02*
X42283333Y-55400000D01*
X30950584Y-79097434D02*
X31000649Y-79089764D01*
X40783333Y-128500000D02*
X40783333Y-130500000D01*
X7022930Y-81450318D02*
X7010235Y-81499350D01*
X128116666Y-104800000D02*
X128116666Y-105800000D01*
X110297177Y-79059478D02*
X110342650Y-79037173D01*
X76816666Y-5000000D02*
X93583333Y-5000000D01*
X84159478Y-103497177D02*
X84177069Y-103449681D01*
X0Y0D02*
X0Y-135500000D01*
X110589764Y-7399350D02*
X110577069Y-7350318D01*
X86200000Y-47583333D02*
X86200000Y-53900000D01*
X31310381Y-78885634D02*
X31337173Y-78842650D01*
X33702822Y-31740521D02*
X33657349Y-31762826D01*
X139000000Y-40016666D02*
X139000000Y-46083333D01*
X136806052Y-78995387D02*
X136844483Y-78962396D01*
X84177069Y-54049681D02*
X84189764Y-54000649D01*
X136895387Y-105993947D02*
X136862396Y-105955516D01*
X84189764Y-103400649D02*
X84197434Y-103350584D01*
X83849681Y-79077069D02*
X83897177Y-79059478D01*
X110600000Y-15316666D02*
X111600000Y-15316666D01*
X58800000Y-121683333D02*
X59800000Y-121683333D01*
X31000649Y-29689764D02*
X31049681Y-29677069D01*
X31049681Y-105822930D02*
X31000649Y-105810235D01*
X57800000Y-120183333D02*
X57800000Y-114116666D01*
X32400000Y-38516666D02*
X31400000Y-38516666D01*
X83985634Y-81189618D02*
X83942650Y-81162826D01*
X59800000Y-70783333D02*
X58800000Y-70783333D01*
X7000000Y-64716666D02*
X7000000Y-70783333D01*
X110510381Y-7214365D02*
X110479379Y-7174313D01*
X110597434Y-32149415D02*
X110589764Y-32099350D01*
X57400649Y-56410235D02*
X57350584Y-56402565D01*
X84177069Y-128149681D02*
X84189764Y-128100649D01*
X136997434Y-128050584D02*
X137000000Y-128000000D01*
X86200000Y-40016666D02*
X86200000Y-46083333D01*
X67183333Y-56400000D02*
X60300000Y-56400000D01*
X67183333Y-7000000D02*
X67183333Y-7000000D01*
X33574313Y-105920620D02*
X33555516Y-105937603D01*
X50416666Y-103800000D02*
X57300000Y-103800000D01*
X31185634Y-7089618D02*
X31142650Y-7062826D01*
X113100000Y-7000000D02*
X113049415Y-7002565D01*
X86240521Y-106102822D02*
X86222930Y-106150318D01*
X68683333Y-104800000D02*
X68683333Y-103800000D01*
X59862826Y-106057349D02*
X59840521Y-106102822D01*
X112755516Y-128362396D02*
X112793947Y-128395387D01*
X67183333Y-31700000D02*
X60300000Y-31700000D01*
X57759478Y-54097177D02*
X57777069Y-54049681D01*
X7000000Y-112616666D02*
X5000000Y-112616666D01*
X84137173Y-103542650D02*
X84159478Y-103497177D01*
X86320620Y-81274313D02*
X86289618Y-81314365D01*
X31206052Y-29595387D02*
X31244483Y-29562396D01*
X57625686Y-56520620D02*
X57585634Y-56489618D01*
X112950318Y-54377069D02*
X112999350Y-54389764D01*
X101716666Y-105800000D02*
X101716666Y-105800000D01*
X22516666Y-30700000D02*
X22516666Y-31700000D01*
X86320620Y-29525686D02*
X86355516Y-29562396D01*
X32400000Y-15316666D02*
X33400000Y-15316666D01*
X112793947Y-56504612D02*
X112755516Y-56537603D01*
X33900000Y-54400000D02*
X40783333Y-54400000D01*
X128116666Y-81100000D02*
X121483333Y-81100000D01*
X22516666Y-29700000D02*
X22516666Y-30700000D01*
X84200000Y-112616666D02*
X84200000Y-106300000D01*
X93583333Y-29700000D02*
X93583333Y-30700000D01*
X31142650Y-29637173D02*
X31164482Y-29624322D01*
X86240521Y-29397177D02*
X86262826Y-29442650D01*
X7350318Y-81122930D02*
X7302822Y-81140521D01*
X33614365Y-81189618D02*
X33593947Y-81204612D01*
X7040521Y-78797177D02*
X7062826Y-78842650D01*
X136997434Y-7449415D02*
X136989764Y-7399350D01*
X31225686Y-105920620D02*
X31185634Y-105889618D01*
X112600000Y-114116666D02*
X112600000Y-120183333D01*
X121483333Y-130500000D02*
X121483333Y-128500000D01*
X86200000Y-63216666D02*
X85200000Y-63216666D01*
X57800000Y-87916666D02*
X57800000Y-81600000D01*
X33462826Y-29442650D02*
X33489618Y-29485634D01*
X119983333Y-128500000D02*
X119983333Y-130500000D01*
X110342650Y-81162826D02*
X110297177Y-81140521D01*
X60150318Y-81122930D02*
X60102822Y-81140521D01*
X57797434Y-106249415D02*
X57789764Y-106199350D01*
X129616666Y-79100000D02*
X136500000Y-79100000D01*
X31377069Y-7350318D02*
X31359478Y-7302822D01*
X86700000Y-128500000D02*
X93583333Y-128500000D01*
X110479379Y-128325686D02*
X110510381Y-128285634D01*
X33555516Y-29562396D02*
X33593947Y-29595387D01*
X57797434Y-53950584D02*
X57800000Y-53900000D01*
X101716666Y-103800000D02*
X101716666Y-104800000D01*
X0Y-135500000D02*
X144000000Y-135500000D01*
X128116666Y-55400000D02*
X128116666Y-56400000D01*
X136697177Y-81140521D02*
X136649681Y-81122930D01*
X59862826Y-29442650D02*
X59889618Y-29485634D01*
X110479379Y-78925686D02*
X110510381Y-78885634D01*
X86457349Y-54337173D02*
X86502822Y-54359478D01*
X84095387Y-105993947D02*
X84062396Y-105955516D01*
X86210235Y-29300649D02*
X86222930Y-29349681D01*
X40783333Y-54400000D02*
X40783333Y-55400000D01*
X33657349Y-103737173D02*
X33702822Y-103759478D01*
X86262826Y-128242650D02*
X86289618Y-128285634D01*
X50416666Y-54400000D02*
X57300000Y-54400000D01*
X86240521Y-54097177D02*
X86262826Y-54142650D01*
X33750318Y-103777069D02*
X33799350Y-103789764D01*
X110200649Y-31710235D02*
X110150584Y-31702565D01*
X83897177Y-128459478D02*
X83942650Y-128437173D01*
X33400000Y-114116666D02*
X33400000Y-120183333D01*
X86210235Y-32099350D02*
X86202565Y-32149415D01*
X59904612Y-128306052D02*
X59937603Y-128344483D01*
X33410235Y-7399350D02*
X33402565Y-7449415D01*
X60300000Y-7000000D02*
X60249415Y-7002565D01*
X110510381Y-81314365D02*
X110479379Y-81274313D01*
X136697177Y-105840521D02*
X136649681Y-105822930D01*
X31324322Y-31935517D02*
X31295387Y-31893947D01*
X31049681Y-103777069D02*
X31097177Y-103759478D01*
X33555516Y-31837603D02*
X33520620Y-31874313D01*
X57625686Y-31820620D02*
X57585634Y-31789618D01*
X59822930Y-7350318D02*
X59810235Y-7399350D01*
X59802565Y-128050584D02*
X59810235Y-128100649D01*
X57300000Y-105800000D02*
X50416666Y-105800000D01*
X7399350Y-7010235D02*
X7350318Y-7022930D01*
X93583333Y-80100000D02*
X93583333Y-81100000D01*
X14383333Y-105800000D02*
X7500000Y-105800000D01*
X33400000Y-81600000D02*
X33400000Y-87916666D01*
X136910381Y-78885634D02*
X136937173Y-78842650D01*
X129616666Y-103800000D02*
X136500000Y-103800000D01*
X110597434Y-53950584D02*
X110600000Y-53900000D01*
X75316666Y-30700000D02*
X75316666Y-31700000D01*
X110600000Y-64716666D02*
X111600000Y-64716666D01*
X33614365Y-128410381D02*
X33657349Y-128437173D01*
X76816666Y-7000000D02*
X76816666Y-5000000D01*
X112600000Y-21383333D02*
X111600000Y-21383333D01*
X137000000Y-121683333D02*
X139000000Y-121683333D01*
X86700000Y-103800000D02*
X93583333Y-103800000D01*
X31000649Y-105810235D02*
X30950584Y-105802565D01*
X59937603Y-103644483D02*
X59974313Y-103679379D01*
X136879379Y-31874313D02*
X136862396Y-31855516D01*
X136825686Y-105920620D02*
X136785634Y-105889618D01*
X31097177Y-103759478D02*
X31142650Y-103737173D01*
X7137603Y-128344483D02*
X7174313Y-128379379D01*
X84062396Y-56555516D02*
X84025686Y-56520620D01*
X31368876Y-56726347D02*
X31348902Y-56679802D01*
X7257349Y-79037173D02*
X7302822Y-79059478D01*
X85200000Y-63216666D02*
X84200000Y-63216666D01*
X31400000Y-89416666D02*
X32400000Y-89416666D01*
X110150584Y-29697434D02*
X110200649Y-29689764D01*
X33402565Y-78650584D02*
X33410235Y-78700649D01*
X33520620Y-31874313D02*
X33489618Y-31914365D01*
X57800000Y-128000000D02*
X57800000Y-121683333D01*
X58800000Y-96983333D02*
X59800000Y-96983333D01*
X136959478Y-32002822D02*
X136937173Y-31957349D01*
X57350584Y-105802565D02*
X57300000Y-105800000D01*
X59889618Y-56614365D02*
X59862826Y-56657349D01*
X33422930Y-78749681D02*
X33440521Y-78797177D01*
X128116666Y-79100000D02*
X128116666Y-80100000D01*
X139000000Y-63216666D02*
X137000000Y-63216666D01*
X110249681Y-29677069D02*
X110297177Y-29659478D01*
X110100000Y-81100000D02*
X103216666Y-81100000D01*
X60300000Y-54400000D02*
X67183333Y-54400000D01*
X7399350Y-31710235D02*
X7350318Y-31722930D01*
X50416666Y-30700000D02*
X50416666Y-29700000D01*
X57800000Y-47583333D02*
X58800000Y-47583333D01*
X136742650Y-54337173D02*
X136785634Y-54310381D01*
X112610235Y-32099350D02*
X112602565Y-32149415D01*
X31049681Y-128477069D02*
X31097177Y-128459478D01*
X31324322Y-56635517D02*
X31295387Y-56593947D01*
X48916666Y-80100000D02*
X48916666Y-81100000D01*
X83750584Y-81102565D02*
X83700000Y-81100000D01*
X31295387Y-31893947D02*
X31262396Y-31855516D01*
X5000000Y-114116666D02*
X7000000Y-114116666D01*
X83800649Y-128489764D02*
X83849681Y-128477069D01*
X139000000Y-112616666D02*
X137000000Y-112616666D01*
X86599350Y-103789764D02*
X86649415Y-103797434D01*
X75316666Y-80100000D02*
X75316666Y-81100000D01*
X57789764Y-54000649D02*
X57797434Y-53950584D01*
X59862826Y-54142650D02*
X59889618Y-54185634D01*
X7155516Y-31837603D02*
X7120620Y-31874313D01*
X112814365Y-81189618D02*
X112793947Y-81204612D01*
X5000000Y-15316666D02*
X7000000Y-15316666D01*
X136989764Y-78700649D02*
X136997434Y-78650584D01*
X95083333Y-5000000D02*
X101716666Y-5000000D01*
X24016666Y-80100000D02*
X24016666Y-79100000D01*
X7302822Y-103759478D02*
X7350318Y-103777069D01*
X33400000Y-7500000D02*
X33400000Y-13816666D01*
X128116666Y-5000000D02*
X128116666Y-7000000D01*
X42283333Y-54400000D02*
X48916666Y-54400000D01*
X86200000Y-114116666D02*
X86200000Y-120183333D01*
X14383333Y-31700000D02*
X7500000Y-31700000D01*
X7449415Y-79097434D02*
X7500000Y-79100000D01*
X110600000Y-46083333D02*
X110600000Y-40016666D01*
X136500000Y-54400000D02*
X136550584Y-54397434D01*
X59840521Y-78797177D02*
X59862826Y-78842650D01*
X31244483Y-103662396D02*
X31279379Y-103625686D01*
X7000000Y-21383333D02*
X5000000Y-21383333D01*
X84200000Y-32200000D02*
X84197434Y-32149415D01*
X129616666Y-130500000D02*
X129616666Y-128500000D01*
X59920620Y-78925686D02*
X59955516Y-78962396D01*
X31400000Y-13816666D02*
X31400000Y-7500000D01*
X59889618Y-29485634D02*
X59904612Y-29506052D01*
X57542650Y-56462826D02*
X57497177Y-56440521D01*
X136550584Y-105802565D02*
X136500000Y-105800000D01*
X84177069Y-7350318D02*
X84159478Y-7302822D01*
X31337173Y-128242650D02*
X31359478Y-128197177D01*
X57497177Y-31740521D02*
X57449681Y-31722930D01*
X84044483Y-29562396D02*
X84079379Y-29525686D01*
X33750318Y-7022930D02*
X33702822Y-7040521D01*
X86414365Y-29610381D02*
X86457349Y-29637173D01*
X112857349Y-79037173D02*
X112902822Y-79059478D01*
X86200000Y-121683333D02*
X86200000Y-128000000D01*
X112902822Y-54359478D02*
X112950318Y-54377069D01*
X110600000Y-29200000D02*
X110600000Y-22883333D01*
X33702822Y-7040521D02*
X33657349Y-7062826D01*
X7062826Y-29442650D02*
X7089618Y-29485634D01*
X112662826Y-128242650D02*
X112689618Y-128285634D01*
X83920197Y-29648902D02*
X83964482Y-29624322D01*
X15883333Y-103800000D02*
X15883333Y-103800000D01*
X57644483Y-54262396D02*
X57679379Y-54225686D01*
X112793947Y-31804612D02*
X112755516Y-31837603D01*
X50416666Y-130500000D02*
X50416666Y-128500000D01*
X110600000Y-47583333D02*
X111600000Y-47583333D01*
X136862396Y-56555516D02*
X136825686Y-56520620D01*
X60102822Y-29659478D02*
X60150318Y-29677069D01*
X32400000Y-47583333D02*
X33400000Y-47583333D01*
X14383333Y-103800000D02*
X14383333Y-104800000D01*
X57400649Y-128489764D02*
X57449681Y-128477069D01*
X33657349Y-128437173D02*
X33702822Y-128459478D01*
X59822930Y-106150318D02*
X59810235Y-106199350D01*
X33657349Y-29637173D02*
X33702822Y-29659478D01*
X33462826Y-54142650D02*
X33489618Y-54185634D01*
X84159478Y-7302822D02*
X84137173Y-7257349D01*
X33410235Y-32099350D02*
X33402565Y-32149415D01*
X7000000Y-78600000D02*
X7002565Y-78650584D01*
X59889618Y-7214365D02*
X59862826Y-7257349D01*
X57710381Y-7214365D02*
X57695387Y-7193947D01*
X57800000Y-64716666D02*
X57800000Y-64716666D01*
X136649681Y-7022930D02*
X136600649Y-7010235D01*
X33400000Y-32200000D02*
X33400000Y-38516666D01*
X59800000Y-21383333D02*
X58800000Y-21383333D01*
X7193947Y-81204612D02*
X7155516Y-81237603D01*
X40783333Y-130500000D02*
X24016666Y-130500000D01*
X136959478Y-128197177D02*
X136977069Y-128149681D01*
X101716666Y-56400000D02*
X95083333Y-56400000D01*
X14383333Y-29700000D02*
X14383333Y-30700000D01*
X57800000Y-22883333D02*
X58800000Y-22883333D01*
X68683333Y-56400000D02*
X68683333Y-55400000D01*
X86200000Y-72283333D02*
X86200000Y-78600000D01*
X83897177Y-79059478D02*
X83920197Y-79048902D01*
X110589764Y-106199350D02*
X110577069Y-106150318D01*
X59802565Y-106249415D02*
X59800000Y-106300000D01*
X110559478Y-128197177D02*
X110577069Y-128149681D01*
X136600649Y-7010235D02*
X136550584Y-7002565D01*
X33402565Y-32149415D02*
X33400000Y-32200000D01*
X7022930Y-128149681D02*
X7040521Y-128197177D01*
X33410235Y-81499350D02*
X33402565Y-81549415D01*
X5000000Y-72283333D02*
X7000000Y-72283333D01*
X42283333Y-5000000D02*
X48916666Y-5000000D01*
X86202565Y-78650584D02*
X86210235Y-78700649D01*
X24016666Y-56400000D02*
X24016666Y-55400000D01*
X136977069Y-78749681D02*
X136989764Y-78700649D01*
X136806052Y-29595387D02*
X136844483Y-29562396D01*
X110577069Y-56750318D02*
X110559478Y-56702822D01*
X68683333Y-128500000D02*
X75316666Y-128500000D01*
X84200000Y-78600000D02*
X84200000Y-72283333D01*
X59810235Y-7399350D02*
X59802565Y-7449415D01*
X136959478Y-54097177D02*
X136977069Y-54049681D01*
X59822930Y-81450318D02*
X59810235Y-81499350D01*
X31206052Y-54295387D02*
X31244483Y-54262396D01*
X68683333Y-81100000D02*
X68683333Y-81100000D01*
X59802565Y-81549415D02*
X59800000Y-81600000D01*
X60249415Y-81102565D02*
X60199350Y-81110235D01*
X7500000Y-29700000D02*
X14383333Y-29700000D01*
X76816666Y-54400000D02*
X83700000Y-54400000D01*
X14383333Y-104800000D02*
X14383333Y-105800000D01*
X67183333Y-105800000D02*
X60300000Y-105800000D01*
X110577069Y-32050318D02*
X110559478Y-32002822D01*
X86200000Y-64716666D02*
X86200000Y-70783333D01*
X60199350Y-56410235D02*
X60150318Y-56422930D01*
X33440521Y-54097177D02*
X33462826Y-54142650D01*
X136989764Y-81499350D02*
X136977069Y-81450318D01*
X7120620Y-31874313D02*
X7089618Y-31914365D01*
X59800000Y-13816666D02*
X58800000Y-13816666D01*
X31244483Y-128362396D02*
X31279379Y-128325686D01*
X128116666Y-80100000D02*
X128116666Y-81100000D01*
X103216666Y-128500000D02*
X110100000Y-128500000D01*
X112689618Y-103585634D02*
X112720620Y-103625686D01*
X110444483Y-54262396D02*
X110479379Y-54225686D01*
X112602565Y-103350584D02*
X112610235Y-103400649D01*
X86414365Y-81189618D02*
X86393947Y-81204612D01*
X7000000Y-96983333D02*
X7000000Y-103300000D01*
X7257349Y-54337173D02*
X7302822Y-54359478D01*
X57737173Y-103542650D02*
X57759478Y-103497177D01*
X40783333Y-104800000D02*
X40783333Y-105800000D01*
X59800000Y-63216666D02*
X58800000Y-63216666D01*
X83942650Y-56462826D02*
X83897177Y-56440521D01*
X84124322Y-81335517D02*
X84095387Y-81293947D01*
X110600000Y-78600000D02*
X110600000Y-72283333D01*
X86414365Y-128410381D02*
X86457349Y-128437173D01*
X86202565Y-53950584D02*
X86210235Y-54000649D01*
X33900000Y-103800000D02*
X40783333Y-103800000D01*
X40783333Y-79100000D02*
X40783333Y-80100000D01*
X33462826Y-103542650D02*
X33489618Y-103585634D01*
X33402565Y-7449415D02*
X33400000Y-7500000D01*
X59889618Y-78885634D02*
X59920620Y-78925686D01*
X31262396Y-31855516D02*
X31225686Y-31820620D01*
X59862826Y-56657349D02*
X59840521Y-56702822D01*
X5000000Y-89416666D02*
X7000000Y-89416666D01*
X7350318Y-103777069D02*
X7399350Y-103789764D01*
X129616666Y-31700000D02*
X129616666Y-30700000D01*
X86502822Y-81140521D02*
X86457349Y-81162826D01*
X60014365Y-29610381D02*
X60057349Y-29637173D01*
X31142650Y-7062826D02*
X31097177Y-7040521D01*
X137000000Y-114116666D02*
X139000000Y-114116666D01*
X7002565Y-128050584D02*
X7010235Y-128100649D01*
X57797434Y-56849415D02*
X57789764Y-56799350D01*
X93583333Y-130500000D02*
X76816666Y-130500000D01*
X57695387Y-56593947D02*
X57662396Y-56555516D01*
X57662396Y-7155516D02*
X57625686Y-7120620D01*
X136697177Y-128459478D02*
X136742650Y-128437173D01*
X83750584Y-54397434D02*
X83800649Y-54389764D01*
X59993947Y-7104612D02*
X59955516Y-7137603D01*
X110385634Y-128410381D02*
X110406052Y-128395387D01*
X33799350Y-81110235D02*
X33750318Y-81122930D01*
X112662826Y-106057349D02*
X112640521Y-106102822D01*
X110559478Y-81402822D02*
X110537173Y-81357349D01*
X33849415Y-7002565D02*
X33799350Y-7010235D01*
X22516666Y-80100000D02*
X22516666Y-81100000D01*
X59800000Y-56900000D02*
X59800000Y-63216666D01*
X59800000Y-15316666D02*
X59800000Y-21383333D01*
X76816666Y-128500000D02*
X83700000Y-128500000D01*
X60150318Y-29677069D02*
X60199350Y-29689764D01*
M02*
