M48
; DRILL file {KiCad 7.0.5-1.fc38} date Fri 07 Jul 2023 14:20:27 EDT
; FORMAT={-:-/ absolute / metric / decimal}
; #@! TF.CreationDate,2023-07-07T14:20:27-04:00
; #@! TF.GenerationSoftware,Kicad,Pcbnew,7.0.5-1.fc38
; #@! TF.FileFunction,NonPlated,1,2,NPTH
FMAT,2
METRIC
; #@! TA.AperFunction,NonPlated,NPTH,ComponentDrill
T1C0.500
%
G90
G05
T1
X97.501Y-27.0
X97.501Y-114.999
X98.126Y-27.0
X98.126Y-114.999
X98.751Y-27.0
X98.751Y-114.999
X99.376Y-27.0
X99.376Y-114.999
X100.001Y-27.0
X100.001Y-114.999
X100.626Y-27.0
X100.626Y-114.999
X101.251Y-27.0
X101.251Y-114.999
X101.876Y-27.0
X101.876Y-114.999
X102.501Y-27.0
X102.501Y-114.999
X104.376Y-34.999
X104.376Y-52.999
X104.376Y-70.999
X104.376Y-88.999
X104.376Y-106.999
X104.399Y-35.636
X104.399Y-53.636
X104.399Y-71.636
X104.399Y-89.636
X104.399Y-107.636
X104.4Y-34.363
X104.4Y-52.363
X104.4Y-70.363
X104.4Y-88.363
X104.4Y-106.363
X104.501Y-20.0
X104.501Y-20.625
X104.501Y-21.25
X104.501Y-21.875
X104.501Y-22.5
X104.501Y-23.125
X104.501Y-23.75
X104.501Y-24.375
X104.501Y-25.0
X104.501Y-116.999
X104.501Y-117.624
X104.501Y-118.249
X104.501Y-118.874
X104.501Y-119.499
X104.501Y-120.124
X104.501Y-120.749
X104.501Y-121.374
X104.501Y-121.999
X111.866Y-26.901
X111.866Y-43.098
X111.866Y-44.901
X111.866Y-61.098
X111.866Y-62.901
X111.866Y-79.098
X111.866Y-80.901
X111.866Y-97.098
X111.866Y-98.901
X111.866Y-115.098
X112.502Y-26.876
X112.502Y-44.876
X112.502Y-61.122
X112.502Y-62.876
X112.502Y-79.122
X112.502Y-80.876
X112.502Y-97.122
X112.502Y-98.876
X112.502Y-43.123
X112.502Y-115.123
X113.138Y-43.098
X113.138Y-115.098
X113.138Y-26.901
X113.138Y-44.901
X113.138Y-61.098
X113.138Y-62.901
X113.138Y-79.098
X113.138Y-80.901
X113.138Y-97.098
X113.138Y-98.901
X120.596Y-34.362
X120.596Y-35.637
X120.596Y-52.362
X120.596Y-53.637
X120.596Y-70.362
X120.596Y-71.637
X120.596Y-88.362
X120.596Y-89.637
X120.596Y-107.637
X120.596Y-106.362
X120.624Y-34.999
X120.624Y-52.999
X120.624Y-70.999
X120.624Y-88.999
X120.624Y-106.999
X122.376Y-34.999
X122.376Y-52.999
X122.376Y-70.999
X122.376Y-88.999
X122.376Y-106.999
X122.399Y-35.636
X122.399Y-53.636
X122.399Y-71.636
X122.399Y-89.636
X122.399Y-107.636
X122.4Y-34.363
X122.4Y-52.363
X122.4Y-70.363
X122.4Y-88.363
X122.4Y-106.363
X129.866Y-26.901
X129.866Y-43.098
X129.866Y-44.901
X129.866Y-61.098
X129.866Y-62.901
X129.866Y-79.098
X129.866Y-80.901
X129.866Y-97.098
X129.866Y-98.901
X129.866Y-115.098
X130.502Y-26.876
X130.502Y-44.876
X130.502Y-61.122
X130.502Y-62.876
X130.502Y-79.122
X130.502Y-80.876
X130.502Y-97.122
X130.502Y-98.876
X130.502Y-43.123
X130.502Y-115.123
X131.138Y-43.098
X131.138Y-115.098
X131.138Y-26.901
X131.138Y-44.901
X131.138Y-61.098
X131.138Y-62.901
X131.138Y-79.098
X131.138Y-80.901
X131.138Y-97.098
X131.138Y-98.901
X138.596Y-34.362
X138.596Y-35.637
X138.596Y-52.362
X138.596Y-53.637
X138.596Y-70.362
X138.596Y-71.637
X138.596Y-88.362
X138.596Y-89.637
X138.596Y-106.362
X138.596Y-107.637
X138.624Y-34.999
X138.624Y-52.999
X138.624Y-70.999
X138.624Y-88.999
X138.624Y-106.999
X140.376Y-34.999
X140.376Y-52.999
X140.376Y-70.999
X140.376Y-88.999
X140.376Y-106.999
X140.399Y-35.636
X140.399Y-53.636
X140.399Y-71.636
X140.399Y-89.636
X140.399Y-107.636
X140.4Y-34.363
X140.4Y-52.363
X140.4Y-70.363
X140.4Y-88.363
X140.4Y-106.363
X147.866Y-26.901
X147.866Y-43.098
X147.866Y-44.901
X147.866Y-61.098
X147.866Y-62.901
X147.866Y-79.098
X147.866Y-80.901
X147.866Y-97.098
X147.866Y-98.901
X147.866Y-115.098
X148.502Y-26.876
X148.502Y-44.876
X148.502Y-61.122
X148.502Y-62.876
X148.502Y-79.122
X148.502Y-80.876
X148.502Y-97.122
X148.502Y-98.876
X148.502Y-43.123
X148.502Y-115.123
X149.138Y-43.098
X149.138Y-115.098
X149.138Y-26.901
X149.138Y-44.901
X149.138Y-61.098
X149.138Y-62.901
X149.138Y-79.098
X149.138Y-80.901
X149.138Y-97.098
X149.138Y-98.901
X156.596Y-34.362
X156.596Y-35.637
X156.596Y-52.362
X156.596Y-53.637
X156.596Y-70.362
X156.596Y-71.637
X156.596Y-88.362
X156.596Y-89.637
X156.596Y-106.362
X156.596Y-107.637
X156.624Y-34.999
X156.624Y-52.999
X156.624Y-70.999
X156.624Y-88.999
X156.624Y-106.999
X158.376Y-34.999
X158.376Y-52.999
X158.376Y-70.999
X158.376Y-88.999
X158.376Y-106.999
X158.399Y-35.636
X158.399Y-53.636
X158.399Y-71.636
X158.399Y-89.636
X158.399Y-107.636
X158.4Y-34.363
X158.4Y-52.363
X158.4Y-70.363
X158.4Y-88.363
X158.4Y-106.363
X165.866Y-26.901
X165.866Y-43.098
X165.866Y-44.901
X165.866Y-61.098
X165.866Y-62.901
X165.866Y-79.098
X165.866Y-80.901
X165.866Y-97.098
X165.866Y-98.901
X165.866Y-115.098
X166.502Y-26.876
X166.502Y-44.876
X166.502Y-61.122
X166.502Y-62.876
X166.502Y-79.122
X166.502Y-80.876
X166.502Y-97.122
X166.502Y-98.876
X166.502Y-43.123
X166.502Y-115.123
X167.138Y-43.098
X167.138Y-115.098
X167.138Y-26.901
X167.138Y-44.901
X167.138Y-61.098
X167.138Y-62.901
X167.138Y-79.098
X167.138Y-80.901
X167.138Y-97.098
X167.138Y-98.901
X174.596Y-34.362
X174.596Y-35.637
X174.596Y-52.362
X174.596Y-53.637
X174.596Y-70.362
X174.596Y-71.637
X174.596Y-88.362
X174.596Y-89.637
X174.596Y-106.362
X174.596Y-107.637
X174.624Y-34.999
X174.624Y-52.999
X174.624Y-70.999
X174.624Y-88.999
X174.624Y-106.999
X176.376Y-34.999
X176.376Y-52.999
X176.376Y-70.999
X176.376Y-88.999
X176.376Y-106.999
X176.399Y-35.636
X176.399Y-53.636
X176.399Y-71.636
X176.399Y-89.636
X176.399Y-107.636
X176.4Y-34.363
X176.4Y-52.363
X176.4Y-70.363
X176.4Y-88.363
X176.4Y-106.363
X183.866Y-26.901
X183.866Y-43.098
X183.866Y-44.901
X183.866Y-61.098
X183.866Y-62.901
X183.866Y-79.098
X183.866Y-80.901
X183.866Y-97.098
X183.866Y-98.901
X183.866Y-115.098
X184.502Y-44.876
X184.502Y-61.122
X184.502Y-62.876
X184.502Y-79.122
X184.502Y-80.876
X184.502Y-97.122
X184.502Y-98.876
X184.502Y-26.876
X184.502Y-43.123
X184.502Y-115.123
X185.138Y-26.901
X185.138Y-43.098
X185.138Y-115.098
X185.138Y-44.901
X185.138Y-61.098
X185.138Y-62.901
X185.138Y-79.098
X185.138Y-80.901
X185.138Y-97.098
X185.138Y-98.901
X192.499Y-20.0
X192.499Y-20.625
X192.499Y-21.25
X192.499Y-21.875
X192.499Y-22.5
X192.499Y-23.125
X192.499Y-23.75
X192.499Y-24.375
X192.499Y-25.0
X192.499Y-116.999
X192.499Y-117.624
X192.499Y-118.249
X192.499Y-118.874
X192.499Y-119.499
X192.499Y-120.124
X192.499Y-120.749
X192.499Y-121.374
X192.499Y-121.999
X192.596Y-34.362
X192.596Y-35.637
X192.596Y-52.362
X192.596Y-53.637
X192.596Y-70.362
X192.596Y-71.637
X192.596Y-88.362
X192.596Y-89.637
X192.596Y-106.362
X192.596Y-107.637
X192.624Y-34.999
X192.624Y-52.999
X192.624Y-70.999
X192.624Y-88.999
X192.624Y-106.999
X194.499Y-27.0
X194.499Y-114.999
X195.124Y-27.0
X195.124Y-114.999
X195.749Y-27.0
X195.749Y-114.999
X196.374Y-27.0
X196.374Y-114.999
X196.999Y-27.0
X196.999Y-114.999
X197.624Y-27.0
X197.624Y-114.999
X198.249Y-27.0
X198.249Y-114.999
X198.874Y-27.0
X198.874Y-114.999
X199.499Y-27.0
X199.499Y-114.999
T0
M30
