%TF.GenerationSoftware,KiCad,Pcbnew,7.0.5-1.fc38*%
%TF.CreationDate,2023-07-07T14:20:18-04:00*%
%TF.ProjectId,bno085-i2c-board-v3-large-panel,626e6f30-3835-42d6-9932-632d626f6172,rev?*%
%TF.SameCoordinates,Original*%
%TF.FileFunction,Copper,L2,Bot*%
%TF.FilePolarity,Positive*%
%FSLAX46Y46*%
G04 Gerber Fmt 4.6, Leading zero omitted, Abs format (unit mm)*
G04 Created by KiCad (PCBNEW 7.0.5-1.fc38) date 2023-07-07 14:20:18*
%MOMM*%
%LPD*%
G01*
G04 APERTURE LIST*
%TA.AperFunction,ComponentPad*%
%ADD10R,0.850000X0.850000*%
%TD*%
%TA.AperFunction,ViaPad*%
%ADD11C,0.800000*%
%TD*%
%TA.AperFunction,Conductor*%
%ADD12C,0.250000*%
%TD*%
G04 APERTURE END LIST*
D10*
%TO.P,J2,1,Pin_1*%
%TO.N,Board_7-Net-(J2-Pin_1)*%
X148498776Y-59999388D03*
%TD*%
%TO.P,J4,1,Pin_1*%
%TO.N,Board_16-GND*%
X137498776Y-88999388D03*
%TD*%
%TO.P,J1,1,Pin_1*%
%TO.N,Board_20-Net-(J1-Pin_1)*%
X112498776Y-99999388D03*
%TD*%
%TO.P,J1,1,Pin_1*%
%TO.N,Board_1-Net-(J1-Pin_1)*%
X130498776Y-27999388D03*
%TD*%
%TO.P,J2,1,Pin_1*%
%TO.N,Board_21-Net-(J2-Pin_1)*%
X130498776Y-113999388D03*
%TD*%
%TO.P,J2,1,Pin_1*%
%TO.N,Board_5-Net-(J2-Pin_1)*%
X112498776Y-59999388D03*
%TD*%
%TO.P,J2,1,Pin_1*%
%TO.N,Board_23-Net-(J2-Pin_1)*%
X166498776Y-113999388D03*
%TD*%
%TO.P,J1,1,Pin_1*%
%TO.N,Board_23-Net-(J1-Pin_1)*%
X166498776Y-99999388D03*
%TD*%
%TO.P,J4,1,Pin_1*%
%TO.N,Board_14-GND*%
X191498776Y-70999388D03*
%TD*%
%TO.P,J3,1,Pin_1*%
%TO.N,Board_9-+3.3V*%
X177498776Y-52999388D03*
%TD*%
%TO.P,J2,1,Pin_1*%
%TO.N,Board_17-Net-(J2-Pin_1)*%
X148498776Y-95999388D03*
%TD*%
%TO.P,J2,1,Pin_1*%
%TO.N,Board_12-Net-(J2-Pin_1)*%
X148498776Y-77999388D03*
%TD*%
%TO.P,J3,1,Pin_1*%
%TO.N,Board_2-+3.3V*%
X141498776Y-34999388D03*
%TD*%
%TO.P,J1,1,Pin_1*%
%TO.N,Board_6-Net-(J1-Pin_1)*%
X130498776Y-45999388D03*
%TD*%
%TO.P,J3,1,Pin_1*%
%TO.N,Board_8-+3.3V*%
X159498776Y-52999388D03*
%TD*%
%TO.P,J4,1,Pin_1*%
%TO.N,Board_13-GND*%
X173498776Y-70999388D03*
%TD*%
%TO.P,J1,1,Pin_1*%
%TO.N,Board_0-Net-(J1-Pin_1)*%
X112498776Y-27999388D03*
%TD*%
%TO.P,J3,1,Pin_1*%
%TO.N,Board_6-+3.3V*%
X123498776Y-52999388D03*
%TD*%
%TO.P,J3,1,Pin_1*%
%TO.N,Board_22-+3.3V*%
X141498776Y-106999388D03*
%TD*%
%TO.P,J2,1,Pin_1*%
%TO.N,Board_11-Net-(J2-Pin_1)*%
X130498776Y-77999388D03*
%TD*%
%TO.P,J4,1,Pin_1*%
%TO.N,Board_18-GND*%
X173498776Y-88999388D03*
%TD*%
%TO.P,J3,1,Pin_1*%
%TO.N,Board_21-+3.3V*%
X123498776Y-106999388D03*
%TD*%
%TO.P,J2,1,Pin_1*%
%TO.N,Board_24-Net-(J2-Pin_1)*%
X184498776Y-113999388D03*
%TD*%
%TO.P,J4,1,Pin_1*%
%TO.N,Board_11-GND*%
X137498776Y-70999388D03*
%TD*%
%TO.P,J3,1,Pin_1*%
%TO.N,Board_12-+3.3V*%
X141498776Y-70999388D03*
%TD*%
%TO.P,J2,1,Pin_1*%
%TO.N,Board_22-Net-(J2-Pin_1)*%
X148498776Y-113999388D03*
%TD*%
%TO.P,J3,1,Pin_1*%
%TO.N,Board_17-+3.3V*%
X141498776Y-88999388D03*
%TD*%
%TO.P,J2,1,Pin_1*%
%TO.N,Board_19-Net-(J2-Pin_1)*%
X184498776Y-95999388D03*
%TD*%
%TO.P,J4,1,Pin_1*%
%TO.N,Board_7-GND*%
X155498776Y-52999388D03*
%TD*%
%TO.P,J1,1,Pin_1*%
%TO.N,Board_3-Net-(J1-Pin_1)*%
X166498776Y-27999388D03*
%TD*%
%TO.P,J2,1,Pin_1*%
%TO.N,Board_3-Net-(J2-Pin_1)*%
X166498776Y-41999388D03*
%TD*%
%TO.P,J4,1,Pin_1*%
%TO.N,Board_9-GND*%
X191498776Y-52999388D03*
%TD*%
%TO.P,J3,1,Pin_1*%
%TO.N,Board_16-+3.3V*%
X123498776Y-88999388D03*
%TD*%
%TO.P,J4,1,Pin_1*%
%TO.N,Board_3-GND*%
X173498776Y-34999388D03*
%TD*%
%TO.P,J3,1,Pin_1*%
%TO.N,Board_0-+3.3V*%
X105498776Y-34999388D03*
%TD*%
%TO.P,J1,1,Pin_1*%
%TO.N,Board_5-Net-(J1-Pin_1)*%
X112498776Y-45999388D03*
%TD*%
%TO.P,J3,1,Pin_1*%
%TO.N,Board_13-+3.3V*%
X159498776Y-70999388D03*
%TD*%
%TO.P,J3,1,Pin_1*%
%TO.N,Board_7-+3.3V*%
X141498776Y-52999388D03*
%TD*%
%TO.P,J3,1,Pin_1*%
%TO.N,Board_15-+3.3V*%
X105498776Y-88999388D03*
%TD*%
%TO.P,J4,1,Pin_1*%
%TO.N,Board_23-GND*%
X173498776Y-106999388D03*
%TD*%
%TO.P,J4,1,Pin_1*%
%TO.N,Board_1-GND*%
X137498776Y-34999388D03*
%TD*%
%TO.P,J3,1,Pin_1*%
%TO.N,Board_1-+3.3V*%
X123498776Y-34999388D03*
%TD*%
%TO.P,J2,1,Pin_1*%
%TO.N,Board_9-Net-(J2-Pin_1)*%
X184498776Y-59999388D03*
%TD*%
%TO.P,J3,1,Pin_1*%
%TO.N,Board_10-+3.3V*%
X105498776Y-70999388D03*
%TD*%
%TO.P,J3,1,Pin_1*%
%TO.N,Board_3-+3.3V*%
X159498776Y-34999388D03*
%TD*%
%TO.P,J3,1,Pin_1*%
%TO.N,Board_20-+3.3V*%
X105498776Y-106999388D03*
%TD*%
%TO.P,J3,1,Pin_1*%
%TO.N,Board_19-+3.3V*%
X177498776Y-88999388D03*
%TD*%
%TO.P,J1,1,Pin_1*%
%TO.N,Board_21-Net-(J1-Pin_1)*%
X130498776Y-99999388D03*
%TD*%
%TO.P,J1,1,Pin_1*%
%TO.N,Board_14-Net-(J1-Pin_1)*%
X184498776Y-63999388D03*
%TD*%
%TO.P,J3,1,Pin_1*%
%TO.N,Board_5-+3.3V*%
X105498776Y-52999388D03*
%TD*%
%TO.P,J2,1,Pin_1*%
%TO.N,Board_10-Net-(J2-Pin_1)*%
X112498776Y-77999388D03*
%TD*%
%TO.P,J1,1,Pin_1*%
%TO.N,Board_17-Net-(J1-Pin_1)*%
X148498776Y-81999388D03*
%TD*%
%TO.P,J2,1,Pin_1*%
%TO.N,Board_2-Net-(J2-Pin_1)*%
X148498776Y-41999388D03*
%TD*%
%TO.P,J1,1,Pin_1*%
%TO.N,Board_11-Net-(J1-Pin_1)*%
X130498776Y-63999388D03*
%TD*%
%TO.P,J2,1,Pin_1*%
%TO.N,Board_15-Net-(J2-Pin_1)*%
X112498776Y-95999388D03*
%TD*%
%TO.P,J2,1,Pin_1*%
%TO.N,Board_14-Net-(J2-Pin_1)*%
X184498776Y-77999388D03*
%TD*%
%TO.P,J3,1,Pin_1*%
%TO.N,Board_4-+3.3V*%
X177498776Y-34999388D03*
%TD*%
%TO.P,J4,1,Pin_1*%
%TO.N,Board_12-GND*%
X155498776Y-70999388D03*
%TD*%
%TO.P,J4,1,Pin_1*%
%TO.N,Board_10-GND*%
X119498776Y-70999388D03*
%TD*%
%TO.P,J2,1,Pin_1*%
%TO.N,Board_6-Net-(J2-Pin_1)*%
X130498776Y-59999388D03*
%TD*%
%TO.P,J3,1,Pin_1*%
%TO.N,Board_18-+3.3V*%
X159498776Y-88999388D03*
%TD*%
%TO.P,J4,1,Pin_1*%
%TO.N,Board_8-GND*%
X173498776Y-52999388D03*
%TD*%
%TO.P,J2,1,Pin_1*%
%TO.N,Board_16-Net-(J2-Pin_1)*%
X130498776Y-95999388D03*
%TD*%
%TO.P,J4,1,Pin_1*%
%TO.N,Board_0-GND*%
X119498776Y-34999388D03*
%TD*%
%TO.P,J1,1,Pin_1*%
%TO.N,Board_24-Net-(J1-Pin_1)*%
X184498776Y-99999388D03*
%TD*%
%TO.P,J1,1,Pin_1*%
%TO.N,Board_9-Net-(J1-Pin_1)*%
X184498776Y-45999388D03*
%TD*%
%TO.P,J4,1,Pin_1*%
%TO.N,Board_17-GND*%
X155498776Y-88999388D03*
%TD*%
%TO.P,J4,1,Pin_1*%
%TO.N,Board_20-GND*%
X119498776Y-106999388D03*
%TD*%
%TO.P,J2,1,Pin_1*%
%TO.N,Board_18-Net-(J2-Pin_1)*%
X166498776Y-95999388D03*
%TD*%
%TO.P,J2,1,Pin_1*%
%TO.N,Board_1-Net-(J2-Pin_1)*%
X130498776Y-41999388D03*
%TD*%
%TO.P,J3,1,Pin_1*%
%TO.N,Board_24-+3.3V*%
X177498776Y-106999388D03*
%TD*%
%TO.P,J4,1,Pin_1*%
%TO.N,Board_15-GND*%
X119498776Y-88999388D03*
%TD*%
%TO.P,J1,1,Pin_1*%
%TO.N,Board_12-Net-(J1-Pin_1)*%
X148498776Y-63999388D03*
%TD*%
%TO.P,J3,1,Pin_1*%
%TO.N,Board_14-+3.3V*%
X177498776Y-70999388D03*
%TD*%
%TO.P,J1,1,Pin_1*%
%TO.N,Board_18-Net-(J1-Pin_1)*%
X166498776Y-81999388D03*
%TD*%
%TO.P,J2,1,Pin_1*%
%TO.N,Board_13-Net-(J2-Pin_1)*%
X166498776Y-77999388D03*
%TD*%
%TO.P,J2,1,Pin_1*%
%TO.N,Board_20-Net-(J2-Pin_1)*%
X112498776Y-113999388D03*
%TD*%
%TO.P,J4,1,Pin_1*%
%TO.N,Board_22-GND*%
X155498776Y-106999388D03*
%TD*%
%TO.P,J4,1,Pin_1*%
%TO.N,Board_5-GND*%
X119498776Y-52999388D03*
%TD*%
%TO.P,J1,1,Pin_1*%
%TO.N,Board_22-Net-(J1-Pin_1)*%
X148498776Y-99999388D03*
%TD*%
%TO.P,J3,1,Pin_1*%
%TO.N,Board_11-+3.3V*%
X123498776Y-70999388D03*
%TD*%
%TO.P,J1,1,Pin_1*%
%TO.N,Board_8-Net-(J1-Pin_1)*%
X166498776Y-45999388D03*
%TD*%
%TO.P,J4,1,Pin_1*%
%TO.N,Board_24-GND*%
X191498776Y-106999388D03*
%TD*%
%TO.P,J1,1,Pin_1*%
%TO.N,Board_2-Net-(J1-Pin_1)*%
X148498776Y-27999388D03*
%TD*%
%TO.P,J1,1,Pin_1*%
%TO.N,Board_10-Net-(J1-Pin_1)*%
X112498776Y-63999388D03*
%TD*%
%TO.P,J4,1,Pin_1*%
%TO.N,Board_19-GND*%
X191498776Y-88999388D03*
%TD*%
%TO.P,J1,1,Pin_1*%
%TO.N,Board_19-Net-(J1-Pin_1)*%
X184498776Y-81999388D03*
%TD*%
%TO.P,J4,1,Pin_1*%
%TO.N,Board_4-GND*%
X191498776Y-34999388D03*
%TD*%
%TO.P,J1,1,Pin_1*%
%TO.N,Board_15-Net-(J1-Pin_1)*%
X112498776Y-81999388D03*
%TD*%
%TO.P,J2,1,Pin_1*%
%TO.N,Board_8-Net-(J2-Pin_1)*%
X166498776Y-59999388D03*
%TD*%
%TO.P,J1,1,Pin_1*%
%TO.N,Board_16-Net-(J1-Pin_1)*%
X130498776Y-81999388D03*
%TD*%
%TO.P,J2,1,Pin_1*%
%TO.N,Board_4-Net-(J2-Pin_1)*%
X184498776Y-41999388D03*
%TD*%
%TO.P,J2,1,Pin_1*%
%TO.N,Board_0-Net-(J2-Pin_1)*%
X112498776Y-41999388D03*
%TD*%
%TO.P,J4,1,Pin_1*%
%TO.N,Board_6-GND*%
X137498776Y-52999388D03*
%TD*%
%TO.P,J1,1,Pin_1*%
%TO.N,Board_7-Net-(J1-Pin_1)*%
X148498776Y-45999388D03*
%TD*%
%TO.P,J4,1,Pin_1*%
%TO.N,Board_2-GND*%
X155498776Y-34999388D03*
%TD*%
%TO.P,J3,1,Pin_1*%
%TO.N,Board_23-+3.3V*%
X159498776Y-106999388D03*
%TD*%
%TO.P,J1,1,Pin_1*%
%TO.N,Board_4-Net-(J1-Pin_1)*%
X184498776Y-27999388D03*
%TD*%
%TO.P,J4,1,Pin_1*%
%TO.N,Board_21-GND*%
X137498776Y-106999388D03*
%TD*%
%TO.P,J1,1,Pin_1*%
%TO.N,Board_13-Net-(J1-Pin_1)*%
X166498776Y-63999388D03*
%TD*%
D11*
%TO.N,Board_0-+3.3V*%
X114998776Y-29249388D03*
X112998776Y-30499388D03*
%TO.N,Board_0-GND*%
X108998776Y-39249388D03*
X112748776Y-34749388D03*
%TO.N,Board_0-Net-(J2-Pin_1)*%
X117748776Y-36749388D03*
X116498776Y-34249388D03*
%TO.N,Board_1-+3.3V*%
X130998776Y-30499388D03*
X132998776Y-29249388D03*
%TO.N,Board_1-GND*%
X126998776Y-39249388D03*
X130748776Y-34749388D03*
%TO.N,Board_1-Net-(J2-Pin_1)*%
X134498776Y-34249388D03*
X135748776Y-36749388D03*
%TO.N,Board_2-+3.3V*%
X150998776Y-29249388D03*
X148998776Y-30499388D03*
%TO.N,Board_2-GND*%
X148748776Y-34749388D03*
X144998776Y-39249388D03*
%TO.N,Board_2-Net-(J2-Pin_1)*%
X152498776Y-34249388D03*
X153748776Y-36749388D03*
%TO.N,Board_3-+3.3V*%
X166998776Y-30499388D03*
X168998776Y-29249388D03*
%TO.N,Board_3-GND*%
X166748776Y-34749388D03*
X162998776Y-39249388D03*
%TO.N,Board_3-Net-(J2-Pin_1)*%
X171748776Y-36749388D03*
X170498776Y-34249388D03*
%TO.N,Board_4-+3.3V*%
X184998776Y-30499388D03*
X186998776Y-29249388D03*
%TO.N,Board_4-GND*%
X184748776Y-34749388D03*
X180998776Y-39249388D03*
%TO.N,Board_4-Net-(J2-Pin_1)*%
X188498776Y-34249388D03*
X189748776Y-36749388D03*
%TO.N,Board_5-+3.3V*%
X114998776Y-47249388D03*
X112998776Y-48499388D03*
%TO.N,Board_5-GND*%
X112748776Y-52749388D03*
X108998776Y-57249388D03*
%TO.N,Board_5-Net-(J2-Pin_1)*%
X116498776Y-52249388D03*
X117748776Y-54749388D03*
%TO.N,Board_6-+3.3V*%
X130998776Y-48499388D03*
X132998776Y-47249388D03*
%TO.N,Board_6-GND*%
X126998776Y-57249388D03*
X130748776Y-52749388D03*
%TO.N,Board_6-Net-(J2-Pin_1)*%
X134498776Y-52249388D03*
X135748776Y-54749388D03*
%TO.N,Board_7-+3.3V*%
X150998776Y-47249388D03*
X148998776Y-48499388D03*
%TO.N,Board_7-GND*%
X144998776Y-57249388D03*
X148748776Y-52749388D03*
%TO.N,Board_7-Net-(J2-Pin_1)*%
X152498776Y-52249388D03*
X153748776Y-54749388D03*
%TO.N,Board_8-+3.3V*%
X166998776Y-48499388D03*
X168998776Y-47249388D03*
%TO.N,Board_8-GND*%
X162998776Y-57249388D03*
X166748776Y-52749388D03*
%TO.N,Board_8-Net-(J2-Pin_1)*%
X171748776Y-54749388D03*
X170498776Y-52249388D03*
%TO.N,Board_9-+3.3V*%
X186998776Y-47249388D03*
X184998776Y-48499388D03*
%TO.N,Board_9-GND*%
X184748776Y-52749388D03*
X180998776Y-57249388D03*
%TO.N,Board_9-Net-(J2-Pin_1)*%
X188498776Y-52249388D03*
X189748776Y-54749388D03*
%TO.N,Board_10-+3.3V*%
X112998776Y-66499388D03*
X114998776Y-65249388D03*
%TO.N,Board_10-GND*%
X108998776Y-75249388D03*
X112748776Y-70749388D03*
%TO.N,Board_10-Net-(J2-Pin_1)*%
X116498776Y-70249388D03*
X117748776Y-72749388D03*
%TO.N,Board_11-+3.3V*%
X132998776Y-65249388D03*
X130998776Y-66499388D03*
%TO.N,Board_11-GND*%
X130748776Y-70749388D03*
X126998776Y-75249388D03*
%TO.N,Board_11-Net-(J2-Pin_1)*%
X135748776Y-72749388D03*
X134498776Y-70249388D03*
%TO.N,Board_12-+3.3V*%
X150998776Y-65249388D03*
X148998776Y-66499388D03*
%TO.N,Board_12-GND*%
X144998776Y-75249388D03*
X148748776Y-70749388D03*
%TO.N,Board_12-Net-(J2-Pin_1)*%
X153748776Y-72749388D03*
X152498776Y-70249388D03*
%TO.N,Board_13-+3.3V*%
X166998776Y-66499388D03*
X168998776Y-65249388D03*
%TO.N,Board_13-GND*%
X162998776Y-75249388D03*
X166748776Y-70749388D03*
%TO.N,Board_13-Net-(J2-Pin_1)*%
X171748776Y-72749388D03*
X170498776Y-70249388D03*
%TO.N,Board_14-+3.3V*%
X186998776Y-65249388D03*
X184998776Y-66499388D03*
%TO.N,Board_14-GND*%
X180998776Y-75249388D03*
X184748776Y-70749388D03*
%TO.N,Board_14-Net-(J2-Pin_1)*%
X188498776Y-70249388D03*
X189748776Y-72749388D03*
%TO.N,Board_15-+3.3V*%
X114998776Y-83249388D03*
X112998776Y-84499388D03*
%TO.N,Board_15-GND*%
X108998776Y-93249388D03*
X112748776Y-88749388D03*
%TO.N,Board_15-Net-(J2-Pin_1)*%
X116498776Y-88249388D03*
X117748776Y-90749388D03*
%TO.N,Board_16-+3.3V*%
X130998776Y-84499388D03*
X132998776Y-83249388D03*
%TO.N,Board_16-GND*%
X130748776Y-88749388D03*
X126998776Y-93249388D03*
%TO.N,Board_16-Net-(J2-Pin_1)*%
X135748776Y-90749388D03*
X134498776Y-88249388D03*
%TO.N,Board_17-+3.3V*%
X150998776Y-83249388D03*
X148998776Y-84499388D03*
%TO.N,Board_17-GND*%
X148748776Y-88749388D03*
X144998776Y-93249388D03*
%TO.N,Board_17-Net-(J2-Pin_1)*%
X153748776Y-90749388D03*
X152498776Y-88249388D03*
%TO.N,Board_18-+3.3V*%
X166998776Y-84499388D03*
X168998776Y-83249388D03*
%TO.N,Board_18-GND*%
X162998776Y-93249388D03*
X166748776Y-88749388D03*
%TO.N,Board_18-Net-(J2-Pin_1)*%
X171748776Y-90749388D03*
X170498776Y-88249388D03*
%TO.N,Board_19-+3.3V*%
X184998776Y-84499388D03*
X186998776Y-83249388D03*
%TO.N,Board_19-GND*%
X184748776Y-88749388D03*
X180998776Y-93249388D03*
%TO.N,Board_19-Net-(J2-Pin_1)*%
X189748776Y-90749388D03*
X188498776Y-88249388D03*
%TO.N,Board_20-+3.3V*%
X112998776Y-102499388D03*
X114998776Y-101249388D03*
%TO.N,Board_20-GND*%
X108998776Y-111249388D03*
X112748776Y-106749388D03*
%TO.N,Board_20-Net-(J2-Pin_1)*%
X116498776Y-106249388D03*
X117748776Y-108749388D03*
%TO.N,Board_21-+3.3V*%
X132998776Y-101249388D03*
X130998776Y-102499388D03*
%TO.N,Board_21-GND*%
X126998776Y-111249388D03*
X130748776Y-106749388D03*
%TO.N,Board_21-Net-(J2-Pin_1)*%
X134498776Y-106249388D03*
X135748776Y-108749388D03*
%TO.N,Board_22-+3.3V*%
X150998776Y-101249388D03*
X148998776Y-102499388D03*
%TO.N,Board_22-GND*%
X144998776Y-111249388D03*
X148748776Y-106749388D03*
%TO.N,Board_22-Net-(J2-Pin_1)*%
X153748776Y-108749388D03*
X152498776Y-106249388D03*
%TO.N,Board_23-+3.3V*%
X166998776Y-102499388D03*
X168998776Y-101249388D03*
%TO.N,Board_23-GND*%
X166748776Y-106749388D03*
X162998776Y-111249388D03*
%TO.N,Board_23-Net-(J2-Pin_1)*%
X171748776Y-108749388D03*
X170498776Y-106249388D03*
%TO.N,Board_24-+3.3V*%
X186998776Y-101249388D03*
X184998776Y-102499388D03*
%TO.N,Board_24-GND*%
X184748776Y-106749388D03*
X180998776Y-111249388D03*
%TO.N,Board_24-Net-(J2-Pin_1)*%
X189748776Y-108749388D03*
X188498776Y-106249388D03*
%TD*%
D12*
%TO.N,Board_0-+3.3V*%
X114998776Y-29249388D02*
X114248776Y-29249388D01*
X114248776Y-29249388D02*
X112998776Y-30499388D01*
%TO.N,Board_0-GND*%
X112748776Y-35499388D02*
X112748776Y-34749388D01*
X108998776Y-39249388D02*
X112748776Y-35499388D01*
%TO.N,Board_0-Net-(J2-Pin_1)*%
X116498776Y-34249388D02*
X117748776Y-35499388D01*
X117748776Y-35499388D02*
X117748776Y-36749388D01*
%TO.N,Board_1-+3.3V*%
X132998776Y-29249388D02*
X132248776Y-29249388D01*
X132248776Y-29249388D02*
X130998776Y-30499388D01*
%TO.N,Board_1-GND*%
X130748776Y-35499388D02*
X130748776Y-34749388D01*
X126998776Y-39249388D02*
X130748776Y-35499388D01*
%TO.N,Board_1-Net-(J2-Pin_1)*%
X135748776Y-35499388D02*
X135748776Y-36749388D01*
X134498776Y-34249388D02*
X135748776Y-35499388D01*
%TO.N,Board_2-+3.3V*%
X150248776Y-29249388D02*
X148998776Y-30499388D01*
X150998776Y-29249388D02*
X150248776Y-29249388D01*
%TO.N,Board_2-GND*%
X148748776Y-35499388D02*
X148748776Y-34749388D01*
X144998776Y-39249388D02*
X148748776Y-35499388D01*
%TO.N,Board_2-Net-(J2-Pin_1)*%
X153748776Y-35499388D02*
X153748776Y-36749388D01*
X152498776Y-34249388D02*
X153748776Y-35499388D01*
%TO.N,Board_3-+3.3V*%
X168248776Y-29249388D02*
X166998776Y-30499388D01*
X168998776Y-29249388D02*
X168248776Y-29249388D01*
%TO.N,Board_3-GND*%
X166748776Y-35499388D02*
X166748776Y-34749388D01*
X162998776Y-39249388D02*
X166748776Y-35499388D01*
%TO.N,Board_3-Net-(J2-Pin_1)*%
X170498776Y-34249388D02*
X171748776Y-35499388D01*
X171748776Y-35499388D02*
X171748776Y-36749388D01*
%TO.N,Board_4-+3.3V*%
X186998776Y-29249388D02*
X186248776Y-29249388D01*
X186248776Y-29249388D02*
X184998776Y-30499388D01*
%TO.N,Board_4-GND*%
X180998776Y-39249388D02*
X184748776Y-35499388D01*
X184748776Y-35499388D02*
X184748776Y-34749388D01*
%TO.N,Board_4-Net-(J2-Pin_1)*%
X188498776Y-34249388D02*
X189748776Y-35499388D01*
X189748776Y-35499388D02*
X189748776Y-36749388D01*
%TO.N,Board_5-+3.3V*%
X114248776Y-47249388D02*
X112998776Y-48499388D01*
X114998776Y-47249388D02*
X114248776Y-47249388D01*
%TO.N,Board_5-GND*%
X112748776Y-53499388D02*
X112748776Y-52749388D01*
X108998776Y-57249388D02*
X112748776Y-53499388D01*
%TO.N,Board_5-Net-(J2-Pin_1)*%
X116498776Y-52249388D02*
X117748776Y-53499388D01*
X117748776Y-53499388D02*
X117748776Y-54749388D01*
%TO.N,Board_6-+3.3V*%
X132248776Y-47249388D02*
X130998776Y-48499388D01*
X132998776Y-47249388D02*
X132248776Y-47249388D01*
%TO.N,Board_6-GND*%
X126998776Y-57249388D02*
X130748776Y-53499388D01*
X130748776Y-53499388D02*
X130748776Y-52749388D01*
%TO.N,Board_6-Net-(J2-Pin_1)*%
X135748776Y-53499388D02*
X135748776Y-54749388D01*
X134498776Y-52249388D02*
X135748776Y-53499388D01*
%TO.N,Board_7-+3.3V*%
X150248776Y-47249388D02*
X148998776Y-48499388D01*
X150998776Y-47249388D02*
X150248776Y-47249388D01*
%TO.N,Board_7-GND*%
X144998776Y-57249388D02*
X148748776Y-53499388D01*
X148748776Y-53499388D02*
X148748776Y-52749388D01*
%TO.N,Board_7-Net-(J2-Pin_1)*%
X153748776Y-53499388D02*
X153748776Y-54749388D01*
X152498776Y-52249388D02*
X153748776Y-53499388D01*
%TO.N,Board_8-+3.3V*%
X168998776Y-47249388D02*
X168248776Y-47249388D01*
X168248776Y-47249388D02*
X166998776Y-48499388D01*
%TO.N,Board_8-GND*%
X162998776Y-57249388D02*
X166748776Y-53499388D01*
X166748776Y-53499388D02*
X166748776Y-52749388D01*
%TO.N,Board_8-Net-(J2-Pin_1)*%
X171748776Y-53499388D02*
X171748776Y-54749388D01*
X170498776Y-52249388D02*
X171748776Y-53499388D01*
%TO.N,Board_9-+3.3V*%
X186998776Y-47249388D02*
X186248776Y-47249388D01*
X186248776Y-47249388D02*
X184998776Y-48499388D01*
%TO.N,Board_9-GND*%
X180998776Y-57249388D02*
X184748776Y-53499388D01*
X184748776Y-53499388D02*
X184748776Y-52749388D01*
%TO.N,Board_9-Net-(J2-Pin_1)*%
X188498776Y-52249388D02*
X189748776Y-53499388D01*
X189748776Y-53499388D02*
X189748776Y-54749388D01*
%TO.N,Board_10-+3.3V*%
X114248776Y-65249388D02*
X112998776Y-66499388D01*
X114998776Y-65249388D02*
X114248776Y-65249388D01*
%TO.N,Board_10-GND*%
X108998776Y-75249388D02*
X112748776Y-71499388D01*
X112748776Y-71499388D02*
X112748776Y-70749388D01*
%TO.N,Board_10-Net-(J2-Pin_1)*%
X116498776Y-70249388D02*
X117748776Y-71499388D01*
X117748776Y-71499388D02*
X117748776Y-72749388D01*
%TO.N,Board_11-+3.3V*%
X132248776Y-65249388D02*
X130998776Y-66499388D01*
X132998776Y-65249388D02*
X132248776Y-65249388D01*
%TO.N,Board_11-GND*%
X130748776Y-71499388D02*
X130748776Y-70749388D01*
X126998776Y-75249388D02*
X130748776Y-71499388D01*
%TO.N,Board_11-Net-(J2-Pin_1)*%
X134498776Y-70249388D02*
X135748776Y-71499388D01*
X135748776Y-71499388D02*
X135748776Y-72749388D01*
%TO.N,Board_12-+3.3V*%
X150248776Y-65249388D02*
X148998776Y-66499388D01*
X150998776Y-65249388D02*
X150248776Y-65249388D01*
%TO.N,Board_12-GND*%
X148748776Y-71499388D02*
X148748776Y-70749388D01*
X144998776Y-75249388D02*
X148748776Y-71499388D01*
%TO.N,Board_12-Net-(J2-Pin_1)*%
X152498776Y-70249388D02*
X153748776Y-71499388D01*
X153748776Y-71499388D02*
X153748776Y-72749388D01*
%TO.N,Board_13-+3.3V*%
X168998776Y-65249388D02*
X168248776Y-65249388D01*
X168248776Y-65249388D02*
X166998776Y-66499388D01*
%TO.N,Board_13-GND*%
X166748776Y-71499388D02*
X166748776Y-70749388D01*
X162998776Y-75249388D02*
X166748776Y-71499388D01*
%TO.N,Board_13-Net-(J2-Pin_1)*%
X170498776Y-70249388D02*
X171748776Y-71499388D01*
X171748776Y-71499388D02*
X171748776Y-72749388D01*
%TO.N,Board_14-+3.3V*%
X186248776Y-65249388D02*
X184998776Y-66499388D01*
X186998776Y-65249388D02*
X186248776Y-65249388D01*
%TO.N,Board_14-GND*%
X184748776Y-71499388D02*
X184748776Y-70749388D01*
X180998776Y-75249388D02*
X184748776Y-71499388D01*
%TO.N,Board_14-Net-(J2-Pin_1)*%
X188498776Y-70249388D02*
X189748776Y-71499388D01*
X189748776Y-71499388D02*
X189748776Y-72749388D01*
%TO.N,Board_15-+3.3V*%
X114998776Y-83249388D02*
X114248776Y-83249388D01*
X114248776Y-83249388D02*
X112998776Y-84499388D01*
%TO.N,Board_15-GND*%
X112748776Y-89499388D02*
X112748776Y-88749388D01*
X108998776Y-93249388D02*
X112748776Y-89499388D01*
%TO.N,Board_15-Net-(J2-Pin_1)*%
X116498776Y-88249388D02*
X117748776Y-89499388D01*
X117748776Y-89499388D02*
X117748776Y-90749388D01*
%TO.N,Board_16-+3.3V*%
X132998776Y-83249388D02*
X132248776Y-83249388D01*
X132248776Y-83249388D02*
X130998776Y-84499388D01*
%TO.N,Board_16-GND*%
X126998776Y-93249388D02*
X130748776Y-89499388D01*
X130748776Y-89499388D02*
X130748776Y-88749388D01*
%TO.N,Board_16-Net-(J2-Pin_1)*%
X134498776Y-88249388D02*
X135748776Y-89499388D01*
X135748776Y-89499388D02*
X135748776Y-90749388D01*
%TO.N,Board_17-+3.3V*%
X150248776Y-83249388D02*
X148998776Y-84499388D01*
X150998776Y-83249388D02*
X150248776Y-83249388D01*
%TO.N,Board_17-GND*%
X148748776Y-89499388D02*
X148748776Y-88749388D01*
X144998776Y-93249388D02*
X148748776Y-89499388D01*
%TO.N,Board_17-Net-(J2-Pin_1)*%
X153748776Y-89499388D02*
X153748776Y-90749388D01*
X152498776Y-88249388D02*
X153748776Y-89499388D01*
%TO.N,Board_18-+3.3V*%
X168998776Y-83249388D02*
X168248776Y-83249388D01*
X168248776Y-83249388D02*
X166998776Y-84499388D01*
%TO.N,Board_18-GND*%
X166748776Y-89499388D02*
X166748776Y-88749388D01*
X162998776Y-93249388D02*
X166748776Y-89499388D01*
%TO.N,Board_18-Net-(J2-Pin_1)*%
X170498776Y-88249388D02*
X171748776Y-89499388D01*
X171748776Y-89499388D02*
X171748776Y-90749388D01*
%TO.N,Board_19-+3.3V*%
X186248776Y-83249388D02*
X184998776Y-84499388D01*
X186998776Y-83249388D02*
X186248776Y-83249388D01*
%TO.N,Board_19-GND*%
X184748776Y-89499388D02*
X184748776Y-88749388D01*
X180998776Y-93249388D02*
X184748776Y-89499388D01*
%TO.N,Board_19-Net-(J2-Pin_1)*%
X189748776Y-89499388D02*
X189748776Y-90749388D01*
X188498776Y-88249388D02*
X189748776Y-89499388D01*
%TO.N,Board_20-+3.3V*%
X114998776Y-101249388D02*
X114248776Y-101249388D01*
X114248776Y-101249388D02*
X112998776Y-102499388D01*
%TO.N,Board_20-GND*%
X108998776Y-111249388D02*
X112748776Y-107499388D01*
X112748776Y-107499388D02*
X112748776Y-106749388D01*
%TO.N,Board_20-Net-(J2-Pin_1)*%
X117748776Y-107499388D02*
X117748776Y-108749388D01*
X116498776Y-106249388D02*
X117748776Y-107499388D01*
%TO.N,Board_21-+3.3V*%
X132248776Y-101249388D02*
X130998776Y-102499388D01*
X132998776Y-101249388D02*
X132248776Y-101249388D01*
%TO.N,Board_21-GND*%
X126998776Y-111249388D02*
X130748776Y-107499388D01*
X130748776Y-107499388D02*
X130748776Y-106749388D01*
%TO.N,Board_21-Net-(J2-Pin_1)*%
X135748776Y-107499388D02*
X135748776Y-108749388D01*
X134498776Y-106249388D02*
X135748776Y-107499388D01*
%TO.N,Board_22-+3.3V*%
X150248776Y-101249388D02*
X148998776Y-102499388D01*
X150998776Y-101249388D02*
X150248776Y-101249388D01*
%TO.N,Board_22-GND*%
X144998776Y-111249388D02*
X148748776Y-107499388D01*
X148748776Y-107499388D02*
X148748776Y-106749388D01*
%TO.N,Board_22-Net-(J2-Pin_1)*%
X152498776Y-106249388D02*
X153748776Y-107499388D01*
X153748776Y-107499388D02*
X153748776Y-108749388D01*
%TO.N,Board_23-+3.3V*%
X168998776Y-101249388D02*
X168248776Y-101249388D01*
X168248776Y-101249388D02*
X166998776Y-102499388D01*
%TO.N,Board_23-GND*%
X166748776Y-107499388D02*
X166748776Y-106749388D01*
X162998776Y-111249388D02*
X166748776Y-107499388D01*
%TO.N,Board_23-Net-(J2-Pin_1)*%
X170498776Y-106249388D02*
X171748776Y-107499388D01*
X171748776Y-107499388D02*
X171748776Y-108749388D01*
%TO.N,Board_24-+3.3V*%
X186248776Y-101249388D02*
X184998776Y-102499388D01*
X186998776Y-101249388D02*
X186248776Y-101249388D01*
%TO.N,Board_24-GND*%
X184748776Y-107499388D02*
X184748776Y-106749388D01*
X180998776Y-111249388D02*
X184748776Y-107499388D01*
%TO.N,Board_24-Net-(J2-Pin_1)*%
X188498776Y-106249388D02*
X189748776Y-107499388D01*
X189748776Y-107499388D02*
X189748776Y-108749388D01*
%TD*%
M02*
