%TF.GenerationSoftware,KiCad,Pcbnew,7.0.5-1.fc38*%
%TF.CreationDate,2023-07-07T14:20:18-04:00*%
%TF.ProjectId,bno085-i2c-board-v3-large-panel,626e6f30-3835-42d6-9932-632d626f6172,rev?*%
%TF.SameCoordinates,Original*%
%TF.FileFunction,Paste,Top*%
%TF.FilePolarity,Positive*%
%FSLAX46Y46*%
G04 Gerber Fmt 4.6, Leading zero omitted, Abs format (unit mm)*
G04 Created by KiCad (PCBNEW 7.0.5-1.fc38) date 2023-07-07 14:20:18*
%MOMM*%
%LPD*%
G01*
G04 APERTURE LIST*
G04 Aperture macros list*
%AMRoundRect*
0 Rectangle with rounded corners*
0 $1 Rounding radius*
0 $2 $3 $4 $5 $6 $7 $8 $9 X,Y pos of 4 corners*
0 Add a 4 corners polygon primitive as box body*
4,1,4,$2,$3,$4,$5,$6,$7,$8,$9,$2,$3,0*
0 Add four circle primitives for the rounded corners*
1,1,$1+$1,$2,$3*
1,1,$1+$1,$4,$5*
1,1,$1+$1,$6,$7*
1,1,$1+$1,$8,$9*
0 Add four rect primitives between the rounded corners*
20,1,$1+$1,$2,$3,$4,$5,0*
20,1,$1+$1,$4,$5,$6,$7,0*
20,1,$1+$1,$6,$7,$8,$9,0*
20,1,$1+$1,$8,$9,$2,$3,0*%
G04 Aperture macros list end*
%ADD10RoundRect,0.135000X0.185000X-0.135000X0.185000X0.135000X-0.185000X0.135000X-0.185000X-0.135000X0*%
%ADD11RoundRect,0.135000X-0.185000X0.135000X-0.185000X-0.135000X0.185000X-0.135000X0.185000X0.135000X0*%
%ADD12R,0.254000X0.675000*%
%ADD13R,0.675000X0.254000*%
%ADD14RoundRect,0.140000X0.140000X0.170000X-0.140000X0.170000X-0.140000X-0.170000X0.140000X-0.170000X0*%
G04 APERTURE END LIST*
D10*
%TO.C,R1*%
X114748776Y-75009388D03*
X114748776Y-73989388D03*
%TD*%
D11*
%TO.C,R2*%
X188498776Y-72989388D03*
X188498776Y-74009388D03*
%TD*%
D10*
%TO.C,R4*%
X187248776Y-103259388D03*
X187248776Y-102239388D03*
%TD*%
D11*
%TO.C,R2*%
X152498776Y-108989388D03*
X152498776Y-110009388D03*
%TD*%
D10*
%TO.C,R3*%
X125998776Y-74009388D03*
X125998776Y-72989388D03*
%TD*%
D12*
%TO.C,U1*%
X128248776Y-51336888D03*
D13*
X128111276Y-52249388D03*
X128111276Y-52749388D03*
X128111276Y-53249388D03*
X128111276Y-53749388D03*
D12*
X128248776Y-54661888D03*
X128748776Y-54661888D03*
X129248776Y-54661888D03*
X129748776Y-54661888D03*
X130248776Y-54661888D03*
X130748776Y-54661888D03*
X131248776Y-54661888D03*
X131748776Y-54661888D03*
X132248776Y-54661888D03*
X132748776Y-54661888D03*
D13*
X132886276Y-53749388D03*
X132886276Y-53249388D03*
X132886276Y-52749388D03*
X132886276Y-52249388D03*
D12*
X132748776Y-51336888D03*
X132248776Y-51336888D03*
X131748776Y-51336888D03*
X131248776Y-51336888D03*
X130748776Y-51336888D03*
X130248776Y-51336888D03*
X129748776Y-51336888D03*
X129248776Y-51336888D03*
X128748776Y-51336888D03*
%TD*%
D10*
%TO.C,R3*%
X107998776Y-74009388D03*
X107998776Y-72989388D03*
%TD*%
D11*
%TO.C,R5*%
X116998776Y-31239388D03*
X116998776Y-32259388D03*
%TD*%
D12*
%TO.C,U1*%
X110248776Y-51336888D03*
D13*
X110111276Y-52249388D03*
X110111276Y-52749388D03*
X110111276Y-53249388D03*
X110111276Y-53749388D03*
D12*
X110248776Y-54661888D03*
X110748776Y-54661888D03*
X111248776Y-54661888D03*
X111748776Y-54661888D03*
X112248776Y-54661888D03*
X112748776Y-54661888D03*
X113248776Y-54661888D03*
X113748776Y-54661888D03*
X114248776Y-54661888D03*
X114748776Y-54661888D03*
D13*
X114886276Y-53749388D03*
X114886276Y-53249388D03*
X114886276Y-52749388D03*
X114886276Y-52249388D03*
D12*
X114748776Y-51336888D03*
X114248776Y-51336888D03*
X113748776Y-51336888D03*
X113248776Y-51336888D03*
X112748776Y-51336888D03*
X112248776Y-51336888D03*
X111748776Y-51336888D03*
X111248776Y-51336888D03*
X110748776Y-51336888D03*
%TD*%
D11*
%TO.C,R2*%
X134498776Y-90989388D03*
X134498776Y-92009388D03*
%TD*%
D14*
%TO.C,C1*%
X128866014Y-37745835D03*
X127906014Y-37745835D03*
%TD*%
D10*
%TO.C,R4*%
X169248776Y-85259388D03*
X169248776Y-84239388D03*
%TD*%
%TO.C,R1*%
X132748776Y-39009388D03*
X132748776Y-37989388D03*
%TD*%
%TO.C,R3*%
X161998776Y-56009388D03*
X161998776Y-54989388D03*
%TD*%
D11*
%TO.C,R5*%
X188998776Y-67239388D03*
X188998776Y-68259388D03*
%TD*%
D10*
%TO.C,R1*%
X114748776Y-93009388D03*
X114748776Y-91989388D03*
%TD*%
%TO.C,R3*%
X179998776Y-110009388D03*
X179998776Y-108989388D03*
%TD*%
D14*
%TO.C,C1*%
X182866014Y-73745835D03*
X181906014Y-73745835D03*
%TD*%
%TO.C,C1*%
X128866014Y-109745835D03*
X127906014Y-109745835D03*
%TD*%
D11*
%TO.C,R5*%
X170998776Y-85239388D03*
X170998776Y-86259388D03*
%TD*%
%TO.C,R2*%
X116498776Y-108989388D03*
X116498776Y-110009388D03*
%TD*%
D12*
%TO.C,U1*%
X164248776Y-105336888D03*
D13*
X164111276Y-106249388D03*
X164111276Y-106749388D03*
X164111276Y-107249388D03*
X164111276Y-107749388D03*
D12*
X164248776Y-108661888D03*
X164748776Y-108661888D03*
X165248776Y-108661888D03*
X165748776Y-108661888D03*
X166248776Y-108661888D03*
X166748776Y-108661888D03*
X167248776Y-108661888D03*
X167748776Y-108661888D03*
X168248776Y-108661888D03*
X168748776Y-108661888D03*
D13*
X168886276Y-107749388D03*
X168886276Y-107249388D03*
X168886276Y-106749388D03*
X168886276Y-106249388D03*
D12*
X168748776Y-105336888D03*
X168248776Y-105336888D03*
X167748776Y-105336888D03*
X167248776Y-105336888D03*
X166748776Y-105336888D03*
X166248776Y-105336888D03*
X165748776Y-105336888D03*
X165248776Y-105336888D03*
X164748776Y-105336888D03*
%TD*%
D11*
%TO.C,R2*%
X134498776Y-72989388D03*
X134498776Y-74009388D03*
%TD*%
D10*
%TO.C,R4*%
X169248776Y-31259388D03*
X169248776Y-30239388D03*
%TD*%
%TO.C,R4*%
X187248776Y-67259388D03*
X187248776Y-66239388D03*
%TD*%
%TO.C,R3*%
X161998776Y-38009388D03*
X161998776Y-36989388D03*
%TD*%
D12*
%TO.C,U1*%
X164248776Y-33336888D03*
D13*
X164111276Y-34249388D03*
X164111276Y-34749388D03*
X164111276Y-35249388D03*
X164111276Y-35749388D03*
D12*
X164248776Y-36661888D03*
X164748776Y-36661888D03*
X165248776Y-36661888D03*
X165748776Y-36661888D03*
X166248776Y-36661888D03*
X166748776Y-36661888D03*
X167248776Y-36661888D03*
X167748776Y-36661888D03*
X168248776Y-36661888D03*
X168748776Y-36661888D03*
D13*
X168886276Y-35749388D03*
X168886276Y-35249388D03*
X168886276Y-34749388D03*
X168886276Y-34249388D03*
D12*
X168748776Y-33336888D03*
X168248776Y-33336888D03*
X167748776Y-33336888D03*
X167248776Y-33336888D03*
X166748776Y-33336888D03*
X166248776Y-33336888D03*
X165748776Y-33336888D03*
X165248776Y-33336888D03*
X164748776Y-33336888D03*
%TD*%
D10*
%TO.C,R1*%
X168748776Y-39009388D03*
X168748776Y-37989388D03*
%TD*%
D11*
%TO.C,R2*%
X170498776Y-90989388D03*
X170498776Y-92009388D03*
%TD*%
D10*
%TO.C,R4*%
X115248776Y-67259388D03*
X115248776Y-66239388D03*
%TD*%
%TO.C,R1*%
X186748776Y-111009388D03*
X186748776Y-109989388D03*
%TD*%
D14*
%TO.C,C1*%
X128866014Y-73745835D03*
X127906014Y-73745835D03*
%TD*%
D11*
%TO.C,R5*%
X134998776Y-49239388D03*
X134998776Y-50259388D03*
%TD*%
%TO.C,R2*%
X188498776Y-108989388D03*
X188498776Y-110009388D03*
%TD*%
D14*
%TO.C,C1*%
X164866014Y-91745835D03*
X163906014Y-91745835D03*
%TD*%
D10*
%TO.C,R1*%
X186748776Y-57009388D03*
X186748776Y-55989388D03*
%TD*%
D11*
%TO.C,R5*%
X116998776Y-67239388D03*
X116998776Y-68259388D03*
%TD*%
D10*
%TO.C,R1*%
X168748776Y-57009388D03*
X168748776Y-55989388D03*
%TD*%
D12*
%TO.C,U1*%
X164248776Y-69336888D03*
D13*
X164111276Y-70249388D03*
X164111276Y-70749388D03*
X164111276Y-71249388D03*
X164111276Y-71749388D03*
D12*
X164248776Y-72661888D03*
X164748776Y-72661888D03*
X165248776Y-72661888D03*
X165748776Y-72661888D03*
X166248776Y-72661888D03*
X166748776Y-72661888D03*
X167248776Y-72661888D03*
X167748776Y-72661888D03*
X168248776Y-72661888D03*
X168748776Y-72661888D03*
D13*
X168886276Y-71749388D03*
X168886276Y-71249388D03*
X168886276Y-70749388D03*
X168886276Y-70249388D03*
D12*
X168748776Y-69336888D03*
X168248776Y-69336888D03*
X167748776Y-69336888D03*
X167248776Y-69336888D03*
X166748776Y-69336888D03*
X166248776Y-69336888D03*
X165748776Y-69336888D03*
X165248776Y-69336888D03*
X164748776Y-69336888D03*
%TD*%
D11*
%TO.C,R5*%
X116998776Y-103239388D03*
X116998776Y-104259388D03*
%TD*%
D10*
%TO.C,R1*%
X114748776Y-111009388D03*
X114748776Y-109989388D03*
%TD*%
%TO.C,R1*%
X168748776Y-111009388D03*
X168748776Y-109989388D03*
%TD*%
D11*
%TO.C,R2*%
X188498776Y-36989388D03*
X188498776Y-38009388D03*
%TD*%
D10*
%TO.C,R3*%
X143998776Y-74009388D03*
X143998776Y-72989388D03*
%TD*%
D11*
%TO.C,R2*%
X116498776Y-72989388D03*
X116498776Y-74009388D03*
%TD*%
D10*
%TO.C,R1*%
X186748776Y-75009388D03*
X186748776Y-73989388D03*
%TD*%
D12*
%TO.C,U1*%
X146248776Y-51336888D03*
D13*
X146111276Y-52249388D03*
X146111276Y-52749388D03*
X146111276Y-53249388D03*
X146111276Y-53749388D03*
D12*
X146248776Y-54661888D03*
X146748776Y-54661888D03*
X147248776Y-54661888D03*
X147748776Y-54661888D03*
X148248776Y-54661888D03*
X148748776Y-54661888D03*
X149248776Y-54661888D03*
X149748776Y-54661888D03*
X150248776Y-54661888D03*
X150748776Y-54661888D03*
D13*
X150886276Y-53749388D03*
X150886276Y-53249388D03*
X150886276Y-52749388D03*
X150886276Y-52249388D03*
D12*
X150748776Y-51336888D03*
X150248776Y-51336888D03*
X149748776Y-51336888D03*
X149248776Y-51336888D03*
X148748776Y-51336888D03*
X148248776Y-51336888D03*
X147748776Y-51336888D03*
X147248776Y-51336888D03*
X146748776Y-51336888D03*
%TD*%
D10*
%TO.C,R4*%
X133248776Y-85259388D03*
X133248776Y-84239388D03*
%TD*%
%TO.C,R1*%
X186748776Y-93009388D03*
X186748776Y-91989388D03*
%TD*%
%TO.C,R4*%
X133248776Y-31259388D03*
X133248776Y-30239388D03*
%TD*%
%TO.C,R4*%
X151248776Y-31259388D03*
X151248776Y-30239388D03*
%TD*%
D12*
%TO.C,U1*%
X146248776Y-105336888D03*
D13*
X146111276Y-106249388D03*
X146111276Y-106749388D03*
X146111276Y-107249388D03*
X146111276Y-107749388D03*
D12*
X146248776Y-108661888D03*
X146748776Y-108661888D03*
X147248776Y-108661888D03*
X147748776Y-108661888D03*
X148248776Y-108661888D03*
X148748776Y-108661888D03*
X149248776Y-108661888D03*
X149748776Y-108661888D03*
X150248776Y-108661888D03*
X150748776Y-108661888D03*
D13*
X150886276Y-107749388D03*
X150886276Y-107249388D03*
X150886276Y-106749388D03*
X150886276Y-106249388D03*
D12*
X150748776Y-105336888D03*
X150248776Y-105336888D03*
X149748776Y-105336888D03*
X149248776Y-105336888D03*
X148748776Y-105336888D03*
X148248776Y-105336888D03*
X147748776Y-105336888D03*
X147248776Y-105336888D03*
X146748776Y-105336888D03*
%TD*%
D14*
%TO.C,C1*%
X146866014Y-73745835D03*
X145906014Y-73745835D03*
%TD*%
D10*
%TO.C,R4*%
X151248776Y-67259388D03*
X151248776Y-66239388D03*
%TD*%
%TO.C,R3*%
X107998776Y-110009388D03*
X107998776Y-108989388D03*
%TD*%
%TO.C,R3*%
X179998776Y-74009388D03*
X179998776Y-72989388D03*
%TD*%
%TO.C,R4*%
X115248776Y-85259388D03*
X115248776Y-84239388D03*
%TD*%
%TO.C,R1*%
X132748776Y-93009388D03*
X132748776Y-91989388D03*
%TD*%
%TO.C,R1*%
X168748776Y-75009388D03*
X168748776Y-73989388D03*
%TD*%
%TO.C,R4*%
X151248776Y-49259388D03*
X151248776Y-48239388D03*
%TD*%
D12*
%TO.C,U1*%
X110248776Y-33336888D03*
D13*
X110111276Y-34249388D03*
X110111276Y-34749388D03*
X110111276Y-35249388D03*
X110111276Y-35749388D03*
D12*
X110248776Y-36661888D03*
X110748776Y-36661888D03*
X111248776Y-36661888D03*
X111748776Y-36661888D03*
X112248776Y-36661888D03*
X112748776Y-36661888D03*
X113248776Y-36661888D03*
X113748776Y-36661888D03*
X114248776Y-36661888D03*
X114748776Y-36661888D03*
D13*
X114886276Y-35749388D03*
X114886276Y-35249388D03*
X114886276Y-34749388D03*
X114886276Y-34249388D03*
D12*
X114748776Y-33336888D03*
X114248776Y-33336888D03*
X113748776Y-33336888D03*
X113248776Y-33336888D03*
X112748776Y-33336888D03*
X112248776Y-33336888D03*
X111748776Y-33336888D03*
X111248776Y-33336888D03*
X110748776Y-33336888D03*
%TD*%
D11*
%TO.C,R2*%
X170498776Y-72989388D03*
X170498776Y-74009388D03*
%TD*%
D10*
%TO.C,R1*%
X186748776Y-39009388D03*
X186748776Y-37989388D03*
%TD*%
D11*
%TO.C,R2*%
X152498776Y-72989388D03*
X152498776Y-74009388D03*
%TD*%
%TO.C,R5*%
X170998776Y-67239388D03*
X170998776Y-68259388D03*
%TD*%
D12*
%TO.C,U1*%
X182248776Y-51336888D03*
D13*
X182111276Y-52249388D03*
X182111276Y-52749388D03*
X182111276Y-53249388D03*
X182111276Y-53749388D03*
D12*
X182248776Y-54661888D03*
X182748776Y-54661888D03*
X183248776Y-54661888D03*
X183748776Y-54661888D03*
X184248776Y-54661888D03*
X184748776Y-54661888D03*
X185248776Y-54661888D03*
X185748776Y-54661888D03*
X186248776Y-54661888D03*
X186748776Y-54661888D03*
D13*
X186886276Y-53749388D03*
X186886276Y-53249388D03*
X186886276Y-52749388D03*
X186886276Y-52249388D03*
D12*
X186748776Y-51336888D03*
X186248776Y-51336888D03*
X185748776Y-51336888D03*
X185248776Y-51336888D03*
X184748776Y-51336888D03*
X184248776Y-51336888D03*
X183748776Y-51336888D03*
X183248776Y-51336888D03*
X182748776Y-51336888D03*
%TD*%
D14*
%TO.C,C1*%
X164866014Y-73745835D03*
X163906014Y-73745835D03*
%TD*%
D10*
%TO.C,R1*%
X150748776Y-75009388D03*
X150748776Y-73989388D03*
%TD*%
%TO.C,R1*%
X132748776Y-75009388D03*
X132748776Y-73989388D03*
%TD*%
%TO.C,R1*%
X114748776Y-57009388D03*
X114748776Y-55989388D03*
%TD*%
D12*
%TO.C,U1*%
X146248776Y-69336888D03*
D13*
X146111276Y-70249388D03*
X146111276Y-70749388D03*
X146111276Y-71249388D03*
X146111276Y-71749388D03*
D12*
X146248776Y-72661888D03*
X146748776Y-72661888D03*
X147248776Y-72661888D03*
X147748776Y-72661888D03*
X148248776Y-72661888D03*
X148748776Y-72661888D03*
X149248776Y-72661888D03*
X149748776Y-72661888D03*
X150248776Y-72661888D03*
X150748776Y-72661888D03*
D13*
X150886276Y-71749388D03*
X150886276Y-71249388D03*
X150886276Y-70749388D03*
X150886276Y-70249388D03*
D12*
X150748776Y-69336888D03*
X150248776Y-69336888D03*
X149748776Y-69336888D03*
X149248776Y-69336888D03*
X148748776Y-69336888D03*
X148248776Y-69336888D03*
X147748776Y-69336888D03*
X147248776Y-69336888D03*
X146748776Y-69336888D03*
%TD*%
D11*
%TO.C,R2*%
X170498776Y-54989388D03*
X170498776Y-56009388D03*
%TD*%
D12*
%TO.C,U1*%
X128248776Y-105336888D03*
D13*
X128111276Y-106249388D03*
X128111276Y-106749388D03*
X128111276Y-107249388D03*
X128111276Y-107749388D03*
D12*
X128248776Y-108661888D03*
X128748776Y-108661888D03*
X129248776Y-108661888D03*
X129748776Y-108661888D03*
X130248776Y-108661888D03*
X130748776Y-108661888D03*
X131248776Y-108661888D03*
X131748776Y-108661888D03*
X132248776Y-108661888D03*
X132748776Y-108661888D03*
D13*
X132886276Y-107749388D03*
X132886276Y-107249388D03*
X132886276Y-106749388D03*
X132886276Y-106249388D03*
D12*
X132748776Y-105336888D03*
X132248776Y-105336888D03*
X131748776Y-105336888D03*
X131248776Y-105336888D03*
X130748776Y-105336888D03*
X130248776Y-105336888D03*
X129748776Y-105336888D03*
X129248776Y-105336888D03*
X128748776Y-105336888D03*
%TD*%
D10*
%TO.C,R3*%
X179998776Y-92009388D03*
X179998776Y-90989388D03*
%TD*%
D11*
%TO.C,R2*%
X170498776Y-36989388D03*
X170498776Y-38009388D03*
%TD*%
D10*
%TO.C,R1*%
X150748776Y-57009388D03*
X150748776Y-55989388D03*
%TD*%
D14*
%TO.C,C1*%
X164866014Y-109745835D03*
X163906014Y-109745835D03*
%TD*%
D10*
%TO.C,R4*%
X169248776Y-49259388D03*
X169248776Y-48239388D03*
%TD*%
%TO.C,R4*%
X187248776Y-31259388D03*
X187248776Y-30239388D03*
%TD*%
%TO.C,R3*%
X125998776Y-92009388D03*
X125998776Y-90989388D03*
%TD*%
D12*
%TO.C,U1*%
X182248776Y-33336888D03*
D13*
X182111276Y-34249388D03*
X182111276Y-34749388D03*
X182111276Y-35249388D03*
X182111276Y-35749388D03*
D12*
X182248776Y-36661888D03*
X182748776Y-36661888D03*
X183248776Y-36661888D03*
X183748776Y-36661888D03*
X184248776Y-36661888D03*
X184748776Y-36661888D03*
X185248776Y-36661888D03*
X185748776Y-36661888D03*
X186248776Y-36661888D03*
X186748776Y-36661888D03*
D13*
X186886276Y-35749388D03*
X186886276Y-35249388D03*
X186886276Y-34749388D03*
X186886276Y-34249388D03*
D12*
X186748776Y-33336888D03*
X186248776Y-33336888D03*
X185748776Y-33336888D03*
X185248776Y-33336888D03*
X184748776Y-33336888D03*
X184248776Y-33336888D03*
X183748776Y-33336888D03*
X183248776Y-33336888D03*
X182748776Y-33336888D03*
%TD*%
D11*
%TO.C,R5*%
X152998776Y-31239388D03*
X152998776Y-32259388D03*
%TD*%
D10*
%TO.C,R3*%
X161998776Y-92009388D03*
X161998776Y-90989388D03*
%TD*%
D11*
%TO.C,R5*%
X170998776Y-103239388D03*
X170998776Y-104259388D03*
%TD*%
D10*
%TO.C,R4*%
X169248776Y-103259388D03*
X169248776Y-102239388D03*
%TD*%
D11*
%TO.C,R2*%
X152498776Y-54989388D03*
X152498776Y-56009388D03*
%TD*%
D10*
%TO.C,R3*%
X107998776Y-38009388D03*
X107998776Y-36989388D03*
%TD*%
D14*
%TO.C,C1*%
X146866014Y-109745835D03*
X145906014Y-109745835D03*
%TD*%
D12*
%TO.C,U1*%
X110248776Y-105336888D03*
D13*
X110111276Y-106249388D03*
X110111276Y-106749388D03*
X110111276Y-107249388D03*
X110111276Y-107749388D03*
D12*
X110248776Y-108661888D03*
X110748776Y-108661888D03*
X111248776Y-108661888D03*
X111748776Y-108661888D03*
X112248776Y-108661888D03*
X112748776Y-108661888D03*
X113248776Y-108661888D03*
X113748776Y-108661888D03*
X114248776Y-108661888D03*
X114748776Y-108661888D03*
D13*
X114886276Y-107749388D03*
X114886276Y-107249388D03*
X114886276Y-106749388D03*
X114886276Y-106249388D03*
D12*
X114748776Y-105336888D03*
X114248776Y-105336888D03*
X113748776Y-105336888D03*
X113248776Y-105336888D03*
X112748776Y-105336888D03*
X112248776Y-105336888D03*
X111748776Y-105336888D03*
X111248776Y-105336888D03*
X110748776Y-105336888D03*
%TD*%
D11*
%TO.C,R5*%
X170998776Y-49239388D03*
X170998776Y-50259388D03*
%TD*%
%TO.C,R5*%
X152998776Y-49239388D03*
X152998776Y-50259388D03*
%TD*%
D10*
%TO.C,R3*%
X161998776Y-74009388D03*
X161998776Y-72989388D03*
%TD*%
D14*
%TO.C,C1*%
X182866014Y-37745835D03*
X181906014Y-37745835D03*
%TD*%
D12*
%TO.C,U1*%
X128248776Y-33336888D03*
D13*
X128111276Y-34249388D03*
X128111276Y-34749388D03*
X128111276Y-35249388D03*
X128111276Y-35749388D03*
D12*
X128248776Y-36661888D03*
X128748776Y-36661888D03*
X129248776Y-36661888D03*
X129748776Y-36661888D03*
X130248776Y-36661888D03*
X130748776Y-36661888D03*
X131248776Y-36661888D03*
X131748776Y-36661888D03*
X132248776Y-36661888D03*
X132748776Y-36661888D03*
D13*
X132886276Y-35749388D03*
X132886276Y-35249388D03*
X132886276Y-34749388D03*
X132886276Y-34249388D03*
D12*
X132748776Y-33336888D03*
X132248776Y-33336888D03*
X131748776Y-33336888D03*
X131248776Y-33336888D03*
X130748776Y-33336888D03*
X130248776Y-33336888D03*
X129748776Y-33336888D03*
X129248776Y-33336888D03*
X128748776Y-33336888D03*
%TD*%
D10*
%TO.C,R3*%
X161998776Y-110009388D03*
X161998776Y-108989388D03*
%TD*%
D11*
%TO.C,R2*%
X116498776Y-36989388D03*
X116498776Y-38009388D03*
%TD*%
D12*
%TO.C,U1*%
X164248776Y-87336888D03*
D13*
X164111276Y-88249388D03*
X164111276Y-88749388D03*
X164111276Y-89249388D03*
X164111276Y-89749388D03*
D12*
X164248776Y-90661888D03*
X164748776Y-90661888D03*
X165248776Y-90661888D03*
X165748776Y-90661888D03*
X166248776Y-90661888D03*
X166748776Y-90661888D03*
X167248776Y-90661888D03*
X167748776Y-90661888D03*
X168248776Y-90661888D03*
X168748776Y-90661888D03*
D13*
X168886276Y-89749388D03*
X168886276Y-89249388D03*
X168886276Y-88749388D03*
X168886276Y-88249388D03*
D12*
X168748776Y-87336888D03*
X168248776Y-87336888D03*
X167748776Y-87336888D03*
X167248776Y-87336888D03*
X166748776Y-87336888D03*
X166248776Y-87336888D03*
X165748776Y-87336888D03*
X165248776Y-87336888D03*
X164748776Y-87336888D03*
%TD*%
D14*
%TO.C,C1*%
X182866014Y-109745835D03*
X181906014Y-109745835D03*
%TD*%
D10*
%TO.C,R4*%
X115248776Y-49259388D03*
X115248776Y-48239388D03*
%TD*%
%TO.C,R3*%
X107998776Y-56009388D03*
X107998776Y-54989388D03*
%TD*%
D12*
%TO.C,U1*%
X146248776Y-87336888D03*
D13*
X146111276Y-88249388D03*
X146111276Y-88749388D03*
X146111276Y-89249388D03*
X146111276Y-89749388D03*
D12*
X146248776Y-90661888D03*
X146748776Y-90661888D03*
X147248776Y-90661888D03*
X147748776Y-90661888D03*
X148248776Y-90661888D03*
X148748776Y-90661888D03*
X149248776Y-90661888D03*
X149748776Y-90661888D03*
X150248776Y-90661888D03*
X150748776Y-90661888D03*
D13*
X150886276Y-89749388D03*
X150886276Y-89249388D03*
X150886276Y-88749388D03*
X150886276Y-88249388D03*
D12*
X150748776Y-87336888D03*
X150248776Y-87336888D03*
X149748776Y-87336888D03*
X149248776Y-87336888D03*
X148748776Y-87336888D03*
X148248776Y-87336888D03*
X147748776Y-87336888D03*
X147248776Y-87336888D03*
X146748776Y-87336888D03*
%TD*%
D10*
%TO.C,R3*%
X143998776Y-38009388D03*
X143998776Y-36989388D03*
%TD*%
D14*
%TO.C,C1*%
X164866014Y-37745835D03*
X163906014Y-37745835D03*
%TD*%
D12*
%TO.C,U1*%
X110248776Y-69336888D03*
D13*
X110111276Y-70249388D03*
X110111276Y-70749388D03*
X110111276Y-71249388D03*
X110111276Y-71749388D03*
D12*
X110248776Y-72661888D03*
X110748776Y-72661888D03*
X111248776Y-72661888D03*
X111748776Y-72661888D03*
X112248776Y-72661888D03*
X112748776Y-72661888D03*
X113248776Y-72661888D03*
X113748776Y-72661888D03*
X114248776Y-72661888D03*
X114748776Y-72661888D03*
D13*
X114886276Y-71749388D03*
X114886276Y-71249388D03*
X114886276Y-70749388D03*
X114886276Y-70249388D03*
D12*
X114748776Y-69336888D03*
X114248776Y-69336888D03*
X113748776Y-69336888D03*
X113248776Y-69336888D03*
X112748776Y-69336888D03*
X112248776Y-69336888D03*
X111748776Y-69336888D03*
X111248776Y-69336888D03*
X110748776Y-69336888D03*
%TD*%
D10*
%TO.C,R4*%
X151248776Y-103259388D03*
X151248776Y-102239388D03*
%TD*%
D11*
%TO.C,R5*%
X134998776Y-67239388D03*
X134998776Y-68259388D03*
%TD*%
D10*
%TO.C,R4*%
X133248776Y-49259388D03*
X133248776Y-48239388D03*
%TD*%
D12*
%TO.C,U1*%
X128248776Y-69336888D03*
D13*
X128111276Y-70249388D03*
X128111276Y-70749388D03*
X128111276Y-71249388D03*
X128111276Y-71749388D03*
D12*
X128248776Y-72661888D03*
X128748776Y-72661888D03*
X129248776Y-72661888D03*
X129748776Y-72661888D03*
X130248776Y-72661888D03*
X130748776Y-72661888D03*
X131248776Y-72661888D03*
X131748776Y-72661888D03*
X132248776Y-72661888D03*
X132748776Y-72661888D03*
D13*
X132886276Y-71749388D03*
X132886276Y-71249388D03*
X132886276Y-70749388D03*
X132886276Y-70249388D03*
D12*
X132748776Y-69336888D03*
X132248776Y-69336888D03*
X131748776Y-69336888D03*
X131248776Y-69336888D03*
X130748776Y-69336888D03*
X130248776Y-69336888D03*
X129748776Y-69336888D03*
X129248776Y-69336888D03*
X128748776Y-69336888D03*
%TD*%
D11*
%TO.C,R5*%
X152998776Y-67239388D03*
X152998776Y-68259388D03*
%TD*%
%TO.C,R5*%
X188998776Y-31239388D03*
X188998776Y-32259388D03*
%TD*%
D14*
%TO.C,C1*%
X128866014Y-55745835D03*
X127906014Y-55745835D03*
%TD*%
D10*
%TO.C,R4*%
X169248776Y-67259388D03*
X169248776Y-66239388D03*
%TD*%
%TO.C,R1*%
X150748776Y-39009388D03*
X150748776Y-37989388D03*
%TD*%
%TO.C,R4*%
X115248776Y-103259388D03*
X115248776Y-102239388D03*
%TD*%
D12*
%TO.C,U1*%
X128248776Y-87336888D03*
D13*
X128111276Y-88249388D03*
X128111276Y-88749388D03*
X128111276Y-89249388D03*
X128111276Y-89749388D03*
D12*
X128248776Y-90661888D03*
X128748776Y-90661888D03*
X129248776Y-90661888D03*
X129748776Y-90661888D03*
X130248776Y-90661888D03*
X130748776Y-90661888D03*
X131248776Y-90661888D03*
X131748776Y-90661888D03*
X132248776Y-90661888D03*
X132748776Y-90661888D03*
D13*
X132886276Y-89749388D03*
X132886276Y-89249388D03*
X132886276Y-88749388D03*
X132886276Y-88249388D03*
D12*
X132748776Y-87336888D03*
X132248776Y-87336888D03*
X131748776Y-87336888D03*
X131248776Y-87336888D03*
X130748776Y-87336888D03*
X130248776Y-87336888D03*
X129748776Y-87336888D03*
X129248776Y-87336888D03*
X128748776Y-87336888D03*
%TD*%
D11*
%TO.C,R5*%
X152998776Y-103239388D03*
X152998776Y-104259388D03*
%TD*%
D14*
%TO.C,C1*%
X182866014Y-55745835D03*
X181906014Y-55745835D03*
%TD*%
D10*
%TO.C,R3*%
X179998776Y-38009388D03*
X179998776Y-36989388D03*
%TD*%
D11*
%TO.C,R5*%
X116998776Y-49239388D03*
X116998776Y-50259388D03*
%TD*%
D10*
%TO.C,R4*%
X187248776Y-49259388D03*
X187248776Y-48239388D03*
%TD*%
%TO.C,R3*%
X125998776Y-56009388D03*
X125998776Y-54989388D03*
%TD*%
%TO.C,R3*%
X125998776Y-110009388D03*
X125998776Y-108989388D03*
%TD*%
D11*
%TO.C,R2*%
X134498776Y-54989388D03*
X134498776Y-56009388D03*
%TD*%
%TO.C,R2*%
X134498776Y-108989388D03*
X134498776Y-110009388D03*
%TD*%
D14*
%TO.C,C1*%
X110866014Y-73745835D03*
X109906014Y-73745835D03*
%TD*%
D12*
%TO.C,U1*%
X164248776Y-51336888D03*
D13*
X164111276Y-52249388D03*
X164111276Y-52749388D03*
X164111276Y-53249388D03*
X164111276Y-53749388D03*
D12*
X164248776Y-54661888D03*
X164748776Y-54661888D03*
X165248776Y-54661888D03*
X165748776Y-54661888D03*
X166248776Y-54661888D03*
X166748776Y-54661888D03*
X167248776Y-54661888D03*
X167748776Y-54661888D03*
X168248776Y-54661888D03*
X168748776Y-54661888D03*
D13*
X168886276Y-53749388D03*
X168886276Y-53249388D03*
X168886276Y-52749388D03*
X168886276Y-52249388D03*
D12*
X168748776Y-51336888D03*
X168248776Y-51336888D03*
X167748776Y-51336888D03*
X167248776Y-51336888D03*
X166748776Y-51336888D03*
X166248776Y-51336888D03*
X165748776Y-51336888D03*
X165248776Y-51336888D03*
X164748776Y-51336888D03*
%TD*%
D10*
%TO.C,R4*%
X151248776Y-85259388D03*
X151248776Y-84239388D03*
%TD*%
%TO.C,R3*%
X107998776Y-92009388D03*
X107998776Y-90989388D03*
%TD*%
D11*
%TO.C,R5*%
X188998776Y-103239388D03*
X188998776Y-104259388D03*
%TD*%
D10*
%TO.C,R1*%
X132748776Y-57009388D03*
X132748776Y-55989388D03*
%TD*%
D14*
%TO.C,C1*%
X110866014Y-109745835D03*
X109906014Y-109745835D03*
%TD*%
D10*
%TO.C,R1*%
X132748776Y-111009388D03*
X132748776Y-109989388D03*
%TD*%
%TO.C,R1*%
X168748776Y-93009388D03*
X168748776Y-91989388D03*
%TD*%
D11*
%TO.C,R5*%
X134998776Y-103239388D03*
X134998776Y-104259388D03*
%TD*%
%TO.C,R2*%
X188498776Y-90989388D03*
X188498776Y-92009388D03*
%TD*%
%TO.C,R5*%
X152998776Y-85239388D03*
X152998776Y-86259388D03*
%TD*%
D10*
%TO.C,R3*%
X143998776Y-92009388D03*
X143998776Y-90989388D03*
%TD*%
D11*
%TO.C,R2*%
X134498776Y-36989388D03*
X134498776Y-38009388D03*
%TD*%
D14*
%TO.C,C1*%
X164866014Y-55745835D03*
X163906014Y-55745835D03*
%TD*%
D12*
%TO.C,U1*%
X110248776Y-87336888D03*
D13*
X110111276Y-88249388D03*
X110111276Y-88749388D03*
X110111276Y-89249388D03*
X110111276Y-89749388D03*
D12*
X110248776Y-90661888D03*
X110748776Y-90661888D03*
X111248776Y-90661888D03*
X111748776Y-90661888D03*
X112248776Y-90661888D03*
X112748776Y-90661888D03*
X113248776Y-90661888D03*
X113748776Y-90661888D03*
X114248776Y-90661888D03*
X114748776Y-90661888D03*
D13*
X114886276Y-89749388D03*
X114886276Y-89249388D03*
X114886276Y-88749388D03*
X114886276Y-88249388D03*
D12*
X114748776Y-87336888D03*
X114248776Y-87336888D03*
X113748776Y-87336888D03*
X113248776Y-87336888D03*
X112748776Y-87336888D03*
X112248776Y-87336888D03*
X111748776Y-87336888D03*
X111248776Y-87336888D03*
X110748776Y-87336888D03*
%TD*%
D10*
%TO.C,R1*%
X150748776Y-93009388D03*
X150748776Y-91989388D03*
%TD*%
D11*
%TO.C,R5*%
X134998776Y-85239388D03*
X134998776Y-86259388D03*
%TD*%
D10*
%TO.C,R1*%
X114748776Y-39009388D03*
X114748776Y-37989388D03*
%TD*%
D11*
%TO.C,R5*%
X170998776Y-31239388D03*
X170998776Y-32259388D03*
%TD*%
D10*
%TO.C,R3*%
X143998776Y-110009388D03*
X143998776Y-108989388D03*
%TD*%
%TO.C,R4*%
X133248776Y-103259388D03*
X133248776Y-102239388D03*
%TD*%
D11*
%TO.C,R2*%
X152498776Y-90989388D03*
X152498776Y-92009388D03*
%TD*%
D12*
%TO.C,U1*%
X182248776Y-105336888D03*
D13*
X182111276Y-106249388D03*
X182111276Y-106749388D03*
X182111276Y-107249388D03*
X182111276Y-107749388D03*
D12*
X182248776Y-108661888D03*
X182748776Y-108661888D03*
X183248776Y-108661888D03*
X183748776Y-108661888D03*
X184248776Y-108661888D03*
X184748776Y-108661888D03*
X185248776Y-108661888D03*
X185748776Y-108661888D03*
X186248776Y-108661888D03*
X186748776Y-108661888D03*
D13*
X186886276Y-107749388D03*
X186886276Y-107249388D03*
X186886276Y-106749388D03*
X186886276Y-106249388D03*
D12*
X186748776Y-105336888D03*
X186248776Y-105336888D03*
X185748776Y-105336888D03*
X185248776Y-105336888D03*
X184748776Y-105336888D03*
X184248776Y-105336888D03*
X183748776Y-105336888D03*
X183248776Y-105336888D03*
X182748776Y-105336888D03*
%TD*%
D14*
%TO.C,C1*%
X146866014Y-37745835D03*
X145906014Y-37745835D03*
%TD*%
D12*
%TO.C,U1*%
X146248776Y-33336888D03*
D13*
X146111276Y-34249388D03*
X146111276Y-34749388D03*
X146111276Y-35249388D03*
X146111276Y-35749388D03*
D12*
X146248776Y-36661888D03*
X146748776Y-36661888D03*
X147248776Y-36661888D03*
X147748776Y-36661888D03*
X148248776Y-36661888D03*
X148748776Y-36661888D03*
X149248776Y-36661888D03*
X149748776Y-36661888D03*
X150248776Y-36661888D03*
X150748776Y-36661888D03*
D13*
X150886276Y-35749388D03*
X150886276Y-35249388D03*
X150886276Y-34749388D03*
X150886276Y-34249388D03*
D12*
X150748776Y-33336888D03*
X150248776Y-33336888D03*
X149748776Y-33336888D03*
X149248776Y-33336888D03*
X148748776Y-33336888D03*
X148248776Y-33336888D03*
X147748776Y-33336888D03*
X147248776Y-33336888D03*
X146748776Y-33336888D03*
%TD*%
D14*
%TO.C,C1*%
X110866014Y-55745835D03*
X109906014Y-55745835D03*
%TD*%
D11*
%TO.C,R5*%
X134998776Y-31239388D03*
X134998776Y-32259388D03*
%TD*%
D12*
%TO.C,U1*%
X182248776Y-69336888D03*
D13*
X182111276Y-70249388D03*
X182111276Y-70749388D03*
X182111276Y-71249388D03*
X182111276Y-71749388D03*
D12*
X182248776Y-72661888D03*
X182748776Y-72661888D03*
X183248776Y-72661888D03*
X183748776Y-72661888D03*
X184248776Y-72661888D03*
X184748776Y-72661888D03*
X185248776Y-72661888D03*
X185748776Y-72661888D03*
X186248776Y-72661888D03*
X186748776Y-72661888D03*
D13*
X186886276Y-71749388D03*
X186886276Y-71249388D03*
X186886276Y-70749388D03*
X186886276Y-70249388D03*
D12*
X186748776Y-69336888D03*
X186248776Y-69336888D03*
X185748776Y-69336888D03*
X185248776Y-69336888D03*
X184748776Y-69336888D03*
X184248776Y-69336888D03*
X183748776Y-69336888D03*
X183248776Y-69336888D03*
X182748776Y-69336888D03*
%TD*%
D10*
%TO.C,R4*%
X187248776Y-85259388D03*
X187248776Y-84239388D03*
%TD*%
%TO.C,R3*%
X125998776Y-38009388D03*
X125998776Y-36989388D03*
%TD*%
D11*
%TO.C,R5*%
X116998776Y-85239388D03*
X116998776Y-86259388D03*
%TD*%
D10*
%TO.C,R4*%
X133248776Y-67259388D03*
X133248776Y-66239388D03*
%TD*%
D12*
%TO.C,U1*%
X182248776Y-87336888D03*
D13*
X182111276Y-88249388D03*
X182111276Y-88749388D03*
X182111276Y-89249388D03*
X182111276Y-89749388D03*
D12*
X182248776Y-90661888D03*
X182748776Y-90661888D03*
X183248776Y-90661888D03*
X183748776Y-90661888D03*
X184248776Y-90661888D03*
X184748776Y-90661888D03*
X185248776Y-90661888D03*
X185748776Y-90661888D03*
X186248776Y-90661888D03*
X186748776Y-90661888D03*
D13*
X186886276Y-89749388D03*
X186886276Y-89249388D03*
X186886276Y-88749388D03*
X186886276Y-88249388D03*
D12*
X186748776Y-87336888D03*
X186248776Y-87336888D03*
X185748776Y-87336888D03*
X185248776Y-87336888D03*
X184748776Y-87336888D03*
X184248776Y-87336888D03*
X183748776Y-87336888D03*
X183248776Y-87336888D03*
X182748776Y-87336888D03*
%TD*%
D11*
%TO.C,R5*%
X188998776Y-85239388D03*
X188998776Y-86259388D03*
%TD*%
D14*
%TO.C,C1*%
X110866014Y-37745835D03*
X109906014Y-37745835D03*
%TD*%
D10*
%TO.C,R3*%
X179998776Y-56009388D03*
X179998776Y-54989388D03*
%TD*%
D14*
%TO.C,C1*%
X146866014Y-91745835D03*
X145906014Y-91745835D03*
%TD*%
%TO.C,C1*%
X182866014Y-91745835D03*
X181906014Y-91745835D03*
%TD*%
%TO.C,C1*%
X110866014Y-91745835D03*
X109906014Y-91745835D03*
%TD*%
%TO.C,C1*%
X128866014Y-91745835D03*
X127906014Y-91745835D03*
%TD*%
D11*
%TO.C,R2*%
X116498776Y-90989388D03*
X116498776Y-92009388D03*
%TD*%
D10*
%TO.C,R4*%
X115248776Y-31259388D03*
X115248776Y-30239388D03*
%TD*%
D14*
%TO.C,C1*%
X146866014Y-55745835D03*
X145906014Y-55745835D03*
%TD*%
D11*
%TO.C,R5*%
X188998776Y-49239388D03*
X188998776Y-50259388D03*
%TD*%
D10*
%TO.C,R1*%
X150748776Y-111009388D03*
X150748776Y-109989388D03*
%TD*%
D11*
%TO.C,R2*%
X188498776Y-54989388D03*
X188498776Y-56009388D03*
%TD*%
%TO.C,R2*%
X116498776Y-54989388D03*
X116498776Y-56009388D03*
%TD*%
D10*
%TO.C,R3*%
X143998776Y-56009388D03*
X143998776Y-54989388D03*
%TD*%
D11*
%TO.C,R2*%
X170498776Y-108989388D03*
X170498776Y-110009388D03*
%TD*%
%TO.C,R2*%
X152498776Y-36989388D03*
X152498776Y-38009388D03*
%TD*%
M02*
