%TF.GenerationSoftware,KiCad,Pcbnew,7.0.7-7.0.7~ubuntu20.04.1*%
%TF.CreationDate,2023-08-14T16:59:11-04:00*%
%TF.ProjectId,bno085-debug-board-panel,626e6f30-3835-42d6-9465-6275672d626f,rev?*%
%TF.SameCoordinates,Original*%
%TF.FileFunction,Copper,L2,Bot*%
%TF.FilePolarity,Positive*%
%FSLAX46Y46*%
G04 Gerber Fmt 4.6, Leading zero omitted, Abs format (unit mm)*
G04 Created by KiCad (PCBNEW 7.0.7-7.0.7~ubuntu20.04.1) date 2023-08-14 16:59:11*
%MOMM*%
%LPD*%
G01*
G04 APERTURE LIST*
%TA.AperFunction,ComponentPad*%
%ADD10R,1.700000X1.700000*%
%TD*%
%TA.AperFunction,ComponentPad*%
%ADD11O,1.700000X1.700000*%
%TD*%
%TA.AperFunction,ComponentPad*%
%ADD12C,1.600000*%
%TD*%
%TA.AperFunction,ComponentPad*%
%ADD13O,1.600000X1.600000*%
%TD*%
%TA.AperFunction,SMDPad,CuDef*%
%ADD14C,4.000000*%
%TD*%
%TA.AperFunction,ViaPad*%
%ADD15C,0.800000*%
%TD*%
%TA.AperFunction,Conductor*%
%ADD16C,0.250000*%
%TD*%
G04 APERTURE END LIST*
D10*
%TO.P,J1,1,Pin_1*%
%TO.N,Board_1-GND*%
X49480000Y-9300000D03*
D11*
%TO.P,J1,2,Pin_2*%
%TO.N,Board_1-+3.3V*%
X46940000Y-9300000D03*
%TO.P,J1,3,Pin_3*%
%TO.N,Board_1-/SCL*%
X44400000Y-9300000D03*
%TO.P,J1,4,Pin_4*%
%TO.N,Board_1-/SDA*%
X41860000Y-9300000D03*
%TD*%
D10*
%TO.P,J1,1,Pin_1*%
%TO.N,Board_24-GND*%
X128680000Y-108100000D03*
D11*
%TO.P,J1,2,Pin_2*%
%TO.N,Board_24-+3.3V*%
X126140000Y-108100000D03*
%TO.P,J1,3,Pin_3*%
%TO.N,Board_24-/SCL*%
X123600000Y-108100000D03*
%TO.P,J1,4,Pin_4*%
%TO.N,Board_24-/SDA*%
X121060000Y-108100000D03*
%TD*%
D12*
%TO.P,R2,1*%
%TO.N,Board_17-Net-(U1-ENV_SDA)*%
X62200000Y-98750000D03*
D13*
%TO.P,R2,2*%
%TO.N,Board_17-+3.3V*%
X62200000Y-86050000D03*
%TD*%
D10*
%TO.P,J2,1,Pin_1*%
%TO.N,Board_11-/CAP*%
X49500000Y-76700000D03*
D11*
%TO.P,J2,2,Pin_2*%
%TO.N,Board_11-/SA0*%
X46960000Y-76700000D03*
%TO.P,J2,3,Pin_3*%
%TO.N,Board_11-/BOOTN*%
X44420000Y-76700000D03*
%TO.P,J2,4,Pin_4*%
%TO.N,Board_11-/INT*%
X41880000Y-76700000D03*
%TD*%
D12*
%TO.P,R2,1*%
%TO.N,Board_0-Net-(U1-ENV_SDA)*%
X9400000Y-24650000D03*
D13*
%TO.P,R2,2*%
%TO.N,Board_0-+3.3V*%
X9400000Y-11950000D03*
%TD*%
D12*
%TO.P,R1,1*%
%TO.N,Board_6-+3.3V*%
X55400000Y-49350000D03*
D13*
%TO.P,R1,2*%
%TO.N,Board_6-Net-(U1-ENV_SCL)*%
X55400000Y-36650000D03*
%TD*%
D12*
%TO.P,R2,1*%
%TO.N,Board_10-Net-(U1-ENV_SDA)*%
X9400000Y-74050000D03*
D13*
%TO.P,R2,2*%
%TO.N,Board_10-+3.3V*%
X9400000Y-61350000D03*
%TD*%
D12*
%TO.P,R1,1*%
%TO.N,Board_13-+3.3V*%
X108200000Y-74050000D03*
D13*
%TO.P,R1,2*%
%TO.N,Board_13-Net-(U1-ENV_SCL)*%
X108200000Y-61350000D03*
%TD*%
D10*
%TO.P,J1,1,Pin_1*%
%TO.N,Board_14-GND*%
X128680000Y-58700000D03*
D11*
%TO.P,J1,2,Pin_2*%
%TO.N,Board_14-+3.3V*%
X126140000Y-58700000D03*
%TO.P,J1,3,Pin_3*%
%TO.N,Board_14-/SCL*%
X123600000Y-58700000D03*
%TO.P,J1,4,Pin_4*%
%TO.N,Board_14-/SDA*%
X121060000Y-58700000D03*
%TD*%
D12*
%TO.P,R2,1*%
%TO.N,Board_22-Net-(U1-ENV_SDA)*%
X62200000Y-123450000D03*
D13*
%TO.P,R2,2*%
%TO.N,Board_22-+3.3V*%
X62200000Y-110750000D03*
%TD*%
D10*
%TO.P,J1,1,Pin_1*%
%TO.N,Board_17-GND*%
X75880000Y-83400000D03*
D11*
%TO.P,J1,2,Pin_2*%
%TO.N,Board_17-+3.3V*%
X73340000Y-83400000D03*
%TO.P,J1,3,Pin_3*%
%TO.N,Board_17-/SCL*%
X70800000Y-83400000D03*
%TO.P,J1,4,Pin_4*%
%TO.N,Board_17-/SDA*%
X68260000Y-83400000D03*
%TD*%
D10*
%TO.P,J2,1,Pin_1*%
%TO.N,Board_0-/CAP*%
X23100000Y-27300000D03*
D11*
%TO.P,J2,2,Pin_2*%
%TO.N,Board_0-/SA0*%
X20560000Y-27300000D03*
%TO.P,J2,3,Pin_3*%
%TO.N,Board_0-/BOOTN*%
X18020000Y-27300000D03*
%TO.P,J2,4,Pin_4*%
%TO.N,Board_0-/INT*%
X15480000Y-27300000D03*
%TD*%
D12*
%TO.P,R2,1*%
%TO.N,Board_12-Net-(U1-ENV_SDA)*%
X62200000Y-74050000D03*
D13*
%TO.P,R2,2*%
%TO.N,Board_12-+3.3V*%
X62200000Y-61350000D03*
%TD*%
D10*
%TO.P,J1,1,Pin_1*%
%TO.N,Board_5-GND*%
X23080000Y-34000000D03*
D11*
%TO.P,J1,2,Pin_2*%
%TO.N,Board_5-+3.3V*%
X20540000Y-34000000D03*
%TO.P,J1,3,Pin_3*%
%TO.N,Board_5-/SCL*%
X18000000Y-34000000D03*
%TO.P,J1,4,Pin_4*%
%TO.N,Board_5-/SDA*%
X15460000Y-34000000D03*
%TD*%
D12*
%TO.P,R1,1*%
%TO.N,Board_12-+3.3V*%
X81800000Y-74050000D03*
D13*
%TO.P,R1,2*%
%TO.N,Board_12-Net-(U1-ENV_SCL)*%
X81800000Y-61350000D03*
%TD*%
D12*
%TO.P,R1,1*%
%TO.N,Board_11-+3.3V*%
X55400000Y-74050000D03*
D13*
%TO.P,R1,2*%
%TO.N,Board_11-Net-(U1-ENV_SCL)*%
X55400000Y-61350000D03*
%TD*%
D10*
%TO.P,J1,1,Pin_1*%
%TO.N,Board_18-GND*%
X102280000Y-83400000D03*
D11*
%TO.P,J1,2,Pin_2*%
%TO.N,Board_18-+3.3V*%
X99740000Y-83400000D03*
%TO.P,J1,3,Pin_3*%
%TO.N,Board_18-/SCL*%
X97200000Y-83400000D03*
%TO.P,J1,4,Pin_4*%
%TO.N,Board_18-/SDA*%
X94660000Y-83400000D03*
%TD*%
D12*
%TO.P,R2,1*%
%TO.N,Board_3-Net-(U1-ENV_SDA)*%
X88600000Y-24650000D03*
D13*
%TO.P,R2,2*%
%TO.N,Board_3-+3.3V*%
X88600000Y-11950000D03*
%TD*%
D10*
%TO.P,J2,1,Pin_1*%
%TO.N,Board_12-/CAP*%
X75900000Y-76700000D03*
D11*
%TO.P,J2,2,Pin_2*%
%TO.N,Board_12-/SA0*%
X73360000Y-76700000D03*
%TO.P,J2,3,Pin_3*%
%TO.N,Board_12-/BOOTN*%
X70820000Y-76700000D03*
%TO.P,J2,4,Pin_4*%
%TO.N,Board_12-/INT*%
X68280000Y-76700000D03*
%TD*%
D12*
%TO.P,R2,1*%
%TO.N,Board_14-Net-(U1-ENV_SDA)*%
X115000000Y-74050000D03*
D13*
%TO.P,R2,2*%
%TO.N,Board_14-+3.3V*%
X115000000Y-61350000D03*
%TD*%
D10*
%TO.P,J2,1,Pin_1*%
%TO.N,Board_18-/CAP*%
X102300000Y-101400000D03*
D11*
%TO.P,J2,2,Pin_2*%
%TO.N,Board_18-/SA0*%
X99760000Y-101400000D03*
%TO.P,J2,3,Pin_3*%
%TO.N,Board_18-/BOOTN*%
X97220000Y-101400000D03*
%TO.P,J2,4,Pin_4*%
%TO.N,Board_18-/INT*%
X94680000Y-101400000D03*
%TD*%
D12*
%TO.P,R2,1*%
%TO.N,Board_9-Net-(U1-ENV_SDA)*%
X115000000Y-49350000D03*
D13*
%TO.P,R2,2*%
%TO.N,Board_9-+3.3V*%
X115000000Y-36650000D03*
%TD*%
D10*
%TO.P,J2,1,Pin_1*%
%TO.N,Board_7-/CAP*%
X75900000Y-52000000D03*
D11*
%TO.P,J2,2,Pin_2*%
%TO.N,Board_7-/SA0*%
X73360000Y-52000000D03*
%TO.P,J2,3,Pin_3*%
%TO.N,Board_7-/BOOTN*%
X70820000Y-52000000D03*
%TO.P,J2,4,Pin_4*%
%TO.N,Board_7-/INT*%
X68280000Y-52000000D03*
%TD*%
D10*
%TO.P,J1,1,Pin_1*%
%TO.N,Board_21-GND*%
X49480000Y-108100000D03*
D11*
%TO.P,J1,2,Pin_2*%
%TO.N,Board_21-+3.3V*%
X46940000Y-108100000D03*
%TO.P,J1,3,Pin_3*%
%TO.N,Board_21-/SCL*%
X44400000Y-108100000D03*
%TO.P,J1,4,Pin_4*%
%TO.N,Board_21-/SDA*%
X41860000Y-108100000D03*
%TD*%
D10*
%TO.P,J2,1,Pin_1*%
%TO.N,Board_3-/CAP*%
X102300000Y-27300000D03*
D11*
%TO.P,J2,2,Pin_2*%
%TO.N,Board_3-/SA0*%
X99760000Y-27300000D03*
%TO.P,J2,3,Pin_3*%
%TO.N,Board_3-/BOOTN*%
X97220000Y-27300000D03*
%TO.P,J2,4,Pin_4*%
%TO.N,Board_3-/INT*%
X94680000Y-27300000D03*
%TD*%
D12*
%TO.P,R1,1*%
%TO.N,Board_22-+3.3V*%
X81800000Y-123450000D03*
D13*
%TO.P,R1,2*%
%TO.N,Board_22-Net-(U1-ENV_SCL)*%
X81800000Y-110750000D03*
%TD*%
D10*
%TO.P,J2,1,Pin_1*%
%TO.N,Board_19-/CAP*%
X128700000Y-101400000D03*
D11*
%TO.P,J2,2,Pin_2*%
%TO.N,Board_19-/SA0*%
X126160000Y-101400000D03*
%TO.P,J2,3,Pin_3*%
%TO.N,Board_19-/BOOTN*%
X123620000Y-101400000D03*
%TO.P,J2,4,Pin_4*%
%TO.N,Board_19-/INT*%
X121080000Y-101400000D03*
%TD*%
D12*
%TO.P,R2,1*%
%TO.N,Board_23-Net-(U1-ENV_SDA)*%
X88600000Y-123450000D03*
D13*
%TO.P,R2,2*%
%TO.N,Board_23-+3.3V*%
X88600000Y-110750000D03*
%TD*%
D10*
%TO.P,J2,1,Pin_1*%
%TO.N,Board_16-/CAP*%
X49500000Y-101400000D03*
D11*
%TO.P,J2,2,Pin_2*%
%TO.N,Board_16-/SA0*%
X46960000Y-101400000D03*
%TO.P,J2,3,Pin_3*%
%TO.N,Board_16-/BOOTN*%
X44420000Y-101400000D03*
%TO.P,J2,4,Pin_4*%
%TO.N,Board_16-/INT*%
X41880000Y-101400000D03*
%TD*%
D10*
%TO.P,J2,1,Pin_1*%
%TO.N,Board_22-/CAP*%
X75900000Y-126100000D03*
D11*
%TO.P,J2,2,Pin_2*%
%TO.N,Board_22-/SA0*%
X73360000Y-126100000D03*
%TO.P,J2,3,Pin_3*%
%TO.N,Board_22-/BOOTN*%
X70820000Y-126100000D03*
%TO.P,J2,4,Pin_4*%
%TO.N,Board_22-/INT*%
X68280000Y-126100000D03*
%TD*%
D12*
%TO.P,R2,1*%
%TO.N,Board_20-Net-(U1-ENV_SDA)*%
X9400000Y-123450000D03*
D13*
%TO.P,R2,2*%
%TO.N,Board_20-+3.3V*%
X9400000Y-110750000D03*
%TD*%
D12*
%TO.P,R1,1*%
%TO.N,Board_7-+3.3V*%
X81800000Y-49350000D03*
D13*
%TO.P,R1,2*%
%TO.N,Board_7-Net-(U1-ENV_SCL)*%
X81800000Y-36650000D03*
%TD*%
D10*
%TO.P,J1,1,Pin_1*%
%TO.N,Board_20-GND*%
X23080000Y-108100000D03*
D11*
%TO.P,J1,2,Pin_2*%
%TO.N,Board_20-+3.3V*%
X20540000Y-108100000D03*
%TO.P,J1,3,Pin_3*%
%TO.N,Board_20-/SCL*%
X18000000Y-108100000D03*
%TO.P,J1,4,Pin_4*%
%TO.N,Board_20-/SDA*%
X15460000Y-108100000D03*
%TD*%
D12*
%TO.P,R2,1*%
%TO.N,Board_15-Net-(U1-ENV_SDA)*%
X9400000Y-98750000D03*
D13*
%TO.P,R2,2*%
%TO.N,Board_15-+3.3V*%
X9400000Y-86050000D03*
%TD*%
D10*
%TO.P,J1,1,Pin_1*%
%TO.N,Board_9-GND*%
X128680000Y-34000000D03*
D11*
%TO.P,J1,2,Pin_2*%
%TO.N,Board_9-+3.3V*%
X126140000Y-34000000D03*
%TO.P,J1,3,Pin_3*%
%TO.N,Board_9-/SCL*%
X123600000Y-34000000D03*
%TO.P,J1,4,Pin_4*%
%TO.N,Board_9-/SDA*%
X121060000Y-34000000D03*
%TD*%
D12*
%TO.P,R2,1*%
%TO.N,Board_8-Net-(U1-ENV_SDA)*%
X88600000Y-49350000D03*
D13*
%TO.P,R2,2*%
%TO.N,Board_8-+3.3V*%
X88600000Y-36650000D03*
%TD*%
D10*
%TO.P,J1,1,Pin_1*%
%TO.N,Board_15-GND*%
X23080000Y-83400000D03*
D11*
%TO.P,J1,2,Pin_2*%
%TO.N,Board_15-+3.3V*%
X20540000Y-83400000D03*
%TO.P,J1,3,Pin_3*%
%TO.N,Board_15-/SCL*%
X18000000Y-83400000D03*
%TO.P,J1,4,Pin_4*%
%TO.N,Board_15-/SDA*%
X15460000Y-83400000D03*
%TD*%
D12*
%TO.P,R1,1*%
%TO.N,Board_18-+3.3V*%
X108200000Y-98750000D03*
D13*
%TO.P,R1,2*%
%TO.N,Board_18-Net-(U1-ENV_SCL)*%
X108200000Y-86050000D03*
%TD*%
D12*
%TO.P,R1,1*%
%TO.N,Board_20-+3.3V*%
X29000000Y-123450000D03*
D13*
%TO.P,R1,2*%
%TO.N,Board_20-Net-(U1-ENV_SCL)*%
X29000000Y-110750000D03*
%TD*%
D12*
%TO.P,R1,1*%
%TO.N,Board_2-+3.3V*%
X81800000Y-24650000D03*
D13*
%TO.P,R1,2*%
%TO.N,Board_2-Net-(U1-ENV_SCL)*%
X81800000Y-11950000D03*
%TD*%
D10*
%TO.P,J2,1,Pin_1*%
%TO.N,Board_9-/CAP*%
X128700000Y-52000000D03*
D11*
%TO.P,J2,2,Pin_2*%
%TO.N,Board_9-/SA0*%
X126160000Y-52000000D03*
%TO.P,J2,3,Pin_3*%
%TO.N,Board_9-/BOOTN*%
X123620000Y-52000000D03*
%TO.P,J2,4,Pin_4*%
%TO.N,Board_9-/INT*%
X121080000Y-52000000D03*
%TD*%
D10*
%TO.P,J1,1,Pin_1*%
%TO.N,Board_6-GND*%
X49480000Y-34000000D03*
D11*
%TO.P,J1,2,Pin_2*%
%TO.N,Board_6-+3.3V*%
X46940000Y-34000000D03*
%TO.P,J1,3,Pin_3*%
%TO.N,Board_6-/SCL*%
X44400000Y-34000000D03*
%TO.P,J1,4,Pin_4*%
%TO.N,Board_6-/SDA*%
X41860000Y-34000000D03*
%TD*%
D12*
%TO.P,R2,1*%
%TO.N,Board_16-Net-(U1-ENV_SDA)*%
X35800000Y-98750000D03*
D13*
%TO.P,R2,2*%
%TO.N,Board_16-+3.3V*%
X35800000Y-86050000D03*
%TD*%
D12*
%TO.P,R1,1*%
%TO.N,Board_0-+3.3V*%
X29000000Y-24650000D03*
D13*
%TO.P,R1,2*%
%TO.N,Board_0-Net-(U1-ENV_SCL)*%
X29000000Y-11950000D03*
%TD*%
D12*
%TO.P,R1,1*%
%TO.N,Board_5-+3.3V*%
X29000000Y-49350000D03*
D13*
%TO.P,R1,2*%
%TO.N,Board_5-Net-(U1-ENV_SCL)*%
X29000000Y-36650000D03*
%TD*%
D12*
%TO.P,R1,1*%
%TO.N,Board_23-+3.3V*%
X108200000Y-123450000D03*
D13*
%TO.P,R1,2*%
%TO.N,Board_23-Net-(U1-ENV_SCL)*%
X108200000Y-110750000D03*
%TD*%
D10*
%TO.P,J1,1,Pin_1*%
%TO.N,Board_23-GND*%
X102280000Y-108100000D03*
D11*
%TO.P,J1,2,Pin_2*%
%TO.N,Board_23-+3.3V*%
X99740000Y-108100000D03*
%TO.P,J1,3,Pin_3*%
%TO.N,Board_23-/SCL*%
X97200000Y-108100000D03*
%TO.P,J1,4,Pin_4*%
%TO.N,Board_23-/SDA*%
X94660000Y-108100000D03*
%TD*%
D12*
%TO.P,R1,1*%
%TO.N,Board_9-+3.3V*%
X134600000Y-49350000D03*
D13*
%TO.P,R1,2*%
%TO.N,Board_9-Net-(U1-ENV_SCL)*%
X134600000Y-36650000D03*
%TD*%
D12*
%TO.P,R1,1*%
%TO.N,Board_8-+3.3V*%
X108200000Y-49350000D03*
D13*
%TO.P,R1,2*%
%TO.N,Board_8-Net-(U1-ENV_SCL)*%
X108200000Y-36650000D03*
%TD*%
D12*
%TO.P,R2,1*%
%TO.N,Board_5-Net-(U1-ENV_SDA)*%
X9400000Y-49350000D03*
D13*
%TO.P,R2,2*%
%TO.N,Board_5-+3.3V*%
X9400000Y-36650000D03*
%TD*%
D12*
%TO.P,R1,1*%
%TO.N,Board_4-+3.3V*%
X134600000Y-24650000D03*
D13*
%TO.P,R1,2*%
%TO.N,Board_4-Net-(U1-ENV_SCL)*%
X134600000Y-11950000D03*
%TD*%
D12*
%TO.P,R2,1*%
%TO.N,Board_2-Net-(U1-ENV_SDA)*%
X62200000Y-24650000D03*
D13*
%TO.P,R2,2*%
%TO.N,Board_2-+3.3V*%
X62200000Y-11950000D03*
%TD*%
D10*
%TO.P,J1,1,Pin_1*%
%TO.N,Board_13-GND*%
X102280000Y-58700000D03*
D11*
%TO.P,J1,2,Pin_2*%
%TO.N,Board_13-+3.3V*%
X99740000Y-58700000D03*
%TO.P,J1,3,Pin_3*%
%TO.N,Board_13-/SCL*%
X97200000Y-58700000D03*
%TO.P,J1,4,Pin_4*%
%TO.N,Board_13-/SDA*%
X94660000Y-58700000D03*
%TD*%
D10*
%TO.P,J2,1,Pin_1*%
%TO.N,Board_6-/CAP*%
X49500000Y-52000000D03*
D11*
%TO.P,J2,2,Pin_2*%
%TO.N,Board_6-/SA0*%
X46960000Y-52000000D03*
%TO.P,J2,3,Pin_3*%
%TO.N,Board_6-/BOOTN*%
X44420000Y-52000000D03*
%TO.P,J2,4,Pin_4*%
%TO.N,Board_6-/INT*%
X41880000Y-52000000D03*
%TD*%
D10*
%TO.P,J2,1,Pin_1*%
%TO.N,Board_10-/CAP*%
X23100000Y-76700000D03*
D11*
%TO.P,J2,2,Pin_2*%
%TO.N,Board_10-/SA0*%
X20560000Y-76700000D03*
%TO.P,J2,3,Pin_3*%
%TO.N,Board_10-/BOOTN*%
X18020000Y-76700000D03*
%TO.P,J2,4,Pin_4*%
%TO.N,Board_10-/INT*%
X15480000Y-76700000D03*
%TD*%
D12*
%TO.P,R2,1*%
%TO.N,Board_1-Net-(U1-ENV_SDA)*%
X35800000Y-24650000D03*
D13*
%TO.P,R2,2*%
%TO.N,Board_1-+3.3V*%
X35800000Y-11950000D03*
%TD*%
D12*
%TO.P,R2,1*%
%TO.N,Board_19-Net-(U1-ENV_SDA)*%
X115000000Y-98750000D03*
D13*
%TO.P,R2,2*%
%TO.N,Board_19-+3.3V*%
X115000000Y-86050000D03*
%TD*%
D10*
%TO.P,J1,1,Pin_1*%
%TO.N,Board_7-GND*%
X75880000Y-34000000D03*
D11*
%TO.P,J1,2,Pin_2*%
%TO.N,Board_7-+3.3V*%
X73340000Y-34000000D03*
%TO.P,J1,3,Pin_3*%
%TO.N,Board_7-/SCL*%
X70800000Y-34000000D03*
%TO.P,J1,4,Pin_4*%
%TO.N,Board_7-/SDA*%
X68260000Y-34000000D03*
%TD*%
D10*
%TO.P,J2,1,Pin_1*%
%TO.N,Board_4-/CAP*%
X128700000Y-27300000D03*
D11*
%TO.P,J2,2,Pin_2*%
%TO.N,Board_4-/SA0*%
X126160000Y-27300000D03*
%TO.P,J2,3,Pin_3*%
%TO.N,Board_4-/BOOTN*%
X123620000Y-27300000D03*
%TO.P,J2,4,Pin_4*%
%TO.N,Board_4-/INT*%
X121080000Y-27300000D03*
%TD*%
D10*
%TO.P,J1,1,Pin_1*%
%TO.N,Board_22-GND*%
X75880000Y-108100000D03*
D11*
%TO.P,J1,2,Pin_2*%
%TO.N,Board_22-+3.3V*%
X73340000Y-108100000D03*
%TO.P,J1,3,Pin_3*%
%TO.N,Board_22-/SCL*%
X70800000Y-108100000D03*
%TO.P,J1,4,Pin_4*%
%TO.N,Board_22-/SDA*%
X68260000Y-108100000D03*
%TD*%
D12*
%TO.P,R1,1*%
%TO.N,Board_19-+3.3V*%
X134600000Y-98750000D03*
D13*
%TO.P,R1,2*%
%TO.N,Board_19-Net-(U1-ENV_SCL)*%
X134600000Y-86050000D03*
%TD*%
D12*
%TO.P,R2,1*%
%TO.N,Board_7-Net-(U1-ENV_SDA)*%
X62200000Y-49350000D03*
D13*
%TO.P,R2,2*%
%TO.N,Board_7-+3.3V*%
X62200000Y-36650000D03*
%TD*%
D10*
%TO.P,J2,1,Pin_1*%
%TO.N,Board_14-/CAP*%
X128700000Y-76700000D03*
D11*
%TO.P,J2,2,Pin_2*%
%TO.N,Board_14-/SA0*%
X126160000Y-76700000D03*
%TO.P,J2,3,Pin_3*%
%TO.N,Board_14-/BOOTN*%
X123620000Y-76700000D03*
%TO.P,J2,4,Pin_4*%
%TO.N,Board_14-/INT*%
X121080000Y-76700000D03*
%TD*%
D10*
%TO.P,J1,1,Pin_1*%
%TO.N,Board_2-GND*%
X75880000Y-9300000D03*
D11*
%TO.P,J1,2,Pin_2*%
%TO.N,Board_2-+3.3V*%
X73340000Y-9300000D03*
%TO.P,J1,3,Pin_3*%
%TO.N,Board_2-/SCL*%
X70800000Y-9300000D03*
%TO.P,J1,4,Pin_4*%
%TO.N,Board_2-/SDA*%
X68260000Y-9300000D03*
%TD*%
D10*
%TO.P,J1,1,Pin_1*%
%TO.N,Board_4-GND*%
X128680000Y-9300000D03*
D11*
%TO.P,J1,2,Pin_2*%
%TO.N,Board_4-+3.3V*%
X126140000Y-9300000D03*
%TO.P,J1,3,Pin_3*%
%TO.N,Board_4-/SCL*%
X123600000Y-9300000D03*
%TO.P,J1,4,Pin_4*%
%TO.N,Board_4-/SDA*%
X121060000Y-9300000D03*
%TD*%
D10*
%TO.P,J1,1,Pin_1*%
%TO.N,Board_8-GND*%
X102280000Y-34000000D03*
D11*
%TO.P,J1,2,Pin_2*%
%TO.N,Board_8-+3.3V*%
X99740000Y-34000000D03*
%TO.P,J1,3,Pin_3*%
%TO.N,Board_8-/SCL*%
X97200000Y-34000000D03*
%TO.P,J1,4,Pin_4*%
%TO.N,Board_8-/SDA*%
X94660000Y-34000000D03*
%TD*%
D12*
%TO.P,R2,1*%
%TO.N,Board_4-Net-(U1-ENV_SDA)*%
X115000000Y-24650000D03*
D13*
%TO.P,R2,2*%
%TO.N,Board_4-+3.3V*%
X115000000Y-11950000D03*
%TD*%
D10*
%TO.P,J1,1,Pin_1*%
%TO.N,Board_10-GND*%
X23080000Y-58700000D03*
D11*
%TO.P,J1,2,Pin_2*%
%TO.N,Board_10-+3.3V*%
X20540000Y-58700000D03*
%TO.P,J1,3,Pin_3*%
%TO.N,Board_10-/SCL*%
X18000000Y-58700000D03*
%TO.P,J1,4,Pin_4*%
%TO.N,Board_10-/SDA*%
X15460000Y-58700000D03*
%TD*%
D10*
%TO.P,J2,1,Pin_1*%
%TO.N,Board_8-/CAP*%
X102300000Y-52000000D03*
D11*
%TO.P,J2,2,Pin_2*%
%TO.N,Board_8-/SA0*%
X99760000Y-52000000D03*
%TO.P,J2,3,Pin_3*%
%TO.N,Board_8-/BOOTN*%
X97220000Y-52000000D03*
%TO.P,J2,4,Pin_4*%
%TO.N,Board_8-/INT*%
X94680000Y-52000000D03*
%TD*%
D12*
%TO.P,R2,1*%
%TO.N,Board_21-Net-(U1-ENV_SDA)*%
X35800000Y-123450000D03*
D13*
%TO.P,R2,2*%
%TO.N,Board_21-+3.3V*%
X35800000Y-110750000D03*
%TD*%
D10*
%TO.P,J2,1,Pin_1*%
%TO.N,Board_24-/CAP*%
X128700000Y-126100000D03*
D11*
%TO.P,J2,2,Pin_2*%
%TO.N,Board_24-/SA0*%
X126160000Y-126100000D03*
%TO.P,J2,3,Pin_3*%
%TO.N,Board_24-/BOOTN*%
X123620000Y-126100000D03*
%TO.P,J2,4,Pin_4*%
%TO.N,Board_24-/INT*%
X121080000Y-126100000D03*
%TD*%
D12*
%TO.P,R1,1*%
%TO.N,Board_10-+3.3V*%
X29000000Y-74050000D03*
D13*
%TO.P,R1,2*%
%TO.N,Board_10-Net-(U1-ENV_SCL)*%
X29000000Y-61350000D03*
%TD*%
D12*
%TO.P,R1,1*%
%TO.N,Board_24-+3.3V*%
X134600000Y-123450000D03*
D13*
%TO.P,R1,2*%
%TO.N,Board_24-Net-(U1-ENV_SCL)*%
X134600000Y-110750000D03*
%TD*%
D10*
%TO.P,J1,1,Pin_1*%
%TO.N,Board_11-GND*%
X49480000Y-58700000D03*
D11*
%TO.P,J1,2,Pin_2*%
%TO.N,Board_11-+3.3V*%
X46940000Y-58700000D03*
%TO.P,J1,3,Pin_3*%
%TO.N,Board_11-/SCL*%
X44400000Y-58700000D03*
%TO.P,J1,4,Pin_4*%
%TO.N,Board_11-/SDA*%
X41860000Y-58700000D03*
%TD*%
D12*
%TO.P,R2,1*%
%TO.N,Board_6-Net-(U1-ENV_SDA)*%
X35800000Y-49350000D03*
D13*
%TO.P,R2,2*%
%TO.N,Board_6-+3.3V*%
X35800000Y-36650000D03*
%TD*%
D10*
%TO.P,J2,1,Pin_1*%
%TO.N,Board_17-/CAP*%
X75900000Y-101400000D03*
D11*
%TO.P,J2,2,Pin_2*%
%TO.N,Board_17-/SA0*%
X73360000Y-101400000D03*
%TO.P,J2,3,Pin_3*%
%TO.N,Board_17-/BOOTN*%
X70820000Y-101400000D03*
%TO.P,J2,4,Pin_4*%
%TO.N,Board_17-/INT*%
X68280000Y-101400000D03*
%TD*%
D10*
%TO.P,J2,1,Pin_1*%
%TO.N,Board_15-/CAP*%
X23100000Y-101400000D03*
D11*
%TO.P,J2,2,Pin_2*%
%TO.N,Board_15-/SA0*%
X20560000Y-101400000D03*
%TO.P,J2,3,Pin_3*%
%TO.N,Board_15-/BOOTN*%
X18020000Y-101400000D03*
%TO.P,J2,4,Pin_4*%
%TO.N,Board_15-/INT*%
X15480000Y-101400000D03*
%TD*%
D12*
%TO.P,R1,1*%
%TO.N,Board_3-+3.3V*%
X108200000Y-24650000D03*
D13*
%TO.P,R1,2*%
%TO.N,Board_3-Net-(U1-ENV_SCL)*%
X108200000Y-11950000D03*
%TD*%
D12*
%TO.P,R1,1*%
%TO.N,Board_21-+3.3V*%
X55400000Y-123450000D03*
D13*
%TO.P,R1,2*%
%TO.N,Board_21-Net-(U1-ENV_SCL)*%
X55400000Y-110750000D03*
%TD*%
D10*
%TO.P,J2,1,Pin_1*%
%TO.N,Board_23-/CAP*%
X102300000Y-126100000D03*
D11*
%TO.P,J2,2,Pin_2*%
%TO.N,Board_23-/SA0*%
X99760000Y-126100000D03*
%TO.P,J2,3,Pin_3*%
%TO.N,Board_23-/BOOTN*%
X97220000Y-126100000D03*
%TO.P,J2,4,Pin_4*%
%TO.N,Board_23-/INT*%
X94680000Y-126100000D03*
%TD*%
D12*
%TO.P,R1,1*%
%TO.N,Board_14-+3.3V*%
X134600000Y-74050000D03*
D13*
%TO.P,R1,2*%
%TO.N,Board_14-Net-(U1-ENV_SCL)*%
X134600000Y-61350000D03*
%TD*%
D10*
%TO.P,J2,1,Pin_1*%
%TO.N,Board_20-/CAP*%
X23100000Y-126100000D03*
D11*
%TO.P,J2,2,Pin_2*%
%TO.N,Board_20-/SA0*%
X20560000Y-126100000D03*
%TO.P,J2,3,Pin_3*%
%TO.N,Board_20-/BOOTN*%
X18020000Y-126100000D03*
%TO.P,J2,4,Pin_4*%
%TO.N,Board_20-/INT*%
X15480000Y-126100000D03*
%TD*%
D10*
%TO.P,J1,1,Pin_1*%
%TO.N,Board_0-GND*%
X23080000Y-9300000D03*
D11*
%TO.P,J1,2,Pin_2*%
%TO.N,Board_0-+3.3V*%
X20540000Y-9300000D03*
%TO.P,J1,3,Pin_3*%
%TO.N,Board_0-/SCL*%
X18000000Y-9300000D03*
%TO.P,J1,4,Pin_4*%
%TO.N,Board_0-/SDA*%
X15460000Y-9300000D03*
%TD*%
D10*
%TO.P,J2,1,Pin_1*%
%TO.N,Board_5-/CAP*%
X23100000Y-52000000D03*
D11*
%TO.P,J2,2,Pin_2*%
%TO.N,Board_5-/SA0*%
X20560000Y-52000000D03*
%TO.P,J2,3,Pin_3*%
%TO.N,Board_5-/BOOTN*%
X18020000Y-52000000D03*
%TO.P,J2,4,Pin_4*%
%TO.N,Board_5-/INT*%
X15480000Y-52000000D03*
%TD*%
D10*
%TO.P,J1,1,Pin_1*%
%TO.N,Board_3-GND*%
X102280000Y-9300000D03*
D11*
%TO.P,J1,2,Pin_2*%
%TO.N,Board_3-+3.3V*%
X99740000Y-9300000D03*
%TO.P,J1,3,Pin_3*%
%TO.N,Board_3-/SCL*%
X97200000Y-9300000D03*
%TO.P,J1,4,Pin_4*%
%TO.N,Board_3-/SDA*%
X94660000Y-9300000D03*
%TD*%
D10*
%TO.P,J2,1,Pin_1*%
%TO.N,Board_1-/CAP*%
X49500000Y-27300000D03*
D11*
%TO.P,J2,2,Pin_2*%
%TO.N,Board_1-/SA0*%
X46960000Y-27300000D03*
%TO.P,J2,3,Pin_3*%
%TO.N,Board_1-/BOOTN*%
X44420000Y-27300000D03*
%TO.P,J2,4,Pin_4*%
%TO.N,Board_1-/INT*%
X41880000Y-27300000D03*
%TD*%
D12*
%TO.P,R1,1*%
%TO.N,Board_17-+3.3V*%
X81800000Y-98750000D03*
D13*
%TO.P,R1,2*%
%TO.N,Board_17-Net-(U1-ENV_SCL)*%
X81800000Y-86050000D03*
%TD*%
D10*
%TO.P,J1,1,Pin_1*%
%TO.N,Board_16-GND*%
X49480000Y-83400000D03*
D11*
%TO.P,J1,2,Pin_2*%
%TO.N,Board_16-+3.3V*%
X46940000Y-83400000D03*
%TO.P,J1,3,Pin_3*%
%TO.N,Board_16-/SCL*%
X44400000Y-83400000D03*
%TO.P,J1,4,Pin_4*%
%TO.N,Board_16-/SDA*%
X41860000Y-83400000D03*
%TD*%
D10*
%TO.P,J1,1,Pin_1*%
%TO.N,Board_12-GND*%
X75880000Y-58700000D03*
D11*
%TO.P,J1,2,Pin_2*%
%TO.N,Board_12-+3.3V*%
X73340000Y-58700000D03*
%TO.P,J1,3,Pin_3*%
%TO.N,Board_12-/SCL*%
X70800000Y-58700000D03*
%TO.P,J1,4,Pin_4*%
%TO.N,Board_12-/SDA*%
X68260000Y-58700000D03*
%TD*%
D10*
%TO.P,J2,1,Pin_1*%
%TO.N,Board_2-/CAP*%
X75900000Y-27300000D03*
D11*
%TO.P,J2,2,Pin_2*%
%TO.N,Board_2-/SA0*%
X73360000Y-27300000D03*
%TO.P,J2,3,Pin_3*%
%TO.N,Board_2-/BOOTN*%
X70820000Y-27300000D03*
%TO.P,J2,4,Pin_4*%
%TO.N,Board_2-/INT*%
X68280000Y-27300000D03*
%TD*%
D10*
%TO.P,J2,1,Pin_1*%
%TO.N,Board_13-/CAP*%
X102300000Y-76700000D03*
D11*
%TO.P,J2,2,Pin_2*%
%TO.N,Board_13-/SA0*%
X99760000Y-76700000D03*
%TO.P,J2,3,Pin_3*%
%TO.N,Board_13-/BOOTN*%
X97220000Y-76700000D03*
%TO.P,J2,4,Pin_4*%
%TO.N,Board_13-/INT*%
X94680000Y-76700000D03*
%TD*%
D12*
%TO.P,R2,1*%
%TO.N,Board_18-Net-(U1-ENV_SDA)*%
X88600000Y-98750000D03*
D13*
%TO.P,R2,2*%
%TO.N,Board_18-+3.3V*%
X88600000Y-86050000D03*
%TD*%
D10*
%TO.P,J1,1,Pin_1*%
%TO.N,Board_19-GND*%
X128680000Y-83400000D03*
D11*
%TO.P,J1,2,Pin_2*%
%TO.N,Board_19-+3.3V*%
X126140000Y-83400000D03*
%TO.P,J1,3,Pin_3*%
%TO.N,Board_19-/SCL*%
X123600000Y-83400000D03*
%TO.P,J1,4,Pin_4*%
%TO.N,Board_19-/SDA*%
X121060000Y-83400000D03*
%TD*%
D12*
%TO.P,R2,1*%
%TO.N,Board_11-Net-(U1-ENV_SDA)*%
X35800000Y-74050000D03*
D13*
%TO.P,R2,2*%
%TO.N,Board_11-+3.3V*%
X35800000Y-61350000D03*
%TD*%
D12*
%TO.P,R1,1*%
%TO.N,Board_15-+3.3V*%
X29000000Y-98750000D03*
D13*
%TO.P,R1,2*%
%TO.N,Board_15-Net-(U1-ENV_SCL)*%
X29000000Y-86050000D03*
%TD*%
D12*
%TO.P,R1,1*%
%TO.N,Board_1-+3.3V*%
X55400000Y-24650000D03*
D13*
%TO.P,R1,2*%
%TO.N,Board_1-Net-(U1-ENV_SCL)*%
X55400000Y-11950000D03*
%TD*%
D10*
%TO.P,J2,1,Pin_1*%
%TO.N,Board_21-/CAP*%
X49500000Y-126100000D03*
D11*
%TO.P,J2,2,Pin_2*%
%TO.N,Board_21-/SA0*%
X46960000Y-126100000D03*
%TO.P,J2,3,Pin_3*%
%TO.N,Board_21-/BOOTN*%
X44420000Y-126100000D03*
%TO.P,J2,4,Pin_4*%
%TO.N,Board_21-/INT*%
X41880000Y-126100000D03*
%TD*%
D12*
%TO.P,R2,1*%
%TO.N,Board_24-Net-(U1-ENV_SDA)*%
X115000000Y-123450000D03*
D13*
%TO.P,R2,2*%
%TO.N,Board_24-+3.3V*%
X115000000Y-110750000D03*
%TD*%
D12*
%TO.P,R1,1*%
%TO.N,Board_16-+3.3V*%
X55400000Y-98750000D03*
D13*
%TO.P,R1,2*%
%TO.N,Board_16-Net-(U1-ENV_SCL)*%
X55400000Y-86050000D03*
%TD*%
D12*
%TO.P,R2,1*%
%TO.N,Board_13-Net-(U1-ENV_SDA)*%
X88600000Y-74050000D03*
D13*
%TO.P,R2,2*%
%TO.N,Board_13-+3.3V*%
X88600000Y-61350000D03*
%TD*%
D14*
%TO.P,REF\u002A\u002A,*%
%TO.N,*%
X2500000Y-2500000D03*
%TD*%
%TO.P,REF\u002A\u002A,*%
%TO.N,*%
X2500000Y-133000000D03*
%TD*%
%TO.P,REF\u002A\u002A,*%
%TO.N,*%
X141500000Y-2500000D03*
%TD*%
D15*
%TO.N,Board_0-/BOOTN*%
X12900000Y-26000000D03*
%TO.N,Board_0-/CAP*%
X17700000Y-23400000D03*
%TO.N,Board_0-/SCL*%
X26000000Y-16200000D03*
X14800000Y-12800000D03*
%TO.N,Board_0-/SDA*%
X22700000Y-14000000D03*
X13300000Y-12700000D03*
%TO.N,Board_0-GND*%
X18700000Y-14000000D03*
X15200000Y-21300000D03*
X15400000Y-16100000D03*
%TO.N,Board_0-Net-(U1-ENV_SCL)*%
X23000000Y-20700000D03*
X27900000Y-18500000D03*
%TO.N,Board_0-Net-(U1-ENV_SDA)*%
X22400000Y-23700000D03*
%TO.N,Board_1-/BOOTN*%
X39300000Y-26000000D03*
%TO.N,Board_1-/CAP*%
X44100000Y-23400000D03*
%TO.N,Board_1-/SCL*%
X52400000Y-16200000D03*
X41200000Y-12800000D03*
%TO.N,Board_1-/SDA*%
X49100000Y-14000000D03*
X39700000Y-12700000D03*
%TO.N,Board_1-GND*%
X41600000Y-21300000D03*
X45100000Y-14000000D03*
X41800000Y-16100000D03*
%TO.N,Board_1-Net-(U1-ENV_SCL)*%
X54300000Y-18500000D03*
X49400000Y-20700000D03*
%TO.N,Board_1-Net-(U1-ENV_SDA)*%
X48800000Y-23700000D03*
%TO.N,Board_2-/BOOTN*%
X65700000Y-26000000D03*
%TO.N,Board_2-/CAP*%
X70500000Y-23400000D03*
%TO.N,Board_2-/SCL*%
X67600000Y-12800000D03*
X78800000Y-16200000D03*
%TO.N,Board_2-/SDA*%
X75500000Y-14000000D03*
X66100000Y-12700000D03*
%TO.N,Board_2-GND*%
X68200000Y-16100000D03*
X68000000Y-21300000D03*
X71500000Y-14000000D03*
%TO.N,Board_2-Net-(U1-ENV_SCL)*%
X80700000Y-18500000D03*
X75800000Y-20700000D03*
%TO.N,Board_2-Net-(U1-ENV_SDA)*%
X75200000Y-23700000D03*
%TO.N,Board_3-/BOOTN*%
X92100000Y-26000000D03*
%TO.N,Board_3-/CAP*%
X96900000Y-23400000D03*
%TO.N,Board_3-/SCL*%
X94000000Y-12800000D03*
X105200000Y-16200000D03*
%TO.N,Board_3-/SDA*%
X92500000Y-12700000D03*
X101900000Y-14000000D03*
%TO.N,Board_3-GND*%
X94400000Y-21300000D03*
X94600000Y-16100000D03*
X97900000Y-14000000D03*
%TO.N,Board_3-Net-(U1-ENV_SCL)*%
X107100000Y-18500000D03*
X102200000Y-20700000D03*
%TO.N,Board_3-Net-(U1-ENV_SDA)*%
X101600000Y-23700000D03*
%TO.N,Board_4-/BOOTN*%
X118500000Y-26000000D03*
%TO.N,Board_4-/CAP*%
X123300000Y-23400000D03*
%TO.N,Board_4-/SCL*%
X120400000Y-12800000D03*
X131600000Y-16200000D03*
%TO.N,Board_4-/SDA*%
X118900000Y-12700000D03*
X128300000Y-14000000D03*
%TO.N,Board_4-GND*%
X120800000Y-21300000D03*
X121000000Y-16100000D03*
X124300000Y-14000000D03*
%TO.N,Board_4-Net-(U1-ENV_SCL)*%
X133500000Y-18500000D03*
X128600000Y-20700000D03*
%TO.N,Board_4-Net-(U1-ENV_SDA)*%
X128000000Y-23700000D03*
%TO.N,Board_5-/BOOTN*%
X12900000Y-50700000D03*
%TO.N,Board_5-/CAP*%
X17700000Y-48100000D03*
%TO.N,Board_5-/SCL*%
X14800000Y-37500000D03*
X26000000Y-40900000D03*
%TO.N,Board_5-/SDA*%
X13300000Y-37400000D03*
X22700000Y-38700000D03*
%TO.N,Board_5-GND*%
X15200000Y-46000000D03*
X18700000Y-38700000D03*
X15400000Y-40800000D03*
%TO.N,Board_5-Net-(U1-ENV_SCL)*%
X23000000Y-45400000D03*
X27900000Y-43200000D03*
%TO.N,Board_5-Net-(U1-ENV_SDA)*%
X22400000Y-48400000D03*
%TO.N,Board_6-/BOOTN*%
X39300000Y-50700000D03*
%TO.N,Board_6-/CAP*%
X44100000Y-48100000D03*
%TO.N,Board_6-/SCL*%
X52400000Y-40900000D03*
X41200000Y-37500000D03*
%TO.N,Board_6-/SDA*%
X39700000Y-37400000D03*
X49100000Y-38700000D03*
%TO.N,Board_6-GND*%
X41600000Y-46000000D03*
X45100000Y-38700000D03*
X41800000Y-40800000D03*
%TO.N,Board_6-Net-(U1-ENV_SCL)*%
X49400000Y-45400000D03*
X54300000Y-43200000D03*
%TO.N,Board_6-Net-(U1-ENV_SDA)*%
X48800000Y-48400000D03*
%TO.N,Board_7-/BOOTN*%
X65700000Y-50700000D03*
%TO.N,Board_7-/CAP*%
X70500000Y-48100000D03*
%TO.N,Board_7-/SCL*%
X78800000Y-40900000D03*
X67600000Y-37500000D03*
%TO.N,Board_7-/SDA*%
X66100000Y-37400000D03*
X75500000Y-38700000D03*
%TO.N,Board_7-GND*%
X68200000Y-40800000D03*
X71500000Y-38700000D03*
X68000000Y-46000000D03*
%TO.N,Board_7-Net-(U1-ENV_SCL)*%
X80700000Y-43200000D03*
X75800000Y-45400000D03*
%TO.N,Board_7-Net-(U1-ENV_SDA)*%
X75200000Y-48400000D03*
%TO.N,Board_8-/BOOTN*%
X92100000Y-50700000D03*
%TO.N,Board_8-/CAP*%
X96900000Y-48100000D03*
%TO.N,Board_8-/SCL*%
X94000000Y-37500000D03*
X105200000Y-40900000D03*
%TO.N,Board_8-/SDA*%
X92500000Y-37400000D03*
X101900000Y-38700000D03*
%TO.N,Board_8-GND*%
X97900000Y-38700000D03*
X94600000Y-40800000D03*
X94400000Y-46000000D03*
%TO.N,Board_8-Net-(U1-ENV_SCL)*%
X102200000Y-45400000D03*
X107100000Y-43200000D03*
%TO.N,Board_8-Net-(U1-ENV_SDA)*%
X101600000Y-48400000D03*
%TO.N,Board_9-/BOOTN*%
X118500000Y-50700000D03*
%TO.N,Board_9-/CAP*%
X123300000Y-48100000D03*
%TO.N,Board_9-/SCL*%
X120400000Y-37500000D03*
X131600000Y-40900000D03*
%TO.N,Board_9-/SDA*%
X118900000Y-37400000D03*
X128300000Y-38700000D03*
%TO.N,Board_9-GND*%
X121000000Y-40800000D03*
X120800000Y-46000000D03*
X124300000Y-38700000D03*
%TO.N,Board_9-Net-(U1-ENV_SCL)*%
X128600000Y-45400000D03*
X133500000Y-43200000D03*
%TO.N,Board_9-Net-(U1-ENV_SDA)*%
X128000000Y-48400000D03*
%TO.N,Board_10-/BOOTN*%
X12900000Y-75400000D03*
%TO.N,Board_10-/CAP*%
X17700000Y-72800000D03*
%TO.N,Board_10-/SCL*%
X26000000Y-65600000D03*
X14800000Y-62200000D03*
%TO.N,Board_10-/SDA*%
X22700000Y-63400000D03*
X13300000Y-62100000D03*
%TO.N,Board_10-GND*%
X15400000Y-65500000D03*
X18700000Y-63400000D03*
X15200000Y-70700000D03*
%TO.N,Board_10-Net-(U1-ENV_SCL)*%
X27900000Y-67900000D03*
X23000000Y-70100000D03*
%TO.N,Board_10-Net-(U1-ENV_SDA)*%
X22400000Y-73100000D03*
%TO.N,Board_11-/BOOTN*%
X39300000Y-75400000D03*
%TO.N,Board_11-/CAP*%
X44100000Y-72800000D03*
%TO.N,Board_11-/SCL*%
X52400000Y-65600000D03*
X41200000Y-62200000D03*
%TO.N,Board_11-/SDA*%
X49100000Y-63400000D03*
X39700000Y-62100000D03*
%TO.N,Board_11-GND*%
X41600000Y-70700000D03*
X45100000Y-63400000D03*
X41800000Y-65500000D03*
%TO.N,Board_11-Net-(U1-ENV_SCL)*%
X49400000Y-70100000D03*
X54300000Y-67900000D03*
%TO.N,Board_11-Net-(U1-ENV_SDA)*%
X48800000Y-73100000D03*
%TO.N,Board_12-/BOOTN*%
X65700000Y-75400000D03*
%TO.N,Board_12-/CAP*%
X70500000Y-72800000D03*
%TO.N,Board_12-/SCL*%
X78800000Y-65600000D03*
X67600000Y-62200000D03*
%TO.N,Board_12-/SDA*%
X66100000Y-62100000D03*
X75500000Y-63400000D03*
%TO.N,Board_12-GND*%
X71500000Y-63400000D03*
X68000000Y-70700000D03*
X68200000Y-65500000D03*
%TO.N,Board_12-Net-(U1-ENV_SCL)*%
X75800000Y-70100000D03*
X80700000Y-67900000D03*
%TO.N,Board_12-Net-(U1-ENV_SDA)*%
X75200000Y-73100000D03*
%TO.N,Board_13-/BOOTN*%
X92100000Y-75400000D03*
%TO.N,Board_13-/CAP*%
X96900000Y-72800000D03*
%TO.N,Board_13-/SCL*%
X105200000Y-65600000D03*
X94000000Y-62200000D03*
%TO.N,Board_13-/SDA*%
X92500000Y-62100000D03*
X101900000Y-63400000D03*
%TO.N,Board_13-GND*%
X97900000Y-63400000D03*
X94600000Y-65500000D03*
X94400000Y-70700000D03*
%TO.N,Board_13-Net-(U1-ENV_SCL)*%
X102200000Y-70100000D03*
X107100000Y-67900000D03*
%TO.N,Board_13-Net-(U1-ENV_SDA)*%
X101600000Y-73100000D03*
%TO.N,Board_14-/BOOTN*%
X118500000Y-75400000D03*
%TO.N,Board_14-/CAP*%
X123300000Y-72800000D03*
%TO.N,Board_14-/SCL*%
X131600000Y-65600000D03*
X120400000Y-62200000D03*
%TO.N,Board_14-/SDA*%
X128300000Y-63400000D03*
X118900000Y-62100000D03*
%TO.N,Board_14-GND*%
X121000000Y-65500000D03*
X124300000Y-63400000D03*
X120800000Y-70700000D03*
%TO.N,Board_14-Net-(U1-ENV_SCL)*%
X133500000Y-67900000D03*
X128600000Y-70100000D03*
%TO.N,Board_14-Net-(U1-ENV_SDA)*%
X128000000Y-73100000D03*
%TO.N,Board_15-/BOOTN*%
X12900000Y-100100000D03*
%TO.N,Board_15-/CAP*%
X17700000Y-97500000D03*
%TO.N,Board_15-/SCL*%
X26000000Y-90300000D03*
X14800000Y-86900000D03*
%TO.N,Board_15-/SDA*%
X13300000Y-86800000D03*
X22700000Y-88100000D03*
%TO.N,Board_15-GND*%
X15400000Y-90200000D03*
X18700000Y-88100000D03*
X15200000Y-95400000D03*
%TO.N,Board_15-Net-(U1-ENV_SCL)*%
X23000000Y-94800000D03*
X27900000Y-92600000D03*
%TO.N,Board_15-Net-(U1-ENV_SDA)*%
X22400000Y-97800000D03*
%TO.N,Board_16-/BOOTN*%
X39300000Y-100100000D03*
%TO.N,Board_16-/CAP*%
X44100000Y-97500000D03*
%TO.N,Board_16-/SCL*%
X52400000Y-90300000D03*
X41200000Y-86900000D03*
%TO.N,Board_16-/SDA*%
X39700000Y-86800000D03*
X49100000Y-88100000D03*
%TO.N,Board_16-GND*%
X41600000Y-95400000D03*
X41800000Y-90200000D03*
X45100000Y-88100000D03*
%TO.N,Board_16-Net-(U1-ENV_SCL)*%
X49400000Y-94800000D03*
X54300000Y-92600000D03*
%TO.N,Board_16-Net-(U1-ENV_SDA)*%
X48800000Y-97800000D03*
%TO.N,Board_17-/BOOTN*%
X65700000Y-100100000D03*
%TO.N,Board_17-/CAP*%
X70500000Y-97500000D03*
%TO.N,Board_17-/SCL*%
X78800000Y-90300000D03*
X67600000Y-86900000D03*
%TO.N,Board_17-/SDA*%
X66100000Y-86800000D03*
X75500000Y-88100000D03*
%TO.N,Board_17-GND*%
X68200000Y-90200000D03*
X68000000Y-95400000D03*
X71500000Y-88100000D03*
%TO.N,Board_17-Net-(U1-ENV_SCL)*%
X75800000Y-94800000D03*
X80700000Y-92600000D03*
%TO.N,Board_17-Net-(U1-ENV_SDA)*%
X75200000Y-97800000D03*
%TO.N,Board_18-/BOOTN*%
X92100000Y-100100000D03*
%TO.N,Board_18-/CAP*%
X96900000Y-97500000D03*
%TO.N,Board_18-/SCL*%
X105200000Y-90300000D03*
X94000000Y-86900000D03*
%TO.N,Board_18-/SDA*%
X92500000Y-86800000D03*
X101900000Y-88100000D03*
%TO.N,Board_18-GND*%
X94600000Y-90200000D03*
X94400000Y-95400000D03*
X97900000Y-88100000D03*
%TO.N,Board_18-Net-(U1-ENV_SCL)*%
X107100000Y-92600000D03*
X102200000Y-94800000D03*
%TO.N,Board_18-Net-(U1-ENV_SDA)*%
X101600000Y-97800000D03*
%TO.N,Board_19-/BOOTN*%
X118500000Y-100100000D03*
%TO.N,Board_19-/CAP*%
X123300000Y-97500000D03*
%TO.N,Board_19-/SCL*%
X131600000Y-90300000D03*
X120400000Y-86900000D03*
%TO.N,Board_19-/SDA*%
X118900000Y-86800000D03*
X128300000Y-88100000D03*
%TO.N,Board_19-GND*%
X120800000Y-95400000D03*
X121000000Y-90200000D03*
X124300000Y-88100000D03*
%TO.N,Board_19-Net-(U1-ENV_SCL)*%
X128600000Y-94800000D03*
X133500000Y-92600000D03*
%TO.N,Board_19-Net-(U1-ENV_SDA)*%
X128000000Y-97800000D03*
%TO.N,Board_20-/BOOTN*%
X12900000Y-124800000D03*
%TO.N,Board_20-/CAP*%
X17700000Y-122200000D03*
%TO.N,Board_20-/SCL*%
X26000000Y-115000000D03*
X14800000Y-111600000D03*
%TO.N,Board_20-/SDA*%
X22700000Y-112800000D03*
X13300000Y-111500000D03*
%TO.N,Board_20-GND*%
X15400000Y-114900000D03*
X15200000Y-120100000D03*
X18700000Y-112800000D03*
%TO.N,Board_20-Net-(U1-ENV_SCL)*%
X23000000Y-119500000D03*
X27900000Y-117300000D03*
%TO.N,Board_20-Net-(U1-ENV_SDA)*%
X22400000Y-122500000D03*
%TO.N,Board_21-/BOOTN*%
X39300000Y-124800000D03*
%TO.N,Board_21-/CAP*%
X44100000Y-122200000D03*
%TO.N,Board_21-/SCL*%
X52400000Y-115000000D03*
X41200000Y-111600000D03*
%TO.N,Board_21-/SDA*%
X49100000Y-112800000D03*
X39700000Y-111500000D03*
%TO.N,Board_21-GND*%
X41800000Y-114900000D03*
X45100000Y-112800000D03*
X41600000Y-120100000D03*
%TO.N,Board_21-Net-(U1-ENV_SCL)*%
X49400000Y-119500000D03*
X54300000Y-117300000D03*
%TO.N,Board_21-Net-(U1-ENV_SDA)*%
X48800000Y-122500000D03*
%TO.N,Board_22-/BOOTN*%
X65700000Y-124800000D03*
%TO.N,Board_22-/CAP*%
X70500000Y-122200000D03*
%TO.N,Board_22-/SCL*%
X78800000Y-115000000D03*
X67600000Y-111600000D03*
%TO.N,Board_22-/SDA*%
X66100000Y-111500000D03*
X75500000Y-112800000D03*
%TO.N,Board_22-GND*%
X68200000Y-114900000D03*
X68000000Y-120100000D03*
X71500000Y-112800000D03*
%TO.N,Board_22-Net-(U1-ENV_SCL)*%
X75800000Y-119500000D03*
X80700000Y-117300000D03*
%TO.N,Board_22-Net-(U1-ENV_SDA)*%
X75200000Y-122500000D03*
%TO.N,Board_23-/BOOTN*%
X92100000Y-124800000D03*
%TO.N,Board_23-/CAP*%
X96900000Y-122200000D03*
%TO.N,Board_23-/SCL*%
X94000000Y-111600000D03*
X105200000Y-115000000D03*
%TO.N,Board_23-/SDA*%
X101900000Y-112800000D03*
X92500000Y-111500000D03*
%TO.N,Board_23-GND*%
X97900000Y-112800000D03*
X94600000Y-114900000D03*
X94400000Y-120100000D03*
%TO.N,Board_23-Net-(U1-ENV_SCL)*%
X102200000Y-119500000D03*
X107100000Y-117300000D03*
%TO.N,Board_23-Net-(U1-ENV_SDA)*%
X101600000Y-122500000D03*
%TO.N,Board_24-/BOOTN*%
X118500000Y-124800000D03*
%TO.N,Board_24-/CAP*%
X123300000Y-122200000D03*
%TO.N,Board_24-/SCL*%
X120400000Y-111600000D03*
X131600000Y-115000000D03*
%TO.N,Board_24-/SDA*%
X118900000Y-111500000D03*
X128300000Y-112800000D03*
%TO.N,Board_24-GND*%
X120800000Y-120100000D03*
X121000000Y-114900000D03*
X124300000Y-112800000D03*
%TO.N,Board_24-Net-(U1-ENV_SCL)*%
X133500000Y-117300000D03*
X128600000Y-119500000D03*
%TO.N,Board_24-Net-(U1-ENV_SDA)*%
X128000000Y-122500000D03*
%TD*%
D16*
%TO.N,Board_0-+3.3V*%
X29000000Y-17760000D02*
X20540000Y-9300000D01*
X17890000Y-11950000D02*
X20540000Y-9300000D01*
X9400000Y-11950000D02*
X17890000Y-11950000D01*
X29000000Y-24650000D02*
X29000000Y-17760000D01*
%TO.N,Board_0-/BOOTN*%
X16720000Y-26000000D02*
X12900000Y-26000000D01*
X18020000Y-27300000D02*
X16720000Y-26000000D01*
%TO.N,Board_0-/CAP*%
X22727701Y-22927701D02*
X18172299Y-22927701D01*
X23125000Y-23325000D02*
X22727701Y-22927701D01*
X23100000Y-27300000D02*
X23125000Y-27275000D01*
X23125000Y-27275000D02*
X23125000Y-23325000D01*
X18172299Y-22927701D02*
X17700000Y-23400000D01*
%TO.N,Board_0-/SCL*%
X14800000Y-12800000D02*
X22600000Y-12800000D01*
X22600000Y-12800000D02*
X26000000Y-16200000D01*
%TO.N,Board_0-/SDA*%
X21975000Y-13275000D02*
X22700000Y-14000000D01*
X18149695Y-13525000D02*
X18399695Y-13275000D01*
X18399695Y-13275000D02*
X21975000Y-13275000D01*
X14125000Y-13525000D02*
X18149695Y-13525000D01*
X13300000Y-12700000D02*
X14125000Y-13525000D01*
%TO.N,Board_0-GND*%
X15400000Y-16100000D02*
X17500000Y-14000000D01*
X15200000Y-21300000D02*
X15200000Y-16300000D01*
X17500000Y-14000000D02*
X18700000Y-14000000D01*
X15200000Y-16300000D02*
X15400000Y-16100000D01*
%TO.N,Board_0-Net-(U1-ENV_SCL)*%
X23000000Y-20700000D02*
X25200000Y-18500000D01*
X25200000Y-18500000D02*
X27900000Y-18500000D01*
%TO.N,Board_0-Net-(U1-ENV_SDA)*%
X22400000Y-23700000D02*
X21800000Y-23700000D01*
X20850000Y-24650000D02*
X9400000Y-24650000D01*
X21800000Y-23700000D02*
X20850000Y-24650000D01*
%TO.N,Board_1-+3.3V*%
X35800000Y-11950000D02*
X44290000Y-11950000D01*
X55400000Y-24650000D02*
X55400000Y-17760000D01*
X55400000Y-17760000D02*
X46940000Y-9300000D01*
X44290000Y-11950000D02*
X46940000Y-9300000D01*
%TO.N,Board_1-/BOOTN*%
X43120000Y-26000000D02*
X39300000Y-26000000D01*
X44420000Y-27300000D02*
X43120000Y-26000000D01*
%TO.N,Board_1-/CAP*%
X44572299Y-22927701D02*
X44100000Y-23400000D01*
X49525000Y-23325000D02*
X49127701Y-22927701D01*
X49127701Y-22927701D02*
X44572299Y-22927701D01*
X49500000Y-27300000D02*
X49525000Y-27275000D01*
X49525000Y-27275000D02*
X49525000Y-23325000D01*
%TO.N,Board_1-/SCL*%
X49000000Y-12800000D02*
X52400000Y-16200000D01*
X41200000Y-12800000D02*
X49000000Y-12800000D01*
%TO.N,Board_1-/SDA*%
X48375000Y-13275000D02*
X49100000Y-14000000D01*
X40525000Y-13525000D02*
X44549695Y-13525000D01*
X44549695Y-13525000D02*
X44799695Y-13275000D01*
X39700000Y-12700000D02*
X40525000Y-13525000D01*
X44799695Y-13275000D02*
X48375000Y-13275000D01*
%TO.N,Board_1-GND*%
X41600000Y-21300000D02*
X41600000Y-16300000D01*
X43900000Y-14000000D02*
X45100000Y-14000000D01*
X41800000Y-16100000D02*
X43900000Y-14000000D01*
X41600000Y-16300000D02*
X41800000Y-16100000D01*
%TO.N,Board_1-Net-(U1-ENV_SCL)*%
X51600000Y-18500000D02*
X54300000Y-18500000D01*
X49400000Y-20700000D02*
X51600000Y-18500000D01*
%TO.N,Board_1-Net-(U1-ENV_SDA)*%
X48800000Y-23700000D02*
X48200000Y-23700000D01*
X48200000Y-23700000D02*
X47250000Y-24650000D01*
X47250000Y-24650000D02*
X35800000Y-24650000D01*
%TO.N,Board_2-+3.3V*%
X81800000Y-24650000D02*
X81800000Y-17760000D01*
X81800000Y-17760000D02*
X73340000Y-9300000D01*
X62200000Y-11950000D02*
X70690000Y-11950000D01*
X70690000Y-11950000D02*
X73340000Y-9300000D01*
%TO.N,Board_2-/BOOTN*%
X69520000Y-26000000D02*
X65700000Y-26000000D01*
X70820000Y-27300000D02*
X69520000Y-26000000D01*
%TO.N,Board_2-/CAP*%
X75527701Y-22927701D02*
X70972299Y-22927701D01*
X70972299Y-22927701D02*
X70500000Y-23400000D01*
X75925000Y-23325000D02*
X75527701Y-22927701D01*
X75925000Y-27275000D02*
X75925000Y-23325000D01*
X75900000Y-27300000D02*
X75925000Y-27275000D01*
%TO.N,Board_2-/SCL*%
X75400000Y-12800000D02*
X78800000Y-16200000D01*
X67600000Y-12800000D02*
X75400000Y-12800000D01*
%TO.N,Board_2-/SDA*%
X70949695Y-13525000D02*
X71199695Y-13275000D01*
X66925000Y-13525000D02*
X70949695Y-13525000D01*
X74775000Y-13275000D02*
X75500000Y-14000000D01*
X66100000Y-12700000D02*
X66925000Y-13525000D01*
X71199695Y-13275000D02*
X74775000Y-13275000D01*
%TO.N,Board_2-GND*%
X68200000Y-16100000D02*
X70300000Y-14000000D01*
X70300000Y-14000000D02*
X71500000Y-14000000D01*
X68000000Y-16300000D02*
X68200000Y-16100000D01*
X68000000Y-21300000D02*
X68000000Y-16300000D01*
%TO.N,Board_2-Net-(U1-ENV_SCL)*%
X78000000Y-18500000D02*
X80700000Y-18500000D01*
X75800000Y-20700000D02*
X78000000Y-18500000D01*
%TO.N,Board_2-Net-(U1-ENV_SDA)*%
X75200000Y-23700000D02*
X74600000Y-23700000D01*
X74600000Y-23700000D02*
X73650000Y-24650000D01*
X73650000Y-24650000D02*
X62200000Y-24650000D01*
%TO.N,Board_3-+3.3V*%
X97090000Y-11950000D02*
X99740000Y-9300000D01*
X108200000Y-24650000D02*
X108200000Y-17760000D01*
X108200000Y-17760000D02*
X99740000Y-9300000D01*
X88600000Y-11950000D02*
X97090000Y-11950000D01*
%TO.N,Board_3-/BOOTN*%
X95920000Y-26000000D02*
X92100000Y-26000000D01*
X97220000Y-27300000D02*
X95920000Y-26000000D01*
%TO.N,Board_3-/CAP*%
X97372299Y-22927701D02*
X96900000Y-23400000D01*
X101927701Y-22927701D02*
X97372299Y-22927701D01*
X102325000Y-27275000D02*
X102325000Y-23325000D01*
X102300000Y-27300000D02*
X102325000Y-27275000D01*
X102325000Y-23325000D02*
X101927701Y-22927701D01*
%TO.N,Board_3-/SCL*%
X94000000Y-12800000D02*
X101800000Y-12800000D01*
X101800000Y-12800000D02*
X105200000Y-16200000D01*
%TO.N,Board_3-/SDA*%
X97349695Y-13525000D02*
X97599695Y-13275000D01*
X93325000Y-13525000D02*
X97349695Y-13525000D01*
X101175000Y-13275000D02*
X101900000Y-14000000D01*
X92500000Y-12700000D02*
X93325000Y-13525000D01*
X97599695Y-13275000D02*
X101175000Y-13275000D01*
%TO.N,Board_3-GND*%
X94600000Y-16100000D02*
X96700000Y-14000000D01*
X96700000Y-14000000D02*
X97900000Y-14000000D01*
X94400000Y-21300000D02*
X94400000Y-16300000D01*
X94400000Y-16300000D02*
X94600000Y-16100000D01*
%TO.N,Board_3-Net-(U1-ENV_SCL)*%
X102200000Y-20700000D02*
X104400000Y-18500000D01*
X104400000Y-18500000D02*
X107100000Y-18500000D01*
%TO.N,Board_3-Net-(U1-ENV_SDA)*%
X100050000Y-24650000D02*
X88600000Y-24650000D01*
X101600000Y-23700000D02*
X101000000Y-23700000D01*
X101000000Y-23700000D02*
X100050000Y-24650000D01*
%TO.N,Board_4-+3.3V*%
X115000000Y-11950000D02*
X123490000Y-11950000D01*
X134600000Y-24650000D02*
X134600000Y-17760000D01*
X134600000Y-17760000D02*
X126140000Y-9300000D01*
X123490000Y-11950000D02*
X126140000Y-9300000D01*
%TO.N,Board_4-/BOOTN*%
X123620000Y-27300000D02*
X122320000Y-26000000D01*
X122320000Y-26000000D02*
X118500000Y-26000000D01*
%TO.N,Board_4-/CAP*%
X128725000Y-27275000D02*
X128725000Y-23325000D01*
X128327701Y-22927701D02*
X123772299Y-22927701D01*
X128725000Y-23325000D02*
X128327701Y-22927701D01*
X128700000Y-27300000D02*
X128725000Y-27275000D01*
X123772299Y-22927701D02*
X123300000Y-23400000D01*
%TO.N,Board_4-/SCL*%
X128200000Y-12800000D02*
X131600000Y-16200000D01*
X120400000Y-12800000D02*
X128200000Y-12800000D01*
%TO.N,Board_4-/SDA*%
X119725000Y-13525000D02*
X123749695Y-13525000D01*
X118900000Y-12700000D02*
X119725000Y-13525000D01*
X123999695Y-13275000D02*
X127575000Y-13275000D01*
X123749695Y-13525000D02*
X123999695Y-13275000D01*
X127575000Y-13275000D02*
X128300000Y-14000000D01*
%TO.N,Board_4-GND*%
X120800000Y-16300000D02*
X121000000Y-16100000D01*
X123100000Y-14000000D02*
X124300000Y-14000000D01*
X121000000Y-16100000D02*
X123100000Y-14000000D01*
X120800000Y-21300000D02*
X120800000Y-16300000D01*
%TO.N,Board_4-Net-(U1-ENV_SCL)*%
X128600000Y-20700000D02*
X130800000Y-18500000D01*
X130800000Y-18500000D02*
X133500000Y-18500000D01*
%TO.N,Board_4-Net-(U1-ENV_SDA)*%
X127400000Y-23700000D02*
X126450000Y-24650000D01*
X126450000Y-24650000D02*
X115000000Y-24650000D01*
X128000000Y-23700000D02*
X127400000Y-23700000D01*
%TO.N,Board_5-+3.3V*%
X29000000Y-42460000D02*
X20540000Y-34000000D01*
X29000000Y-49350000D02*
X29000000Y-42460000D01*
X9400000Y-36650000D02*
X17890000Y-36650000D01*
X17890000Y-36650000D02*
X20540000Y-34000000D01*
%TO.N,Board_5-/BOOTN*%
X18020000Y-52000000D02*
X16720000Y-50700000D01*
X16720000Y-50700000D02*
X12900000Y-50700000D01*
%TO.N,Board_5-/CAP*%
X22727701Y-47627701D02*
X18172299Y-47627701D01*
X23125000Y-51975000D02*
X23125000Y-48025000D01*
X23100000Y-52000000D02*
X23125000Y-51975000D01*
X23125000Y-48025000D02*
X22727701Y-47627701D01*
X18172299Y-47627701D02*
X17700000Y-48100000D01*
%TO.N,Board_5-/SCL*%
X14800000Y-37500000D02*
X22600000Y-37500000D01*
X22600000Y-37500000D02*
X26000000Y-40900000D01*
%TO.N,Board_5-/SDA*%
X21975000Y-37975000D02*
X22700000Y-38700000D01*
X18149695Y-38225000D02*
X18399695Y-37975000D01*
X14125000Y-38225000D02*
X18149695Y-38225000D01*
X18399695Y-37975000D02*
X21975000Y-37975000D01*
X13300000Y-37400000D02*
X14125000Y-38225000D01*
%TO.N,Board_5-GND*%
X17500000Y-38700000D02*
X18700000Y-38700000D01*
X15200000Y-46000000D02*
X15200000Y-41000000D01*
X15400000Y-40800000D02*
X17500000Y-38700000D01*
X15200000Y-41000000D02*
X15400000Y-40800000D01*
%TO.N,Board_5-Net-(U1-ENV_SCL)*%
X23000000Y-45400000D02*
X25200000Y-43200000D01*
X25200000Y-43200000D02*
X27900000Y-43200000D01*
%TO.N,Board_5-Net-(U1-ENV_SDA)*%
X22400000Y-48400000D02*
X21800000Y-48400000D01*
X21800000Y-48400000D02*
X20850000Y-49350000D01*
X20850000Y-49350000D02*
X9400000Y-49350000D01*
%TO.N,Board_6-+3.3V*%
X55400000Y-49350000D02*
X55400000Y-42460000D01*
X44290000Y-36650000D02*
X46940000Y-34000000D01*
X35800000Y-36650000D02*
X44290000Y-36650000D01*
X55400000Y-42460000D02*
X46940000Y-34000000D01*
%TO.N,Board_6-/BOOTN*%
X44420000Y-52000000D02*
X43120000Y-50700000D01*
X43120000Y-50700000D02*
X39300000Y-50700000D01*
%TO.N,Board_6-/CAP*%
X49525000Y-51975000D02*
X49525000Y-48025000D01*
X49525000Y-48025000D02*
X49127701Y-47627701D01*
X44572299Y-47627701D02*
X44100000Y-48100000D01*
X49500000Y-52000000D02*
X49525000Y-51975000D01*
X49127701Y-47627701D02*
X44572299Y-47627701D01*
%TO.N,Board_6-/SCL*%
X41200000Y-37500000D02*
X49000000Y-37500000D01*
X49000000Y-37500000D02*
X52400000Y-40900000D01*
%TO.N,Board_6-/SDA*%
X40525000Y-38225000D02*
X44549695Y-38225000D01*
X44799695Y-37975000D02*
X48375000Y-37975000D01*
X44549695Y-38225000D02*
X44799695Y-37975000D01*
X48375000Y-37975000D02*
X49100000Y-38700000D01*
X39700000Y-37400000D02*
X40525000Y-38225000D01*
%TO.N,Board_6-GND*%
X41600000Y-46000000D02*
X41600000Y-41000000D01*
X41600000Y-41000000D02*
X41800000Y-40800000D01*
X43900000Y-38700000D02*
X45100000Y-38700000D01*
X41800000Y-40800000D02*
X43900000Y-38700000D01*
%TO.N,Board_6-Net-(U1-ENV_SCL)*%
X49400000Y-45400000D02*
X51600000Y-43200000D01*
X51600000Y-43200000D02*
X54300000Y-43200000D01*
%TO.N,Board_6-Net-(U1-ENV_SDA)*%
X47250000Y-49350000D02*
X35800000Y-49350000D01*
X48800000Y-48400000D02*
X48200000Y-48400000D01*
X48200000Y-48400000D02*
X47250000Y-49350000D01*
%TO.N,Board_7-+3.3V*%
X81800000Y-49350000D02*
X81800000Y-42460000D01*
X70690000Y-36650000D02*
X73340000Y-34000000D01*
X62200000Y-36650000D02*
X70690000Y-36650000D01*
X81800000Y-42460000D02*
X73340000Y-34000000D01*
%TO.N,Board_7-/BOOTN*%
X70820000Y-52000000D02*
X69520000Y-50700000D01*
X69520000Y-50700000D02*
X65700000Y-50700000D01*
%TO.N,Board_7-/CAP*%
X75925000Y-48025000D02*
X75527701Y-47627701D01*
X75527701Y-47627701D02*
X70972299Y-47627701D01*
X75900000Y-52000000D02*
X75925000Y-51975000D01*
X70972299Y-47627701D02*
X70500000Y-48100000D01*
X75925000Y-51975000D02*
X75925000Y-48025000D01*
%TO.N,Board_7-/SCL*%
X75400000Y-37500000D02*
X78800000Y-40900000D01*
X67600000Y-37500000D02*
X75400000Y-37500000D01*
%TO.N,Board_7-/SDA*%
X66100000Y-37400000D02*
X66925000Y-38225000D01*
X66925000Y-38225000D02*
X70949695Y-38225000D01*
X71199695Y-37975000D02*
X74775000Y-37975000D01*
X74775000Y-37975000D02*
X75500000Y-38700000D01*
X70949695Y-38225000D02*
X71199695Y-37975000D01*
%TO.N,Board_7-GND*%
X70300000Y-38700000D02*
X71500000Y-38700000D01*
X68200000Y-40800000D02*
X70300000Y-38700000D01*
X68000000Y-41000000D02*
X68200000Y-40800000D01*
X68000000Y-46000000D02*
X68000000Y-41000000D01*
%TO.N,Board_7-Net-(U1-ENV_SCL)*%
X78000000Y-43200000D02*
X80700000Y-43200000D01*
X75800000Y-45400000D02*
X78000000Y-43200000D01*
%TO.N,Board_7-Net-(U1-ENV_SDA)*%
X73650000Y-49350000D02*
X62200000Y-49350000D01*
X75200000Y-48400000D02*
X74600000Y-48400000D01*
X74600000Y-48400000D02*
X73650000Y-49350000D01*
%TO.N,Board_8-+3.3V*%
X88600000Y-36650000D02*
X97090000Y-36650000D01*
X108200000Y-49350000D02*
X108200000Y-42460000D01*
X97090000Y-36650000D02*
X99740000Y-34000000D01*
X108200000Y-42460000D02*
X99740000Y-34000000D01*
%TO.N,Board_8-/BOOTN*%
X97220000Y-52000000D02*
X95920000Y-50700000D01*
X95920000Y-50700000D02*
X92100000Y-50700000D01*
%TO.N,Board_8-/CAP*%
X97372299Y-47627701D02*
X96900000Y-48100000D01*
X102325000Y-51975000D02*
X102325000Y-48025000D01*
X101927701Y-47627701D02*
X97372299Y-47627701D01*
X102300000Y-52000000D02*
X102325000Y-51975000D01*
X102325000Y-48025000D02*
X101927701Y-47627701D01*
%TO.N,Board_8-/SCL*%
X101800000Y-37500000D02*
X105200000Y-40900000D01*
X94000000Y-37500000D02*
X101800000Y-37500000D01*
%TO.N,Board_8-/SDA*%
X92500000Y-37400000D02*
X93325000Y-38225000D01*
X101175000Y-37975000D02*
X101900000Y-38700000D01*
X97349695Y-38225000D02*
X97599695Y-37975000D01*
X97599695Y-37975000D02*
X101175000Y-37975000D01*
X93325000Y-38225000D02*
X97349695Y-38225000D01*
%TO.N,Board_8-GND*%
X94400000Y-41000000D02*
X94600000Y-40800000D01*
X94600000Y-40800000D02*
X96700000Y-38700000D01*
X96700000Y-38700000D02*
X97900000Y-38700000D01*
X94400000Y-46000000D02*
X94400000Y-41000000D01*
%TO.N,Board_8-Net-(U1-ENV_SCL)*%
X102200000Y-45400000D02*
X104400000Y-43200000D01*
X104400000Y-43200000D02*
X107100000Y-43200000D01*
%TO.N,Board_8-Net-(U1-ENV_SDA)*%
X101000000Y-48400000D02*
X100050000Y-49350000D01*
X100050000Y-49350000D02*
X88600000Y-49350000D01*
X101600000Y-48400000D02*
X101000000Y-48400000D01*
%TO.N,Board_9-+3.3V*%
X134600000Y-49350000D02*
X134600000Y-42460000D01*
X123490000Y-36650000D02*
X126140000Y-34000000D01*
X134600000Y-42460000D02*
X126140000Y-34000000D01*
X115000000Y-36650000D02*
X123490000Y-36650000D01*
%TO.N,Board_9-/BOOTN*%
X122320000Y-50700000D02*
X118500000Y-50700000D01*
X123620000Y-52000000D02*
X122320000Y-50700000D01*
%TO.N,Board_9-/CAP*%
X128725000Y-48025000D02*
X128327701Y-47627701D01*
X128700000Y-52000000D02*
X128725000Y-51975000D01*
X123772299Y-47627701D02*
X123300000Y-48100000D01*
X128327701Y-47627701D02*
X123772299Y-47627701D01*
X128725000Y-51975000D02*
X128725000Y-48025000D01*
%TO.N,Board_9-/SCL*%
X128200000Y-37500000D02*
X131600000Y-40900000D01*
X120400000Y-37500000D02*
X128200000Y-37500000D01*
%TO.N,Board_9-/SDA*%
X119725000Y-38225000D02*
X123749695Y-38225000D01*
X123749695Y-38225000D02*
X123999695Y-37975000D01*
X118900000Y-37400000D02*
X119725000Y-38225000D01*
X127575000Y-37975000D02*
X128300000Y-38700000D01*
X123999695Y-37975000D02*
X127575000Y-37975000D01*
%TO.N,Board_9-GND*%
X121000000Y-40800000D02*
X123100000Y-38700000D01*
X123100000Y-38700000D02*
X124300000Y-38700000D01*
X120800000Y-41000000D02*
X121000000Y-40800000D01*
X120800000Y-46000000D02*
X120800000Y-41000000D01*
%TO.N,Board_9-Net-(U1-ENV_SCL)*%
X130800000Y-43200000D02*
X133500000Y-43200000D01*
X128600000Y-45400000D02*
X130800000Y-43200000D01*
%TO.N,Board_9-Net-(U1-ENV_SDA)*%
X127400000Y-48400000D02*
X126450000Y-49350000D01*
X128000000Y-48400000D02*
X127400000Y-48400000D01*
X126450000Y-49350000D02*
X115000000Y-49350000D01*
%TO.N,Board_10-+3.3V*%
X29000000Y-67160000D02*
X20540000Y-58700000D01*
X29000000Y-74050000D02*
X29000000Y-67160000D01*
X17890000Y-61350000D02*
X20540000Y-58700000D01*
X9400000Y-61350000D02*
X17890000Y-61350000D01*
%TO.N,Board_10-/BOOTN*%
X16720000Y-75400000D02*
X12900000Y-75400000D01*
X18020000Y-76700000D02*
X16720000Y-75400000D01*
%TO.N,Board_10-/CAP*%
X23125000Y-76675000D02*
X23125000Y-72725000D01*
X23125000Y-72725000D02*
X22727701Y-72327701D01*
X18172299Y-72327701D02*
X17700000Y-72800000D01*
X23100000Y-76700000D02*
X23125000Y-76675000D01*
X22727701Y-72327701D02*
X18172299Y-72327701D01*
%TO.N,Board_10-/SCL*%
X22600000Y-62200000D02*
X26000000Y-65600000D01*
X14800000Y-62200000D02*
X22600000Y-62200000D01*
%TO.N,Board_10-/SDA*%
X14125000Y-62925000D02*
X18149695Y-62925000D01*
X18399695Y-62675000D02*
X21975000Y-62675000D01*
X13300000Y-62100000D02*
X14125000Y-62925000D01*
X18149695Y-62925000D02*
X18399695Y-62675000D01*
X21975000Y-62675000D02*
X22700000Y-63400000D01*
%TO.N,Board_10-GND*%
X15400000Y-65500000D02*
X17500000Y-63400000D01*
X15200000Y-65700000D02*
X15400000Y-65500000D01*
X17500000Y-63400000D02*
X18700000Y-63400000D01*
X15200000Y-70700000D02*
X15200000Y-65700000D01*
%TO.N,Board_10-Net-(U1-ENV_SCL)*%
X23000000Y-70100000D02*
X25200000Y-67900000D01*
X25200000Y-67900000D02*
X27900000Y-67900000D01*
%TO.N,Board_10-Net-(U1-ENV_SDA)*%
X22400000Y-73100000D02*
X21800000Y-73100000D01*
X21800000Y-73100000D02*
X20850000Y-74050000D01*
X20850000Y-74050000D02*
X9400000Y-74050000D01*
%TO.N,Board_11-+3.3V*%
X35800000Y-61350000D02*
X44290000Y-61350000D01*
X44290000Y-61350000D02*
X46940000Y-58700000D01*
X55400000Y-67160000D02*
X46940000Y-58700000D01*
X55400000Y-74050000D02*
X55400000Y-67160000D01*
%TO.N,Board_11-/BOOTN*%
X43120000Y-75400000D02*
X39300000Y-75400000D01*
X44420000Y-76700000D02*
X43120000Y-75400000D01*
%TO.N,Board_11-/CAP*%
X44572299Y-72327701D02*
X44100000Y-72800000D01*
X49127701Y-72327701D02*
X44572299Y-72327701D01*
X49500000Y-76700000D02*
X49525000Y-76675000D01*
X49525000Y-72725000D02*
X49127701Y-72327701D01*
X49525000Y-76675000D02*
X49525000Y-72725000D01*
%TO.N,Board_11-/SCL*%
X49000000Y-62200000D02*
X52400000Y-65600000D01*
X41200000Y-62200000D02*
X49000000Y-62200000D01*
%TO.N,Board_11-/SDA*%
X39700000Y-62100000D02*
X40525000Y-62925000D01*
X44549695Y-62925000D02*
X44799695Y-62675000D01*
X48375000Y-62675000D02*
X49100000Y-63400000D01*
X44799695Y-62675000D02*
X48375000Y-62675000D01*
X40525000Y-62925000D02*
X44549695Y-62925000D01*
%TO.N,Board_11-GND*%
X41600000Y-70700000D02*
X41600000Y-65700000D01*
X43900000Y-63400000D02*
X45100000Y-63400000D01*
X41600000Y-65700000D02*
X41800000Y-65500000D01*
X41800000Y-65500000D02*
X43900000Y-63400000D01*
%TO.N,Board_11-Net-(U1-ENV_SCL)*%
X51600000Y-67900000D02*
X54300000Y-67900000D01*
X49400000Y-70100000D02*
X51600000Y-67900000D01*
%TO.N,Board_11-Net-(U1-ENV_SDA)*%
X48800000Y-73100000D02*
X48200000Y-73100000D01*
X48200000Y-73100000D02*
X47250000Y-74050000D01*
X47250000Y-74050000D02*
X35800000Y-74050000D01*
%TO.N,Board_12-+3.3V*%
X62200000Y-61350000D02*
X70690000Y-61350000D01*
X81800000Y-74050000D02*
X81800000Y-67160000D01*
X70690000Y-61350000D02*
X73340000Y-58700000D01*
X81800000Y-67160000D02*
X73340000Y-58700000D01*
%TO.N,Board_12-/BOOTN*%
X70820000Y-76700000D02*
X69520000Y-75400000D01*
X69520000Y-75400000D02*
X65700000Y-75400000D01*
%TO.N,Board_12-/CAP*%
X70972299Y-72327701D02*
X70500000Y-72800000D01*
X75925000Y-72725000D02*
X75527701Y-72327701D01*
X75900000Y-76700000D02*
X75925000Y-76675000D01*
X75925000Y-76675000D02*
X75925000Y-72725000D01*
X75527701Y-72327701D02*
X70972299Y-72327701D01*
%TO.N,Board_12-/SCL*%
X67600000Y-62200000D02*
X75400000Y-62200000D01*
X75400000Y-62200000D02*
X78800000Y-65600000D01*
%TO.N,Board_12-/SDA*%
X74775000Y-62675000D02*
X75500000Y-63400000D01*
X66925000Y-62925000D02*
X70949695Y-62925000D01*
X71199695Y-62675000D02*
X74775000Y-62675000D01*
X66100000Y-62100000D02*
X66925000Y-62925000D01*
X70949695Y-62925000D02*
X71199695Y-62675000D01*
%TO.N,Board_12-GND*%
X68200000Y-65500000D02*
X70300000Y-63400000D01*
X68000000Y-70700000D02*
X68000000Y-65700000D01*
X70300000Y-63400000D02*
X71500000Y-63400000D01*
X68000000Y-65700000D02*
X68200000Y-65500000D01*
%TO.N,Board_12-Net-(U1-ENV_SCL)*%
X78000000Y-67900000D02*
X80700000Y-67900000D01*
X75800000Y-70100000D02*
X78000000Y-67900000D01*
%TO.N,Board_12-Net-(U1-ENV_SDA)*%
X75200000Y-73100000D02*
X74600000Y-73100000D01*
X73650000Y-74050000D02*
X62200000Y-74050000D01*
X74600000Y-73100000D02*
X73650000Y-74050000D01*
%TO.N,Board_13-+3.3V*%
X97090000Y-61350000D02*
X99740000Y-58700000D01*
X88600000Y-61350000D02*
X97090000Y-61350000D01*
X108200000Y-67160000D02*
X99740000Y-58700000D01*
X108200000Y-74050000D02*
X108200000Y-67160000D01*
%TO.N,Board_13-/BOOTN*%
X95920000Y-75400000D02*
X92100000Y-75400000D01*
X97220000Y-76700000D02*
X95920000Y-75400000D01*
%TO.N,Board_13-/CAP*%
X102325000Y-72725000D02*
X101927701Y-72327701D01*
X102300000Y-76700000D02*
X102325000Y-76675000D01*
X97372299Y-72327701D02*
X96900000Y-72800000D01*
X102325000Y-76675000D02*
X102325000Y-72725000D01*
X101927701Y-72327701D02*
X97372299Y-72327701D01*
%TO.N,Board_13-/SCL*%
X94000000Y-62200000D02*
X101800000Y-62200000D01*
X101800000Y-62200000D02*
X105200000Y-65600000D01*
%TO.N,Board_13-/SDA*%
X93325000Y-62925000D02*
X97349695Y-62925000D01*
X97599695Y-62675000D02*
X101175000Y-62675000D01*
X97349695Y-62925000D02*
X97599695Y-62675000D01*
X92500000Y-62100000D02*
X93325000Y-62925000D01*
X101175000Y-62675000D02*
X101900000Y-63400000D01*
%TO.N,Board_13-GND*%
X94600000Y-65500000D02*
X96700000Y-63400000D01*
X94400000Y-65700000D02*
X94600000Y-65500000D01*
X96700000Y-63400000D02*
X97900000Y-63400000D01*
X94400000Y-70700000D02*
X94400000Y-65700000D01*
%TO.N,Board_13-Net-(U1-ENV_SCL)*%
X102200000Y-70100000D02*
X104400000Y-67900000D01*
X104400000Y-67900000D02*
X107100000Y-67900000D01*
%TO.N,Board_13-Net-(U1-ENV_SDA)*%
X101000000Y-73100000D02*
X100050000Y-74050000D01*
X100050000Y-74050000D02*
X88600000Y-74050000D01*
X101600000Y-73100000D02*
X101000000Y-73100000D01*
%TO.N,Board_14-+3.3V*%
X115000000Y-61350000D02*
X123490000Y-61350000D01*
X123490000Y-61350000D02*
X126140000Y-58700000D01*
X134600000Y-67160000D02*
X126140000Y-58700000D01*
X134600000Y-74050000D02*
X134600000Y-67160000D01*
%TO.N,Board_14-/BOOTN*%
X123620000Y-76700000D02*
X122320000Y-75400000D01*
X122320000Y-75400000D02*
X118500000Y-75400000D01*
%TO.N,Board_14-/CAP*%
X128725000Y-76675000D02*
X128725000Y-72725000D01*
X128700000Y-76700000D02*
X128725000Y-76675000D01*
X123772299Y-72327701D02*
X123300000Y-72800000D01*
X128327701Y-72327701D02*
X123772299Y-72327701D01*
X128725000Y-72725000D02*
X128327701Y-72327701D01*
%TO.N,Board_14-/SCL*%
X128200000Y-62200000D02*
X131600000Y-65600000D01*
X120400000Y-62200000D02*
X128200000Y-62200000D01*
%TO.N,Board_14-/SDA*%
X118900000Y-62100000D02*
X119725000Y-62925000D01*
X123999695Y-62675000D02*
X127575000Y-62675000D01*
X119725000Y-62925000D02*
X123749695Y-62925000D01*
X123749695Y-62925000D02*
X123999695Y-62675000D01*
X127575000Y-62675000D02*
X128300000Y-63400000D01*
%TO.N,Board_14-GND*%
X120800000Y-70700000D02*
X120800000Y-65700000D01*
X121000000Y-65500000D02*
X123100000Y-63400000D01*
X120800000Y-65700000D02*
X121000000Y-65500000D01*
X123100000Y-63400000D02*
X124300000Y-63400000D01*
%TO.N,Board_14-Net-(U1-ENV_SCL)*%
X128600000Y-70100000D02*
X130800000Y-67900000D01*
X130800000Y-67900000D02*
X133500000Y-67900000D01*
%TO.N,Board_14-Net-(U1-ENV_SDA)*%
X126450000Y-74050000D02*
X115000000Y-74050000D01*
X127400000Y-73100000D02*
X126450000Y-74050000D01*
X128000000Y-73100000D02*
X127400000Y-73100000D01*
%TO.N,Board_15-+3.3V*%
X17890000Y-86050000D02*
X20540000Y-83400000D01*
X29000000Y-98750000D02*
X29000000Y-91860000D01*
X29000000Y-91860000D02*
X20540000Y-83400000D01*
X9400000Y-86050000D02*
X17890000Y-86050000D01*
%TO.N,Board_15-/BOOTN*%
X16720000Y-100100000D02*
X12900000Y-100100000D01*
X18020000Y-101400000D02*
X16720000Y-100100000D01*
%TO.N,Board_15-/CAP*%
X18172299Y-97027701D02*
X17700000Y-97500000D01*
X23125000Y-97425000D02*
X22727701Y-97027701D01*
X22727701Y-97027701D02*
X18172299Y-97027701D01*
X23100000Y-101400000D02*
X23125000Y-101375000D01*
X23125000Y-101375000D02*
X23125000Y-97425000D01*
%TO.N,Board_15-/SCL*%
X22600000Y-86900000D02*
X26000000Y-90300000D01*
X14800000Y-86900000D02*
X22600000Y-86900000D01*
%TO.N,Board_15-/SDA*%
X21975000Y-87375000D02*
X22700000Y-88100000D01*
X14125000Y-87625000D02*
X18149695Y-87625000D01*
X18149695Y-87625000D02*
X18399695Y-87375000D01*
X13300000Y-86800000D02*
X14125000Y-87625000D01*
X18399695Y-87375000D02*
X21975000Y-87375000D01*
%TO.N,Board_15-GND*%
X15200000Y-95400000D02*
X15200000Y-90400000D01*
X15200000Y-90400000D02*
X15400000Y-90200000D01*
X15400000Y-90200000D02*
X17500000Y-88100000D01*
X17500000Y-88100000D02*
X18700000Y-88100000D01*
%TO.N,Board_15-Net-(U1-ENV_SCL)*%
X23000000Y-94800000D02*
X25200000Y-92600000D01*
X25200000Y-92600000D02*
X27900000Y-92600000D01*
%TO.N,Board_15-Net-(U1-ENV_SDA)*%
X22400000Y-97800000D02*
X21800000Y-97800000D01*
X21800000Y-97800000D02*
X20850000Y-98750000D01*
X20850000Y-98750000D02*
X9400000Y-98750000D01*
%TO.N,Board_16-+3.3V*%
X55400000Y-91860000D02*
X46940000Y-83400000D01*
X44290000Y-86050000D02*
X46940000Y-83400000D01*
X35800000Y-86050000D02*
X44290000Y-86050000D01*
X55400000Y-98750000D02*
X55400000Y-91860000D01*
%TO.N,Board_16-/BOOTN*%
X43120000Y-100100000D02*
X39300000Y-100100000D01*
X44420000Y-101400000D02*
X43120000Y-100100000D01*
%TO.N,Board_16-/CAP*%
X49525000Y-97425000D02*
X49127701Y-97027701D01*
X49127701Y-97027701D02*
X44572299Y-97027701D01*
X49525000Y-101375000D02*
X49525000Y-97425000D01*
X49500000Y-101400000D02*
X49525000Y-101375000D01*
X44572299Y-97027701D02*
X44100000Y-97500000D01*
%TO.N,Board_16-/SCL*%
X49000000Y-86900000D02*
X52400000Y-90300000D01*
X41200000Y-86900000D02*
X49000000Y-86900000D01*
%TO.N,Board_16-/SDA*%
X39700000Y-86800000D02*
X40525000Y-87625000D01*
X40525000Y-87625000D02*
X44549695Y-87625000D01*
X48375000Y-87375000D02*
X49100000Y-88100000D01*
X44799695Y-87375000D02*
X48375000Y-87375000D01*
X44549695Y-87625000D02*
X44799695Y-87375000D01*
%TO.N,Board_16-GND*%
X41800000Y-90200000D02*
X43900000Y-88100000D01*
X41600000Y-90400000D02*
X41800000Y-90200000D01*
X43900000Y-88100000D02*
X45100000Y-88100000D01*
X41600000Y-95400000D02*
X41600000Y-90400000D01*
%TO.N,Board_16-Net-(U1-ENV_SCL)*%
X49400000Y-94800000D02*
X51600000Y-92600000D01*
X51600000Y-92600000D02*
X54300000Y-92600000D01*
%TO.N,Board_16-Net-(U1-ENV_SDA)*%
X47250000Y-98750000D02*
X35800000Y-98750000D01*
X48800000Y-97800000D02*
X48200000Y-97800000D01*
X48200000Y-97800000D02*
X47250000Y-98750000D01*
%TO.N,Board_17-+3.3V*%
X81800000Y-98750000D02*
X81800000Y-91860000D01*
X62200000Y-86050000D02*
X70690000Y-86050000D01*
X70690000Y-86050000D02*
X73340000Y-83400000D01*
X81800000Y-91860000D02*
X73340000Y-83400000D01*
%TO.N,Board_17-/BOOTN*%
X69520000Y-100100000D02*
X65700000Y-100100000D01*
X70820000Y-101400000D02*
X69520000Y-100100000D01*
%TO.N,Board_17-/CAP*%
X70972299Y-97027701D02*
X70500000Y-97500000D01*
X75527701Y-97027701D02*
X70972299Y-97027701D01*
X75925000Y-97425000D02*
X75527701Y-97027701D01*
X75925000Y-101375000D02*
X75925000Y-97425000D01*
X75900000Y-101400000D02*
X75925000Y-101375000D01*
%TO.N,Board_17-/SCL*%
X75400000Y-86900000D02*
X78800000Y-90300000D01*
X67600000Y-86900000D02*
X75400000Y-86900000D01*
%TO.N,Board_17-/SDA*%
X71199695Y-87375000D02*
X74775000Y-87375000D01*
X74775000Y-87375000D02*
X75500000Y-88100000D01*
X66100000Y-86800000D02*
X66925000Y-87625000D01*
X70949695Y-87625000D02*
X71199695Y-87375000D01*
X66925000Y-87625000D02*
X70949695Y-87625000D01*
%TO.N,Board_17-GND*%
X68000000Y-90400000D02*
X68200000Y-90200000D01*
X68000000Y-95400000D02*
X68000000Y-90400000D01*
X70300000Y-88100000D02*
X71500000Y-88100000D01*
X68200000Y-90200000D02*
X70300000Y-88100000D01*
%TO.N,Board_17-Net-(U1-ENV_SCL)*%
X78000000Y-92600000D02*
X80700000Y-92600000D01*
X75800000Y-94800000D02*
X78000000Y-92600000D01*
%TO.N,Board_17-Net-(U1-ENV_SDA)*%
X75200000Y-97800000D02*
X74600000Y-97800000D01*
X73650000Y-98750000D02*
X62200000Y-98750000D01*
X74600000Y-97800000D02*
X73650000Y-98750000D01*
%TO.N,Board_18-+3.3V*%
X108200000Y-91860000D02*
X99740000Y-83400000D01*
X97090000Y-86050000D02*
X99740000Y-83400000D01*
X108200000Y-98750000D02*
X108200000Y-91860000D01*
X88600000Y-86050000D02*
X97090000Y-86050000D01*
%TO.N,Board_18-/BOOTN*%
X97220000Y-101400000D02*
X95920000Y-100100000D01*
X95920000Y-100100000D02*
X92100000Y-100100000D01*
%TO.N,Board_18-/CAP*%
X102325000Y-101375000D02*
X102325000Y-97425000D01*
X102300000Y-101400000D02*
X102325000Y-101375000D01*
X97372299Y-97027701D02*
X96900000Y-97500000D01*
X102325000Y-97425000D02*
X101927701Y-97027701D01*
X101927701Y-97027701D02*
X97372299Y-97027701D01*
%TO.N,Board_18-/SCL*%
X101800000Y-86900000D02*
X105200000Y-90300000D01*
X94000000Y-86900000D02*
X101800000Y-86900000D01*
%TO.N,Board_18-/SDA*%
X93325000Y-87625000D02*
X97349695Y-87625000D01*
X97599695Y-87375000D02*
X101175000Y-87375000D01*
X92500000Y-86800000D02*
X93325000Y-87625000D01*
X97349695Y-87625000D02*
X97599695Y-87375000D01*
X101175000Y-87375000D02*
X101900000Y-88100000D01*
%TO.N,Board_18-GND*%
X94400000Y-90400000D02*
X94600000Y-90200000D01*
X96700000Y-88100000D02*
X97900000Y-88100000D01*
X94600000Y-90200000D02*
X96700000Y-88100000D01*
X94400000Y-95400000D02*
X94400000Y-90400000D01*
%TO.N,Board_18-Net-(U1-ENV_SCL)*%
X104400000Y-92600000D02*
X107100000Y-92600000D01*
X102200000Y-94800000D02*
X104400000Y-92600000D01*
%TO.N,Board_18-Net-(U1-ENV_SDA)*%
X101600000Y-97800000D02*
X101000000Y-97800000D01*
X100050000Y-98750000D02*
X88600000Y-98750000D01*
X101000000Y-97800000D02*
X100050000Y-98750000D01*
%TO.N,Board_19-+3.3V*%
X134600000Y-91860000D02*
X126140000Y-83400000D01*
X123490000Y-86050000D02*
X126140000Y-83400000D01*
X115000000Y-86050000D02*
X123490000Y-86050000D01*
X134600000Y-98750000D02*
X134600000Y-91860000D01*
%TO.N,Board_19-/BOOTN*%
X122320000Y-100100000D02*
X118500000Y-100100000D01*
X123620000Y-101400000D02*
X122320000Y-100100000D01*
%TO.N,Board_19-/CAP*%
X128327701Y-97027701D02*
X123772299Y-97027701D01*
X128700000Y-101400000D02*
X128725000Y-101375000D01*
X128725000Y-97425000D02*
X128327701Y-97027701D01*
X123772299Y-97027701D02*
X123300000Y-97500000D01*
X128725000Y-101375000D02*
X128725000Y-97425000D01*
%TO.N,Board_19-/SCL*%
X120400000Y-86900000D02*
X128200000Y-86900000D01*
X128200000Y-86900000D02*
X131600000Y-90300000D01*
%TO.N,Board_19-/SDA*%
X123749695Y-87625000D02*
X123999695Y-87375000D01*
X123999695Y-87375000D02*
X127575000Y-87375000D01*
X118900000Y-86800000D02*
X119725000Y-87625000D01*
X127575000Y-87375000D02*
X128300000Y-88100000D01*
X119725000Y-87625000D02*
X123749695Y-87625000D01*
%TO.N,Board_19-GND*%
X120800000Y-90400000D02*
X121000000Y-90200000D01*
X120800000Y-95400000D02*
X120800000Y-90400000D01*
X123100000Y-88100000D02*
X124300000Y-88100000D01*
X121000000Y-90200000D02*
X123100000Y-88100000D01*
%TO.N,Board_19-Net-(U1-ENV_SCL)*%
X130800000Y-92600000D02*
X133500000Y-92600000D01*
X128600000Y-94800000D02*
X130800000Y-92600000D01*
%TO.N,Board_19-Net-(U1-ENV_SDA)*%
X126450000Y-98750000D02*
X115000000Y-98750000D01*
X128000000Y-97800000D02*
X127400000Y-97800000D01*
X127400000Y-97800000D02*
X126450000Y-98750000D01*
%TO.N,Board_20-+3.3V*%
X9400000Y-110750000D02*
X17890000Y-110750000D01*
X17890000Y-110750000D02*
X20540000Y-108100000D01*
X29000000Y-116560000D02*
X20540000Y-108100000D01*
X29000000Y-123450000D02*
X29000000Y-116560000D01*
%TO.N,Board_20-/BOOTN*%
X18020000Y-126100000D02*
X16720000Y-124800000D01*
X16720000Y-124800000D02*
X12900000Y-124800000D01*
%TO.N,Board_20-/CAP*%
X22727701Y-121727701D02*
X18172299Y-121727701D01*
X23125000Y-126075000D02*
X23125000Y-122125000D01*
X18172299Y-121727701D02*
X17700000Y-122200000D01*
X23125000Y-122125000D02*
X22727701Y-121727701D01*
X23100000Y-126100000D02*
X23125000Y-126075000D01*
%TO.N,Board_20-/SCL*%
X14800000Y-111600000D02*
X22600000Y-111600000D01*
X22600000Y-111600000D02*
X26000000Y-115000000D01*
%TO.N,Board_20-/SDA*%
X18399695Y-112075000D02*
X21975000Y-112075000D01*
X13300000Y-111500000D02*
X14125000Y-112325000D01*
X21975000Y-112075000D02*
X22700000Y-112800000D01*
X18149695Y-112325000D02*
X18399695Y-112075000D01*
X14125000Y-112325000D02*
X18149695Y-112325000D01*
%TO.N,Board_20-GND*%
X15400000Y-114900000D02*
X17500000Y-112800000D01*
X15200000Y-115100000D02*
X15400000Y-114900000D01*
X17500000Y-112800000D02*
X18700000Y-112800000D01*
X15200000Y-120100000D02*
X15200000Y-115100000D01*
%TO.N,Board_20-Net-(U1-ENV_SCL)*%
X25200000Y-117300000D02*
X27900000Y-117300000D01*
X23000000Y-119500000D02*
X25200000Y-117300000D01*
%TO.N,Board_20-Net-(U1-ENV_SDA)*%
X20850000Y-123450000D02*
X9400000Y-123450000D01*
X21800000Y-122500000D02*
X20850000Y-123450000D01*
X22400000Y-122500000D02*
X21800000Y-122500000D01*
%TO.N,Board_21-+3.3V*%
X55400000Y-116560000D02*
X46940000Y-108100000D01*
X44290000Y-110750000D02*
X46940000Y-108100000D01*
X35800000Y-110750000D02*
X44290000Y-110750000D01*
X55400000Y-123450000D02*
X55400000Y-116560000D01*
%TO.N,Board_21-/BOOTN*%
X44420000Y-126100000D02*
X43120000Y-124800000D01*
X43120000Y-124800000D02*
X39300000Y-124800000D01*
%TO.N,Board_21-/CAP*%
X44572299Y-121727701D02*
X44100000Y-122200000D01*
X49525000Y-126075000D02*
X49525000Y-122125000D01*
X49525000Y-122125000D02*
X49127701Y-121727701D01*
X49500000Y-126100000D02*
X49525000Y-126075000D01*
X49127701Y-121727701D02*
X44572299Y-121727701D01*
%TO.N,Board_21-/SCL*%
X49000000Y-111600000D02*
X52400000Y-115000000D01*
X41200000Y-111600000D02*
X49000000Y-111600000D01*
%TO.N,Board_21-/SDA*%
X40525000Y-112325000D02*
X44549695Y-112325000D01*
X39700000Y-111500000D02*
X40525000Y-112325000D01*
X48375000Y-112075000D02*
X49100000Y-112800000D01*
X44799695Y-112075000D02*
X48375000Y-112075000D01*
X44549695Y-112325000D02*
X44799695Y-112075000D01*
%TO.N,Board_21-GND*%
X41600000Y-120100000D02*
X41600000Y-115100000D01*
X43900000Y-112800000D02*
X45100000Y-112800000D01*
X41800000Y-114900000D02*
X43900000Y-112800000D01*
X41600000Y-115100000D02*
X41800000Y-114900000D01*
%TO.N,Board_21-Net-(U1-ENV_SCL)*%
X49400000Y-119500000D02*
X51600000Y-117300000D01*
X51600000Y-117300000D02*
X54300000Y-117300000D01*
%TO.N,Board_21-Net-(U1-ENV_SDA)*%
X47250000Y-123450000D02*
X35800000Y-123450000D01*
X48200000Y-122500000D02*
X47250000Y-123450000D01*
X48800000Y-122500000D02*
X48200000Y-122500000D01*
%TO.N,Board_22-+3.3V*%
X81800000Y-116560000D02*
X73340000Y-108100000D01*
X70690000Y-110750000D02*
X73340000Y-108100000D01*
X62200000Y-110750000D02*
X70690000Y-110750000D01*
X81800000Y-123450000D02*
X81800000Y-116560000D01*
%TO.N,Board_22-/BOOTN*%
X69520000Y-124800000D02*
X65700000Y-124800000D01*
X70820000Y-126100000D02*
X69520000Y-124800000D01*
%TO.N,Board_22-/CAP*%
X75900000Y-126100000D02*
X75925000Y-126075000D01*
X70972299Y-121727701D02*
X70500000Y-122200000D01*
X75925000Y-126075000D02*
X75925000Y-122125000D01*
X75925000Y-122125000D02*
X75527701Y-121727701D01*
X75527701Y-121727701D02*
X70972299Y-121727701D01*
%TO.N,Board_22-/SCL*%
X75400000Y-111600000D02*
X78800000Y-115000000D01*
X67600000Y-111600000D02*
X75400000Y-111600000D01*
%TO.N,Board_22-/SDA*%
X71199695Y-112075000D02*
X74775000Y-112075000D01*
X66925000Y-112325000D02*
X70949695Y-112325000D01*
X70949695Y-112325000D02*
X71199695Y-112075000D01*
X74775000Y-112075000D02*
X75500000Y-112800000D01*
X66100000Y-111500000D02*
X66925000Y-112325000D01*
%TO.N,Board_22-GND*%
X68200000Y-114900000D02*
X70300000Y-112800000D01*
X70300000Y-112800000D02*
X71500000Y-112800000D01*
X68000000Y-115100000D02*
X68200000Y-114900000D01*
X68000000Y-120100000D02*
X68000000Y-115100000D01*
%TO.N,Board_22-Net-(U1-ENV_SCL)*%
X75800000Y-119500000D02*
X78000000Y-117300000D01*
X78000000Y-117300000D02*
X80700000Y-117300000D01*
%TO.N,Board_22-Net-(U1-ENV_SDA)*%
X75200000Y-122500000D02*
X74600000Y-122500000D01*
X73650000Y-123450000D02*
X62200000Y-123450000D01*
X74600000Y-122500000D02*
X73650000Y-123450000D01*
%TO.N,Board_23-+3.3V*%
X88600000Y-110750000D02*
X97090000Y-110750000D01*
X108200000Y-123450000D02*
X108200000Y-116560000D01*
X97090000Y-110750000D02*
X99740000Y-108100000D01*
X108200000Y-116560000D02*
X99740000Y-108100000D01*
%TO.N,Board_23-/BOOTN*%
X95920000Y-124800000D02*
X92100000Y-124800000D01*
X97220000Y-126100000D02*
X95920000Y-124800000D01*
%TO.N,Board_23-/CAP*%
X102300000Y-126100000D02*
X102325000Y-126075000D01*
X101927701Y-121727701D02*
X97372299Y-121727701D01*
X102325000Y-126075000D02*
X102325000Y-122125000D01*
X102325000Y-122125000D02*
X101927701Y-121727701D01*
X97372299Y-121727701D02*
X96900000Y-122200000D01*
%TO.N,Board_23-/SCL*%
X94000000Y-111600000D02*
X101800000Y-111600000D01*
X101800000Y-111600000D02*
X105200000Y-115000000D01*
%TO.N,Board_23-/SDA*%
X97599695Y-112075000D02*
X101175000Y-112075000D01*
X97349695Y-112325000D02*
X97599695Y-112075000D01*
X93325000Y-112325000D02*
X97349695Y-112325000D01*
X92500000Y-111500000D02*
X93325000Y-112325000D01*
X101175000Y-112075000D02*
X101900000Y-112800000D01*
%TO.N,Board_23-GND*%
X94400000Y-115100000D02*
X94600000Y-114900000D01*
X94600000Y-114900000D02*
X96700000Y-112800000D01*
X96700000Y-112800000D02*
X97900000Y-112800000D01*
X94400000Y-120100000D02*
X94400000Y-115100000D01*
%TO.N,Board_23-Net-(U1-ENV_SCL)*%
X102200000Y-119500000D02*
X104400000Y-117300000D01*
X104400000Y-117300000D02*
X107100000Y-117300000D01*
%TO.N,Board_23-Net-(U1-ENV_SDA)*%
X100050000Y-123450000D02*
X88600000Y-123450000D01*
X101600000Y-122500000D02*
X101000000Y-122500000D01*
X101000000Y-122500000D02*
X100050000Y-123450000D01*
%TO.N,Board_24-+3.3V*%
X123490000Y-110750000D02*
X126140000Y-108100000D01*
X115000000Y-110750000D02*
X123490000Y-110750000D01*
X134600000Y-116560000D02*
X126140000Y-108100000D01*
X134600000Y-123450000D02*
X134600000Y-116560000D01*
%TO.N,Board_24-/BOOTN*%
X123620000Y-126100000D02*
X122320000Y-124800000D01*
X122320000Y-124800000D02*
X118500000Y-124800000D01*
%TO.N,Board_24-/CAP*%
X123772299Y-121727701D02*
X123300000Y-122200000D01*
X128725000Y-126075000D02*
X128725000Y-122125000D01*
X128327701Y-121727701D02*
X123772299Y-121727701D01*
X128700000Y-126100000D02*
X128725000Y-126075000D01*
X128725000Y-122125000D02*
X128327701Y-121727701D01*
%TO.N,Board_24-/SCL*%
X128200000Y-111600000D02*
X131600000Y-115000000D01*
X120400000Y-111600000D02*
X128200000Y-111600000D01*
%TO.N,Board_24-/SDA*%
X118900000Y-111500000D02*
X119725000Y-112325000D01*
X123749695Y-112325000D02*
X123999695Y-112075000D01*
X123999695Y-112075000D02*
X127575000Y-112075000D01*
X119725000Y-112325000D02*
X123749695Y-112325000D01*
X127575000Y-112075000D02*
X128300000Y-112800000D01*
%TO.N,Board_24-GND*%
X121000000Y-114900000D02*
X123100000Y-112800000D01*
X123100000Y-112800000D02*
X124300000Y-112800000D01*
X120800000Y-115100000D02*
X121000000Y-114900000D01*
X120800000Y-120100000D02*
X120800000Y-115100000D01*
%TO.N,Board_24-Net-(U1-ENV_SCL)*%
X130800000Y-117300000D02*
X133500000Y-117300000D01*
X128600000Y-119500000D02*
X130800000Y-117300000D01*
%TO.N,Board_24-Net-(U1-ENV_SDA)*%
X128000000Y-122500000D02*
X127400000Y-122500000D01*
X126450000Y-123450000D02*
X115000000Y-123450000D01*
X127400000Y-122500000D02*
X126450000Y-123450000D01*
%TD*%
M02*
