M48
INCH
T1C0.0157
T2C0.0315
T3C0.0394
%
G90
G05
T1
X0.5079Y-1.0236
X0.5079Y-1.9961
X0.5079Y-2.9685
X0.5079Y-3.9409
X0.5079Y-4.9134
X0.5236Y-0.5
X0.5236Y-1.4724
X0.5236Y-2.4449
X0.5236Y-3.4173
X0.5236Y-4.3898
X0.5827Y-0.5039
X0.5827Y-1.4764
X0.5827Y-2.4488
X0.5827Y-3.4213
X0.5827Y-4.3937
X0.5984Y-0.8386
X0.5984Y-1.811
X0.5984Y-2.7835
X0.5984Y-3.7559
X0.5984Y-4.7283
X0.6063Y-0.6339
X0.6063Y-1.6063
X0.6063Y-2.5787
X0.6063Y-3.5512
X0.6063Y-4.5236
X0.6969Y-0.9213
X0.6969Y-1.8937
X0.6969Y-2.8661
X0.6969Y-3.8386
X0.6969Y-4.811
X0.7362Y-0.5512
X0.7362Y-1.5236
X0.7362Y-2.4961
X0.7362Y-3.4685
X0.7362Y-4.4409
X0.8819Y-0.9331
X0.8819Y-1.9055
X0.8819Y-2.878
X0.8819Y-3.8504
X0.8819Y-4.8228
X0.8937Y-0.5512
X0.8937Y-1.5236
X0.8937Y-2.4961
X0.8937Y-3.4685
X0.8937Y-4.4409
X0.9055Y-0.815
X0.9055Y-1.7874
X0.9055Y-2.7598
X0.9055Y-3.7323
X0.9055Y-4.7047
X1.0236Y-0.6378
X1.0236Y-1.6102
X1.0236Y-2.5827
X1.0236Y-3.5551
X1.0236Y-4.5276
X1.0984Y-0.7283
X1.0984Y-1.7008
X1.0984Y-2.6732
X1.0984Y-3.6457
X1.0984Y-4.6181
X1.5472Y-1.0236
X1.5472Y-1.9961
X1.5472Y-2.9685
X1.5472Y-3.9409
X1.5472Y-4.9134
X1.563Y-0.5
X1.563Y-1.4724
X1.563Y-2.4449
X1.563Y-3.4173
X1.563Y-4.3898
X1.622Y-0.5039
X1.622Y-1.4764
X1.622Y-2.4488
X1.622Y-3.4213
X1.622Y-4.3937
X1.6378Y-0.8386
X1.6378Y-1.811
X1.6378Y-2.7835
X1.6378Y-3.7559
X1.6378Y-4.7283
X1.6457Y-0.6339
X1.6457Y-1.6063
X1.6457Y-2.5787
X1.6457Y-3.5512
X1.6457Y-4.5236
X1.7362Y-0.9213
X1.7362Y-1.8937
X1.7362Y-2.8661
X1.7362Y-3.8386
X1.7362Y-4.811
X1.7756Y-0.5512
X1.7756Y-1.5236
X1.7756Y-2.4961
X1.7756Y-3.4685
X1.7756Y-4.4409
X1.9213Y-0.9331
X1.9213Y-1.9055
X1.9213Y-2.878
X1.9213Y-3.8504
X1.9213Y-4.8228
X1.9331Y-0.5512
X1.9331Y-1.5236
X1.9331Y-2.4961
X1.9331Y-3.4685
X1.9331Y-4.4409
X1.9449Y-0.815
X1.9449Y-1.7874
X1.9449Y-2.7598
X1.9449Y-3.7323
X1.9449Y-4.7047
X2.063Y-0.6378
X2.063Y-1.6102
X2.063Y-2.5827
X2.063Y-3.5551
X2.063Y-4.5276
X2.1378Y-0.7283
X2.1378Y-1.7008
X2.1378Y-2.6732
X2.1378Y-3.6457
X2.1378Y-4.6181
X2.5866Y-1.0236
X2.5866Y-1.9961
X2.5866Y-2.9685
X2.5866Y-3.9409
X2.5866Y-4.9134
X2.6024Y-0.5
X2.6024Y-1.4724
X2.6024Y-2.4449
X2.6024Y-3.4173
X2.6024Y-4.3898
X2.6614Y-0.5039
X2.6614Y-1.4764
X2.6614Y-2.4488
X2.6614Y-3.4213
X2.6614Y-4.3937
X2.6772Y-0.8386
X2.6772Y-1.811
X2.6772Y-2.7835
X2.6772Y-3.7559
X2.6772Y-4.7283
X2.685Y-0.6339
X2.685Y-1.6063
X2.685Y-2.5787
X2.685Y-3.5512
X2.685Y-4.5236
X2.7756Y-0.9213
X2.7756Y-1.8937
X2.7756Y-2.8661
X2.7756Y-3.8386
X2.7756Y-4.811
X2.815Y-0.5512
X2.815Y-1.5236
X2.815Y-2.4961
X2.815Y-3.4685
X2.815Y-4.4409
X2.9606Y-0.9331
X2.9606Y-1.9055
X2.9606Y-2.878
X2.9606Y-3.8504
X2.9606Y-4.8228
X2.9724Y-0.5512
X2.9724Y-1.5236
X2.9724Y-2.4961
X2.9724Y-3.4685
X2.9724Y-4.4409
X2.9843Y-0.815
X2.9843Y-1.7874
X2.9843Y-2.7598
X2.9843Y-3.7323
X2.9843Y-4.7047
X3.1024Y-0.6378
X3.1024Y-1.6102
X3.1024Y-2.5827
X3.1024Y-3.5551
X3.1024Y-4.5276
X3.1772Y-0.7283
X3.1772Y-1.7008
X3.1772Y-2.6732
X3.1772Y-3.6457
X3.1772Y-4.6181
X3.626Y-1.0236
X3.626Y-1.9961
X3.626Y-2.9685
X3.626Y-3.9409
X3.626Y-4.9134
X3.6417Y-0.5
X3.6417Y-1.4724
X3.6417Y-2.4449
X3.6417Y-3.4173
X3.6417Y-4.3898
X3.7008Y-0.5039
X3.7008Y-1.4764
X3.7008Y-2.4488
X3.7008Y-3.4213
X3.7008Y-4.3937
X3.7165Y-0.8386
X3.7165Y-1.811
X3.7165Y-2.7835
X3.7165Y-3.7559
X3.7165Y-4.7283
X3.7244Y-0.6339
X3.7244Y-1.6063
X3.7244Y-2.5787
X3.7244Y-3.5512
X3.7244Y-4.5236
X3.815Y-0.9213
X3.815Y-1.8937
X3.815Y-2.8661
X3.815Y-3.8386
X3.815Y-4.811
X3.8543Y-0.5512
X3.8543Y-1.5236
X3.8543Y-2.4961
X3.8543Y-3.4685
X3.8543Y-4.4409
X4.0Y-0.9331
X4.0Y-1.9055
X4.0Y-2.878
X4.0Y-3.8504
X4.0Y-4.8228
X4.0118Y-0.5512
X4.0118Y-1.5236
X4.0118Y-2.4961
X4.0118Y-3.4685
X4.0118Y-4.4409
X4.0236Y-0.815
X4.0236Y-1.7874
X4.0236Y-2.7598
X4.0236Y-3.7323
X4.0236Y-4.7047
X4.1417Y-0.6378
X4.1417Y-1.6102
X4.1417Y-2.5827
X4.1417Y-3.5551
X4.1417Y-4.5276
X4.2165Y-0.7283
X4.2165Y-1.7008
X4.2165Y-2.6732
X4.2165Y-3.6457
X4.2165Y-4.6181
X4.6654Y-1.0236
X4.6654Y-1.9961
X4.6654Y-2.9685
X4.6654Y-3.9409
X4.6654Y-4.9134
X4.6811Y-0.5
X4.6811Y-1.4724
X4.6811Y-2.4449
X4.6811Y-3.4173
X4.6811Y-4.3898
X4.7402Y-0.5039
X4.7402Y-1.4764
X4.7402Y-2.4488
X4.7402Y-3.4213
X4.7402Y-4.3937
X4.7559Y-0.8386
X4.7559Y-1.811
X4.7559Y-2.7835
X4.7559Y-3.7559
X4.7559Y-4.7283
X4.7638Y-0.6339
X4.7638Y-1.6063
X4.7638Y-2.5787
X4.7638Y-3.5512
X4.7638Y-4.5236
X4.8543Y-0.9213
X4.8543Y-1.8937
X4.8543Y-2.8661
X4.8543Y-3.8386
X4.8543Y-4.811
X4.8937Y-0.5512
X4.8937Y-1.5236
X4.8937Y-2.4961
X4.8937Y-3.4685
X4.8937Y-4.4409
X5.0394Y-0.9331
X5.0394Y-1.9055
X5.0394Y-2.878
X5.0394Y-3.8504
X5.0394Y-4.8228
X5.0512Y-0.5512
X5.0512Y-1.5236
X5.0512Y-2.4961
X5.0512Y-3.4685
X5.0512Y-4.4409
X5.063Y-0.815
X5.063Y-1.7874
X5.063Y-2.7598
X5.063Y-3.7323
X5.063Y-4.7047
X5.1811Y-0.6378
X5.1811Y-1.6102
X5.1811Y-2.5827
X5.1811Y-3.5551
X5.1811Y-4.5276
X5.2559Y-0.7283
X5.2559Y-1.7008
X5.2559Y-2.6732
X5.2559Y-3.6457
X5.2559Y-4.6181
T2
X0.3701Y-0.4705
X0.3701Y-0.9705
X0.3701Y-1.4429
X0.3701Y-1.9429
X0.3701Y-2.4154
X0.3701Y-2.9154
X0.3701Y-3.3878
X0.3701Y-3.8878
X0.3701Y-4.3602
X0.3701Y-4.8602
X1.1417Y-0.4705
X1.1417Y-0.9705
X1.1417Y-1.4429
X1.1417Y-1.9429
X1.1417Y-2.4154
X1.1417Y-2.9154
X1.1417Y-3.3878
X1.1417Y-3.8878
X1.1417Y-4.3602
X1.1417Y-4.8602
X1.4094Y-0.4705
X1.4094Y-0.9705
X1.4094Y-1.4429
X1.4094Y-1.9429
X1.4094Y-2.4154
X1.4094Y-2.9154
X1.4094Y-3.3878
X1.4094Y-3.8878
X1.4094Y-4.3602
X1.4094Y-4.8602
X2.1811Y-0.4705
X2.1811Y-0.9705
X2.1811Y-1.4429
X2.1811Y-1.9429
X2.1811Y-2.4154
X2.1811Y-2.9154
X2.1811Y-3.3878
X2.1811Y-3.8878
X2.1811Y-4.3602
X2.1811Y-4.8602
X2.4488Y-0.4705
X2.4488Y-0.9705
X2.4488Y-1.4429
X2.4488Y-1.9429
X2.4488Y-2.4154
X2.4488Y-2.9154
X2.4488Y-3.3878
X2.4488Y-3.8878
X2.4488Y-4.3602
X2.4488Y-4.8602
X3.2205Y-0.4705
X3.2205Y-0.9705
X3.2205Y-1.4429
X3.2205Y-1.9429
X3.2205Y-2.4154
X3.2205Y-2.9154
X3.2205Y-3.3878
X3.2205Y-3.8878
X3.2205Y-4.3602
X3.2205Y-4.8602
X3.4882Y-0.4705
X3.4882Y-0.9705
X3.4882Y-1.4429
X3.4882Y-1.9429
X3.4882Y-2.4154
X3.4882Y-2.9154
X3.4882Y-3.3878
X3.4882Y-3.8878
X3.4882Y-4.3602
X3.4882Y-4.8602
X4.2598Y-0.4705
X4.2598Y-0.9705
X4.2598Y-1.4429
X4.2598Y-1.9429
X4.2598Y-2.4154
X4.2598Y-2.9154
X4.2598Y-3.3878
X4.2598Y-3.8878
X4.2598Y-4.3602
X4.2598Y-4.8602
X4.5276Y-0.4705
X4.5276Y-0.9705
X4.5276Y-1.4429
X4.5276Y-1.9429
X4.5276Y-2.4154
X4.5276Y-2.9154
X4.5276Y-3.3878
X4.5276Y-3.8878
X4.5276Y-4.3602
X4.5276Y-4.8602
X5.2992Y-0.4705
X5.2992Y-0.9705
X5.2992Y-1.4429
X5.2992Y-1.9429
X5.2992Y-2.4154
X5.2992Y-2.9154
X5.2992Y-3.3878
X5.2992Y-3.8878
X5.2992Y-4.3602
X5.2992Y-4.8602
T3
X0.6087Y-0.3661
X0.6087Y-1.3386
X0.6087Y-2.311
X0.6087Y-3.2835
X0.6087Y-4.2559
X0.6094Y-1.0748
X0.6094Y-2.0472
X0.6094Y-3.0197
X0.6094Y-3.9921
X0.6094Y-4.9646
X0.7087Y-0.3661
X0.7087Y-1.3386
X0.7087Y-2.311
X0.7087Y-3.2835
X0.7087Y-4.2559
X0.7094Y-1.0748
X0.7094Y-2.0472
X0.7094Y-3.0197
X0.7094Y-3.9921
X0.7094Y-4.9646
X0.8087Y-0.3661
X0.8087Y-1.3386
X0.8087Y-2.311
X0.8087Y-3.2835
X0.8087Y-4.2559
X0.8094Y-1.0748
X0.8094Y-2.0472
X0.8094Y-3.0197
X0.8094Y-3.9921
X0.8094Y-4.9646
X0.9087Y-0.3661
X0.9087Y-1.3386
X0.9087Y-2.311
X0.9087Y-3.2835
X0.9087Y-4.2559
X0.9094Y-1.0748
X0.9094Y-2.0472
X0.9094Y-3.0197
X0.9094Y-3.9921
X0.9094Y-4.9646
X1.648Y-0.3661
X1.648Y-1.3386
X1.648Y-2.311
X1.648Y-3.2835
X1.648Y-4.2559
X1.6488Y-1.0748
X1.6488Y-2.0472
X1.6488Y-3.0197
X1.6488Y-3.9921
X1.6488Y-4.9646
X1.748Y-0.3661
X1.748Y-1.3386
X1.748Y-2.311
X1.748Y-3.2835
X1.748Y-4.2559
X1.7488Y-1.0748
X1.7488Y-2.0472
X1.7488Y-3.0197
X1.7488Y-3.9921
X1.7488Y-4.9646
X1.848Y-0.3661
X1.848Y-1.3386
X1.848Y-2.311
X1.848Y-3.2835
X1.848Y-4.2559
X1.8488Y-1.0748
X1.8488Y-2.0472
X1.8488Y-3.0197
X1.8488Y-3.9921
X1.8488Y-4.9646
X1.948Y-0.3661
X1.948Y-1.3386
X1.948Y-2.311
X1.948Y-3.2835
X1.948Y-4.2559
X1.9488Y-1.0748
X1.9488Y-2.0472
X1.9488Y-3.0197
X1.9488Y-3.9921
X1.9488Y-4.9646
X2.6874Y-0.3661
X2.6874Y-1.3386
X2.6874Y-2.311
X2.6874Y-3.2835
X2.6874Y-4.2559
X2.6882Y-1.0748
X2.6882Y-2.0472
X2.6882Y-3.0197
X2.6882Y-3.9921
X2.6882Y-4.9646
X2.7874Y-0.3661
X2.7874Y-1.3386
X2.7874Y-2.311
X2.7874Y-3.2835
X2.7874Y-4.2559
X2.7882Y-1.0748
X2.7882Y-2.0472
X2.7882Y-3.0197
X2.7882Y-3.9921
X2.7882Y-4.9646
X2.8874Y-0.3661
X2.8874Y-1.3386
X2.8874Y-2.311
X2.8874Y-3.2835
X2.8874Y-4.2559
X2.8882Y-1.0748
X2.8882Y-2.0472
X2.8882Y-3.0197
X2.8882Y-3.9921
X2.8882Y-4.9646
X2.9874Y-0.3661
X2.9874Y-1.3386
X2.9874Y-2.311
X2.9874Y-3.2835
X2.9874Y-4.2559
X2.9882Y-1.0748
X2.9882Y-2.0472
X2.9882Y-3.0197
X2.9882Y-3.9921
X2.9882Y-4.9646
X3.7268Y-0.3661
X3.7268Y-1.3386
X3.7268Y-2.311
X3.7268Y-3.2835
X3.7268Y-4.2559
X3.7276Y-1.0748
X3.7276Y-2.0472
X3.7276Y-3.0197
X3.7276Y-3.9921
X3.7276Y-4.9646
X3.8268Y-0.3661
X3.8268Y-1.3386
X3.8268Y-2.311
X3.8268Y-3.2835
X3.8268Y-4.2559
X3.8276Y-1.0748
X3.8276Y-2.0472
X3.8276Y-3.0197
X3.8276Y-3.9921
X3.8276Y-4.9646
X3.9268Y-0.3661
X3.9268Y-1.3386
X3.9268Y-2.311
X3.9268Y-3.2835
X3.9268Y-4.2559
X3.9276Y-1.0748
X3.9276Y-2.0472
X3.9276Y-3.0197
X3.9276Y-3.9921
X3.9276Y-4.9646
X4.0268Y-0.3661
X4.0268Y-1.3386
X4.0268Y-2.311
X4.0268Y-3.2835
X4.0268Y-4.2559
X4.0276Y-1.0748
X4.0276Y-2.0472
X4.0276Y-3.0197
X4.0276Y-3.9921
X4.0276Y-4.9646
X4.7661Y-0.3661
X4.7661Y-1.3386
X4.7661Y-2.311
X4.7661Y-3.2835
X4.7661Y-4.2559
X4.7669Y-1.0748
X4.7669Y-2.0472
X4.7669Y-3.0197
X4.7669Y-3.9921
X4.7669Y-4.9646
X4.8661Y-0.3661
X4.8661Y-1.3386
X4.8661Y-2.311
X4.8661Y-3.2835
X4.8661Y-4.2559
X4.8669Y-1.0748
X4.8669Y-2.0472
X4.8669Y-3.0197
X4.8669Y-3.9921
X4.8669Y-4.9646
X4.9661Y-0.3661
X4.9661Y-1.3386
X4.9661Y-2.311
X4.9661Y-3.2835
X4.9661Y-4.2559
X4.9669Y-1.0748
X4.9669Y-2.0472
X4.9669Y-3.0197
X4.9669Y-3.9921
X4.9669Y-4.9646
X5.0661Y-0.3661
X5.0661Y-1.3386
X5.0661Y-2.311
X5.0661Y-3.2835
X5.0661Y-4.2559
X5.0669Y-1.0748
X5.0669Y-2.0472
X5.0669Y-3.0197
X5.0669Y-3.9921
X5.0669Y-4.9646
T0
M30
