M48
INCH
T1C0.0197
%
G90
G05
T1
X0.0Y-0.2756
X0.0Y-5.0591
X0.0328Y-0.2756
X0.0328Y-5.0591
X0.0656Y-0.2756
X0.0656Y-5.0591
X0.0984Y-0.2756
X0.0984Y-5.0591
X0.1312Y-0.2756
X0.1312Y-5.0591
X0.164Y-0.2756
X0.164Y-5.0591
X0.1969Y-0.2756
X0.1969Y-5.0591
X0.2707Y-0.544
X0.2707Y-0.603
X0.2707Y-0.8419
X0.2707Y-0.9009
X0.2707Y-1.5164
X0.2707Y-1.5755
X0.2707Y-1.8143
X0.2707Y-1.8734
X0.2707Y-2.4888
X0.2707Y-2.5479
X0.2707Y-2.7867
X0.2707Y-2.8458
X0.2707Y-3.4613
X0.2707Y-3.5203
X0.2707Y-3.7592
X0.2707Y-3.8182
X0.2707Y-4.4337
X0.2707Y-4.4928
X0.2707Y-4.7316
X0.2707Y-4.7907
X0.2756Y0.0
X0.2756Y-0.0328
X0.2756Y-0.0656
X0.2756Y-0.0984
X0.2756Y-0.1312
X0.2756Y-0.164
X0.2756Y-0.1969
X0.2756Y-5.1378
X0.2756Y-5.1706
X0.2756Y-5.2034
X0.2756Y-5.2362
X0.2756Y-5.269
X0.2756Y-5.3018
X0.2756Y-5.3346
X0.5663Y-0.2707
X0.5663Y-1.1742
X0.5663Y-1.2431
X0.5663Y-2.1467
X0.5663Y-2.2156
X0.5663Y-3.1191
X0.5663Y-3.188
X0.5663Y-4.0915
X0.5663Y-4.1604
X0.5663Y-5.064
X0.6253Y-0.2707
X0.6253Y-1.1742
X0.6253Y-1.2431
X0.6253Y-2.1467
X0.6253Y-2.2156
X0.6253Y-3.1191
X0.6253Y-3.188
X0.6253Y-4.0915
X0.6253Y-4.1604
X0.6253Y-5.064
X0.8865Y-0.2707
X0.8865Y-1.1742
X0.8865Y-1.2431
X0.8865Y-2.1467
X0.8865Y-2.2156
X0.8865Y-3.1191
X0.8865Y-3.188
X0.8865Y-4.0915
X0.8865Y-4.1604
X0.8865Y-5.064
X0.9455Y-0.2707
X0.9455Y-1.1742
X0.9455Y-1.2431
X0.9455Y-2.1467
X0.9455Y-2.2156
X0.9455Y-3.1191
X0.9455Y-3.188
X0.9455Y-4.0915
X0.9455Y-4.1604
X0.9455Y-5.064
X1.2411Y-0.544
X1.2411Y-0.603
X1.2411Y-0.8419
X1.2411Y-0.9009
X1.2411Y-1.5164
X1.2411Y-1.5755
X1.2411Y-1.8143
X1.2411Y-1.8734
X1.2411Y-2.4888
X1.2411Y-2.5479
X1.2411Y-2.7867
X1.2411Y-2.8458
X1.2411Y-3.4613
X1.2411Y-3.5203
X1.2411Y-3.7592
X1.2411Y-3.8182
X1.2411Y-4.4337
X1.2411Y-4.4928
X1.2411Y-4.7316
X1.2411Y-4.7907
X1.31Y-0.544
X1.31Y-0.603
X1.31Y-0.8419
X1.31Y-0.9009
X1.31Y-1.5164
X1.31Y-1.5755
X1.31Y-1.8143
X1.31Y-1.8734
X1.31Y-2.4888
X1.31Y-2.5479
X1.31Y-2.7867
X1.31Y-2.8458
X1.31Y-3.4613
X1.31Y-3.5203
X1.31Y-3.7592
X1.31Y-3.8182
X1.31Y-4.4337
X1.31Y-4.4928
X1.31Y-4.7316
X1.31Y-4.7907
X1.6056Y-0.2707
X1.6056Y-1.1742
X1.6056Y-1.2431
X1.6056Y-2.1467
X1.6056Y-2.2156
X1.6056Y-3.1191
X1.6056Y-3.188
X1.6056Y-4.0915
X1.6056Y-4.1604
X1.6056Y-5.064
X1.6647Y-0.2707
X1.6647Y-1.1742
X1.6647Y-1.2431
X1.6647Y-2.1467
X1.6647Y-2.2156
X1.6647Y-3.1191
X1.6647Y-3.188
X1.6647Y-4.0915
X1.6647Y-4.1604
X1.6647Y-5.064
X1.9259Y-0.2707
X1.9259Y-1.1742
X1.9259Y-1.2431
X1.9259Y-2.1467
X1.9259Y-2.2156
X1.9259Y-3.1191
X1.9259Y-3.188
X1.9259Y-4.0915
X1.9259Y-4.1604
X1.9259Y-5.064
X1.9849Y-0.2707
X1.9849Y-1.1742
X1.9849Y-1.2431
X1.9849Y-2.1467
X1.9849Y-2.2156
X1.9849Y-3.1191
X1.9849Y-3.188
X1.9849Y-4.0915
X1.9849Y-4.1604
X1.9849Y-5.064
X2.2805Y-0.544
X2.2805Y-0.603
X2.2805Y-0.8419
X2.2805Y-0.9009
X2.2805Y-1.5164
X2.2805Y-1.5755
X2.2805Y-1.8143
X2.2805Y-1.8734
X2.2805Y-2.4888
X2.2805Y-2.5479
X2.2805Y-2.7867
X2.2805Y-2.8458
X2.2805Y-3.4613
X2.2805Y-3.5203
X2.2805Y-3.7592
X2.2805Y-3.8182
X2.2805Y-4.4337
X2.2805Y-4.4928
X2.2805Y-4.7316
X2.2805Y-4.7907
X2.3494Y-0.544
X2.3494Y-0.603
X2.3494Y-0.8419
X2.3494Y-0.9009
X2.3494Y-1.5164
X2.3494Y-1.5755
X2.3494Y-1.8143
X2.3494Y-1.8734
X2.3494Y-2.4888
X2.3494Y-2.5479
X2.3494Y-2.7867
X2.3494Y-2.8458
X2.3494Y-3.4613
X2.3494Y-3.5203
X2.3494Y-3.7592
X2.3494Y-3.8182
X2.3494Y-4.4337
X2.3494Y-4.4928
X2.3494Y-4.7316
X2.3494Y-4.7907
X2.645Y-0.2707
X2.645Y-1.1742
X2.645Y-1.2431
X2.645Y-2.1467
X2.645Y-2.2156
X2.645Y-3.1191
X2.645Y-3.188
X2.645Y-4.0915
X2.645Y-4.1604
X2.645Y-5.064
X2.7041Y-0.2707
X2.7041Y-1.1742
X2.7041Y-1.2431
X2.7041Y-2.1467
X2.7041Y-2.2156
X2.7041Y-3.1191
X2.7041Y-3.188
X2.7041Y-4.0915
X2.7041Y-4.1604
X2.7041Y-5.064
X2.9652Y-0.2707
X2.9652Y-1.1742
X2.9652Y-1.2431
X2.9652Y-2.1467
X2.9652Y-2.2156
X2.9652Y-3.1191
X2.9652Y-3.188
X2.9652Y-4.0915
X2.9652Y-4.1604
X2.9652Y-5.064
X3.0243Y-0.2707
X3.0243Y-1.1742
X3.0243Y-1.2431
X3.0243Y-2.1467
X3.0243Y-2.2156
X3.0243Y-3.1191
X3.0243Y-3.188
X3.0243Y-4.0915
X3.0243Y-4.1604
X3.0243Y-5.064
X3.3199Y-0.544
X3.3199Y-0.603
X3.3199Y-0.8419
X3.3199Y-0.9009
X3.3199Y-1.5164
X3.3199Y-1.5755
X3.3199Y-1.8143
X3.3199Y-1.8734
X3.3199Y-2.4888
X3.3199Y-2.5479
X3.3199Y-2.7867
X3.3199Y-2.8458
X3.3199Y-3.4613
X3.3199Y-3.5203
X3.3199Y-3.7592
X3.3199Y-3.8182
X3.3199Y-4.4337
X3.3199Y-4.4928
X3.3199Y-4.7316
X3.3199Y-4.7907
X3.3888Y-0.544
X3.3888Y-0.603
X3.3888Y-0.8419
X3.3888Y-0.9009
X3.3888Y-1.5164
X3.3888Y-1.5755
X3.3888Y-1.8143
X3.3888Y-1.8734
X3.3888Y-2.4888
X3.3888Y-2.5479
X3.3888Y-2.7867
X3.3888Y-2.8458
X3.3888Y-3.4613
X3.3888Y-3.5203
X3.3888Y-3.7592
X3.3888Y-3.8182
X3.3888Y-4.4337
X3.3888Y-4.4928
X3.3888Y-4.7316
X3.3888Y-4.7907
X3.6844Y-0.2707
X3.6844Y-1.1742
X3.6844Y-1.2431
X3.6844Y-2.1467
X3.6844Y-2.2156
X3.6844Y-3.1191
X3.6844Y-3.188
X3.6844Y-4.0915
X3.6844Y-4.1604
X3.6844Y-5.064
X3.7434Y-0.2707
X3.7434Y-1.1742
X3.7434Y-1.2431
X3.7434Y-2.1467
X3.7434Y-2.2156
X3.7434Y-3.1191
X3.7434Y-3.188
X3.7434Y-4.0915
X3.7434Y-4.1604
X3.7434Y-5.064
X4.0046Y-0.2707
X4.0046Y-1.1742
X4.0046Y-1.2431
X4.0046Y-2.1467
X4.0046Y-2.2156
X4.0046Y-3.1191
X4.0046Y-3.188
X4.0046Y-4.0915
X4.0046Y-4.1604
X4.0046Y-5.064
X4.0636Y-0.2707
X4.0636Y-1.1742
X4.0636Y-1.2431
X4.0636Y-2.1467
X4.0636Y-2.2156
X4.0636Y-3.1191
X4.0636Y-3.188
X4.0636Y-4.0915
X4.0636Y-4.1604
X4.0636Y-5.064
X4.3593Y-0.544
X4.3593Y-0.603
X4.3593Y-0.8419
X4.3593Y-0.9009
X4.3593Y-1.5164
X4.3593Y-1.5755
X4.3593Y-1.8143
X4.3593Y-1.8734
X4.3593Y-2.4888
X4.3593Y-2.5479
X4.3593Y-2.7867
X4.3593Y-2.8458
X4.3593Y-3.4613
X4.3593Y-3.5203
X4.3593Y-3.7592
X4.3593Y-3.8182
X4.3593Y-4.4337
X4.3593Y-4.4928
X4.3593Y-4.7316
X4.3593Y-4.7907
X4.4281Y-0.544
X4.4281Y-0.603
X4.4281Y-0.8419
X4.4281Y-0.9009
X4.4281Y-1.5164
X4.4281Y-1.5755
X4.4281Y-1.8143
X4.4281Y-1.8734
X4.4281Y-2.4888
X4.4281Y-2.5479
X4.4281Y-2.7867
X4.4281Y-2.8458
X4.4281Y-3.4613
X4.4281Y-3.5203
X4.4281Y-3.7592
X4.4281Y-3.8182
X4.4281Y-4.4337
X4.4281Y-4.4928
X4.4281Y-4.7316
X4.4281Y-4.7907
X4.7238Y-0.2707
X4.7238Y-1.1742
X4.7238Y-1.2431
X4.7238Y-2.1467
X4.7238Y-2.2156
X4.7238Y-3.1191
X4.7238Y-3.188
X4.7238Y-4.0915
X4.7238Y-4.1604
X4.7238Y-5.064
X4.7828Y-0.2707
X4.7828Y-1.1742
X4.7828Y-1.2431
X4.7828Y-2.1467
X4.7828Y-2.2156
X4.7828Y-3.1191
X4.7828Y-3.188
X4.7828Y-4.0915
X4.7828Y-4.1604
X4.7828Y-5.064
X5.044Y-0.2707
X5.044Y-1.1742
X5.044Y-1.2431
X5.044Y-2.1467
X5.044Y-2.2156
X5.044Y-3.1191
X5.044Y-3.188
X5.044Y-4.0915
X5.044Y-4.1604
X5.044Y-5.064
X5.103Y-0.2707
X5.103Y-1.1742
X5.103Y-1.2431
X5.103Y-2.1467
X5.103Y-2.2156
X5.103Y-3.1191
X5.103Y-3.188
X5.103Y-4.0915
X5.103Y-4.1604
X5.103Y-5.064
X5.3937Y0.0
X5.3937Y-0.0328
X5.3937Y-0.0656
X5.3937Y-0.0984
X5.3937Y-0.1312
X5.3937Y-0.164
X5.3937Y-0.1969
X5.3937Y-5.1378
X5.3937Y-5.1706
X5.3937Y-5.2034
X5.3937Y-5.2362
X5.3937Y-5.269
X5.3937Y-5.3018
X5.3937Y-5.3346
X5.3986Y-0.544
X5.3986Y-0.603
X5.3986Y-0.8419
X5.3986Y-0.9009
X5.3986Y-1.5164
X5.3986Y-1.5755
X5.3986Y-1.8143
X5.3986Y-1.8734
X5.3986Y-2.4888
X5.3986Y-2.5479
X5.3986Y-2.7867
X5.3986Y-2.8458
X5.3986Y-3.4613
X5.3986Y-3.5203
X5.3986Y-3.7592
X5.3986Y-3.8182
X5.3986Y-4.4337
X5.3986Y-4.4928
X5.3986Y-4.7316
X5.3986Y-4.7907
X5.4724Y-0.2756
X5.4724Y-5.0591
X5.5052Y-0.2756
X5.5052Y-5.0591
X5.5381Y-0.2756
X5.5381Y-5.0591
X5.5709Y-0.2756
X5.5709Y-5.0591
X5.6037Y-0.2756
X5.6037Y-5.0591
X5.6365Y-0.2756
X5.6365Y-5.0591
X5.6693Y-0.2756
X5.6693Y-5.0591
T0
M30
