M48
; DRILL file {KiCad 7.0.5-1.fc38} date Fri 07 Jul 2023 14:20:27 EDT
; FORMAT={-:-/ absolute / metric / decimal}
; #@! TF.CreationDate,2023-07-07T14:20:27-04:00
; #@! TF.GenerationSoftware,Kicad,Pcbnew,7.0.5-1.fc38
; #@! TF.FileFunction,Plated,1,2,PTH
FMAT,2
METRIC
; #@! TA.AperFunction,Plated,PTH,ViaDrill
T1C0.400
; #@! TA.AperFunction,Plated,PTH,ComponentDrill
T2C0.500
%
G90
G05
T1
X108.999Y-39.249
X108.999Y-57.249
X108.999Y-75.249
X108.999Y-93.249
X108.999Y-111.249
X112.749Y-34.749
X112.749Y-52.749
X112.749Y-70.749
X112.749Y-88.749
X112.749Y-106.749
X112.999Y-30.499
X112.999Y-48.499
X112.999Y-66.499
X112.999Y-84.499
X112.999Y-102.499
X114.999Y-29.249
X114.999Y-47.249
X114.999Y-65.249
X114.999Y-83.249
X114.999Y-101.249
X116.499Y-34.249
X116.499Y-52.249
X116.499Y-70.249
X116.499Y-88.249
X116.499Y-106.249
X117.749Y-36.749
X117.749Y-54.749
X117.749Y-72.749
X117.749Y-90.749
X117.749Y-108.749
X126.999Y-39.249
X126.999Y-57.249
X126.999Y-75.249
X126.999Y-93.249
X126.999Y-111.249
X130.749Y-34.749
X130.749Y-52.749
X130.749Y-70.749
X130.749Y-88.749
X130.749Y-106.749
X130.999Y-30.499
X130.999Y-48.499
X130.999Y-66.499
X130.999Y-84.499
X130.999Y-102.499
X132.999Y-29.249
X132.999Y-47.249
X132.999Y-65.249
X132.999Y-83.249
X132.999Y-101.249
X134.499Y-34.249
X134.499Y-52.249
X134.499Y-70.249
X134.499Y-88.249
X134.499Y-106.249
X135.749Y-36.749
X135.749Y-54.749
X135.749Y-72.749
X135.749Y-90.749
X135.749Y-108.749
X144.999Y-39.249
X144.999Y-57.249
X144.999Y-75.249
X144.999Y-93.249
X144.999Y-111.249
X148.749Y-34.749
X148.749Y-52.749
X148.749Y-70.749
X148.749Y-88.749
X148.749Y-106.749
X148.999Y-30.499
X148.999Y-48.499
X148.999Y-66.499
X148.999Y-84.499
X148.999Y-102.499
X150.999Y-29.249
X150.999Y-47.249
X150.999Y-65.249
X150.999Y-83.249
X150.999Y-101.249
X152.499Y-34.249
X152.499Y-52.249
X152.499Y-70.249
X152.499Y-88.249
X152.499Y-106.249
X153.749Y-36.749
X153.749Y-54.749
X153.749Y-72.749
X153.749Y-90.749
X153.749Y-108.749
X162.999Y-39.249
X162.999Y-57.249
X162.999Y-75.249
X162.999Y-93.249
X162.999Y-111.249
X166.749Y-34.749
X166.749Y-52.749
X166.749Y-70.749
X166.749Y-88.749
X166.749Y-106.749
X166.999Y-30.499
X166.999Y-48.499
X166.999Y-66.499
X166.999Y-84.499
X166.999Y-102.499
X168.999Y-29.249
X168.999Y-47.249
X168.999Y-65.249
X168.999Y-83.249
X168.999Y-101.249
X170.499Y-34.249
X170.499Y-52.249
X170.499Y-70.249
X170.499Y-88.249
X170.499Y-106.249
X171.749Y-36.749
X171.749Y-54.749
X171.749Y-72.749
X171.749Y-90.749
X171.749Y-108.749
X180.999Y-39.249
X180.999Y-57.249
X180.999Y-75.249
X180.999Y-93.249
X180.999Y-111.249
X184.749Y-34.749
X184.749Y-52.749
X184.749Y-70.749
X184.749Y-88.749
X184.749Y-106.749
X184.999Y-30.499
X184.999Y-48.499
X184.999Y-66.499
X184.999Y-84.499
X184.999Y-102.499
X186.999Y-29.249
X186.999Y-47.249
X186.999Y-65.249
X186.999Y-83.249
X186.999Y-101.249
X188.499Y-34.249
X188.499Y-52.249
X188.499Y-70.249
X188.499Y-88.249
X188.499Y-106.249
X189.749Y-36.749
X189.749Y-54.749
X189.749Y-72.749
X189.749Y-90.749
X189.749Y-108.749
T2
X105.499Y-34.999
X105.499Y-52.999
X105.499Y-70.999
X105.499Y-88.999
X105.499Y-106.999
X112.499Y-27.999
X112.499Y-41.999
X112.499Y-45.999
X112.499Y-59.999
X112.499Y-63.999
X112.499Y-77.999
X112.499Y-81.999
X112.499Y-95.999
X112.499Y-99.999
X112.499Y-113.999
X119.499Y-34.999
X119.499Y-52.999
X119.499Y-70.999
X119.499Y-88.999
X119.499Y-106.999
X123.499Y-34.999
X123.499Y-52.999
X123.499Y-70.999
X123.499Y-88.999
X123.499Y-106.999
X130.499Y-27.999
X130.499Y-41.999
X130.499Y-45.999
X130.499Y-59.999
X130.499Y-63.999
X130.499Y-77.999
X130.499Y-81.999
X130.499Y-95.999
X130.499Y-99.999
X130.499Y-113.999
X137.499Y-34.999
X137.499Y-52.999
X137.499Y-70.999
X137.499Y-88.999
X137.499Y-106.999
X141.499Y-34.999
X141.499Y-52.999
X141.499Y-70.999
X141.499Y-88.999
X141.499Y-106.999
X148.499Y-27.999
X148.499Y-41.999
X148.499Y-45.999
X148.499Y-59.999
X148.499Y-63.999
X148.499Y-77.999
X148.499Y-81.999
X148.499Y-95.999
X148.499Y-99.999
X148.499Y-113.999
X155.499Y-34.999
X155.499Y-52.999
X155.499Y-70.999
X155.499Y-88.999
X155.499Y-106.999
X159.499Y-34.999
X159.499Y-52.999
X159.499Y-70.999
X159.499Y-88.999
X159.499Y-106.999
X166.499Y-27.999
X166.499Y-41.999
X166.499Y-45.999
X166.499Y-59.999
X166.499Y-63.999
X166.499Y-77.999
X166.499Y-81.999
X166.499Y-95.999
X166.499Y-99.999
X166.499Y-113.999
X173.499Y-34.999
X173.499Y-52.999
X173.499Y-70.999
X173.499Y-88.999
X173.499Y-106.999
X177.499Y-34.999
X177.499Y-52.999
X177.499Y-70.999
X177.499Y-88.999
X177.499Y-106.999
X184.499Y-27.999
X184.499Y-41.999
X184.499Y-45.999
X184.499Y-59.999
X184.499Y-63.999
X184.499Y-77.999
X184.499Y-81.999
X184.499Y-95.999
X184.499Y-99.999
X184.499Y-113.999
X191.499Y-34.999
X191.499Y-52.999
X191.499Y-70.999
X191.499Y-88.999
X191.499Y-106.999
T0
M30
