%TF.GenerationSoftware,KiCad,Pcbnew,7.0.5-1.fc38*%
%TF.CreationDate,2023-07-07T14:20:18-04:00*%
%TF.ProjectId,bno085-i2c-board-v3-large-panel,626e6f30-3835-42d6-9932-632d626f6172,rev?*%
%TF.SameCoordinates,Original*%
%TF.FileFunction,Copper,L1,Top*%
%TF.FilePolarity,Positive*%
%FSLAX46Y46*%
G04 Gerber Fmt 4.6, Leading zero omitted, Abs format (unit mm)*
G04 Created by KiCad (PCBNEW 7.0.5-1.fc38) date 2023-07-07 14:20:18*
%MOMM*%
%LPD*%
G01*
G04 APERTURE LIST*
G04 Aperture macros list*
%AMRoundRect*
0 Rectangle with rounded corners*
0 $1 Rounding radius*
0 $2 $3 $4 $5 $6 $7 $8 $9 X,Y pos of 4 corners*
0 Add a 4 corners polygon primitive as box body*
4,1,4,$2,$3,$4,$5,$6,$7,$8,$9,$2,$3,0*
0 Add four circle primitives for the rounded corners*
1,1,$1+$1,$2,$3*
1,1,$1+$1,$4,$5*
1,1,$1+$1,$6,$7*
1,1,$1+$1,$8,$9*
0 Add four rect primitives between the rounded corners*
20,1,$1+$1,$2,$3,$4,$5,0*
20,1,$1+$1,$4,$5,$6,$7,0*
20,1,$1+$1,$6,$7,$8,$9,0*
20,1,$1+$1,$8,$9,$2,$3,0*%
G04 Aperture macros list end*
%TA.AperFunction,SMDPad,CuDef*%
%ADD10RoundRect,0.135000X0.185000X-0.135000X0.185000X0.135000X-0.185000X0.135000X-0.185000X-0.135000X0*%
%TD*%
%TA.AperFunction,SMDPad,CuDef*%
%ADD11RoundRect,0.135000X-0.185000X0.135000X-0.185000X-0.135000X0.185000X-0.135000X0.185000X0.135000X0*%
%TD*%
%TA.AperFunction,ComponentPad*%
%ADD12R,0.850000X0.850000*%
%TD*%
%TA.AperFunction,SMDPad,CuDef*%
%ADD13R,0.254000X0.675000*%
%TD*%
%TA.AperFunction,SMDPad,CuDef*%
%ADD14R,0.675000X0.254000*%
%TD*%
%TA.AperFunction,SMDPad,CuDef*%
%ADD15RoundRect,0.140000X0.140000X0.170000X-0.140000X0.170000X-0.140000X-0.170000X0.140000X-0.170000X0*%
%TD*%
%TA.AperFunction,ViaPad*%
%ADD16C,0.800000*%
%TD*%
%TA.AperFunction,Conductor*%
%ADD17C,0.250000*%
%TD*%
G04 APERTURE END LIST*
D10*
%TO.P,R1,1*%
%TO.N,Board_10-+3.3V*%
X114748776Y-75009388D03*
%TO.P,R1,2*%
%TO.N,Board_10-Net-(U1-ENV_SCL)*%
X114748776Y-73989388D03*
%TD*%
D11*
%TO.P,R2,1*%
%TO.N,Board_14-Net-(U1-ENV_SDA)*%
X188498776Y-72989388D03*
%TO.P,R2,2*%
%TO.N,Board_14-+3.3V*%
X188498776Y-74009388D03*
%TD*%
D12*
%TO.P,J2,1,Pin_1*%
%TO.N,Board_7-Net-(J2-Pin_1)*%
X148498776Y-59999388D03*
%TD*%
D10*
%TO.P,R4,1*%
%TO.N,Board_24-Net-(J1-Pin_1)*%
X187248776Y-103259388D03*
%TO.P,R4,2*%
%TO.N,Board_24-+3.3V*%
X187248776Y-102239388D03*
%TD*%
D12*
%TO.P,J4,1,Pin_1*%
%TO.N,Board_16-GND*%
X137498776Y-88999388D03*
%TD*%
%TO.P,J1,1,Pin_1*%
%TO.N,Board_20-Net-(J1-Pin_1)*%
X112498776Y-99999388D03*
%TD*%
D11*
%TO.P,R2,1*%
%TO.N,Board_22-Net-(U1-ENV_SDA)*%
X152498776Y-108989388D03*
%TO.P,R2,2*%
%TO.N,Board_22-+3.3V*%
X152498776Y-110009388D03*
%TD*%
D10*
%TO.P,R3,1*%
%TO.N,Board_11-Net-(U1-BOOTN)*%
X125998776Y-74009388D03*
%TO.P,R3,2*%
%TO.N,Board_11-+3.3V*%
X125998776Y-72989388D03*
%TD*%
D13*
%TO.P,U1,1,RESV_NC*%
%TO.N,Board_6-unconnected-(U1-RESV_NC-Pad1)*%
X128248776Y-51336888D03*
D14*
%TO.P,U1,2,GND*%
%TO.N,Board_6-GND*%
X128111276Y-52249388D03*
%TO.P,U1,3,VDD*%
%TO.N,Board_6-+3.3V*%
X128111276Y-52749388D03*
%TO.P,U1,4,BOOTN*%
%TO.N,Board_6-Net-(U1-BOOTN)*%
X128111276Y-53249388D03*
%TO.P,U1,5,PS1*%
%TO.N,Board_6-GND*%
X128111276Y-53749388D03*
D13*
%TO.P,U1,6,PS0/WAKE*%
X128248776Y-54661888D03*
%TO.P,U1,7,RESV_NC*%
%TO.N,Board_6-unconnected-(U1-RESV_NC-Pad7)*%
X128748776Y-54661888D03*
%TO.P,U1,8,RESV_NC*%
%TO.N,Board_6-unconnected-(U1-RESV_NC-Pad8)*%
X129248776Y-54661888D03*
%TO.P,U1,9,CAP*%
%TO.N,Board_6-Net-(U1-CAP)*%
X129748776Y-54661888D03*
%TO.P,U1,10,CLKSEL0*%
%TO.N,Board_6-+3.3V*%
X130248776Y-54661888D03*
%TO.P,U1,11,NRST*%
%TO.N,Board_6-unconnected-(U1-NRST-Pad11)*%
X130748776Y-54661888D03*
%TO.P,U1,12,RESV_NC*%
%TO.N,Board_6-unconnected-(U1-RESV_NC-Pad12)*%
X131248776Y-54661888D03*
%TO.P,U1,13,RESV_NC*%
%TO.N,Board_6-unconnected-(U1-RESV_NC-Pad13)*%
X131748776Y-54661888D03*
%TO.P,U1,14,H_INTN*%
%TO.N,Board_6-unconnected-(U1-H_INTN-Pad14)*%
X132248776Y-54661888D03*
%TO.P,U1,15,ENV_SCL*%
%TO.N,Board_6-Net-(U1-ENV_SCL)*%
X132748776Y-54661888D03*
D14*
%TO.P,U1,16,ENV_SDA*%
%TO.N,Board_6-Net-(U1-ENV_SDA)*%
X132886276Y-53749388D03*
%TO.P,U1,17,SA0/H_MOSI*%
%TO.N,Board_6-GND*%
X132886276Y-53249388D03*
%TO.P,U1,18,H_CSN*%
%TO.N,Board_6-unconnected-(U1-H_CSN-Pad18)*%
X132886276Y-52749388D03*
%TO.P,U1,19,H_SCL/SCK/RX*%
%TO.N,Board_6-Net-(J2-Pin_1)*%
X132886276Y-52249388D03*
D13*
%TO.P,U1,20,H_SDA/H_MISO/TX*%
%TO.N,Board_6-Net-(J1-Pin_1)*%
X132748776Y-51336888D03*
%TO.P,U1,21,RESV_NC*%
%TO.N,Board_6-unconnected-(U1-RESV_NC-Pad21)*%
X132248776Y-51336888D03*
%TO.P,U1,22,RESV_NC*%
%TO.N,Board_6-unconnected-(U1-RESV_NC-Pad22)*%
X131748776Y-51336888D03*
%TO.P,U1,23,RESV_NC*%
%TO.N,Board_6-unconnected-(U1-RESV_NC-Pad23)*%
X131248776Y-51336888D03*
%TO.P,U1,24,RESV_NC*%
%TO.N,Board_6-unconnected-(U1-RESV_NC-Pad24)*%
X130748776Y-51336888D03*
%TO.P,U1,25,GNDIO*%
%TO.N,Board_6-GND*%
X130248776Y-51336888D03*
%TO.P,U1,26,XOUT32/CLKSEL1*%
X129748776Y-51336888D03*
%TO.P,U1,27,XIN32*%
%TO.N,Board_6-unconnected-(U1-XIN32-Pad27)*%
X129248776Y-51336888D03*
%TO.P,U1,28,VDDIO*%
%TO.N,Board_6-+3.3V*%
X128748776Y-51336888D03*
%TD*%
D12*
%TO.P,J1,1,Pin_1*%
%TO.N,Board_1-Net-(J1-Pin_1)*%
X130498776Y-27999388D03*
%TD*%
D10*
%TO.P,R3,1*%
%TO.N,Board_10-Net-(U1-BOOTN)*%
X107998776Y-74009388D03*
%TO.P,R3,2*%
%TO.N,Board_10-+3.3V*%
X107998776Y-72989388D03*
%TD*%
D12*
%TO.P,J2,1,Pin_1*%
%TO.N,Board_21-Net-(J2-Pin_1)*%
X130498776Y-113999388D03*
%TD*%
D11*
%TO.P,R5,1*%
%TO.N,Board_0-+3.3V*%
X116998776Y-31239388D03*
%TO.P,R5,2*%
%TO.N,Board_0-Net-(J2-Pin_1)*%
X116998776Y-32259388D03*
%TD*%
D12*
%TO.P,J2,1,Pin_1*%
%TO.N,Board_5-Net-(J2-Pin_1)*%
X112498776Y-59999388D03*
%TD*%
D13*
%TO.P,U1,1,RESV_NC*%
%TO.N,Board_5-unconnected-(U1-RESV_NC-Pad1)*%
X110248776Y-51336888D03*
D14*
%TO.P,U1,2,GND*%
%TO.N,Board_5-GND*%
X110111276Y-52249388D03*
%TO.P,U1,3,VDD*%
%TO.N,Board_5-+3.3V*%
X110111276Y-52749388D03*
%TO.P,U1,4,BOOTN*%
%TO.N,Board_5-Net-(U1-BOOTN)*%
X110111276Y-53249388D03*
%TO.P,U1,5,PS1*%
%TO.N,Board_5-GND*%
X110111276Y-53749388D03*
D13*
%TO.P,U1,6,PS0/WAKE*%
X110248776Y-54661888D03*
%TO.P,U1,7,RESV_NC*%
%TO.N,Board_5-unconnected-(U1-RESV_NC-Pad7)*%
X110748776Y-54661888D03*
%TO.P,U1,8,RESV_NC*%
%TO.N,Board_5-unconnected-(U1-RESV_NC-Pad8)*%
X111248776Y-54661888D03*
%TO.P,U1,9,CAP*%
%TO.N,Board_5-Net-(U1-CAP)*%
X111748776Y-54661888D03*
%TO.P,U1,10,CLKSEL0*%
%TO.N,Board_5-+3.3V*%
X112248776Y-54661888D03*
%TO.P,U1,11,NRST*%
%TO.N,Board_5-unconnected-(U1-NRST-Pad11)*%
X112748776Y-54661888D03*
%TO.P,U1,12,RESV_NC*%
%TO.N,Board_5-unconnected-(U1-RESV_NC-Pad12)*%
X113248776Y-54661888D03*
%TO.P,U1,13,RESV_NC*%
%TO.N,Board_5-unconnected-(U1-RESV_NC-Pad13)*%
X113748776Y-54661888D03*
%TO.P,U1,14,H_INTN*%
%TO.N,Board_5-unconnected-(U1-H_INTN-Pad14)*%
X114248776Y-54661888D03*
%TO.P,U1,15,ENV_SCL*%
%TO.N,Board_5-Net-(U1-ENV_SCL)*%
X114748776Y-54661888D03*
D14*
%TO.P,U1,16,ENV_SDA*%
%TO.N,Board_5-Net-(U1-ENV_SDA)*%
X114886276Y-53749388D03*
%TO.P,U1,17,SA0/H_MOSI*%
%TO.N,Board_5-GND*%
X114886276Y-53249388D03*
%TO.P,U1,18,H_CSN*%
%TO.N,Board_5-unconnected-(U1-H_CSN-Pad18)*%
X114886276Y-52749388D03*
%TO.P,U1,19,H_SCL/SCK/RX*%
%TO.N,Board_5-Net-(J2-Pin_1)*%
X114886276Y-52249388D03*
D13*
%TO.P,U1,20,H_SDA/H_MISO/TX*%
%TO.N,Board_5-Net-(J1-Pin_1)*%
X114748776Y-51336888D03*
%TO.P,U1,21,RESV_NC*%
%TO.N,Board_5-unconnected-(U1-RESV_NC-Pad21)*%
X114248776Y-51336888D03*
%TO.P,U1,22,RESV_NC*%
%TO.N,Board_5-unconnected-(U1-RESV_NC-Pad22)*%
X113748776Y-51336888D03*
%TO.P,U1,23,RESV_NC*%
%TO.N,Board_5-unconnected-(U1-RESV_NC-Pad23)*%
X113248776Y-51336888D03*
%TO.P,U1,24,RESV_NC*%
%TO.N,Board_5-unconnected-(U1-RESV_NC-Pad24)*%
X112748776Y-51336888D03*
%TO.P,U1,25,GNDIO*%
%TO.N,Board_5-GND*%
X112248776Y-51336888D03*
%TO.P,U1,26,XOUT32/CLKSEL1*%
X111748776Y-51336888D03*
%TO.P,U1,27,XIN32*%
%TO.N,Board_5-unconnected-(U1-XIN32-Pad27)*%
X111248776Y-51336888D03*
%TO.P,U1,28,VDDIO*%
%TO.N,Board_5-+3.3V*%
X110748776Y-51336888D03*
%TD*%
D12*
%TO.P,J2,1,Pin_1*%
%TO.N,Board_23-Net-(J2-Pin_1)*%
X166498776Y-113999388D03*
%TD*%
D11*
%TO.P,R2,1*%
%TO.N,Board_16-Net-(U1-ENV_SDA)*%
X134498776Y-90989388D03*
%TO.P,R2,2*%
%TO.N,Board_16-+3.3V*%
X134498776Y-92009388D03*
%TD*%
D15*
%TO.P,C1,1*%
%TO.N,Board_1-Net-(U1-CAP)*%
X128866014Y-37745835D03*
%TO.P,C1,2*%
%TO.N,Board_1-GND*%
X127906014Y-37745835D03*
%TD*%
D10*
%TO.P,R4,1*%
%TO.N,Board_18-Net-(J1-Pin_1)*%
X169248776Y-85259388D03*
%TO.P,R4,2*%
%TO.N,Board_18-+3.3V*%
X169248776Y-84239388D03*
%TD*%
%TO.P,R1,1*%
%TO.N,Board_1-+3.3V*%
X132748776Y-39009388D03*
%TO.P,R1,2*%
%TO.N,Board_1-Net-(U1-ENV_SCL)*%
X132748776Y-37989388D03*
%TD*%
%TO.P,R3,1*%
%TO.N,Board_8-Net-(U1-BOOTN)*%
X161998776Y-56009388D03*
%TO.P,R3,2*%
%TO.N,Board_8-+3.3V*%
X161998776Y-54989388D03*
%TD*%
D11*
%TO.P,R5,1*%
%TO.N,Board_14-+3.3V*%
X188998776Y-67239388D03*
%TO.P,R5,2*%
%TO.N,Board_14-Net-(J2-Pin_1)*%
X188998776Y-68259388D03*
%TD*%
D10*
%TO.P,R1,1*%
%TO.N,Board_15-+3.3V*%
X114748776Y-93009388D03*
%TO.P,R1,2*%
%TO.N,Board_15-Net-(U1-ENV_SCL)*%
X114748776Y-91989388D03*
%TD*%
%TO.P,R3,1*%
%TO.N,Board_24-Net-(U1-BOOTN)*%
X179998776Y-110009388D03*
%TO.P,R3,2*%
%TO.N,Board_24-+3.3V*%
X179998776Y-108989388D03*
%TD*%
D12*
%TO.P,J1,1,Pin_1*%
%TO.N,Board_23-Net-(J1-Pin_1)*%
X166498776Y-99999388D03*
%TD*%
%TO.P,J4,1,Pin_1*%
%TO.N,Board_14-GND*%
X191498776Y-70999388D03*
%TD*%
%TO.P,J3,1,Pin_1*%
%TO.N,Board_9-+3.3V*%
X177498776Y-52999388D03*
%TD*%
D15*
%TO.P,C1,1*%
%TO.N,Board_14-Net-(U1-CAP)*%
X182866014Y-73745835D03*
%TO.P,C1,2*%
%TO.N,Board_14-GND*%
X181906014Y-73745835D03*
%TD*%
%TO.P,C1,1*%
%TO.N,Board_21-Net-(U1-CAP)*%
X128866014Y-109745835D03*
%TO.P,C1,2*%
%TO.N,Board_21-GND*%
X127906014Y-109745835D03*
%TD*%
D11*
%TO.P,R5,1*%
%TO.N,Board_18-+3.3V*%
X170998776Y-85239388D03*
%TO.P,R5,2*%
%TO.N,Board_18-Net-(J2-Pin_1)*%
X170998776Y-86259388D03*
%TD*%
%TO.P,R2,1*%
%TO.N,Board_20-Net-(U1-ENV_SDA)*%
X116498776Y-108989388D03*
%TO.P,R2,2*%
%TO.N,Board_20-+3.3V*%
X116498776Y-110009388D03*
%TD*%
D12*
%TO.P,J2,1,Pin_1*%
%TO.N,Board_17-Net-(J2-Pin_1)*%
X148498776Y-95999388D03*
%TD*%
%TO.P,J2,1,Pin_1*%
%TO.N,Board_12-Net-(J2-Pin_1)*%
X148498776Y-77999388D03*
%TD*%
%TO.P,J3,1,Pin_1*%
%TO.N,Board_2-+3.3V*%
X141498776Y-34999388D03*
%TD*%
D13*
%TO.P,U1,1,RESV_NC*%
%TO.N,Board_23-unconnected-(U1-RESV_NC-Pad1)*%
X164248776Y-105336888D03*
D14*
%TO.P,U1,2,GND*%
%TO.N,Board_23-GND*%
X164111276Y-106249388D03*
%TO.P,U1,3,VDD*%
%TO.N,Board_23-+3.3V*%
X164111276Y-106749388D03*
%TO.P,U1,4,BOOTN*%
%TO.N,Board_23-Net-(U1-BOOTN)*%
X164111276Y-107249388D03*
%TO.P,U1,5,PS1*%
%TO.N,Board_23-GND*%
X164111276Y-107749388D03*
D13*
%TO.P,U1,6,PS0/WAKE*%
X164248776Y-108661888D03*
%TO.P,U1,7,RESV_NC*%
%TO.N,Board_23-unconnected-(U1-RESV_NC-Pad7)*%
X164748776Y-108661888D03*
%TO.P,U1,8,RESV_NC*%
%TO.N,Board_23-unconnected-(U1-RESV_NC-Pad8)*%
X165248776Y-108661888D03*
%TO.P,U1,9,CAP*%
%TO.N,Board_23-Net-(U1-CAP)*%
X165748776Y-108661888D03*
%TO.P,U1,10,CLKSEL0*%
%TO.N,Board_23-+3.3V*%
X166248776Y-108661888D03*
%TO.P,U1,11,NRST*%
%TO.N,Board_23-unconnected-(U1-NRST-Pad11)*%
X166748776Y-108661888D03*
%TO.P,U1,12,RESV_NC*%
%TO.N,Board_23-unconnected-(U1-RESV_NC-Pad12)*%
X167248776Y-108661888D03*
%TO.P,U1,13,RESV_NC*%
%TO.N,Board_23-unconnected-(U1-RESV_NC-Pad13)*%
X167748776Y-108661888D03*
%TO.P,U1,14,H_INTN*%
%TO.N,Board_23-unconnected-(U1-H_INTN-Pad14)*%
X168248776Y-108661888D03*
%TO.P,U1,15,ENV_SCL*%
%TO.N,Board_23-Net-(U1-ENV_SCL)*%
X168748776Y-108661888D03*
D14*
%TO.P,U1,16,ENV_SDA*%
%TO.N,Board_23-Net-(U1-ENV_SDA)*%
X168886276Y-107749388D03*
%TO.P,U1,17,SA0/H_MOSI*%
%TO.N,Board_23-GND*%
X168886276Y-107249388D03*
%TO.P,U1,18,H_CSN*%
%TO.N,Board_23-unconnected-(U1-H_CSN-Pad18)*%
X168886276Y-106749388D03*
%TO.P,U1,19,H_SCL/SCK/RX*%
%TO.N,Board_23-Net-(J2-Pin_1)*%
X168886276Y-106249388D03*
D13*
%TO.P,U1,20,H_SDA/H_MISO/TX*%
%TO.N,Board_23-Net-(J1-Pin_1)*%
X168748776Y-105336888D03*
%TO.P,U1,21,RESV_NC*%
%TO.N,Board_23-unconnected-(U1-RESV_NC-Pad21)*%
X168248776Y-105336888D03*
%TO.P,U1,22,RESV_NC*%
%TO.N,Board_23-unconnected-(U1-RESV_NC-Pad22)*%
X167748776Y-105336888D03*
%TO.P,U1,23,RESV_NC*%
%TO.N,Board_23-unconnected-(U1-RESV_NC-Pad23)*%
X167248776Y-105336888D03*
%TO.P,U1,24,RESV_NC*%
%TO.N,Board_23-unconnected-(U1-RESV_NC-Pad24)*%
X166748776Y-105336888D03*
%TO.P,U1,25,GNDIO*%
%TO.N,Board_23-GND*%
X166248776Y-105336888D03*
%TO.P,U1,26,XOUT32/CLKSEL1*%
X165748776Y-105336888D03*
%TO.P,U1,27,XIN32*%
%TO.N,Board_23-unconnected-(U1-XIN32-Pad27)*%
X165248776Y-105336888D03*
%TO.P,U1,28,VDDIO*%
%TO.N,Board_23-+3.3V*%
X164748776Y-105336888D03*
%TD*%
D11*
%TO.P,R2,1*%
%TO.N,Board_11-Net-(U1-ENV_SDA)*%
X134498776Y-72989388D03*
%TO.P,R2,2*%
%TO.N,Board_11-+3.3V*%
X134498776Y-74009388D03*
%TD*%
D10*
%TO.P,R4,1*%
%TO.N,Board_3-Net-(J1-Pin_1)*%
X169248776Y-31259388D03*
%TO.P,R4,2*%
%TO.N,Board_3-+3.3V*%
X169248776Y-30239388D03*
%TD*%
%TO.P,R4,1*%
%TO.N,Board_14-Net-(J1-Pin_1)*%
X187248776Y-67259388D03*
%TO.P,R4,2*%
%TO.N,Board_14-+3.3V*%
X187248776Y-66239388D03*
%TD*%
D12*
%TO.P,J1,1,Pin_1*%
%TO.N,Board_6-Net-(J1-Pin_1)*%
X130498776Y-45999388D03*
%TD*%
D10*
%TO.P,R3,1*%
%TO.N,Board_3-Net-(U1-BOOTN)*%
X161998776Y-38009388D03*
%TO.P,R3,2*%
%TO.N,Board_3-+3.3V*%
X161998776Y-36989388D03*
%TD*%
D13*
%TO.P,U1,1,RESV_NC*%
%TO.N,Board_3-unconnected-(U1-RESV_NC-Pad1)*%
X164248776Y-33336888D03*
D14*
%TO.P,U1,2,GND*%
%TO.N,Board_3-GND*%
X164111276Y-34249388D03*
%TO.P,U1,3,VDD*%
%TO.N,Board_3-+3.3V*%
X164111276Y-34749388D03*
%TO.P,U1,4,BOOTN*%
%TO.N,Board_3-Net-(U1-BOOTN)*%
X164111276Y-35249388D03*
%TO.P,U1,5,PS1*%
%TO.N,Board_3-GND*%
X164111276Y-35749388D03*
D13*
%TO.P,U1,6,PS0/WAKE*%
X164248776Y-36661888D03*
%TO.P,U1,7,RESV_NC*%
%TO.N,Board_3-unconnected-(U1-RESV_NC-Pad7)*%
X164748776Y-36661888D03*
%TO.P,U1,8,RESV_NC*%
%TO.N,Board_3-unconnected-(U1-RESV_NC-Pad8)*%
X165248776Y-36661888D03*
%TO.P,U1,9,CAP*%
%TO.N,Board_3-Net-(U1-CAP)*%
X165748776Y-36661888D03*
%TO.P,U1,10,CLKSEL0*%
%TO.N,Board_3-+3.3V*%
X166248776Y-36661888D03*
%TO.P,U1,11,NRST*%
%TO.N,Board_3-unconnected-(U1-NRST-Pad11)*%
X166748776Y-36661888D03*
%TO.P,U1,12,RESV_NC*%
%TO.N,Board_3-unconnected-(U1-RESV_NC-Pad12)*%
X167248776Y-36661888D03*
%TO.P,U1,13,RESV_NC*%
%TO.N,Board_3-unconnected-(U1-RESV_NC-Pad13)*%
X167748776Y-36661888D03*
%TO.P,U1,14,H_INTN*%
%TO.N,Board_3-unconnected-(U1-H_INTN-Pad14)*%
X168248776Y-36661888D03*
%TO.P,U1,15,ENV_SCL*%
%TO.N,Board_3-Net-(U1-ENV_SCL)*%
X168748776Y-36661888D03*
D14*
%TO.P,U1,16,ENV_SDA*%
%TO.N,Board_3-Net-(U1-ENV_SDA)*%
X168886276Y-35749388D03*
%TO.P,U1,17,SA0/H_MOSI*%
%TO.N,Board_3-GND*%
X168886276Y-35249388D03*
%TO.P,U1,18,H_CSN*%
%TO.N,Board_3-unconnected-(U1-H_CSN-Pad18)*%
X168886276Y-34749388D03*
%TO.P,U1,19,H_SCL/SCK/RX*%
%TO.N,Board_3-Net-(J2-Pin_1)*%
X168886276Y-34249388D03*
D13*
%TO.P,U1,20,H_SDA/H_MISO/TX*%
%TO.N,Board_3-Net-(J1-Pin_1)*%
X168748776Y-33336888D03*
%TO.P,U1,21,RESV_NC*%
%TO.N,Board_3-unconnected-(U1-RESV_NC-Pad21)*%
X168248776Y-33336888D03*
%TO.P,U1,22,RESV_NC*%
%TO.N,Board_3-unconnected-(U1-RESV_NC-Pad22)*%
X167748776Y-33336888D03*
%TO.P,U1,23,RESV_NC*%
%TO.N,Board_3-unconnected-(U1-RESV_NC-Pad23)*%
X167248776Y-33336888D03*
%TO.P,U1,24,RESV_NC*%
%TO.N,Board_3-unconnected-(U1-RESV_NC-Pad24)*%
X166748776Y-33336888D03*
%TO.P,U1,25,GNDIO*%
%TO.N,Board_3-GND*%
X166248776Y-33336888D03*
%TO.P,U1,26,XOUT32/CLKSEL1*%
X165748776Y-33336888D03*
%TO.P,U1,27,XIN32*%
%TO.N,Board_3-unconnected-(U1-XIN32-Pad27)*%
X165248776Y-33336888D03*
%TO.P,U1,28,VDDIO*%
%TO.N,Board_3-+3.3V*%
X164748776Y-33336888D03*
%TD*%
D10*
%TO.P,R1,1*%
%TO.N,Board_3-+3.3V*%
X168748776Y-39009388D03*
%TO.P,R1,2*%
%TO.N,Board_3-Net-(U1-ENV_SCL)*%
X168748776Y-37989388D03*
%TD*%
D11*
%TO.P,R2,1*%
%TO.N,Board_18-Net-(U1-ENV_SDA)*%
X170498776Y-90989388D03*
%TO.P,R2,2*%
%TO.N,Board_18-+3.3V*%
X170498776Y-92009388D03*
%TD*%
D10*
%TO.P,R4,1*%
%TO.N,Board_10-Net-(J1-Pin_1)*%
X115248776Y-67259388D03*
%TO.P,R4,2*%
%TO.N,Board_10-+3.3V*%
X115248776Y-66239388D03*
%TD*%
D12*
%TO.P,J3,1,Pin_1*%
%TO.N,Board_8-+3.3V*%
X159498776Y-52999388D03*
%TD*%
D10*
%TO.P,R1,1*%
%TO.N,Board_24-+3.3V*%
X186748776Y-111009388D03*
%TO.P,R1,2*%
%TO.N,Board_24-Net-(U1-ENV_SCL)*%
X186748776Y-109989388D03*
%TD*%
D15*
%TO.P,C1,1*%
%TO.N,Board_11-Net-(U1-CAP)*%
X128866014Y-73745835D03*
%TO.P,C1,2*%
%TO.N,Board_11-GND*%
X127906014Y-73745835D03*
%TD*%
D11*
%TO.P,R5,1*%
%TO.N,Board_6-+3.3V*%
X134998776Y-49239388D03*
%TO.P,R5,2*%
%TO.N,Board_6-Net-(J2-Pin_1)*%
X134998776Y-50259388D03*
%TD*%
D12*
%TO.P,J4,1,Pin_1*%
%TO.N,Board_13-GND*%
X173498776Y-70999388D03*
%TD*%
%TO.P,J1,1,Pin_1*%
%TO.N,Board_0-Net-(J1-Pin_1)*%
X112498776Y-27999388D03*
%TD*%
D11*
%TO.P,R2,1*%
%TO.N,Board_24-Net-(U1-ENV_SDA)*%
X188498776Y-108989388D03*
%TO.P,R2,2*%
%TO.N,Board_24-+3.3V*%
X188498776Y-110009388D03*
%TD*%
D15*
%TO.P,C1,1*%
%TO.N,Board_18-Net-(U1-CAP)*%
X164866014Y-91745835D03*
%TO.P,C1,2*%
%TO.N,Board_18-GND*%
X163906014Y-91745835D03*
%TD*%
D10*
%TO.P,R1,1*%
%TO.N,Board_9-+3.3V*%
X186748776Y-57009388D03*
%TO.P,R1,2*%
%TO.N,Board_9-Net-(U1-ENV_SCL)*%
X186748776Y-55989388D03*
%TD*%
D11*
%TO.P,R5,1*%
%TO.N,Board_10-+3.3V*%
X116998776Y-67239388D03*
%TO.P,R5,2*%
%TO.N,Board_10-Net-(J2-Pin_1)*%
X116998776Y-68259388D03*
%TD*%
D10*
%TO.P,R1,1*%
%TO.N,Board_8-+3.3V*%
X168748776Y-57009388D03*
%TO.P,R1,2*%
%TO.N,Board_8-Net-(U1-ENV_SCL)*%
X168748776Y-55989388D03*
%TD*%
D13*
%TO.P,U1,1,RESV_NC*%
%TO.N,Board_13-unconnected-(U1-RESV_NC-Pad1)*%
X164248776Y-69336888D03*
D14*
%TO.P,U1,2,GND*%
%TO.N,Board_13-GND*%
X164111276Y-70249388D03*
%TO.P,U1,3,VDD*%
%TO.N,Board_13-+3.3V*%
X164111276Y-70749388D03*
%TO.P,U1,4,BOOTN*%
%TO.N,Board_13-Net-(U1-BOOTN)*%
X164111276Y-71249388D03*
%TO.P,U1,5,PS1*%
%TO.N,Board_13-GND*%
X164111276Y-71749388D03*
D13*
%TO.P,U1,6,PS0/WAKE*%
X164248776Y-72661888D03*
%TO.P,U1,7,RESV_NC*%
%TO.N,Board_13-unconnected-(U1-RESV_NC-Pad7)*%
X164748776Y-72661888D03*
%TO.P,U1,8,RESV_NC*%
%TO.N,Board_13-unconnected-(U1-RESV_NC-Pad8)*%
X165248776Y-72661888D03*
%TO.P,U1,9,CAP*%
%TO.N,Board_13-Net-(U1-CAP)*%
X165748776Y-72661888D03*
%TO.P,U1,10,CLKSEL0*%
%TO.N,Board_13-+3.3V*%
X166248776Y-72661888D03*
%TO.P,U1,11,NRST*%
%TO.N,Board_13-unconnected-(U1-NRST-Pad11)*%
X166748776Y-72661888D03*
%TO.P,U1,12,RESV_NC*%
%TO.N,Board_13-unconnected-(U1-RESV_NC-Pad12)*%
X167248776Y-72661888D03*
%TO.P,U1,13,RESV_NC*%
%TO.N,Board_13-unconnected-(U1-RESV_NC-Pad13)*%
X167748776Y-72661888D03*
%TO.P,U1,14,H_INTN*%
%TO.N,Board_13-unconnected-(U1-H_INTN-Pad14)*%
X168248776Y-72661888D03*
%TO.P,U1,15,ENV_SCL*%
%TO.N,Board_13-Net-(U1-ENV_SCL)*%
X168748776Y-72661888D03*
D14*
%TO.P,U1,16,ENV_SDA*%
%TO.N,Board_13-Net-(U1-ENV_SDA)*%
X168886276Y-71749388D03*
%TO.P,U1,17,SA0/H_MOSI*%
%TO.N,Board_13-GND*%
X168886276Y-71249388D03*
%TO.P,U1,18,H_CSN*%
%TO.N,Board_13-unconnected-(U1-H_CSN-Pad18)*%
X168886276Y-70749388D03*
%TO.P,U1,19,H_SCL/SCK/RX*%
%TO.N,Board_13-Net-(J2-Pin_1)*%
X168886276Y-70249388D03*
D13*
%TO.P,U1,20,H_SDA/H_MISO/TX*%
%TO.N,Board_13-Net-(J1-Pin_1)*%
X168748776Y-69336888D03*
%TO.P,U1,21,RESV_NC*%
%TO.N,Board_13-unconnected-(U1-RESV_NC-Pad21)*%
X168248776Y-69336888D03*
%TO.P,U1,22,RESV_NC*%
%TO.N,Board_13-unconnected-(U1-RESV_NC-Pad22)*%
X167748776Y-69336888D03*
%TO.P,U1,23,RESV_NC*%
%TO.N,Board_13-unconnected-(U1-RESV_NC-Pad23)*%
X167248776Y-69336888D03*
%TO.P,U1,24,RESV_NC*%
%TO.N,Board_13-unconnected-(U1-RESV_NC-Pad24)*%
X166748776Y-69336888D03*
%TO.P,U1,25,GNDIO*%
%TO.N,Board_13-GND*%
X166248776Y-69336888D03*
%TO.P,U1,26,XOUT32/CLKSEL1*%
X165748776Y-69336888D03*
%TO.P,U1,27,XIN32*%
%TO.N,Board_13-unconnected-(U1-XIN32-Pad27)*%
X165248776Y-69336888D03*
%TO.P,U1,28,VDDIO*%
%TO.N,Board_13-+3.3V*%
X164748776Y-69336888D03*
%TD*%
D11*
%TO.P,R5,1*%
%TO.N,Board_20-+3.3V*%
X116998776Y-103239388D03*
%TO.P,R5,2*%
%TO.N,Board_20-Net-(J2-Pin_1)*%
X116998776Y-104259388D03*
%TD*%
D10*
%TO.P,R1,1*%
%TO.N,Board_20-+3.3V*%
X114748776Y-111009388D03*
%TO.P,R1,2*%
%TO.N,Board_20-Net-(U1-ENV_SCL)*%
X114748776Y-109989388D03*
%TD*%
%TO.P,R1,1*%
%TO.N,Board_23-+3.3V*%
X168748776Y-111009388D03*
%TO.P,R1,2*%
%TO.N,Board_23-Net-(U1-ENV_SCL)*%
X168748776Y-109989388D03*
%TD*%
D12*
%TO.P,J3,1,Pin_1*%
%TO.N,Board_6-+3.3V*%
X123498776Y-52999388D03*
%TD*%
%TO.P,J3,1,Pin_1*%
%TO.N,Board_22-+3.3V*%
X141498776Y-106999388D03*
%TD*%
D11*
%TO.P,R2,1*%
%TO.N,Board_4-Net-(U1-ENV_SDA)*%
X188498776Y-36989388D03*
%TO.P,R2,2*%
%TO.N,Board_4-+3.3V*%
X188498776Y-38009388D03*
%TD*%
D10*
%TO.P,R3,1*%
%TO.N,Board_12-Net-(U1-BOOTN)*%
X143998776Y-74009388D03*
%TO.P,R3,2*%
%TO.N,Board_12-+3.3V*%
X143998776Y-72989388D03*
%TD*%
D12*
%TO.P,J2,1,Pin_1*%
%TO.N,Board_11-Net-(J2-Pin_1)*%
X130498776Y-77999388D03*
%TD*%
D11*
%TO.P,R2,1*%
%TO.N,Board_10-Net-(U1-ENV_SDA)*%
X116498776Y-72989388D03*
%TO.P,R2,2*%
%TO.N,Board_10-+3.3V*%
X116498776Y-74009388D03*
%TD*%
D12*
%TO.P,J4,1,Pin_1*%
%TO.N,Board_18-GND*%
X173498776Y-88999388D03*
%TD*%
%TO.P,J3,1,Pin_1*%
%TO.N,Board_21-+3.3V*%
X123498776Y-106999388D03*
%TD*%
D10*
%TO.P,R1,1*%
%TO.N,Board_14-+3.3V*%
X186748776Y-75009388D03*
%TO.P,R1,2*%
%TO.N,Board_14-Net-(U1-ENV_SCL)*%
X186748776Y-73989388D03*
%TD*%
D13*
%TO.P,U1,1,RESV_NC*%
%TO.N,Board_7-unconnected-(U1-RESV_NC-Pad1)*%
X146248776Y-51336888D03*
D14*
%TO.P,U1,2,GND*%
%TO.N,Board_7-GND*%
X146111276Y-52249388D03*
%TO.P,U1,3,VDD*%
%TO.N,Board_7-+3.3V*%
X146111276Y-52749388D03*
%TO.P,U1,4,BOOTN*%
%TO.N,Board_7-Net-(U1-BOOTN)*%
X146111276Y-53249388D03*
%TO.P,U1,5,PS1*%
%TO.N,Board_7-GND*%
X146111276Y-53749388D03*
D13*
%TO.P,U1,6,PS0/WAKE*%
X146248776Y-54661888D03*
%TO.P,U1,7,RESV_NC*%
%TO.N,Board_7-unconnected-(U1-RESV_NC-Pad7)*%
X146748776Y-54661888D03*
%TO.P,U1,8,RESV_NC*%
%TO.N,Board_7-unconnected-(U1-RESV_NC-Pad8)*%
X147248776Y-54661888D03*
%TO.P,U1,9,CAP*%
%TO.N,Board_7-Net-(U1-CAP)*%
X147748776Y-54661888D03*
%TO.P,U1,10,CLKSEL0*%
%TO.N,Board_7-+3.3V*%
X148248776Y-54661888D03*
%TO.P,U1,11,NRST*%
%TO.N,Board_7-unconnected-(U1-NRST-Pad11)*%
X148748776Y-54661888D03*
%TO.P,U1,12,RESV_NC*%
%TO.N,Board_7-unconnected-(U1-RESV_NC-Pad12)*%
X149248776Y-54661888D03*
%TO.P,U1,13,RESV_NC*%
%TO.N,Board_7-unconnected-(U1-RESV_NC-Pad13)*%
X149748776Y-54661888D03*
%TO.P,U1,14,H_INTN*%
%TO.N,Board_7-unconnected-(U1-H_INTN-Pad14)*%
X150248776Y-54661888D03*
%TO.P,U1,15,ENV_SCL*%
%TO.N,Board_7-Net-(U1-ENV_SCL)*%
X150748776Y-54661888D03*
D14*
%TO.P,U1,16,ENV_SDA*%
%TO.N,Board_7-Net-(U1-ENV_SDA)*%
X150886276Y-53749388D03*
%TO.P,U1,17,SA0/H_MOSI*%
%TO.N,Board_7-GND*%
X150886276Y-53249388D03*
%TO.P,U1,18,H_CSN*%
%TO.N,Board_7-unconnected-(U1-H_CSN-Pad18)*%
X150886276Y-52749388D03*
%TO.P,U1,19,H_SCL/SCK/RX*%
%TO.N,Board_7-Net-(J2-Pin_1)*%
X150886276Y-52249388D03*
D13*
%TO.P,U1,20,H_SDA/H_MISO/TX*%
%TO.N,Board_7-Net-(J1-Pin_1)*%
X150748776Y-51336888D03*
%TO.P,U1,21,RESV_NC*%
%TO.N,Board_7-unconnected-(U1-RESV_NC-Pad21)*%
X150248776Y-51336888D03*
%TO.P,U1,22,RESV_NC*%
%TO.N,Board_7-unconnected-(U1-RESV_NC-Pad22)*%
X149748776Y-51336888D03*
%TO.P,U1,23,RESV_NC*%
%TO.N,Board_7-unconnected-(U1-RESV_NC-Pad23)*%
X149248776Y-51336888D03*
%TO.P,U1,24,RESV_NC*%
%TO.N,Board_7-unconnected-(U1-RESV_NC-Pad24)*%
X148748776Y-51336888D03*
%TO.P,U1,25,GNDIO*%
%TO.N,Board_7-GND*%
X148248776Y-51336888D03*
%TO.P,U1,26,XOUT32/CLKSEL1*%
X147748776Y-51336888D03*
%TO.P,U1,27,XIN32*%
%TO.N,Board_7-unconnected-(U1-XIN32-Pad27)*%
X147248776Y-51336888D03*
%TO.P,U1,28,VDDIO*%
%TO.N,Board_7-+3.3V*%
X146748776Y-51336888D03*
%TD*%
D12*
%TO.P,J2,1,Pin_1*%
%TO.N,Board_24-Net-(J2-Pin_1)*%
X184498776Y-113999388D03*
%TD*%
%TO.P,J4,1,Pin_1*%
%TO.N,Board_11-GND*%
X137498776Y-70999388D03*
%TD*%
D10*
%TO.P,R4,1*%
%TO.N,Board_16-Net-(J1-Pin_1)*%
X133248776Y-85259388D03*
%TO.P,R4,2*%
%TO.N,Board_16-+3.3V*%
X133248776Y-84239388D03*
%TD*%
D12*
%TO.P,J3,1,Pin_1*%
%TO.N,Board_12-+3.3V*%
X141498776Y-70999388D03*
%TD*%
D10*
%TO.P,R1,1*%
%TO.N,Board_19-+3.3V*%
X186748776Y-93009388D03*
%TO.P,R1,2*%
%TO.N,Board_19-Net-(U1-ENV_SCL)*%
X186748776Y-91989388D03*
%TD*%
%TO.P,R4,1*%
%TO.N,Board_1-Net-(J1-Pin_1)*%
X133248776Y-31259388D03*
%TO.P,R4,2*%
%TO.N,Board_1-+3.3V*%
X133248776Y-30239388D03*
%TD*%
D12*
%TO.P,J2,1,Pin_1*%
%TO.N,Board_22-Net-(J2-Pin_1)*%
X148498776Y-113999388D03*
%TD*%
D10*
%TO.P,R4,1*%
%TO.N,Board_2-Net-(J1-Pin_1)*%
X151248776Y-31259388D03*
%TO.P,R4,2*%
%TO.N,Board_2-+3.3V*%
X151248776Y-30239388D03*
%TD*%
D12*
%TO.P,J3,1,Pin_1*%
%TO.N,Board_17-+3.3V*%
X141498776Y-88999388D03*
%TD*%
D13*
%TO.P,U1,1,RESV_NC*%
%TO.N,Board_22-unconnected-(U1-RESV_NC-Pad1)*%
X146248776Y-105336888D03*
D14*
%TO.P,U1,2,GND*%
%TO.N,Board_22-GND*%
X146111276Y-106249388D03*
%TO.P,U1,3,VDD*%
%TO.N,Board_22-+3.3V*%
X146111276Y-106749388D03*
%TO.P,U1,4,BOOTN*%
%TO.N,Board_22-Net-(U1-BOOTN)*%
X146111276Y-107249388D03*
%TO.P,U1,5,PS1*%
%TO.N,Board_22-GND*%
X146111276Y-107749388D03*
D13*
%TO.P,U1,6,PS0/WAKE*%
X146248776Y-108661888D03*
%TO.P,U1,7,RESV_NC*%
%TO.N,Board_22-unconnected-(U1-RESV_NC-Pad7)*%
X146748776Y-108661888D03*
%TO.P,U1,8,RESV_NC*%
%TO.N,Board_22-unconnected-(U1-RESV_NC-Pad8)*%
X147248776Y-108661888D03*
%TO.P,U1,9,CAP*%
%TO.N,Board_22-Net-(U1-CAP)*%
X147748776Y-108661888D03*
%TO.P,U1,10,CLKSEL0*%
%TO.N,Board_22-+3.3V*%
X148248776Y-108661888D03*
%TO.P,U1,11,NRST*%
%TO.N,Board_22-unconnected-(U1-NRST-Pad11)*%
X148748776Y-108661888D03*
%TO.P,U1,12,RESV_NC*%
%TO.N,Board_22-unconnected-(U1-RESV_NC-Pad12)*%
X149248776Y-108661888D03*
%TO.P,U1,13,RESV_NC*%
%TO.N,Board_22-unconnected-(U1-RESV_NC-Pad13)*%
X149748776Y-108661888D03*
%TO.P,U1,14,H_INTN*%
%TO.N,Board_22-unconnected-(U1-H_INTN-Pad14)*%
X150248776Y-108661888D03*
%TO.P,U1,15,ENV_SCL*%
%TO.N,Board_22-Net-(U1-ENV_SCL)*%
X150748776Y-108661888D03*
D14*
%TO.P,U1,16,ENV_SDA*%
%TO.N,Board_22-Net-(U1-ENV_SDA)*%
X150886276Y-107749388D03*
%TO.P,U1,17,SA0/H_MOSI*%
%TO.N,Board_22-GND*%
X150886276Y-107249388D03*
%TO.P,U1,18,H_CSN*%
%TO.N,Board_22-unconnected-(U1-H_CSN-Pad18)*%
X150886276Y-106749388D03*
%TO.P,U1,19,H_SCL/SCK/RX*%
%TO.N,Board_22-Net-(J2-Pin_1)*%
X150886276Y-106249388D03*
D13*
%TO.P,U1,20,H_SDA/H_MISO/TX*%
%TO.N,Board_22-Net-(J1-Pin_1)*%
X150748776Y-105336888D03*
%TO.P,U1,21,RESV_NC*%
%TO.N,Board_22-unconnected-(U1-RESV_NC-Pad21)*%
X150248776Y-105336888D03*
%TO.P,U1,22,RESV_NC*%
%TO.N,Board_22-unconnected-(U1-RESV_NC-Pad22)*%
X149748776Y-105336888D03*
%TO.P,U1,23,RESV_NC*%
%TO.N,Board_22-unconnected-(U1-RESV_NC-Pad23)*%
X149248776Y-105336888D03*
%TO.P,U1,24,RESV_NC*%
%TO.N,Board_22-unconnected-(U1-RESV_NC-Pad24)*%
X148748776Y-105336888D03*
%TO.P,U1,25,GNDIO*%
%TO.N,Board_22-GND*%
X148248776Y-105336888D03*
%TO.P,U1,26,XOUT32/CLKSEL1*%
X147748776Y-105336888D03*
%TO.P,U1,27,XIN32*%
%TO.N,Board_22-unconnected-(U1-XIN32-Pad27)*%
X147248776Y-105336888D03*
%TO.P,U1,28,VDDIO*%
%TO.N,Board_22-+3.3V*%
X146748776Y-105336888D03*
%TD*%
D12*
%TO.P,J2,1,Pin_1*%
%TO.N,Board_19-Net-(J2-Pin_1)*%
X184498776Y-95999388D03*
%TD*%
D15*
%TO.P,C1,1*%
%TO.N,Board_12-Net-(U1-CAP)*%
X146866014Y-73745835D03*
%TO.P,C1,2*%
%TO.N,Board_12-GND*%
X145906014Y-73745835D03*
%TD*%
D10*
%TO.P,R4,1*%
%TO.N,Board_12-Net-(J1-Pin_1)*%
X151248776Y-67259388D03*
%TO.P,R4,2*%
%TO.N,Board_12-+3.3V*%
X151248776Y-66239388D03*
%TD*%
%TO.P,R3,1*%
%TO.N,Board_20-Net-(U1-BOOTN)*%
X107998776Y-110009388D03*
%TO.P,R3,2*%
%TO.N,Board_20-+3.3V*%
X107998776Y-108989388D03*
%TD*%
%TO.P,R3,1*%
%TO.N,Board_14-Net-(U1-BOOTN)*%
X179998776Y-74009388D03*
%TO.P,R3,2*%
%TO.N,Board_14-+3.3V*%
X179998776Y-72989388D03*
%TD*%
D12*
%TO.P,J4,1,Pin_1*%
%TO.N,Board_7-GND*%
X155498776Y-52999388D03*
%TD*%
D10*
%TO.P,R4,1*%
%TO.N,Board_15-Net-(J1-Pin_1)*%
X115248776Y-85259388D03*
%TO.P,R4,2*%
%TO.N,Board_15-+3.3V*%
X115248776Y-84239388D03*
%TD*%
%TO.P,R1,1*%
%TO.N,Board_16-+3.3V*%
X132748776Y-93009388D03*
%TO.P,R1,2*%
%TO.N,Board_16-Net-(U1-ENV_SCL)*%
X132748776Y-91989388D03*
%TD*%
%TO.P,R1,1*%
%TO.N,Board_13-+3.3V*%
X168748776Y-75009388D03*
%TO.P,R1,2*%
%TO.N,Board_13-Net-(U1-ENV_SCL)*%
X168748776Y-73989388D03*
%TD*%
%TO.P,R4,1*%
%TO.N,Board_7-Net-(J1-Pin_1)*%
X151248776Y-49259388D03*
%TO.P,R4,2*%
%TO.N,Board_7-+3.3V*%
X151248776Y-48239388D03*
%TD*%
D12*
%TO.P,J1,1,Pin_1*%
%TO.N,Board_3-Net-(J1-Pin_1)*%
X166498776Y-27999388D03*
%TD*%
%TO.P,J2,1,Pin_1*%
%TO.N,Board_3-Net-(J2-Pin_1)*%
X166498776Y-41999388D03*
%TD*%
D13*
%TO.P,U1,1,RESV_NC*%
%TO.N,Board_0-unconnected-(U1-RESV_NC-Pad1)*%
X110248776Y-33336888D03*
D14*
%TO.P,U1,2,GND*%
%TO.N,Board_0-GND*%
X110111276Y-34249388D03*
%TO.P,U1,3,VDD*%
%TO.N,Board_0-+3.3V*%
X110111276Y-34749388D03*
%TO.P,U1,4,BOOTN*%
%TO.N,Board_0-Net-(U1-BOOTN)*%
X110111276Y-35249388D03*
%TO.P,U1,5,PS1*%
%TO.N,Board_0-GND*%
X110111276Y-35749388D03*
D13*
%TO.P,U1,6,PS0/WAKE*%
X110248776Y-36661888D03*
%TO.P,U1,7,RESV_NC*%
%TO.N,Board_0-unconnected-(U1-RESV_NC-Pad7)*%
X110748776Y-36661888D03*
%TO.P,U1,8,RESV_NC*%
%TO.N,Board_0-unconnected-(U1-RESV_NC-Pad8)*%
X111248776Y-36661888D03*
%TO.P,U1,9,CAP*%
%TO.N,Board_0-Net-(U1-CAP)*%
X111748776Y-36661888D03*
%TO.P,U1,10,CLKSEL0*%
%TO.N,Board_0-+3.3V*%
X112248776Y-36661888D03*
%TO.P,U1,11,NRST*%
%TO.N,Board_0-unconnected-(U1-NRST-Pad11)*%
X112748776Y-36661888D03*
%TO.P,U1,12,RESV_NC*%
%TO.N,Board_0-unconnected-(U1-RESV_NC-Pad12)*%
X113248776Y-36661888D03*
%TO.P,U1,13,RESV_NC*%
%TO.N,Board_0-unconnected-(U1-RESV_NC-Pad13)*%
X113748776Y-36661888D03*
%TO.P,U1,14,H_INTN*%
%TO.N,Board_0-unconnected-(U1-H_INTN-Pad14)*%
X114248776Y-36661888D03*
%TO.P,U1,15,ENV_SCL*%
%TO.N,Board_0-Net-(U1-ENV_SCL)*%
X114748776Y-36661888D03*
D14*
%TO.P,U1,16,ENV_SDA*%
%TO.N,Board_0-Net-(U1-ENV_SDA)*%
X114886276Y-35749388D03*
%TO.P,U1,17,SA0/H_MOSI*%
%TO.N,Board_0-GND*%
X114886276Y-35249388D03*
%TO.P,U1,18,H_CSN*%
%TO.N,Board_0-unconnected-(U1-H_CSN-Pad18)*%
X114886276Y-34749388D03*
%TO.P,U1,19,H_SCL/SCK/RX*%
%TO.N,Board_0-Net-(J2-Pin_1)*%
X114886276Y-34249388D03*
D13*
%TO.P,U1,20,H_SDA/H_MISO/TX*%
%TO.N,Board_0-Net-(J1-Pin_1)*%
X114748776Y-33336888D03*
%TO.P,U1,21,RESV_NC*%
%TO.N,Board_0-unconnected-(U1-RESV_NC-Pad21)*%
X114248776Y-33336888D03*
%TO.P,U1,22,RESV_NC*%
%TO.N,Board_0-unconnected-(U1-RESV_NC-Pad22)*%
X113748776Y-33336888D03*
%TO.P,U1,23,RESV_NC*%
%TO.N,Board_0-unconnected-(U1-RESV_NC-Pad23)*%
X113248776Y-33336888D03*
%TO.P,U1,24,RESV_NC*%
%TO.N,Board_0-unconnected-(U1-RESV_NC-Pad24)*%
X112748776Y-33336888D03*
%TO.P,U1,25,GNDIO*%
%TO.N,Board_0-GND*%
X112248776Y-33336888D03*
%TO.P,U1,26,XOUT32/CLKSEL1*%
X111748776Y-33336888D03*
%TO.P,U1,27,XIN32*%
%TO.N,Board_0-unconnected-(U1-XIN32-Pad27)*%
X111248776Y-33336888D03*
%TO.P,U1,28,VDDIO*%
%TO.N,Board_0-+3.3V*%
X110748776Y-33336888D03*
%TD*%
D11*
%TO.P,R2,1*%
%TO.N,Board_13-Net-(U1-ENV_SDA)*%
X170498776Y-72989388D03*
%TO.P,R2,2*%
%TO.N,Board_13-+3.3V*%
X170498776Y-74009388D03*
%TD*%
D10*
%TO.P,R1,1*%
%TO.N,Board_4-+3.3V*%
X186748776Y-39009388D03*
%TO.P,R1,2*%
%TO.N,Board_4-Net-(U1-ENV_SCL)*%
X186748776Y-37989388D03*
%TD*%
D11*
%TO.P,R2,1*%
%TO.N,Board_12-Net-(U1-ENV_SDA)*%
X152498776Y-72989388D03*
%TO.P,R2,2*%
%TO.N,Board_12-+3.3V*%
X152498776Y-74009388D03*
%TD*%
%TO.P,R5,1*%
%TO.N,Board_13-+3.3V*%
X170998776Y-67239388D03*
%TO.P,R5,2*%
%TO.N,Board_13-Net-(J2-Pin_1)*%
X170998776Y-68259388D03*
%TD*%
D13*
%TO.P,U1,1,RESV_NC*%
%TO.N,Board_9-unconnected-(U1-RESV_NC-Pad1)*%
X182248776Y-51336888D03*
D14*
%TO.P,U1,2,GND*%
%TO.N,Board_9-GND*%
X182111276Y-52249388D03*
%TO.P,U1,3,VDD*%
%TO.N,Board_9-+3.3V*%
X182111276Y-52749388D03*
%TO.P,U1,4,BOOTN*%
%TO.N,Board_9-Net-(U1-BOOTN)*%
X182111276Y-53249388D03*
%TO.P,U1,5,PS1*%
%TO.N,Board_9-GND*%
X182111276Y-53749388D03*
D13*
%TO.P,U1,6,PS0/WAKE*%
X182248776Y-54661888D03*
%TO.P,U1,7,RESV_NC*%
%TO.N,Board_9-unconnected-(U1-RESV_NC-Pad7)*%
X182748776Y-54661888D03*
%TO.P,U1,8,RESV_NC*%
%TO.N,Board_9-unconnected-(U1-RESV_NC-Pad8)*%
X183248776Y-54661888D03*
%TO.P,U1,9,CAP*%
%TO.N,Board_9-Net-(U1-CAP)*%
X183748776Y-54661888D03*
%TO.P,U1,10,CLKSEL0*%
%TO.N,Board_9-+3.3V*%
X184248776Y-54661888D03*
%TO.P,U1,11,NRST*%
%TO.N,Board_9-unconnected-(U1-NRST-Pad11)*%
X184748776Y-54661888D03*
%TO.P,U1,12,RESV_NC*%
%TO.N,Board_9-unconnected-(U1-RESV_NC-Pad12)*%
X185248776Y-54661888D03*
%TO.P,U1,13,RESV_NC*%
%TO.N,Board_9-unconnected-(U1-RESV_NC-Pad13)*%
X185748776Y-54661888D03*
%TO.P,U1,14,H_INTN*%
%TO.N,Board_9-unconnected-(U1-H_INTN-Pad14)*%
X186248776Y-54661888D03*
%TO.P,U1,15,ENV_SCL*%
%TO.N,Board_9-Net-(U1-ENV_SCL)*%
X186748776Y-54661888D03*
D14*
%TO.P,U1,16,ENV_SDA*%
%TO.N,Board_9-Net-(U1-ENV_SDA)*%
X186886276Y-53749388D03*
%TO.P,U1,17,SA0/H_MOSI*%
%TO.N,Board_9-GND*%
X186886276Y-53249388D03*
%TO.P,U1,18,H_CSN*%
%TO.N,Board_9-unconnected-(U1-H_CSN-Pad18)*%
X186886276Y-52749388D03*
%TO.P,U1,19,H_SCL/SCK/RX*%
%TO.N,Board_9-Net-(J2-Pin_1)*%
X186886276Y-52249388D03*
D13*
%TO.P,U1,20,H_SDA/H_MISO/TX*%
%TO.N,Board_9-Net-(J1-Pin_1)*%
X186748776Y-51336888D03*
%TO.P,U1,21,RESV_NC*%
%TO.N,Board_9-unconnected-(U1-RESV_NC-Pad21)*%
X186248776Y-51336888D03*
%TO.P,U1,22,RESV_NC*%
%TO.N,Board_9-unconnected-(U1-RESV_NC-Pad22)*%
X185748776Y-51336888D03*
%TO.P,U1,23,RESV_NC*%
%TO.N,Board_9-unconnected-(U1-RESV_NC-Pad23)*%
X185248776Y-51336888D03*
%TO.P,U1,24,RESV_NC*%
%TO.N,Board_9-unconnected-(U1-RESV_NC-Pad24)*%
X184748776Y-51336888D03*
%TO.P,U1,25,GNDIO*%
%TO.N,Board_9-GND*%
X184248776Y-51336888D03*
%TO.P,U1,26,XOUT32/CLKSEL1*%
X183748776Y-51336888D03*
%TO.P,U1,27,XIN32*%
%TO.N,Board_9-unconnected-(U1-XIN32-Pad27)*%
X183248776Y-51336888D03*
%TO.P,U1,28,VDDIO*%
%TO.N,Board_9-+3.3V*%
X182748776Y-51336888D03*
%TD*%
D12*
%TO.P,J4,1,Pin_1*%
%TO.N,Board_9-GND*%
X191498776Y-52999388D03*
%TD*%
D15*
%TO.P,C1,1*%
%TO.N,Board_13-Net-(U1-CAP)*%
X164866014Y-73745835D03*
%TO.P,C1,2*%
%TO.N,Board_13-GND*%
X163906014Y-73745835D03*
%TD*%
D10*
%TO.P,R1,1*%
%TO.N,Board_12-+3.3V*%
X150748776Y-75009388D03*
%TO.P,R1,2*%
%TO.N,Board_12-Net-(U1-ENV_SCL)*%
X150748776Y-73989388D03*
%TD*%
%TO.P,R1,1*%
%TO.N,Board_11-+3.3V*%
X132748776Y-75009388D03*
%TO.P,R1,2*%
%TO.N,Board_11-Net-(U1-ENV_SCL)*%
X132748776Y-73989388D03*
%TD*%
%TO.P,R1,1*%
%TO.N,Board_5-+3.3V*%
X114748776Y-57009388D03*
%TO.P,R1,2*%
%TO.N,Board_5-Net-(U1-ENV_SCL)*%
X114748776Y-55989388D03*
%TD*%
D13*
%TO.P,U1,1,RESV_NC*%
%TO.N,Board_12-unconnected-(U1-RESV_NC-Pad1)*%
X146248776Y-69336888D03*
D14*
%TO.P,U1,2,GND*%
%TO.N,Board_12-GND*%
X146111276Y-70249388D03*
%TO.P,U1,3,VDD*%
%TO.N,Board_12-+3.3V*%
X146111276Y-70749388D03*
%TO.P,U1,4,BOOTN*%
%TO.N,Board_12-Net-(U1-BOOTN)*%
X146111276Y-71249388D03*
%TO.P,U1,5,PS1*%
%TO.N,Board_12-GND*%
X146111276Y-71749388D03*
D13*
%TO.P,U1,6,PS0/WAKE*%
X146248776Y-72661888D03*
%TO.P,U1,7,RESV_NC*%
%TO.N,Board_12-unconnected-(U1-RESV_NC-Pad7)*%
X146748776Y-72661888D03*
%TO.P,U1,8,RESV_NC*%
%TO.N,Board_12-unconnected-(U1-RESV_NC-Pad8)*%
X147248776Y-72661888D03*
%TO.P,U1,9,CAP*%
%TO.N,Board_12-Net-(U1-CAP)*%
X147748776Y-72661888D03*
%TO.P,U1,10,CLKSEL0*%
%TO.N,Board_12-+3.3V*%
X148248776Y-72661888D03*
%TO.P,U1,11,NRST*%
%TO.N,Board_12-unconnected-(U1-NRST-Pad11)*%
X148748776Y-72661888D03*
%TO.P,U1,12,RESV_NC*%
%TO.N,Board_12-unconnected-(U1-RESV_NC-Pad12)*%
X149248776Y-72661888D03*
%TO.P,U1,13,RESV_NC*%
%TO.N,Board_12-unconnected-(U1-RESV_NC-Pad13)*%
X149748776Y-72661888D03*
%TO.P,U1,14,H_INTN*%
%TO.N,Board_12-unconnected-(U1-H_INTN-Pad14)*%
X150248776Y-72661888D03*
%TO.P,U1,15,ENV_SCL*%
%TO.N,Board_12-Net-(U1-ENV_SCL)*%
X150748776Y-72661888D03*
D14*
%TO.P,U1,16,ENV_SDA*%
%TO.N,Board_12-Net-(U1-ENV_SDA)*%
X150886276Y-71749388D03*
%TO.P,U1,17,SA0/H_MOSI*%
%TO.N,Board_12-GND*%
X150886276Y-71249388D03*
%TO.P,U1,18,H_CSN*%
%TO.N,Board_12-unconnected-(U1-H_CSN-Pad18)*%
X150886276Y-70749388D03*
%TO.P,U1,19,H_SCL/SCK/RX*%
%TO.N,Board_12-Net-(J2-Pin_1)*%
X150886276Y-70249388D03*
D13*
%TO.P,U1,20,H_SDA/H_MISO/TX*%
%TO.N,Board_12-Net-(J1-Pin_1)*%
X150748776Y-69336888D03*
%TO.P,U1,21,RESV_NC*%
%TO.N,Board_12-unconnected-(U1-RESV_NC-Pad21)*%
X150248776Y-69336888D03*
%TO.P,U1,22,RESV_NC*%
%TO.N,Board_12-unconnected-(U1-RESV_NC-Pad22)*%
X149748776Y-69336888D03*
%TO.P,U1,23,RESV_NC*%
%TO.N,Board_12-unconnected-(U1-RESV_NC-Pad23)*%
X149248776Y-69336888D03*
%TO.P,U1,24,RESV_NC*%
%TO.N,Board_12-unconnected-(U1-RESV_NC-Pad24)*%
X148748776Y-69336888D03*
%TO.P,U1,25,GNDIO*%
%TO.N,Board_12-GND*%
X148248776Y-69336888D03*
%TO.P,U1,26,XOUT32/CLKSEL1*%
X147748776Y-69336888D03*
%TO.P,U1,27,XIN32*%
%TO.N,Board_12-unconnected-(U1-XIN32-Pad27)*%
X147248776Y-69336888D03*
%TO.P,U1,28,VDDIO*%
%TO.N,Board_12-+3.3V*%
X146748776Y-69336888D03*
%TD*%
D12*
%TO.P,J3,1,Pin_1*%
%TO.N,Board_16-+3.3V*%
X123498776Y-88999388D03*
%TD*%
%TO.P,J4,1,Pin_1*%
%TO.N,Board_3-GND*%
X173498776Y-34999388D03*
%TD*%
D11*
%TO.P,R2,1*%
%TO.N,Board_8-Net-(U1-ENV_SDA)*%
X170498776Y-54989388D03*
%TO.P,R2,2*%
%TO.N,Board_8-+3.3V*%
X170498776Y-56009388D03*
%TD*%
D13*
%TO.P,U1,1,RESV_NC*%
%TO.N,Board_21-unconnected-(U1-RESV_NC-Pad1)*%
X128248776Y-105336888D03*
D14*
%TO.P,U1,2,GND*%
%TO.N,Board_21-GND*%
X128111276Y-106249388D03*
%TO.P,U1,3,VDD*%
%TO.N,Board_21-+3.3V*%
X128111276Y-106749388D03*
%TO.P,U1,4,BOOTN*%
%TO.N,Board_21-Net-(U1-BOOTN)*%
X128111276Y-107249388D03*
%TO.P,U1,5,PS1*%
%TO.N,Board_21-GND*%
X128111276Y-107749388D03*
D13*
%TO.P,U1,6,PS0/WAKE*%
X128248776Y-108661888D03*
%TO.P,U1,7,RESV_NC*%
%TO.N,Board_21-unconnected-(U1-RESV_NC-Pad7)*%
X128748776Y-108661888D03*
%TO.P,U1,8,RESV_NC*%
%TO.N,Board_21-unconnected-(U1-RESV_NC-Pad8)*%
X129248776Y-108661888D03*
%TO.P,U1,9,CAP*%
%TO.N,Board_21-Net-(U1-CAP)*%
X129748776Y-108661888D03*
%TO.P,U1,10,CLKSEL0*%
%TO.N,Board_21-+3.3V*%
X130248776Y-108661888D03*
%TO.P,U1,11,NRST*%
%TO.N,Board_21-unconnected-(U1-NRST-Pad11)*%
X130748776Y-108661888D03*
%TO.P,U1,12,RESV_NC*%
%TO.N,Board_21-unconnected-(U1-RESV_NC-Pad12)*%
X131248776Y-108661888D03*
%TO.P,U1,13,RESV_NC*%
%TO.N,Board_21-unconnected-(U1-RESV_NC-Pad13)*%
X131748776Y-108661888D03*
%TO.P,U1,14,H_INTN*%
%TO.N,Board_21-unconnected-(U1-H_INTN-Pad14)*%
X132248776Y-108661888D03*
%TO.P,U1,15,ENV_SCL*%
%TO.N,Board_21-Net-(U1-ENV_SCL)*%
X132748776Y-108661888D03*
D14*
%TO.P,U1,16,ENV_SDA*%
%TO.N,Board_21-Net-(U1-ENV_SDA)*%
X132886276Y-107749388D03*
%TO.P,U1,17,SA0/H_MOSI*%
%TO.N,Board_21-GND*%
X132886276Y-107249388D03*
%TO.P,U1,18,H_CSN*%
%TO.N,Board_21-unconnected-(U1-H_CSN-Pad18)*%
X132886276Y-106749388D03*
%TO.P,U1,19,H_SCL/SCK/RX*%
%TO.N,Board_21-Net-(J2-Pin_1)*%
X132886276Y-106249388D03*
D13*
%TO.P,U1,20,H_SDA/H_MISO/TX*%
%TO.N,Board_21-Net-(J1-Pin_1)*%
X132748776Y-105336888D03*
%TO.P,U1,21,RESV_NC*%
%TO.N,Board_21-unconnected-(U1-RESV_NC-Pad21)*%
X132248776Y-105336888D03*
%TO.P,U1,22,RESV_NC*%
%TO.N,Board_21-unconnected-(U1-RESV_NC-Pad22)*%
X131748776Y-105336888D03*
%TO.P,U1,23,RESV_NC*%
%TO.N,Board_21-unconnected-(U1-RESV_NC-Pad23)*%
X131248776Y-105336888D03*
%TO.P,U1,24,RESV_NC*%
%TO.N,Board_21-unconnected-(U1-RESV_NC-Pad24)*%
X130748776Y-105336888D03*
%TO.P,U1,25,GNDIO*%
%TO.N,Board_21-GND*%
X130248776Y-105336888D03*
%TO.P,U1,26,XOUT32/CLKSEL1*%
X129748776Y-105336888D03*
%TO.P,U1,27,XIN32*%
%TO.N,Board_21-unconnected-(U1-XIN32-Pad27)*%
X129248776Y-105336888D03*
%TO.P,U1,28,VDDIO*%
%TO.N,Board_21-+3.3V*%
X128748776Y-105336888D03*
%TD*%
D10*
%TO.P,R3,1*%
%TO.N,Board_19-Net-(U1-BOOTN)*%
X179998776Y-92009388D03*
%TO.P,R3,2*%
%TO.N,Board_19-+3.3V*%
X179998776Y-90989388D03*
%TD*%
D11*
%TO.P,R2,1*%
%TO.N,Board_3-Net-(U1-ENV_SDA)*%
X170498776Y-36989388D03*
%TO.P,R2,2*%
%TO.N,Board_3-+3.3V*%
X170498776Y-38009388D03*
%TD*%
D10*
%TO.P,R1,1*%
%TO.N,Board_7-+3.3V*%
X150748776Y-57009388D03*
%TO.P,R1,2*%
%TO.N,Board_7-Net-(U1-ENV_SCL)*%
X150748776Y-55989388D03*
%TD*%
D12*
%TO.P,J3,1,Pin_1*%
%TO.N,Board_0-+3.3V*%
X105498776Y-34999388D03*
%TD*%
D15*
%TO.P,C1,1*%
%TO.N,Board_23-Net-(U1-CAP)*%
X164866014Y-109745835D03*
%TO.P,C1,2*%
%TO.N,Board_23-GND*%
X163906014Y-109745835D03*
%TD*%
D10*
%TO.P,R4,1*%
%TO.N,Board_8-Net-(J1-Pin_1)*%
X169248776Y-49259388D03*
%TO.P,R4,2*%
%TO.N,Board_8-+3.3V*%
X169248776Y-48239388D03*
%TD*%
%TO.P,R4,1*%
%TO.N,Board_4-Net-(J1-Pin_1)*%
X187248776Y-31259388D03*
%TO.P,R4,2*%
%TO.N,Board_4-+3.3V*%
X187248776Y-30239388D03*
%TD*%
D12*
%TO.P,J1,1,Pin_1*%
%TO.N,Board_5-Net-(J1-Pin_1)*%
X112498776Y-45999388D03*
%TD*%
D10*
%TO.P,R3,1*%
%TO.N,Board_16-Net-(U1-BOOTN)*%
X125998776Y-92009388D03*
%TO.P,R3,2*%
%TO.N,Board_16-+3.3V*%
X125998776Y-90989388D03*
%TD*%
D12*
%TO.P,J3,1,Pin_1*%
%TO.N,Board_13-+3.3V*%
X159498776Y-70999388D03*
%TD*%
D13*
%TO.P,U1,1,RESV_NC*%
%TO.N,Board_4-unconnected-(U1-RESV_NC-Pad1)*%
X182248776Y-33336888D03*
D14*
%TO.P,U1,2,GND*%
%TO.N,Board_4-GND*%
X182111276Y-34249388D03*
%TO.P,U1,3,VDD*%
%TO.N,Board_4-+3.3V*%
X182111276Y-34749388D03*
%TO.P,U1,4,BOOTN*%
%TO.N,Board_4-Net-(U1-BOOTN)*%
X182111276Y-35249388D03*
%TO.P,U1,5,PS1*%
%TO.N,Board_4-GND*%
X182111276Y-35749388D03*
D13*
%TO.P,U1,6,PS0/WAKE*%
X182248776Y-36661888D03*
%TO.P,U1,7,RESV_NC*%
%TO.N,Board_4-unconnected-(U1-RESV_NC-Pad7)*%
X182748776Y-36661888D03*
%TO.P,U1,8,RESV_NC*%
%TO.N,Board_4-unconnected-(U1-RESV_NC-Pad8)*%
X183248776Y-36661888D03*
%TO.P,U1,9,CAP*%
%TO.N,Board_4-Net-(U1-CAP)*%
X183748776Y-36661888D03*
%TO.P,U1,10,CLKSEL0*%
%TO.N,Board_4-+3.3V*%
X184248776Y-36661888D03*
%TO.P,U1,11,NRST*%
%TO.N,Board_4-unconnected-(U1-NRST-Pad11)*%
X184748776Y-36661888D03*
%TO.P,U1,12,RESV_NC*%
%TO.N,Board_4-unconnected-(U1-RESV_NC-Pad12)*%
X185248776Y-36661888D03*
%TO.P,U1,13,RESV_NC*%
%TO.N,Board_4-unconnected-(U1-RESV_NC-Pad13)*%
X185748776Y-36661888D03*
%TO.P,U1,14,H_INTN*%
%TO.N,Board_4-unconnected-(U1-H_INTN-Pad14)*%
X186248776Y-36661888D03*
%TO.P,U1,15,ENV_SCL*%
%TO.N,Board_4-Net-(U1-ENV_SCL)*%
X186748776Y-36661888D03*
D14*
%TO.P,U1,16,ENV_SDA*%
%TO.N,Board_4-Net-(U1-ENV_SDA)*%
X186886276Y-35749388D03*
%TO.P,U1,17,SA0/H_MOSI*%
%TO.N,Board_4-GND*%
X186886276Y-35249388D03*
%TO.P,U1,18,H_CSN*%
%TO.N,Board_4-unconnected-(U1-H_CSN-Pad18)*%
X186886276Y-34749388D03*
%TO.P,U1,19,H_SCL/SCK/RX*%
%TO.N,Board_4-Net-(J2-Pin_1)*%
X186886276Y-34249388D03*
D13*
%TO.P,U1,20,H_SDA/H_MISO/TX*%
%TO.N,Board_4-Net-(J1-Pin_1)*%
X186748776Y-33336888D03*
%TO.P,U1,21,RESV_NC*%
%TO.N,Board_4-unconnected-(U1-RESV_NC-Pad21)*%
X186248776Y-33336888D03*
%TO.P,U1,22,RESV_NC*%
%TO.N,Board_4-unconnected-(U1-RESV_NC-Pad22)*%
X185748776Y-33336888D03*
%TO.P,U1,23,RESV_NC*%
%TO.N,Board_4-unconnected-(U1-RESV_NC-Pad23)*%
X185248776Y-33336888D03*
%TO.P,U1,24,RESV_NC*%
%TO.N,Board_4-unconnected-(U1-RESV_NC-Pad24)*%
X184748776Y-33336888D03*
%TO.P,U1,25,GNDIO*%
%TO.N,Board_4-GND*%
X184248776Y-33336888D03*
%TO.P,U1,26,XOUT32/CLKSEL1*%
X183748776Y-33336888D03*
%TO.P,U1,27,XIN32*%
%TO.N,Board_4-unconnected-(U1-XIN32-Pad27)*%
X183248776Y-33336888D03*
%TO.P,U1,28,VDDIO*%
%TO.N,Board_4-+3.3V*%
X182748776Y-33336888D03*
%TD*%
D11*
%TO.P,R5,1*%
%TO.N,Board_2-+3.3V*%
X152998776Y-31239388D03*
%TO.P,R5,2*%
%TO.N,Board_2-Net-(J2-Pin_1)*%
X152998776Y-32259388D03*
%TD*%
D12*
%TO.P,J3,1,Pin_1*%
%TO.N,Board_7-+3.3V*%
X141498776Y-52999388D03*
%TD*%
%TO.P,J3,1,Pin_1*%
%TO.N,Board_15-+3.3V*%
X105498776Y-88999388D03*
%TD*%
D10*
%TO.P,R3,1*%
%TO.N,Board_18-Net-(U1-BOOTN)*%
X161998776Y-92009388D03*
%TO.P,R3,2*%
%TO.N,Board_18-+3.3V*%
X161998776Y-90989388D03*
%TD*%
D11*
%TO.P,R5,1*%
%TO.N,Board_23-+3.3V*%
X170998776Y-103239388D03*
%TO.P,R5,2*%
%TO.N,Board_23-Net-(J2-Pin_1)*%
X170998776Y-104259388D03*
%TD*%
D10*
%TO.P,R4,1*%
%TO.N,Board_23-Net-(J1-Pin_1)*%
X169248776Y-103259388D03*
%TO.P,R4,2*%
%TO.N,Board_23-+3.3V*%
X169248776Y-102239388D03*
%TD*%
D12*
%TO.P,J4,1,Pin_1*%
%TO.N,Board_23-GND*%
X173498776Y-106999388D03*
%TD*%
D11*
%TO.P,R2,1*%
%TO.N,Board_7-Net-(U1-ENV_SDA)*%
X152498776Y-54989388D03*
%TO.P,R2,2*%
%TO.N,Board_7-+3.3V*%
X152498776Y-56009388D03*
%TD*%
D10*
%TO.P,R3,1*%
%TO.N,Board_0-Net-(U1-BOOTN)*%
X107998776Y-38009388D03*
%TO.P,R3,2*%
%TO.N,Board_0-+3.3V*%
X107998776Y-36989388D03*
%TD*%
D12*
%TO.P,J4,1,Pin_1*%
%TO.N,Board_1-GND*%
X137498776Y-34999388D03*
%TD*%
D15*
%TO.P,C1,1*%
%TO.N,Board_22-Net-(U1-CAP)*%
X146866014Y-109745835D03*
%TO.P,C1,2*%
%TO.N,Board_22-GND*%
X145906014Y-109745835D03*
%TD*%
D12*
%TO.P,J3,1,Pin_1*%
%TO.N,Board_1-+3.3V*%
X123498776Y-34999388D03*
%TD*%
D13*
%TO.P,U1,1,RESV_NC*%
%TO.N,Board_20-unconnected-(U1-RESV_NC-Pad1)*%
X110248776Y-105336888D03*
D14*
%TO.P,U1,2,GND*%
%TO.N,Board_20-GND*%
X110111276Y-106249388D03*
%TO.P,U1,3,VDD*%
%TO.N,Board_20-+3.3V*%
X110111276Y-106749388D03*
%TO.P,U1,4,BOOTN*%
%TO.N,Board_20-Net-(U1-BOOTN)*%
X110111276Y-107249388D03*
%TO.P,U1,5,PS1*%
%TO.N,Board_20-GND*%
X110111276Y-107749388D03*
D13*
%TO.P,U1,6,PS0/WAKE*%
X110248776Y-108661888D03*
%TO.P,U1,7,RESV_NC*%
%TO.N,Board_20-unconnected-(U1-RESV_NC-Pad7)*%
X110748776Y-108661888D03*
%TO.P,U1,8,RESV_NC*%
%TO.N,Board_20-unconnected-(U1-RESV_NC-Pad8)*%
X111248776Y-108661888D03*
%TO.P,U1,9,CAP*%
%TO.N,Board_20-Net-(U1-CAP)*%
X111748776Y-108661888D03*
%TO.P,U1,10,CLKSEL0*%
%TO.N,Board_20-+3.3V*%
X112248776Y-108661888D03*
%TO.P,U1,11,NRST*%
%TO.N,Board_20-unconnected-(U1-NRST-Pad11)*%
X112748776Y-108661888D03*
%TO.P,U1,12,RESV_NC*%
%TO.N,Board_20-unconnected-(U1-RESV_NC-Pad12)*%
X113248776Y-108661888D03*
%TO.P,U1,13,RESV_NC*%
%TO.N,Board_20-unconnected-(U1-RESV_NC-Pad13)*%
X113748776Y-108661888D03*
%TO.P,U1,14,H_INTN*%
%TO.N,Board_20-unconnected-(U1-H_INTN-Pad14)*%
X114248776Y-108661888D03*
%TO.P,U1,15,ENV_SCL*%
%TO.N,Board_20-Net-(U1-ENV_SCL)*%
X114748776Y-108661888D03*
D14*
%TO.P,U1,16,ENV_SDA*%
%TO.N,Board_20-Net-(U1-ENV_SDA)*%
X114886276Y-107749388D03*
%TO.P,U1,17,SA0/H_MOSI*%
%TO.N,Board_20-GND*%
X114886276Y-107249388D03*
%TO.P,U1,18,H_CSN*%
%TO.N,Board_20-unconnected-(U1-H_CSN-Pad18)*%
X114886276Y-106749388D03*
%TO.P,U1,19,H_SCL/SCK/RX*%
%TO.N,Board_20-Net-(J2-Pin_1)*%
X114886276Y-106249388D03*
D13*
%TO.P,U1,20,H_SDA/H_MISO/TX*%
%TO.N,Board_20-Net-(J1-Pin_1)*%
X114748776Y-105336888D03*
%TO.P,U1,21,RESV_NC*%
%TO.N,Board_20-unconnected-(U1-RESV_NC-Pad21)*%
X114248776Y-105336888D03*
%TO.P,U1,22,RESV_NC*%
%TO.N,Board_20-unconnected-(U1-RESV_NC-Pad22)*%
X113748776Y-105336888D03*
%TO.P,U1,23,RESV_NC*%
%TO.N,Board_20-unconnected-(U1-RESV_NC-Pad23)*%
X113248776Y-105336888D03*
%TO.P,U1,24,RESV_NC*%
%TO.N,Board_20-unconnected-(U1-RESV_NC-Pad24)*%
X112748776Y-105336888D03*
%TO.P,U1,25,GNDIO*%
%TO.N,Board_20-GND*%
X112248776Y-105336888D03*
%TO.P,U1,26,XOUT32/CLKSEL1*%
X111748776Y-105336888D03*
%TO.P,U1,27,XIN32*%
%TO.N,Board_20-unconnected-(U1-XIN32-Pad27)*%
X111248776Y-105336888D03*
%TO.P,U1,28,VDDIO*%
%TO.N,Board_20-+3.3V*%
X110748776Y-105336888D03*
%TD*%
D11*
%TO.P,R5,1*%
%TO.N,Board_8-+3.3V*%
X170998776Y-49239388D03*
%TO.P,R5,2*%
%TO.N,Board_8-Net-(J2-Pin_1)*%
X170998776Y-50259388D03*
%TD*%
D12*
%TO.P,J2,1,Pin_1*%
%TO.N,Board_9-Net-(J2-Pin_1)*%
X184498776Y-59999388D03*
%TD*%
%TO.P,J3,1,Pin_1*%
%TO.N,Board_10-+3.3V*%
X105498776Y-70999388D03*
%TD*%
D11*
%TO.P,R5,1*%
%TO.N,Board_7-+3.3V*%
X152998776Y-49239388D03*
%TO.P,R5,2*%
%TO.N,Board_7-Net-(J2-Pin_1)*%
X152998776Y-50259388D03*
%TD*%
D10*
%TO.P,R3,1*%
%TO.N,Board_13-Net-(U1-BOOTN)*%
X161998776Y-74009388D03*
%TO.P,R3,2*%
%TO.N,Board_13-+3.3V*%
X161998776Y-72989388D03*
%TD*%
D15*
%TO.P,C1,1*%
%TO.N,Board_4-Net-(U1-CAP)*%
X182866014Y-37745835D03*
%TO.P,C1,2*%
%TO.N,Board_4-GND*%
X181906014Y-37745835D03*
%TD*%
D12*
%TO.P,J3,1,Pin_1*%
%TO.N,Board_3-+3.3V*%
X159498776Y-34999388D03*
%TD*%
D13*
%TO.P,U1,1,RESV_NC*%
%TO.N,Board_1-unconnected-(U1-RESV_NC-Pad1)*%
X128248776Y-33336888D03*
D14*
%TO.P,U1,2,GND*%
%TO.N,Board_1-GND*%
X128111276Y-34249388D03*
%TO.P,U1,3,VDD*%
%TO.N,Board_1-+3.3V*%
X128111276Y-34749388D03*
%TO.P,U1,4,BOOTN*%
%TO.N,Board_1-Net-(U1-BOOTN)*%
X128111276Y-35249388D03*
%TO.P,U1,5,PS1*%
%TO.N,Board_1-GND*%
X128111276Y-35749388D03*
D13*
%TO.P,U1,6,PS0/WAKE*%
X128248776Y-36661888D03*
%TO.P,U1,7,RESV_NC*%
%TO.N,Board_1-unconnected-(U1-RESV_NC-Pad7)*%
X128748776Y-36661888D03*
%TO.P,U1,8,RESV_NC*%
%TO.N,Board_1-unconnected-(U1-RESV_NC-Pad8)*%
X129248776Y-36661888D03*
%TO.P,U1,9,CAP*%
%TO.N,Board_1-Net-(U1-CAP)*%
X129748776Y-36661888D03*
%TO.P,U1,10,CLKSEL0*%
%TO.N,Board_1-+3.3V*%
X130248776Y-36661888D03*
%TO.P,U1,11,NRST*%
%TO.N,Board_1-unconnected-(U1-NRST-Pad11)*%
X130748776Y-36661888D03*
%TO.P,U1,12,RESV_NC*%
%TO.N,Board_1-unconnected-(U1-RESV_NC-Pad12)*%
X131248776Y-36661888D03*
%TO.P,U1,13,RESV_NC*%
%TO.N,Board_1-unconnected-(U1-RESV_NC-Pad13)*%
X131748776Y-36661888D03*
%TO.P,U1,14,H_INTN*%
%TO.N,Board_1-unconnected-(U1-H_INTN-Pad14)*%
X132248776Y-36661888D03*
%TO.P,U1,15,ENV_SCL*%
%TO.N,Board_1-Net-(U1-ENV_SCL)*%
X132748776Y-36661888D03*
D14*
%TO.P,U1,16,ENV_SDA*%
%TO.N,Board_1-Net-(U1-ENV_SDA)*%
X132886276Y-35749388D03*
%TO.P,U1,17,SA0/H_MOSI*%
%TO.N,Board_1-GND*%
X132886276Y-35249388D03*
%TO.P,U1,18,H_CSN*%
%TO.N,Board_1-unconnected-(U1-H_CSN-Pad18)*%
X132886276Y-34749388D03*
%TO.P,U1,19,H_SCL/SCK/RX*%
%TO.N,Board_1-Net-(J2-Pin_1)*%
X132886276Y-34249388D03*
D13*
%TO.P,U1,20,H_SDA/H_MISO/TX*%
%TO.N,Board_1-Net-(J1-Pin_1)*%
X132748776Y-33336888D03*
%TO.P,U1,21,RESV_NC*%
%TO.N,Board_1-unconnected-(U1-RESV_NC-Pad21)*%
X132248776Y-33336888D03*
%TO.P,U1,22,RESV_NC*%
%TO.N,Board_1-unconnected-(U1-RESV_NC-Pad22)*%
X131748776Y-33336888D03*
%TO.P,U1,23,RESV_NC*%
%TO.N,Board_1-unconnected-(U1-RESV_NC-Pad23)*%
X131248776Y-33336888D03*
%TO.P,U1,24,RESV_NC*%
%TO.N,Board_1-unconnected-(U1-RESV_NC-Pad24)*%
X130748776Y-33336888D03*
%TO.P,U1,25,GNDIO*%
%TO.N,Board_1-GND*%
X130248776Y-33336888D03*
%TO.P,U1,26,XOUT32/CLKSEL1*%
X129748776Y-33336888D03*
%TO.P,U1,27,XIN32*%
%TO.N,Board_1-unconnected-(U1-XIN32-Pad27)*%
X129248776Y-33336888D03*
%TO.P,U1,28,VDDIO*%
%TO.N,Board_1-+3.3V*%
X128748776Y-33336888D03*
%TD*%
D10*
%TO.P,R3,1*%
%TO.N,Board_23-Net-(U1-BOOTN)*%
X161998776Y-110009388D03*
%TO.P,R3,2*%
%TO.N,Board_23-+3.3V*%
X161998776Y-108989388D03*
%TD*%
D12*
%TO.P,J3,1,Pin_1*%
%TO.N,Board_20-+3.3V*%
X105498776Y-106999388D03*
%TD*%
D11*
%TO.P,R2,1*%
%TO.N,Board_0-Net-(U1-ENV_SDA)*%
X116498776Y-36989388D03*
%TO.P,R2,2*%
%TO.N,Board_0-+3.3V*%
X116498776Y-38009388D03*
%TD*%
D13*
%TO.P,U1,1,RESV_NC*%
%TO.N,Board_18-unconnected-(U1-RESV_NC-Pad1)*%
X164248776Y-87336888D03*
D14*
%TO.P,U1,2,GND*%
%TO.N,Board_18-GND*%
X164111276Y-88249388D03*
%TO.P,U1,3,VDD*%
%TO.N,Board_18-+3.3V*%
X164111276Y-88749388D03*
%TO.P,U1,4,BOOTN*%
%TO.N,Board_18-Net-(U1-BOOTN)*%
X164111276Y-89249388D03*
%TO.P,U1,5,PS1*%
%TO.N,Board_18-GND*%
X164111276Y-89749388D03*
D13*
%TO.P,U1,6,PS0/WAKE*%
X164248776Y-90661888D03*
%TO.P,U1,7,RESV_NC*%
%TO.N,Board_18-unconnected-(U1-RESV_NC-Pad7)*%
X164748776Y-90661888D03*
%TO.P,U1,8,RESV_NC*%
%TO.N,Board_18-unconnected-(U1-RESV_NC-Pad8)*%
X165248776Y-90661888D03*
%TO.P,U1,9,CAP*%
%TO.N,Board_18-Net-(U1-CAP)*%
X165748776Y-90661888D03*
%TO.P,U1,10,CLKSEL0*%
%TO.N,Board_18-+3.3V*%
X166248776Y-90661888D03*
%TO.P,U1,11,NRST*%
%TO.N,Board_18-unconnected-(U1-NRST-Pad11)*%
X166748776Y-90661888D03*
%TO.P,U1,12,RESV_NC*%
%TO.N,Board_18-unconnected-(U1-RESV_NC-Pad12)*%
X167248776Y-90661888D03*
%TO.P,U1,13,RESV_NC*%
%TO.N,Board_18-unconnected-(U1-RESV_NC-Pad13)*%
X167748776Y-90661888D03*
%TO.P,U1,14,H_INTN*%
%TO.N,Board_18-unconnected-(U1-H_INTN-Pad14)*%
X168248776Y-90661888D03*
%TO.P,U1,15,ENV_SCL*%
%TO.N,Board_18-Net-(U1-ENV_SCL)*%
X168748776Y-90661888D03*
D14*
%TO.P,U1,16,ENV_SDA*%
%TO.N,Board_18-Net-(U1-ENV_SDA)*%
X168886276Y-89749388D03*
%TO.P,U1,17,SA0/H_MOSI*%
%TO.N,Board_18-GND*%
X168886276Y-89249388D03*
%TO.P,U1,18,H_CSN*%
%TO.N,Board_18-unconnected-(U1-H_CSN-Pad18)*%
X168886276Y-88749388D03*
%TO.P,U1,19,H_SCL/SCK/RX*%
%TO.N,Board_18-Net-(J2-Pin_1)*%
X168886276Y-88249388D03*
D13*
%TO.P,U1,20,H_SDA/H_MISO/TX*%
%TO.N,Board_18-Net-(J1-Pin_1)*%
X168748776Y-87336888D03*
%TO.P,U1,21,RESV_NC*%
%TO.N,Board_18-unconnected-(U1-RESV_NC-Pad21)*%
X168248776Y-87336888D03*
%TO.P,U1,22,RESV_NC*%
%TO.N,Board_18-unconnected-(U1-RESV_NC-Pad22)*%
X167748776Y-87336888D03*
%TO.P,U1,23,RESV_NC*%
%TO.N,Board_18-unconnected-(U1-RESV_NC-Pad23)*%
X167248776Y-87336888D03*
%TO.P,U1,24,RESV_NC*%
%TO.N,Board_18-unconnected-(U1-RESV_NC-Pad24)*%
X166748776Y-87336888D03*
%TO.P,U1,25,GNDIO*%
%TO.N,Board_18-GND*%
X166248776Y-87336888D03*
%TO.P,U1,26,XOUT32/CLKSEL1*%
X165748776Y-87336888D03*
%TO.P,U1,27,XIN32*%
%TO.N,Board_18-unconnected-(U1-XIN32-Pad27)*%
X165248776Y-87336888D03*
%TO.P,U1,28,VDDIO*%
%TO.N,Board_18-+3.3V*%
X164748776Y-87336888D03*
%TD*%
D12*
%TO.P,J3,1,Pin_1*%
%TO.N,Board_19-+3.3V*%
X177498776Y-88999388D03*
%TD*%
D15*
%TO.P,C1,1*%
%TO.N,Board_24-Net-(U1-CAP)*%
X182866014Y-109745835D03*
%TO.P,C1,2*%
%TO.N,Board_24-GND*%
X181906014Y-109745835D03*
%TD*%
D10*
%TO.P,R4,1*%
%TO.N,Board_5-Net-(J1-Pin_1)*%
X115248776Y-49259388D03*
%TO.P,R4,2*%
%TO.N,Board_5-+3.3V*%
X115248776Y-48239388D03*
%TD*%
D12*
%TO.P,J1,1,Pin_1*%
%TO.N,Board_21-Net-(J1-Pin_1)*%
X130498776Y-99999388D03*
%TD*%
D10*
%TO.P,R3,1*%
%TO.N,Board_5-Net-(U1-BOOTN)*%
X107998776Y-56009388D03*
%TO.P,R3,2*%
%TO.N,Board_5-+3.3V*%
X107998776Y-54989388D03*
%TD*%
D13*
%TO.P,U1,1,RESV_NC*%
%TO.N,Board_17-unconnected-(U1-RESV_NC-Pad1)*%
X146248776Y-87336888D03*
D14*
%TO.P,U1,2,GND*%
%TO.N,Board_17-GND*%
X146111276Y-88249388D03*
%TO.P,U1,3,VDD*%
%TO.N,Board_17-+3.3V*%
X146111276Y-88749388D03*
%TO.P,U1,4,BOOTN*%
%TO.N,Board_17-Net-(U1-BOOTN)*%
X146111276Y-89249388D03*
%TO.P,U1,5,PS1*%
%TO.N,Board_17-GND*%
X146111276Y-89749388D03*
D13*
%TO.P,U1,6,PS0/WAKE*%
X146248776Y-90661888D03*
%TO.P,U1,7,RESV_NC*%
%TO.N,Board_17-unconnected-(U1-RESV_NC-Pad7)*%
X146748776Y-90661888D03*
%TO.P,U1,8,RESV_NC*%
%TO.N,Board_17-unconnected-(U1-RESV_NC-Pad8)*%
X147248776Y-90661888D03*
%TO.P,U1,9,CAP*%
%TO.N,Board_17-Net-(U1-CAP)*%
X147748776Y-90661888D03*
%TO.P,U1,10,CLKSEL0*%
%TO.N,Board_17-+3.3V*%
X148248776Y-90661888D03*
%TO.P,U1,11,NRST*%
%TO.N,Board_17-unconnected-(U1-NRST-Pad11)*%
X148748776Y-90661888D03*
%TO.P,U1,12,RESV_NC*%
%TO.N,Board_17-unconnected-(U1-RESV_NC-Pad12)*%
X149248776Y-90661888D03*
%TO.P,U1,13,RESV_NC*%
%TO.N,Board_17-unconnected-(U1-RESV_NC-Pad13)*%
X149748776Y-90661888D03*
%TO.P,U1,14,H_INTN*%
%TO.N,Board_17-unconnected-(U1-H_INTN-Pad14)*%
X150248776Y-90661888D03*
%TO.P,U1,15,ENV_SCL*%
%TO.N,Board_17-Net-(U1-ENV_SCL)*%
X150748776Y-90661888D03*
D14*
%TO.P,U1,16,ENV_SDA*%
%TO.N,Board_17-Net-(U1-ENV_SDA)*%
X150886276Y-89749388D03*
%TO.P,U1,17,SA0/H_MOSI*%
%TO.N,Board_17-GND*%
X150886276Y-89249388D03*
%TO.P,U1,18,H_CSN*%
%TO.N,Board_17-unconnected-(U1-H_CSN-Pad18)*%
X150886276Y-88749388D03*
%TO.P,U1,19,H_SCL/SCK/RX*%
%TO.N,Board_17-Net-(J2-Pin_1)*%
X150886276Y-88249388D03*
D13*
%TO.P,U1,20,H_SDA/H_MISO/TX*%
%TO.N,Board_17-Net-(J1-Pin_1)*%
X150748776Y-87336888D03*
%TO.P,U1,21,RESV_NC*%
%TO.N,Board_17-unconnected-(U1-RESV_NC-Pad21)*%
X150248776Y-87336888D03*
%TO.P,U1,22,RESV_NC*%
%TO.N,Board_17-unconnected-(U1-RESV_NC-Pad22)*%
X149748776Y-87336888D03*
%TO.P,U1,23,RESV_NC*%
%TO.N,Board_17-unconnected-(U1-RESV_NC-Pad23)*%
X149248776Y-87336888D03*
%TO.P,U1,24,RESV_NC*%
%TO.N,Board_17-unconnected-(U1-RESV_NC-Pad24)*%
X148748776Y-87336888D03*
%TO.P,U1,25,GNDIO*%
%TO.N,Board_17-GND*%
X148248776Y-87336888D03*
%TO.P,U1,26,XOUT32/CLKSEL1*%
X147748776Y-87336888D03*
%TO.P,U1,27,XIN32*%
%TO.N,Board_17-unconnected-(U1-XIN32-Pad27)*%
X147248776Y-87336888D03*
%TO.P,U1,28,VDDIO*%
%TO.N,Board_17-+3.3V*%
X146748776Y-87336888D03*
%TD*%
D12*
%TO.P,J1,1,Pin_1*%
%TO.N,Board_14-Net-(J1-Pin_1)*%
X184498776Y-63999388D03*
%TD*%
D10*
%TO.P,R3,1*%
%TO.N,Board_2-Net-(U1-BOOTN)*%
X143998776Y-38009388D03*
%TO.P,R3,2*%
%TO.N,Board_2-+3.3V*%
X143998776Y-36989388D03*
%TD*%
D12*
%TO.P,J3,1,Pin_1*%
%TO.N,Board_5-+3.3V*%
X105498776Y-52999388D03*
%TD*%
D15*
%TO.P,C1,1*%
%TO.N,Board_3-Net-(U1-CAP)*%
X164866014Y-37745835D03*
%TO.P,C1,2*%
%TO.N,Board_3-GND*%
X163906014Y-37745835D03*
%TD*%
D13*
%TO.P,U1,1,RESV_NC*%
%TO.N,Board_10-unconnected-(U1-RESV_NC-Pad1)*%
X110248776Y-69336888D03*
D14*
%TO.P,U1,2,GND*%
%TO.N,Board_10-GND*%
X110111276Y-70249388D03*
%TO.P,U1,3,VDD*%
%TO.N,Board_10-+3.3V*%
X110111276Y-70749388D03*
%TO.P,U1,4,BOOTN*%
%TO.N,Board_10-Net-(U1-BOOTN)*%
X110111276Y-71249388D03*
%TO.P,U1,5,PS1*%
%TO.N,Board_10-GND*%
X110111276Y-71749388D03*
D13*
%TO.P,U1,6,PS0/WAKE*%
X110248776Y-72661888D03*
%TO.P,U1,7,RESV_NC*%
%TO.N,Board_10-unconnected-(U1-RESV_NC-Pad7)*%
X110748776Y-72661888D03*
%TO.P,U1,8,RESV_NC*%
%TO.N,Board_10-unconnected-(U1-RESV_NC-Pad8)*%
X111248776Y-72661888D03*
%TO.P,U1,9,CAP*%
%TO.N,Board_10-Net-(U1-CAP)*%
X111748776Y-72661888D03*
%TO.P,U1,10,CLKSEL0*%
%TO.N,Board_10-+3.3V*%
X112248776Y-72661888D03*
%TO.P,U1,11,NRST*%
%TO.N,Board_10-unconnected-(U1-NRST-Pad11)*%
X112748776Y-72661888D03*
%TO.P,U1,12,RESV_NC*%
%TO.N,Board_10-unconnected-(U1-RESV_NC-Pad12)*%
X113248776Y-72661888D03*
%TO.P,U1,13,RESV_NC*%
%TO.N,Board_10-unconnected-(U1-RESV_NC-Pad13)*%
X113748776Y-72661888D03*
%TO.P,U1,14,H_INTN*%
%TO.N,Board_10-unconnected-(U1-H_INTN-Pad14)*%
X114248776Y-72661888D03*
%TO.P,U1,15,ENV_SCL*%
%TO.N,Board_10-Net-(U1-ENV_SCL)*%
X114748776Y-72661888D03*
D14*
%TO.P,U1,16,ENV_SDA*%
%TO.N,Board_10-Net-(U1-ENV_SDA)*%
X114886276Y-71749388D03*
%TO.P,U1,17,SA0/H_MOSI*%
%TO.N,Board_10-GND*%
X114886276Y-71249388D03*
%TO.P,U1,18,H_CSN*%
%TO.N,Board_10-unconnected-(U1-H_CSN-Pad18)*%
X114886276Y-70749388D03*
%TO.P,U1,19,H_SCL/SCK/RX*%
%TO.N,Board_10-Net-(J2-Pin_1)*%
X114886276Y-70249388D03*
D13*
%TO.P,U1,20,H_SDA/H_MISO/TX*%
%TO.N,Board_10-Net-(J1-Pin_1)*%
X114748776Y-69336888D03*
%TO.P,U1,21,RESV_NC*%
%TO.N,Board_10-unconnected-(U1-RESV_NC-Pad21)*%
X114248776Y-69336888D03*
%TO.P,U1,22,RESV_NC*%
%TO.N,Board_10-unconnected-(U1-RESV_NC-Pad22)*%
X113748776Y-69336888D03*
%TO.P,U1,23,RESV_NC*%
%TO.N,Board_10-unconnected-(U1-RESV_NC-Pad23)*%
X113248776Y-69336888D03*
%TO.P,U1,24,RESV_NC*%
%TO.N,Board_10-unconnected-(U1-RESV_NC-Pad24)*%
X112748776Y-69336888D03*
%TO.P,U1,25,GNDIO*%
%TO.N,Board_10-GND*%
X112248776Y-69336888D03*
%TO.P,U1,26,XOUT32/CLKSEL1*%
X111748776Y-69336888D03*
%TO.P,U1,27,XIN32*%
%TO.N,Board_10-unconnected-(U1-XIN32-Pad27)*%
X111248776Y-69336888D03*
%TO.P,U1,28,VDDIO*%
%TO.N,Board_10-+3.3V*%
X110748776Y-69336888D03*
%TD*%
D10*
%TO.P,R4,1*%
%TO.N,Board_22-Net-(J1-Pin_1)*%
X151248776Y-103259388D03*
%TO.P,R4,2*%
%TO.N,Board_22-+3.3V*%
X151248776Y-102239388D03*
%TD*%
D12*
%TO.P,J2,1,Pin_1*%
%TO.N,Board_10-Net-(J2-Pin_1)*%
X112498776Y-77999388D03*
%TD*%
%TO.P,J1,1,Pin_1*%
%TO.N,Board_17-Net-(J1-Pin_1)*%
X148498776Y-81999388D03*
%TD*%
D11*
%TO.P,R5,1*%
%TO.N,Board_11-+3.3V*%
X134998776Y-67239388D03*
%TO.P,R5,2*%
%TO.N,Board_11-Net-(J2-Pin_1)*%
X134998776Y-68259388D03*
%TD*%
D10*
%TO.P,R4,1*%
%TO.N,Board_6-Net-(J1-Pin_1)*%
X133248776Y-49259388D03*
%TO.P,R4,2*%
%TO.N,Board_6-+3.3V*%
X133248776Y-48239388D03*
%TD*%
D13*
%TO.P,U1,1,RESV_NC*%
%TO.N,Board_11-unconnected-(U1-RESV_NC-Pad1)*%
X128248776Y-69336888D03*
D14*
%TO.P,U1,2,GND*%
%TO.N,Board_11-GND*%
X128111276Y-70249388D03*
%TO.P,U1,3,VDD*%
%TO.N,Board_11-+3.3V*%
X128111276Y-70749388D03*
%TO.P,U1,4,BOOTN*%
%TO.N,Board_11-Net-(U1-BOOTN)*%
X128111276Y-71249388D03*
%TO.P,U1,5,PS1*%
%TO.N,Board_11-GND*%
X128111276Y-71749388D03*
D13*
%TO.P,U1,6,PS0/WAKE*%
X128248776Y-72661888D03*
%TO.P,U1,7,RESV_NC*%
%TO.N,Board_11-unconnected-(U1-RESV_NC-Pad7)*%
X128748776Y-72661888D03*
%TO.P,U1,8,RESV_NC*%
%TO.N,Board_11-unconnected-(U1-RESV_NC-Pad8)*%
X129248776Y-72661888D03*
%TO.P,U1,9,CAP*%
%TO.N,Board_11-Net-(U1-CAP)*%
X129748776Y-72661888D03*
%TO.P,U1,10,CLKSEL0*%
%TO.N,Board_11-+3.3V*%
X130248776Y-72661888D03*
%TO.P,U1,11,NRST*%
%TO.N,Board_11-unconnected-(U1-NRST-Pad11)*%
X130748776Y-72661888D03*
%TO.P,U1,12,RESV_NC*%
%TO.N,Board_11-unconnected-(U1-RESV_NC-Pad12)*%
X131248776Y-72661888D03*
%TO.P,U1,13,RESV_NC*%
%TO.N,Board_11-unconnected-(U1-RESV_NC-Pad13)*%
X131748776Y-72661888D03*
%TO.P,U1,14,H_INTN*%
%TO.N,Board_11-unconnected-(U1-H_INTN-Pad14)*%
X132248776Y-72661888D03*
%TO.P,U1,15,ENV_SCL*%
%TO.N,Board_11-Net-(U1-ENV_SCL)*%
X132748776Y-72661888D03*
D14*
%TO.P,U1,16,ENV_SDA*%
%TO.N,Board_11-Net-(U1-ENV_SDA)*%
X132886276Y-71749388D03*
%TO.P,U1,17,SA0/H_MOSI*%
%TO.N,Board_11-GND*%
X132886276Y-71249388D03*
%TO.P,U1,18,H_CSN*%
%TO.N,Board_11-unconnected-(U1-H_CSN-Pad18)*%
X132886276Y-70749388D03*
%TO.P,U1,19,H_SCL/SCK/RX*%
%TO.N,Board_11-Net-(J2-Pin_1)*%
X132886276Y-70249388D03*
D13*
%TO.P,U1,20,H_SDA/H_MISO/TX*%
%TO.N,Board_11-Net-(J1-Pin_1)*%
X132748776Y-69336888D03*
%TO.P,U1,21,RESV_NC*%
%TO.N,Board_11-unconnected-(U1-RESV_NC-Pad21)*%
X132248776Y-69336888D03*
%TO.P,U1,22,RESV_NC*%
%TO.N,Board_11-unconnected-(U1-RESV_NC-Pad22)*%
X131748776Y-69336888D03*
%TO.P,U1,23,RESV_NC*%
%TO.N,Board_11-unconnected-(U1-RESV_NC-Pad23)*%
X131248776Y-69336888D03*
%TO.P,U1,24,RESV_NC*%
%TO.N,Board_11-unconnected-(U1-RESV_NC-Pad24)*%
X130748776Y-69336888D03*
%TO.P,U1,25,GNDIO*%
%TO.N,Board_11-GND*%
X130248776Y-69336888D03*
%TO.P,U1,26,XOUT32/CLKSEL1*%
X129748776Y-69336888D03*
%TO.P,U1,27,XIN32*%
%TO.N,Board_11-unconnected-(U1-XIN32-Pad27)*%
X129248776Y-69336888D03*
%TO.P,U1,28,VDDIO*%
%TO.N,Board_11-+3.3V*%
X128748776Y-69336888D03*
%TD*%
D12*
%TO.P,J2,1,Pin_1*%
%TO.N,Board_2-Net-(J2-Pin_1)*%
X148498776Y-41999388D03*
%TD*%
%TO.P,J1,1,Pin_1*%
%TO.N,Board_11-Net-(J1-Pin_1)*%
X130498776Y-63999388D03*
%TD*%
D11*
%TO.P,R5,1*%
%TO.N,Board_12-+3.3V*%
X152998776Y-67239388D03*
%TO.P,R5,2*%
%TO.N,Board_12-Net-(J2-Pin_1)*%
X152998776Y-68259388D03*
%TD*%
%TO.P,R5,1*%
%TO.N,Board_4-+3.3V*%
X188998776Y-31239388D03*
%TO.P,R5,2*%
%TO.N,Board_4-Net-(J2-Pin_1)*%
X188998776Y-32259388D03*
%TD*%
D15*
%TO.P,C1,1*%
%TO.N,Board_6-Net-(U1-CAP)*%
X128866014Y-55745835D03*
%TO.P,C1,2*%
%TO.N,Board_6-GND*%
X127906014Y-55745835D03*
%TD*%
D12*
%TO.P,J2,1,Pin_1*%
%TO.N,Board_15-Net-(J2-Pin_1)*%
X112498776Y-95999388D03*
%TD*%
D10*
%TO.P,R4,1*%
%TO.N,Board_13-Net-(J1-Pin_1)*%
X169248776Y-67259388D03*
%TO.P,R4,2*%
%TO.N,Board_13-+3.3V*%
X169248776Y-66239388D03*
%TD*%
%TO.P,R1,1*%
%TO.N,Board_2-+3.3V*%
X150748776Y-39009388D03*
%TO.P,R1,2*%
%TO.N,Board_2-Net-(U1-ENV_SCL)*%
X150748776Y-37989388D03*
%TD*%
%TO.P,R4,1*%
%TO.N,Board_20-Net-(J1-Pin_1)*%
X115248776Y-103259388D03*
%TO.P,R4,2*%
%TO.N,Board_20-+3.3V*%
X115248776Y-102239388D03*
%TD*%
D12*
%TO.P,J2,1,Pin_1*%
%TO.N,Board_14-Net-(J2-Pin_1)*%
X184498776Y-77999388D03*
%TD*%
%TO.P,J3,1,Pin_1*%
%TO.N,Board_4-+3.3V*%
X177498776Y-34999388D03*
%TD*%
D13*
%TO.P,U1,1,RESV_NC*%
%TO.N,Board_16-unconnected-(U1-RESV_NC-Pad1)*%
X128248776Y-87336888D03*
D14*
%TO.P,U1,2,GND*%
%TO.N,Board_16-GND*%
X128111276Y-88249388D03*
%TO.P,U1,3,VDD*%
%TO.N,Board_16-+3.3V*%
X128111276Y-88749388D03*
%TO.P,U1,4,BOOTN*%
%TO.N,Board_16-Net-(U1-BOOTN)*%
X128111276Y-89249388D03*
%TO.P,U1,5,PS1*%
%TO.N,Board_16-GND*%
X128111276Y-89749388D03*
D13*
%TO.P,U1,6,PS0/WAKE*%
X128248776Y-90661888D03*
%TO.P,U1,7,RESV_NC*%
%TO.N,Board_16-unconnected-(U1-RESV_NC-Pad7)*%
X128748776Y-90661888D03*
%TO.P,U1,8,RESV_NC*%
%TO.N,Board_16-unconnected-(U1-RESV_NC-Pad8)*%
X129248776Y-90661888D03*
%TO.P,U1,9,CAP*%
%TO.N,Board_16-Net-(U1-CAP)*%
X129748776Y-90661888D03*
%TO.P,U1,10,CLKSEL0*%
%TO.N,Board_16-+3.3V*%
X130248776Y-90661888D03*
%TO.P,U1,11,NRST*%
%TO.N,Board_16-unconnected-(U1-NRST-Pad11)*%
X130748776Y-90661888D03*
%TO.P,U1,12,RESV_NC*%
%TO.N,Board_16-unconnected-(U1-RESV_NC-Pad12)*%
X131248776Y-90661888D03*
%TO.P,U1,13,RESV_NC*%
%TO.N,Board_16-unconnected-(U1-RESV_NC-Pad13)*%
X131748776Y-90661888D03*
%TO.P,U1,14,H_INTN*%
%TO.N,Board_16-unconnected-(U1-H_INTN-Pad14)*%
X132248776Y-90661888D03*
%TO.P,U1,15,ENV_SCL*%
%TO.N,Board_16-Net-(U1-ENV_SCL)*%
X132748776Y-90661888D03*
D14*
%TO.P,U1,16,ENV_SDA*%
%TO.N,Board_16-Net-(U1-ENV_SDA)*%
X132886276Y-89749388D03*
%TO.P,U1,17,SA0/H_MOSI*%
%TO.N,Board_16-GND*%
X132886276Y-89249388D03*
%TO.P,U1,18,H_CSN*%
%TO.N,Board_16-unconnected-(U1-H_CSN-Pad18)*%
X132886276Y-88749388D03*
%TO.P,U1,19,H_SCL/SCK/RX*%
%TO.N,Board_16-Net-(J2-Pin_1)*%
X132886276Y-88249388D03*
D13*
%TO.P,U1,20,H_SDA/H_MISO/TX*%
%TO.N,Board_16-Net-(J1-Pin_1)*%
X132748776Y-87336888D03*
%TO.P,U1,21,RESV_NC*%
%TO.N,Board_16-unconnected-(U1-RESV_NC-Pad21)*%
X132248776Y-87336888D03*
%TO.P,U1,22,RESV_NC*%
%TO.N,Board_16-unconnected-(U1-RESV_NC-Pad22)*%
X131748776Y-87336888D03*
%TO.P,U1,23,RESV_NC*%
%TO.N,Board_16-unconnected-(U1-RESV_NC-Pad23)*%
X131248776Y-87336888D03*
%TO.P,U1,24,RESV_NC*%
%TO.N,Board_16-unconnected-(U1-RESV_NC-Pad24)*%
X130748776Y-87336888D03*
%TO.P,U1,25,GNDIO*%
%TO.N,Board_16-GND*%
X130248776Y-87336888D03*
%TO.P,U1,26,XOUT32/CLKSEL1*%
X129748776Y-87336888D03*
%TO.P,U1,27,XIN32*%
%TO.N,Board_16-unconnected-(U1-XIN32-Pad27)*%
X129248776Y-87336888D03*
%TO.P,U1,28,VDDIO*%
%TO.N,Board_16-+3.3V*%
X128748776Y-87336888D03*
%TD*%
D12*
%TO.P,J4,1,Pin_1*%
%TO.N,Board_12-GND*%
X155498776Y-70999388D03*
%TD*%
%TO.P,J4,1,Pin_1*%
%TO.N,Board_10-GND*%
X119498776Y-70999388D03*
%TD*%
%TO.P,J2,1,Pin_1*%
%TO.N,Board_6-Net-(J2-Pin_1)*%
X130498776Y-59999388D03*
%TD*%
%TO.P,J3,1,Pin_1*%
%TO.N,Board_18-+3.3V*%
X159498776Y-88999388D03*
%TD*%
%TO.P,J4,1,Pin_1*%
%TO.N,Board_8-GND*%
X173498776Y-52999388D03*
%TD*%
D11*
%TO.P,R5,1*%
%TO.N,Board_22-+3.3V*%
X152998776Y-103239388D03*
%TO.P,R5,2*%
%TO.N,Board_22-Net-(J2-Pin_1)*%
X152998776Y-104259388D03*
%TD*%
D12*
%TO.P,J2,1,Pin_1*%
%TO.N,Board_16-Net-(J2-Pin_1)*%
X130498776Y-95999388D03*
%TD*%
D15*
%TO.P,C1,1*%
%TO.N,Board_9-Net-(U1-CAP)*%
X182866014Y-55745835D03*
%TO.P,C1,2*%
%TO.N,Board_9-GND*%
X181906014Y-55745835D03*
%TD*%
D10*
%TO.P,R3,1*%
%TO.N,Board_4-Net-(U1-BOOTN)*%
X179998776Y-38009388D03*
%TO.P,R3,2*%
%TO.N,Board_4-+3.3V*%
X179998776Y-36989388D03*
%TD*%
D12*
%TO.P,J4,1,Pin_1*%
%TO.N,Board_0-GND*%
X119498776Y-34999388D03*
%TD*%
D11*
%TO.P,R5,1*%
%TO.N,Board_5-+3.3V*%
X116998776Y-49239388D03*
%TO.P,R5,2*%
%TO.N,Board_5-Net-(J2-Pin_1)*%
X116998776Y-50259388D03*
%TD*%
D12*
%TO.P,J1,1,Pin_1*%
%TO.N,Board_24-Net-(J1-Pin_1)*%
X184498776Y-99999388D03*
%TD*%
D10*
%TO.P,R4,1*%
%TO.N,Board_9-Net-(J1-Pin_1)*%
X187248776Y-49259388D03*
%TO.P,R4,2*%
%TO.N,Board_9-+3.3V*%
X187248776Y-48239388D03*
%TD*%
D12*
%TO.P,J1,1,Pin_1*%
%TO.N,Board_9-Net-(J1-Pin_1)*%
X184498776Y-45999388D03*
%TD*%
D10*
%TO.P,R3,1*%
%TO.N,Board_6-Net-(U1-BOOTN)*%
X125998776Y-56009388D03*
%TO.P,R3,2*%
%TO.N,Board_6-+3.3V*%
X125998776Y-54989388D03*
%TD*%
D12*
%TO.P,J4,1,Pin_1*%
%TO.N,Board_17-GND*%
X155498776Y-88999388D03*
%TD*%
D10*
%TO.P,R3,1*%
%TO.N,Board_21-Net-(U1-BOOTN)*%
X125998776Y-110009388D03*
%TO.P,R3,2*%
%TO.N,Board_21-+3.3V*%
X125998776Y-108989388D03*
%TD*%
D12*
%TO.P,J4,1,Pin_1*%
%TO.N,Board_20-GND*%
X119498776Y-106999388D03*
%TD*%
%TO.P,J2,1,Pin_1*%
%TO.N,Board_18-Net-(J2-Pin_1)*%
X166498776Y-95999388D03*
%TD*%
D11*
%TO.P,R2,1*%
%TO.N,Board_6-Net-(U1-ENV_SDA)*%
X134498776Y-54989388D03*
%TO.P,R2,2*%
%TO.N,Board_6-+3.3V*%
X134498776Y-56009388D03*
%TD*%
%TO.P,R2,1*%
%TO.N,Board_21-Net-(U1-ENV_SDA)*%
X134498776Y-108989388D03*
%TO.P,R2,2*%
%TO.N,Board_21-+3.3V*%
X134498776Y-110009388D03*
%TD*%
D15*
%TO.P,C1,1*%
%TO.N,Board_10-Net-(U1-CAP)*%
X110866014Y-73745835D03*
%TO.P,C1,2*%
%TO.N,Board_10-GND*%
X109906014Y-73745835D03*
%TD*%
D12*
%TO.P,J2,1,Pin_1*%
%TO.N,Board_1-Net-(J2-Pin_1)*%
X130498776Y-41999388D03*
%TD*%
%TO.P,J3,1,Pin_1*%
%TO.N,Board_24-+3.3V*%
X177498776Y-106999388D03*
%TD*%
D13*
%TO.P,U1,1,RESV_NC*%
%TO.N,Board_8-unconnected-(U1-RESV_NC-Pad1)*%
X164248776Y-51336888D03*
D14*
%TO.P,U1,2,GND*%
%TO.N,Board_8-GND*%
X164111276Y-52249388D03*
%TO.P,U1,3,VDD*%
%TO.N,Board_8-+3.3V*%
X164111276Y-52749388D03*
%TO.P,U1,4,BOOTN*%
%TO.N,Board_8-Net-(U1-BOOTN)*%
X164111276Y-53249388D03*
%TO.P,U1,5,PS1*%
%TO.N,Board_8-GND*%
X164111276Y-53749388D03*
D13*
%TO.P,U1,6,PS0/WAKE*%
X164248776Y-54661888D03*
%TO.P,U1,7,RESV_NC*%
%TO.N,Board_8-unconnected-(U1-RESV_NC-Pad7)*%
X164748776Y-54661888D03*
%TO.P,U1,8,RESV_NC*%
%TO.N,Board_8-unconnected-(U1-RESV_NC-Pad8)*%
X165248776Y-54661888D03*
%TO.P,U1,9,CAP*%
%TO.N,Board_8-Net-(U1-CAP)*%
X165748776Y-54661888D03*
%TO.P,U1,10,CLKSEL0*%
%TO.N,Board_8-+3.3V*%
X166248776Y-54661888D03*
%TO.P,U1,11,NRST*%
%TO.N,Board_8-unconnected-(U1-NRST-Pad11)*%
X166748776Y-54661888D03*
%TO.P,U1,12,RESV_NC*%
%TO.N,Board_8-unconnected-(U1-RESV_NC-Pad12)*%
X167248776Y-54661888D03*
%TO.P,U1,13,RESV_NC*%
%TO.N,Board_8-unconnected-(U1-RESV_NC-Pad13)*%
X167748776Y-54661888D03*
%TO.P,U1,14,H_INTN*%
%TO.N,Board_8-unconnected-(U1-H_INTN-Pad14)*%
X168248776Y-54661888D03*
%TO.P,U1,15,ENV_SCL*%
%TO.N,Board_8-Net-(U1-ENV_SCL)*%
X168748776Y-54661888D03*
D14*
%TO.P,U1,16,ENV_SDA*%
%TO.N,Board_8-Net-(U1-ENV_SDA)*%
X168886276Y-53749388D03*
%TO.P,U1,17,SA0/H_MOSI*%
%TO.N,Board_8-GND*%
X168886276Y-53249388D03*
%TO.P,U1,18,H_CSN*%
%TO.N,Board_8-unconnected-(U1-H_CSN-Pad18)*%
X168886276Y-52749388D03*
%TO.P,U1,19,H_SCL/SCK/RX*%
%TO.N,Board_8-Net-(J2-Pin_1)*%
X168886276Y-52249388D03*
D13*
%TO.P,U1,20,H_SDA/H_MISO/TX*%
%TO.N,Board_8-Net-(J1-Pin_1)*%
X168748776Y-51336888D03*
%TO.P,U1,21,RESV_NC*%
%TO.N,Board_8-unconnected-(U1-RESV_NC-Pad21)*%
X168248776Y-51336888D03*
%TO.P,U1,22,RESV_NC*%
%TO.N,Board_8-unconnected-(U1-RESV_NC-Pad22)*%
X167748776Y-51336888D03*
%TO.P,U1,23,RESV_NC*%
%TO.N,Board_8-unconnected-(U1-RESV_NC-Pad23)*%
X167248776Y-51336888D03*
%TO.P,U1,24,RESV_NC*%
%TO.N,Board_8-unconnected-(U1-RESV_NC-Pad24)*%
X166748776Y-51336888D03*
%TO.P,U1,25,GNDIO*%
%TO.N,Board_8-GND*%
X166248776Y-51336888D03*
%TO.P,U1,26,XOUT32/CLKSEL1*%
X165748776Y-51336888D03*
%TO.P,U1,27,XIN32*%
%TO.N,Board_8-unconnected-(U1-XIN32-Pad27)*%
X165248776Y-51336888D03*
%TO.P,U1,28,VDDIO*%
%TO.N,Board_8-+3.3V*%
X164748776Y-51336888D03*
%TD*%
D10*
%TO.P,R4,1*%
%TO.N,Board_17-Net-(J1-Pin_1)*%
X151248776Y-85259388D03*
%TO.P,R4,2*%
%TO.N,Board_17-+3.3V*%
X151248776Y-84239388D03*
%TD*%
%TO.P,R3,1*%
%TO.N,Board_15-Net-(U1-BOOTN)*%
X107998776Y-92009388D03*
%TO.P,R3,2*%
%TO.N,Board_15-+3.3V*%
X107998776Y-90989388D03*
%TD*%
D11*
%TO.P,R5,1*%
%TO.N,Board_24-+3.3V*%
X188998776Y-103239388D03*
%TO.P,R5,2*%
%TO.N,Board_24-Net-(J2-Pin_1)*%
X188998776Y-104259388D03*
%TD*%
D10*
%TO.P,R1,1*%
%TO.N,Board_6-+3.3V*%
X132748776Y-57009388D03*
%TO.P,R1,2*%
%TO.N,Board_6-Net-(U1-ENV_SCL)*%
X132748776Y-55989388D03*
%TD*%
D15*
%TO.P,C1,1*%
%TO.N,Board_20-Net-(U1-CAP)*%
X110866014Y-109745835D03*
%TO.P,C1,2*%
%TO.N,Board_20-GND*%
X109906014Y-109745835D03*
%TD*%
D12*
%TO.P,J4,1,Pin_1*%
%TO.N,Board_15-GND*%
X119498776Y-88999388D03*
%TD*%
%TO.P,J1,1,Pin_1*%
%TO.N,Board_12-Net-(J1-Pin_1)*%
X148498776Y-63999388D03*
%TD*%
%TO.P,J3,1,Pin_1*%
%TO.N,Board_14-+3.3V*%
X177498776Y-70999388D03*
%TD*%
%TO.P,J1,1,Pin_1*%
%TO.N,Board_18-Net-(J1-Pin_1)*%
X166498776Y-81999388D03*
%TD*%
%TO.P,J2,1,Pin_1*%
%TO.N,Board_13-Net-(J2-Pin_1)*%
X166498776Y-77999388D03*
%TD*%
D10*
%TO.P,R1,1*%
%TO.N,Board_21-+3.3V*%
X132748776Y-111009388D03*
%TO.P,R1,2*%
%TO.N,Board_21-Net-(U1-ENV_SCL)*%
X132748776Y-109989388D03*
%TD*%
D12*
%TO.P,J2,1,Pin_1*%
%TO.N,Board_20-Net-(J2-Pin_1)*%
X112498776Y-113999388D03*
%TD*%
D10*
%TO.P,R1,1*%
%TO.N,Board_18-+3.3V*%
X168748776Y-93009388D03*
%TO.P,R1,2*%
%TO.N,Board_18-Net-(U1-ENV_SCL)*%
X168748776Y-91989388D03*
%TD*%
D12*
%TO.P,J4,1,Pin_1*%
%TO.N,Board_22-GND*%
X155498776Y-106999388D03*
%TD*%
D11*
%TO.P,R5,1*%
%TO.N,Board_21-+3.3V*%
X134998776Y-103239388D03*
%TO.P,R5,2*%
%TO.N,Board_21-Net-(J2-Pin_1)*%
X134998776Y-104259388D03*
%TD*%
%TO.P,R2,1*%
%TO.N,Board_19-Net-(U1-ENV_SDA)*%
X188498776Y-90989388D03*
%TO.P,R2,2*%
%TO.N,Board_19-+3.3V*%
X188498776Y-92009388D03*
%TD*%
D12*
%TO.P,J4,1,Pin_1*%
%TO.N,Board_5-GND*%
X119498776Y-52999388D03*
%TD*%
%TO.P,J1,1,Pin_1*%
%TO.N,Board_22-Net-(J1-Pin_1)*%
X148498776Y-99999388D03*
%TD*%
D11*
%TO.P,R5,1*%
%TO.N,Board_17-+3.3V*%
X152998776Y-85239388D03*
%TO.P,R5,2*%
%TO.N,Board_17-Net-(J2-Pin_1)*%
X152998776Y-86259388D03*
%TD*%
D10*
%TO.P,R3,1*%
%TO.N,Board_17-Net-(U1-BOOTN)*%
X143998776Y-92009388D03*
%TO.P,R3,2*%
%TO.N,Board_17-+3.3V*%
X143998776Y-90989388D03*
%TD*%
D11*
%TO.P,R2,1*%
%TO.N,Board_1-Net-(U1-ENV_SDA)*%
X134498776Y-36989388D03*
%TO.P,R2,2*%
%TO.N,Board_1-+3.3V*%
X134498776Y-38009388D03*
%TD*%
D15*
%TO.P,C1,1*%
%TO.N,Board_8-Net-(U1-CAP)*%
X164866014Y-55745835D03*
%TO.P,C1,2*%
%TO.N,Board_8-GND*%
X163906014Y-55745835D03*
%TD*%
D13*
%TO.P,U1,1,RESV_NC*%
%TO.N,Board_15-unconnected-(U1-RESV_NC-Pad1)*%
X110248776Y-87336888D03*
D14*
%TO.P,U1,2,GND*%
%TO.N,Board_15-GND*%
X110111276Y-88249388D03*
%TO.P,U1,3,VDD*%
%TO.N,Board_15-+3.3V*%
X110111276Y-88749388D03*
%TO.P,U1,4,BOOTN*%
%TO.N,Board_15-Net-(U1-BOOTN)*%
X110111276Y-89249388D03*
%TO.P,U1,5,PS1*%
%TO.N,Board_15-GND*%
X110111276Y-89749388D03*
D13*
%TO.P,U1,6,PS0/WAKE*%
X110248776Y-90661888D03*
%TO.P,U1,7,RESV_NC*%
%TO.N,Board_15-unconnected-(U1-RESV_NC-Pad7)*%
X110748776Y-90661888D03*
%TO.P,U1,8,RESV_NC*%
%TO.N,Board_15-unconnected-(U1-RESV_NC-Pad8)*%
X111248776Y-90661888D03*
%TO.P,U1,9,CAP*%
%TO.N,Board_15-Net-(U1-CAP)*%
X111748776Y-90661888D03*
%TO.P,U1,10,CLKSEL0*%
%TO.N,Board_15-+3.3V*%
X112248776Y-90661888D03*
%TO.P,U1,11,NRST*%
%TO.N,Board_15-unconnected-(U1-NRST-Pad11)*%
X112748776Y-90661888D03*
%TO.P,U1,12,RESV_NC*%
%TO.N,Board_15-unconnected-(U1-RESV_NC-Pad12)*%
X113248776Y-90661888D03*
%TO.P,U1,13,RESV_NC*%
%TO.N,Board_15-unconnected-(U1-RESV_NC-Pad13)*%
X113748776Y-90661888D03*
%TO.P,U1,14,H_INTN*%
%TO.N,Board_15-unconnected-(U1-H_INTN-Pad14)*%
X114248776Y-90661888D03*
%TO.P,U1,15,ENV_SCL*%
%TO.N,Board_15-Net-(U1-ENV_SCL)*%
X114748776Y-90661888D03*
D14*
%TO.P,U1,16,ENV_SDA*%
%TO.N,Board_15-Net-(U1-ENV_SDA)*%
X114886276Y-89749388D03*
%TO.P,U1,17,SA0/H_MOSI*%
%TO.N,Board_15-GND*%
X114886276Y-89249388D03*
%TO.P,U1,18,H_CSN*%
%TO.N,Board_15-unconnected-(U1-H_CSN-Pad18)*%
X114886276Y-88749388D03*
%TO.P,U1,19,H_SCL/SCK/RX*%
%TO.N,Board_15-Net-(J2-Pin_1)*%
X114886276Y-88249388D03*
D13*
%TO.P,U1,20,H_SDA/H_MISO/TX*%
%TO.N,Board_15-Net-(J1-Pin_1)*%
X114748776Y-87336888D03*
%TO.P,U1,21,RESV_NC*%
%TO.N,Board_15-unconnected-(U1-RESV_NC-Pad21)*%
X114248776Y-87336888D03*
%TO.P,U1,22,RESV_NC*%
%TO.N,Board_15-unconnected-(U1-RESV_NC-Pad22)*%
X113748776Y-87336888D03*
%TO.P,U1,23,RESV_NC*%
%TO.N,Board_15-unconnected-(U1-RESV_NC-Pad23)*%
X113248776Y-87336888D03*
%TO.P,U1,24,RESV_NC*%
%TO.N,Board_15-unconnected-(U1-RESV_NC-Pad24)*%
X112748776Y-87336888D03*
%TO.P,U1,25,GNDIO*%
%TO.N,Board_15-GND*%
X112248776Y-87336888D03*
%TO.P,U1,26,XOUT32/CLKSEL1*%
X111748776Y-87336888D03*
%TO.P,U1,27,XIN32*%
%TO.N,Board_15-unconnected-(U1-XIN32-Pad27)*%
X111248776Y-87336888D03*
%TO.P,U1,28,VDDIO*%
%TO.N,Board_15-+3.3V*%
X110748776Y-87336888D03*
%TD*%
D10*
%TO.P,R1,1*%
%TO.N,Board_17-+3.3V*%
X150748776Y-93009388D03*
%TO.P,R1,2*%
%TO.N,Board_17-Net-(U1-ENV_SCL)*%
X150748776Y-91989388D03*
%TD*%
D12*
%TO.P,J3,1,Pin_1*%
%TO.N,Board_11-+3.3V*%
X123498776Y-70999388D03*
%TD*%
D11*
%TO.P,R5,1*%
%TO.N,Board_16-+3.3V*%
X134998776Y-85239388D03*
%TO.P,R5,2*%
%TO.N,Board_16-Net-(J2-Pin_1)*%
X134998776Y-86259388D03*
%TD*%
D12*
%TO.P,J1,1,Pin_1*%
%TO.N,Board_8-Net-(J1-Pin_1)*%
X166498776Y-45999388D03*
%TD*%
D10*
%TO.P,R1,1*%
%TO.N,Board_0-+3.3V*%
X114748776Y-39009388D03*
%TO.P,R1,2*%
%TO.N,Board_0-Net-(U1-ENV_SCL)*%
X114748776Y-37989388D03*
%TD*%
D11*
%TO.P,R5,1*%
%TO.N,Board_3-+3.3V*%
X170998776Y-31239388D03*
%TO.P,R5,2*%
%TO.N,Board_3-Net-(J2-Pin_1)*%
X170998776Y-32259388D03*
%TD*%
D12*
%TO.P,J4,1,Pin_1*%
%TO.N,Board_24-GND*%
X191498776Y-106999388D03*
%TD*%
D10*
%TO.P,R3,1*%
%TO.N,Board_22-Net-(U1-BOOTN)*%
X143998776Y-110009388D03*
%TO.P,R3,2*%
%TO.N,Board_22-+3.3V*%
X143998776Y-108989388D03*
%TD*%
%TO.P,R4,1*%
%TO.N,Board_21-Net-(J1-Pin_1)*%
X133248776Y-103259388D03*
%TO.P,R4,2*%
%TO.N,Board_21-+3.3V*%
X133248776Y-102239388D03*
%TD*%
D11*
%TO.P,R2,1*%
%TO.N,Board_17-Net-(U1-ENV_SDA)*%
X152498776Y-90989388D03*
%TO.P,R2,2*%
%TO.N,Board_17-+3.3V*%
X152498776Y-92009388D03*
%TD*%
D13*
%TO.P,U1,1,RESV_NC*%
%TO.N,Board_24-unconnected-(U1-RESV_NC-Pad1)*%
X182248776Y-105336888D03*
D14*
%TO.P,U1,2,GND*%
%TO.N,Board_24-GND*%
X182111276Y-106249388D03*
%TO.P,U1,3,VDD*%
%TO.N,Board_24-+3.3V*%
X182111276Y-106749388D03*
%TO.P,U1,4,BOOTN*%
%TO.N,Board_24-Net-(U1-BOOTN)*%
X182111276Y-107249388D03*
%TO.P,U1,5,PS1*%
%TO.N,Board_24-GND*%
X182111276Y-107749388D03*
D13*
%TO.P,U1,6,PS0/WAKE*%
X182248776Y-108661888D03*
%TO.P,U1,7,RESV_NC*%
%TO.N,Board_24-unconnected-(U1-RESV_NC-Pad7)*%
X182748776Y-108661888D03*
%TO.P,U1,8,RESV_NC*%
%TO.N,Board_24-unconnected-(U1-RESV_NC-Pad8)*%
X183248776Y-108661888D03*
%TO.P,U1,9,CAP*%
%TO.N,Board_24-Net-(U1-CAP)*%
X183748776Y-108661888D03*
%TO.P,U1,10,CLKSEL0*%
%TO.N,Board_24-+3.3V*%
X184248776Y-108661888D03*
%TO.P,U1,11,NRST*%
%TO.N,Board_24-unconnected-(U1-NRST-Pad11)*%
X184748776Y-108661888D03*
%TO.P,U1,12,RESV_NC*%
%TO.N,Board_24-unconnected-(U1-RESV_NC-Pad12)*%
X185248776Y-108661888D03*
%TO.P,U1,13,RESV_NC*%
%TO.N,Board_24-unconnected-(U1-RESV_NC-Pad13)*%
X185748776Y-108661888D03*
%TO.P,U1,14,H_INTN*%
%TO.N,Board_24-unconnected-(U1-H_INTN-Pad14)*%
X186248776Y-108661888D03*
%TO.P,U1,15,ENV_SCL*%
%TO.N,Board_24-Net-(U1-ENV_SCL)*%
X186748776Y-108661888D03*
D14*
%TO.P,U1,16,ENV_SDA*%
%TO.N,Board_24-Net-(U1-ENV_SDA)*%
X186886276Y-107749388D03*
%TO.P,U1,17,SA0/H_MOSI*%
%TO.N,Board_24-GND*%
X186886276Y-107249388D03*
%TO.P,U1,18,H_CSN*%
%TO.N,Board_24-unconnected-(U1-H_CSN-Pad18)*%
X186886276Y-106749388D03*
%TO.P,U1,19,H_SCL/SCK/RX*%
%TO.N,Board_24-Net-(J2-Pin_1)*%
X186886276Y-106249388D03*
D13*
%TO.P,U1,20,H_SDA/H_MISO/TX*%
%TO.N,Board_24-Net-(J1-Pin_1)*%
X186748776Y-105336888D03*
%TO.P,U1,21,RESV_NC*%
%TO.N,Board_24-unconnected-(U1-RESV_NC-Pad21)*%
X186248776Y-105336888D03*
%TO.P,U1,22,RESV_NC*%
%TO.N,Board_24-unconnected-(U1-RESV_NC-Pad22)*%
X185748776Y-105336888D03*
%TO.P,U1,23,RESV_NC*%
%TO.N,Board_24-unconnected-(U1-RESV_NC-Pad23)*%
X185248776Y-105336888D03*
%TO.P,U1,24,RESV_NC*%
%TO.N,Board_24-unconnected-(U1-RESV_NC-Pad24)*%
X184748776Y-105336888D03*
%TO.P,U1,25,GNDIO*%
%TO.N,Board_24-GND*%
X184248776Y-105336888D03*
%TO.P,U1,26,XOUT32/CLKSEL1*%
X183748776Y-105336888D03*
%TO.P,U1,27,XIN32*%
%TO.N,Board_24-unconnected-(U1-XIN32-Pad27)*%
X183248776Y-105336888D03*
%TO.P,U1,28,VDDIO*%
%TO.N,Board_24-+3.3V*%
X182748776Y-105336888D03*
%TD*%
D12*
%TO.P,J1,1,Pin_1*%
%TO.N,Board_2-Net-(J1-Pin_1)*%
X148498776Y-27999388D03*
%TD*%
%TO.P,J1,1,Pin_1*%
%TO.N,Board_10-Net-(J1-Pin_1)*%
X112498776Y-63999388D03*
%TD*%
D15*
%TO.P,C1,1*%
%TO.N,Board_2-Net-(U1-CAP)*%
X146866014Y-37745835D03*
%TO.P,C1,2*%
%TO.N,Board_2-GND*%
X145906014Y-37745835D03*
%TD*%
D13*
%TO.P,U1,1,RESV_NC*%
%TO.N,Board_2-unconnected-(U1-RESV_NC-Pad1)*%
X146248776Y-33336888D03*
D14*
%TO.P,U1,2,GND*%
%TO.N,Board_2-GND*%
X146111276Y-34249388D03*
%TO.P,U1,3,VDD*%
%TO.N,Board_2-+3.3V*%
X146111276Y-34749388D03*
%TO.P,U1,4,BOOTN*%
%TO.N,Board_2-Net-(U1-BOOTN)*%
X146111276Y-35249388D03*
%TO.P,U1,5,PS1*%
%TO.N,Board_2-GND*%
X146111276Y-35749388D03*
D13*
%TO.P,U1,6,PS0/WAKE*%
X146248776Y-36661888D03*
%TO.P,U1,7,RESV_NC*%
%TO.N,Board_2-unconnected-(U1-RESV_NC-Pad7)*%
X146748776Y-36661888D03*
%TO.P,U1,8,RESV_NC*%
%TO.N,Board_2-unconnected-(U1-RESV_NC-Pad8)*%
X147248776Y-36661888D03*
%TO.P,U1,9,CAP*%
%TO.N,Board_2-Net-(U1-CAP)*%
X147748776Y-36661888D03*
%TO.P,U1,10,CLKSEL0*%
%TO.N,Board_2-+3.3V*%
X148248776Y-36661888D03*
%TO.P,U1,11,NRST*%
%TO.N,Board_2-unconnected-(U1-NRST-Pad11)*%
X148748776Y-36661888D03*
%TO.P,U1,12,RESV_NC*%
%TO.N,Board_2-unconnected-(U1-RESV_NC-Pad12)*%
X149248776Y-36661888D03*
%TO.P,U1,13,RESV_NC*%
%TO.N,Board_2-unconnected-(U1-RESV_NC-Pad13)*%
X149748776Y-36661888D03*
%TO.P,U1,14,H_INTN*%
%TO.N,Board_2-unconnected-(U1-H_INTN-Pad14)*%
X150248776Y-36661888D03*
%TO.P,U1,15,ENV_SCL*%
%TO.N,Board_2-Net-(U1-ENV_SCL)*%
X150748776Y-36661888D03*
D14*
%TO.P,U1,16,ENV_SDA*%
%TO.N,Board_2-Net-(U1-ENV_SDA)*%
X150886276Y-35749388D03*
%TO.P,U1,17,SA0/H_MOSI*%
%TO.N,Board_2-GND*%
X150886276Y-35249388D03*
%TO.P,U1,18,H_CSN*%
%TO.N,Board_2-unconnected-(U1-H_CSN-Pad18)*%
X150886276Y-34749388D03*
%TO.P,U1,19,H_SCL/SCK/RX*%
%TO.N,Board_2-Net-(J2-Pin_1)*%
X150886276Y-34249388D03*
D13*
%TO.P,U1,20,H_SDA/H_MISO/TX*%
%TO.N,Board_2-Net-(J1-Pin_1)*%
X150748776Y-33336888D03*
%TO.P,U1,21,RESV_NC*%
%TO.N,Board_2-unconnected-(U1-RESV_NC-Pad21)*%
X150248776Y-33336888D03*
%TO.P,U1,22,RESV_NC*%
%TO.N,Board_2-unconnected-(U1-RESV_NC-Pad22)*%
X149748776Y-33336888D03*
%TO.P,U1,23,RESV_NC*%
%TO.N,Board_2-unconnected-(U1-RESV_NC-Pad23)*%
X149248776Y-33336888D03*
%TO.P,U1,24,RESV_NC*%
%TO.N,Board_2-unconnected-(U1-RESV_NC-Pad24)*%
X148748776Y-33336888D03*
%TO.P,U1,25,GNDIO*%
%TO.N,Board_2-GND*%
X148248776Y-33336888D03*
%TO.P,U1,26,XOUT32/CLKSEL1*%
X147748776Y-33336888D03*
%TO.P,U1,27,XIN32*%
%TO.N,Board_2-unconnected-(U1-XIN32-Pad27)*%
X147248776Y-33336888D03*
%TO.P,U1,28,VDDIO*%
%TO.N,Board_2-+3.3V*%
X146748776Y-33336888D03*
%TD*%
D12*
%TO.P,J4,1,Pin_1*%
%TO.N,Board_19-GND*%
X191498776Y-88999388D03*
%TD*%
D15*
%TO.P,C1,1*%
%TO.N,Board_5-Net-(U1-CAP)*%
X110866014Y-55745835D03*
%TO.P,C1,2*%
%TO.N,Board_5-GND*%
X109906014Y-55745835D03*
%TD*%
D11*
%TO.P,R5,1*%
%TO.N,Board_1-+3.3V*%
X134998776Y-31239388D03*
%TO.P,R5,2*%
%TO.N,Board_1-Net-(J2-Pin_1)*%
X134998776Y-32259388D03*
%TD*%
D13*
%TO.P,U1,1,RESV_NC*%
%TO.N,Board_14-unconnected-(U1-RESV_NC-Pad1)*%
X182248776Y-69336888D03*
D14*
%TO.P,U1,2,GND*%
%TO.N,Board_14-GND*%
X182111276Y-70249388D03*
%TO.P,U1,3,VDD*%
%TO.N,Board_14-+3.3V*%
X182111276Y-70749388D03*
%TO.P,U1,4,BOOTN*%
%TO.N,Board_14-Net-(U1-BOOTN)*%
X182111276Y-71249388D03*
%TO.P,U1,5,PS1*%
%TO.N,Board_14-GND*%
X182111276Y-71749388D03*
D13*
%TO.P,U1,6,PS0/WAKE*%
X182248776Y-72661888D03*
%TO.P,U1,7,RESV_NC*%
%TO.N,Board_14-unconnected-(U1-RESV_NC-Pad7)*%
X182748776Y-72661888D03*
%TO.P,U1,8,RESV_NC*%
%TO.N,Board_14-unconnected-(U1-RESV_NC-Pad8)*%
X183248776Y-72661888D03*
%TO.P,U1,9,CAP*%
%TO.N,Board_14-Net-(U1-CAP)*%
X183748776Y-72661888D03*
%TO.P,U1,10,CLKSEL0*%
%TO.N,Board_14-+3.3V*%
X184248776Y-72661888D03*
%TO.P,U1,11,NRST*%
%TO.N,Board_14-unconnected-(U1-NRST-Pad11)*%
X184748776Y-72661888D03*
%TO.P,U1,12,RESV_NC*%
%TO.N,Board_14-unconnected-(U1-RESV_NC-Pad12)*%
X185248776Y-72661888D03*
%TO.P,U1,13,RESV_NC*%
%TO.N,Board_14-unconnected-(U1-RESV_NC-Pad13)*%
X185748776Y-72661888D03*
%TO.P,U1,14,H_INTN*%
%TO.N,Board_14-unconnected-(U1-H_INTN-Pad14)*%
X186248776Y-72661888D03*
%TO.P,U1,15,ENV_SCL*%
%TO.N,Board_14-Net-(U1-ENV_SCL)*%
X186748776Y-72661888D03*
D14*
%TO.P,U1,16,ENV_SDA*%
%TO.N,Board_14-Net-(U1-ENV_SDA)*%
X186886276Y-71749388D03*
%TO.P,U1,17,SA0/H_MOSI*%
%TO.N,Board_14-GND*%
X186886276Y-71249388D03*
%TO.P,U1,18,H_CSN*%
%TO.N,Board_14-unconnected-(U1-H_CSN-Pad18)*%
X186886276Y-70749388D03*
%TO.P,U1,19,H_SCL/SCK/RX*%
%TO.N,Board_14-Net-(J2-Pin_1)*%
X186886276Y-70249388D03*
D13*
%TO.P,U1,20,H_SDA/H_MISO/TX*%
%TO.N,Board_14-Net-(J1-Pin_1)*%
X186748776Y-69336888D03*
%TO.P,U1,21,RESV_NC*%
%TO.N,Board_14-unconnected-(U1-RESV_NC-Pad21)*%
X186248776Y-69336888D03*
%TO.P,U1,22,RESV_NC*%
%TO.N,Board_14-unconnected-(U1-RESV_NC-Pad22)*%
X185748776Y-69336888D03*
%TO.P,U1,23,RESV_NC*%
%TO.N,Board_14-unconnected-(U1-RESV_NC-Pad23)*%
X185248776Y-69336888D03*
%TO.P,U1,24,RESV_NC*%
%TO.N,Board_14-unconnected-(U1-RESV_NC-Pad24)*%
X184748776Y-69336888D03*
%TO.P,U1,25,GNDIO*%
%TO.N,Board_14-GND*%
X184248776Y-69336888D03*
%TO.P,U1,26,XOUT32/CLKSEL1*%
X183748776Y-69336888D03*
%TO.P,U1,27,XIN32*%
%TO.N,Board_14-unconnected-(U1-XIN32-Pad27)*%
X183248776Y-69336888D03*
%TO.P,U1,28,VDDIO*%
%TO.N,Board_14-+3.3V*%
X182748776Y-69336888D03*
%TD*%
D10*
%TO.P,R4,1*%
%TO.N,Board_19-Net-(J1-Pin_1)*%
X187248776Y-85259388D03*
%TO.P,R4,2*%
%TO.N,Board_19-+3.3V*%
X187248776Y-84239388D03*
%TD*%
%TO.P,R3,1*%
%TO.N,Board_1-Net-(U1-BOOTN)*%
X125998776Y-38009388D03*
%TO.P,R3,2*%
%TO.N,Board_1-+3.3V*%
X125998776Y-36989388D03*
%TD*%
D11*
%TO.P,R5,1*%
%TO.N,Board_15-+3.3V*%
X116998776Y-85239388D03*
%TO.P,R5,2*%
%TO.N,Board_15-Net-(J2-Pin_1)*%
X116998776Y-86259388D03*
%TD*%
D12*
%TO.P,J1,1,Pin_1*%
%TO.N,Board_19-Net-(J1-Pin_1)*%
X184498776Y-81999388D03*
%TD*%
%TO.P,J4,1,Pin_1*%
%TO.N,Board_4-GND*%
X191498776Y-34999388D03*
%TD*%
%TO.P,J1,1,Pin_1*%
%TO.N,Board_15-Net-(J1-Pin_1)*%
X112498776Y-81999388D03*
%TD*%
D10*
%TO.P,R4,1*%
%TO.N,Board_11-Net-(J1-Pin_1)*%
X133248776Y-67259388D03*
%TO.P,R4,2*%
%TO.N,Board_11-+3.3V*%
X133248776Y-66239388D03*
%TD*%
D13*
%TO.P,U1,1,RESV_NC*%
%TO.N,Board_19-unconnected-(U1-RESV_NC-Pad1)*%
X182248776Y-87336888D03*
D14*
%TO.P,U1,2,GND*%
%TO.N,Board_19-GND*%
X182111276Y-88249388D03*
%TO.P,U1,3,VDD*%
%TO.N,Board_19-+3.3V*%
X182111276Y-88749388D03*
%TO.P,U1,4,BOOTN*%
%TO.N,Board_19-Net-(U1-BOOTN)*%
X182111276Y-89249388D03*
%TO.P,U1,5,PS1*%
%TO.N,Board_19-GND*%
X182111276Y-89749388D03*
D13*
%TO.P,U1,6,PS0/WAKE*%
X182248776Y-90661888D03*
%TO.P,U1,7,RESV_NC*%
%TO.N,Board_19-unconnected-(U1-RESV_NC-Pad7)*%
X182748776Y-90661888D03*
%TO.P,U1,8,RESV_NC*%
%TO.N,Board_19-unconnected-(U1-RESV_NC-Pad8)*%
X183248776Y-90661888D03*
%TO.P,U1,9,CAP*%
%TO.N,Board_19-Net-(U1-CAP)*%
X183748776Y-90661888D03*
%TO.P,U1,10,CLKSEL0*%
%TO.N,Board_19-+3.3V*%
X184248776Y-90661888D03*
%TO.P,U1,11,NRST*%
%TO.N,Board_19-unconnected-(U1-NRST-Pad11)*%
X184748776Y-90661888D03*
%TO.P,U1,12,RESV_NC*%
%TO.N,Board_19-unconnected-(U1-RESV_NC-Pad12)*%
X185248776Y-90661888D03*
%TO.P,U1,13,RESV_NC*%
%TO.N,Board_19-unconnected-(U1-RESV_NC-Pad13)*%
X185748776Y-90661888D03*
%TO.P,U1,14,H_INTN*%
%TO.N,Board_19-unconnected-(U1-H_INTN-Pad14)*%
X186248776Y-90661888D03*
%TO.P,U1,15,ENV_SCL*%
%TO.N,Board_19-Net-(U1-ENV_SCL)*%
X186748776Y-90661888D03*
D14*
%TO.P,U1,16,ENV_SDA*%
%TO.N,Board_19-Net-(U1-ENV_SDA)*%
X186886276Y-89749388D03*
%TO.P,U1,17,SA0/H_MOSI*%
%TO.N,Board_19-GND*%
X186886276Y-89249388D03*
%TO.P,U1,18,H_CSN*%
%TO.N,Board_19-unconnected-(U1-H_CSN-Pad18)*%
X186886276Y-88749388D03*
%TO.P,U1,19,H_SCL/SCK/RX*%
%TO.N,Board_19-Net-(J2-Pin_1)*%
X186886276Y-88249388D03*
D13*
%TO.P,U1,20,H_SDA/H_MISO/TX*%
%TO.N,Board_19-Net-(J1-Pin_1)*%
X186748776Y-87336888D03*
%TO.P,U1,21,RESV_NC*%
%TO.N,Board_19-unconnected-(U1-RESV_NC-Pad21)*%
X186248776Y-87336888D03*
%TO.P,U1,22,RESV_NC*%
%TO.N,Board_19-unconnected-(U1-RESV_NC-Pad22)*%
X185748776Y-87336888D03*
%TO.P,U1,23,RESV_NC*%
%TO.N,Board_19-unconnected-(U1-RESV_NC-Pad23)*%
X185248776Y-87336888D03*
%TO.P,U1,24,RESV_NC*%
%TO.N,Board_19-unconnected-(U1-RESV_NC-Pad24)*%
X184748776Y-87336888D03*
%TO.P,U1,25,GNDIO*%
%TO.N,Board_19-GND*%
X184248776Y-87336888D03*
%TO.P,U1,26,XOUT32/CLKSEL1*%
X183748776Y-87336888D03*
%TO.P,U1,27,XIN32*%
%TO.N,Board_19-unconnected-(U1-XIN32-Pad27)*%
X183248776Y-87336888D03*
%TO.P,U1,28,VDDIO*%
%TO.N,Board_19-+3.3V*%
X182748776Y-87336888D03*
%TD*%
D11*
%TO.P,R5,1*%
%TO.N,Board_19-+3.3V*%
X188998776Y-85239388D03*
%TO.P,R5,2*%
%TO.N,Board_19-Net-(J2-Pin_1)*%
X188998776Y-86259388D03*
%TD*%
D12*
%TO.P,J2,1,Pin_1*%
%TO.N,Board_8-Net-(J2-Pin_1)*%
X166498776Y-59999388D03*
%TD*%
%TO.P,J1,1,Pin_1*%
%TO.N,Board_16-Net-(J1-Pin_1)*%
X130498776Y-81999388D03*
%TD*%
%TO.P,J2,1,Pin_1*%
%TO.N,Board_4-Net-(J2-Pin_1)*%
X184498776Y-41999388D03*
%TD*%
%TO.P,J2,1,Pin_1*%
%TO.N,Board_0-Net-(J2-Pin_1)*%
X112498776Y-41999388D03*
%TD*%
D15*
%TO.P,C1,1*%
%TO.N,Board_0-Net-(U1-CAP)*%
X110866014Y-37745835D03*
%TO.P,C1,2*%
%TO.N,Board_0-GND*%
X109906014Y-37745835D03*
%TD*%
D10*
%TO.P,R3,1*%
%TO.N,Board_9-Net-(U1-BOOTN)*%
X179998776Y-56009388D03*
%TO.P,R3,2*%
%TO.N,Board_9-+3.3V*%
X179998776Y-54989388D03*
%TD*%
D12*
%TO.P,J4,1,Pin_1*%
%TO.N,Board_6-GND*%
X137498776Y-52999388D03*
%TD*%
D15*
%TO.P,C1,1*%
%TO.N,Board_17-Net-(U1-CAP)*%
X146866014Y-91745835D03*
%TO.P,C1,2*%
%TO.N,Board_17-GND*%
X145906014Y-91745835D03*
%TD*%
D12*
%TO.P,J1,1,Pin_1*%
%TO.N,Board_7-Net-(J1-Pin_1)*%
X148498776Y-45999388D03*
%TD*%
D15*
%TO.P,C1,1*%
%TO.N,Board_19-Net-(U1-CAP)*%
X182866014Y-91745835D03*
%TO.P,C1,2*%
%TO.N,Board_19-GND*%
X181906014Y-91745835D03*
%TD*%
D12*
%TO.P,J4,1,Pin_1*%
%TO.N,Board_2-GND*%
X155498776Y-34999388D03*
%TD*%
D15*
%TO.P,C1,1*%
%TO.N,Board_15-Net-(U1-CAP)*%
X110866014Y-91745835D03*
%TO.P,C1,2*%
%TO.N,Board_15-GND*%
X109906014Y-91745835D03*
%TD*%
%TO.P,C1,1*%
%TO.N,Board_16-Net-(U1-CAP)*%
X128866014Y-91745835D03*
%TO.P,C1,2*%
%TO.N,Board_16-GND*%
X127906014Y-91745835D03*
%TD*%
D11*
%TO.P,R2,1*%
%TO.N,Board_15-Net-(U1-ENV_SDA)*%
X116498776Y-90989388D03*
%TO.P,R2,2*%
%TO.N,Board_15-+3.3V*%
X116498776Y-92009388D03*
%TD*%
D10*
%TO.P,R4,1*%
%TO.N,Board_0-Net-(J1-Pin_1)*%
X115248776Y-31259388D03*
%TO.P,R4,2*%
%TO.N,Board_0-+3.3V*%
X115248776Y-30239388D03*
%TD*%
D15*
%TO.P,C1,1*%
%TO.N,Board_7-Net-(U1-CAP)*%
X146866014Y-55745835D03*
%TO.P,C1,2*%
%TO.N,Board_7-GND*%
X145906014Y-55745835D03*
%TD*%
D12*
%TO.P,J3,1,Pin_1*%
%TO.N,Board_23-+3.3V*%
X159498776Y-106999388D03*
%TD*%
D11*
%TO.P,R5,1*%
%TO.N,Board_9-+3.3V*%
X188998776Y-49239388D03*
%TO.P,R5,2*%
%TO.N,Board_9-Net-(J2-Pin_1)*%
X188998776Y-50259388D03*
%TD*%
D10*
%TO.P,R1,1*%
%TO.N,Board_22-+3.3V*%
X150748776Y-111009388D03*
%TO.P,R1,2*%
%TO.N,Board_22-Net-(U1-ENV_SCL)*%
X150748776Y-109989388D03*
%TD*%
D11*
%TO.P,R2,1*%
%TO.N,Board_9-Net-(U1-ENV_SDA)*%
X188498776Y-54989388D03*
%TO.P,R2,2*%
%TO.N,Board_9-+3.3V*%
X188498776Y-56009388D03*
%TD*%
%TO.P,R2,1*%
%TO.N,Board_5-Net-(U1-ENV_SDA)*%
X116498776Y-54989388D03*
%TO.P,R2,2*%
%TO.N,Board_5-+3.3V*%
X116498776Y-56009388D03*
%TD*%
D10*
%TO.P,R3,1*%
%TO.N,Board_7-Net-(U1-BOOTN)*%
X143998776Y-56009388D03*
%TO.P,R3,2*%
%TO.N,Board_7-+3.3V*%
X143998776Y-54989388D03*
%TD*%
D12*
%TO.P,J1,1,Pin_1*%
%TO.N,Board_4-Net-(J1-Pin_1)*%
X184498776Y-27999388D03*
%TD*%
%TO.P,J4,1,Pin_1*%
%TO.N,Board_21-GND*%
X137498776Y-106999388D03*
%TD*%
%TO.P,J1,1,Pin_1*%
%TO.N,Board_13-Net-(J1-Pin_1)*%
X166498776Y-63999388D03*
%TD*%
D11*
%TO.P,R2,1*%
%TO.N,Board_23-Net-(U1-ENV_SDA)*%
X170498776Y-108989388D03*
%TO.P,R2,2*%
%TO.N,Board_23-+3.3V*%
X170498776Y-110009388D03*
%TD*%
%TO.P,R2,1*%
%TO.N,Board_2-Net-(U1-ENV_SDA)*%
X152498776Y-36989388D03*
%TO.P,R2,2*%
%TO.N,Board_2-+3.3V*%
X152498776Y-38009388D03*
%TD*%
D16*
%TO.N,Board_0-+3.3V*%
X114998776Y-29249388D03*
X112998776Y-30499388D03*
%TO.N,Board_0-GND*%
X108998776Y-39249388D03*
X112748776Y-34749388D03*
%TO.N,Board_0-Net-(J2-Pin_1)*%
X117748776Y-36749388D03*
X116498776Y-34249388D03*
%TO.N,Board_1-+3.3V*%
X130998776Y-30499388D03*
X132998776Y-29249388D03*
%TO.N,Board_1-GND*%
X126998776Y-39249388D03*
X130748776Y-34749388D03*
%TO.N,Board_1-Net-(J2-Pin_1)*%
X134498776Y-34249388D03*
X135748776Y-36749388D03*
%TO.N,Board_2-+3.3V*%
X150998776Y-29249388D03*
X148998776Y-30499388D03*
%TO.N,Board_2-GND*%
X148748776Y-34749388D03*
X144998776Y-39249388D03*
%TO.N,Board_2-Net-(J2-Pin_1)*%
X152498776Y-34249388D03*
X153748776Y-36749388D03*
%TO.N,Board_3-+3.3V*%
X166998776Y-30499388D03*
X168998776Y-29249388D03*
%TO.N,Board_3-GND*%
X166748776Y-34749388D03*
X162998776Y-39249388D03*
%TO.N,Board_3-Net-(J2-Pin_1)*%
X171748776Y-36749388D03*
X170498776Y-34249388D03*
%TO.N,Board_4-+3.3V*%
X184998776Y-30499388D03*
X186998776Y-29249388D03*
%TO.N,Board_4-GND*%
X184748776Y-34749388D03*
X180998776Y-39249388D03*
%TO.N,Board_4-Net-(J2-Pin_1)*%
X188498776Y-34249388D03*
X189748776Y-36749388D03*
%TO.N,Board_5-+3.3V*%
X114998776Y-47249388D03*
X112998776Y-48499388D03*
%TO.N,Board_5-GND*%
X112748776Y-52749388D03*
X108998776Y-57249388D03*
%TO.N,Board_5-Net-(J2-Pin_1)*%
X116498776Y-52249388D03*
X117748776Y-54749388D03*
%TO.N,Board_6-+3.3V*%
X130998776Y-48499388D03*
X132998776Y-47249388D03*
%TO.N,Board_6-GND*%
X126998776Y-57249388D03*
X130748776Y-52749388D03*
%TO.N,Board_6-Net-(J2-Pin_1)*%
X134498776Y-52249388D03*
X135748776Y-54749388D03*
%TO.N,Board_7-+3.3V*%
X150998776Y-47249388D03*
X148998776Y-48499388D03*
%TO.N,Board_7-GND*%
X144998776Y-57249388D03*
X148748776Y-52749388D03*
%TO.N,Board_7-Net-(J2-Pin_1)*%
X152498776Y-52249388D03*
X153748776Y-54749388D03*
%TO.N,Board_8-+3.3V*%
X166998776Y-48499388D03*
X168998776Y-47249388D03*
%TO.N,Board_8-GND*%
X162998776Y-57249388D03*
X166748776Y-52749388D03*
%TO.N,Board_8-Net-(J2-Pin_1)*%
X171748776Y-54749388D03*
X170498776Y-52249388D03*
%TO.N,Board_9-+3.3V*%
X186998776Y-47249388D03*
X184998776Y-48499388D03*
%TO.N,Board_9-GND*%
X184748776Y-52749388D03*
X180998776Y-57249388D03*
%TO.N,Board_9-Net-(J2-Pin_1)*%
X188498776Y-52249388D03*
X189748776Y-54749388D03*
%TO.N,Board_10-+3.3V*%
X112998776Y-66499388D03*
X114998776Y-65249388D03*
%TO.N,Board_10-GND*%
X108998776Y-75249388D03*
X112748776Y-70749388D03*
%TO.N,Board_10-Net-(J2-Pin_1)*%
X116498776Y-70249388D03*
X117748776Y-72749388D03*
%TO.N,Board_11-+3.3V*%
X132998776Y-65249388D03*
X130998776Y-66499388D03*
%TO.N,Board_11-GND*%
X130748776Y-70749388D03*
X126998776Y-75249388D03*
%TO.N,Board_11-Net-(J2-Pin_1)*%
X135748776Y-72749388D03*
X134498776Y-70249388D03*
%TO.N,Board_12-+3.3V*%
X150998776Y-65249388D03*
X148998776Y-66499388D03*
%TO.N,Board_12-GND*%
X144998776Y-75249388D03*
X148748776Y-70749388D03*
%TO.N,Board_12-Net-(J2-Pin_1)*%
X153748776Y-72749388D03*
X152498776Y-70249388D03*
%TO.N,Board_13-+3.3V*%
X166998776Y-66499388D03*
X168998776Y-65249388D03*
%TO.N,Board_13-GND*%
X162998776Y-75249388D03*
X166748776Y-70749388D03*
%TO.N,Board_13-Net-(J2-Pin_1)*%
X171748776Y-72749388D03*
X170498776Y-70249388D03*
%TO.N,Board_14-+3.3V*%
X186998776Y-65249388D03*
X184998776Y-66499388D03*
%TO.N,Board_14-GND*%
X180998776Y-75249388D03*
X184748776Y-70749388D03*
%TO.N,Board_14-Net-(J2-Pin_1)*%
X188498776Y-70249388D03*
X189748776Y-72749388D03*
%TO.N,Board_15-+3.3V*%
X114998776Y-83249388D03*
X112998776Y-84499388D03*
%TO.N,Board_15-GND*%
X108998776Y-93249388D03*
X112748776Y-88749388D03*
%TO.N,Board_15-Net-(J2-Pin_1)*%
X116498776Y-88249388D03*
X117748776Y-90749388D03*
%TO.N,Board_16-+3.3V*%
X130998776Y-84499388D03*
X132998776Y-83249388D03*
%TO.N,Board_16-GND*%
X130748776Y-88749388D03*
X126998776Y-93249388D03*
%TO.N,Board_16-Net-(J2-Pin_1)*%
X135748776Y-90749388D03*
X134498776Y-88249388D03*
%TO.N,Board_17-+3.3V*%
X150998776Y-83249388D03*
X148998776Y-84499388D03*
%TO.N,Board_17-GND*%
X148748776Y-88749388D03*
X144998776Y-93249388D03*
%TO.N,Board_17-Net-(J2-Pin_1)*%
X153748776Y-90749388D03*
X152498776Y-88249388D03*
%TO.N,Board_18-+3.3V*%
X166998776Y-84499388D03*
X168998776Y-83249388D03*
%TO.N,Board_18-GND*%
X162998776Y-93249388D03*
X166748776Y-88749388D03*
%TO.N,Board_18-Net-(J2-Pin_1)*%
X171748776Y-90749388D03*
X170498776Y-88249388D03*
%TO.N,Board_19-+3.3V*%
X184998776Y-84499388D03*
X186998776Y-83249388D03*
%TO.N,Board_19-GND*%
X184748776Y-88749388D03*
X180998776Y-93249388D03*
%TO.N,Board_19-Net-(J2-Pin_1)*%
X189748776Y-90749388D03*
X188498776Y-88249388D03*
%TO.N,Board_20-+3.3V*%
X112998776Y-102499388D03*
X114998776Y-101249388D03*
%TO.N,Board_20-GND*%
X108998776Y-111249388D03*
X112748776Y-106749388D03*
%TO.N,Board_20-Net-(J2-Pin_1)*%
X116498776Y-106249388D03*
X117748776Y-108749388D03*
%TO.N,Board_21-+3.3V*%
X132998776Y-101249388D03*
X130998776Y-102499388D03*
%TO.N,Board_21-GND*%
X126998776Y-111249388D03*
X130748776Y-106749388D03*
%TO.N,Board_21-Net-(J2-Pin_1)*%
X134498776Y-106249388D03*
X135748776Y-108749388D03*
%TO.N,Board_22-+3.3V*%
X150998776Y-101249388D03*
X148998776Y-102499388D03*
%TO.N,Board_22-GND*%
X144998776Y-111249388D03*
X148748776Y-106749388D03*
%TO.N,Board_22-Net-(J2-Pin_1)*%
X153748776Y-108749388D03*
X152498776Y-106249388D03*
%TO.N,Board_23-+3.3V*%
X166998776Y-102499388D03*
X168998776Y-101249388D03*
%TO.N,Board_23-GND*%
X166748776Y-106749388D03*
X162998776Y-111249388D03*
%TO.N,Board_23-Net-(J2-Pin_1)*%
X171748776Y-108749388D03*
X170498776Y-106249388D03*
%TO.N,Board_24-+3.3V*%
X186998776Y-101249388D03*
X184998776Y-102499388D03*
%TO.N,Board_24-GND*%
X184748776Y-106749388D03*
X180998776Y-111249388D03*
%TO.N,Board_24-Net-(J2-Pin_1)*%
X189748776Y-108749388D03*
X188498776Y-106249388D03*
%TD*%
D17*
%TO.N,Board_0-+3.3V*%
X112248776Y-36047388D02*
X110950776Y-34749388D01*
X108998776Y-34749388D02*
X110111276Y-34749388D01*
X115248776Y-30239388D02*
X115248776Y-29499388D01*
X113981776Y-39009388D02*
X112248776Y-37276388D01*
X110748776Y-33336888D02*
X110748776Y-32749388D01*
X112998776Y-30499388D02*
X112498776Y-30499388D01*
X107998776Y-35749388D02*
X108998776Y-34749388D01*
X115998776Y-30239388D02*
X116998776Y-31239388D01*
X110950776Y-34749388D02*
X110111276Y-34749388D01*
X108748776Y-34999388D02*
X108998776Y-34749388D01*
X115248776Y-30239388D02*
X115998776Y-30239388D01*
X112248776Y-36661888D02*
X112248776Y-36047388D01*
X110748776Y-32749388D02*
X110498776Y-32499388D01*
X112248776Y-37276388D02*
X112248776Y-36661888D01*
X108998776Y-33472388D02*
X108998776Y-34749388D01*
X115498776Y-39009388D02*
X116498776Y-38009388D01*
X114748776Y-39009388D02*
X113981776Y-39009388D01*
X109971776Y-32499388D02*
X108998776Y-33472388D01*
X114748776Y-39009388D02*
X115498776Y-39009388D01*
X115248776Y-29499388D02*
X114998776Y-29249388D01*
X110498776Y-32499388D02*
X109971776Y-32499388D01*
X107998776Y-36989388D02*
X107998776Y-35749388D01*
X112498776Y-30499388D02*
X110498776Y-32499388D01*
X105498776Y-34999388D02*
X108748776Y-34999388D01*
%TO.N,Board_0-GND*%
X112748776Y-34749388D02*
X113498776Y-34749388D01*
X108998776Y-37911888D02*
X108998776Y-39249388D01*
X110248776Y-35886888D02*
X110111276Y-35749388D01*
X112248776Y-34249388D02*
X112248776Y-33336888D01*
X110080026Y-36830638D02*
X110248776Y-36661888D01*
X119248776Y-35249388D02*
X114886276Y-35249388D01*
X112748776Y-34749388D02*
X112248776Y-34249388D01*
X110080026Y-36830638D02*
X108998776Y-37911888D01*
X113498776Y-34749388D02*
X113998776Y-35249388D01*
X114886276Y-35249388D02*
X113998776Y-35249388D01*
X110248776Y-36661888D02*
X110248776Y-35886888D01*
X109906014Y-37745835D02*
X109906014Y-37004650D01*
X112248776Y-34249388D02*
X112248776Y-33836888D01*
X109906014Y-37004650D02*
X110080026Y-36830638D01*
X119498776Y-34999388D02*
X119248776Y-35249388D01*
X112248776Y-33836888D02*
X111748776Y-33336888D01*
X112248776Y-34249388D02*
X110111276Y-34249388D01*
%TO.N,Board_0-Net-(J1-Pin_1)*%
X112498776Y-27999388D02*
X112498776Y-28509388D01*
X115248776Y-32836888D02*
X114748776Y-33336888D01*
X112498776Y-28509388D02*
X115248776Y-31259388D01*
X115248776Y-31259388D02*
X115248776Y-32836888D01*
%TO.N,Board_0-Net-(J2-Pin_1)*%
X114886276Y-34249388D02*
X116498776Y-34249388D01*
X117748776Y-36749388D02*
X117748776Y-37729926D01*
X116998776Y-32259388D02*
X115008776Y-34249388D01*
X113479314Y-41999388D02*
X112498776Y-41999388D01*
X115008776Y-34249388D02*
X114886276Y-34249388D01*
X117748776Y-37729926D02*
X113479314Y-41999388D01*
%TO.N,Board_0-Net-(U1-BOOTN)*%
X108643776Y-36102388D02*
X108643776Y-37364388D01*
X109496776Y-35249388D02*
X108643776Y-36102388D01*
X110111276Y-35249388D02*
X109496776Y-35249388D01*
X108643776Y-37364388D02*
X107998776Y-38009388D01*
%TO.N,Board_0-Net-(U1-CAP)*%
X111748776Y-37276388D02*
X111748776Y-36661888D01*
X111279329Y-37745835D02*
X111748776Y-37276388D01*
X110866014Y-37745835D02*
X111279329Y-37745835D01*
%TO.N,Board_0-Net-(U1-ENV_SCL)*%
X114748776Y-37989388D02*
X114748776Y-36661888D01*
%TO.N,Board_0-Net-(U1-ENV_SDA)*%
X116498776Y-36989388D02*
X116126276Y-36989388D01*
X116126276Y-36989388D02*
X114886276Y-35749388D01*
%TO.N,Board_1-+3.3V*%
X130248776Y-36047388D02*
X128950776Y-34749388D01*
X125998776Y-35749388D02*
X126998776Y-34749388D01*
X126998776Y-33472388D02*
X126998776Y-34749388D01*
X128950776Y-34749388D02*
X128111276Y-34749388D01*
X131981776Y-39009388D02*
X130248776Y-37276388D01*
X123498776Y-34999388D02*
X126748776Y-34999388D01*
X128498776Y-32499388D02*
X127971776Y-32499388D01*
X133998776Y-30239388D02*
X134998776Y-31239388D01*
X130248776Y-37276388D02*
X130248776Y-36661888D01*
X133248776Y-30239388D02*
X133998776Y-30239388D01*
X130248776Y-36661888D02*
X130248776Y-36047388D01*
X126748776Y-34999388D02*
X126998776Y-34749388D01*
X133498776Y-39009388D02*
X134498776Y-38009388D01*
X128748776Y-32749388D02*
X128498776Y-32499388D01*
X132748776Y-39009388D02*
X131981776Y-39009388D01*
X130498776Y-30499388D02*
X128498776Y-32499388D01*
X132748776Y-39009388D02*
X133498776Y-39009388D01*
X125998776Y-36989388D02*
X125998776Y-35749388D01*
X126998776Y-34749388D02*
X128111276Y-34749388D01*
X130998776Y-30499388D02*
X130498776Y-30499388D01*
X133248776Y-30239388D02*
X133248776Y-29499388D01*
X128748776Y-33336888D02*
X128748776Y-32749388D01*
X127971776Y-32499388D02*
X126998776Y-33472388D01*
X133248776Y-29499388D02*
X132998776Y-29249388D01*
%TO.N,Board_1-GND*%
X128248776Y-36661888D02*
X128248776Y-35886888D01*
X137498776Y-34999388D02*
X137248776Y-35249388D01*
X130748776Y-34749388D02*
X130248776Y-34249388D01*
X128080026Y-36830638D02*
X126998776Y-37911888D01*
X130748776Y-34749388D02*
X131498776Y-34749388D01*
X126998776Y-37911888D02*
X126998776Y-39249388D01*
X128248776Y-35886888D02*
X128111276Y-35749388D01*
X127906014Y-37004650D02*
X128080026Y-36830638D01*
X128080026Y-36830638D02*
X128248776Y-36661888D01*
X130248776Y-34249388D02*
X130248776Y-33336888D01*
X130248776Y-34249388D02*
X130248776Y-33836888D01*
X132886276Y-35249388D02*
X131998776Y-35249388D01*
X130248776Y-34249388D02*
X128111276Y-34249388D01*
X127906014Y-37745835D02*
X127906014Y-37004650D01*
X131498776Y-34749388D02*
X131998776Y-35249388D01*
X130248776Y-33836888D02*
X129748776Y-33336888D01*
X137248776Y-35249388D02*
X132886276Y-35249388D01*
%TO.N,Board_1-Net-(J1-Pin_1)*%
X133248776Y-31259388D02*
X133248776Y-32836888D01*
X130498776Y-28509388D02*
X133248776Y-31259388D01*
X133248776Y-32836888D02*
X132748776Y-33336888D01*
X130498776Y-27999388D02*
X130498776Y-28509388D01*
%TO.N,Board_1-Net-(J2-Pin_1)*%
X134998776Y-32259388D02*
X133008776Y-34249388D01*
X132886276Y-34249388D02*
X134498776Y-34249388D01*
X135748776Y-37729926D02*
X131479314Y-41999388D01*
X133008776Y-34249388D02*
X132886276Y-34249388D01*
X135748776Y-36749388D02*
X135748776Y-37729926D01*
X131479314Y-41999388D02*
X130498776Y-41999388D01*
%TO.N,Board_1-Net-(U1-BOOTN)*%
X127496776Y-35249388D02*
X126643776Y-36102388D01*
X126643776Y-37364388D02*
X125998776Y-38009388D01*
X128111276Y-35249388D02*
X127496776Y-35249388D01*
X126643776Y-36102388D02*
X126643776Y-37364388D01*
%TO.N,Board_1-Net-(U1-CAP)*%
X129748776Y-37276388D02*
X129748776Y-36661888D01*
X129279329Y-37745835D02*
X129748776Y-37276388D01*
X128866014Y-37745835D02*
X129279329Y-37745835D01*
%TO.N,Board_1-Net-(U1-ENV_SCL)*%
X132748776Y-37989388D02*
X132748776Y-36661888D01*
%TO.N,Board_1-Net-(U1-ENV_SDA)*%
X134126276Y-36989388D02*
X132886276Y-35749388D01*
X134498776Y-36989388D02*
X134126276Y-36989388D01*
%TO.N,Board_2-+3.3V*%
X148248776Y-36047388D02*
X146950776Y-34749388D01*
X144748776Y-34999388D02*
X144998776Y-34749388D01*
X148998776Y-30499388D02*
X148498776Y-30499388D01*
X143998776Y-35749388D02*
X144998776Y-34749388D01*
X149981776Y-39009388D02*
X148248776Y-37276388D01*
X146498776Y-32499388D02*
X145971776Y-32499388D01*
X150748776Y-39009388D02*
X151498776Y-39009388D01*
X144998776Y-33472388D02*
X144998776Y-34749388D01*
X151248776Y-30239388D02*
X151998776Y-30239388D01*
X143998776Y-36989388D02*
X143998776Y-35749388D01*
X148248776Y-36661888D02*
X148248776Y-36047388D01*
X144998776Y-34749388D02*
X146111276Y-34749388D01*
X150748776Y-39009388D02*
X149981776Y-39009388D01*
X146748776Y-33336888D02*
X146748776Y-32749388D01*
X148498776Y-30499388D02*
X146498776Y-32499388D01*
X151998776Y-30239388D02*
X152998776Y-31239388D01*
X151248776Y-29499388D02*
X150998776Y-29249388D01*
X148248776Y-37276388D02*
X148248776Y-36661888D01*
X146950776Y-34749388D02*
X146111276Y-34749388D01*
X141498776Y-34999388D02*
X144748776Y-34999388D01*
X146748776Y-32749388D02*
X146498776Y-32499388D01*
X145971776Y-32499388D02*
X144998776Y-33472388D01*
X151248776Y-30239388D02*
X151248776Y-29499388D01*
X151498776Y-39009388D02*
X152498776Y-38009388D01*
%TO.N,Board_2-GND*%
X150886276Y-35249388D02*
X149998776Y-35249388D01*
X155248776Y-35249388D02*
X150886276Y-35249388D01*
X148248776Y-34249388D02*
X148248776Y-33836888D01*
X148248776Y-34249388D02*
X148248776Y-33336888D01*
X149498776Y-34749388D02*
X149998776Y-35249388D01*
X148248776Y-34249388D02*
X146111276Y-34249388D01*
X146080026Y-36830638D02*
X144998776Y-37911888D01*
X146248776Y-36661888D02*
X146248776Y-35886888D01*
X155498776Y-34999388D02*
X155248776Y-35249388D01*
X148748776Y-34749388D02*
X148248776Y-34249388D01*
X145906014Y-37745835D02*
X145906014Y-37004650D01*
X145906014Y-37004650D02*
X146080026Y-36830638D01*
X146080026Y-36830638D02*
X146248776Y-36661888D01*
X144998776Y-37911888D02*
X144998776Y-39249388D01*
X146248776Y-35886888D02*
X146111276Y-35749388D01*
X148248776Y-33836888D02*
X147748776Y-33336888D01*
X148748776Y-34749388D02*
X149498776Y-34749388D01*
%TO.N,Board_2-Net-(J1-Pin_1)*%
X151248776Y-31259388D02*
X151248776Y-32836888D01*
X151248776Y-32836888D02*
X150748776Y-33336888D01*
X148498776Y-28509388D02*
X151248776Y-31259388D01*
X148498776Y-27999388D02*
X148498776Y-28509388D01*
%TO.N,Board_2-Net-(J2-Pin_1)*%
X151008776Y-34249388D02*
X150886276Y-34249388D01*
X152998776Y-32259388D02*
X151008776Y-34249388D01*
X150886276Y-34249388D02*
X152498776Y-34249388D01*
X153748776Y-36749388D02*
X153748776Y-37729926D01*
X149479314Y-41999388D02*
X148498776Y-41999388D01*
X153748776Y-37729926D02*
X149479314Y-41999388D01*
%TO.N,Board_2-Net-(U1-BOOTN)*%
X144643776Y-36102388D02*
X144643776Y-37364388D01*
X146111276Y-35249388D02*
X145496776Y-35249388D01*
X145496776Y-35249388D02*
X144643776Y-36102388D01*
X144643776Y-37364388D02*
X143998776Y-38009388D01*
%TO.N,Board_2-Net-(U1-CAP)*%
X147279329Y-37745835D02*
X147748776Y-37276388D01*
X146866014Y-37745835D02*
X147279329Y-37745835D01*
X147748776Y-37276388D02*
X147748776Y-36661888D01*
%TO.N,Board_2-Net-(U1-ENV_SCL)*%
X150748776Y-37989388D02*
X150748776Y-36661888D01*
%TO.N,Board_2-Net-(U1-ENV_SDA)*%
X152498776Y-36989388D02*
X152126276Y-36989388D01*
X152126276Y-36989388D02*
X150886276Y-35749388D01*
%TO.N,Board_3-+3.3V*%
X164748776Y-33336888D02*
X164748776Y-32749388D01*
X161998776Y-35749388D02*
X162998776Y-34749388D01*
X166498776Y-30499388D02*
X164498776Y-32499388D01*
X166248776Y-36047388D02*
X164950776Y-34749388D01*
X162748776Y-34999388D02*
X162998776Y-34749388D01*
X169248776Y-30239388D02*
X169248776Y-29499388D01*
X168748776Y-39009388D02*
X167981776Y-39009388D01*
X169248776Y-30239388D02*
X169998776Y-30239388D01*
X162998776Y-34749388D02*
X164111276Y-34749388D01*
X169248776Y-29499388D02*
X168998776Y-29249388D01*
X163971776Y-32499388D02*
X162998776Y-33472388D01*
X166248776Y-36661888D02*
X166248776Y-36047388D01*
X168748776Y-39009388D02*
X169498776Y-39009388D01*
X166998776Y-30499388D02*
X166498776Y-30499388D01*
X161998776Y-36989388D02*
X161998776Y-35749388D01*
X159498776Y-34999388D02*
X162748776Y-34999388D01*
X167981776Y-39009388D02*
X166248776Y-37276388D01*
X169498776Y-39009388D02*
X170498776Y-38009388D01*
X164498776Y-32499388D02*
X163971776Y-32499388D01*
X162998776Y-33472388D02*
X162998776Y-34749388D01*
X164748776Y-32749388D02*
X164498776Y-32499388D01*
X169998776Y-30239388D02*
X170998776Y-31239388D01*
X166248776Y-37276388D02*
X166248776Y-36661888D01*
X164950776Y-34749388D02*
X164111276Y-34749388D01*
%TO.N,Board_3-GND*%
X166248776Y-34249388D02*
X164111276Y-34249388D01*
X164248776Y-35886888D02*
X164111276Y-35749388D01*
X173498776Y-34999388D02*
X173248776Y-35249388D01*
X167498776Y-34749388D02*
X167998776Y-35249388D01*
X166248776Y-34249388D02*
X166248776Y-33836888D01*
X163906014Y-37004650D02*
X164080026Y-36830638D01*
X166248776Y-33836888D02*
X165748776Y-33336888D01*
X164080026Y-36830638D02*
X164248776Y-36661888D01*
X163906014Y-37745835D02*
X163906014Y-37004650D01*
X166748776Y-34749388D02*
X167498776Y-34749388D01*
X173248776Y-35249388D02*
X168886276Y-35249388D01*
X166748776Y-34749388D02*
X166248776Y-34249388D01*
X162998776Y-37911888D02*
X162998776Y-39249388D01*
X168886276Y-35249388D02*
X167998776Y-35249388D01*
X164080026Y-36830638D02*
X162998776Y-37911888D01*
X166248776Y-34249388D02*
X166248776Y-33336888D01*
X164248776Y-36661888D02*
X164248776Y-35886888D01*
%TO.N,Board_3-Net-(J1-Pin_1)*%
X166498776Y-27999388D02*
X166498776Y-28509388D01*
X169248776Y-31259388D02*
X169248776Y-32836888D01*
X166498776Y-28509388D02*
X169248776Y-31259388D01*
X169248776Y-32836888D02*
X168748776Y-33336888D01*
%TO.N,Board_3-Net-(J2-Pin_1)*%
X168886276Y-34249388D02*
X170498776Y-34249388D01*
X171748776Y-36749388D02*
X171748776Y-37729926D01*
X170998776Y-32259388D02*
X169008776Y-34249388D01*
X171748776Y-37729926D02*
X167479314Y-41999388D01*
X169008776Y-34249388D02*
X168886276Y-34249388D01*
X167479314Y-41999388D02*
X166498776Y-41999388D01*
%TO.N,Board_3-Net-(U1-BOOTN)*%
X162643776Y-36102388D02*
X162643776Y-37364388D01*
X162643776Y-37364388D02*
X161998776Y-38009388D01*
X163496776Y-35249388D02*
X162643776Y-36102388D01*
X164111276Y-35249388D02*
X163496776Y-35249388D01*
%TO.N,Board_3-Net-(U1-CAP)*%
X165748776Y-37276388D02*
X165748776Y-36661888D01*
X165279329Y-37745835D02*
X165748776Y-37276388D01*
X164866014Y-37745835D02*
X165279329Y-37745835D01*
%TO.N,Board_3-Net-(U1-ENV_SCL)*%
X168748776Y-37989388D02*
X168748776Y-36661888D01*
%TO.N,Board_3-Net-(U1-ENV_SDA)*%
X170126276Y-36989388D02*
X168886276Y-35749388D01*
X170498776Y-36989388D02*
X170126276Y-36989388D01*
%TO.N,Board_4-+3.3V*%
X187248776Y-29499388D02*
X186998776Y-29249388D01*
X181971776Y-32499388D02*
X180998776Y-33472388D01*
X187998776Y-30239388D02*
X188998776Y-31239388D01*
X179998776Y-36989388D02*
X179998776Y-35749388D01*
X184248776Y-37276388D02*
X184248776Y-36661888D01*
X187498776Y-39009388D02*
X188498776Y-38009388D01*
X182498776Y-32499388D02*
X181971776Y-32499388D01*
X180998776Y-34749388D02*
X182111276Y-34749388D01*
X179998776Y-35749388D02*
X180998776Y-34749388D01*
X184498776Y-30499388D02*
X182498776Y-32499388D01*
X180748776Y-34999388D02*
X180998776Y-34749388D01*
X184998776Y-30499388D02*
X184498776Y-30499388D01*
X182748776Y-32749388D02*
X182498776Y-32499388D01*
X182748776Y-33336888D02*
X182748776Y-32749388D01*
X177498776Y-34999388D02*
X180748776Y-34999388D01*
X185981776Y-39009388D02*
X184248776Y-37276388D01*
X187248776Y-30239388D02*
X187998776Y-30239388D01*
X187248776Y-30239388D02*
X187248776Y-29499388D01*
X184248776Y-36047388D02*
X182950776Y-34749388D01*
X186748776Y-39009388D02*
X185981776Y-39009388D01*
X184248776Y-36661888D02*
X184248776Y-36047388D01*
X182950776Y-34749388D02*
X182111276Y-34749388D01*
X186748776Y-39009388D02*
X187498776Y-39009388D01*
X180998776Y-33472388D02*
X180998776Y-34749388D01*
%TO.N,Board_4-GND*%
X181906014Y-37745835D02*
X181906014Y-37004650D01*
X184748776Y-34749388D02*
X185498776Y-34749388D01*
X181906014Y-37004650D02*
X182080026Y-36830638D01*
X191248776Y-35249388D02*
X186886276Y-35249388D01*
X184248776Y-33836888D02*
X183748776Y-33336888D01*
X182080026Y-36830638D02*
X180998776Y-37911888D01*
X184248776Y-34249388D02*
X182111276Y-34249388D01*
X180998776Y-37911888D02*
X180998776Y-39249388D01*
X182248776Y-36661888D02*
X182248776Y-35886888D01*
X186886276Y-35249388D02*
X185998776Y-35249388D01*
X182080026Y-36830638D02*
X182248776Y-36661888D01*
X184248776Y-34249388D02*
X184248776Y-33336888D01*
X191498776Y-34999388D02*
X191248776Y-35249388D01*
X185498776Y-34749388D02*
X185998776Y-35249388D01*
X182248776Y-35886888D02*
X182111276Y-35749388D01*
X184248776Y-34249388D02*
X184248776Y-33836888D01*
X184748776Y-34749388D02*
X184248776Y-34249388D01*
%TO.N,Board_4-Net-(J1-Pin_1)*%
X184498776Y-28509388D02*
X187248776Y-31259388D01*
X184498776Y-27999388D02*
X184498776Y-28509388D01*
X187248776Y-32836888D02*
X186748776Y-33336888D01*
X187248776Y-31259388D02*
X187248776Y-32836888D01*
%TO.N,Board_4-Net-(J2-Pin_1)*%
X187008776Y-34249388D02*
X186886276Y-34249388D01*
X189748776Y-36749388D02*
X189748776Y-37729926D01*
X186886276Y-34249388D02*
X188498776Y-34249388D01*
X185479314Y-41999388D02*
X184498776Y-41999388D01*
X189748776Y-37729926D02*
X185479314Y-41999388D01*
X188998776Y-32259388D02*
X187008776Y-34249388D01*
%TO.N,Board_4-Net-(U1-BOOTN)*%
X180643776Y-36102388D02*
X180643776Y-37364388D01*
X182111276Y-35249388D02*
X181496776Y-35249388D01*
X181496776Y-35249388D02*
X180643776Y-36102388D01*
X180643776Y-37364388D02*
X179998776Y-38009388D01*
%TO.N,Board_4-Net-(U1-CAP)*%
X183748776Y-37276388D02*
X183748776Y-36661888D01*
X182866014Y-37745835D02*
X183279329Y-37745835D01*
X183279329Y-37745835D02*
X183748776Y-37276388D01*
%TO.N,Board_4-Net-(U1-ENV_SCL)*%
X186748776Y-37989388D02*
X186748776Y-36661888D01*
%TO.N,Board_4-Net-(U1-ENV_SDA)*%
X188498776Y-36989388D02*
X188126276Y-36989388D01*
X188126276Y-36989388D02*
X186886276Y-35749388D01*
%TO.N,Board_5-+3.3V*%
X108998776Y-51472388D02*
X108998776Y-52749388D01*
X109971776Y-50499388D02*
X108998776Y-51472388D01*
X115248776Y-48239388D02*
X115998776Y-48239388D01*
X107998776Y-53749388D02*
X108998776Y-52749388D01*
X115248776Y-47499388D02*
X114998776Y-47249388D01*
X110748776Y-51336888D02*
X110748776Y-50749388D01*
X110748776Y-50749388D02*
X110498776Y-50499388D01*
X107998776Y-54989388D02*
X107998776Y-53749388D01*
X108748776Y-52999388D02*
X108998776Y-52749388D01*
X112998776Y-48499388D02*
X112498776Y-48499388D01*
X108998776Y-52749388D02*
X110111276Y-52749388D01*
X114748776Y-57009388D02*
X113981776Y-57009388D01*
X112248776Y-54047388D02*
X110950776Y-52749388D01*
X114748776Y-57009388D02*
X115498776Y-57009388D01*
X113981776Y-57009388D02*
X112248776Y-55276388D01*
X115498776Y-57009388D02*
X116498776Y-56009388D01*
X105498776Y-52999388D02*
X108748776Y-52999388D01*
X115248776Y-48239388D02*
X115248776Y-47499388D01*
X112498776Y-48499388D02*
X110498776Y-50499388D01*
X112248776Y-55276388D02*
X112248776Y-54661888D01*
X115998776Y-48239388D02*
X116998776Y-49239388D01*
X110950776Y-52749388D02*
X110111276Y-52749388D01*
X112248776Y-54661888D02*
X112248776Y-54047388D01*
X110498776Y-50499388D02*
X109971776Y-50499388D01*
%TO.N,Board_5-GND*%
X112248776Y-51836888D02*
X111748776Y-51336888D01*
X110080026Y-54830638D02*
X110248776Y-54661888D01*
X110248776Y-53886888D02*
X110111276Y-53749388D01*
X119248776Y-53249388D02*
X114886276Y-53249388D01*
X112248776Y-52249388D02*
X110111276Y-52249388D01*
X109906014Y-55004650D02*
X110080026Y-54830638D01*
X108998776Y-55911888D02*
X108998776Y-57249388D01*
X113498776Y-52749388D02*
X113998776Y-53249388D01*
X109906014Y-55745835D02*
X109906014Y-55004650D01*
X112248776Y-52249388D02*
X112248776Y-51836888D01*
X119498776Y-52999388D02*
X119248776Y-53249388D01*
X112248776Y-52249388D02*
X112248776Y-51336888D01*
X114886276Y-53249388D02*
X113998776Y-53249388D01*
X112748776Y-52749388D02*
X113498776Y-52749388D01*
X110248776Y-54661888D02*
X110248776Y-53886888D01*
X110080026Y-54830638D02*
X108998776Y-55911888D01*
X112748776Y-52749388D02*
X112248776Y-52249388D01*
%TO.N,Board_5-Net-(J1-Pin_1)*%
X115248776Y-49259388D02*
X115248776Y-50836888D01*
X112498776Y-45999388D02*
X112498776Y-46509388D01*
X112498776Y-46509388D02*
X115248776Y-49259388D01*
X115248776Y-50836888D02*
X114748776Y-51336888D01*
%TO.N,Board_5-Net-(J2-Pin_1)*%
X114886276Y-52249388D02*
X116498776Y-52249388D01*
X117748776Y-54749388D02*
X117748776Y-55729926D01*
X113479314Y-59999388D02*
X112498776Y-59999388D01*
X115008776Y-52249388D02*
X114886276Y-52249388D01*
X117748776Y-55729926D02*
X113479314Y-59999388D01*
X116998776Y-50259388D02*
X115008776Y-52249388D01*
%TO.N,Board_5-Net-(U1-BOOTN)*%
X110111276Y-53249388D02*
X109496776Y-53249388D01*
X108643776Y-55364388D02*
X107998776Y-56009388D01*
X109496776Y-53249388D02*
X108643776Y-54102388D01*
X108643776Y-54102388D02*
X108643776Y-55364388D01*
%TO.N,Board_5-Net-(U1-CAP)*%
X110866014Y-55745835D02*
X111279329Y-55745835D01*
X111748776Y-55276388D02*
X111748776Y-54661888D01*
X111279329Y-55745835D02*
X111748776Y-55276388D01*
%TO.N,Board_5-Net-(U1-ENV_SCL)*%
X114748776Y-55989388D02*
X114748776Y-54661888D01*
%TO.N,Board_5-Net-(U1-ENV_SDA)*%
X116126276Y-54989388D02*
X114886276Y-53749388D01*
X116498776Y-54989388D02*
X116126276Y-54989388D01*
%TO.N,Board_6-+3.3V*%
X132748776Y-57009388D02*
X131981776Y-57009388D01*
X133248776Y-48239388D02*
X133998776Y-48239388D01*
X132748776Y-57009388D02*
X133498776Y-57009388D01*
X126998776Y-52749388D02*
X128111276Y-52749388D01*
X130498776Y-48499388D02*
X128498776Y-50499388D01*
X123498776Y-52999388D02*
X126748776Y-52999388D01*
X130248776Y-54047388D02*
X128950776Y-52749388D01*
X126748776Y-52999388D02*
X126998776Y-52749388D01*
X133498776Y-57009388D02*
X134498776Y-56009388D01*
X133248776Y-48239388D02*
X133248776Y-47499388D01*
X128498776Y-50499388D02*
X127971776Y-50499388D01*
X130998776Y-48499388D02*
X130498776Y-48499388D01*
X131981776Y-57009388D02*
X130248776Y-55276388D01*
X130248776Y-54661888D02*
X130248776Y-54047388D01*
X125998776Y-54989388D02*
X125998776Y-53749388D01*
X130248776Y-55276388D02*
X130248776Y-54661888D01*
X125998776Y-53749388D02*
X126998776Y-52749388D01*
X133248776Y-47499388D02*
X132998776Y-47249388D01*
X128748776Y-50749388D02*
X128498776Y-50499388D01*
X133998776Y-48239388D02*
X134998776Y-49239388D01*
X128950776Y-52749388D02*
X128111276Y-52749388D01*
X127971776Y-50499388D02*
X126998776Y-51472388D01*
X128748776Y-51336888D02*
X128748776Y-50749388D01*
X126998776Y-51472388D02*
X126998776Y-52749388D01*
%TO.N,Board_6-GND*%
X137498776Y-52999388D02*
X137248776Y-53249388D01*
X130248776Y-52249388D02*
X128111276Y-52249388D01*
X130748776Y-52749388D02*
X130248776Y-52249388D01*
X130248776Y-51836888D02*
X129748776Y-51336888D01*
X128248776Y-53886888D02*
X128111276Y-53749388D01*
X127906014Y-55745835D02*
X127906014Y-55004650D01*
X132886276Y-53249388D02*
X131998776Y-53249388D01*
X137248776Y-53249388D02*
X132886276Y-53249388D01*
X128080026Y-54830638D02*
X128248776Y-54661888D01*
X130748776Y-52749388D02*
X131498776Y-52749388D01*
X130248776Y-52249388D02*
X130248776Y-51336888D01*
X131498776Y-52749388D02*
X131998776Y-53249388D01*
X128080026Y-54830638D02*
X126998776Y-55911888D01*
X127906014Y-55004650D02*
X128080026Y-54830638D01*
X128248776Y-54661888D02*
X128248776Y-53886888D01*
X130248776Y-52249388D02*
X130248776Y-51836888D01*
X126998776Y-55911888D02*
X126998776Y-57249388D01*
%TO.N,Board_6-Net-(J1-Pin_1)*%
X130498776Y-45999388D02*
X130498776Y-46509388D01*
X130498776Y-46509388D02*
X133248776Y-49259388D01*
X133248776Y-50836888D02*
X132748776Y-51336888D01*
X133248776Y-49259388D02*
X133248776Y-50836888D01*
%TO.N,Board_6-Net-(J2-Pin_1)*%
X131479314Y-59999388D02*
X130498776Y-59999388D01*
X135748776Y-54749388D02*
X135748776Y-55729926D01*
X135748776Y-55729926D02*
X131479314Y-59999388D01*
X133008776Y-52249388D02*
X132886276Y-52249388D01*
X134998776Y-50259388D02*
X133008776Y-52249388D01*
X132886276Y-52249388D02*
X134498776Y-52249388D01*
%TO.N,Board_6-Net-(U1-BOOTN)*%
X126643776Y-55364388D02*
X125998776Y-56009388D01*
X126643776Y-54102388D02*
X126643776Y-55364388D01*
X128111276Y-53249388D02*
X127496776Y-53249388D01*
X127496776Y-53249388D02*
X126643776Y-54102388D01*
%TO.N,Board_6-Net-(U1-CAP)*%
X129748776Y-55276388D02*
X129748776Y-54661888D01*
X128866014Y-55745835D02*
X129279329Y-55745835D01*
X129279329Y-55745835D02*
X129748776Y-55276388D01*
%TO.N,Board_6-Net-(U1-ENV_SCL)*%
X132748776Y-55989388D02*
X132748776Y-54661888D01*
%TO.N,Board_6-Net-(U1-ENV_SDA)*%
X134126276Y-54989388D02*
X132886276Y-53749388D01*
X134498776Y-54989388D02*
X134126276Y-54989388D01*
%TO.N,Board_7-+3.3V*%
X143998776Y-54989388D02*
X143998776Y-53749388D01*
X143998776Y-53749388D02*
X144998776Y-52749388D01*
X141498776Y-52999388D02*
X144748776Y-52999388D01*
X144748776Y-52999388D02*
X144998776Y-52749388D01*
X151248776Y-48239388D02*
X151248776Y-47499388D01*
X151498776Y-57009388D02*
X152498776Y-56009388D01*
X146748776Y-50749388D02*
X146498776Y-50499388D01*
X146748776Y-51336888D02*
X146748776Y-50749388D01*
X144998776Y-51472388D02*
X144998776Y-52749388D01*
X146498776Y-50499388D02*
X145971776Y-50499388D01*
X151248776Y-47499388D02*
X150998776Y-47249388D01*
X148248776Y-55276388D02*
X148248776Y-54661888D01*
X151248776Y-48239388D02*
X151998776Y-48239388D01*
X148498776Y-48499388D02*
X146498776Y-50499388D01*
X144998776Y-52749388D02*
X146111276Y-52749388D01*
X150748776Y-57009388D02*
X151498776Y-57009388D01*
X148248776Y-54047388D02*
X146950776Y-52749388D01*
X149981776Y-57009388D02*
X148248776Y-55276388D01*
X151998776Y-48239388D02*
X152998776Y-49239388D01*
X148998776Y-48499388D02*
X148498776Y-48499388D01*
X148248776Y-54661888D02*
X148248776Y-54047388D01*
X146950776Y-52749388D02*
X146111276Y-52749388D01*
X150748776Y-57009388D02*
X149981776Y-57009388D01*
X145971776Y-50499388D02*
X144998776Y-51472388D01*
%TO.N,Board_7-GND*%
X146248776Y-53886888D02*
X146111276Y-53749388D01*
X148248776Y-52249388D02*
X148248776Y-51336888D01*
X149498776Y-52749388D02*
X149998776Y-53249388D01*
X148748776Y-52749388D02*
X148248776Y-52249388D01*
X148248776Y-51836888D02*
X147748776Y-51336888D01*
X146080026Y-54830638D02*
X144998776Y-55911888D01*
X145906014Y-55745835D02*
X145906014Y-55004650D01*
X155248776Y-53249388D02*
X150886276Y-53249388D01*
X146248776Y-54661888D02*
X146248776Y-53886888D01*
X146080026Y-54830638D02*
X146248776Y-54661888D01*
X148248776Y-52249388D02*
X146111276Y-52249388D01*
X144998776Y-55911888D02*
X144998776Y-57249388D01*
X148748776Y-52749388D02*
X149498776Y-52749388D01*
X150886276Y-53249388D02*
X149998776Y-53249388D01*
X148248776Y-52249388D02*
X148248776Y-51836888D01*
X155498776Y-52999388D02*
X155248776Y-53249388D01*
X145906014Y-55004650D02*
X146080026Y-54830638D01*
%TO.N,Board_7-Net-(J1-Pin_1)*%
X148498776Y-46509388D02*
X151248776Y-49259388D01*
X151248776Y-50836888D02*
X150748776Y-51336888D01*
X148498776Y-45999388D02*
X148498776Y-46509388D01*
X151248776Y-49259388D02*
X151248776Y-50836888D01*
%TO.N,Board_7-Net-(J2-Pin_1)*%
X149479314Y-59999388D02*
X148498776Y-59999388D01*
X152998776Y-50259388D02*
X151008776Y-52249388D01*
X151008776Y-52249388D02*
X150886276Y-52249388D01*
X150886276Y-52249388D02*
X152498776Y-52249388D01*
X153748776Y-55729926D02*
X149479314Y-59999388D01*
X153748776Y-54749388D02*
X153748776Y-55729926D01*
%TO.N,Board_7-Net-(U1-BOOTN)*%
X145496776Y-53249388D02*
X144643776Y-54102388D01*
X146111276Y-53249388D02*
X145496776Y-53249388D01*
X144643776Y-54102388D02*
X144643776Y-55364388D01*
X144643776Y-55364388D02*
X143998776Y-56009388D01*
%TO.N,Board_7-Net-(U1-CAP)*%
X147279329Y-55745835D02*
X147748776Y-55276388D01*
X147748776Y-55276388D02*
X147748776Y-54661888D01*
X146866014Y-55745835D02*
X147279329Y-55745835D01*
%TO.N,Board_7-Net-(U1-ENV_SCL)*%
X150748776Y-55989388D02*
X150748776Y-54661888D01*
%TO.N,Board_7-Net-(U1-ENV_SDA)*%
X152126276Y-54989388D02*
X150886276Y-53749388D01*
X152498776Y-54989388D02*
X152126276Y-54989388D01*
%TO.N,Board_8-+3.3V*%
X167981776Y-57009388D02*
X166248776Y-55276388D01*
X166248776Y-55276388D02*
X166248776Y-54661888D01*
X162748776Y-52999388D02*
X162998776Y-52749388D01*
X159498776Y-52999388D02*
X162748776Y-52999388D01*
X169248776Y-48239388D02*
X169998776Y-48239388D01*
X166248776Y-54661888D02*
X166248776Y-54047388D01*
X169498776Y-57009388D02*
X170498776Y-56009388D01*
X169248776Y-48239388D02*
X169248776Y-47499388D01*
X164498776Y-50499388D02*
X163971776Y-50499388D01*
X161998776Y-53749388D02*
X162998776Y-52749388D01*
X168748776Y-57009388D02*
X167981776Y-57009388D01*
X163971776Y-50499388D02*
X162998776Y-51472388D01*
X164748776Y-50749388D02*
X164498776Y-50499388D01*
X164748776Y-51336888D02*
X164748776Y-50749388D01*
X164950776Y-52749388D02*
X164111276Y-52749388D01*
X161998776Y-54989388D02*
X161998776Y-53749388D01*
X166248776Y-54047388D02*
X164950776Y-52749388D01*
X166498776Y-48499388D02*
X164498776Y-50499388D01*
X169998776Y-48239388D02*
X170998776Y-49239388D01*
X169248776Y-47499388D02*
X168998776Y-47249388D01*
X166998776Y-48499388D02*
X166498776Y-48499388D01*
X162998776Y-51472388D02*
X162998776Y-52749388D01*
X168748776Y-57009388D02*
X169498776Y-57009388D01*
X162998776Y-52749388D02*
X164111276Y-52749388D01*
%TO.N,Board_8-GND*%
X173248776Y-53249388D02*
X168886276Y-53249388D01*
X164248776Y-53886888D02*
X164111276Y-53749388D01*
X167498776Y-52749388D02*
X167998776Y-53249388D01*
X164080026Y-54830638D02*
X162998776Y-55911888D01*
X164248776Y-54661888D02*
X164248776Y-53886888D01*
X166248776Y-52249388D02*
X166248776Y-51836888D01*
X166248776Y-51836888D02*
X165748776Y-51336888D01*
X173498776Y-52999388D02*
X173248776Y-53249388D01*
X163906014Y-55004650D02*
X164080026Y-54830638D01*
X166248776Y-52249388D02*
X164111276Y-52249388D01*
X163906014Y-55745835D02*
X163906014Y-55004650D01*
X166748776Y-52749388D02*
X166248776Y-52249388D01*
X166748776Y-52749388D02*
X167498776Y-52749388D01*
X166248776Y-52249388D02*
X166248776Y-51336888D01*
X162998776Y-55911888D02*
X162998776Y-57249388D01*
X164080026Y-54830638D02*
X164248776Y-54661888D01*
X168886276Y-53249388D02*
X167998776Y-53249388D01*
%TO.N,Board_8-Net-(J1-Pin_1)*%
X169248776Y-50836888D02*
X168748776Y-51336888D01*
X166498776Y-45999388D02*
X166498776Y-46509388D01*
X166498776Y-46509388D02*
X169248776Y-49259388D01*
X169248776Y-49259388D02*
X169248776Y-50836888D01*
%TO.N,Board_8-Net-(J2-Pin_1)*%
X168886276Y-52249388D02*
X170498776Y-52249388D01*
X170998776Y-50259388D02*
X169008776Y-52249388D01*
X167479314Y-59999388D02*
X166498776Y-59999388D01*
X171748776Y-55729926D02*
X167479314Y-59999388D01*
X171748776Y-54749388D02*
X171748776Y-55729926D01*
X169008776Y-52249388D02*
X168886276Y-52249388D01*
%TO.N,Board_8-Net-(U1-BOOTN)*%
X162643776Y-55364388D02*
X161998776Y-56009388D01*
X164111276Y-53249388D02*
X163496776Y-53249388D01*
X162643776Y-54102388D02*
X162643776Y-55364388D01*
X163496776Y-53249388D02*
X162643776Y-54102388D01*
%TO.N,Board_8-Net-(U1-CAP)*%
X165279329Y-55745835D02*
X165748776Y-55276388D01*
X164866014Y-55745835D02*
X165279329Y-55745835D01*
X165748776Y-55276388D02*
X165748776Y-54661888D01*
%TO.N,Board_8-Net-(U1-ENV_SCL)*%
X168748776Y-55989388D02*
X168748776Y-54661888D01*
%TO.N,Board_8-Net-(U1-ENV_SDA)*%
X170498776Y-54989388D02*
X170126276Y-54989388D01*
X170126276Y-54989388D02*
X168886276Y-53749388D01*
%TO.N,Board_9-+3.3V*%
X184248776Y-55276388D02*
X184248776Y-54661888D01*
X179998776Y-54989388D02*
X179998776Y-53749388D01*
X186748776Y-57009388D02*
X187498776Y-57009388D01*
X182748776Y-50749388D02*
X182498776Y-50499388D01*
X180998776Y-52749388D02*
X182111276Y-52749388D01*
X184498776Y-48499388D02*
X182498776Y-50499388D01*
X184248776Y-54661888D02*
X184248776Y-54047388D01*
X187498776Y-57009388D02*
X188498776Y-56009388D01*
X187248776Y-48239388D02*
X187998776Y-48239388D01*
X186748776Y-57009388D02*
X185981776Y-57009388D01*
X187998776Y-48239388D02*
X188998776Y-49239388D01*
X180998776Y-51472388D02*
X180998776Y-52749388D01*
X182498776Y-50499388D02*
X181971776Y-50499388D01*
X187248776Y-48239388D02*
X187248776Y-47499388D01*
X184248776Y-54047388D02*
X182950776Y-52749388D01*
X177498776Y-52999388D02*
X180748776Y-52999388D01*
X185981776Y-57009388D02*
X184248776Y-55276388D01*
X182748776Y-51336888D02*
X182748776Y-50749388D01*
X180748776Y-52999388D02*
X180998776Y-52749388D01*
X179998776Y-53749388D02*
X180998776Y-52749388D01*
X182950776Y-52749388D02*
X182111276Y-52749388D01*
X184998776Y-48499388D02*
X184498776Y-48499388D01*
X187248776Y-47499388D02*
X186998776Y-47249388D01*
X181971776Y-50499388D02*
X180998776Y-51472388D01*
%TO.N,Board_9-GND*%
X191498776Y-52999388D02*
X191248776Y-53249388D01*
X184248776Y-52249388D02*
X182111276Y-52249388D01*
X182248776Y-54661888D02*
X182248776Y-53886888D01*
X186886276Y-53249388D02*
X185998776Y-53249388D01*
X182248776Y-53886888D02*
X182111276Y-53749388D01*
X184248776Y-51836888D02*
X183748776Y-51336888D01*
X184248776Y-52249388D02*
X184248776Y-51836888D01*
X181906014Y-55004650D02*
X182080026Y-54830638D01*
X184748776Y-52749388D02*
X184248776Y-52249388D01*
X191248776Y-53249388D02*
X186886276Y-53249388D01*
X181906014Y-55745835D02*
X181906014Y-55004650D01*
X182080026Y-54830638D02*
X182248776Y-54661888D01*
X180998776Y-55911888D02*
X180998776Y-57249388D01*
X184748776Y-52749388D02*
X185498776Y-52749388D01*
X185498776Y-52749388D02*
X185998776Y-53249388D01*
X184248776Y-52249388D02*
X184248776Y-51336888D01*
X182080026Y-54830638D02*
X180998776Y-55911888D01*
%TO.N,Board_9-Net-(J1-Pin_1)*%
X184498776Y-45999388D02*
X184498776Y-46509388D01*
X187248776Y-50836888D02*
X186748776Y-51336888D01*
X187248776Y-49259388D02*
X187248776Y-50836888D01*
X184498776Y-46509388D02*
X187248776Y-49259388D01*
%TO.N,Board_9-Net-(J2-Pin_1)*%
X189748776Y-54749388D02*
X189748776Y-55729926D01*
X185479314Y-59999388D02*
X184498776Y-59999388D01*
X186886276Y-52249388D02*
X188498776Y-52249388D01*
X189748776Y-55729926D02*
X185479314Y-59999388D01*
X187008776Y-52249388D02*
X186886276Y-52249388D01*
X188998776Y-50259388D02*
X187008776Y-52249388D01*
%TO.N,Board_9-Net-(U1-BOOTN)*%
X182111276Y-53249388D02*
X181496776Y-53249388D01*
X181496776Y-53249388D02*
X180643776Y-54102388D01*
X180643776Y-55364388D02*
X179998776Y-56009388D01*
X180643776Y-54102388D02*
X180643776Y-55364388D01*
%TO.N,Board_9-Net-(U1-CAP)*%
X183748776Y-55276388D02*
X183748776Y-54661888D01*
X183279329Y-55745835D02*
X183748776Y-55276388D01*
X182866014Y-55745835D02*
X183279329Y-55745835D01*
%TO.N,Board_9-Net-(U1-ENV_SCL)*%
X186748776Y-55989388D02*
X186748776Y-54661888D01*
%TO.N,Board_9-Net-(U1-ENV_SDA)*%
X188498776Y-54989388D02*
X188126276Y-54989388D01*
X188126276Y-54989388D02*
X186886276Y-53749388D01*
%TO.N,Board_10-+3.3V*%
X115498776Y-75009388D02*
X116498776Y-74009388D01*
X110498776Y-68499388D02*
X109971776Y-68499388D01*
X110748776Y-69336888D02*
X110748776Y-68749388D01*
X107998776Y-72989388D02*
X107998776Y-71749388D01*
X114748776Y-75009388D02*
X115498776Y-75009388D01*
X112248776Y-72047388D02*
X110950776Y-70749388D01*
X112998776Y-66499388D02*
X112498776Y-66499388D01*
X108998776Y-70749388D02*
X110111276Y-70749388D01*
X108748776Y-70999388D02*
X108998776Y-70749388D01*
X108998776Y-69472388D02*
X108998776Y-70749388D01*
X113981776Y-75009388D02*
X112248776Y-73276388D01*
X114748776Y-75009388D02*
X113981776Y-75009388D01*
X115998776Y-66239388D02*
X116998776Y-67239388D01*
X110950776Y-70749388D02*
X110111276Y-70749388D01*
X112248776Y-73276388D02*
X112248776Y-72661888D01*
X112498776Y-66499388D02*
X110498776Y-68499388D01*
X105498776Y-70999388D02*
X108748776Y-70999388D01*
X115248776Y-65499388D02*
X114998776Y-65249388D01*
X112248776Y-72661888D02*
X112248776Y-72047388D01*
X115248776Y-66239388D02*
X115998776Y-66239388D01*
X115248776Y-66239388D02*
X115248776Y-65499388D01*
X110748776Y-68749388D02*
X110498776Y-68499388D01*
X109971776Y-68499388D02*
X108998776Y-69472388D01*
X107998776Y-71749388D02*
X108998776Y-70749388D01*
%TO.N,Board_10-GND*%
X112748776Y-70749388D02*
X112248776Y-70249388D01*
X110080026Y-72830638D02*
X110248776Y-72661888D01*
X110080026Y-72830638D02*
X108998776Y-73911888D01*
X109906014Y-73745835D02*
X109906014Y-73004650D01*
X110248776Y-71886888D02*
X110111276Y-71749388D01*
X112248776Y-69836888D02*
X111748776Y-69336888D01*
X114886276Y-71249388D02*
X113998776Y-71249388D01*
X119498776Y-70999388D02*
X119248776Y-71249388D01*
X110248776Y-72661888D02*
X110248776Y-71886888D01*
X112248776Y-70249388D02*
X112248776Y-69336888D01*
X112248776Y-70249388D02*
X110111276Y-70249388D01*
X119248776Y-71249388D02*
X114886276Y-71249388D01*
X112248776Y-70249388D02*
X112248776Y-69836888D01*
X112748776Y-70749388D02*
X113498776Y-70749388D01*
X109906014Y-73004650D02*
X110080026Y-72830638D01*
X108998776Y-73911888D02*
X108998776Y-75249388D01*
X113498776Y-70749388D02*
X113998776Y-71249388D01*
%TO.N,Board_10-Net-(J1-Pin_1)*%
X112498776Y-63999388D02*
X112498776Y-64509388D01*
X115248776Y-68836888D02*
X114748776Y-69336888D01*
X112498776Y-64509388D02*
X115248776Y-67259388D01*
X115248776Y-67259388D02*
X115248776Y-68836888D01*
%TO.N,Board_10-Net-(J2-Pin_1)*%
X113479314Y-77999388D02*
X112498776Y-77999388D01*
X117748776Y-72749388D02*
X117748776Y-73729926D01*
X116998776Y-68259388D02*
X115008776Y-70249388D01*
X117748776Y-73729926D02*
X113479314Y-77999388D01*
X115008776Y-70249388D02*
X114886276Y-70249388D01*
X114886276Y-70249388D02*
X116498776Y-70249388D01*
%TO.N,Board_10-Net-(U1-BOOTN)*%
X108643776Y-72102388D02*
X108643776Y-73364388D01*
X109496776Y-71249388D02*
X108643776Y-72102388D01*
X108643776Y-73364388D02*
X107998776Y-74009388D01*
X110111276Y-71249388D02*
X109496776Y-71249388D01*
%TO.N,Board_10-Net-(U1-CAP)*%
X111279329Y-73745835D02*
X111748776Y-73276388D01*
X110866014Y-73745835D02*
X111279329Y-73745835D01*
X111748776Y-73276388D02*
X111748776Y-72661888D01*
%TO.N,Board_10-Net-(U1-ENV_SCL)*%
X114748776Y-73989388D02*
X114748776Y-72661888D01*
%TO.N,Board_10-Net-(U1-ENV_SDA)*%
X116126276Y-72989388D02*
X114886276Y-71749388D01*
X116498776Y-72989388D02*
X116126276Y-72989388D01*
%TO.N,Board_11-+3.3V*%
X130248776Y-72661888D02*
X130248776Y-72047388D01*
X132748776Y-75009388D02*
X131981776Y-75009388D01*
X133248776Y-65499388D02*
X132998776Y-65249388D01*
X125998776Y-72989388D02*
X125998776Y-71749388D01*
X127971776Y-68499388D02*
X126998776Y-69472388D01*
X133498776Y-75009388D02*
X134498776Y-74009388D01*
X130998776Y-66499388D02*
X130498776Y-66499388D01*
X126998776Y-69472388D02*
X126998776Y-70749388D01*
X123498776Y-70999388D02*
X126748776Y-70999388D01*
X128748776Y-69336888D02*
X128748776Y-68749388D01*
X131981776Y-75009388D02*
X130248776Y-73276388D01*
X128498776Y-68499388D02*
X127971776Y-68499388D01*
X133248776Y-66239388D02*
X133998776Y-66239388D01*
X128748776Y-68749388D02*
X128498776Y-68499388D01*
X133248776Y-66239388D02*
X133248776Y-65499388D01*
X130248776Y-73276388D02*
X130248776Y-72661888D01*
X132748776Y-75009388D02*
X133498776Y-75009388D01*
X126748776Y-70999388D02*
X126998776Y-70749388D01*
X130498776Y-66499388D02*
X128498776Y-68499388D01*
X125998776Y-71749388D02*
X126998776Y-70749388D01*
X133998776Y-66239388D02*
X134998776Y-67239388D01*
X126998776Y-70749388D02*
X128111276Y-70749388D01*
X128950776Y-70749388D02*
X128111276Y-70749388D01*
X130248776Y-72047388D02*
X128950776Y-70749388D01*
%TO.N,Board_11-GND*%
X137248776Y-71249388D02*
X132886276Y-71249388D01*
X130748776Y-70749388D02*
X131498776Y-70749388D01*
X127906014Y-73004650D02*
X128080026Y-72830638D01*
X128248776Y-71886888D02*
X128111276Y-71749388D01*
X131498776Y-70749388D02*
X131998776Y-71249388D01*
X127906014Y-73745835D02*
X127906014Y-73004650D01*
X137498776Y-70999388D02*
X137248776Y-71249388D01*
X128080026Y-72830638D02*
X128248776Y-72661888D01*
X130248776Y-70249388D02*
X128111276Y-70249388D01*
X130248776Y-69836888D02*
X129748776Y-69336888D01*
X130248776Y-70249388D02*
X130248776Y-69336888D01*
X130248776Y-70249388D02*
X130248776Y-69836888D01*
X126998776Y-73911888D02*
X126998776Y-75249388D01*
X132886276Y-71249388D02*
X131998776Y-71249388D01*
X130748776Y-70749388D02*
X130248776Y-70249388D01*
X128248776Y-72661888D02*
X128248776Y-71886888D01*
X128080026Y-72830638D02*
X126998776Y-73911888D01*
%TO.N,Board_11-Net-(J1-Pin_1)*%
X133248776Y-68836888D02*
X132748776Y-69336888D01*
X133248776Y-67259388D02*
X133248776Y-68836888D01*
X130498776Y-63999388D02*
X130498776Y-64509388D01*
X130498776Y-64509388D02*
X133248776Y-67259388D01*
%TO.N,Board_11-Net-(J2-Pin_1)*%
X131479314Y-77999388D02*
X130498776Y-77999388D01*
X132886276Y-70249388D02*
X134498776Y-70249388D01*
X134998776Y-68259388D02*
X133008776Y-70249388D01*
X135748776Y-72749388D02*
X135748776Y-73729926D01*
X135748776Y-73729926D02*
X131479314Y-77999388D01*
X133008776Y-70249388D02*
X132886276Y-70249388D01*
%TO.N,Board_11-Net-(U1-BOOTN)*%
X128111276Y-71249388D02*
X127496776Y-71249388D01*
X126643776Y-72102388D02*
X126643776Y-73364388D01*
X126643776Y-73364388D02*
X125998776Y-74009388D01*
X127496776Y-71249388D02*
X126643776Y-72102388D01*
%TO.N,Board_11-Net-(U1-CAP)*%
X129279329Y-73745835D02*
X129748776Y-73276388D01*
X128866014Y-73745835D02*
X129279329Y-73745835D01*
X129748776Y-73276388D02*
X129748776Y-72661888D01*
%TO.N,Board_11-Net-(U1-ENV_SCL)*%
X132748776Y-73989388D02*
X132748776Y-72661888D01*
%TO.N,Board_11-Net-(U1-ENV_SDA)*%
X134498776Y-72989388D02*
X134126276Y-72989388D01*
X134126276Y-72989388D02*
X132886276Y-71749388D01*
%TO.N,Board_12-+3.3V*%
X148998776Y-66499388D02*
X148498776Y-66499388D01*
X149981776Y-75009388D02*
X148248776Y-73276388D01*
X148248776Y-72661888D02*
X148248776Y-72047388D01*
X146950776Y-70749388D02*
X146111276Y-70749388D01*
X148498776Y-66499388D02*
X146498776Y-68499388D01*
X144998776Y-70749388D02*
X146111276Y-70749388D01*
X144748776Y-70999388D02*
X144998776Y-70749388D01*
X150748776Y-75009388D02*
X149981776Y-75009388D01*
X146498776Y-68499388D02*
X145971776Y-68499388D01*
X141498776Y-70999388D02*
X144748776Y-70999388D01*
X146748776Y-68749388D02*
X146498776Y-68499388D01*
X151498776Y-75009388D02*
X152498776Y-74009388D01*
X151248776Y-65499388D02*
X150998776Y-65249388D01*
X148248776Y-73276388D02*
X148248776Y-72661888D01*
X151248776Y-66239388D02*
X151998776Y-66239388D01*
X148248776Y-72047388D02*
X146950776Y-70749388D01*
X151248776Y-66239388D02*
X151248776Y-65499388D01*
X143998776Y-71749388D02*
X144998776Y-70749388D01*
X150748776Y-75009388D02*
X151498776Y-75009388D01*
X146748776Y-69336888D02*
X146748776Y-68749388D01*
X145971776Y-68499388D02*
X144998776Y-69472388D01*
X143998776Y-72989388D02*
X143998776Y-71749388D01*
X144998776Y-69472388D02*
X144998776Y-70749388D01*
X151998776Y-66239388D02*
X152998776Y-67239388D01*
%TO.N,Board_12-GND*%
X146080026Y-72830638D02*
X144998776Y-73911888D01*
X155248776Y-71249388D02*
X150886276Y-71249388D01*
X146248776Y-71886888D02*
X146111276Y-71749388D01*
X148248776Y-69836888D02*
X147748776Y-69336888D01*
X146248776Y-72661888D02*
X146248776Y-71886888D01*
X144998776Y-73911888D02*
X144998776Y-75249388D01*
X145906014Y-73004650D02*
X146080026Y-72830638D01*
X148248776Y-70249388D02*
X148248776Y-69836888D01*
X150886276Y-71249388D02*
X149998776Y-71249388D01*
X148748776Y-70749388D02*
X149498776Y-70749388D01*
X148748776Y-70749388D02*
X148248776Y-70249388D01*
X148248776Y-70249388D02*
X146111276Y-70249388D01*
X146080026Y-72830638D02*
X146248776Y-72661888D01*
X149498776Y-70749388D02*
X149998776Y-71249388D01*
X145906014Y-73745835D02*
X145906014Y-73004650D01*
X148248776Y-70249388D02*
X148248776Y-69336888D01*
X155498776Y-70999388D02*
X155248776Y-71249388D01*
%TO.N,Board_12-Net-(J1-Pin_1)*%
X151248776Y-68836888D02*
X150748776Y-69336888D01*
X148498776Y-63999388D02*
X148498776Y-64509388D01*
X151248776Y-67259388D02*
X151248776Y-68836888D01*
X148498776Y-64509388D02*
X151248776Y-67259388D01*
%TO.N,Board_12-Net-(J2-Pin_1)*%
X150886276Y-70249388D02*
X152498776Y-70249388D01*
X153748776Y-73729926D02*
X149479314Y-77999388D01*
X153748776Y-72749388D02*
X153748776Y-73729926D01*
X152998776Y-68259388D02*
X151008776Y-70249388D01*
X149479314Y-77999388D02*
X148498776Y-77999388D01*
X151008776Y-70249388D02*
X150886276Y-70249388D01*
%TO.N,Board_12-Net-(U1-BOOTN)*%
X144643776Y-73364388D02*
X143998776Y-74009388D01*
X145496776Y-71249388D02*
X144643776Y-72102388D01*
X144643776Y-72102388D02*
X144643776Y-73364388D01*
X146111276Y-71249388D02*
X145496776Y-71249388D01*
%TO.N,Board_12-Net-(U1-CAP)*%
X147279329Y-73745835D02*
X147748776Y-73276388D01*
X146866014Y-73745835D02*
X147279329Y-73745835D01*
X147748776Y-73276388D02*
X147748776Y-72661888D01*
%TO.N,Board_12-Net-(U1-ENV_SCL)*%
X150748776Y-73989388D02*
X150748776Y-72661888D01*
%TO.N,Board_12-Net-(U1-ENV_SDA)*%
X152126276Y-72989388D02*
X150886276Y-71749388D01*
X152498776Y-72989388D02*
X152126276Y-72989388D01*
%TO.N,Board_13-+3.3V*%
X169498776Y-75009388D02*
X170498776Y-74009388D01*
X169998776Y-66239388D02*
X170998776Y-67239388D01*
X169248776Y-65499388D02*
X168998776Y-65249388D01*
X166248776Y-72047388D02*
X164950776Y-70749388D01*
X168748776Y-75009388D02*
X169498776Y-75009388D01*
X169248776Y-66239388D02*
X169998776Y-66239388D01*
X168748776Y-75009388D02*
X167981776Y-75009388D01*
X162998776Y-69472388D02*
X162998776Y-70749388D01*
X162748776Y-70999388D02*
X162998776Y-70749388D01*
X166248776Y-73276388D02*
X166248776Y-72661888D01*
X162998776Y-70749388D02*
X164111276Y-70749388D01*
X164950776Y-70749388D02*
X164111276Y-70749388D01*
X164498776Y-68499388D02*
X163971776Y-68499388D01*
X166498776Y-66499388D02*
X164498776Y-68499388D01*
X166998776Y-66499388D02*
X166498776Y-66499388D01*
X167981776Y-75009388D02*
X166248776Y-73276388D01*
X164748776Y-69336888D02*
X164748776Y-68749388D01*
X159498776Y-70999388D02*
X162748776Y-70999388D01*
X161998776Y-71749388D02*
X162998776Y-70749388D01*
X161998776Y-72989388D02*
X161998776Y-71749388D01*
X166248776Y-72661888D02*
X166248776Y-72047388D01*
X163971776Y-68499388D02*
X162998776Y-69472388D01*
X164748776Y-68749388D02*
X164498776Y-68499388D01*
X169248776Y-66239388D02*
X169248776Y-65499388D01*
%TO.N,Board_13-GND*%
X168886276Y-71249388D02*
X167998776Y-71249388D01*
X163906014Y-73745835D02*
X163906014Y-73004650D01*
X166248776Y-70249388D02*
X166248776Y-69336888D01*
X164080026Y-72830638D02*
X164248776Y-72661888D01*
X173498776Y-70999388D02*
X173248776Y-71249388D01*
X166248776Y-69836888D02*
X165748776Y-69336888D01*
X163906014Y-73004650D02*
X164080026Y-72830638D01*
X164080026Y-72830638D02*
X162998776Y-73911888D01*
X167498776Y-70749388D02*
X167998776Y-71249388D01*
X166248776Y-70249388D02*
X166248776Y-69836888D01*
X164248776Y-71886888D02*
X164111276Y-71749388D01*
X166748776Y-70749388D02*
X166248776Y-70249388D01*
X162998776Y-73911888D02*
X162998776Y-75249388D01*
X173248776Y-71249388D02*
X168886276Y-71249388D01*
X164248776Y-72661888D02*
X164248776Y-71886888D01*
X166248776Y-70249388D02*
X164111276Y-70249388D01*
X166748776Y-70749388D02*
X167498776Y-70749388D01*
%TO.N,Board_13-Net-(J1-Pin_1)*%
X169248776Y-67259388D02*
X169248776Y-68836888D01*
X166498776Y-63999388D02*
X166498776Y-64509388D01*
X169248776Y-68836888D02*
X168748776Y-69336888D01*
X166498776Y-64509388D02*
X169248776Y-67259388D01*
%TO.N,Board_13-Net-(J2-Pin_1)*%
X169008776Y-70249388D02*
X168886276Y-70249388D01*
X168886276Y-70249388D02*
X170498776Y-70249388D01*
X171748776Y-73729926D02*
X167479314Y-77999388D01*
X171748776Y-72749388D02*
X171748776Y-73729926D01*
X167479314Y-77999388D02*
X166498776Y-77999388D01*
X170998776Y-68259388D02*
X169008776Y-70249388D01*
%TO.N,Board_13-Net-(U1-BOOTN)*%
X163496776Y-71249388D02*
X162643776Y-72102388D01*
X162643776Y-73364388D02*
X161998776Y-74009388D01*
X162643776Y-72102388D02*
X162643776Y-73364388D01*
X164111276Y-71249388D02*
X163496776Y-71249388D01*
%TO.N,Board_13-Net-(U1-CAP)*%
X165748776Y-73276388D02*
X165748776Y-72661888D01*
X165279329Y-73745835D02*
X165748776Y-73276388D01*
X164866014Y-73745835D02*
X165279329Y-73745835D01*
%TO.N,Board_13-Net-(U1-ENV_SCL)*%
X168748776Y-73989388D02*
X168748776Y-72661888D01*
%TO.N,Board_13-Net-(U1-ENV_SDA)*%
X170126276Y-72989388D02*
X168886276Y-71749388D01*
X170498776Y-72989388D02*
X170126276Y-72989388D01*
%TO.N,Board_14-+3.3V*%
X186748776Y-75009388D02*
X187498776Y-75009388D01*
X187248776Y-66239388D02*
X187998776Y-66239388D01*
X182748776Y-68749388D02*
X182498776Y-68499388D01*
X179998776Y-72989388D02*
X179998776Y-71749388D01*
X180998776Y-70749388D02*
X182111276Y-70749388D01*
X181971776Y-68499388D02*
X180998776Y-69472388D01*
X187998776Y-66239388D02*
X188998776Y-67239388D01*
X186748776Y-75009388D02*
X185981776Y-75009388D01*
X182748776Y-69336888D02*
X182748776Y-68749388D01*
X182950776Y-70749388D02*
X182111276Y-70749388D01*
X184248776Y-72661888D02*
X184248776Y-72047388D01*
X179998776Y-71749388D02*
X180998776Y-70749388D01*
X177498776Y-70999388D02*
X180748776Y-70999388D01*
X182498776Y-68499388D02*
X181971776Y-68499388D01*
X185981776Y-75009388D02*
X184248776Y-73276388D01*
X184998776Y-66499388D02*
X184498776Y-66499388D01*
X187248776Y-66239388D02*
X187248776Y-65499388D01*
X180748776Y-70999388D02*
X180998776Y-70749388D01*
X184248776Y-72047388D02*
X182950776Y-70749388D01*
X184498776Y-66499388D02*
X182498776Y-68499388D01*
X180998776Y-69472388D02*
X180998776Y-70749388D01*
X187498776Y-75009388D02*
X188498776Y-74009388D01*
X184248776Y-73276388D02*
X184248776Y-72661888D01*
X187248776Y-65499388D02*
X186998776Y-65249388D01*
%TO.N,Board_14-GND*%
X191498776Y-70999388D02*
X191248776Y-71249388D01*
X184248776Y-70249388D02*
X182111276Y-70249388D01*
X184248776Y-69836888D02*
X183748776Y-69336888D01*
X181906014Y-73004650D02*
X182080026Y-72830638D01*
X184748776Y-70749388D02*
X185498776Y-70749388D01*
X181906014Y-73745835D02*
X181906014Y-73004650D01*
X185498776Y-70749388D02*
X185998776Y-71249388D01*
X182248776Y-72661888D02*
X182248776Y-71886888D01*
X186886276Y-71249388D02*
X185998776Y-71249388D01*
X182080026Y-72830638D02*
X182248776Y-72661888D01*
X191248776Y-71249388D02*
X186886276Y-71249388D01*
X182248776Y-71886888D02*
X182111276Y-71749388D01*
X184248776Y-70249388D02*
X184248776Y-69836888D01*
X184248776Y-70249388D02*
X184248776Y-69336888D01*
X182080026Y-72830638D02*
X180998776Y-73911888D01*
X180998776Y-73911888D02*
X180998776Y-75249388D01*
X184748776Y-70749388D02*
X184248776Y-70249388D01*
%TO.N,Board_14-Net-(J1-Pin_1)*%
X187248776Y-68836888D02*
X186748776Y-69336888D01*
X184498776Y-63999388D02*
X184498776Y-64509388D01*
X187248776Y-67259388D02*
X187248776Y-68836888D01*
X184498776Y-64509388D02*
X187248776Y-67259388D01*
%TO.N,Board_14-Net-(J2-Pin_1)*%
X186886276Y-70249388D02*
X188498776Y-70249388D01*
X188998776Y-68259388D02*
X187008776Y-70249388D01*
X187008776Y-70249388D02*
X186886276Y-70249388D01*
X189748776Y-72749388D02*
X189748776Y-73729926D01*
X185479314Y-77999388D02*
X184498776Y-77999388D01*
X189748776Y-73729926D02*
X185479314Y-77999388D01*
%TO.N,Board_14-Net-(U1-BOOTN)*%
X180643776Y-72102388D02*
X180643776Y-73364388D01*
X181496776Y-71249388D02*
X180643776Y-72102388D01*
X182111276Y-71249388D02*
X181496776Y-71249388D01*
X180643776Y-73364388D02*
X179998776Y-74009388D01*
%TO.N,Board_14-Net-(U1-CAP)*%
X183279329Y-73745835D02*
X183748776Y-73276388D01*
X182866014Y-73745835D02*
X183279329Y-73745835D01*
X183748776Y-73276388D02*
X183748776Y-72661888D01*
%TO.N,Board_14-Net-(U1-ENV_SCL)*%
X186748776Y-73989388D02*
X186748776Y-72661888D01*
%TO.N,Board_14-Net-(U1-ENV_SDA)*%
X188498776Y-72989388D02*
X188126276Y-72989388D01*
X188126276Y-72989388D02*
X186886276Y-71749388D01*
%TO.N,Board_15-+3.3V*%
X112248776Y-90661888D02*
X112248776Y-90047388D01*
X108998776Y-87472388D02*
X108998776Y-88749388D01*
X114748776Y-93009388D02*
X115498776Y-93009388D01*
X107998776Y-89749388D02*
X108998776Y-88749388D01*
X115248776Y-84239388D02*
X115998776Y-84239388D01*
X110748776Y-86749388D02*
X110498776Y-86499388D01*
X110748776Y-87336888D02*
X110748776Y-86749388D01*
X105498776Y-88999388D02*
X108748776Y-88999388D01*
X113981776Y-93009388D02*
X112248776Y-91276388D01*
X112248776Y-91276388D02*
X112248776Y-90661888D01*
X115248776Y-83499388D02*
X114998776Y-83249388D01*
X107998776Y-90989388D02*
X107998776Y-89749388D01*
X108748776Y-88999388D02*
X108998776Y-88749388D01*
X115998776Y-84239388D02*
X116998776Y-85239388D01*
X115498776Y-93009388D02*
X116498776Y-92009388D01*
X112998776Y-84499388D02*
X112498776Y-84499388D01*
X108998776Y-88749388D02*
X110111276Y-88749388D01*
X115248776Y-84239388D02*
X115248776Y-83499388D01*
X110950776Y-88749388D02*
X110111276Y-88749388D01*
X109971776Y-86499388D02*
X108998776Y-87472388D01*
X112248776Y-90047388D02*
X110950776Y-88749388D01*
X110498776Y-86499388D02*
X109971776Y-86499388D01*
X114748776Y-93009388D02*
X113981776Y-93009388D01*
X112498776Y-84499388D02*
X110498776Y-86499388D01*
%TO.N,Board_15-GND*%
X110080026Y-90830638D02*
X108998776Y-91911888D01*
X112748776Y-88749388D02*
X112248776Y-88249388D01*
X114886276Y-89249388D02*
X113998776Y-89249388D01*
X112248776Y-88249388D02*
X112248776Y-87836888D01*
X109906014Y-91745835D02*
X109906014Y-91004650D01*
X110248776Y-90661888D02*
X110248776Y-89886888D01*
X110080026Y-90830638D02*
X110248776Y-90661888D01*
X112248776Y-88249388D02*
X110111276Y-88249388D01*
X112748776Y-88749388D02*
X113498776Y-88749388D01*
X113498776Y-88749388D02*
X113998776Y-89249388D01*
X109906014Y-91004650D02*
X110080026Y-90830638D01*
X119248776Y-89249388D02*
X114886276Y-89249388D01*
X108998776Y-91911888D02*
X108998776Y-93249388D01*
X119498776Y-88999388D02*
X119248776Y-89249388D01*
X110248776Y-89886888D02*
X110111276Y-89749388D01*
X112248776Y-87836888D02*
X111748776Y-87336888D01*
X112248776Y-88249388D02*
X112248776Y-87336888D01*
%TO.N,Board_15-Net-(J1-Pin_1)*%
X112498776Y-82509388D02*
X115248776Y-85259388D01*
X115248776Y-85259388D02*
X115248776Y-86836888D01*
X112498776Y-81999388D02*
X112498776Y-82509388D01*
X115248776Y-86836888D02*
X114748776Y-87336888D01*
%TO.N,Board_15-Net-(J2-Pin_1)*%
X115008776Y-88249388D02*
X114886276Y-88249388D01*
X114886276Y-88249388D02*
X116498776Y-88249388D01*
X117748776Y-90749388D02*
X117748776Y-91729926D01*
X117748776Y-91729926D02*
X113479314Y-95999388D01*
X113479314Y-95999388D02*
X112498776Y-95999388D01*
X116998776Y-86259388D02*
X115008776Y-88249388D01*
%TO.N,Board_15-Net-(U1-BOOTN)*%
X109496776Y-89249388D02*
X108643776Y-90102388D01*
X108643776Y-90102388D02*
X108643776Y-91364388D01*
X110111276Y-89249388D02*
X109496776Y-89249388D01*
X108643776Y-91364388D02*
X107998776Y-92009388D01*
%TO.N,Board_15-Net-(U1-CAP)*%
X111748776Y-91276388D02*
X111748776Y-90661888D01*
X110866014Y-91745835D02*
X111279329Y-91745835D01*
X111279329Y-91745835D02*
X111748776Y-91276388D01*
%TO.N,Board_15-Net-(U1-ENV_SCL)*%
X114748776Y-91989388D02*
X114748776Y-90661888D01*
%TO.N,Board_15-Net-(U1-ENV_SDA)*%
X116126276Y-90989388D02*
X114886276Y-89749388D01*
X116498776Y-90989388D02*
X116126276Y-90989388D01*
%TO.N,Board_16-+3.3V*%
X125998776Y-90989388D02*
X125998776Y-89749388D01*
X130248776Y-90047388D02*
X128950776Y-88749388D01*
X130998776Y-84499388D02*
X130498776Y-84499388D01*
X131981776Y-93009388D02*
X130248776Y-91276388D01*
X126998776Y-87472388D02*
X126998776Y-88749388D01*
X133248776Y-83499388D02*
X132998776Y-83249388D01*
X128748776Y-86749388D02*
X128498776Y-86499388D01*
X133498776Y-93009388D02*
X134498776Y-92009388D01*
X133998776Y-84239388D02*
X134998776Y-85239388D01*
X128748776Y-87336888D02*
X128748776Y-86749388D01*
X133248776Y-84239388D02*
X133248776Y-83499388D01*
X123498776Y-88999388D02*
X126748776Y-88999388D01*
X128950776Y-88749388D02*
X128111276Y-88749388D01*
X127971776Y-86499388D02*
X126998776Y-87472388D01*
X130498776Y-84499388D02*
X128498776Y-86499388D01*
X133248776Y-84239388D02*
X133998776Y-84239388D01*
X130248776Y-91276388D02*
X130248776Y-90661888D01*
X126748776Y-88999388D02*
X126998776Y-88749388D01*
X128498776Y-86499388D02*
X127971776Y-86499388D01*
X132748776Y-93009388D02*
X133498776Y-93009388D01*
X132748776Y-93009388D02*
X131981776Y-93009388D01*
X126998776Y-88749388D02*
X128111276Y-88749388D01*
X125998776Y-89749388D02*
X126998776Y-88749388D01*
X130248776Y-90661888D02*
X130248776Y-90047388D01*
%TO.N,Board_16-GND*%
X137248776Y-89249388D02*
X132886276Y-89249388D01*
X132886276Y-89249388D02*
X131998776Y-89249388D01*
X130248776Y-87836888D02*
X129748776Y-87336888D01*
X128248776Y-89886888D02*
X128111276Y-89749388D01*
X130248776Y-88249388D02*
X128111276Y-88249388D01*
X128080026Y-90830638D02*
X128248776Y-90661888D01*
X130248776Y-88249388D02*
X130248776Y-87336888D01*
X130748776Y-88749388D02*
X130248776Y-88249388D01*
X127906014Y-91004650D02*
X128080026Y-90830638D01*
X131498776Y-88749388D02*
X131998776Y-89249388D01*
X128248776Y-90661888D02*
X128248776Y-89886888D01*
X130748776Y-88749388D02*
X131498776Y-88749388D01*
X130248776Y-88249388D02*
X130248776Y-87836888D01*
X127906014Y-91745835D02*
X127906014Y-91004650D01*
X126998776Y-91911888D02*
X126998776Y-93249388D01*
X128080026Y-90830638D02*
X126998776Y-91911888D01*
X137498776Y-88999388D02*
X137248776Y-89249388D01*
%TO.N,Board_16-Net-(J1-Pin_1)*%
X130498776Y-82509388D02*
X133248776Y-85259388D01*
X133248776Y-85259388D02*
X133248776Y-86836888D01*
X133248776Y-86836888D02*
X132748776Y-87336888D01*
X130498776Y-81999388D02*
X130498776Y-82509388D01*
%TO.N,Board_16-Net-(J2-Pin_1)*%
X131479314Y-95999388D02*
X130498776Y-95999388D01*
X133008776Y-88249388D02*
X132886276Y-88249388D01*
X135748776Y-91729926D02*
X131479314Y-95999388D01*
X134998776Y-86259388D02*
X133008776Y-88249388D01*
X132886276Y-88249388D02*
X134498776Y-88249388D01*
X135748776Y-90749388D02*
X135748776Y-91729926D01*
%TO.N,Board_16-Net-(U1-BOOTN)*%
X127496776Y-89249388D02*
X126643776Y-90102388D01*
X126643776Y-91364388D02*
X125998776Y-92009388D01*
X126643776Y-90102388D02*
X126643776Y-91364388D01*
X128111276Y-89249388D02*
X127496776Y-89249388D01*
%TO.N,Board_16-Net-(U1-CAP)*%
X129279329Y-91745835D02*
X129748776Y-91276388D01*
X129748776Y-91276388D02*
X129748776Y-90661888D01*
X128866014Y-91745835D02*
X129279329Y-91745835D01*
%TO.N,Board_16-Net-(U1-ENV_SCL)*%
X132748776Y-91989388D02*
X132748776Y-90661888D01*
%TO.N,Board_16-Net-(U1-ENV_SDA)*%
X134498776Y-90989388D02*
X134126276Y-90989388D01*
X134126276Y-90989388D02*
X132886276Y-89749388D01*
%TO.N,Board_17-+3.3V*%
X149981776Y-93009388D02*
X148248776Y-91276388D01*
X150748776Y-93009388D02*
X149981776Y-93009388D01*
X146748776Y-86749388D02*
X146498776Y-86499388D01*
X148498776Y-84499388D02*
X146498776Y-86499388D01*
X146950776Y-88749388D02*
X146111276Y-88749388D01*
X151248776Y-84239388D02*
X151248776Y-83499388D01*
X151498776Y-93009388D02*
X152498776Y-92009388D01*
X150748776Y-93009388D02*
X151498776Y-93009388D01*
X148248776Y-90661888D02*
X148248776Y-90047388D01*
X148998776Y-84499388D02*
X148498776Y-84499388D01*
X148248776Y-90047388D02*
X146950776Y-88749388D01*
X146498776Y-86499388D02*
X145971776Y-86499388D01*
X143998776Y-89749388D02*
X144998776Y-88749388D01*
X151248776Y-83499388D02*
X150998776Y-83249388D01*
X143998776Y-90989388D02*
X143998776Y-89749388D01*
X141498776Y-88999388D02*
X144748776Y-88999388D01*
X144748776Y-88999388D02*
X144998776Y-88749388D01*
X146748776Y-87336888D02*
X146748776Y-86749388D01*
X145971776Y-86499388D02*
X144998776Y-87472388D01*
X144998776Y-87472388D02*
X144998776Y-88749388D01*
X148248776Y-91276388D02*
X148248776Y-90661888D01*
X151248776Y-84239388D02*
X151998776Y-84239388D01*
X144998776Y-88749388D02*
X146111276Y-88749388D01*
X151998776Y-84239388D02*
X152998776Y-85239388D01*
%TO.N,Board_17-GND*%
X148248776Y-87836888D02*
X147748776Y-87336888D01*
X148748776Y-88749388D02*
X149498776Y-88749388D01*
X148248776Y-88249388D02*
X146111276Y-88249388D01*
X145906014Y-91745835D02*
X145906014Y-91004650D01*
X150886276Y-89249388D02*
X149998776Y-89249388D01*
X155498776Y-88999388D02*
X155248776Y-89249388D01*
X144998776Y-91911888D02*
X144998776Y-93249388D01*
X148248776Y-88249388D02*
X148248776Y-87836888D01*
X146080026Y-90830638D02*
X144998776Y-91911888D01*
X145906014Y-91004650D02*
X146080026Y-90830638D01*
X146080026Y-90830638D02*
X146248776Y-90661888D01*
X148248776Y-88249388D02*
X148248776Y-87336888D01*
X146248776Y-89886888D02*
X146111276Y-89749388D01*
X146248776Y-90661888D02*
X146248776Y-89886888D01*
X155248776Y-89249388D02*
X150886276Y-89249388D01*
X148748776Y-88749388D02*
X148248776Y-88249388D01*
X149498776Y-88749388D02*
X149998776Y-89249388D01*
%TO.N,Board_17-Net-(J1-Pin_1)*%
X148498776Y-82509388D02*
X151248776Y-85259388D01*
X148498776Y-81999388D02*
X148498776Y-82509388D01*
X151248776Y-85259388D02*
X151248776Y-86836888D01*
X151248776Y-86836888D02*
X150748776Y-87336888D01*
%TO.N,Board_17-Net-(J2-Pin_1)*%
X151008776Y-88249388D02*
X150886276Y-88249388D01*
X153748776Y-91729926D02*
X149479314Y-95999388D01*
X152998776Y-86259388D02*
X151008776Y-88249388D01*
X153748776Y-90749388D02*
X153748776Y-91729926D01*
X150886276Y-88249388D02*
X152498776Y-88249388D01*
X149479314Y-95999388D02*
X148498776Y-95999388D01*
%TO.N,Board_17-Net-(U1-BOOTN)*%
X144643776Y-90102388D02*
X144643776Y-91364388D01*
X145496776Y-89249388D02*
X144643776Y-90102388D01*
X146111276Y-89249388D02*
X145496776Y-89249388D01*
X144643776Y-91364388D02*
X143998776Y-92009388D01*
%TO.N,Board_17-Net-(U1-CAP)*%
X147279329Y-91745835D02*
X147748776Y-91276388D01*
X147748776Y-91276388D02*
X147748776Y-90661888D01*
X146866014Y-91745835D02*
X147279329Y-91745835D01*
%TO.N,Board_17-Net-(U1-ENV_SCL)*%
X150748776Y-91989388D02*
X150748776Y-90661888D01*
%TO.N,Board_17-Net-(U1-ENV_SDA)*%
X152126276Y-90989388D02*
X150886276Y-89749388D01*
X152498776Y-90989388D02*
X152126276Y-90989388D01*
%TO.N,Board_18-+3.3V*%
X169248776Y-83499388D02*
X168998776Y-83249388D01*
X161998776Y-89749388D02*
X162998776Y-88749388D01*
X164950776Y-88749388D02*
X164111276Y-88749388D01*
X168748776Y-93009388D02*
X169498776Y-93009388D01*
X164748776Y-87336888D02*
X164748776Y-86749388D01*
X162998776Y-87472388D02*
X162998776Y-88749388D01*
X169998776Y-84239388D02*
X170998776Y-85239388D01*
X169248776Y-84239388D02*
X169998776Y-84239388D01*
X162998776Y-88749388D02*
X164111276Y-88749388D01*
X169248776Y-84239388D02*
X169248776Y-83499388D01*
X161998776Y-90989388D02*
X161998776Y-89749388D01*
X162748776Y-88999388D02*
X162998776Y-88749388D01*
X164748776Y-86749388D02*
X164498776Y-86499388D01*
X166498776Y-84499388D02*
X164498776Y-86499388D01*
X169498776Y-93009388D02*
X170498776Y-92009388D01*
X163971776Y-86499388D02*
X162998776Y-87472388D01*
X168748776Y-93009388D02*
X167981776Y-93009388D01*
X166248776Y-90047388D02*
X164950776Y-88749388D01*
X166248776Y-90661888D02*
X166248776Y-90047388D01*
X164498776Y-86499388D02*
X163971776Y-86499388D01*
X166998776Y-84499388D02*
X166498776Y-84499388D01*
X166248776Y-91276388D02*
X166248776Y-90661888D01*
X167981776Y-93009388D02*
X166248776Y-91276388D01*
X159498776Y-88999388D02*
X162748776Y-88999388D01*
%TO.N,Board_18-GND*%
X166248776Y-88249388D02*
X164111276Y-88249388D01*
X168886276Y-89249388D02*
X167998776Y-89249388D01*
X164248776Y-89886888D02*
X164111276Y-89749388D01*
X173248776Y-89249388D02*
X168886276Y-89249388D01*
X167498776Y-88749388D02*
X167998776Y-89249388D01*
X164248776Y-90661888D02*
X164248776Y-89886888D01*
X173498776Y-88999388D02*
X173248776Y-89249388D01*
X162998776Y-91911888D02*
X162998776Y-93249388D01*
X166248776Y-87836888D02*
X165748776Y-87336888D01*
X163906014Y-91745835D02*
X163906014Y-91004650D01*
X164080026Y-90830638D02*
X162998776Y-91911888D01*
X166248776Y-88249388D02*
X166248776Y-87336888D01*
X164080026Y-90830638D02*
X164248776Y-90661888D01*
X166248776Y-88249388D02*
X166248776Y-87836888D01*
X166748776Y-88749388D02*
X166248776Y-88249388D01*
X163906014Y-91004650D02*
X164080026Y-90830638D01*
X166748776Y-88749388D02*
X167498776Y-88749388D01*
%TO.N,Board_18-Net-(J1-Pin_1)*%
X166498776Y-82509388D02*
X169248776Y-85259388D01*
X166498776Y-81999388D02*
X166498776Y-82509388D01*
X169248776Y-86836888D02*
X168748776Y-87336888D01*
X169248776Y-85259388D02*
X169248776Y-86836888D01*
%TO.N,Board_18-Net-(J2-Pin_1)*%
X167479314Y-95999388D02*
X166498776Y-95999388D01*
X171748776Y-90749388D02*
X171748776Y-91729926D01*
X171748776Y-91729926D02*
X167479314Y-95999388D01*
X170998776Y-86259388D02*
X169008776Y-88249388D01*
X169008776Y-88249388D02*
X168886276Y-88249388D01*
X168886276Y-88249388D02*
X170498776Y-88249388D01*
%TO.N,Board_18-Net-(U1-BOOTN)*%
X162643776Y-90102388D02*
X162643776Y-91364388D01*
X164111276Y-89249388D02*
X163496776Y-89249388D01*
X163496776Y-89249388D02*
X162643776Y-90102388D01*
X162643776Y-91364388D02*
X161998776Y-92009388D01*
%TO.N,Board_18-Net-(U1-CAP)*%
X164866014Y-91745835D02*
X165279329Y-91745835D01*
X165279329Y-91745835D02*
X165748776Y-91276388D01*
X165748776Y-91276388D02*
X165748776Y-90661888D01*
%TO.N,Board_18-Net-(U1-ENV_SCL)*%
X168748776Y-91989388D02*
X168748776Y-90661888D01*
%TO.N,Board_18-Net-(U1-ENV_SDA)*%
X170126276Y-90989388D02*
X168886276Y-89749388D01*
X170498776Y-90989388D02*
X170126276Y-90989388D01*
%TO.N,Board_19-+3.3V*%
X187498776Y-93009388D02*
X188498776Y-92009388D01*
X179998776Y-90989388D02*
X179998776Y-89749388D01*
X184998776Y-84499388D02*
X184498776Y-84499388D01*
X184248776Y-90047388D02*
X182950776Y-88749388D01*
X187248776Y-83499388D02*
X186998776Y-83249388D01*
X186748776Y-93009388D02*
X187498776Y-93009388D01*
X184248776Y-91276388D02*
X184248776Y-90661888D01*
X180998776Y-88749388D02*
X182111276Y-88749388D01*
X180998776Y-87472388D02*
X180998776Y-88749388D01*
X187248776Y-84239388D02*
X187248776Y-83499388D01*
X187998776Y-84239388D02*
X188998776Y-85239388D01*
X180748776Y-88999388D02*
X180998776Y-88749388D01*
X186748776Y-93009388D02*
X185981776Y-93009388D01*
X179998776Y-89749388D02*
X180998776Y-88749388D01*
X182498776Y-86499388D02*
X181971776Y-86499388D01*
X184248776Y-90661888D02*
X184248776Y-90047388D01*
X182950776Y-88749388D02*
X182111276Y-88749388D01*
X177498776Y-88999388D02*
X180748776Y-88999388D01*
X182748776Y-87336888D02*
X182748776Y-86749388D01*
X181971776Y-86499388D02*
X180998776Y-87472388D01*
X184498776Y-84499388D02*
X182498776Y-86499388D01*
X182748776Y-86749388D02*
X182498776Y-86499388D01*
X185981776Y-93009388D02*
X184248776Y-91276388D01*
X187248776Y-84239388D02*
X187998776Y-84239388D01*
%TO.N,Board_19-GND*%
X182248776Y-90661888D02*
X182248776Y-89886888D01*
X185498776Y-88749388D02*
X185998776Y-89249388D01*
X180998776Y-91911888D02*
X180998776Y-93249388D01*
X184248776Y-87836888D02*
X183748776Y-87336888D01*
X182248776Y-89886888D02*
X182111276Y-89749388D01*
X182080026Y-90830638D02*
X180998776Y-91911888D01*
X182080026Y-90830638D02*
X182248776Y-90661888D01*
X184248776Y-88249388D02*
X182111276Y-88249388D01*
X184248776Y-88249388D02*
X184248776Y-87836888D01*
X191498776Y-88999388D02*
X191248776Y-89249388D01*
X181906014Y-91745835D02*
X181906014Y-91004650D01*
X184248776Y-88249388D02*
X184248776Y-87336888D01*
X191248776Y-89249388D02*
X186886276Y-89249388D01*
X184748776Y-88749388D02*
X184248776Y-88249388D01*
X186886276Y-89249388D02*
X185998776Y-89249388D01*
X184748776Y-88749388D02*
X185498776Y-88749388D01*
X181906014Y-91004650D02*
X182080026Y-90830638D01*
%TO.N,Board_19-Net-(J1-Pin_1)*%
X184498776Y-82509388D02*
X187248776Y-85259388D01*
X187248776Y-86836888D02*
X186748776Y-87336888D01*
X187248776Y-85259388D02*
X187248776Y-86836888D01*
X184498776Y-81999388D02*
X184498776Y-82509388D01*
%TO.N,Board_19-Net-(J2-Pin_1)*%
X188998776Y-86259388D02*
X187008776Y-88249388D01*
X189748776Y-90749388D02*
X189748776Y-91729926D01*
X187008776Y-88249388D02*
X186886276Y-88249388D01*
X186886276Y-88249388D02*
X188498776Y-88249388D01*
X185479314Y-95999388D02*
X184498776Y-95999388D01*
X189748776Y-91729926D02*
X185479314Y-95999388D01*
%TO.N,Board_19-Net-(U1-BOOTN)*%
X182111276Y-89249388D02*
X181496776Y-89249388D01*
X180643776Y-91364388D02*
X179998776Y-92009388D01*
X180643776Y-90102388D02*
X180643776Y-91364388D01*
X181496776Y-89249388D02*
X180643776Y-90102388D01*
%TO.N,Board_19-Net-(U1-CAP)*%
X183748776Y-91276388D02*
X183748776Y-90661888D01*
X183279329Y-91745835D02*
X183748776Y-91276388D01*
X182866014Y-91745835D02*
X183279329Y-91745835D01*
%TO.N,Board_19-Net-(U1-ENV_SCL)*%
X186748776Y-91989388D02*
X186748776Y-90661888D01*
%TO.N,Board_19-Net-(U1-ENV_SDA)*%
X188126276Y-90989388D02*
X186886276Y-89749388D01*
X188498776Y-90989388D02*
X188126276Y-90989388D01*
%TO.N,Board_20-+3.3V*%
X110748776Y-104749388D02*
X110498776Y-104499388D01*
X115248776Y-102239388D02*
X115998776Y-102239388D01*
X107998776Y-108989388D02*
X107998776Y-107749388D01*
X108998776Y-106749388D02*
X110111276Y-106749388D01*
X105498776Y-106999388D02*
X108748776Y-106999388D01*
X112248776Y-108661888D02*
X112248776Y-108047388D01*
X113981776Y-111009388D02*
X112248776Y-109276388D01*
X115248776Y-102239388D02*
X115248776Y-101499388D01*
X107998776Y-107749388D02*
X108998776Y-106749388D01*
X115248776Y-101499388D02*
X114998776Y-101249388D01*
X114748776Y-111009388D02*
X115498776Y-111009388D01*
X115998776Y-102239388D02*
X116998776Y-103239388D01*
X112498776Y-102499388D02*
X110498776Y-104499388D01*
X109971776Y-104499388D02*
X108998776Y-105472388D01*
X110748776Y-105336888D02*
X110748776Y-104749388D01*
X110498776Y-104499388D02*
X109971776Y-104499388D01*
X112998776Y-102499388D02*
X112498776Y-102499388D01*
X114748776Y-111009388D02*
X113981776Y-111009388D01*
X108998776Y-105472388D02*
X108998776Y-106749388D01*
X112248776Y-108047388D02*
X110950776Y-106749388D01*
X112248776Y-109276388D02*
X112248776Y-108661888D01*
X110950776Y-106749388D02*
X110111276Y-106749388D01*
X115498776Y-111009388D02*
X116498776Y-110009388D01*
X108748776Y-106999388D02*
X108998776Y-106749388D01*
%TO.N,Board_20-GND*%
X112248776Y-106249388D02*
X112248776Y-105336888D01*
X112248776Y-106249388D02*
X110111276Y-106249388D01*
X114886276Y-107249388D02*
X113998776Y-107249388D01*
X112748776Y-106749388D02*
X112248776Y-106249388D01*
X110080026Y-108830638D02*
X108998776Y-109911888D01*
X110080026Y-108830638D02*
X110248776Y-108661888D01*
X109906014Y-109745835D02*
X109906014Y-109004650D01*
X110248776Y-107886888D02*
X110111276Y-107749388D01*
X112748776Y-106749388D02*
X113498776Y-106749388D01*
X119248776Y-107249388D02*
X114886276Y-107249388D01*
X113498776Y-106749388D02*
X113998776Y-107249388D01*
X109906014Y-109004650D02*
X110080026Y-108830638D01*
X112248776Y-106249388D02*
X112248776Y-105836888D01*
X108998776Y-109911888D02*
X108998776Y-111249388D01*
X119498776Y-106999388D02*
X119248776Y-107249388D01*
X110248776Y-108661888D02*
X110248776Y-107886888D01*
X112248776Y-105836888D02*
X111748776Y-105336888D01*
%TO.N,Board_20-Net-(J1-Pin_1)*%
X112498776Y-100509388D02*
X115248776Y-103259388D01*
X115248776Y-104836888D02*
X114748776Y-105336888D01*
X112498776Y-99999388D02*
X112498776Y-100509388D01*
X115248776Y-103259388D02*
X115248776Y-104836888D01*
%TO.N,Board_20-Net-(J2-Pin_1)*%
X115008776Y-106249388D02*
X114886276Y-106249388D01*
X117748776Y-109729926D02*
X113479314Y-113999388D01*
X113479314Y-113999388D02*
X112498776Y-113999388D01*
X116998776Y-104259388D02*
X115008776Y-106249388D01*
X114886276Y-106249388D02*
X116498776Y-106249388D01*
X117748776Y-108749388D02*
X117748776Y-109729926D01*
%TO.N,Board_20-Net-(U1-BOOTN)*%
X108643776Y-109364388D02*
X107998776Y-110009388D01*
X109496776Y-107249388D02*
X108643776Y-108102388D01*
X110111276Y-107249388D02*
X109496776Y-107249388D01*
X108643776Y-108102388D02*
X108643776Y-109364388D01*
%TO.N,Board_20-Net-(U1-CAP)*%
X111748776Y-109276388D02*
X111748776Y-108661888D01*
X111279329Y-109745835D02*
X111748776Y-109276388D01*
X110866014Y-109745835D02*
X111279329Y-109745835D01*
%TO.N,Board_20-Net-(U1-ENV_SCL)*%
X114748776Y-109989388D02*
X114748776Y-108661888D01*
%TO.N,Board_20-Net-(U1-ENV_SDA)*%
X116498776Y-108989388D02*
X116126276Y-108989388D01*
X116126276Y-108989388D02*
X114886276Y-107749388D01*
%TO.N,Board_21-+3.3V*%
X132748776Y-111009388D02*
X133498776Y-111009388D01*
X128748776Y-105336888D02*
X128748776Y-104749388D01*
X126998776Y-106749388D02*
X128111276Y-106749388D01*
X130248776Y-108661888D02*
X130248776Y-108047388D01*
X127971776Y-104499388D02*
X126998776Y-105472388D01*
X125998776Y-108989388D02*
X125998776Y-107749388D01*
X133498776Y-111009388D02*
X134498776Y-110009388D01*
X130248776Y-108047388D02*
X128950776Y-106749388D01*
X130998776Y-102499388D02*
X130498776Y-102499388D01*
X133248776Y-101499388D02*
X132998776Y-101249388D01*
X130498776Y-102499388D02*
X128498776Y-104499388D01*
X130248776Y-109276388D02*
X130248776Y-108661888D01*
X128950776Y-106749388D02*
X128111276Y-106749388D01*
X131981776Y-111009388D02*
X130248776Y-109276388D01*
X123498776Y-106999388D02*
X126748776Y-106999388D01*
X126998776Y-105472388D02*
X126998776Y-106749388D01*
X132748776Y-111009388D02*
X131981776Y-111009388D01*
X128748776Y-104749388D02*
X128498776Y-104499388D01*
X133998776Y-102239388D02*
X134998776Y-103239388D01*
X133248776Y-102239388D02*
X133998776Y-102239388D01*
X126748776Y-106999388D02*
X126998776Y-106749388D01*
X128498776Y-104499388D02*
X127971776Y-104499388D01*
X133248776Y-102239388D02*
X133248776Y-101499388D01*
X125998776Y-107749388D02*
X126998776Y-106749388D01*
%TO.N,Board_21-GND*%
X130248776Y-105836888D02*
X129748776Y-105336888D01*
X137498776Y-106999388D02*
X137248776Y-107249388D01*
X128248776Y-107886888D02*
X128111276Y-107749388D01*
X130248776Y-106249388D02*
X130248776Y-105336888D01*
X130748776Y-106749388D02*
X130248776Y-106249388D01*
X127906014Y-109745835D02*
X127906014Y-109004650D01*
X130248776Y-106249388D02*
X128111276Y-106249388D01*
X126998776Y-109911888D02*
X126998776Y-111249388D01*
X132886276Y-107249388D02*
X131998776Y-107249388D01*
X137248776Y-107249388D02*
X132886276Y-107249388D01*
X127906014Y-109004650D02*
X128080026Y-108830638D01*
X130748776Y-106749388D02*
X131498776Y-106749388D01*
X131498776Y-106749388D02*
X131998776Y-107249388D01*
X128080026Y-108830638D02*
X128248776Y-108661888D01*
X128080026Y-108830638D02*
X126998776Y-109911888D01*
X128248776Y-108661888D02*
X128248776Y-107886888D01*
X130248776Y-106249388D02*
X130248776Y-105836888D01*
%TO.N,Board_21-Net-(J1-Pin_1)*%
X133248776Y-103259388D02*
X133248776Y-104836888D01*
X133248776Y-104836888D02*
X132748776Y-105336888D01*
X130498776Y-99999388D02*
X130498776Y-100509388D01*
X130498776Y-100509388D02*
X133248776Y-103259388D01*
%TO.N,Board_21-Net-(J2-Pin_1)*%
X131479314Y-113999388D02*
X130498776Y-113999388D01*
X135748776Y-109729926D02*
X131479314Y-113999388D01*
X135748776Y-108749388D02*
X135748776Y-109729926D01*
X132886276Y-106249388D02*
X134498776Y-106249388D01*
X134998776Y-104259388D02*
X133008776Y-106249388D01*
X133008776Y-106249388D02*
X132886276Y-106249388D01*
%TO.N,Board_21-Net-(U1-BOOTN)*%
X126643776Y-108102388D02*
X126643776Y-109364388D01*
X127496776Y-107249388D02*
X126643776Y-108102388D01*
X126643776Y-109364388D02*
X125998776Y-110009388D01*
X128111276Y-107249388D02*
X127496776Y-107249388D01*
%TO.N,Board_21-Net-(U1-CAP)*%
X128866014Y-109745835D02*
X129279329Y-109745835D01*
X129279329Y-109745835D02*
X129748776Y-109276388D01*
X129748776Y-109276388D02*
X129748776Y-108661888D01*
%TO.N,Board_21-Net-(U1-ENV_SCL)*%
X132748776Y-109989388D02*
X132748776Y-108661888D01*
%TO.N,Board_21-Net-(U1-ENV_SDA)*%
X134126276Y-108989388D02*
X132886276Y-107749388D01*
X134498776Y-108989388D02*
X134126276Y-108989388D01*
%TO.N,Board_22-+3.3V*%
X144748776Y-106999388D02*
X144998776Y-106749388D01*
X151248776Y-102239388D02*
X151248776Y-101499388D01*
X144998776Y-105472388D02*
X144998776Y-106749388D01*
X145971776Y-104499388D02*
X144998776Y-105472388D01*
X146950776Y-106749388D02*
X146111276Y-106749388D01*
X151248776Y-102239388D02*
X151998776Y-102239388D01*
X143998776Y-108989388D02*
X143998776Y-107749388D01*
X148248776Y-109276388D02*
X148248776Y-108661888D01*
X151248776Y-101499388D02*
X150998776Y-101249388D01*
X151998776Y-102239388D02*
X152998776Y-103239388D01*
X148998776Y-102499388D02*
X148498776Y-102499388D01*
X150748776Y-111009388D02*
X149981776Y-111009388D01*
X144998776Y-106749388D02*
X146111276Y-106749388D01*
X143998776Y-107749388D02*
X144998776Y-106749388D01*
X150748776Y-111009388D02*
X151498776Y-111009388D01*
X151498776Y-111009388D02*
X152498776Y-110009388D01*
X146748776Y-105336888D02*
X146748776Y-104749388D01*
X148498776Y-102499388D02*
X146498776Y-104499388D01*
X146498776Y-104499388D02*
X145971776Y-104499388D01*
X148248776Y-108047388D02*
X146950776Y-106749388D01*
X141498776Y-106999388D02*
X144748776Y-106999388D01*
X149981776Y-111009388D02*
X148248776Y-109276388D01*
X148248776Y-108661888D02*
X148248776Y-108047388D01*
X146748776Y-104749388D02*
X146498776Y-104499388D01*
%TO.N,Board_22-GND*%
X146080026Y-108830638D02*
X144998776Y-109911888D01*
X148248776Y-106249388D02*
X148248776Y-105336888D01*
X146248776Y-108661888D02*
X146248776Y-107886888D01*
X155498776Y-106999388D02*
X155248776Y-107249388D01*
X146080026Y-108830638D02*
X146248776Y-108661888D01*
X148748776Y-106749388D02*
X148248776Y-106249388D01*
X144998776Y-109911888D02*
X144998776Y-111249388D01*
X145906014Y-109745835D02*
X145906014Y-109004650D01*
X148248776Y-106249388D02*
X148248776Y-105836888D01*
X150886276Y-107249388D02*
X149998776Y-107249388D01*
X148248776Y-105836888D02*
X147748776Y-105336888D01*
X146248776Y-107886888D02*
X146111276Y-107749388D01*
X148248776Y-106249388D02*
X146111276Y-106249388D01*
X145906014Y-109004650D02*
X146080026Y-108830638D01*
X149498776Y-106749388D02*
X149998776Y-107249388D01*
X155248776Y-107249388D02*
X150886276Y-107249388D01*
X148748776Y-106749388D02*
X149498776Y-106749388D01*
%TO.N,Board_22-Net-(J1-Pin_1)*%
X151248776Y-103259388D02*
X151248776Y-104836888D01*
X148498776Y-100509388D02*
X151248776Y-103259388D01*
X151248776Y-104836888D02*
X150748776Y-105336888D01*
X148498776Y-99999388D02*
X148498776Y-100509388D01*
%TO.N,Board_22-Net-(J2-Pin_1)*%
X153748776Y-108749388D02*
X153748776Y-109729926D01*
X153748776Y-109729926D02*
X149479314Y-113999388D01*
X149479314Y-113999388D02*
X148498776Y-113999388D01*
X151008776Y-106249388D02*
X150886276Y-106249388D01*
X152998776Y-104259388D02*
X151008776Y-106249388D01*
X150886276Y-106249388D02*
X152498776Y-106249388D01*
%TO.N,Board_22-Net-(U1-BOOTN)*%
X144643776Y-108102388D02*
X144643776Y-109364388D01*
X144643776Y-109364388D02*
X143998776Y-110009388D01*
X146111276Y-107249388D02*
X145496776Y-107249388D01*
X145496776Y-107249388D02*
X144643776Y-108102388D01*
%TO.N,Board_22-Net-(U1-CAP)*%
X146866014Y-109745835D02*
X147279329Y-109745835D01*
X147748776Y-109276388D02*
X147748776Y-108661888D01*
X147279329Y-109745835D02*
X147748776Y-109276388D01*
%TO.N,Board_22-Net-(U1-ENV_SCL)*%
X150748776Y-109989388D02*
X150748776Y-108661888D01*
%TO.N,Board_22-Net-(U1-ENV_SDA)*%
X152498776Y-108989388D02*
X152126276Y-108989388D01*
X152126276Y-108989388D02*
X150886276Y-107749388D01*
%TO.N,Board_23-+3.3V*%
X166998776Y-102499388D02*
X166498776Y-102499388D01*
X166248776Y-109276388D02*
X166248776Y-108661888D01*
X166498776Y-102499388D02*
X164498776Y-104499388D01*
X163971776Y-104499388D02*
X162998776Y-105472388D01*
X162998776Y-105472388D02*
X162998776Y-106749388D01*
X167981776Y-111009388D02*
X166248776Y-109276388D01*
X164498776Y-104499388D02*
X163971776Y-104499388D01*
X166248776Y-108661888D02*
X166248776Y-108047388D01*
X168748776Y-111009388D02*
X167981776Y-111009388D01*
X169998776Y-102239388D02*
X170998776Y-103239388D01*
X164950776Y-106749388D02*
X164111276Y-106749388D01*
X161998776Y-107749388D02*
X162998776Y-106749388D01*
X169498776Y-111009388D02*
X170498776Y-110009388D01*
X162748776Y-106999388D02*
X162998776Y-106749388D01*
X161998776Y-108989388D02*
X161998776Y-107749388D01*
X169248776Y-102239388D02*
X169248776Y-101499388D01*
X164748776Y-105336888D02*
X164748776Y-104749388D01*
X162998776Y-106749388D02*
X164111276Y-106749388D01*
X168748776Y-111009388D02*
X169498776Y-111009388D01*
X164748776Y-104749388D02*
X164498776Y-104499388D01*
X159498776Y-106999388D02*
X162748776Y-106999388D01*
X169248776Y-102239388D02*
X169998776Y-102239388D01*
X166248776Y-108047388D02*
X164950776Y-106749388D01*
X169248776Y-101499388D02*
X168998776Y-101249388D01*
%TO.N,Board_23-GND*%
X166248776Y-106249388D02*
X166248776Y-105836888D01*
X167498776Y-106749388D02*
X167998776Y-107249388D01*
X166248776Y-105836888D02*
X165748776Y-105336888D01*
X166248776Y-106249388D02*
X164111276Y-106249388D01*
X164080026Y-108830638D02*
X164248776Y-108661888D01*
X173498776Y-106999388D02*
X173248776Y-107249388D01*
X173248776Y-107249388D02*
X168886276Y-107249388D01*
X164248776Y-107886888D02*
X164111276Y-107749388D01*
X166748776Y-106749388D02*
X167498776Y-106749388D01*
X166248776Y-106249388D02*
X166248776Y-105336888D01*
X164248776Y-108661888D02*
X164248776Y-107886888D01*
X168886276Y-107249388D02*
X167998776Y-107249388D01*
X163906014Y-109004650D02*
X164080026Y-108830638D01*
X164080026Y-108830638D02*
X162998776Y-109911888D01*
X162998776Y-109911888D02*
X162998776Y-111249388D01*
X166748776Y-106749388D02*
X166248776Y-106249388D01*
X163906014Y-109745835D02*
X163906014Y-109004650D01*
%TO.N,Board_23-Net-(J1-Pin_1)*%
X169248776Y-103259388D02*
X169248776Y-104836888D01*
X166498776Y-100509388D02*
X169248776Y-103259388D01*
X166498776Y-99999388D02*
X166498776Y-100509388D01*
X169248776Y-104836888D02*
X168748776Y-105336888D01*
%TO.N,Board_23-Net-(J2-Pin_1)*%
X168886276Y-106249388D02*
X170498776Y-106249388D01*
X170998776Y-104259388D02*
X169008776Y-106249388D01*
X171748776Y-109729926D02*
X167479314Y-113999388D01*
X169008776Y-106249388D02*
X168886276Y-106249388D01*
X171748776Y-108749388D02*
X171748776Y-109729926D01*
X167479314Y-113999388D02*
X166498776Y-113999388D01*
%TO.N,Board_23-Net-(U1-BOOTN)*%
X162643776Y-109364388D02*
X161998776Y-110009388D01*
X163496776Y-107249388D02*
X162643776Y-108102388D01*
X162643776Y-108102388D02*
X162643776Y-109364388D01*
X164111276Y-107249388D02*
X163496776Y-107249388D01*
%TO.N,Board_23-Net-(U1-CAP)*%
X165279329Y-109745835D02*
X165748776Y-109276388D01*
X164866014Y-109745835D02*
X165279329Y-109745835D01*
X165748776Y-109276388D02*
X165748776Y-108661888D01*
%TO.N,Board_23-Net-(U1-ENV_SCL)*%
X168748776Y-109989388D02*
X168748776Y-108661888D01*
%TO.N,Board_23-Net-(U1-ENV_SDA)*%
X170126276Y-108989388D02*
X168886276Y-107749388D01*
X170498776Y-108989388D02*
X170126276Y-108989388D01*
%TO.N,Board_24-+3.3V*%
X184248776Y-108661888D02*
X184248776Y-108047388D01*
X182748776Y-104749388D02*
X182498776Y-104499388D01*
X185981776Y-111009388D02*
X184248776Y-109276388D01*
X187248776Y-102239388D02*
X187998776Y-102239388D01*
X179998776Y-108989388D02*
X179998776Y-107749388D01*
X184248776Y-108047388D02*
X182950776Y-106749388D01*
X184248776Y-109276388D02*
X184248776Y-108661888D01*
X180998776Y-105472388D02*
X180998776Y-106749388D01*
X180998776Y-106749388D02*
X182111276Y-106749388D01*
X186748776Y-111009388D02*
X185981776Y-111009388D01*
X187248776Y-101499388D02*
X186998776Y-101249388D01*
X187998776Y-102239388D02*
X188998776Y-103239388D01*
X186748776Y-111009388D02*
X187498776Y-111009388D01*
X184998776Y-102499388D02*
X184498776Y-102499388D01*
X187498776Y-111009388D02*
X188498776Y-110009388D01*
X177498776Y-106999388D02*
X180748776Y-106999388D01*
X179998776Y-107749388D02*
X180998776Y-106749388D01*
X182498776Y-104499388D02*
X181971776Y-104499388D01*
X184498776Y-102499388D02*
X182498776Y-104499388D01*
X187248776Y-102239388D02*
X187248776Y-101499388D01*
X181971776Y-104499388D02*
X180998776Y-105472388D01*
X182748776Y-105336888D02*
X182748776Y-104749388D01*
X180748776Y-106999388D02*
X180998776Y-106749388D01*
X182950776Y-106749388D02*
X182111276Y-106749388D01*
%TO.N,Board_24-GND*%
X181906014Y-109004650D02*
X182080026Y-108830638D01*
X182248776Y-107886888D02*
X182111276Y-107749388D01*
X182080026Y-108830638D02*
X180998776Y-109911888D01*
X180998776Y-109911888D02*
X180998776Y-111249388D01*
X184748776Y-106749388D02*
X184248776Y-106249388D01*
X186886276Y-107249388D02*
X185998776Y-107249388D01*
X184748776Y-106749388D02*
X185498776Y-106749388D01*
X184248776Y-106249388D02*
X182111276Y-106249388D01*
X185498776Y-106749388D02*
X185998776Y-107249388D01*
X184248776Y-106249388D02*
X184248776Y-105836888D01*
X184248776Y-106249388D02*
X184248776Y-105336888D01*
X182080026Y-108830638D02*
X182248776Y-108661888D01*
X191498776Y-106999388D02*
X191248776Y-107249388D01*
X184248776Y-105836888D02*
X183748776Y-105336888D01*
X181906014Y-109745835D02*
X181906014Y-109004650D01*
X191248776Y-107249388D02*
X186886276Y-107249388D01*
X182248776Y-108661888D02*
X182248776Y-107886888D01*
%TO.N,Board_24-Net-(J1-Pin_1)*%
X187248776Y-104836888D02*
X186748776Y-105336888D01*
X187248776Y-103259388D02*
X187248776Y-104836888D01*
X184498776Y-99999388D02*
X184498776Y-100509388D01*
X184498776Y-100509388D02*
X187248776Y-103259388D01*
%TO.N,Board_24-Net-(J2-Pin_1)*%
X185479314Y-113999388D02*
X184498776Y-113999388D01*
X189748776Y-108749388D02*
X189748776Y-109729926D01*
X188998776Y-104259388D02*
X187008776Y-106249388D01*
X186886276Y-106249388D02*
X188498776Y-106249388D01*
X189748776Y-109729926D02*
X185479314Y-113999388D01*
X187008776Y-106249388D02*
X186886276Y-106249388D01*
%TO.N,Board_24-Net-(U1-BOOTN)*%
X181496776Y-107249388D02*
X180643776Y-108102388D01*
X180643776Y-108102388D02*
X180643776Y-109364388D01*
X180643776Y-109364388D02*
X179998776Y-110009388D01*
X182111276Y-107249388D02*
X181496776Y-107249388D01*
%TO.N,Board_24-Net-(U1-CAP)*%
X182866014Y-109745835D02*
X183279329Y-109745835D01*
X183279329Y-109745835D02*
X183748776Y-109276388D01*
X183748776Y-109276388D02*
X183748776Y-108661888D01*
%TO.N,Board_24-Net-(U1-ENV_SCL)*%
X186748776Y-109989388D02*
X186748776Y-108661888D01*
%TO.N,Board_24-Net-(U1-ENV_SDA)*%
X188126276Y-108989388D02*
X186886276Y-107749388D01*
X188498776Y-108989388D02*
X188126276Y-108989388D01*
%TD*%
M02*
