%TF.GenerationSoftware,KiCad,Pcbnew,7.0.5-1.fc38*%
%TF.CreationDate,2023-07-07T14:20:18-04:00*%
%TF.ProjectId,bno085-i2c-board-v3-large-panel,626e6f30-3835-42d6-9932-632d626f6172,rev?*%
%TF.SameCoordinates,Original*%
%TF.FileFunction,Soldermask,Bot*%
%TF.FilePolarity,Negative*%
%FSLAX46Y46*%
G04 Gerber Fmt 4.6, Leading zero omitted, Abs format (unit mm)*
G04 Created by KiCad (PCBNEW 7.0.5-1.fc38) date 2023-07-07 14:20:18*
%MOMM*%
%LPD*%
G01*
G04 APERTURE LIST*
%ADD10C,0.500000*%
%ADD11R,0.850000X0.850000*%
G04 APERTURE END LIST*
D10*
%TO.C,REF\u002A\u002A*%
X183865552Y-44901258D03*
%TD*%
%TO.C,REF\u002A\u002A*%
X130501684Y-62876288D03*
%TD*%
%TO.C,REF\u002A\u002A*%
X129865552Y-43097517D03*
%TD*%
%TO.C,REF\u002A\u002A*%
X111865553Y-98901258D03*
%TD*%
D11*
%TO.C,J2*%
X148498776Y-59999388D03*
%TD*%
D10*
%TO.C,REF\u002A\u002A*%
X156596275Y-107637058D03*
%TD*%
%TO.C,REF\u002A\u002A*%
X165865552Y-79097517D03*
%TD*%
%TO.C,REF\u002A\u002A*%
X101251224Y-114998775D03*
%TD*%
%TO.C,REF\u002A\u002A*%
X147865552Y-43097517D03*
%TD*%
%TO.C,REF\u002A\u002A*%
X130501685Y-43122525D03*
%TD*%
%TO.C,REF\u002A\u002A*%
X166501684Y-79122487D03*
%TD*%
D11*
%TO.C,J4*%
X137498776Y-88999388D03*
%TD*%
%TO.C,J1*%
X112498776Y-99999388D03*
%TD*%
D10*
%TO.C,REF\u002A\u002A*%
X104399603Y-70363107D03*
%TD*%
%TO.C,REF\u002A\u002A*%
X148501684Y-61122487D03*
%TD*%
%TO.C,REF\u002A\u002A*%
X111865553Y-44901258D03*
%TD*%
%TO.C,REF\u002A\u002A*%
X194498776Y-114998775D03*
%TD*%
%TO.C,REF\u002A\u002A*%
X120623662Y-34999387D03*
%TD*%
%TO.C,REF\u002A\u002A*%
X131137922Y-98900855D03*
%TD*%
%TO.C,REF\u002A\u002A*%
X138596275Y-70361717D03*
%TD*%
D11*
%TO.C,J1*%
X130498776Y-27999388D03*
%TD*%
D10*
%TO.C,REF\u002A\u002A*%
X129865552Y-26901259D03*
%TD*%
%TO.C,REF\u002A\u002A*%
X122399464Y-71635681D03*
%TD*%
%TO.C,REF\u002A\u002A*%
X111865553Y-115097517D03*
%TD*%
%TO.C,REF\u002A\u002A*%
X176399602Y-34363108D03*
%TD*%
D11*
%TO.C,J2*%
X130498776Y-113999388D03*
%TD*%
D10*
%TO.C,REF\u002A\u002A*%
X174596275Y-88361717D03*
%TD*%
%TO.C,REF\u002A\u002A*%
X183865552Y-43097517D03*
%TD*%
D11*
%TO.C,J2*%
X112498776Y-59999388D03*
%TD*%
%TO.C,J2*%
X166498776Y-113999388D03*
%TD*%
D10*
%TO.C,REF\u002A\u002A*%
X147865552Y-80901258D03*
%TD*%
%TO.C,REF\u002A\u002A*%
X122376223Y-34999388D03*
%TD*%
%TO.C,REF\u002A\u002A*%
X140376223Y-106999387D03*
%TD*%
%TO.C,REF\u002A\u002A*%
X129865552Y-44901258D03*
%TD*%
%TO.C,REF\u002A\u002A*%
X185137920Y-43097897D03*
%TD*%
%TO.C,REF\u002A\u002A*%
X104501224Y-119498776D03*
%TD*%
%TO.C,REF\u002A\u002A*%
X140399602Y-34363108D03*
%TD*%
%TO.C,REF\u002A\u002A*%
X156623662Y-106999386D03*
%TD*%
D11*
%TO.C,J1*%
X166498776Y-99999388D03*
%TD*%
D10*
%TO.C,REF\u002A\u002A*%
X149137922Y-44900855D03*
%TD*%
%TO.C,REF\u002A\u002A*%
X120596275Y-52361717D03*
%TD*%
D11*
%TO.C,J4*%
X191498776Y-70999388D03*
%TD*%
D10*
%TO.C,REF\u002A\u002A*%
X198248776Y-114998775D03*
%TD*%
D11*
%TO.C,J3*%
X177498776Y-52999388D03*
%TD*%
D10*
%TO.C,REF\u002A\u002A*%
X113137922Y-26900856D03*
%TD*%
%TO.C,REF\u002A\u002A*%
X104376299Y-70999387D03*
%TD*%
%TO.C,REF\u002A\u002A*%
X185137920Y-115097897D03*
%TD*%
%TO.C,REF\u002A\u002A*%
X131137920Y-43097897D03*
%TD*%
%TO.C,REF\u002A\u002A*%
X129865552Y-79097517D03*
%TD*%
%TO.C,REF\u002A\u002A*%
X183865552Y-80901258D03*
%TD*%
%TO.C,REF\u002A\u002A*%
X101251224Y-27000000D03*
%TD*%
%TO.C,REF\u002A\u002A*%
X192596275Y-71637058D03*
%TD*%
%TO.C,REF\u002A\u002A*%
X104399603Y-34363108D03*
%TD*%
%TO.C,REF\u002A\u002A*%
X140399464Y-53635681D03*
%TD*%
D11*
%TO.C,J2*%
X148498776Y-95999388D03*
%TD*%
D10*
%TO.C,REF\u002A\u002A*%
X185137920Y-26900879D03*
%TD*%
%TO.C,REF\u002A\u002A*%
X140399464Y-107635681D03*
%TD*%
D11*
%TO.C,J2*%
X148498776Y-77999388D03*
%TD*%
%TO.C,J3*%
X141498776Y-34999388D03*
%TD*%
D10*
%TO.C,REF\u002A\u002A*%
X192498775Y-120123776D03*
%TD*%
%TO.C,REF\u002A\u002A*%
X185137922Y-62900855D03*
%TD*%
%TO.C,REF\u002A\u002A*%
X156596275Y-52361717D03*
%TD*%
D11*
%TO.C,J1*%
X130498776Y-45999388D03*
%TD*%
D10*
%TO.C,REF\u002A\u002A*%
X156596275Y-88361717D03*
%TD*%
%TO.C,REF\u002A\u002A*%
X131137922Y-44900855D03*
%TD*%
%TO.C,REF\u002A\u002A*%
X192596275Y-89637058D03*
%TD*%
%TO.C,REF\u002A\u002A*%
X97501224Y-27000000D03*
%TD*%
%TO.C,REF\u002A\u002A*%
X174623662Y-106999386D03*
%TD*%
%TO.C,REF\u002A\u002A*%
X140399602Y-106363107D03*
%TD*%
%TO.C,REF\u002A\u002A*%
X165865552Y-115097517D03*
%TD*%
%TO.C,REF\u002A\u002A*%
X148501684Y-97122487D03*
%TD*%
%TO.C,REF\u002A\u002A*%
X130501684Y-80876288D03*
%TD*%
%TO.C,REF\u002A\u002A*%
X174623662Y-88999386D03*
%TD*%
%TO.C,REF\u002A\u002A*%
X183865552Y-62901258D03*
%TD*%
D11*
%TO.C,J3*%
X159498776Y-52999388D03*
%TD*%
D10*
%TO.C,REF\u002A\u002A*%
X140399602Y-52363107D03*
%TD*%
%TO.C,REF\u002A\u002A*%
X158399464Y-89635681D03*
%TD*%
%TO.C,REF\u002A\u002A*%
X198873776Y-27000000D03*
%TD*%
%TO.C,REF\u002A\u002A*%
X122399602Y-70363107D03*
%TD*%
%TO.C,REF\u002A\u002A*%
X138596275Y-52361717D03*
%TD*%
D11*
%TO.C,J4*%
X173498776Y-70999388D03*
%TD*%
D10*
%TO.C,REF\u002A\u002A*%
X198873776Y-114998775D03*
%TD*%
%TO.C,REF\u002A\u002A*%
X165865552Y-43097517D03*
%TD*%
%TO.C,REF\u002A\u002A*%
X122376223Y-52999387D03*
%TD*%
%TO.C,REF\u002A\u002A*%
X156623662Y-70999386D03*
%TD*%
%TO.C,REF\u002A\u002A*%
X147865552Y-97097517D03*
%TD*%
D11*
%TO.C,J1*%
X112498776Y-27999388D03*
%TD*%
D10*
%TO.C,REF\u002A\u002A*%
X138623662Y-70999386D03*
%TD*%
%TO.C,REF\u002A\u002A*%
X156596275Y-71637058D03*
%TD*%
%TO.C,REF\u002A\u002A*%
X111865553Y-80901258D03*
%TD*%
%TO.C,REF\u002A\u002A*%
X104501224Y-25000000D03*
%TD*%
%TO.C,REF\u002A\u002A*%
X167137922Y-98900855D03*
%TD*%
%TO.C,REF\u002A\u002A*%
X165865552Y-44901258D03*
%TD*%
%TO.C,REF\u002A\u002A*%
X167137920Y-115097897D03*
%TD*%
%TO.C,REF\u002A\u002A*%
X165865552Y-26901259D03*
%TD*%
%TO.C,REF\u002A\u002A*%
X158376298Y-34999388D03*
%TD*%
%TO.C,REF\u002A\u002A*%
X166501684Y-61122487D03*
%TD*%
%TO.C,REF\u002A\u002A*%
X149137920Y-43097897D03*
%TD*%
%TO.C,REF\u002A\u002A*%
X147865552Y-79097517D03*
%TD*%
%TO.C,REF\u002A\u002A*%
X140399464Y-89635681D03*
%TD*%
D11*
%TO.C,J3*%
X123498776Y-52999388D03*
%TD*%
%TO.C,J3*%
X141498776Y-106999388D03*
%TD*%
D10*
%TO.C,REF\u002A\u002A*%
X196998776Y-114998775D03*
%TD*%
%TO.C,REF\u002A\u002A*%
X192498775Y-22500000D03*
%TD*%
%TO.C,REF\u002A\u002A*%
X192596275Y-52361717D03*
%TD*%
D11*
%TO.C,J2*%
X130498776Y-77999388D03*
%TD*%
D10*
%TO.C,REF\u002A\u002A*%
X104399603Y-106363107D03*
%TD*%
%TO.C,REF\u002A\u002A*%
X122399464Y-89635681D03*
%TD*%
%TO.C,REF\u002A\u002A*%
X174623662Y-52999386D03*
%TD*%
%TO.C,REF\u002A\u002A*%
X130501684Y-98876288D03*
%TD*%
%TO.C,REF\u002A\u002A*%
X167137922Y-44900855D03*
%TD*%
D11*
%TO.C,J4*%
X173498776Y-88999388D03*
%TD*%
D10*
%TO.C,REF\u002A\u002A*%
X104501224Y-22500000D03*
%TD*%
%TO.C,REF\u002A\u002A*%
X192623662Y-70999386D03*
%TD*%
%TO.C,REF\u002A\u002A*%
X129865552Y-61097517D03*
%TD*%
D11*
%TO.C,J3*%
X123498776Y-106999388D03*
%TD*%
D10*
%TO.C,REF\u002A\u002A*%
X174623662Y-70999386D03*
%TD*%
%TO.C,REF\u002A\u002A*%
X176399464Y-107635681D03*
%TD*%
%TO.C,REF\u002A\u002A*%
X156596275Y-106361717D03*
%TD*%
%TO.C,REF\u002A\u002A*%
X167137922Y-26900856D03*
%TD*%
D11*
%TO.C,J2*%
X184498776Y-113999388D03*
%TD*%
D10*
%TO.C,REF\u002A\u002A*%
X112501685Y-115122525D03*
%TD*%
D11*
%TO.C,J4*%
X137498776Y-70999388D03*
%TD*%
D10*
%TO.C,REF\u002A\u002A*%
X192498775Y-25000000D03*
%TD*%
D11*
%TO.C,J3*%
X141498776Y-70999388D03*
%TD*%
D10*
%TO.C,REF\u002A\u002A*%
X176399602Y-88363107D03*
%TD*%
%TO.C,REF\u002A\u002A*%
X147865552Y-44901258D03*
%TD*%
%TO.C,REF\u002A\u002A*%
X99376224Y-27000000D03*
%TD*%
%TO.C,REF\u002A\u002A*%
X130501684Y-97122487D03*
%TD*%
D11*
%TO.C,J2*%
X148498776Y-113999388D03*
%TD*%
D10*
%TO.C,REF\u002A\u002A*%
X192623662Y-106999386D03*
%TD*%
%TO.C,REF\u002A\u002A*%
X165865552Y-97097517D03*
%TD*%
%TO.C,REF\u002A\u002A*%
X183865552Y-115097517D03*
%TD*%
D11*
%TO.C,J3*%
X141498776Y-88999388D03*
%TD*%
D10*
%TO.C,REF\u002A\u002A*%
X176399464Y-35635681D03*
%TD*%
D11*
%TO.C,J2*%
X184498776Y-95999388D03*
%TD*%
D10*
%TO.C,REF\u002A\u002A*%
X112501684Y-98876288D03*
%TD*%
D11*
%TO.C,J4*%
X155498776Y-52999388D03*
%TD*%
D10*
%TO.C,REF\u002A\u002A*%
X129865552Y-62901258D03*
%TD*%
%TO.C,REF\u002A\u002A*%
X166501685Y-43122525D03*
%TD*%
%TO.C,REF\u002A\u002A*%
X120596275Y-107637058D03*
%TD*%
%TO.C,REF\u002A\u002A*%
X192498775Y-20000000D03*
%TD*%
%TO.C,REF\u002A\u002A*%
X183865552Y-26901259D03*
%TD*%
%TO.C,REF\u002A\u002A*%
X112501684Y-97122487D03*
%TD*%
%TO.C,REF\u002A\u002A*%
X158399464Y-35635681D03*
%TD*%
%TO.C,REF\u002A\u002A*%
X120596275Y-71637058D03*
%TD*%
D11*
%TO.C,J1*%
X166498776Y-27999388D03*
%TD*%
%TO.C,J2*%
X166498776Y-41999388D03*
%TD*%
D10*
%TO.C,REF\u002A\u002A*%
X176376298Y-106999387D03*
%TD*%
%TO.C,REF\u002A\u002A*%
X120623662Y-52999386D03*
%TD*%
%TO.C,REF\u002A\u002A*%
X174596275Y-34361718D03*
%TD*%
%TO.C,REF\u002A\u002A*%
X167137920Y-43097897D03*
%TD*%
%TO.C,REF\u002A\u002A*%
X113137920Y-115097897D03*
%TD*%
%TO.C,REF\u002A\u002A*%
X111865553Y-79097517D03*
%TD*%
D11*
%TO.C,J4*%
X191498776Y-52999388D03*
%TD*%
D10*
%TO.C,REF\u002A\u002A*%
X192623662Y-52999386D03*
%TD*%
%TO.C,REF\u002A\u002A*%
X99376224Y-114998775D03*
%TD*%
%TO.C,REF\u002A\u002A*%
X104399603Y-52363107D03*
%TD*%
%TO.C,REF\u002A\u002A*%
X196373776Y-114998775D03*
%TD*%
%TO.C,REF\u002A\u002A*%
X122399464Y-35635681D03*
%TD*%
%TO.C,REF\u002A\u002A*%
X148501685Y-43122525D03*
%TD*%
%TO.C,REF\u002A\u002A*%
X174596275Y-106361717D03*
%TD*%
%TO.C,REF\u002A\u002A*%
X185137922Y-61097920D03*
%TD*%
%TO.C,REF\u002A\u002A*%
X104501224Y-118248776D03*
%TD*%
D11*
%TO.C,J3*%
X123498776Y-88999388D03*
%TD*%
D10*
%TO.C,REF\u002A\u002A*%
X149137922Y-98900855D03*
%TD*%
%TO.C,REF\u002A\u002A*%
X158399464Y-71635681D03*
%TD*%
%TO.C,REF\u002A\u002A*%
X167137922Y-62900855D03*
%TD*%
%TO.C,REF\u002A\u002A*%
X138623662Y-52999386D03*
%TD*%
%TO.C,REF\u002A\u002A*%
X158376298Y-88999387D03*
%TD*%
%TO.C,REF\u002A\u002A*%
X192623662Y-34999387D03*
%TD*%
%TO.C,REF\u002A\u002A*%
X165865552Y-98901258D03*
%TD*%
D11*
%TO.C,J4*%
X173498776Y-34999388D03*
%TD*%
D10*
%TO.C,REF\u002A\u002A*%
X156623662Y-34999387D03*
%TD*%
%TO.C,REF\u002A\u002A*%
X129865552Y-98901258D03*
%TD*%
%TO.C,REF\u002A\u002A*%
X166501684Y-98876288D03*
%TD*%
%TO.C,REF\u002A\u002A*%
X174596275Y-53637058D03*
%TD*%
%TO.C,REF\u002A\u002A*%
X131137922Y-80900855D03*
%TD*%
%TO.C,REF\u002A\u002A*%
X184501685Y-43122525D03*
%TD*%
%TO.C,REF\u002A\u002A*%
X104399465Y-71635681D03*
%TD*%
%TO.C,REF\u002A\u002A*%
X122399602Y-106363107D03*
%TD*%
%TO.C,REF\u002A\u002A*%
X104501224Y-120123776D03*
%TD*%
%TO.C,REF\u002A\u002A*%
X166501684Y-26876289D03*
%TD*%
D11*
%TO.C,J3*%
X105498776Y-34999388D03*
%TD*%
D10*
%TO.C,REF\u002A\u002A*%
X184501684Y-80876288D03*
%TD*%
%TO.C,REF\u002A\u002A*%
X111865553Y-61097517D03*
%TD*%
%TO.C,REF\u002A\u002A*%
X112501684Y-26876289D03*
%TD*%
%TO.C,REF\u002A\u002A*%
X100001224Y-114998775D03*
%TD*%
%TO.C,REF\u002A\u002A*%
X184501684Y-62876288D03*
%TD*%
D11*
%TO.C,J1*%
X112498776Y-45999388D03*
%TD*%
%TO.C,J3*%
X159498776Y-70999388D03*
%TD*%
D10*
%TO.C,REF\u002A\u002A*%
X158399602Y-52363107D03*
%TD*%
%TO.C,REF\u002A\u002A*%
X120623662Y-88999386D03*
%TD*%
D11*
%TO.C,J3*%
X141498776Y-52999388D03*
%TD*%
%TO.C,J3*%
X105498776Y-88999388D03*
%TD*%
D10*
%TO.C,REF\u002A\u002A*%
X185137922Y-80900855D03*
%TD*%
%TO.C,REF\u002A\u002A*%
X130501684Y-26876289D03*
%TD*%
%TO.C,REF\u002A\u002A*%
X197623776Y-27000000D03*
%TD*%
%TO.C,REF\u002A\u002A*%
X192596275Y-107637058D03*
%TD*%
D11*
%TO.C,J4*%
X173498776Y-106999388D03*
%TD*%
D10*
%TO.C,REF\u002A\u002A*%
X166501684Y-97122487D03*
%TD*%
D11*
%TO.C,J4*%
X137498776Y-34999388D03*
%TD*%
D10*
%TO.C,REF\u002A\u002A*%
X195123776Y-27000000D03*
%TD*%
%TO.C,REF\u002A\u002A*%
X158399602Y-70363107D03*
%TD*%
%TO.C,REF\u002A\u002A*%
X192596275Y-34361718D03*
%TD*%
%TO.C,REF\u002A\u002A*%
X192596275Y-53637058D03*
%TD*%
%TO.C,REF\u002A\u002A*%
X122376223Y-106999387D03*
%TD*%
D11*
%TO.C,J3*%
X123498776Y-34999388D03*
%TD*%
D10*
%TO.C,REF\u002A\u002A*%
X156596275Y-70361717D03*
%TD*%
%TO.C,REF\u002A\u002A*%
X138596275Y-53637058D03*
%TD*%
%TO.C,REF\u002A\u002A*%
X167137922Y-80900855D03*
%TD*%
%TO.C,REF\u002A\u002A*%
X111865553Y-26901259D03*
%TD*%
D11*
%TO.C,J2*%
X184498776Y-59999388D03*
%TD*%
%TO.C,J3*%
X105498776Y-70999388D03*
%TD*%
D10*
%TO.C,REF\u002A\u002A*%
X122399602Y-88363107D03*
%TD*%
%TO.C,REF\u002A\u002A*%
X112501684Y-79122487D03*
%TD*%
%TO.C,REF\u002A\u002A*%
X138623662Y-34999387D03*
%TD*%
%TO.C,REF\u002A\u002A*%
X122399464Y-53635681D03*
%TD*%
%TO.C,REF\u002A\u002A*%
X148501685Y-115122525D03*
%TD*%
%TO.C,REF\u002A\u002A*%
X166501684Y-62876288D03*
%TD*%
%TO.C,REF\u002A\u002A*%
X120596275Y-89637058D03*
%TD*%
%TO.C,REF\u002A\u002A*%
X102501224Y-27000000D03*
%TD*%
%TO.C,REF\u002A\u002A*%
X102501224Y-114998775D03*
%TD*%
%TO.C,REF\u002A\u002A*%
X104376299Y-52999387D03*
%TD*%
%TO.C,REF\u002A\u002A*%
X131137922Y-97097920D03*
%TD*%
D11*
%TO.C,J3*%
X159498776Y-34999388D03*
%TD*%
D10*
%TO.C,REF\u002A\u002A*%
X184501685Y-26876251D03*
%TD*%
%TO.C,REF\u002A\u002A*%
X98126224Y-27000000D03*
%TD*%
%TO.C,REF\u002A\u002A*%
X192596275Y-106361717D03*
%TD*%
%TO.C,REF\u002A\u002A*%
X111865553Y-97097517D03*
%TD*%
D11*
%TO.C,J3*%
X105498776Y-106999388D03*
%TD*%
D10*
%TO.C,REF\u002A\u002A*%
X140376223Y-52999387D03*
%TD*%
%TO.C,REF\u002A\u002A*%
X176399464Y-71635681D03*
%TD*%
%TO.C,REF\u002A\u002A*%
X98126224Y-114998775D03*
%TD*%
%TO.C,REF\u002A\u002A*%
X140399464Y-71635681D03*
%TD*%
%TO.C,REF\u002A\u002A*%
X167137922Y-61097920D03*
%TD*%
%TO.C,REF\u002A\u002A*%
X183865552Y-79097517D03*
%TD*%
D11*
%TO.C,J3*%
X177498776Y-88999388D03*
%TD*%
D10*
%TO.C,REF\u002A\u002A*%
X174596275Y-89637058D03*
%TD*%
%TO.C,REF\u002A\u002A*%
X176376298Y-34999388D03*
%TD*%
%TO.C,REF\u002A\u002A*%
X149137922Y-79097920D03*
%TD*%
D11*
%TO.C,J1*%
X130498776Y-99999388D03*
%TD*%
D10*
%TO.C,REF\u002A\u002A*%
X130501685Y-115122525D03*
%TD*%
%TO.C,REF\u002A\u002A*%
X140399464Y-35635681D03*
%TD*%
%TO.C,REF\u002A\u002A*%
X147865552Y-61097517D03*
%TD*%
%TO.C,REF\u002A\u002A*%
X112501685Y-43122525D03*
%TD*%
%TO.C,REF\u002A\u002A*%
X174596275Y-35637058D03*
%TD*%
%TO.C,REF\u002A\u002A*%
X98751224Y-27000000D03*
%TD*%
%TO.C,REF\u002A\u002A*%
X138596275Y-34361718D03*
%TD*%
D11*
%TO.C,J1*%
X184498776Y-63999388D03*
%TD*%
D10*
%TO.C,REF\u002A\u002A*%
X184501685Y-115122525D03*
%TD*%
%TO.C,REF\u002A\u002A*%
X104501224Y-20625000D03*
%TD*%
%TO.C,REF\u002A\u002A*%
X192498775Y-120748776D03*
%TD*%
%TO.C,REF\u002A\u002A*%
X111865553Y-43097517D03*
%TD*%
%TO.C,REF\u002A\u002A*%
X148501684Y-80876288D03*
%TD*%
%TO.C,REF\u002A\u002A*%
X185137922Y-97097920D03*
%TD*%
%TO.C,REF\u002A\u002A*%
X148501684Y-79122487D03*
%TD*%
%TO.C,REF\u002A\u002A*%
X183865552Y-61097517D03*
%TD*%
%TO.C,REF\u002A\u002A*%
X195123776Y-114998775D03*
%TD*%
D11*
%TO.C,J3*%
X105498776Y-52999388D03*
%TD*%
D10*
%TO.C,REF\u002A\u002A*%
X113137922Y-79097920D03*
%TD*%
%TO.C,REF\u002A\u002A*%
X112501684Y-62876288D03*
%TD*%
%TO.C,REF\u002A\u002A*%
X104399465Y-107635681D03*
%TD*%
%TO.C,REF\u002A\u002A*%
X131137922Y-79097920D03*
%TD*%
%TO.C,REF\u002A\u002A*%
X120596275Y-88361717D03*
%TD*%
%TO.C,REF\u002A\u002A*%
X192498775Y-23750000D03*
%TD*%
D11*
%TO.C,J2*%
X112498776Y-77999388D03*
%TD*%
D10*
%TO.C,REF\u002A\u002A*%
X122399464Y-107635681D03*
%TD*%
D11*
%TO.C,J1*%
X148498776Y-81999388D03*
%TD*%
D10*
%TO.C,REF\u002A\u002A*%
X147865552Y-115097517D03*
%TD*%
%TO.C,REF\u002A\u002A*%
X131137920Y-115097897D03*
%TD*%
%TO.C,REF\u002A\u002A*%
X129865552Y-115097517D03*
%TD*%
%TO.C,REF\u002A\u002A*%
X158399602Y-106363107D03*
%TD*%
%TO.C,REF\u002A\u002A*%
X113137922Y-97097920D03*
%TD*%
%TO.C,REF\u002A\u002A*%
X166501684Y-80876288D03*
%TD*%
%TO.C,REF\u002A\u002A*%
X156596275Y-35637058D03*
%TD*%
%TO.C,REF\u002A\u002A*%
X184501684Y-61122487D03*
%TD*%
D11*
%TO.C,J2*%
X148498776Y-41999388D03*
%TD*%
D10*
%TO.C,REF\u002A\u002A*%
X138596275Y-106361717D03*
%TD*%
D11*
%TO.C,J1*%
X130498776Y-63999388D03*
%TD*%
D10*
%TO.C,REF\u002A\u002A*%
X120596275Y-70361717D03*
%TD*%
%TO.C,REF\u002A\u002A*%
X192498775Y-24375000D03*
%TD*%
%TO.C,REF\u002A\u002A*%
X113137922Y-61097920D03*
%TD*%
D11*
%TO.C,J2*%
X112498776Y-95999388D03*
%TD*%
D10*
%TO.C,REF\u002A\u002A*%
X122399602Y-34363108D03*
%TD*%
%TO.C,REF\u002A\u002A*%
X176399464Y-53635681D03*
%TD*%
%TO.C,REF\u002A\u002A*%
X131137922Y-61097920D03*
%TD*%
%TO.C,REF\u002A\u002A*%
X147865552Y-26901259D03*
%TD*%
%TO.C,REF\u002A\u002A*%
X130501684Y-79122487D03*
%TD*%
%TO.C,REF\u002A\u002A*%
X138596275Y-107637058D03*
%TD*%
D11*
%TO.C,J2*%
X184498776Y-77999388D03*
%TD*%
%TO.C,J3*%
X177498776Y-34999388D03*
%TD*%
D10*
%TO.C,REF\u002A\u002A*%
X112501684Y-44876288D03*
%TD*%
%TO.C,REF\u002A\u002A*%
X138596275Y-71637058D03*
%TD*%
%TO.C,REF\u002A\u002A*%
X176376298Y-70999387D03*
%TD*%
%TO.C,REF\u002A\u002A*%
X176376298Y-88999387D03*
%TD*%
%TO.C,REF\u002A\u002A*%
X156596275Y-53637058D03*
%TD*%
%TO.C,REF\u002A\u002A*%
X156596275Y-34361718D03*
%TD*%
%TO.C,REF\u002A\u002A*%
X113137922Y-44900855D03*
%TD*%
%TO.C,REF\u002A\u002A*%
X100626224Y-27000000D03*
%TD*%
%TO.C,REF\u002A\u002A*%
X192596275Y-35637058D03*
%TD*%
D11*
%TO.C,J4*%
X155498776Y-70999388D03*
%TD*%
D10*
%TO.C,REF\u002A\u002A*%
X192498775Y-118248776D03*
%TD*%
D11*
%TO.C,J4*%
X119498776Y-70999388D03*
%TD*%
%TO.C,J2*%
X130498776Y-59999388D03*
%TD*%
%TO.C,J3*%
X159498776Y-88999388D03*
%TD*%
D10*
%TO.C,REF\u002A\u002A*%
X174596275Y-71637058D03*
%TD*%
%TO.C,REF\u002A\u002A*%
X194498776Y-27000000D03*
%TD*%
%TO.C,REF\u002A\u002A*%
X184501684Y-79122487D03*
%TD*%
%TO.C,REF\u002A\u002A*%
X100626224Y-114998775D03*
%TD*%
D11*
%TO.C,J4*%
X173498776Y-52999388D03*
%TD*%
D10*
%TO.C,REF\u002A\u002A*%
X104501224Y-21250000D03*
%TD*%
D11*
%TO.C,J2*%
X130498776Y-95999388D03*
%TD*%
D10*
%TO.C,REF\u002A\u002A*%
X130501684Y-61122487D03*
%TD*%
%TO.C,REF\u002A\u002A*%
X176376298Y-52999387D03*
%TD*%
D11*
%TO.C,J4*%
X119498776Y-34999388D03*
%TD*%
%TO.C,J1*%
X184498776Y-99999388D03*
%TD*%
%TO.C,J1*%
X184498776Y-45999388D03*
%TD*%
D10*
%TO.C,REF\u002A\u002A*%
X104501224Y-116998776D03*
%TD*%
%TO.C,REF\u002A\u002A*%
X176399602Y-70363107D03*
%TD*%
D11*
%TO.C,J4*%
X155498776Y-88999388D03*
%TD*%
D10*
%TO.C,REF\u002A\u002A*%
X158399464Y-53635681D03*
%TD*%
D11*
%TO.C,J4*%
X119498776Y-106999388D03*
%TD*%
D10*
%TO.C,REF\u002A\u002A*%
X138596275Y-88361717D03*
%TD*%
%TO.C,REF\u002A\u002A*%
X140376223Y-34999388D03*
%TD*%
%TO.C,REF\u002A\u002A*%
X112501684Y-61122487D03*
%TD*%
%TO.C,REF\u002A\u002A*%
X104501224Y-24375000D03*
%TD*%
D11*
%TO.C,J2*%
X166498776Y-95999388D03*
%TD*%
D10*
%TO.C,REF\u002A\u002A*%
X138596275Y-89637058D03*
%TD*%
%TO.C,REF\u002A\u002A*%
X158399602Y-34363108D03*
%TD*%
%TO.C,REF\u002A\u002A*%
X149137920Y-115097897D03*
%TD*%
%TO.C,REF\u002A\u002A*%
X185137922Y-98900855D03*
%TD*%
%TO.C,REF\u002A\u002A*%
X148501684Y-44876288D03*
%TD*%
%TO.C,REF\u002A\u002A*%
X196373776Y-27000000D03*
%TD*%
D11*
%TO.C,J2*%
X130498776Y-41999388D03*
%TD*%
D10*
%TO.C,REF\u002A\u002A*%
X174596275Y-107637058D03*
%TD*%
D11*
%TO.C,J3*%
X177498776Y-106999388D03*
%TD*%
D10*
%TO.C,REF\u002A\u002A*%
X104501224Y-117623776D03*
%TD*%
%TO.C,REF\u002A\u002A*%
X183865552Y-98901258D03*
%TD*%
%TO.C,REF\u002A\u002A*%
X149137922Y-26900856D03*
%TD*%
%TO.C,REF\u002A\u002A*%
X185137922Y-79097920D03*
%TD*%
%TO.C,REF\u002A\u002A*%
X196998776Y-27000000D03*
%TD*%
%TO.C,REF\u002A\u002A*%
X184501684Y-97122487D03*
%TD*%
%TO.C,REF\u002A\u002A*%
X192498775Y-116998776D03*
%TD*%
%TO.C,REF\u002A\u002A*%
X120623662Y-106999386D03*
%TD*%
D11*
%TO.C,J4*%
X119498776Y-88999388D03*
%TD*%
D10*
%TO.C,REF\u002A\u002A*%
X174596275Y-52361717D03*
%TD*%
D11*
%TO.C,J1*%
X148498776Y-63999388D03*
%TD*%
%TO.C,J3*%
X177498776Y-70999388D03*
%TD*%
D10*
%TO.C,REF\u002A\u002A*%
X166501685Y-115122525D03*
%TD*%
D11*
%TO.C,J1*%
X166498776Y-81999388D03*
%TD*%
D10*
%TO.C,REF\u002A\u002A*%
X167137922Y-97097920D03*
%TD*%
%TO.C,REF\u002A\u002A*%
X174596275Y-70361717D03*
%TD*%
D11*
%TO.C,J2*%
X166498776Y-77999388D03*
%TD*%
D10*
%TO.C,REF\u002A\u002A*%
X104376299Y-106999387D03*
%TD*%
%TO.C,REF\u002A\u002A*%
X198248776Y-27000000D03*
%TD*%
%TO.C,REF\u002A\u002A*%
X192623662Y-88999386D03*
%TD*%
%TO.C,REF\u002A\u002A*%
X199498776Y-114998775D03*
%TD*%
D11*
%TO.C,J2*%
X112498776Y-113999388D03*
%TD*%
D10*
%TO.C,REF\u002A\u002A*%
X158399602Y-88363107D03*
%TD*%
D11*
%TO.C,J4*%
X155498776Y-106999388D03*
%TD*%
D10*
%TO.C,REF\u002A\u002A*%
X98751224Y-114998775D03*
%TD*%
%TO.C,REF\u002A\u002A*%
X120596275Y-53637058D03*
%TD*%
%TO.C,REF\u002A\u002A*%
X149137922Y-62900855D03*
%TD*%
%TO.C,REF\u002A\u002A*%
X101876224Y-27000000D03*
%TD*%
%TO.C,REF\u002A\u002A*%
X192498775Y-119498776D03*
%TD*%
D11*
%TO.C,J4*%
X119498776Y-52999388D03*
%TD*%
D10*
%TO.C,REF\u002A\u002A*%
X192596275Y-70361717D03*
%TD*%
D11*
%TO.C,J1*%
X148498776Y-99999388D03*
%TD*%
D10*
%TO.C,REF\u002A\u002A*%
X111865553Y-62901258D03*
%TD*%
%TO.C,REF\u002A\u002A*%
X104501224Y-21875000D03*
%TD*%
%TO.C,REF\u002A\u002A*%
X104399465Y-89635681D03*
%TD*%
%TO.C,REF\u002A\u002A*%
X113137922Y-98900855D03*
%TD*%
%TO.C,REF\u002A\u002A*%
X167137922Y-79097920D03*
%TD*%
%TO.C,REF\u002A\u002A*%
X149137922Y-61097920D03*
%TD*%
%TO.C,REF\u002A\u002A*%
X197623776Y-114998775D03*
%TD*%
%TO.C,REF\u002A\u002A*%
X149137922Y-80900855D03*
%TD*%
%TO.C,REF\u002A\u002A*%
X192498775Y-118873776D03*
%TD*%
%TO.C,REF\u002A\u002A*%
X156596275Y-89637058D03*
%TD*%
D11*
%TO.C,J3*%
X123498776Y-70999388D03*
%TD*%
%TO.C,J1*%
X166498776Y-45999388D03*
%TD*%
D10*
%TO.C,REF\u002A\u002A*%
X131137922Y-62900855D03*
%TD*%
%TO.C,REF\u002A\u002A*%
X122399602Y-52363107D03*
%TD*%
D11*
%TO.C,J4*%
X191498776Y-106999388D03*
%TD*%
D10*
%TO.C,REF\u002A\u002A*%
X192498775Y-117623776D03*
%TD*%
%TO.C,REF\u002A\u002A*%
X165865552Y-80901258D03*
%TD*%
%TO.C,REF\u002A\u002A*%
X104399465Y-35635681D03*
%TD*%
%TO.C,REF\u002A\u002A*%
X156623662Y-88999386D03*
%TD*%
%TO.C,REF\u002A\u002A*%
X176399602Y-52363107D03*
%TD*%
%TO.C,REF\u002A\u002A*%
X104501224Y-121373776D03*
%TD*%
%TO.C,REF\u002A\u002A*%
X104501224Y-121998776D03*
%TD*%
%TO.C,REF\u002A\u002A*%
X192596275Y-88361717D03*
%TD*%
D11*
%TO.C,J1*%
X148498776Y-27999388D03*
%TD*%
%TO.C,J1*%
X112498776Y-63999388D03*
%TD*%
D10*
%TO.C,REF\u002A\u002A*%
X112501684Y-80876288D03*
%TD*%
%TO.C,REF\u002A\u002A*%
X158376298Y-52999387D03*
%TD*%
D11*
%TO.C,J4*%
X191498776Y-88999388D03*
%TD*%
D10*
%TO.C,REF\u002A\u002A*%
X192498775Y-121373776D03*
%TD*%
%TO.C,REF\u002A\u002A*%
X165865552Y-61097517D03*
%TD*%
%TO.C,REF\u002A\u002A*%
X104501224Y-118873776D03*
%TD*%
%TO.C,REF\u002A\u002A*%
X158376298Y-70999387D03*
%TD*%
%TO.C,REF\u002A\u002A*%
X101876224Y-114998775D03*
%TD*%
D11*
%TO.C,J1*%
X184498776Y-81999388D03*
%TD*%
%TO.C,J4*%
X191498776Y-34999388D03*
%TD*%
%TO.C,J1*%
X112498776Y-81999388D03*
%TD*%
D10*
%TO.C,REF\u002A\u002A*%
X104376299Y-88999387D03*
%TD*%
%TO.C,REF\u002A\u002A*%
X120596275Y-35637058D03*
%TD*%
D11*
%TO.C,J2*%
X166498776Y-59999388D03*
%TD*%
%TO.C,J1*%
X130498776Y-81999388D03*
%TD*%
D10*
%TO.C,REF\u002A\u002A*%
X176399464Y-89635681D03*
%TD*%
%TO.C,REF\u002A\u002A*%
X140376223Y-70999387D03*
%TD*%
%TO.C,REF\u002A\u002A*%
X185137922Y-44900855D03*
%TD*%
D11*
%TO.C,J2*%
X184498776Y-41999388D03*
%TD*%
D10*
%TO.C,REF\u002A\u002A*%
X113137922Y-80900855D03*
%TD*%
D11*
%TO.C,J2*%
X112498776Y-41999388D03*
%TD*%
D10*
%TO.C,REF\u002A\u002A*%
X183865552Y-97097517D03*
%TD*%
%TO.C,REF\u002A\u002A*%
X174623662Y-34999387D03*
%TD*%
%TO.C,REF\u002A\u002A*%
X104501224Y-23125000D03*
%TD*%
%TO.C,REF\u002A\u002A*%
X122376223Y-70999387D03*
%TD*%
%TO.C,REF\u002A\u002A*%
X147865552Y-62901258D03*
%TD*%
%TO.C,REF\u002A\u002A*%
X184501684Y-98876288D03*
%TD*%
%TO.C,REF\u002A\u002A*%
X192498775Y-121998776D03*
%TD*%
%TO.C,REF\u002A\u002A*%
X100001224Y-27000000D03*
%TD*%
D11*
%TO.C,J4*%
X137498776Y-52999388D03*
%TD*%
D10*
%TO.C,REF\u002A\u002A*%
X165865552Y-62901258D03*
%TD*%
%TO.C,REF\u002A\u002A*%
X148501684Y-26876289D03*
%TD*%
%TO.C,REF\u002A\u002A*%
X122376223Y-88999387D03*
%TD*%
%TO.C,REF\u002A\u002A*%
X120623662Y-70999386D03*
%TD*%
%TO.C,REF\u002A\u002A*%
X166501684Y-44876288D03*
%TD*%
%TO.C,REF\u002A\u002A*%
X104501224Y-23750000D03*
%TD*%
%TO.C,REF\u002A\u002A*%
X192498775Y-23125000D03*
%TD*%
%TO.C,REF\u002A\u002A*%
X130501684Y-44876288D03*
%TD*%
%TO.C,REF\u002A\u002A*%
X113137920Y-43097897D03*
%TD*%
%TO.C,REF\u002A\u002A*%
X148501684Y-98876288D03*
%TD*%
%TO.C,REF\u002A\u002A*%
X104399603Y-88363107D03*
%TD*%
%TO.C,REF\u002A\u002A*%
X104376299Y-34999388D03*
%TD*%
D11*
%TO.C,J1*%
X148498776Y-45999388D03*
%TD*%
D10*
%TO.C,REF\u002A\u002A*%
X158376298Y-106999387D03*
%TD*%
%TO.C,REF\u002A\u002A*%
X184501684Y-44876288D03*
%TD*%
%TO.C,REF\u002A\u002A*%
X147865552Y-98901258D03*
%TD*%
%TO.C,REF\u002A\u002A*%
X192498775Y-20625000D03*
%TD*%
D11*
%TO.C,J4*%
X155498776Y-34999388D03*
%TD*%
D10*
%TO.C,REF\u002A\u002A*%
X192498775Y-21250000D03*
%TD*%
%TO.C,REF\u002A\u002A*%
X140399602Y-70363107D03*
%TD*%
%TO.C,REF\u002A\u002A*%
X138623662Y-106999386D03*
%TD*%
%TO.C,REF\u002A\u002A*%
X104501224Y-120748776D03*
%TD*%
%TO.C,REF\u002A\u002A*%
X148501684Y-62876288D03*
%TD*%
D11*
%TO.C,J3*%
X159498776Y-106999388D03*
%TD*%
D10*
%TO.C,REF\u002A\u002A*%
X140399602Y-88363107D03*
%TD*%
%TO.C,REF\u002A\u002A*%
X195748776Y-114998775D03*
%TD*%
%TO.C,REF\u002A\u002A*%
X113137922Y-62900855D03*
%TD*%
D11*
%TO.C,J1*%
X184498776Y-27999388D03*
%TD*%
%TO.C,J4*%
X137498776Y-106999388D03*
%TD*%
D10*
%TO.C,REF\u002A\u002A*%
X138596275Y-35637058D03*
%TD*%
%TO.C,REF\u002A\u002A*%
X195748776Y-27000000D03*
%TD*%
D11*
%TO.C,J1*%
X166498776Y-63999388D03*
%TD*%
D10*
%TO.C,REF\u002A\u002A*%
X138623662Y-88999386D03*
%TD*%
%TO.C,REF\u002A\u002A*%
X104501224Y-20000000D03*
%TD*%
%TO.C,REF\u002A\u002A*%
X192498775Y-21875000D03*
%TD*%
%TO.C,REF\u002A\u002A*%
X129865552Y-97097517D03*
%TD*%
%TO.C,REF\u002A\u002A*%
X156623662Y-52999386D03*
%TD*%
%TO.C,REF\u002A\u002A*%
X158399464Y-107635681D03*
%TD*%
%TO.C,REF\u002A\u002A*%
X140376223Y-88999387D03*
%TD*%
%TO.C,REF\u002A\u002A*%
X97501224Y-114998775D03*
%TD*%
%TO.C,REF\u002A\u002A*%
X120596336Y-106361712D03*
%TD*%
%TO.C,REF\u002A\u002A*%
X176399602Y-106363107D03*
%TD*%
%TO.C,REF\u002A\u002A*%
X131137922Y-26900856D03*
%TD*%
%TO.C,REF\u002A\u002A*%
X199498776Y-27000000D03*
%TD*%
%TO.C,REF\u002A\u002A*%
X104399465Y-53635681D03*
%TD*%
%TO.C,REF\u002A\u002A*%
X129865552Y-80901258D03*
%TD*%
%TO.C,REF\u002A\u002A*%
X120596275Y-34361718D03*
%TD*%
%TO.C,REF\u002A\u002A*%
X149137922Y-97097920D03*
%TD*%
M02*
