%TF.GenerationSoftware,KiCad,Pcbnew,7.0.5-1.fc38*%
%TF.CreationDate,2023-07-07T14:16:01-04:00*%
%TF.ProjectId,bno085-i2c-board-v3-panel,626e6f30-3835-42d6-9932-632d626f6172,rev?*%
%TF.SameCoordinates,Original*%
%TF.FileFunction,Legend,Bot*%
%TF.FilePolarity,Positive*%
%FSLAX46Y46*%
G04 Gerber Fmt 4.6, Leading zero omitted, Abs format (unit mm)*
G04 Created by KiCad (PCBNEW 7.0.5-1.fc38) date 2023-07-07 14:16:01*
%MOMM*%
%LPD*%
G01*
G04 APERTURE LIST*
%ADD10R,0.850000X0.850000*%
%ADD11C,0.500000*%
G04 APERTURE END LIST*
%LPC*%
D10*
%TO.C,J2*%
X148500000Y-60250000D03*
%TD*%
D11*
%TO.C,REF\u002A\u002A*%
X160500000Y-49124999D03*
%TD*%
D10*
%TO.C,J3*%
X120250000Y-44000000D03*
%TD*%
D11*
%TO.C,REF\u002A\u002A*%
X112500001Y-85000000D03*
%TD*%
D10*
%TO.C,J1*%
X172500000Y-75750000D03*
%TD*%
D11*
%TO.C,REF\u002A\u002A*%
X172500000Y-49124999D03*
%TD*%
%TO.C,REF\u002A\u002A*%
X143375000Y-67999999D03*
%TD*%
D10*
%TO.C,J4*%
X152750000Y-32000000D03*
%TD*%
D11*
%TO.C,REF\u002A\u002A*%
X155375000Y-54999999D03*
%TD*%
%TO.C,REF\u002A\u002A*%
X177499999Y-91166666D03*
%TD*%
D10*
%TO.C,J2*%
X172500000Y-48250000D03*
%TD*%
D11*
%TO.C,REF\u002A\u002A*%
X161500000Y-37124999D03*
%TD*%
%TO.C,REF\u002A\u002A*%
X172500000Y-61124999D03*
%TD*%
%TO.C,REF\u002A\u002A*%
X135500000Y-61124999D03*
%TD*%
%TO.C,REF\u002A\u002A*%
X171500000Y-85124999D03*
%TD*%
%TO.C,REF\u002A\u002A*%
X114166668Y-85000000D03*
%TD*%
%TO.C,REF\u002A\u002A*%
X119375001Y-31000000D03*
%TD*%
%TO.C,REF\u002A\u002A*%
X177499999Y-92000000D03*
%TD*%
%TO.C,REF\u002A\u002A*%
X129624999Y-80999999D03*
%TD*%
%TO.C,REF\u002A\u002A*%
X124500000Y-50875002D03*
%TD*%
%TO.C,REF\u002A\u002A*%
X129624999Y-44999999D03*
%TD*%
D10*
%TO.C,J3*%
X168250000Y-68000000D03*
%TD*%
D11*
%TO.C,REF\u002A\u002A*%
X177624999Y-42999999D03*
%TD*%
%TO.C,REF\u002A\u002A*%
X177624999Y-43999999D03*
%TD*%
%TO.C,REF\u002A\u002A*%
X149499999Y-62875000D03*
%TD*%
%TO.C,REF\u002A\u002A*%
X137500000Y-73124999D03*
%TD*%
%TO.C,REF\u002A\u002A*%
X124500000Y-49124999D03*
%TD*%
%TO.C,REF\u002A\u002A*%
X160499999Y-50875002D03*
%TD*%
%TO.C,REF\u002A\u002A*%
X160499999Y-62875002D03*
%TD*%
%TO.C,REF\u002A\u002A*%
X141624999Y-78999999D03*
%TD*%
%TO.C,REF\u002A\u002A*%
X117500001Y-85000000D03*
%TD*%
%TO.C,REF\u002A\u002A*%
X177499999Y-23333334D03*
%TD*%
%TO.C,REF\u002A\u002A*%
X129624999Y-55999999D03*
%TD*%
%TO.C,REF\u002A\u002A*%
X177499999Y-20833334D03*
%TD*%
%TO.C,REF\u002A\u002A*%
X167375000Y-68999999D03*
%TD*%
%TO.C,REF\u002A\u002A*%
X137500000Y-85124999D03*
%TD*%
%TO.C,REF\u002A\u002A*%
X137500000Y-61124999D03*
%TD*%
%TO.C,REF\u002A\u002A*%
X153624999Y-32999999D03*
%TD*%
D10*
%TO.C,J3*%
X144250000Y-80000000D03*
%TD*%
D11*
%TO.C,REF\u002A\u002A*%
X147500000Y-61124999D03*
%TD*%
%TO.C,REF\u002A\u002A*%
X136500000Y-61124999D03*
%TD*%
D10*
%TO.C,J2*%
X160500000Y-36250000D03*
%TD*%
D11*
%TO.C,REF\u002A\u002A*%
X115833335Y-85000000D03*
%TD*%
%TO.C,REF\u002A\u002A*%
X129624999Y-42999999D03*
%TD*%
D10*
%TO.C,J4*%
X164750000Y-80000000D03*
%TD*%
D11*
%TO.C,REF\u002A\u002A*%
X173499999Y-38875000D03*
%TD*%
%TO.C,REF\u002A\u002A*%
X165624999Y-54999999D03*
%TD*%
%TO.C,REF\u002A\u002A*%
X113333335Y-27000000D03*
%TD*%
%TO.C,REF\u002A\u002A*%
X184500000Y-27000000D03*
%TD*%
%TO.C,REF\u002A\u002A*%
X155375000Y-56999999D03*
%TD*%
%TO.C,REF\u002A\u002A*%
X125500000Y-85124999D03*
%TD*%
D10*
%TO.C,J4*%
X176750000Y-80000000D03*
%TD*%
D11*
%TO.C,REF\u002A\u002A*%
X172499999Y-74875002D03*
%TD*%
%TO.C,REF\u002A\u002A*%
X131375000Y-68999999D03*
%TD*%
%TO.C,REF\u002A\u002A*%
X173500000Y-37124999D03*
%TD*%
%TO.C,REF\u002A\u002A*%
X165624999Y-44999999D03*
%TD*%
%TO.C,REF\u002A\u002A*%
X155375000Y-78999999D03*
%TD*%
%TO.C,REF\u002A\u002A*%
X119500001Y-22500000D03*
%TD*%
%TO.C,REF\u002A\u002A*%
X160500000Y-37124999D03*
%TD*%
%TO.C,REF\u002A\u002A*%
X124500000Y-26875003D03*
%TD*%
%TO.C,REF\u002A\u002A*%
X159500000Y-73124999D03*
%TD*%
%TO.C,REF\u002A\u002A*%
X173500000Y-85124999D03*
%TD*%
D10*
%TO.C,J2*%
X160500000Y-60250000D03*
%TD*%
D11*
%TO.C,REF\u002A\u002A*%
X141624999Y-44999999D03*
%TD*%
%TO.C,REF\u002A\u002A*%
X131375000Y-32999999D03*
%TD*%
%TO.C,REF\u002A\u002A*%
X167375000Y-67999999D03*
%TD*%
%TO.C,REF\u002A\u002A*%
X155375000Y-68999999D03*
%TD*%
%TO.C,REF\u002A\u002A*%
X137499999Y-50875000D03*
%TD*%
%TO.C,REF\u002A\u002A*%
X165624999Y-55999999D03*
%TD*%
D10*
%TO.C,J3*%
X156250000Y-80000000D03*
%TD*%
D11*
%TO.C,REF\u002A\u002A*%
X136500000Y-49124999D03*
%TD*%
D10*
%TO.C,J4*%
X128750000Y-68000000D03*
%TD*%
D11*
%TO.C,REF\u002A\u002A*%
X167375000Y-31000000D03*
%TD*%
%TO.C,REF\u002A\u002A*%
X160499999Y-26875003D03*
%TD*%
%TO.C,REF\u002A\u002A*%
X119375001Y-67999999D03*
%TD*%
D10*
%TO.C,J1*%
X136500000Y-75750000D03*
%TD*%
D11*
%TO.C,REF\u002A\u002A*%
X141624999Y-80999999D03*
%TD*%
%TO.C,REF\u002A\u002A*%
X177624999Y-78999999D03*
%TD*%
%TO.C,REF\u002A\u002A*%
X153624999Y-42999999D03*
%TD*%
%TO.C,REF\u002A\u002A*%
X119500001Y-91166666D03*
%TD*%
D10*
%TO.C,J3*%
X120250000Y-68000000D03*
%TD*%
%TO.C,J3*%
X120250000Y-56000000D03*
%TD*%
D11*
%TO.C,REF\u002A\u002A*%
X147500000Y-37124999D03*
%TD*%
%TO.C,REF\u002A\u002A*%
X167375000Y-55999999D03*
%TD*%
%TO.C,REF\u002A\u002A*%
X124500000Y-73124999D03*
%TD*%
%TO.C,REF\u002A\u002A*%
X159500000Y-61124999D03*
%TD*%
%TO.C,REF\u002A\u002A*%
X171499999Y-50875004D03*
%TD*%
%TO.C,REF\u002A\u002A*%
X177624999Y-44999999D03*
%TD*%
%TO.C,REF\u002A\u002A*%
X131375000Y-42999999D03*
%TD*%
%TO.C,REF\u002A\u002A*%
X173500000Y-49124999D03*
%TD*%
%TO.C,REF\u002A\u002A*%
X119375001Y-78999999D03*
%TD*%
D10*
%TO.C,J4*%
X140750000Y-68000000D03*
%TD*%
D11*
%TO.C,REF\u002A\u002A*%
X165624999Y-32999999D03*
%TD*%
%TO.C,REF\u002A\u002A*%
X161499999Y-38875000D03*
%TD*%
%TO.C,REF\u002A\u002A*%
X161500000Y-61124999D03*
%TD*%
%TO.C,REF\u002A\u002A*%
X143375000Y-79999999D03*
%TD*%
%TO.C,REF\u002A\u002A*%
X177624999Y-67999999D03*
%TD*%
%TO.C,REF\u002A\u002A*%
X123500000Y-26875005D03*
%TD*%
%TO.C,REF\u002A\u002A*%
X172499999Y-62875002D03*
%TD*%
%TO.C,REF\u002A\u002A*%
X149499999Y-38875000D03*
%TD*%
%TO.C,REF\u002A\u002A*%
X171499999Y-62875004D03*
%TD*%
%TO.C,REF\u002A\u002A*%
X177624999Y-55999999D03*
%TD*%
%TO.C,REF\u002A\u002A*%
X177499999Y-22500000D03*
%TD*%
%TO.C,REF\u002A\u002A*%
X119500001Y-89500000D03*
%TD*%
%TO.C,REF\u002A\u002A*%
X148500000Y-85124999D03*
%TD*%
%TO.C,REF\u002A\u002A*%
X119375001Y-56999999D03*
%TD*%
%TO.C,REF\u002A\u002A*%
X131375000Y-56999999D03*
%TD*%
%TO.C,REF\u002A\u002A*%
X123500000Y-38875004D03*
%TD*%
%TO.C,REF\u002A\u002A*%
X136500000Y-85124999D03*
%TD*%
%TO.C,REF\u002A\u002A*%
X115833335Y-27000000D03*
%TD*%
D10*
%TO.C,J3*%
X156250000Y-32000000D03*
%TD*%
%TO.C,J2*%
X172500000Y-72250000D03*
%TD*%
D11*
%TO.C,REF\u002A\u002A*%
X119500001Y-87000000D03*
%TD*%
%TO.C,REF\u002A\u002A*%
X177624999Y-54999999D03*
%TD*%
%TO.C,REF\u002A\u002A*%
X177624999Y-66999999D03*
%TD*%
%TO.C,REF\u002A\u002A*%
X125500000Y-73124999D03*
%TD*%
%TO.C,REF\u002A\u002A*%
X125499999Y-62875000D03*
%TD*%
%TO.C,REF\u002A\u002A*%
X167375000Y-43999999D03*
%TD*%
%TO.C,REF\u002A\u002A*%
X119500001Y-20000000D03*
%TD*%
%TO.C,REF\u002A\u002A*%
X119375001Y-68999999D03*
%TD*%
%TO.C,REF\u002A\u002A*%
X153624999Y-32000000D03*
%TD*%
%TO.C,REF\u002A\u002A*%
X116666668Y-85000000D03*
%TD*%
D10*
%TO.C,J3*%
X144250000Y-44000000D03*
%TD*%
D11*
%TO.C,REF\u002A\u002A*%
X141624999Y-43999999D03*
%TD*%
%TO.C,REF\u002A\u002A*%
X147499999Y-26875005D03*
%TD*%
%TO.C,REF\u002A\u002A*%
X172499999Y-26875003D03*
%TD*%
%TO.C,REF\u002A\u002A*%
X155375000Y-67999999D03*
%TD*%
%TO.C,REF\u002A\u002A*%
X148500000Y-49124999D03*
%TD*%
D10*
%TO.C,J2*%
X148500000Y-84250000D03*
%TD*%
%TO.C,J1*%
X124500000Y-39750000D03*
%TD*%
D11*
%TO.C,REF\u002A\u002A*%
X149500000Y-37124999D03*
%TD*%
%TO.C,REF\u002A\u002A*%
X125499999Y-50875000D03*
%TD*%
%TO.C,REF\u002A\u002A*%
X177499999Y-90333333D03*
%TD*%
%TO.C,REF\u002A\u002A*%
X119500001Y-23333334D03*
%TD*%
D10*
%TO.C,J1*%
X148500000Y-39750000D03*
%TD*%
D11*
%TO.C,REF\u002A\u002A*%
X124500000Y-62875002D03*
%TD*%
%TO.C,REF\u002A\u002A*%
X149499999Y-74875000D03*
%TD*%
%TO.C,REF\u002A\u002A*%
X173500000Y-61124999D03*
%TD*%
%TO.C,REF\u002A\u002A*%
X141624999Y-68999999D03*
%TD*%
%TO.C,REF\u002A\u002A*%
X177499999Y-20000000D03*
%TD*%
%TO.C,REF\u002A\u002A*%
X143375000Y-55999999D03*
%TD*%
D10*
%TO.C,J1*%
X160500000Y-75750000D03*
%TD*%
D11*
%TO.C,REF\u002A\u002A*%
X119500001Y-87833333D03*
%TD*%
%TO.C,REF\u002A\u002A*%
X131375000Y-67999999D03*
%TD*%
%TO.C,REF\u002A\u002A*%
X165624999Y-31000000D03*
%TD*%
%TO.C,REF\u002A\u002A*%
X173499999Y-74875000D03*
%TD*%
%TO.C,REF\u002A\u002A*%
X153624999Y-68999999D03*
%TD*%
D10*
%TO.C,J2*%
X148500000Y-72250000D03*
%TD*%
D11*
%TO.C,REF\u002A\u002A*%
X177624999Y-32999999D03*
%TD*%
D10*
%TO.C,J3*%
X144250000Y-32000000D03*
%TD*%
D11*
%TO.C,REF\u002A\u002A*%
X123500001Y-73124999D03*
%TD*%
D10*
%TO.C,J4*%
X140750000Y-32000000D03*
%TD*%
%TO.C,J1*%
X136500000Y-63750000D03*
%TD*%
%TO.C,J3*%
X156250000Y-44000000D03*
%TD*%
D11*
%TO.C,REF\u002A\u002A*%
X137499999Y-26875001D03*
%TD*%
D10*
%TO.C,J2*%
X124500000Y-48250000D03*
%TD*%
%TO.C,J1*%
X124500000Y-27750000D03*
%TD*%
D11*
%TO.C,REF\u002A\u002A*%
X119500001Y-92000000D03*
%TD*%
%TO.C,REF\u002A\u002A*%
X147500000Y-73124999D03*
%TD*%
%TO.C,REF\u002A\u002A*%
X129624999Y-54999999D03*
%TD*%
%TO.C,REF\u002A\u002A*%
X123500001Y-37124999D03*
%TD*%
%TO.C,REF\u002A\u002A*%
X141624999Y-54999999D03*
%TD*%
D10*
%TO.C,J2*%
X148500000Y-48250000D03*
%TD*%
D11*
%TO.C,REF\u002A\u002A*%
X161499999Y-74875000D03*
%TD*%
%TO.C,REF\u002A\u002A*%
X177624999Y-68999999D03*
%TD*%
%TO.C,REF\u002A\u002A*%
X177624999Y-80999999D03*
%TD*%
%TO.C,REF\u002A\u002A*%
X177499999Y-25000000D03*
%TD*%
%TO.C,REF\u002A\u002A*%
X147499999Y-38875004D03*
%TD*%
%TO.C,REF\u002A\u002A*%
X131375000Y-54999999D03*
%TD*%
%TO.C,REF\u002A\u002A*%
X171500000Y-49124999D03*
%TD*%
%TO.C,REF\u002A\u002A*%
X129624999Y-32000000D03*
%TD*%
%TO.C,REF\u002A\u002A*%
X165624999Y-68999999D03*
%TD*%
%TO.C,REF\u002A\u002A*%
X143375000Y-66999999D03*
%TD*%
%TO.C,REF\u002A\u002A*%
X129624999Y-32999999D03*
%TD*%
D10*
%TO.C,J2*%
X160500000Y-72250000D03*
%TD*%
D11*
%TO.C,REF\u002A\u002A*%
X143375000Y-54999999D03*
%TD*%
%TO.C,REF\u002A\u002A*%
X147500000Y-85124999D03*
%TD*%
%TO.C,REF\u002A\u002A*%
X181166666Y-27000000D03*
%TD*%
%TO.C,REF\u002A\u002A*%
X155375000Y-32999999D03*
%TD*%
%TO.C,REF\u002A\u002A*%
X131375000Y-78999999D03*
%TD*%
D10*
%TO.C,J4*%
X152750000Y-68000000D03*
%TD*%
D11*
%TO.C,REF\u002A\u002A*%
X143375000Y-31000000D03*
%TD*%
%TO.C,REF\u002A\u002A*%
X148499999Y-38875002D03*
%TD*%
%TO.C,REF\u002A\u002A*%
X131375000Y-66999999D03*
%TD*%
%TO.C,REF\u002A\u002A*%
X119500001Y-20833334D03*
%TD*%
%TO.C,REF\u002A\u002A*%
X177499999Y-24166667D03*
%TD*%
%TO.C,REF\u002A\u002A*%
X131375000Y-32000000D03*
%TD*%
%TO.C,REF\u002A\u002A*%
X167375000Y-32000000D03*
%TD*%
%TO.C,REF\u002A\u002A*%
X165624999Y-42999999D03*
%TD*%
D10*
%TO.C,J2*%
X124500000Y-60250000D03*
%TD*%
D11*
%TO.C,REF\u002A\u002A*%
X125499999Y-26875001D03*
%TD*%
%TO.C,REF\u002A\u002A*%
X143375000Y-42999999D03*
%TD*%
%TO.C,REF\u002A\u002A*%
X153624999Y-31000000D03*
%TD*%
D10*
%TO.C,J1*%
X136500000Y-51750000D03*
%TD*%
%TO.C,J3*%
X132250000Y-68000000D03*
%TD*%
D11*
%TO.C,REF\u002A\u002A*%
X167375000Y-54999999D03*
%TD*%
%TO.C,REF\u002A\u002A*%
X143375000Y-56999999D03*
%TD*%
%TO.C,REF\u002A\u002A*%
X119375001Y-54999999D03*
%TD*%
%TO.C,REF\u002A\u002A*%
X129624999Y-79999999D03*
%TD*%
D10*
%TO.C,J3*%
X132250000Y-56000000D03*
%TD*%
D11*
%TO.C,REF\u002A\u002A*%
X147499999Y-62875004D03*
%TD*%
D10*
%TO.C,J4*%
X176750000Y-56000000D03*
%TD*%
D11*
%TO.C,REF\u002A\u002A*%
X136500000Y-37124999D03*
%TD*%
%TO.C,REF\u002A\u002A*%
X125500000Y-49124999D03*
%TD*%
%TO.C,REF\u002A\u002A*%
X153624999Y-56999999D03*
%TD*%
D10*
%TO.C,J4*%
X164750000Y-68000000D03*
%TD*%
%TO.C,J4*%
X152750000Y-80000000D03*
%TD*%
D11*
%TO.C,REF\u002A\u002A*%
X141624999Y-32999999D03*
%TD*%
%TO.C,REF\u002A\u002A*%
X179500000Y-85000000D03*
%TD*%
%TO.C,REF\u002A\u002A*%
X131375000Y-43999999D03*
%TD*%
%TO.C,REF\u002A\u002A*%
X149500000Y-85124999D03*
%TD*%
D10*
%TO.C,J1*%
X148500000Y-75750000D03*
%TD*%
D11*
%TO.C,REF\u002A\u002A*%
X147500000Y-49124999D03*
%TD*%
%TO.C,REF\u002A\u002A*%
X129624999Y-56999999D03*
%TD*%
%TO.C,REF\u002A\u002A*%
X165624999Y-67999999D03*
%TD*%
%TO.C,REF\u002A\u002A*%
X159500000Y-49124999D03*
%TD*%
%TO.C,REF\u002A\u002A*%
X153624999Y-43999999D03*
%TD*%
%TO.C,REF\u002A\u002A*%
X137500000Y-49124999D03*
%TD*%
%TO.C,REF\u002A\u002A*%
X160500000Y-73124999D03*
%TD*%
%TO.C,REF\u002A\u002A*%
X135499999Y-38875004D03*
%TD*%
%TO.C,REF\u002A\u002A*%
X153624999Y-80999999D03*
%TD*%
%TO.C,REF\u002A\u002A*%
X165624999Y-43999999D03*
%TD*%
%TO.C,REF\u002A\u002A*%
X155375000Y-80999999D03*
%TD*%
%TO.C,REF\u002A\u002A*%
X180333333Y-27000000D03*
%TD*%
%TO.C,REF\u002A\u002A*%
X129624999Y-67999999D03*
%TD*%
%TO.C,REF\u002A\u002A*%
X167375000Y-79999999D03*
%TD*%
D10*
%TO.C,J4*%
X176750000Y-44000000D03*
%TD*%
D11*
%TO.C,REF\u002A\u002A*%
X124500000Y-85124999D03*
%TD*%
%TO.C,REF\u002A\u002A*%
X165624999Y-32000000D03*
%TD*%
D10*
%TO.C,J1*%
X172500000Y-51750000D03*
%TD*%
D11*
%TO.C,REF\u002A\u002A*%
X115000001Y-27000000D03*
%TD*%
%TO.C,REF\u002A\u002A*%
X131375000Y-31000000D03*
%TD*%
D10*
%TO.C,J2*%
X160500000Y-48250000D03*
%TD*%
%TO.C,J1*%
X160500000Y-27750000D03*
%TD*%
D11*
%TO.C,REF\u002A\u002A*%
X119375001Y-66999999D03*
%TD*%
%TO.C,REF\u002A\u002A*%
X135500000Y-85124999D03*
%TD*%
%TO.C,REF\u002A\u002A*%
X159500000Y-85124999D03*
%TD*%
%TO.C,REF\u002A\u002A*%
X171499999Y-38875004D03*
%TD*%
%TO.C,REF\u002A\u002A*%
X149499999Y-26875001D03*
%TD*%
D10*
%TO.C,J1*%
X148500000Y-63750000D03*
%TD*%
D11*
%TO.C,REF\u002A\u002A*%
X148499999Y-26875003D03*
%TD*%
%TO.C,REF\u002A\u002A*%
X135500000Y-37124999D03*
%TD*%
%TO.C,REF\u002A\u002A*%
X153624999Y-66999999D03*
%TD*%
%TO.C,REF\u002A\u002A*%
X171500000Y-73124999D03*
%TD*%
%TO.C,REF\u002A\u002A*%
X119500001Y-25000000D03*
%TD*%
%TO.C,REF\u002A\u002A*%
X143375000Y-68999999D03*
%TD*%
%TO.C,REF\u002A\u002A*%
X167375000Y-78999999D03*
%TD*%
%TO.C,REF\u002A\u002A*%
X123500000Y-62875004D03*
%TD*%
%TO.C,REF\u002A\u002A*%
X148500000Y-61124999D03*
%TD*%
D10*
%TO.C,J1*%
X160500000Y-63750000D03*
%TD*%
D11*
%TO.C,REF\u002A\u002A*%
X160500000Y-85124999D03*
%TD*%
%TO.C,REF\u002A\u002A*%
X181166666Y-85000000D03*
%TD*%
%TO.C,REF\u002A\u002A*%
X129624999Y-68999999D03*
%TD*%
%TO.C,REF\u002A\u002A*%
X167375000Y-44999999D03*
%TD*%
%TO.C,REF\u002A\u002A*%
X119375001Y-80999999D03*
%TD*%
D10*
%TO.C,J3*%
X132250000Y-44000000D03*
%TD*%
D11*
%TO.C,REF\u002A\u002A*%
X171500000Y-37124999D03*
%TD*%
%TO.C,REF\u002A\u002A*%
X115000001Y-85000000D03*
%TD*%
%TO.C,REF\u002A\u002A*%
X119375001Y-42999999D03*
%TD*%
%TO.C,REF\u002A\u002A*%
X143375000Y-80999999D03*
%TD*%
D10*
%TO.C,J4*%
X152750000Y-56000000D03*
%TD*%
%TO.C,J1*%
X172500000Y-39750000D03*
%TD*%
%TO.C,J2*%
X172500000Y-36250000D03*
%TD*%
%TO.C,J4*%
X176750000Y-68000000D03*
%TD*%
%TO.C,J1*%
X160500000Y-39750000D03*
%TD*%
D11*
%TO.C,REF\u002A\u002A*%
X153624999Y-44999999D03*
%TD*%
%TO.C,REF\u002A\u002A*%
X155375000Y-44999999D03*
%TD*%
%TO.C,REF\u002A\u002A*%
X160499999Y-74875002D03*
%TD*%
%TO.C,REF\u002A\u002A*%
X183666666Y-27000000D03*
%TD*%
%TO.C,REF\u002A\u002A*%
X171500000Y-61124999D03*
%TD*%
%TO.C,REF\u002A\u002A*%
X136499999Y-26875003D03*
%TD*%
%TO.C,REF\u002A\u002A*%
X165624999Y-80999999D03*
%TD*%
D10*
%TO.C,J3*%
X132250000Y-32000000D03*
%TD*%
%TO.C,J2*%
X160500000Y-84250000D03*
%TD*%
D11*
%TO.C,REF\u002A\u002A*%
X131375000Y-55999999D03*
%TD*%
%TO.C,REF\u002A\u002A*%
X161499999Y-26875001D03*
%TD*%
%TO.C,REF\u002A\u002A*%
X119375001Y-79999999D03*
%TD*%
%TO.C,REF\u002A\u002A*%
X161500000Y-49124999D03*
%TD*%
%TO.C,REF\u002A\u002A*%
X143375000Y-32999999D03*
%TD*%
D10*
%TO.C,J2*%
X136500000Y-48250000D03*
%TD*%
D11*
%TO.C,REF\u002A\u002A*%
X125499999Y-38875000D03*
%TD*%
%TO.C,REF\u002A\u002A*%
X136499999Y-62875002D03*
%TD*%
%TO.C,REF\u002A\u002A*%
X125500000Y-61124999D03*
%TD*%
%TO.C,REF\u002A\u002A*%
X155375000Y-66999999D03*
%TD*%
D10*
%TO.C,J4*%
X140750000Y-44000000D03*
%TD*%
D11*
%TO.C,REF\u002A\u002A*%
X153624999Y-78999999D03*
%TD*%
%TO.C,REF\u002A\u002A*%
X182000000Y-27000000D03*
%TD*%
%TO.C,REF\u002A\u002A*%
X124500000Y-38875002D03*
%TD*%
%TO.C,REF\u002A\u002A*%
X131375000Y-79999999D03*
%TD*%
D10*
%TO.C,J1*%
X124500000Y-51750000D03*
%TD*%
D11*
%TO.C,REF\u002A\u002A*%
X123500001Y-85124999D03*
%TD*%
%TO.C,REF\u002A\u002A*%
X147499999Y-50875004D03*
%TD*%
%TO.C,REF\u002A\u002A*%
X129624999Y-78999999D03*
%TD*%
%TO.C,REF\u002A\u002A*%
X123500001Y-61124999D03*
%TD*%
%TO.C,REF\u002A\u002A*%
X155375000Y-42999999D03*
%TD*%
%TO.C,REF\u002A\u002A*%
X119375001Y-55999999D03*
%TD*%
%TO.C,REF\u002A\u002A*%
X129624999Y-66999999D03*
%TD*%
%TO.C,REF\u002A\u002A*%
X173500000Y-73124999D03*
%TD*%
%TO.C,REF\u002A\u002A*%
X123500001Y-49124999D03*
%TD*%
D10*
%TO.C,J3*%
X120250000Y-32000000D03*
%TD*%
D11*
%TO.C,REF\u002A\u002A*%
X148499999Y-74875002D03*
%TD*%
%TO.C,REF\u002A\u002A*%
X136499999Y-38875002D03*
%TD*%
%TO.C,REF\u002A\u002A*%
X135499999Y-50875004D03*
%TD*%
%TO.C,REF\u002A\u002A*%
X117500001Y-27000000D03*
%TD*%
%TO.C,REF\u002A\u002A*%
X182000000Y-85000000D03*
%TD*%
D10*
%TO.C,J3*%
X168250000Y-80000000D03*
%TD*%
D11*
%TO.C,REF\u002A\u002A*%
X165624999Y-56999999D03*
%TD*%
D10*
%TO.C,J4*%
X164750000Y-32000000D03*
%TD*%
D11*
%TO.C,REF\u002A\u002A*%
X180333333Y-85000000D03*
%TD*%
D10*
%TO.C,J1*%
X160500000Y-51750000D03*
%TD*%
D11*
%TO.C,REF\u002A\u002A*%
X143375000Y-43999999D03*
%TD*%
%TO.C,REF\u002A\u002A*%
X165624999Y-78999999D03*
%TD*%
%TO.C,REF\u002A\u002A*%
X135500000Y-49124999D03*
%TD*%
%TO.C,REF\u002A\u002A*%
X125500000Y-37124999D03*
%TD*%
D10*
%TO.C,J4*%
X176750000Y-32000000D03*
%TD*%
D11*
%TO.C,REF\u002A\u002A*%
X177499999Y-89500000D03*
%TD*%
%TO.C,REF\u002A\u002A*%
X177624999Y-31000000D03*
%TD*%
%TO.C,REF\u002A\u002A*%
X159499999Y-62875004D03*
%TD*%
D10*
%TO.C,J4*%
X128750000Y-56000000D03*
%TD*%
D11*
%TO.C,REF\u002A\u002A*%
X141624999Y-56999999D03*
%TD*%
D10*
%TO.C,J1*%
X124500000Y-75750000D03*
%TD*%
D11*
%TO.C,REF\u002A\u002A*%
X149500000Y-49124999D03*
%TD*%
%TO.C,REF\u002A\u002A*%
X141624999Y-32000000D03*
%TD*%
%TO.C,REF\u002A\u002A*%
X165624999Y-66999999D03*
%TD*%
%TO.C,REF\u002A\u002A*%
X135499999Y-74875004D03*
%TD*%
%TO.C,REF\u002A\u002A*%
X177624999Y-32000000D03*
%TD*%
%TO.C,REF\u002A\u002A*%
X184500000Y-85000000D03*
%TD*%
%TO.C,REF\u002A\u002A*%
X159499999Y-38875004D03*
%TD*%
%TO.C,REF\u002A\u002A*%
X124500000Y-61124999D03*
%TD*%
%TO.C,REF\u002A\u002A*%
X177499999Y-21666667D03*
%TD*%
D10*
%TO.C,J4*%
X164750000Y-44000000D03*
%TD*%
D11*
%TO.C,REF\u002A\u002A*%
X136499999Y-50875002D03*
%TD*%
%TO.C,REF\u002A\u002A*%
X124500000Y-74875002D03*
%TD*%
%TO.C,REF\u002A\u002A*%
X141624999Y-79999999D03*
%TD*%
%TO.C,REF\u002A\u002A*%
X159499999Y-50875004D03*
%TD*%
%TO.C,REF\u002A\u002A*%
X172499999Y-38875002D03*
%TD*%
D10*
%TO.C,J3*%
X144250000Y-56000000D03*
%TD*%
D11*
%TO.C,REF\u002A\u002A*%
X153624999Y-54999999D03*
%TD*%
%TO.C,REF\u002A\u002A*%
X149500000Y-61124999D03*
%TD*%
%TO.C,REF\u002A\u002A*%
X119375001Y-32000000D03*
%TD*%
%TO.C,REF\u002A\u002A*%
X131375000Y-44999999D03*
%TD*%
D10*
%TO.C,J3*%
X144250000Y-68000000D03*
%TD*%
D11*
%TO.C,REF\u002A\u002A*%
X177624999Y-56999999D03*
%TD*%
%TO.C,REF\u002A\u002A*%
X119500001Y-90333333D03*
%TD*%
%TO.C,REF\u002A\u002A*%
X159499999Y-26875005D03*
%TD*%
%TO.C,REF\u002A\u002A*%
X172500000Y-85124999D03*
%TD*%
%TO.C,REF\u002A\u002A*%
X137499999Y-38875000D03*
%TD*%
%TO.C,REF\u002A\u002A*%
X148499999Y-62875002D03*
%TD*%
%TO.C,REF\u002A\u002A*%
X119500001Y-24166667D03*
%TD*%
D10*
%TO.C,J2*%
X136500000Y-60250000D03*
%TD*%
D11*
%TO.C,REF\u002A\u002A*%
X131375000Y-80999999D03*
%TD*%
%TO.C,REF\u002A\u002A*%
X160499999Y-38875002D03*
%TD*%
%TO.C,REF\u002A\u002A*%
X141624999Y-66999999D03*
%TD*%
%TO.C,REF\u002A\u002A*%
X155375000Y-31000000D03*
%TD*%
%TO.C,REF\u002A\u002A*%
X171499999Y-26875005D03*
%TD*%
%TO.C,REF\u002A\u002A*%
X155375000Y-79999999D03*
%TD*%
%TO.C,REF\u002A\u002A*%
X141624999Y-67999999D03*
%TD*%
D10*
%TO.C,J2*%
X172500000Y-60250000D03*
%TD*%
D11*
%TO.C,REF\u002A\u002A*%
X167375000Y-56999999D03*
%TD*%
%TO.C,REF\u002A\u002A*%
X167375000Y-66999999D03*
%TD*%
%TO.C,REF\u002A\u002A*%
X119500001Y-88666666D03*
%TD*%
D10*
%TO.C,J1*%
X136500000Y-39750000D03*
%TD*%
D11*
%TO.C,REF\u002A\u002A*%
X135499999Y-26875005D03*
%TD*%
D10*
%TO.C,J2*%
X136500000Y-36250000D03*
%TD*%
D11*
%TO.C,REF\u002A\u002A*%
X172500000Y-73124999D03*
%TD*%
D10*
%TO.C,J1*%
X172500000Y-63750000D03*
%TD*%
D11*
%TO.C,REF\u002A\u002A*%
X171499999Y-74875004D03*
%TD*%
D10*
%TO.C,J3*%
X168250000Y-32000000D03*
%TD*%
D11*
%TO.C,REF\u002A\u002A*%
X155375000Y-55999999D03*
%TD*%
%TO.C,REF\u002A\u002A*%
X148499999Y-50875002D03*
%TD*%
%TO.C,REF\u002A\u002A*%
X165624999Y-79999999D03*
%TD*%
D10*
%TO.C,J1*%
X124500000Y-63750000D03*
%TD*%
D11*
%TO.C,REF\u002A\u002A*%
X172499999Y-50875002D03*
%TD*%
D10*
%TO.C,J2*%
X148500000Y-36250000D03*
%TD*%
%TO.C,J2*%
X124500000Y-84250000D03*
%TD*%
D11*
%TO.C,REF\u002A\u002A*%
X182833333Y-27000000D03*
%TD*%
D10*
%TO.C,J4*%
X128750000Y-44000000D03*
%TD*%
D11*
%TO.C,REF\u002A\u002A*%
X161500000Y-73124999D03*
%TD*%
%TO.C,REF\u002A\u002A*%
X148500000Y-73124999D03*
%TD*%
D10*
%TO.C,J2*%
X136500000Y-72250000D03*
%TD*%
D11*
%TO.C,REF\u002A\u002A*%
X141624999Y-42999999D03*
%TD*%
%TO.C,REF\u002A\u002A*%
X155375000Y-43999999D03*
%TD*%
%TO.C,REF\u002A\u002A*%
X137499999Y-62875000D03*
%TD*%
%TO.C,REF\u002A\u002A*%
X137500000Y-37124999D03*
%TD*%
D10*
%TO.C,J1*%
X148500000Y-51750000D03*
%TD*%
D11*
%TO.C,REF\u002A\u002A*%
X177499999Y-87833333D03*
%TD*%
D10*
%TO.C,J2*%
X124500000Y-72250000D03*
%TD*%
D11*
%TO.C,REF\u002A\u002A*%
X167375000Y-42999999D03*
%TD*%
%TO.C,REF\u002A\u002A*%
X143375000Y-78999999D03*
%TD*%
%TO.C,REF\u002A\u002A*%
X119375001Y-32999999D03*
%TD*%
%TO.C,REF\u002A\u002A*%
X135500000Y-73124999D03*
%TD*%
%TO.C,REF\u002A\u002A*%
X143375000Y-32000000D03*
%TD*%
%TO.C,REF\u002A\u002A*%
X148500000Y-37124999D03*
%TD*%
%TO.C,REF\u002A\u002A*%
X183666666Y-85000000D03*
%TD*%
%TO.C,REF\u002A\u002A*%
X167375000Y-80999999D03*
%TD*%
D10*
%TO.C,J3*%
X132250000Y-80000000D03*
%TD*%
D11*
%TO.C,REF\u002A\u002A*%
X177624999Y-79999999D03*
%TD*%
%TO.C,REF\u002A\u002A*%
X137499999Y-74875000D03*
%TD*%
%TO.C,REF\u002A\u002A*%
X141624999Y-31000000D03*
%TD*%
D10*
%TO.C,J2*%
X172500000Y-84250000D03*
%TD*%
D11*
%TO.C,REF\u002A\u002A*%
X155375000Y-32000000D03*
%TD*%
D10*
%TO.C,J4*%
X152750000Y-44000000D03*
%TD*%
D11*
%TO.C,REF\u002A\u002A*%
X129624999Y-43999999D03*
%TD*%
D10*
%TO.C,J3*%
X156250000Y-68000000D03*
%TD*%
D11*
%TO.C,REF\u002A\u002A*%
X153624999Y-79999999D03*
%TD*%
%TO.C,REF\u002A\u002A*%
X179500000Y-27000000D03*
%TD*%
%TO.C,REF\u002A\u002A*%
X124500000Y-37124999D03*
%TD*%
%TO.C,REF\u002A\u002A*%
X141624999Y-55999999D03*
%TD*%
%TO.C,REF\u002A\u002A*%
X119375001Y-43999999D03*
%TD*%
%TO.C,REF\u002A\u002A*%
X112500001Y-27000000D03*
%TD*%
D10*
%TO.C,J4*%
X164750000Y-56000000D03*
%TD*%
D11*
%TO.C,REF\u002A\u002A*%
X135499999Y-62875004D03*
%TD*%
%TO.C,REF\u002A\u002A*%
X159500000Y-37124999D03*
%TD*%
%TO.C,REF\u002A\u002A*%
X136499999Y-74875002D03*
%TD*%
%TO.C,REF\u002A\u002A*%
X119500001Y-21666667D03*
%TD*%
%TO.C,REF\u002A\u002A*%
X161500000Y-85124999D03*
%TD*%
D10*
%TO.C,J1*%
X172500000Y-27750000D03*
%TD*%
%TO.C,J4*%
X140750000Y-80000000D03*
%TD*%
%TO.C,J2*%
X136500000Y-84250000D03*
%TD*%
D11*
%TO.C,REF\u002A\u002A*%
X177499999Y-87000000D03*
%TD*%
%TO.C,REF\u002A\u002A*%
X123500000Y-50875004D03*
%TD*%
%TO.C,REF\u002A\u002A*%
X153624999Y-55999999D03*
%TD*%
%TO.C,REF\u002A\u002A*%
X159499999Y-74875004D03*
%TD*%
%TO.C,REF\u002A\u002A*%
X147499999Y-74875004D03*
%TD*%
D10*
%TO.C,J1*%
X148500000Y-27750000D03*
%TD*%
D11*
%TO.C,REF\u002A\u002A*%
X160500000Y-61124999D03*
%TD*%
%TO.C,REF\u002A\u002A*%
X143375000Y-44999999D03*
%TD*%
D10*
%TO.C,J3*%
X168250000Y-44000000D03*
%TD*%
D11*
%TO.C,REF\u002A\u002A*%
X123500000Y-74875004D03*
%TD*%
%TO.C,REF\u002A\u002A*%
X167375000Y-32999999D03*
%TD*%
%TO.C,REF\u002A\u002A*%
X149499999Y-50875000D03*
%TD*%
D10*
%TO.C,J2*%
X124500000Y-36250000D03*
%TD*%
D11*
%TO.C,REF\u002A\u002A*%
X177499999Y-88666666D03*
%TD*%
D10*
%TO.C,J4*%
X128750000Y-80000000D03*
%TD*%
D11*
%TO.C,REF\u002A\u002A*%
X136500000Y-73124999D03*
%TD*%
D10*
%TO.C,J1*%
X136500000Y-27750000D03*
%TD*%
D11*
%TO.C,REF\u002A\u002A*%
X173499999Y-26875001D03*
%TD*%
%TO.C,REF\u002A\u002A*%
X173499999Y-50875000D03*
%TD*%
%TO.C,REF\u002A\u002A*%
X114166668Y-27000000D03*
%TD*%
%TO.C,REF\u002A\u002A*%
X182833333Y-85000000D03*
%TD*%
%TO.C,REF\u002A\u002A*%
X149500000Y-73124999D03*
%TD*%
D10*
%TO.C,J4*%
X140750000Y-56000000D03*
%TD*%
%TO.C,J3*%
X168250000Y-56000000D03*
%TD*%
D11*
%TO.C,REF\u002A\u002A*%
X161499999Y-62875000D03*
%TD*%
%TO.C,REF\u002A\u002A*%
X173499999Y-62875000D03*
%TD*%
%TO.C,REF\u002A\u002A*%
X116666668Y-27000000D03*
%TD*%
D10*
%TO.C,J3*%
X120250000Y-80000000D03*
%TD*%
%TO.C,J3*%
X156250000Y-56000000D03*
%TD*%
D11*
%TO.C,REF\u002A\u002A*%
X153624999Y-67999999D03*
%TD*%
%TO.C,REF\u002A\u002A*%
X119375001Y-44999999D03*
%TD*%
%TO.C,REF\u002A\u002A*%
X161499999Y-50875000D03*
%TD*%
%TO.C,REF\u002A\u002A*%
X172500000Y-37124999D03*
%TD*%
%TO.C,REF\u002A\u002A*%
X129624999Y-31000000D03*
%TD*%
D10*
%TO.C,J4*%
X128750000Y-32000000D03*
%TD*%
D11*
%TO.C,REF\u002A\u002A*%
X125499999Y-74875000D03*
%TD*%
%TO.C,REF\u002A\u002A*%
X113333335Y-85000000D03*
%TD*%
%LPD*%
M02*
