%TF.GenerationSoftware,KiCad,Pcbnew,7.0.5-1.fc38*%
%TF.CreationDate,2023-07-07T14:29:09-04:00*%
%TF.ProjectId,bno085-i2c-board-v3-square,626e6f30-3835-42d6-9932-632d626f6172,rev?*%
%TF.SameCoordinates,Original*%
%TF.FileFunction,Drillmap*%
%TF.FilePolarity,Positive*%
%FSLAX45Y45*%
G04 Gerber Fmt 4.5, Leading zero omitted, Abs format (unit mm)*
G04 Created by KiCad (PCBNEW 7.0.5-1.fc38) date 2023-07-07 14:29:09*
%MOMM*%
%LPD*%
G01*
G04 APERTURE LIST*
%ADD10C,0.100000*%
%ADD11C,0.200000*%
%ADD12C,0.040000*%
%ADD13C,0.050000*%
G04 APERTURE END LIST*
D10*
X7240000Y-7490000D02*
G75*
G03*
X7260000Y-7470000I0J20000D01*
G01*
X7240000Y-6360000D02*
X6480000Y-6360000D01*
X6460000Y-7470000D02*
X6460000Y-6380000D01*
X7260000Y-6380000D02*
G75*
G03*
X7240000Y-6360000I-20000J0D01*
G01*
X7240000Y-7490000D02*
X6480000Y-7490000D01*
X6480000Y-6360000D02*
G75*
G03*
X6460000Y-6380000I0J-20000D01*
G01*
X6460000Y-7470000D02*
G75*
G03*
X6480000Y-7490000I20000J0D01*
G01*
X7260000Y-7470000D02*
X7260000Y-6380000D01*
D11*
D12*
X6505000Y-6830000D02*
X6545000Y-6870000D01*
X6545000Y-6830000D02*
X6505000Y-6870000D01*
X6705000Y-7036200D02*
X6745000Y-7076200D01*
X6745000Y-7036200D02*
X6705000Y-7076200D01*
X6905000Y-7055000D02*
X6945000Y-7095000D01*
X6945000Y-7055000D02*
X6905000Y-7095000D01*
X6912587Y-6946487D02*
X6952587Y-6986487D01*
X6952587Y-6946487D02*
X6912587Y-6986487D01*
D13*
X6725934Y-6477000D02*
G75*
G03*
X6725934Y-6477000I-25000J0D01*
G01*
X6825934Y-6477000D02*
G75*
G03*
X6825934Y-6477000I-25000J0D01*
G01*
X6925934Y-6477000D02*
G75*
G03*
X6925934Y-6477000I-25000J0D01*
G01*
X7025934Y-6477000D02*
G75*
G03*
X7025934Y-6477000I-25000J0D01*
G01*
D11*
X6715777Y-7806484D02*
X6715777Y-7606484D01*
X6715777Y-7606484D02*
X6763396Y-7606484D01*
X6763396Y-7606484D02*
X6791967Y-7616008D01*
X6791967Y-7616008D02*
X6811015Y-7635055D01*
X6811015Y-7635055D02*
X6820539Y-7654103D01*
X6820539Y-7654103D02*
X6830062Y-7692198D01*
X6830062Y-7692198D02*
X6830062Y-7720769D01*
X6830062Y-7720769D02*
X6820539Y-7758865D01*
X6820539Y-7758865D02*
X6811015Y-7777912D01*
X6811015Y-7777912D02*
X6791967Y-7796960D01*
X6791967Y-7796960D02*
X6763396Y-7806484D01*
X6763396Y-7806484D02*
X6715777Y-7806484D01*
X6915777Y-7806484D02*
X6915777Y-7673150D01*
X6915777Y-7711246D02*
X6925301Y-7692198D01*
X6925301Y-7692198D02*
X6934824Y-7682674D01*
X6934824Y-7682674D02*
X6953872Y-7673150D01*
X6953872Y-7673150D02*
X6972920Y-7673150D01*
X7039586Y-7806484D02*
X7039586Y-7673150D01*
X7039586Y-7606484D02*
X7030062Y-7616008D01*
X7030062Y-7616008D02*
X7039586Y-7625531D01*
X7039586Y-7625531D02*
X7049110Y-7616008D01*
X7049110Y-7616008D02*
X7039586Y-7606484D01*
X7039586Y-7606484D02*
X7039586Y-7625531D01*
X7163396Y-7806484D02*
X7144348Y-7796960D01*
X7144348Y-7796960D02*
X7134824Y-7777912D01*
X7134824Y-7777912D02*
X7134824Y-7606484D01*
X7268158Y-7806484D02*
X7249110Y-7796960D01*
X7249110Y-7796960D02*
X7239586Y-7777912D01*
X7239586Y-7777912D02*
X7239586Y-7606484D01*
X7496729Y-7806484D02*
X7496729Y-7606484D01*
X7496729Y-7606484D02*
X7563396Y-7749341D01*
X7563396Y-7749341D02*
X7630062Y-7606484D01*
X7630062Y-7606484D02*
X7630062Y-7806484D01*
X7811015Y-7806484D02*
X7811015Y-7701722D01*
X7811015Y-7701722D02*
X7801491Y-7682674D01*
X7801491Y-7682674D02*
X7782443Y-7673150D01*
X7782443Y-7673150D02*
X7744348Y-7673150D01*
X7744348Y-7673150D02*
X7725301Y-7682674D01*
X7811015Y-7796960D02*
X7791967Y-7806484D01*
X7791967Y-7806484D02*
X7744348Y-7806484D01*
X7744348Y-7806484D02*
X7725301Y-7796960D01*
X7725301Y-7796960D02*
X7715777Y-7777912D01*
X7715777Y-7777912D02*
X7715777Y-7758865D01*
X7715777Y-7758865D02*
X7725301Y-7739817D01*
X7725301Y-7739817D02*
X7744348Y-7730293D01*
X7744348Y-7730293D02*
X7791967Y-7730293D01*
X7791967Y-7730293D02*
X7811015Y-7720769D01*
X7906253Y-7673150D02*
X7906253Y-7873150D01*
X7906253Y-7682674D02*
X7925301Y-7673150D01*
X7925301Y-7673150D02*
X7963396Y-7673150D01*
X7963396Y-7673150D02*
X7982443Y-7682674D01*
X7982443Y-7682674D02*
X7991967Y-7692198D01*
X7991967Y-7692198D02*
X8001491Y-7711246D01*
X8001491Y-7711246D02*
X8001491Y-7768388D01*
X8001491Y-7768388D02*
X7991967Y-7787436D01*
X7991967Y-7787436D02*
X7982443Y-7796960D01*
X7982443Y-7796960D02*
X7963396Y-7806484D01*
X7963396Y-7806484D02*
X7925301Y-7806484D01*
X7925301Y-7806484D02*
X7906253Y-7796960D01*
X8087205Y-7787436D02*
X8096729Y-7796960D01*
X8096729Y-7796960D02*
X8087205Y-7806484D01*
X8087205Y-7806484D02*
X8077682Y-7796960D01*
X8077682Y-7796960D02*
X8087205Y-7787436D01*
X8087205Y-7787436D02*
X8087205Y-7806484D01*
X8087205Y-7682674D02*
X8096729Y-7692198D01*
X8096729Y-7692198D02*
X8087205Y-7701722D01*
X8087205Y-7701722D02*
X8077682Y-7692198D01*
X8077682Y-7692198D02*
X8087205Y-7682674D01*
X8087205Y-7682674D02*
X8087205Y-7701722D01*
D12*
X6415000Y-8115000D02*
X6455000Y-8155000D01*
X6455000Y-8115000D02*
X6415000Y-8155000D01*
D11*
X6753872Y-8026484D02*
X6772920Y-8026484D01*
X6772920Y-8026484D02*
X6791967Y-8036008D01*
X6791967Y-8036008D02*
X6801491Y-8045531D01*
X6801491Y-8045531D02*
X6811015Y-8064579D01*
X6811015Y-8064579D02*
X6820539Y-8102674D01*
X6820539Y-8102674D02*
X6820539Y-8150293D01*
X6820539Y-8150293D02*
X6811015Y-8188388D01*
X6811015Y-8188388D02*
X6801491Y-8207436D01*
X6801491Y-8207436D02*
X6791967Y-8216960D01*
X6791967Y-8216960D02*
X6772920Y-8226484D01*
X6772920Y-8226484D02*
X6753872Y-8226484D01*
X6753872Y-8226484D02*
X6734824Y-8216960D01*
X6734824Y-8216960D02*
X6725301Y-8207436D01*
X6725301Y-8207436D02*
X6715777Y-8188388D01*
X6715777Y-8188388D02*
X6706253Y-8150293D01*
X6706253Y-8150293D02*
X6706253Y-8102674D01*
X6706253Y-8102674D02*
X6715777Y-8064579D01*
X6715777Y-8064579D02*
X6725301Y-8045531D01*
X6725301Y-8045531D02*
X6734824Y-8036008D01*
X6734824Y-8036008D02*
X6753872Y-8026484D01*
X6906253Y-8207436D02*
X6915777Y-8216960D01*
X6915777Y-8216960D02*
X6906253Y-8226484D01*
X6906253Y-8226484D02*
X6896729Y-8216960D01*
X6896729Y-8216960D02*
X6906253Y-8207436D01*
X6906253Y-8207436D02*
X6906253Y-8226484D01*
X7087205Y-8093150D02*
X7087205Y-8226484D01*
X7039586Y-8016960D02*
X6991967Y-8159817D01*
X6991967Y-8159817D02*
X7115777Y-8159817D01*
X7230062Y-8026484D02*
X7249110Y-8026484D01*
X7249110Y-8026484D02*
X7268158Y-8036008D01*
X7268158Y-8036008D02*
X7277682Y-8045531D01*
X7277682Y-8045531D02*
X7287205Y-8064579D01*
X7287205Y-8064579D02*
X7296729Y-8102674D01*
X7296729Y-8102674D02*
X7296729Y-8150293D01*
X7296729Y-8150293D02*
X7287205Y-8188388D01*
X7287205Y-8188388D02*
X7277682Y-8207436D01*
X7277682Y-8207436D02*
X7268158Y-8216960D01*
X7268158Y-8216960D02*
X7249110Y-8226484D01*
X7249110Y-8226484D02*
X7230062Y-8226484D01*
X7230062Y-8226484D02*
X7211015Y-8216960D01*
X7211015Y-8216960D02*
X7201491Y-8207436D01*
X7201491Y-8207436D02*
X7191967Y-8188388D01*
X7191967Y-8188388D02*
X7182443Y-8150293D01*
X7182443Y-8150293D02*
X7182443Y-8102674D01*
X7182443Y-8102674D02*
X7191967Y-8064579D01*
X7191967Y-8064579D02*
X7201491Y-8045531D01*
X7201491Y-8045531D02*
X7211015Y-8036008D01*
X7211015Y-8036008D02*
X7230062Y-8026484D01*
X7420539Y-8026484D02*
X7439586Y-8026484D01*
X7439586Y-8026484D02*
X7458634Y-8036008D01*
X7458634Y-8036008D02*
X7468158Y-8045531D01*
X7468158Y-8045531D02*
X7477682Y-8064579D01*
X7477682Y-8064579D02*
X7487205Y-8102674D01*
X7487205Y-8102674D02*
X7487205Y-8150293D01*
X7487205Y-8150293D02*
X7477682Y-8188388D01*
X7477682Y-8188388D02*
X7468158Y-8207436D01*
X7468158Y-8207436D02*
X7458634Y-8216960D01*
X7458634Y-8216960D02*
X7439586Y-8226484D01*
X7439586Y-8226484D02*
X7420539Y-8226484D01*
X7420539Y-8226484D02*
X7401491Y-8216960D01*
X7401491Y-8216960D02*
X7391967Y-8207436D01*
X7391967Y-8207436D02*
X7382443Y-8188388D01*
X7382443Y-8188388D02*
X7372920Y-8150293D01*
X7372920Y-8150293D02*
X7372920Y-8102674D01*
X7372920Y-8102674D02*
X7382443Y-8064579D01*
X7382443Y-8064579D02*
X7391967Y-8045531D01*
X7391967Y-8045531D02*
X7401491Y-8036008D01*
X7401491Y-8036008D02*
X7420539Y-8026484D01*
X7572920Y-8226484D02*
X7572920Y-8093150D01*
X7572920Y-8112198D02*
X7582443Y-8102674D01*
X7582443Y-8102674D02*
X7601491Y-8093150D01*
X7601491Y-8093150D02*
X7630063Y-8093150D01*
X7630063Y-8093150D02*
X7649110Y-8102674D01*
X7649110Y-8102674D02*
X7658634Y-8121722D01*
X7658634Y-8121722D02*
X7658634Y-8226484D01*
X7658634Y-8121722D02*
X7668158Y-8102674D01*
X7668158Y-8102674D02*
X7687205Y-8093150D01*
X7687205Y-8093150D02*
X7715777Y-8093150D01*
X7715777Y-8093150D02*
X7734824Y-8102674D01*
X7734824Y-8102674D02*
X7744348Y-8121722D01*
X7744348Y-8121722D02*
X7744348Y-8226484D01*
X7839586Y-8226484D02*
X7839586Y-8093150D01*
X7839586Y-8112198D02*
X7849110Y-8102674D01*
X7849110Y-8102674D02*
X7868158Y-8093150D01*
X7868158Y-8093150D02*
X7896729Y-8093150D01*
X7896729Y-8093150D02*
X7915777Y-8102674D01*
X7915777Y-8102674D02*
X7925301Y-8121722D01*
X7925301Y-8121722D02*
X7925301Y-8226484D01*
X7925301Y-8121722D02*
X7934824Y-8102674D01*
X7934824Y-8102674D02*
X7953872Y-8093150D01*
X7953872Y-8093150D02*
X7982443Y-8093150D01*
X7982443Y-8093150D02*
X8001491Y-8102674D01*
X8001491Y-8102674D02*
X8011015Y-8121722D01*
X8011015Y-8121722D02*
X8011015Y-8226484D01*
X8401491Y-8016960D02*
X8230063Y-8274103D01*
X8658634Y-8026484D02*
X8677682Y-8026484D01*
X8677682Y-8026484D02*
X8696729Y-8036008D01*
X8696729Y-8036008D02*
X8706253Y-8045531D01*
X8706253Y-8045531D02*
X8715777Y-8064579D01*
X8715777Y-8064579D02*
X8725301Y-8102674D01*
X8725301Y-8102674D02*
X8725301Y-8150293D01*
X8725301Y-8150293D02*
X8715777Y-8188388D01*
X8715777Y-8188388D02*
X8706253Y-8207436D01*
X8706253Y-8207436D02*
X8696729Y-8216960D01*
X8696729Y-8216960D02*
X8677682Y-8226484D01*
X8677682Y-8226484D02*
X8658634Y-8226484D01*
X8658634Y-8226484D02*
X8639587Y-8216960D01*
X8639587Y-8216960D02*
X8630063Y-8207436D01*
X8630063Y-8207436D02*
X8620539Y-8188388D01*
X8620539Y-8188388D02*
X8611015Y-8150293D01*
X8611015Y-8150293D02*
X8611015Y-8102674D01*
X8611015Y-8102674D02*
X8620539Y-8064579D01*
X8620539Y-8064579D02*
X8630063Y-8045531D01*
X8630063Y-8045531D02*
X8639587Y-8036008D01*
X8639587Y-8036008D02*
X8658634Y-8026484D01*
X8811015Y-8207436D02*
X8820539Y-8216960D01*
X8820539Y-8216960D02*
X8811015Y-8226484D01*
X8811015Y-8226484D02*
X8801491Y-8216960D01*
X8801491Y-8216960D02*
X8811015Y-8207436D01*
X8811015Y-8207436D02*
X8811015Y-8226484D01*
X8944348Y-8026484D02*
X8963396Y-8026484D01*
X8963396Y-8026484D02*
X8982444Y-8036008D01*
X8982444Y-8036008D02*
X8991968Y-8045531D01*
X8991968Y-8045531D02*
X9001491Y-8064579D01*
X9001491Y-8064579D02*
X9011015Y-8102674D01*
X9011015Y-8102674D02*
X9011015Y-8150293D01*
X9011015Y-8150293D02*
X9001491Y-8188388D01*
X9001491Y-8188388D02*
X8991968Y-8207436D01*
X8991968Y-8207436D02*
X8982444Y-8216960D01*
X8982444Y-8216960D02*
X8963396Y-8226484D01*
X8963396Y-8226484D02*
X8944348Y-8226484D01*
X8944348Y-8226484D02*
X8925301Y-8216960D01*
X8925301Y-8216960D02*
X8915777Y-8207436D01*
X8915777Y-8207436D02*
X8906253Y-8188388D01*
X8906253Y-8188388D02*
X8896729Y-8150293D01*
X8896729Y-8150293D02*
X8896729Y-8102674D01*
X8896729Y-8102674D02*
X8906253Y-8064579D01*
X8906253Y-8064579D02*
X8915777Y-8045531D01*
X8915777Y-8045531D02*
X8925301Y-8036008D01*
X8925301Y-8036008D02*
X8944348Y-8026484D01*
X9201491Y-8226484D02*
X9087206Y-8226484D01*
X9144348Y-8226484D02*
X9144348Y-8026484D01*
X9144348Y-8026484D02*
X9125301Y-8055055D01*
X9125301Y-8055055D02*
X9106253Y-8074103D01*
X9106253Y-8074103D02*
X9087206Y-8083627D01*
X9382444Y-8026484D02*
X9287206Y-8026484D01*
X9287206Y-8026484D02*
X9277682Y-8121722D01*
X9277682Y-8121722D02*
X9287206Y-8112198D01*
X9287206Y-8112198D02*
X9306253Y-8102674D01*
X9306253Y-8102674D02*
X9353872Y-8102674D01*
X9353872Y-8102674D02*
X9372920Y-8112198D01*
X9372920Y-8112198D02*
X9382444Y-8121722D01*
X9382444Y-8121722D02*
X9391968Y-8140769D01*
X9391968Y-8140769D02*
X9391968Y-8188388D01*
X9391968Y-8188388D02*
X9382444Y-8207436D01*
X9382444Y-8207436D02*
X9372920Y-8216960D01*
X9372920Y-8216960D02*
X9353872Y-8226484D01*
X9353872Y-8226484D02*
X9306253Y-8226484D01*
X9306253Y-8226484D02*
X9287206Y-8216960D01*
X9287206Y-8216960D02*
X9277682Y-8207436D01*
X9458634Y-8026484D02*
X9591968Y-8026484D01*
X9591968Y-8026484D02*
X9506253Y-8226484D01*
X9658634Y-8026484D02*
X9658634Y-8064579D01*
X9734825Y-8026484D02*
X9734825Y-8064579D01*
X10030063Y-8302674D02*
X10020539Y-8293150D01*
X10020539Y-8293150D02*
X10001491Y-8264579D01*
X10001491Y-8264579D02*
X9991968Y-8245531D01*
X9991968Y-8245531D02*
X9982444Y-8216960D01*
X9982444Y-8216960D02*
X9972920Y-8169341D01*
X9972920Y-8169341D02*
X9972920Y-8131246D01*
X9972920Y-8131246D02*
X9982444Y-8083627D01*
X9982444Y-8083627D02*
X9991968Y-8055055D01*
X9991968Y-8055055D02*
X10001491Y-8036008D01*
X10001491Y-8036008D02*
X10020539Y-8007436D01*
X10020539Y-8007436D02*
X10030063Y-7997912D01*
X10191968Y-8093150D02*
X10191968Y-8226484D01*
X10144349Y-8016960D02*
X10096730Y-8159817D01*
X10096730Y-8159817D02*
X10220539Y-8159817D01*
X10449111Y-8226484D02*
X10449111Y-8026484D01*
X10534825Y-8226484D02*
X10534825Y-8121722D01*
X10534825Y-8121722D02*
X10525301Y-8102674D01*
X10525301Y-8102674D02*
X10506253Y-8093150D01*
X10506253Y-8093150D02*
X10477682Y-8093150D01*
X10477682Y-8093150D02*
X10458634Y-8102674D01*
X10458634Y-8102674D02*
X10449111Y-8112198D01*
X10658634Y-8226484D02*
X10639587Y-8216960D01*
X10639587Y-8216960D02*
X10630063Y-8207436D01*
X10630063Y-8207436D02*
X10620539Y-8188388D01*
X10620539Y-8188388D02*
X10620539Y-8131246D01*
X10620539Y-8131246D02*
X10630063Y-8112198D01*
X10630063Y-8112198D02*
X10639587Y-8102674D01*
X10639587Y-8102674D02*
X10658634Y-8093150D01*
X10658634Y-8093150D02*
X10687206Y-8093150D01*
X10687206Y-8093150D02*
X10706253Y-8102674D01*
X10706253Y-8102674D02*
X10715777Y-8112198D01*
X10715777Y-8112198D02*
X10725301Y-8131246D01*
X10725301Y-8131246D02*
X10725301Y-8188388D01*
X10725301Y-8188388D02*
X10715777Y-8207436D01*
X10715777Y-8207436D02*
X10706253Y-8216960D01*
X10706253Y-8216960D02*
X10687206Y-8226484D01*
X10687206Y-8226484D02*
X10658634Y-8226484D01*
X10839587Y-8226484D02*
X10820539Y-8216960D01*
X10820539Y-8216960D02*
X10811015Y-8197912D01*
X10811015Y-8197912D02*
X10811015Y-8026484D01*
X10991968Y-8216960D02*
X10972920Y-8226484D01*
X10972920Y-8226484D02*
X10934825Y-8226484D01*
X10934825Y-8226484D02*
X10915777Y-8216960D01*
X10915777Y-8216960D02*
X10906253Y-8197912D01*
X10906253Y-8197912D02*
X10906253Y-8121722D01*
X10906253Y-8121722D02*
X10915777Y-8102674D01*
X10915777Y-8102674D02*
X10934825Y-8093150D01*
X10934825Y-8093150D02*
X10972920Y-8093150D01*
X10972920Y-8093150D02*
X10991968Y-8102674D01*
X10991968Y-8102674D02*
X11001492Y-8121722D01*
X11001492Y-8121722D02*
X11001492Y-8140769D01*
X11001492Y-8140769D02*
X10906253Y-8159817D01*
X11077682Y-8216960D02*
X11096730Y-8226484D01*
X11096730Y-8226484D02*
X11134825Y-8226484D01*
X11134825Y-8226484D02*
X11153873Y-8216960D01*
X11153873Y-8216960D02*
X11163396Y-8197912D01*
X11163396Y-8197912D02*
X11163396Y-8188388D01*
X11163396Y-8188388D02*
X11153873Y-8169341D01*
X11153873Y-8169341D02*
X11134825Y-8159817D01*
X11134825Y-8159817D02*
X11106253Y-8159817D01*
X11106253Y-8159817D02*
X11087206Y-8150293D01*
X11087206Y-8150293D02*
X11077682Y-8131246D01*
X11077682Y-8131246D02*
X11077682Y-8121722D01*
X11077682Y-8121722D02*
X11087206Y-8102674D01*
X11087206Y-8102674D02*
X11106253Y-8093150D01*
X11106253Y-8093150D02*
X11134825Y-8093150D01*
X11134825Y-8093150D02*
X11153873Y-8102674D01*
X11230063Y-8302674D02*
X11239587Y-8293150D01*
X11239587Y-8293150D02*
X11258634Y-8264579D01*
X11258634Y-8264579D02*
X11268158Y-8245531D01*
X11268158Y-8245531D02*
X11277682Y-8216960D01*
X11277682Y-8216960D02*
X11287206Y-8169341D01*
X11287206Y-8169341D02*
X11287206Y-8131246D01*
X11287206Y-8131246D02*
X11277682Y-8083627D01*
X11277682Y-8083627D02*
X11268158Y-8055055D01*
X11268158Y-8055055D02*
X11258634Y-8036008D01*
X11258634Y-8036008D02*
X11239587Y-8007436D01*
X11239587Y-8007436D02*
X11230063Y-7997912D01*
D13*
X6455000Y-8399000D02*
G75*
G03*
X6455000Y-8399000I-25000J0D01*
G01*
D11*
X6753872Y-8290484D02*
X6772920Y-8290484D01*
X6772920Y-8290484D02*
X6791967Y-8300008D01*
X6791967Y-8300008D02*
X6801491Y-8309531D01*
X6801491Y-8309531D02*
X6811015Y-8328579D01*
X6811015Y-8328579D02*
X6820539Y-8366674D01*
X6820539Y-8366674D02*
X6820539Y-8414293D01*
X6820539Y-8414293D02*
X6811015Y-8452389D01*
X6811015Y-8452389D02*
X6801491Y-8471436D01*
X6801491Y-8471436D02*
X6791967Y-8480960D01*
X6791967Y-8480960D02*
X6772920Y-8490484D01*
X6772920Y-8490484D02*
X6753872Y-8490484D01*
X6753872Y-8490484D02*
X6734824Y-8480960D01*
X6734824Y-8480960D02*
X6725301Y-8471436D01*
X6725301Y-8471436D02*
X6715777Y-8452389D01*
X6715777Y-8452389D02*
X6706253Y-8414293D01*
X6706253Y-8414293D02*
X6706253Y-8366674D01*
X6706253Y-8366674D02*
X6715777Y-8328579D01*
X6715777Y-8328579D02*
X6725301Y-8309531D01*
X6725301Y-8309531D02*
X6734824Y-8300008D01*
X6734824Y-8300008D02*
X6753872Y-8290484D01*
X6906253Y-8471436D02*
X6915777Y-8480960D01*
X6915777Y-8480960D02*
X6906253Y-8490484D01*
X6906253Y-8490484D02*
X6896729Y-8480960D01*
X6896729Y-8480960D02*
X6906253Y-8471436D01*
X6906253Y-8471436D02*
X6906253Y-8490484D01*
X7096729Y-8290484D02*
X7001491Y-8290484D01*
X7001491Y-8290484D02*
X6991967Y-8385722D01*
X6991967Y-8385722D02*
X7001491Y-8376198D01*
X7001491Y-8376198D02*
X7020539Y-8366674D01*
X7020539Y-8366674D02*
X7068158Y-8366674D01*
X7068158Y-8366674D02*
X7087205Y-8376198D01*
X7087205Y-8376198D02*
X7096729Y-8385722D01*
X7096729Y-8385722D02*
X7106253Y-8404770D01*
X7106253Y-8404770D02*
X7106253Y-8452389D01*
X7106253Y-8452389D02*
X7096729Y-8471436D01*
X7096729Y-8471436D02*
X7087205Y-8480960D01*
X7087205Y-8480960D02*
X7068158Y-8490484D01*
X7068158Y-8490484D02*
X7020539Y-8490484D01*
X7020539Y-8490484D02*
X7001491Y-8480960D01*
X7001491Y-8480960D02*
X6991967Y-8471436D01*
X7230062Y-8290484D02*
X7249110Y-8290484D01*
X7249110Y-8290484D02*
X7268158Y-8300008D01*
X7268158Y-8300008D02*
X7277682Y-8309531D01*
X7277682Y-8309531D02*
X7287205Y-8328579D01*
X7287205Y-8328579D02*
X7296729Y-8366674D01*
X7296729Y-8366674D02*
X7296729Y-8414293D01*
X7296729Y-8414293D02*
X7287205Y-8452389D01*
X7287205Y-8452389D02*
X7277682Y-8471436D01*
X7277682Y-8471436D02*
X7268158Y-8480960D01*
X7268158Y-8480960D02*
X7249110Y-8490484D01*
X7249110Y-8490484D02*
X7230062Y-8490484D01*
X7230062Y-8490484D02*
X7211015Y-8480960D01*
X7211015Y-8480960D02*
X7201491Y-8471436D01*
X7201491Y-8471436D02*
X7191967Y-8452389D01*
X7191967Y-8452389D02*
X7182443Y-8414293D01*
X7182443Y-8414293D02*
X7182443Y-8366674D01*
X7182443Y-8366674D02*
X7191967Y-8328579D01*
X7191967Y-8328579D02*
X7201491Y-8309531D01*
X7201491Y-8309531D02*
X7211015Y-8300008D01*
X7211015Y-8300008D02*
X7230062Y-8290484D01*
X7420539Y-8290484D02*
X7439586Y-8290484D01*
X7439586Y-8290484D02*
X7458634Y-8300008D01*
X7458634Y-8300008D02*
X7468158Y-8309531D01*
X7468158Y-8309531D02*
X7477682Y-8328579D01*
X7477682Y-8328579D02*
X7487205Y-8366674D01*
X7487205Y-8366674D02*
X7487205Y-8414293D01*
X7487205Y-8414293D02*
X7477682Y-8452389D01*
X7477682Y-8452389D02*
X7468158Y-8471436D01*
X7468158Y-8471436D02*
X7458634Y-8480960D01*
X7458634Y-8480960D02*
X7439586Y-8490484D01*
X7439586Y-8490484D02*
X7420539Y-8490484D01*
X7420539Y-8490484D02*
X7401491Y-8480960D01*
X7401491Y-8480960D02*
X7391967Y-8471436D01*
X7391967Y-8471436D02*
X7382443Y-8452389D01*
X7382443Y-8452389D02*
X7372920Y-8414293D01*
X7372920Y-8414293D02*
X7372920Y-8366674D01*
X7372920Y-8366674D02*
X7382443Y-8328579D01*
X7382443Y-8328579D02*
X7391967Y-8309531D01*
X7391967Y-8309531D02*
X7401491Y-8300008D01*
X7401491Y-8300008D02*
X7420539Y-8290484D01*
X7572920Y-8490484D02*
X7572920Y-8357150D01*
X7572920Y-8376198D02*
X7582443Y-8366674D01*
X7582443Y-8366674D02*
X7601491Y-8357150D01*
X7601491Y-8357150D02*
X7630063Y-8357150D01*
X7630063Y-8357150D02*
X7649110Y-8366674D01*
X7649110Y-8366674D02*
X7658634Y-8385722D01*
X7658634Y-8385722D02*
X7658634Y-8490484D01*
X7658634Y-8385722D02*
X7668158Y-8366674D01*
X7668158Y-8366674D02*
X7687205Y-8357150D01*
X7687205Y-8357150D02*
X7715777Y-8357150D01*
X7715777Y-8357150D02*
X7734824Y-8366674D01*
X7734824Y-8366674D02*
X7744348Y-8385722D01*
X7744348Y-8385722D02*
X7744348Y-8490484D01*
X7839586Y-8490484D02*
X7839586Y-8357150D01*
X7839586Y-8376198D02*
X7849110Y-8366674D01*
X7849110Y-8366674D02*
X7868158Y-8357150D01*
X7868158Y-8357150D02*
X7896729Y-8357150D01*
X7896729Y-8357150D02*
X7915777Y-8366674D01*
X7915777Y-8366674D02*
X7925301Y-8385722D01*
X7925301Y-8385722D02*
X7925301Y-8490484D01*
X7925301Y-8385722D02*
X7934824Y-8366674D01*
X7934824Y-8366674D02*
X7953872Y-8357150D01*
X7953872Y-8357150D02*
X7982443Y-8357150D01*
X7982443Y-8357150D02*
X8001491Y-8366674D01*
X8001491Y-8366674D02*
X8011015Y-8385722D01*
X8011015Y-8385722D02*
X8011015Y-8490484D01*
X8401491Y-8280960D02*
X8230063Y-8538103D01*
X8658634Y-8290484D02*
X8677682Y-8290484D01*
X8677682Y-8290484D02*
X8696729Y-8300008D01*
X8696729Y-8300008D02*
X8706253Y-8309531D01*
X8706253Y-8309531D02*
X8715777Y-8328579D01*
X8715777Y-8328579D02*
X8725301Y-8366674D01*
X8725301Y-8366674D02*
X8725301Y-8414293D01*
X8725301Y-8414293D02*
X8715777Y-8452389D01*
X8715777Y-8452389D02*
X8706253Y-8471436D01*
X8706253Y-8471436D02*
X8696729Y-8480960D01*
X8696729Y-8480960D02*
X8677682Y-8490484D01*
X8677682Y-8490484D02*
X8658634Y-8490484D01*
X8658634Y-8490484D02*
X8639587Y-8480960D01*
X8639587Y-8480960D02*
X8630063Y-8471436D01*
X8630063Y-8471436D02*
X8620539Y-8452389D01*
X8620539Y-8452389D02*
X8611015Y-8414293D01*
X8611015Y-8414293D02*
X8611015Y-8366674D01*
X8611015Y-8366674D02*
X8620539Y-8328579D01*
X8620539Y-8328579D02*
X8630063Y-8309531D01*
X8630063Y-8309531D02*
X8639587Y-8300008D01*
X8639587Y-8300008D02*
X8658634Y-8290484D01*
X8811015Y-8471436D02*
X8820539Y-8480960D01*
X8820539Y-8480960D02*
X8811015Y-8490484D01*
X8811015Y-8490484D02*
X8801491Y-8480960D01*
X8801491Y-8480960D02*
X8811015Y-8471436D01*
X8811015Y-8471436D02*
X8811015Y-8490484D01*
X8944348Y-8290484D02*
X8963396Y-8290484D01*
X8963396Y-8290484D02*
X8982444Y-8300008D01*
X8982444Y-8300008D02*
X8991968Y-8309531D01*
X8991968Y-8309531D02*
X9001491Y-8328579D01*
X9001491Y-8328579D02*
X9011015Y-8366674D01*
X9011015Y-8366674D02*
X9011015Y-8414293D01*
X9011015Y-8414293D02*
X9001491Y-8452389D01*
X9001491Y-8452389D02*
X8991968Y-8471436D01*
X8991968Y-8471436D02*
X8982444Y-8480960D01*
X8982444Y-8480960D02*
X8963396Y-8490484D01*
X8963396Y-8490484D02*
X8944348Y-8490484D01*
X8944348Y-8490484D02*
X8925301Y-8480960D01*
X8925301Y-8480960D02*
X8915777Y-8471436D01*
X8915777Y-8471436D02*
X8906253Y-8452389D01*
X8906253Y-8452389D02*
X8896729Y-8414293D01*
X8896729Y-8414293D02*
X8896729Y-8366674D01*
X8896729Y-8366674D02*
X8906253Y-8328579D01*
X8906253Y-8328579D02*
X8915777Y-8309531D01*
X8915777Y-8309531D02*
X8925301Y-8300008D01*
X8925301Y-8300008D02*
X8944348Y-8290484D01*
X9201491Y-8490484D02*
X9087206Y-8490484D01*
X9144348Y-8490484D02*
X9144348Y-8290484D01*
X9144348Y-8290484D02*
X9125301Y-8319055D01*
X9125301Y-8319055D02*
X9106253Y-8338103D01*
X9106253Y-8338103D02*
X9087206Y-8347627D01*
X9296729Y-8490484D02*
X9334825Y-8490484D01*
X9334825Y-8490484D02*
X9353872Y-8480960D01*
X9353872Y-8480960D02*
X9363396Y-8471436D01*
X9363396Y-8471436D02*
X9382444Y-8442865D01*
X9382444Y-8442865D02*
X9391968Y-8404770D01*
X9391968Y-8404770D02*
X9391968Y-8328579D01*
X9391968Y-8328579D02*
X9382444Y-8309531D01*
X9382444Y-8309531D02*
X9372920Y-8300008D01*
X9372920Y-8300008D02*
X9353872Y-8290484D01*
X9353872Y-8290484D02*
X9315777Y-8290484D01*
X9315777Y-8290484D02*
X9296729Y-8300008D01*
X9296729Y-8300008D02*
X9287206Y-8309531D01*
X9287206Y-8309531D02*
X9277682Y-8328579D01*
X9277682Y-8328579D02*
X9277682Y-8376198D01*
X9277682Y-8376198D02*
X9287206Y-8395246D01*
X9287206Y-8395246D02*
X9296729Y-8404770D01*
X9296729Y-8404770D02*
X9315777Y-8414293D01*
X9315777Y-8414293D02*
X9353872Y-8414293D01*
X9353872Y-8414293D02*
X9372920Y-8404770D01*
X9372920Y-8404770D02*
X9382444Y-8395246D01*
X9382444Y-8395246D02*
X9391968Y-8376198D01*
X9458634Y-8290484D02*
X9591968Y-8290484D01*
X9591968Y-8290484D02*
X9506253Y-8490484D01*
X9658634Y-8290484D02*
X9658634Y-8328579D01*
X9734825Y-8290484D02*
X9734825Y-8328579D01*
X10030063Y-8566674D02*
X10020539Y-8557150D01*
X10020539Y-8557150D02*
X10001491Y-8528579D01*
X10001491Y-8528579D02*
X9991968Y-8509531D01*
X9991968Y-8509531D02*
X9982444Y-8480960D01*
X9982444Y-8480960D02*
X9972920Y-8433341D01*
X9972920Y-8433341D02*
X9972920Y-8395246D01*
X9972920Y-8395246D02*
X9982444Y-8347627D01*
X9982444Y-8347627D02*
X9991968Y-8319055D01*
X9991968Y-8319055D02*
X10001491Y-8300008D01*
X10001491Y-8300008D02*
X10020539Y-8271436D01*
X10020539Y-8271436D02*
X10030063Y-8261912D01*
X10191968Y-8357150D02*
X10191968Y-8490484D01*
X10144349Y-8280960D02*
X10096730Y-8423817D01*
X10096730Y-8423817D02*
X10220539Y-8423817D01*
X10449111Y-8490484D02*
X10449111Y-8290484D01*
X10534825Y-8490484D02*
X10534825Y-8385722D01*
X10534825Y-8385722D02*
X10525301Y-8366674D01*
X10525301Y-8366674D02*
X10506253Y-8357150D01*
X10506253Y-8357150D02*
X10477682Y-8357150D01*
X10477682Y-8357150D02*
X10458634Y-8366674D01*
X10458634Y-8366674D02*
X10449111Y-8376198D01*
X10658634Y-8490484D02*
X10639587Y-8480960D01*
X10639587Y-8480960D02*
X10630063Y-8471436D01*
X10630063Y-8471436D02*
X10620539Y-8452389D01*
X10620539Y-8452389D02*
X10620539Y-8395246D01*
X10620539Y-8395246D02*
X10630063Y-8376198D01*
X10630063Y-8376198D02*
X10639587Y-8366674D01*
X10639587Y-8366674D02*
X10658634Y-8357150D01*
X10658634Y-8357150D02*
X10687206Y-8357150D01*
X10687206Y-8357150D02*
X10706253Y-8366674D01*
X10706253Y-8366674D02*
X10715777Y-8376198D01*
X10715777Y-8376198D02*
X10725301Y-8395246D01*
X10725301Y-8395246D02*
X10725301Y-8452389D01*
X10725301Y-8452389D02*
X10715777Y-8471436D01*
X10715777Y-8471436D02*
X10706253Y-8480960D01*
X10706253Y-8480960D02*
X10687206Y-8490484D01*
X10687206Y-8490484D02*
X10658634Y-8490484D01*
X10839587Y-8490484D02*
X10820539Y-8480960D01*
X10820539Y-8480960D02*
X10811015Y-8461912D01*
X10811015Y-8461912D02*
X10811015Y-8290484D01*
X10991968Y-8480960D02*
X10972920Y-8490484D01*
X10972920Y-8490484D02*
X10934825Y-8490484D01*
X10934825Y-8490484D02*
X10915777Y-8480960D01*
X10915777Y-8480960D02*
X10906253Y-8461912D01*
X10906253Y-8461912D02*
X10906253Y-8385722D01*
X10906253Y-8385722D02*
X10915777Y-8366674D01*
X10915777Y-8366674D02*
X10934825Y-8357150D01*
X10934825Y-8357150D02*
X10972920Y-8357150D01*
X10972920Y-8357150D02*
X10991968Y-8366674D01*
X10991968Y-8366674D02*
X11001492Y-8385722D01*
X11001492Y-8385722D02*
X11001492Y-8404770D01*
X11001492Y-8404770D02*
X10906253Y-8423817D01*
X11077682Y-8480960D02*
X11096730Y-8490484D01*
X11096730Y-8490484D02*
X11134825Y-8490484D01*
X11134825Y-8490484D02*
X11153873Y-8480960D01*
X11153873Y-8480960D02*
X11163396Y-8461912D01*
X11163396Y-8461912D02*
X11163396Y-8452389D01*
X11163396Y-8452389D02*
X11153873Y-8433341D01*
X11153873Y-8433341D02*
X11134825Y-8423817D01*
X11134825Y-8423817D02*
X11106253Y-8423817D01*
X11106253Y-8423817D02*
X11087206Y-8414293D01*
X11087206Y-8414293D02*
X11077682Y-8395246D01*
X11077682Y-8395246D02*
X11077682Y-8385722D01*
X11077682Y-8385722D02*
X11087206Y-8366674D01*
X11087206Y-8366674D02*
X11106253Y-8357150D01*
X11106253Y-8357150D02*
X11134825Y-8357150D01*
X11134825Y-8357150D02*
X11153873Y-8366674D01*
X11230063Y-8566674D02*
X11239587Y-8557150D01*
X11239587Y-8557150D02*
X11258634Y-8528579D01*
X11258634Y-8528579D02*
X11268158Y-8509531D01*
X11268158Y-8509531D02*
X11277682Y-8480960D01*
X11277682Y-8480960D02*
X11287206Y-8433341D01*
X11287206Y-8433341D02*
X11287206Y-8395246D01*
X11287206Y-8395246D02*
X11277682Y-8347627D01*
X11277682Y-8347627D02*
X11268158Y-8319055D01*
X11268158Y-8319055D02*
X11258634Y-8300008D01*
X11258634Y-8300008D02*
X11239587Y-8271436D01*
X11239587Y-8271436D02*
X11230063Y-8261912D01*
M02*
