M48
INCH
T1C0.0197
%
G90
G05
T1
X0.0Y-0.2756
X0.0Y-3.4252
X0.0328Y-0.2756
X0.0328Y-3.4252
X0.0656Y-0.2756
X0.0656Y-3.4252
X0.0984Y-0.2756
X0.0984Y-3.4252
X0.1312Y-0.2756
X0.1312Y-3.4252
X0.164Y-0.2756
X0.164Y-3.4252
X0.1969Y-0.2756
X0.1969Y-3.4252
X0.2707Y-0.5295
X0.2707Y-1.1752
X0.2707Y-1.8209
X0.2707Y-2.4665
X0.2707Y-3.1122
X0.2707Y-0.5886
X0.2707Y-1.2343
X0.2707Y-1.8799
X0.2707Y-2.5256
X0.2707Y-3.1713
X0.2756Y0.0
X0.2756Y-0.0328
X0.2756Y-0.0656
X0.2756Y-0.0984
X0.2756Y-0.1312
X0.2756Y-0.164
X0.2756Y-0.1969
X0.2756Y-3.5039
X0.2756Y-3.5367
X0.2756Y-3.5696
X0.2756Y-3.6024
X0.2756Y-3.6352
X0.2756Y-3.668
X0.2756Y-3.7008
X0.4941Y-0.2707
X0.4941Y-0.8474
X0.4941Y-0.9163
X0.4941Y-1.4931
X0.4941Y-1.562
X0.4941Y-2.1388
X0.4941Y-2.2077
X0.4941Y-2.7844
X0.4941Y-2.8533
X0.4941Y-3.4301
X0.5531Y-0.2707
X0.5531Y-0.8474
X0.5531Y-0.9163
X0.5531Y-1.4931
X0.5531Y-1.562
X0.5531Y-2.1388
X0.5531Y-2.2077
X0.5531Y-2.7844
X0.5531Y-2.8533
X0.5531Y-3.4301
X0.7766Y-0.5295
X0.7766Y-0.5886
X0.7766Y-1.1752
X0.7766Y-1.2343
X0.7766Y-1.8209
X0.7766Y-1.8799
X0.7766Y-2.4665
X0.7766Y-2.5256
X0.7766Y-3.1122
X0.7766Y-3.1713
X0.8455Y-0.5295
X0.8455Y-1.1752
X0.8455Y-1.8209
X0.8455Y-2.4665
X0.8455Y-3.1122
X0.8455Y-0.5886
X0.8455Y-1.2343
X0.8455Y-1.8799
X0.8455Y-2.5256
X0.8455Y-3.1713
X1.0689Y-0.2707
X1.0689Y-0.8474
X1.0689Y-0.9163
X1.0689Y-1.4931
X1.0689Y-1.562
X1.0689Y-2.1388
X1.0689Y-2.2077
X1.0689Y-2.7844
X1.0689Y-2.8533
X1.0689Y-3.4301
X1.128Y-0.2707
X1.128Y-0.8474
X1.128Y-0.9163
X1.128Y-1.4931
X1.128Y-1.562
X1.128Y-2.1388
X1.128Y-2.2077
X1.128Y-2.7844
X1.128Y-2.8533
X1.128Y-3.4301
X1.3514Y-0.5295
X1.3514Y-0.5886
X1.3514Y-1.1752
X1.3514Y-1.2343
X1.3514Y-1.8209
X1.3514Y-1.8799
X1.3514Y-2.4665
X1.3514Y-2.5256
X1.3514Y-3.1122
X1.3514Y-3.1713
X1.4203Y-0.5295
X1.4203Y-1.1752
X1.4203Y-1.8209
X1.4203Y-2.4665
X1.4203Y-3.1122
X1.4203Y-0.5886
X1.4203Y-1.2343
X1.4203Y-1.8799
X1.4203Y-2.5256
X1.4203Y-3.1713
X1.6437Y-0.2707
X1.6437Y-0.8474
X1.6437Y-0.9163
X1.6437Y-1.4931
X1.6437Y-1.562
X1.6437Y-2.1388
X1.6437Y-2.2077
X1.6437Y-2.7844
X1.6437Y-2.8533
X1.6437Y-3.4301
X1.7028Y-0.2707
X1.7028Y-0.8474
X1.7028Y-0.9163
X1.7028Y-1.4931
X1.7028Y-1.562
X1.7028Y-2.1388
X1.7028Y-2.2077
X1.7028Y-2.7844
X1.7028Y-2.8533
X1.7028Y-3.4301
X1.9262Y-0.5295
X1.9262Y-0.5886
X1.9262Y-1.1752
X1.9262Y-1.2343
X1.9262Y-1.8209
X1.9262Y-1.8799
X1.9262Y-2.4665
X1.9262Y-2.5256
X1.9262Y-3.1122
X1.9262Y-3.1713
X1.9951Y-0.5295
X1.9951Y-1.1752
X1.9951Y-1.8209
X1.9951Y-2.4665
X1.9951Y-3.1122
X1.9951Y-0.5886
X1.9951Y-1.2343
X1.9951Y-1.8799
X1.9951Y-2.5256
X1.9951Y-3.1713
X2.2185Y-0.2707
X2.2185Y-0.8474
X2.2185Y-0.9163
X2.2185Y-1.4931
X2.2185Y-1.562
X2.2185Y-2.1388
X2.2185Y-2.2077
X2.2185Y-2.7844
X2.2185Y-2.8533
X2.2185Y-3.4301
X2.2776Y-0.2707
X2.2776Y-0.8474
X2.2776Y-0.9163
X2.2776Y-1.4931
X2.2776Y-1.562
X2.2776Y-2.1388
X2.2776Y-2.2077
X2.2776Y-2.7844
X2.2776Y-2.8533
X2.2776Y-3.4301
X2.501Y-0.5295
X2.501Y-0.5886
X2.501Y-1.1752
X2.501Y-1.2343
X2.501Y-1.8209
X2.501Y-1.8799
X2.501Y-2.4665
X2.501Y-2.5256
X2.501Y-3.1122
X2.501Y-3.1713
X2.5699Y-0.5295
X2.5699Y-1.1752
X2.5699Y-1.8209
X2.5699Y-2.4665
X2.5699Y-3.1122
X2.5699Y-0.5886
X2.5699Y-1.2343
X2.5699Y-1.8799
X2.5699Y-2.5256
X2.5699Y-3.1713
X2.7933Y-0.2707
X2.7933Y-0.8474
X2.7933Y-0.9163
X2.7933Y-1.4931
X2.7933Y-1.562
X2.7933Y-2.1388
X2.7933Y-2.2077
X2.7933Y-2.7844
X2.7933Y-2.8533
X2.7933Y-3.4301
X2.8524Y-0.2707
X2.8524Y-0.8474
X2.8524Y-0.9163
X2.8524Y-1.4931
X2.8524Y-1.562
X2.8524Y-2.1388
X2.8524Y-2.2077
X2.8524Y-2.7844
X2.8524Y-2.8533
X2.8524Y-3.4301
X3.0709Y0.0
X3.0709Y-0.0328
X3.0709Y-0.0656
X3.0709Y-0.0984
X3.0709Y-0.1312
X3.0709Y-0.164
X3.0709Y-0.1969
X3.0709Y-3.5039
X3.0709Y-3.5367
X3.0709Y-3.5696
X3.0709Y-3.6024
X3.0709Y-3.6352
X3.0709Y-3.668
X3.0709Y-3.7008
X3.0758Y-0.5295
X3.0758Y-0.5886
X3.0758Y-1.1752
X3.0758Y-1.2343
X3.0758Y-1.8209
X3.0758Y-1.8799
X3.0758Y-2.4665
X3.0758Y-2.5256
X3.0758Y-3.1122
X3.0758Y-3.1713
X3.1496Y-0.2756
X3.1496Y-3.4252
X3.1824Y-0.2756
X3.1824Y-3.4252
X3.2152Y-0.2756
X3.2152Y-3.4252
X3.248Y-0.2756
X3.248Y-3.4252
X3.2808Y-0.2756
X3.2808Y-3.4252
X3.3136Y-0.2756
X3.3136Y-3.4252
X3.3465Y-0.2756
X3.3465Y-3.4252
T0
M30
