%TF.GenerationSoftware,KiCad,Pcbnew,7.0.5-1.fc38*%
%TF.CreationDate,2023-07-07T14:10:54-04:00*%
%TF.ProjectId,bno085-i2c-board-v3-panel-base,626e6f30-3835-42d6-9932-632d626f6172,rev?*%
%TF.SameCoordinates,Original*%
%TF.FileFunction,Copper,L1,Top*%
%TF.FilePolarity,Positive*%
%FSLAX46Y46*%
G04 Gerber Fmt 4.6, Leading zero omitted, Abs format (unit mm)*
G04 Created by KiCad (PCBNEW 7.0.5-1.fc38) date 2023-07-07 14:10:54*
%MOMM*%
%LPD*%
G01*
G04 APERTURE LIST*
G04 Aperture macros list*
%AMRoundRect*
0 Rectangle with rounded corners*
0 $1 Rounding radius*
0 $2 $3 $4 $5 $6 $7 $8 $9 X,Y pos of 4 corners*
0 Add a 4 corners polygon primitive as box body*
4,1,4,$2,$3,$4,$5,$6,$7,$8,$9,$2,$3,0*
0 Add four circle primitives for the rounded corners*
1,1,$1+$1,$2,$3*
1,1,$1+$1,$4,$5*
1,1,$1+$1,$6,$7*
1,1,$1+$1,$8,$9*
0 Add four rect primitives between the rounded corners*
20,1,$1+$1,$2,$3,$4,$5,0*
20,1,$1+$1,$4,$5,$6,$7,0*
20,1,$1+$1,$6,$7,$8,$9,0*
20,1,$1+$1,$8,$9,$2,$3,0*%
G04 Aperture macros list end*
%TA.AperFunction,ComponentPad*%
%ADD10R,0.850000X0.850000*%
%TD*%
%TA.AperFunction,SMDPad,CuDef*%
%ADD11RoundRect,0.140000X-0.170000X0.140000X-0.170000X-0.140000X0.170000X-0.140000X0.170000X0.140000X0*%
%TD*%
%TA.AperFunction,SMDPad,CuDef*%
%ADD12R,0.254000X0.675000*%
%TD*%
%TA.AperFunction,SMDPad,CuDef*%
%ADD13R,0.675000X0.254000*%
%TD*%
%TA.AperFunction,SMDPad,CuDef*%
%ADD14RoundRect,0.135000X0.185000X-0.135000X0.185000X0.135000X-0.185000X0.135000X-0.185000X-0.135000X0*%
%TD*%
%TA.AperFunction,SMDPad,CuDef*%
%ADD15RoundRect,0.135000X-0.185000X0.135000X-0.185000X-0.135000X0.185000X-0.135000X0.185000X0.135000X0*%
%TD*%
%TA.AperFunction,ViaPad*%
%ADD16C,0.800000*%
%TD*%
%TA.AperFunction,Conductor*%
%ADD17C,0.250000*%
%TD*%
G04 APERTURE END LIST*
D10*
%TO.P,J3,1,Pin_1*%
%TO.N,+3.3V*%
X83750000Y-66250000D03*
%TD*%
D11*
%TO.P,C1,1*%
%TO.N,Net-(U1-CAP)*%
X86366101Y-68936347D03*
%TO.P,C1,2*%
%TO.N,GND*%
X86366101Y-69896347D03*
%TD*%
D12*
%TO.P,U1,1,RESV_NC*%
%TO.N,unconnected-(U1-RESV_NC-Pad1)*%
X85750000Y-64587500D03*
D13*
%TO.P,U1,2,GND*%
%TO.N,GND*%
X85612500Y-65500000D03*
%TO.P,U1,3,VDD*%
%TO.N,+3.3V*%
X85612500Y-66000000D03*
%TO.P,U1,4,BOOTN*%
%TO.N,Net-(U1-BOOTN)*%
X85612500Y-66500000D03*
%TO.P,U1,5,PS1*%
%TO.N,GND*%
X85612500Y-67000000D03*
D12*
%TO.P,U1,6,PS0/WAKE*%
X85750000Y-67912500D03*
%TO.P,U1,7,RESV_NC*%
%TO.N,unconnected-(U1-RESV_NC-Pad7)*%
X86250000Y-67912500D03*
%TO.P,U1,8,RESV_NC*%
%TO.N,unconnected-(U1-RESV_NC-Pad8)*%
X86750000Y-67912500D03*
%TO.P,U1,9,CAP*%
%TO.N,Net-(U1-CAP)*%
X87250000Y-67912500D03*
%TO.P,U1,10,CLKSEL0*%
%TO.N,+3.3V*%
X87750000Y-67912500D03*
%TO.P,U1,11,NRST*%
%TO.N,unconnected-(U1-NRST-Pad11)*%
X88250000Y-67912500D03*
%TO.P,U1,12,RESV_NC*%
%TO.N,unconnected-(U1-RESV_NC-Pad12)*%
X88750000Y-67912500D03*
%TO.P,U1,13,RESV_NC*%
%TO.N,unconnected-(U1-RESV_NC-Pad13)*%
X89250000Y-67912500D03*
%TO.P,U1,14,H_INTN*%
%TO.N,unconnected-(U1-H_INTN-Pad14)*%
X89750000Y-67912500D03*
%TO.P,U1,15,ENV_SCL*%
%TO.N,Net-(U1-ENV_SCL)*%
X90250000Y-67912500D03*
D13*
%TO.P,U1,16,ENV_SDA*%
%TO.N,Net-(U1-ENV_SDA)*%
X90387500Y-67000000D03*
%TO.P,U1,17,SA0/H_MOSI*%
%TO.N,GND*%
X90387500Y-66500000D03*
%TO.P,U1,18,H_CSN*%
%TO.N,unconnected-(U1-H_CSN-Pad18)*%
X90387500Y-66000000D03*
%TO.P,U1,19,H_SCL/SCK/RX*%
%TO.N,Net-(J2-Pin_1)*%
X90387500Y-65500000D03*
D12*
%TO.P,U1,20,H_SDA/H_MISO/TX*%
%TO.N,Net-(J1-Pin_1)*%
X90250000Y-64587500D03*
%TO.P,U1,21,RESV_NC*%
%TO.N,unconnected-(U1-RESV_NC-Pad21)*%
X89750000Y-64587500D03*
%TO.P,U1,22,RESV_NC*%
%TO.N,unconnected-(U1-RESV_NC-Pad22)*%
X89250000Y-64587500D03*
%TO.P,U1,23,RESV_NC*%
%TO.N,unconnected-(U1-RESV_NC-Pad23)*%
X88750000Y-64587500D03*
%TO.P,U1,24,RESV_NC*%
%TO.N,unconnected-(U1-RESV_NC-Pad24)*%
X88250000Y-64587500D03*
%TO.P,U1,25,GNDIO*%
%TO.N,GND*%
X87750000Y-64587500D03*
%TO.P,U1,26,XOUT32/CLKSEL1*%
X87250000Y-64587500D03*
%TO.P,U1,27,XIN32*%
%TO.N,unconnected-(U1-XIN32-Pad27)*%
X86750000Y-64587500D03*
%TO.P,U1,28,VDDIO*%
%TO.N,+3.3V*%
X86250000Y-64587500D03*
%TD*%
D10*
%TO.P,J4,1,Pin_1*%
%TO.N,GND*%
X92250000Y-66250000D03*
%TD*%
D14*
%TO.P,R4,1*%
%TO.N,Net-(J1-Pin_1)*%
X89952362Y-63556026D03*
%TO.P,R4,2*%
%TO.N,+3.3V*%
X89952362Y-62536026D03*
%TD*%
D10*
%TO.P,J2,1,Pin_1*%
%TO.N,Net-(J2-Pin_1)*%
X88000000Y-70500000D03*
%TD*%
D14*
%TO.P,R1,1*%
%TO.N,+3.3V*%
X89945121Y-69957561D03*
%TO.P,R1,2*%
%TO.N,Net-(U1-ENV_SCL)*%
X89945121Y-68937561D03*
%TD*%
D15*
%TO.P,R5,1*%
%TO.N,+3.3V*%
X91463430Y-63740000D03*
%TO.P,R5,2*%
%TO.N,Net-(J2-Pin_1)*%
X91463430Y-64760000D03*
%TD*%
D10*
%TO.P,J1,1,Pin_1*%
%TO.N,Net-(J1-Pin_1)*%
X88000000Y-62000000D03*
%TD*%
D15*
%TO.P,R3,1*%
%TO.N,Net-(U1-BOOTN)*%
X84519054Y-67752703D03*
%TO.P,R3,2*%
%TO.N,+3.3V*%
X84519054Y-68772703D03*
%TD*%
%TO.P,R2,1*%
%TO.N,Net-(U1-ENV_SDA)*%
X91457740Y-67731381D03*
%TO.P,R2,2*%
%TO.N,+3.3V*%
X91457740Y-68751381D03*
%TD*%
D16*
%TO.N,GND*%
X87500000Y-65500000D03*
X86578453Y-66853052D03*
%TO.N,Net-(J2-Pin_1)*%
X89012299Y-65737701D03*
%TO.N,+3.3V*%
X90750000Y-62750000D03*
X85006858Y-69603405D03*
X91000000Y-69500000D03*
%TD*%
D17*
%TO.N,Net-(U1-CAP)*%
X87250000Y-68527000D02*
X87250000Y-67912500D01*
X86366101Y-68936347D02*
X86840653Y-68936347D01*
X86840653Y-68936347D02*
X87250000Y-68527000D01*
%TO.N,GND*%
X92000000Y-66500000D02*
X90387500Y-66500000D01*
X87750000Y-64587500D02*
X87750000Y-65250000D01*
X85731101Y-69268956D02*
X85731101Y-67931399D01*
X85750000Y-67912500D02*
X85750000Y-67137500D01*
X86358492Y-69896347D02*
X85731101Y-69268956D01*
X85731101Y-67931399D02*
X85750000Y-67912500D01*
X85612500Y-65500000D02*
X85862500Y-65250000D01*
X88500000Y-66500000D02*
X87500000Y-65500000D01*
X85862500Y-65250000D02*
X87250000Y-65250000D01*
X86366101Y-69896347D02*
X86358492Y-69896347D01*
X92250000Y-66250000D02*
X92000000Y-66500000D01*
X87750000Y-65250000D02*
X87500000Y-65500000D01*
X86431505Y-67000000D02*
X85612500Y-67000000D01*
X85750000Y-67137500D02*
X85612500Y-67000000D01*
X90387500Y-66500000D02*
X88500000Y-66500000D01*
X87250000Y-64587500D02*
X87250000Y-65250000D01*
X87250000Y-65250000D02*
X87500000Y-65500000D01*
X86578453Y-66853052D02*
X86431505Y-67000000D01*
%TO.N,Net-(J1-Pin_1)*%
X90250000Y-63853664D02*
X90250000Y-64587500D01*
X89952362Y-63556026D02*
X88396336Y-62000000D01*
X88396336Y-62000000D02*
X88000000Y-62000000D01*
X89952362Y-63556026D02*
X90250000Y-63853664D01*
%TO.N,Net-(J2-Pin_1)*%
X91127500Y-64760000D02*
X90387500Y-65500000D01*
X91463430Y-64760000D02*
X91127500Y-64760000D01*
X89250000Y-65500000D02*
X90387500Y-65500000D01*
X89012299Y-65737701D02*
X89250000Y-65500000D01*
%TO.N,+3.3V*%
X86027000Y-63750000D02*
X86250000Y-63973000D01*
X83750000Y-65500000D02*
X85500000Y-63750000D01*
X90750000Y-63026570D02*
X91463430Y-63740000D01*
X90750000Y-62750000D02*
X90166336Y-62750000D01*
X87750000Y-67000000D02*
X87750000Y-67912500D01*
X90542439Y-69957561D02*
X91000000Y-69500000D01*
X85612500Y-66000000D02*
X86750000Y-66000000D01*
X85006858Y-69603405D02*
X84519054Y-69115601D01*
X91457740Y-68751381D02*
X91457740Y-69042260D01*
X83750000Y-66250000D02*
X83750000Y-65500000D01*
X91457740Y-69042260D02*
X91000000Y-69500000D01*
X85500000Y-63750000D02*
X86027000Y-63750000D01*
X86250000Y-63973000D02*
X86250000Y-64587500D01*
X89945121Y-69957561D02*
X90542439Y-69957561D01*
X84000000Y-66000000D02*
X85612500Y-66000000D01*
X90750000Y-62750000D02*
X90750000Y-63026570D01*
X86750000Y-66000000D02*
X87750000Y-67000000D01*
X84519054Y-69115601D02*
X84519054Y-68772703D01*
X90166336Y-62750000D02*
X89952362Y-62536026D01*
X83750000Y-66250000D02*
X84000000Y-66000000D01*
%TO.N,Net-(U1-ENV_SCL)*%
X90250000Y-68632682D02*
X90250000Y-67912500D01*
X89945121Y-68937561D02*
X90250000Y-68632682D01*
%TO.N,Net-(U1-ENV_SDA)*%
X90726359Y-67000000D02*
X91457740Y-67731381D01*
X90387500Y-67000000D02*
X90726359Y-67000000D01*
%TO.N,Net-(U1-BOOTN)*%
X84998000Y-66500000D02*
X85612500Y-66500000D01*
X84519054Y-67752703D02*
X84519054Y-66978946D01*
X84519054Y-66978946D02*
X84998000Y-66500000D01*
%TD*%
M02*
