%TF.GenerationSoftware,KiCad,Pcbnew,7.0.5-1.fc38*%
%TF.CreationDate,2023-07-07T14:16:01-04:00*%
%TF.ProjectId,bno085-i2c-board-v3-panel,626e6f30-3835-42d6-9932-632d626f6172,rev?*%
%TF.SameCoordinates,Original*%
%TF.FileFunction,Profile,NP*%
%FSLAX46Y46*%
G04 Gerber Fmt 4.6, Leading zero omitted, Abs format (unit mm)*
G04 Created by KiCad (PCBNEW 7.0.5-1.fc38) date 2023-07-07 14:16:01*
%MOMM*%
%LPD*%
G01*
G04 APERTURE LIST*
%TA.AperFunction,Profile*%
%ADD10C,0.100000*%
%TD*%
G04 APERTURE END LIST*
D10*
X126257160Y-63154910D02*
X126005573Y-63070928D01*
X134471954Y-63409252D02*
X134446730Y-63562830D01*
X163646588Y-39918152D02*
X163432427Y-39761678D01*
X128414563Y-28647584D02*
X128236912Y-28450635D01*
X158054560Y-76572966D02*
X157969546Y-76703331D01*
X162745717Y-36638884D02*
X162981395Y-36517209D01*
X141429071Y-30494426D02*
X141345089Y-30242839D01*
X165499999Y-81000000D02*
X166500000Y-81000000D01*
X162981395Y-27482790D02*
X162745717Y-27361115D01*
X143500000Y-57249999D02*
X143570928Y-57505573D01*
X177500000Y-45250000D02*
X177499999Y-45000000D01*
X169567572Y-36238321D02*
X169789499Y-36383570D01*
X121789499Y-48383570D02*
X122018604Y-48517209D01*
X120799897Y-29703750D02*
X120657928Y-29767526D01*
X168214893Y-77913576D02*
X168062830Y-77946730D01*
X162257160Y-27154910D02*
X162005573Y-27070928D01*
X177138884Y-29754282D02*
X177017209Y-29518604D01*
X127852415Y-47914563D02*
X128049364Y-47736912D01*
X134761152Y-63148311D02*
X134624412Y-63199514D01*
X170267526Y-28157928D02*
X170203750Y-28299897D01*
X134018604Y-84517209D02*
X134254282Y-84638884D01*
X153248274Y-82004092D02*
X153345089Y-81757160D01*
X122471954Y-51409252D02*
X122446730Y-51562830D01*
X125750000Y-39000000D02*
X125500000Y-39000000D01*
X157565581Y-41175632D02*
X157449970Y-41279827D01*
X143699510Y-66124410D02*
X143673423Y-66192599D01*
X169969546Y-52703331D02*
X169877887Y-52829112D01*
X174981395Y-48517209D02*
X175210500Y-48383570D01*
X145329112Y-77377887D02*
X145203331Y-77469546D01*
X112500001Y-92000000D02*
X112500001Y-92000000D01*
X146413576Y-63714893D02*
X146372580Y-63865032D01*
X169147584Y-47914563D02*
X169353411Y-48081847D01*
X170495907Y-84748274D02*
X170742839Y-84845089D01*
X155982790Y-82481395D02*
X156116429Y-82710500D01*
X137500000Y-38000000D02*
X137500000Y-36999999D01*
X170372580Y-63865032D02*
X170323853Y-64012843D01*
X133449970Y-53279827D02*
X133329112Y-53377887D01*
X159038707Y-63057623D02*
X158899287Y-63101001D01*
X140049364Y-47736912D02*
X140236912Y-47549364D01*
X122132698Y-28438367D02*
X122054560Y-28572966D01*
X147500000Y-84999999D02*
X147500000Y-87000000D01*
X131654910Y-33757160D02*
X131751725Y-34004092D01*
X165138884Y-82245717D02*
X165248274Y-82004092D01*
X168365032Y-29872580D02*
X168214893Y-29913576D01*
X140414563Y-28647584D02*
X140236912Y-28450635D01*
X134489178Y-27254571D02*
X134471954Y-27409252D01*
X129248274Y-77995907D02*
X129138884Y-77754282D01*
X134624412Y-63199514D02*
X134489178Y-63254571D01*
X154500000Y-79000000D02*
X153499999Y-79000000D01*
X139210500Y-84383570D02*
X139432427Y-84238321D01*
X134372580Y-51865032D02*
X134323853Y-52012843D01*
X167570928Y-81505573D02*
X167654910Y-81757160D01*
X168062830Y-53946730D02*
X167909252Y-53971954D01*
X145449970Y-29279827D02*
X145329112Y-29377887D01*
X126504092Y-75251725D02*
X126257160Y-75154910D01*
X139210500Y-39616429D02*
X138981395Y-39482790D01*
X147250001Y-51000004D02*
X147250001Y-51000004D01*
X151432427Y-36238321D02*
X151646588Y-36081847D01*
X167500000Y-54750000D02*
X167500000Y-55000000D01*
X146830052Y-63124167D02*
X146761152Y-63148311D01*
X164883570Y-46710500D02*
X165017209Y-46481395D01*
X146372580Y-75865032D02*
X146323853Y-76012843D01*
X122054560Y-64572966D02*
X121969546Y-64703331D01*
X137500000Y-72999999D02*
X137500000Y-72999999D01*
X135250000Y-73000000D02*
X135500000Y-72999999D01*
X122254282Y-72638884D02*
X122495907Y-72748274D01*
X138504092Y-72748274D02*
X138745717Y-72638884D01*
X145567572Y-72238321D02*
X145789499Y-72383570D01*
X152883570Y-58710500D02*
X153017209Y-58481395D01*
X132062830Y-77946730D02*
X131909252Y-77971954D01*
X133567572Y-84238321D02*
X133789499Y-84383570D01*
X129138884Y-34245717D02*
X129248274Y-34004092D01*
X162504092Y-63251725D02*
X162257160Y-63154910D01*
X170254282Y-84638884D02*
X170495907Y-84748274D01*
X122489178Y-39254571D02*
X122471954Y-39409252D01*
X158254282Y-48638884D02*
X158495907Y-48748274D01*
X156938367Y-77632698D02*
X156799897Y-77703750D01*
X134372580Y-39865032D02*
X134323853Y-40012843D01*
X159038707Y-75057623D02*
X158899287Y-75101001D01*
X133567572Y-72238321D02*
X133789499Y-72383570D01*
X153429071Y-81505573D02*
X153500000Y-81250000D01*
X134830052Y-27124167D02*
X134692600Y-27173428D01*
X153138884Y-34245717D02*
X153248274Y-34004092D01*
X155570928Y-57505573D02*
X155654910Y-57757160D01*
X168512843Y-41823853D02*
X168365032Y-41872580D01*
X123500000Y-39000004D02*
X123250001Y-39000004D01*
X139210500Y-60383570D02*
X139432427Y-60238321D01*
X131624162Y-66330050D02*
X131600996Y-66399285D01*
X140049364Y-35736912D02*
X140236912Y-35549364D01*
X123250000Y-85000000D02*
X123500000Y-84999999D01*
X177499999Y-55000000D02*
X177499999Y-55000000D01*
X119500000Y-67000000D02*
X117500001Y-67000000D01*
X132214893Y-41913576D02*
X132062830Y-41946730D01*
X167754566Y-65989176D02*
X167699510Y-66124410D01*
X162745717Y-84638884D02*
X162981395Y-84517209D01*
X134471954Y-39409252D02*
X134446730Y-39562830D01*
X152414563Y-76647584D02*
X152236912Y-76450635D01*
X161500000Y-38000000D02*
X161500000Y-36999999D01*
X120763087Y-83549364D02*
X120950635Y-83736912D01*
X175646588Y-60081847D02*
X175852415Y-59914563D01*
X177429071Y-78494426D02*
X177345089Y-78242839D01*
X177248274Y-58004092D02*
X177345089Y-57757160D01*
X143500000Y-79000000D02*
X142500000Y-79000000D01*
X171179300Y-63018212D02*
X171038707Y-63057623D01*
X158132698Y-52438367D02*
X158054560Y-52572966D01*
X176883570Y-70710500D02*
X177017209Y-70481395D01*
X134899287Y-27101001D02*
X134830052Y-27124167D01*
X128738321Y-65067572D02*
X128581847Y-64853411D01*
X165429071Y-33505573D02*
X165500000Y-33250000D01*
X119600996Y-66399285D02*
X119557618Y-66538706D01*
X156062830Y-29946730D02*
X155909252Y-29971954D01*
X177017209Y-65518604D02*
X176883570Y-65289499D01*
X125500000Y-39000000D02*
X125500000Y-38000000D01*
X132418152Y-71146588D02*
X132585436Y-71352415D01*
X156418152Y-71146588D02*
X156585436Y-71352415D01*
X127432427Y-51761678D02*
X127210500Y-51616429D01*
X125500000Y-63000000D02*
X125500000Y-62000000D01*
X167673423Y-30192599D02*
X167624162Y-30330050D01*
X153499999Y-54750000D02*
X153429071Y-54494426D01*
X128581847Y-76853411D02*
X128414563Y-76647584D01*
X170489178Y-39254571D02*
X170471954Y-39409252D01*
X119861115Y-58245717D02*
X119982790Y-58481395D01*
X162745717Y-48638884D02*
X162981395Y-48517209D01*
X162005573Y-60929071D02*
X162257160Y-60845089D01*
X162257160Y-63154910D02*
X162005573Y-63070928D01*
X128414563Y-64647584D02*
X128236912Y-64450635D01*
X169675632Y-41065581D02*
X169565581Y-41175632D01*
X159500000Y-27000004D02*
X159500000Y-27000004D01*
X156214893Y-41913576D02*
X156062830Y-41946730D01*
X170413576Y-51714893D02*
X170372580Y-51865032D01*
X156585436Y-47352415D02*
X156763087Y-47549364D01*
X168512843Y-53823853D02*
X168365032Y-53872580D01*
X129138884Y-41754282D02*
X129017209Y-41518604D01*
X121565581Y-65175632D02*
X121449970Y-65279827D01*
X169353411Y-72081847D02*
X169567572Y-72238321D01*
X122054560Y-52572966D02*
X121969546Y-52703331D01*
X157567572Y-72238321D02*
X157789499Y-72383570D01*
X122372580Y-39865032D02*
X122323853Y-40012843D01*
X138745717Y-60638884D02*
X138981395Y-60517209D01*
X119500000Y-43000000D02*
X117500001Y-43000000D01*
X146054560Y-76572966D02*
X145969546Y-76703331D01*
X126981395Y-48517209D02*
X127210500Y-48383570D01*
X146413576Y-39714893D02*
X146372580Y-39865032D01*
X145779827Y-52949970D02*
X145675632Y-53065581D01*
X134267526Y-28157928D02*
X134203750Y-28299897D01*
X175210500Y-63616429D02*
X174981395Y-63482790D01*
X140236912Y-47549364D02*
X140414563Y-47352415D01*
X143654910Y-33757160D02*
X143751725Y-34004092D01*
X164236912Y-52450635D02*
X164049364Y-52263087D01*
X177429071Y-30494426D02*
X177345089Y-30242839D01*
X134899287Y-75101001D02*
X134761152Y-75148311D01*
X143754566Y-29989176D02*
X143726559Y-30056598D01*
X143557618Y-78538706D02*
X143518207Y-78679298D01*
X176883570Y-82710500D02*
X177017209Y-82481395D01*
X150745717Y-36638884D02*
X150981395Y-36517209D01*
X145565581Y-53175632D02*
X145449970Y-53279827D01*
X157779827Y-52949970D02*
X157675632Y-53065581D01*
X127852415Y-76085436D02*
X127646588Y-75918152D01*
X157877887Y-40829112D02*
X157779827Y-40949970D01*
X123500000Y-36999999D02*
X123500000Y-38000000D01*
X121789499Y-84383570D02*
X122018604Y-84517209D01*
X167982790Y-46481395D02*
X168116429Y-46710500D01*
X131600996Y-30399285D02*
X131557618Y-30538706D01*
X174257160Y-72845089D02*
X174504092Y-72748274D01*
X122413576Y-63714893D02*
X122372580Y-63865032D01*
X163852415Y-40085436D02*
X163646588Y-39918152D01*
X158372580Y-63865032D02*
X158323853Y-64012843D01*
X165248274Y-82004092D02*
X165345089Y-81757160D01*
X127432427Y-75761678D02*
X127210500Y-75616429D01*
X164738321Y-65067572D02*
X164581847Y-64853411D01*
X167537415Y-30608862D02*
X167500000Y-30750000D01*
X135500000Y-27000004D02*
X135250001Y-27000004D01*
X155861115Y-82245717D02*
X155982790Y-82481395D01*
X141017209Y-46481395D02*
X141138884Y-46245717D01*
X127432427Y-27761678D02*
X127210500Y-27616429D01*
X135250001Y-51000004D02*
X135108864Y-51037420D01*
X120585436Y-59352415D02*
X120763087Y-59549364D01*
X170446730Y-75562830D02*
X170413576Y-75714893D01*
X157203331Y-29469546D02*
X157072966Y-29554560D01*
X141429071Y-42494426D02*
X141345089Y-42242839D01*
X150745717Y-60638884D02*
X150981395Y-60517209D01*
X128236912Y-59549364D02*
X128414563Y-59352415D01*
X164738321Y-53067572D02*
X164581847Y-52853411D01*
X175432427Y-48238321D02*
X175646588Y-48081847D01*
X129499999Y-66750000D02*
X129499999Y-66750000D01*
X176883570Y-29289499D02*
X176738321Y-29067572D01*
X140738321Y-65067572D02*
X140581847Y-64853411D01*
X153429071Y-45505573D02*
X153500000Y-45250000D01*
X146624412Y-51199514D02*
X146489178Y-51254571D01*
X134446730Y-63562830D02*
X134413576Y-63714893D01*
X143500000Y-81249999D02*
X143570928Y-81505573D01*
X150745717Y-48638884D02*
X150981395Y-48517209D01*
X145449970Y-65279827D02*
X145329112Y-65377887D01*
X142500000Y-79000000D02*
X141499999Y-79000000D01*
X156512843Y-65823853D02*
X156365032Y-65872580D01*
X153500000Y-33250000D02*
X153499999Y-33000000D01*
X134203750Y-40299897D02*
X134132698Y-40438367D01*
X157353411Y-84081847D02*
X157567572Y-84238321D01*
X168116429Y-82710500D02*
X168261678Y-82932427D01*
X144763087Y-59549364D02*
X144950635Y-59736912D01*
X143654910Y-45757160D02*
X143751725Y-46004092D01*
X165429071Y-54494426D02*
X165345089Y-54242839D01*
X128738321Y-58932427D02*
X128883570Y-58710500D01*
X177017209Y-41518604D02*
X176883570Y-41289499D01*
X131751725Y-70004092D02*
X131861115Y-70245717D01*
X141499999Y-43000000D02*
X141499999Y-42750000D01*
X128883570Y-34710500D02*
X129017209Y-34481395D01*
X130500000Y-55000000D02*
X129499999Y-55000000D01*
X122203750Y-28299897D02*
X122132698Y-28438367D01*
X126257160Y-84845089D02*
X126504092Y-84748274D01*
X152049364Y-64263087D02*
X151852415Y-64085436D01*
X131861115Y-82245717D02*
X131982790Y-82481395D01*
X168763087Y-35549364D02*
X168950635Y-35736912D01*
X161500000Y-84999999D02*
X161749999Y-84999999D01*
X155518207Y-66679298D02*
X155500000Y-66750000D01*
X141248274Y-46004092D02*
X141345089Y-45757160D01*
X135250000Y-37000000D02*
X135500000Y-36999999D01*
X134054560Y-64572966D02*
X133969546Y-64703331D01*
X138257160Y-63154910D02*
X138005573Y-63070928D01*
X128236912Y-76450635D02*
X128049364Y-76263087D01*
X120116429Y-46710500D02*
X120261678Y-46932427D01*
X164738321Y-46932427D02*
X164883570Y-46710500D01*
X155624162Y-42330050D02*
X155578814Y-42468842D01*
X174257160Y-60845089D02*
X174504092Y-60748274D01*
X150005573Y-72929071D02*
X150257160Y-72845089D01*
X122899287Y-39101001D02*
X122830052Y-39124167D01*
X154500000Y-55000000D02*
X153499999Y-55000000D01*
X129138884Y-46245717D02*
X129248274Y-46004092D01*
X165499999Y-55000000D02*
X165499999Y-54750000D01*
X156657928Y-53767526D02*
X156512843Y-53823853D01*
X120938367Y-29632698D02*
X120799897Y-29703750D01*
X164049364Y-71736912D02*
X164236912Y-71549364D01*
X153017209Y-65518604D02*
X152883570Y-65289499D01*
X134994426Y-36929071D02*
X135250000Y-37000000D01*
X169969546Y-76703331D02*
X169877887Y-76829112D01*
X146413576Y-27714893D02*
X146372580Y-27865032D01*
X134994426Y-84929071D02*
X135250000Y-85000000D01*
X174257160Y-63154910D02*
X174005573Y-63070928D01*
X141499999Y-31000000D02*
X141499999Y-30750000D01*
X127852415Y-52085436D02*
X127646588Y-51918152D01*
X152738321Y-70932427D02*
X152883570Y-70710500D01*
X149500000Y-62000000D02*
X149500000Y-60999999D01*
X122692600Y-27173428D02*
X122624412Y-27199514D01*
X147038707Y-63057623D02*
X146968843Y-63078818D01*
X129345089Y-42242839D02*
X129248274Y-41995907D01*
X150257160Y-27154910D02*
X150005573Y-27070928D01*
X122446730Y-63562830D02*
X122413576Y-63714893D01*
X129138884Y-65754282D02*
X129017209Y-65518604D01*
X169147584Y-59914563D02*
X169353411Y-60081847D01*
X167570928Y-33505573D02*
X167654910Y-33757160D01*
X126504092Y-36748274D02*
X126745717Y-36638884D01*
X138504092Y-51251725D02*
X138257160Y-51154910D01*
X134446730Y-39562830D02*
X134413576Y-39714893D01*
X171250001Y-39000004D02*
X171179300Y-39018212D01*
X151432427Y-84238321D02*
X151646588Y-84081847D01*
X141499999Y-33000000D02*
X142500000Y-33000000D01*
X150257160Y-63154910D02*
X150005573Y-63070928D01*
X133353411Y-48081847D02*
X133567572Y-48238321D01*
X151210500Y-60383570D02*
X151432427Y-60238321D01*
X177138884Y-77754282D02*
X177017209Y-77518604D01*
X146323853Y-64012843D02*
X146267526Y-64157928D01*
X169147584Y-83914563D02*
X169353411Y-84081847D01*
X140883570Y-77289499D02*
X140738321Y-77067572D01*
X157147584Y-35914563D02*
X157353411Y-36081847D01*
X165429071Y-81505573D02*
X165500000Y-81250000D01*
X122413576Y-75714893D02*
X122372580Y-75865032D01*
X134495907Y-48748274D02*
X134742839Y-48845089D01*
X134495907Y-60748274D02*
X134742839Y-60845089D01*
X157567572Y-48238321D02*
X157789499Y-48383570D01*
X156938367Y-29632698D02*
X156799897Y-29703750D01*
X145329112Y-53377887D02*
X145203331Y-53469546D01*
X128236912Y-35549364D02*
X128414563Y-35352415D01*
X138504092Y-36748274D02*
X138745717Y-36638884D01*
X158692600Y-75173428D02*
X158624412Y-75199514D01*
X131982790Y-34481395D02*
X132116429Y-34710500D01*
X120938367Y-53632698D02*
X120799897Y-53703750D01*
X175210500Y-60383570D02*
X175432427Y-60238321D01*
X150504092Y-60748274D02*
X150745717Y-60638884D01*
X143673423Y-66192599D02*
X143624162Y-66330050D01*
X129499999Y-81000000D02*
X130500000Y-81000000D01*
X121147584Y-35914563D02*
X121353411Y-36081847D01*
X166500000Y-57000000D02*
X167500000Y-57000000D01*
X143570928Y-81505573D02*
X143654910Y-81757160D01*
X121329112Y-65377887D02*
X121203331Y-65469546D01*
X177017209Y-70481395D02*
X177138884Y-70245717D01*
X127210500Y-63616429D02*
X126981395Y-63482790D01*
X141499999Y-57000000D02*
X142500000Y-57000000D01*
X157147584Y-83914563D02*
X157353411Y-84081847D01*
X145203331Y-65469546D02*
X145072966Y-65554560D01*
X165017209Y-77518604D02*
X164883570Y-77289499D01*
X157969546Y-76703331D02*
X157877887Y-76829112D01*
X170267526Y-64157928D02*
X170203750Y-64299897D01*
X167982790Y-58481395D02*
X168116429Y-58710500D01*
X119557618Y-54538706D02*
X119537415Y-54608862D01*
X131673423Y-78192599D02*
X131624162Y-78330050D01*
X175210500Y-72383570D02*
X175432427Y-72238321D01*
X129499999Y-66750000D02*
X129429071Y-66494426D01*
X159500000Y-63000004D02*
X159250001Y-63000004D01*
X167751725Y-82004092D02*
X167861115Y-82245717D01*
X149500000Y-48999999D02*
X149749999Y-48999999D01*
X158471954Y-27409252D02*
X158446730Y-27562830D01*
X150504092Y-84748274D02*
X150745717Y-84638884D01*
X170742839Y-48845089D02*
X170994426Y-48929071D01*
X132214893Y-65913576D02*
X132062830Y-65946730D01*
X138005573Y-84929071D02*
X138257160Y-84845089D01*
X135250001Y-27000004D02*
X135108864Y-27037420D01*
X167557618Y-30538706D02*
X167537415Y-30608862D01*
X162005573Y-72929071D02*
X162257160Y-72845089D01*
X162981395Y-72517209D02*
X163210500Y-72383570D01*
X129429071Y-33505573D02*
X129500000Y-33250000D01*
X122624412Y-39199514D02*
X122489178Y-39254571D01*
X119500000Y-45249999D02*
X119570928Y-45505573D01*
X158556600Y-39226564D02*
X158489178Y-39254571D01*
X174504092Y-39251725D02*
X174257160Y-39154910D01*
X128236912Y-71549364D02*
X128414563Y-71352415D01*
X126257160Y-48845089D02*
X126504092Y-48748274D01*
X128883570Y-41289499D02*
X128738321Y-41067572D01*
X158994426Y-36929071D02*
X159250000Y-37000000D01*
X127210500Y-84383570D02*
X127432427Y-84238321D01*
X152738321Y-53067572D02*
X152581847Y-52853411D01*
X153138884Y-82245717D02*
X153248274Y-82004092D01*
X153017209Y-41518604D02*
X152883570Y-41289499D01*
X143600996Y-66399285D02*
X143557618Y-66538706D01*
X168585436Y-71352415D02*
X168763087Y-71549364D01*
X153248274Y-53995907D02*
X153138884Y-53754282D01*
X170372580Y-75865032D02*
X170323853Y-76012843D01*
X165429071Y-69505573D02*
X165500000Y-69250000D01*
X149750000Y-27000000D02*
X149500000Y-27000000D01*
X167557618Y-42538706D02*
X167537415Y-42608862D01*
X161500000Y-39000000D02*
X161500000Y-38000000D01*
X127210500Y-60383570D02*
X127432427Y-60238321D01*
X152738321Y-58932427D02*
X152883570Y-58710500D01*
X139646588Y-36081847D02*
X139852415Y-35914563D01*
X129499999Y-79000000D02*
X129499999Y-78750000D01*
X144950635Y-71736912D02*
X145147584Y-71914563D01*
X122742839Y-60845089D02*
X122994426Y-60929071D01*
X176581847Y-40853411D02*
X176414563Y-40647584D01*
X150981395Y-84517209D02*
X151210500Y-84383570D01*
X138257160Y-48845089D02*
X138504092Y-48748274D01*
X122446730Y-51562830D02*
X122413576Y-51714893D01*
X129429071Y-57505573D02*
X129500000Y-57250000D01*
X128236912Y-28450635D02*
X128049364Y-28263087D01*
X155982790Y-34481395D02*
X156116429Y-34710500D01*
X165017209Y-58481395D02*
X165138884Y-58245717D01*
X144585436Y-71352415D02*
X144763087Y-71549364D01*
X176581847Y-47146588D02*
X176738321Y-46932427D01*
X158742839Y-72845089D02*
X158994426Y-72929071D01*
X123500000Y-51000004D02*
X123250001Y-51000004D01*
X128414563Y-47352415D02*
X128581847Y-47146588D01*
X174981395Y-60517209D02*
X175210500Y-60383570D01*
X170495907Y-48748274D02*
X170742839Y-48845089D01*
X139852415Y-83914563D02*
X140049364Y-83736912D01*
X126257160Y-51154910D02*
X126005573Y-51070928D01*
X137500000Y-84999999D02*
X137749999Y-84999999D01*
X129138884Y-77754282D02*
X129017209Y-77518604D01*
X161500000Y-36999999D02*
X161749999Y-36999999D01*
X146994426Y-84929071D02*
X147250000Y-85000000D01*
X134495907Y-36748274D02*
X134742839Y-36845089D01*
X165429071Y-54494426D02*
X165429071Y-54494426D01*
X138745717Y-48638884D02*
X138981395Y-48517209D01*
X157567572Y-36238321D02*
X157789499Y-36383570D01*
X120062830Y-29946730D02*
X119909252Y-29971954D01*
X141499999Y-69000000D02*
X142500000Y-69000000D01*
X155557618Y-78538706D02*
X155518207Y-78679298D01*
X175646588Y-48081847D02*
X175852415Y-47914563D01*
X158254282Y-84638884D02*
X158495907Y-84748274D01*
X177345089Y-45757160D02*
X177429071Y-45505573D01*
X153499999Y-66750000D02*
X153429071Y-66494426D01*
X168657928Y-77767526D02*
X168512843Y-77823853D01*
X158413576Y-75714893D02*
X158372580Y-75865032D01*
X137500000Y-72999999D02*
X137749999Y-72999999D01*
X129017209Y-34481395D02*
X129138884Y-34245717D01*
X131500000Y-33249999D02*
X131570928Y-33505573D01*
X141017209Y-65518604D02*
X140883570Y-65289499D01*
X146556600Y-27226564D02*
X146489178Y-27254571D01*
X170132698Y-28438367D02*
X170054560Y-28572966D01*
X156261678Y-46932427D02*
X156418152Y-47146588D01*
X170323853Y-52012843D02*
X170267526Y-52157928D01*
X167500000Y-45000000D02*
X167500000Y-45249999D01*
X120657928Y-29767526D02*
X120512843Y-29823853D01*
X163432427Y-75761678D02*
X163210500Y-75616429D01*
X170556600Y-27226564D02*
X170489178Y-27254571D01*
X143861115Y-34245717D02*
X143982790Y-34481395D01*
X173750000Y-27000000D02*
X173500000Y-27000000D01*
X144116429Y-58710500D02*
X144261678Y-58932427D01*
X117500001Y-57000000D02*
X119500000Y-57000000D01*
X126745717Y-27361115D02*
X126504092Y-27251725D01*
X123500000Y-72999999D02*
X123500000Y-74000000D01*
X143754566Y-77989176D02*
X143699510Y-78124410D01*
X150005573Y-36929071D02*
X150005573Y-36929071D01*
X168585436Y-35352415D02*
X168763087Y-35549364D01*
X163210500Y-51616429D02*
X162981395Y-51482790D01*
X122446730Y-27562830D02*
X122413576Y-27714893D01*
X129248274Y-82004092D02*
X129345089Y-81757160D01*
X168763087Y-47549364D02*
X168950635Y-47736912D01*
X165499999Y-67000000D02*
X165499999Y-66750000D01*
X164414563Y-76647584D02*
X164236912Y-76450635D01*
X119557618Y-66538706D02*
X119537415Y-66608862D01*
X120585436Y-47352415D02*
X120763087Y-47549364D01*
X179500000Y-69000000D02*
X179500000Y-79000000D01*
X162981395Y-51482790D02*
X162745717Y-51361115D01*
X159179300Y-63018212D02*
X159038707Y-63057623D01*
X134994426Y-60929071D02*
X135250000Y-61000000D01*
X151646588Y-60081847D02*
X151852415Y-59914563D01*
X121779827Y-52949970D02*
X121675632Y-53065581D01*
X167500000Y-43000000D02*
X166500000Y-43000000D01*
X123038707Y-51057623D02*
X122968843Y-51078818D01*
X129017209Y-29518604D02*
X128883570Y-29289499D01*
X143557618Y-42538706D02*
X143537415Y-42608862D01*
X132418152Y-59146588D02*
X132585436Y-59352415D01*
X120763087Y-59549364D02*
X120950635Y-59736912D01*
X119982790Y-82481395D02*
X120116429Y-82710500D01*
X153345089Y-33757160D02*
X153429071Y-33505573D01*
X133877887Y-64829112D02*
X133779827Y-64949970D01*
X167537415Y-66608862D02*
X167500000Y-66750000D01*
X140414563Y-76647584D02*
X140236912Y-76450635D01*
X123500000Y-50000000D02*
X123500000Y-51000004D01*
X151432427Y-63761678D02*
X151210500Y-63616429D01*
X152581847Y-59146588D02*
X152738321Y-58932427D01*
X165248274Y-46004092D02*
X165345089Y-45757160D01*
X155557618Y-42538706D02*
X155537415Y-42608862D01*
X117500001Y-55000000D02*
X117500001Y-45000000D01*
X121072966Y-29554560D02*
X120938367Y-29632698D01*
X168116429Y-34710500D02*
X168261678Y-34932427D01*
X157675632Y-77065581D02*
X157565581Y-77175632D01*
X143751725Y-34004092D02*
X143861115Y-34245717D01*
X167624162Y-30330050D02*
X167578814Y-30468842D01*
X169969546Y-40703331D02*
X169877887Y-40829112D01*
X144938367Y-29632698D02*
X144799897Y-29703750D01*
X158132698Y-28438367D02*
X158054560Y-28572966D01*
X158761152Y-75148311D02*
X158692600Y-75173428D01*
X164738321Y-82932427D02*
X164883570Y-82710500D01*
X146471954Y-39409252D02*
X146446730Y-39562830D01*
X141500000Y-69250000D02*
X141499999Y-69000000D01*
X145969546Y-40703331D02*
X145877887Y-40829112D01*
X175852415Y-71914563D02*
X176049364Y-71736912D01*
X170054560Y-52572966D02*
X169969546Y-52703331D01*
X167982790Y-70481395D02*
X168116429Y-70710500D01*
X146267526Y-52157928D02*
X146203750Y-52299897D01*
X152236912Y-83549364D02*
X152414563Y-83352415D01*
X120365032Y-29872580D02*
X120214893Y-29913576D01*
X169353411Y-84081847D02*
X169567572Y-84238321D01*
X129248274Y-70004092D02*
X129345089Y-69757160D01*
X119500000Y-45000000D02*
X119500000Y-45249999D01*
X143982790Y-46481395D02*
X144116429Y-46710500D01*
X144418152Y-71146588D02*
X144585436Y-71352415D01*
X134489178Y-51254571D02*
X134471954Y-51409252D01*
X135108864Y-51037420D02*
X135038707Y-51057623D01*
X157969546Y-64703331D02*
X157877887Y-64829112D01*
X132950635Y-71736912D02*
X133147584Y-71914563D01*
X168214893Y-65913576D02*
X168062830Y-65946730D01*
X141248274Y-41995907D02*
X141138884Y-41754282D01*
X175432427Y-72238321D02*
X175646588Y-72081847D01*
X150745717Y-51361115D02*
X150504092Y-51251725D01*
X134254282Y-72638884D02*
X134495907Y-72748274D01*
X144657928Y-65767526D02*
X144512843Y-65823853D01*
X165499999Y-57000000D02*
X166500000Y-57000000D01*
X143578814Y-30468842D02*
X143557618Y-30538706D01*
X167600996Y-78399285D02*
X167557618Y-78538706D01*
X131982790Y-70481395D02*
X132116429Y-70710500D01*
X120261678Y-82932427D02*
X120418152Y-83146588D01*
X127852415Y-71914563D02*
X128049364Y-71736912D01*
X164414563Y-59352415D02*
X164581847Y-59146588D01*
X132950635Y-83736912D02*
X133147584Y-83914563D01*
X156116429Y-46710500D02*
X156261678Y-46932427D01*
X155673423Y-66192599D02*
X155624162Y-66330050D01*
X144418152Y-47146588D02*
X144585436Y-47352415D01*
X126981395Y-84517209D02*
X127210500Y-84383570D01*
X158471954Y-63409252D02*
X158446730Y-63562830D01*
X131754566Y-77989176D02*
X131699510Y-78124410D01*
X162005573Y-84929071D02*
X162257160Y-84845089D01*
X167861115Y-82245717D02*
X167982790Y-82481395D01*
X132512843Y-65823853D02*
X132365032Y-65872580D01*
X156763087Y-47549364D02*
X156950635Y-47736912D01*
X146254282Y-72638884D02*
X146495907Y-72748274D01*
X119500000Y-57000000D02*
X119500000Y-57000000D01*
X176738321Y-41067572D02*
X176581847Y-40853411D01*
X165429071Y-78494426D02*
X165345089Y-78242839D01*
X164049364Y-83736912D02*
X164236912Y-83549364D01*
X155500000Y-79000000D02*
X154500000Y-79000000D01*
X162257160Y-60845089D02*
X162504092Y-60748274D01*
X161750000Y-63000000D02*
X161500000Y-63000000D01*
X147500000Y-74000000D02*
X147500000Y-75000004D01*
X168799897Y-77703750D02*
X168657928Y-77767526D01*
X132657928Y-77767526D02*
X132512843Y-77823853D01*
X141017209Y-77518604D02*
X140883570Y-77289499D01*
X147250001Y-63000004D02*
X147108864Y-63037420D01*
X163646588Y-63918152D02*
X163432427Y-63761678D01*
X164738321Y-29067572D02*
X164581847Y-28853411D01*
X143673423Y-54192599D02*
X143624162Y-54330050D01*
X167654910Y-57757160D02*
X167751725Y-58004092D01*
X125500000Y-36999999D02*
X125749999Y-36999999D01*
X135108864Y-27037420D02*
X135038707Y-27057623D01*
X122761152Y-51148311D02*
X122624412Y-51199514D01*
X171500000Y-36999999D02*
X171500000Y-38000000D01*
X169789499Y-60383570D02*
X170018604Y-60517209D01*
X133969546Y-64703331D02*
X133877887Y-64829112D01*
X158899287Y-27101001D02*
X158830052Y-27124167D01*
X169567572Y-48238321D02*
X169789499Y-48383570D01*
X132365032Y-41872580D02*
X132214893Y-41913576D01*
X177500000Y-57250000D02*
X177499999Y-57000000D01*
X169789499Y-36383570D02*
X170018604Y-36517209D01*
X158254282Y-60638884D02*
X158495907Y-60748274D01*
X153017209Y-29518604D02*
X152883570Y-29289499D01*
X158495907Y-72748274D02*
X158742839Y-72845089D01*
X146489178Y-27254571D02*
X146471954Y-27409252D01*
X161749999Y-48999999D02*
X162005573Y-48929071D01*
X169567572Y-72238321D02*
X169789499Y-72383570D01*
X168763087Y-59549364D02*
X168950635Y-59736912D01*
X134446730Y-51562830D02*
X134413576Y-51714893D01*
X119500000Y-79000000D02*
X117500001Y-79000000D01*
X123108864Y-63037420D02*
X123038707Y-63057623D01*
X125500000Y-38000000D02*
X125500000Y-36999999D01*
X119754566Y-65989176D02*
X119699510Y-66124410D01*
X144585436Y-83352415D02*
X144763087Y-83549364D01*
X174745717Y-75361115D02*
X174504092Y-75251725D01*
X146624412Y-63199514D02*
X146489178Y-63254571D01*
X119500000Y-33249999D02*
X119570928Y-33505573D01*
X150981395Y-63482790D02*
X150745717Y-63361115D01*
X137500000Y-39000000D02*
X137500000Y-38000000D01*
X147500000Y-27000004D02*
X147250001Y-27000004D01*
X135500000Y-36999999D02*
X135500000Y-38000000D01*
X162981395Y-75482790D02*
X162745717Y-75361115D01*
X147250001Y-39000004D02*
X147108864Y-39037420D01*
X150745717Y-72638884D02*
X150981395Y-72517209D01*
X129499999Y-45000000D02*
X130500000Y-45000000D01*
X120214893Y-41913576D02*
X120062830Y-41946730D01*
X144062830Y-65946730D02*
X143909252Y-65971954D01*
X170830052Y-63124167D02*
X170761152Y-63148311D01*
X149749999Y-48999999D02*
X150005573Y-48929071D01*
X143751725Y-46004092D02*
X143861115Y-46245717D01*
X126981395Y-39482790D02*
X126745717Y-39361115D01*
X171500000Y-50000000D02*
X171500000Y-51000004D01*
X155500000Y-67000000D02*
X154500000Y-67000000D01*
X158323853Y-64012843D02*
X158267526Y-64157928D01*
X152414563Y-35352415D02*
X152581847Y-35146588D01*
X143570928Y-57505573D02*
X143654910Y-57757160D01*
X176236912Y-71549364D02*
X176414563Y-71352415D01*
X159250000Y-61000000D02*
X159500000Y-60999999D01*
X150257160Y-36845089D02*
X150504092Y-36748274D01*
X125749999Y-72999999D02*
X126005573Y-72929071D01*
X145675632Y-53065581D02*
X145565581Y-53175632D01*
X129345089Y-33757160D02*
X129429071Y-33505573D01*
X159250001Y-39000004D02*
X159179300Y-39018212D01*
X155726559Y-30056598D02*
X155673423Y-30192599D01*
X134132698Y-64438367D02*
X134054560Y-64572966D01*
X152883570Y-41289499D02*
X152738321Y-41067572D01*
X177499999Y-54750000D02*
X177429071Y-54494426D01*
X121877887Y-76829112D02*
X121779827Y-76949970D01*
X158899287Y-75101001D02*
X158761152Y-75148311D01*
X143624162Y-78330050D02*
X143600996Y-78399285D01*
X119751725Y-58004092D02*
X119861115Y-58245717D01*
X121203331Y-29469546D02*
X121072966Y-29554560D01*
X132214893Y-77913576D02*
X132062830Y-77946730D01*
X163852415Y-28085436D02*
X163646588Y-27918152D01*
X119673423Y-42192599D02*
X119624162Y-42330050D01*
X135500000Y-60999999D02*
X135500000Y-62000000D01*
X120418152Y-59146588D02*
X120585436Y-59352415D01*
X179500000Y-57000000D02*
X179500000Y-67000000D01*
X162005573Y-27070928D02*
X161750000Y-27000000D01*
X152414563Y-83352415D02*
X152581847Y-83146588D01*
X149500000Y-63000000D02*
X149500000Y-62000000D01*
X169203331Y-41469546D02*
X169072966Y-41554560D01*
X119500000Y-45000000D02*
X119500000Y-45000000D01*
X128049364Y-35736912D02*
X128236912Y-35549364D01*
X176236912Y-52450635D02*
X176049364Y-52263087D01*
X174981395Y-36517209D02*
X175210500Y-36383570D01*
X177248274Y-65995907D02*
X177138884Y-65754282D01*
X141429071Y-81505573D02*
X141500000Y-81250000D01*
X171179300Y-51018212D02*
X171038707Y-51057623D01*
X170471954Y-39409252D02*
X170446730Y-39562830D01*
X158495907Y-48748274D02*
X158742839Y-48845089D01*
X168799897Y-53703750D02*
X168657928Y-53767526D01*
X144512843Y-53823853D02*
X144365032Y-53872580D01*
X152581847Y-35146588D02*
X152738321Y-34932427D01*
X134018604Y-36517209D02*
X134254282Y-36638884D01*
X143500000Y-81000000D02*
X143500000Y-81249999D01*
X155861115Y-70245717D02*
X155982790Y-70481395D01*
X129248274Y-46004092D02*
X129345089Y-45757160D01*
X122968843Y-63078818D02*
X122830052Y-63124167D01*
X168418152Y-83146588D02*
X168585436Y-83352415D01*
X154500000Y-69000000D02*
X155500000Y-69000000D01*
X128581847Y-71146588D02*
X128738321Y-70932427D01*
X155673423Y-78192599D02*
X155624162Y-78330050D01*
X170413576Y-27714893D02*
X170372580Y-27865032D01*
X173500000Y-75000000D02*
X173500000Y-74000000D01*
X161500000Y-84999999D02*
X161500000Y-84999999D01*
X155518207Y-54679298D02*
X155500000Y-54750000D01*
X176049364Y-83736912D02*
X176236912Y-83549364D01*
X142500000Y-43000000D02*
X141499999Y-43000000D01*
X131537415Y-42608862D02*
X131500000Y-42750000D01*
X173500000Y-38000000D02*
X173500000Y-36999999D01*
X122132698Y-52438367D02*
X122054560Y-52572966D01*
X134742839Y-72845089D02*
X134994426Y-72929071D01*
X162504092Y-48748274D02*
X162745717Y-48638884D01*
X146372580Y-39865032D02*
X146323853Y-40012843D01*
X141248274Y-58004092D02*
X141345089Y-57757160D01*
X163852415Y-64085436D02*
X163646588Y-63918152D01*
X167673423Y-42192599D02*
X167624162Y-42330050D01*
X147500000Y-25000000D02*
X147500000Y-27000004D01*
X176049364Y-40263087D02*
X175852415Y-40085436D01*
X154500000Y-45000000D02*
X155500000Y-45000000D01*
X120763087Y-35549364D02*
X120950635Y-35736912D01*
X140236912Y-71549364D02*
X140414563Y-71352415D01*
X133877887Y-40829112D02*
X133779827Y-40949970D01*
X158556600Y-27226564D02*
X158489178Y-27254571D01*
X170132698Y-40438367D02*
X170054560Y-40572966D01*
X177248274Y-34004092D02*
X177345089Y-33757160D01*
X177499999Y-66750000D02*
X177429071Y-66494426D01*
X157877887Y-28829112D02*
X157779827Y-28949970D01*
X162257160Y-75154910D02*
X162005573Y-75070928D01*
X139432427Y-48238321D02*
X139646588Y-48081847D01*
X170323853Y-76012843D02*
X170267526Y-76157928D01*
X163432427Y-27761678D02*
X163210500Y-27616429D01*
X167500000Y-55000000D02*
X166500000Y-55000000D01*
X132365032Y-77872580D02*
X132214893Y-77913576D01*
X146994426Y-36929071D02*
X147250000Y-37000000D01*
X128414563Y-71352415D02*
X128581847Y-71146588D01*
X150981395Y-36517209D02*
X151210500Y-36383570D01*
X156799897Y-65703750D02*
X156657928Y-65767526D01*
X129499999Y-69000000D02*
X130500000Y-69000000D01*
X146254282Y-48638884D02*
X146495907Y-48748274D01*
X131557618Y-66538706D02*
X131537415Y-66608862D01*
X125500000Y-25000000D02*
X135500000Y-25000000D01*
X119500000Y-42750000D02*
X119500000Y-43000000D01*
X129499999Y-42750000D02*
X129429071Y-42494426D01*
X123038707Y-27057623D02*
X122899287Y-27101001D01*
X134203750Y-76299897D02*
X134132698Y-76438367D01*
X127852415Y-40085436D02*
X127646588Y-39918152D01*
X161500000Y-51000000D02*
X161500000Y-50000000D01*
X129429071Y-69505573D02*
X129500000Y-69250000D01*
X167982790Y-34481395D02*
X168116429Y-34710500D01*
X164883570Y-70710500D02*
X165017209Y-70481395D01*
X134267526Y-40157928D02*
X134203750Y-40299897D01*
X161500000Y-87000000D02*
X161500000Y-84999999D01*
X132763087Y-59549364D02*
X132950635Y-59736912D01*
X149500000Y-25000000D02*
X159500000Y-25000000D01*
X123038707Y-27057623D02*
X123038707Y-27057623D01*
X171038707Y-51057623D02*
X170899287Y-51101001D01*
X129017209Y-41518604D02*
X128883570Y-41289499D01*
X159500000Y-38000000D02*
X159500000Y-39000004D01*
X162005573Y-51070928D02*
X161750000Y-51000000D01*
X130500000Y-69000000D02*
X131500000Y-69000000D01*
X130500000Y-45000000D02*
X131500000Y-45000000D01*
X122994426Y-72929071D02*
X123250000Y-73000000D01*
X144062830Y-29946730D02*
X143909252Y-29971954D01*
X123500000Y-25000000D02*
X123500000Y-27000004D01*
X119754566Y-77989176D02*
X119699510Y-78124410D01*
X140738321Y-34932427D02*
X140883570Y-34710500D01*
X134624412Y-51199514D02*
X134489178Y-51254571D01*
X137500000Y-36999999D02*
X137749999Y-36999999D01*
X121565581Y-29175632D02*
X121449970Y-29279827D01*
X156938367Y-65632698D02*
X156799897Y-65703750D01*
X146267526Y-40157928D02*
X146203750Y-40299897D01*
X122054560Y-40572966D02*
X121969546Y-40703331D01*
X174981395Y-27482790D02*
X174745717Y-27361115D01*
X144763087Y-71549364D02*
X144950635Y-71736912D01*
X146254282Y-84638884D02*
X146495907Y-84748274D01*
X128581847Y-40853411D02*
X128414563Y-40647584D01*
X152414563Y-71352415D02*
X152581847Y-71146588D01*
X140236912Y-28450635D02*
X140049364Y-28263087D01*
X167500000Y-30750000D02*
X167500000Y-31000000D01*
X122267526Y-40157928D02*
X122203750Y-40299897D01*
X155624162Y-54330050D02*
X155578814Y-54468842D01*
X129429071Y-30494426D02*
X129345089Y-30242839D01*
X164883570Y-82710500D02*
X165017209Y-82481395D01*
X164581847Y-59146588D02*
X164738321Y-58932427D01*
X132585436Y-83352415D02*
X132763087Y-83549364D01*
X135108864Y-75037420D02*
X135038707Y-75057623D01*
X141248274Y-34004092D02*
X141345089Y-33757160D01*
X133565581Y-29175632D02*
X133449970Y-29279827D01*
X140236912Y-83549364D02*
X140414563Y-83352415D01*
X157567572Y-84238321D02*
X157789499Y-84383570D01*
X144512843Y-29823853D02*
X144365032Y-29872580D01*
X119699510Y-42124410D02*
X119673423Y-42192599D01*
X155673423Y-54192599D02*
X155624162Y-54330050D01*
X132799897Y-41703750D02*
X132657928Y-41767526D01*
X165138884Y-46245717D02*
X165248274Y-46004092D01*
X120116429Y-34710500D02*
X120261678Y-34932427D01*
X144365032Y-29872580D02*
X144214893Y-29913576D01*
X164049364Y-40263087D02*
X163852415Y-40085436D01*
X169877887Y-76829112D02*
X169779827Y-76949970D01*
X141500000Y-81250000D02*
X141499999Y-81000000D01*
X157449970Y-53279827D02*
X157329112Y-53377887D01*
X131500000Y-81249999D02*
X131570928Y-81505573D01*
X153345089Y-66242839D02*
X153248274Y-65995907D01*
X141499999Y-66750000D02*
X141429071Y-66494426D01*
X157203331Y-65469546D02*
X157072966Y-65554560D01*
X156657928Y-29767526D02*
X156512843Y-29823853D01*
X128738321Y-29067572D02*
X128581847Y-28853411D01*
X157353411Y-72081847D02*
X157567572Y-72238321D01*
X134323853Y-64012843D02*
X134267526Y-64157928D01*
X149750000Y-63000000D02*
X149500000Y-63000000D01*
X117500001Y-31000000D02*
X117500001Y-25000000D01*
X164236912Y-35549364D02*
X164414563Y-35352415D01*
X122254282Y-48638884D02*
X122495907Y-48748274D01*
X123500000Y-60999999D02*
X123500000Y-62000000D01*
X143754566Y-53989176D02*
X143726559Y-54056598D01*
X161750000Y-51000000D02*
X161500000Y-51000000D01*
X155982790Y-70481395D02*
X156116429Y-70710500D01*
X158323853Y-28012843D02*
X158267526Y-28157928D01*
X134692600Y-39173428D02*
X134624412Y-39199514D01*
X122203750Y-76299897D02*
X122132698Y-76438367D01*
X133203331Y-53469546D02*
X133072966Y-53554560D01*
X171179300Y-39018212D02*
X171038707Y-39057623D01*
X164883570Y-77289499D02*
X164738321Y-77067572D01*
X159500000Y-36999999D02*
X159500000Y-38000000D01*
X152883570Y-29289499D02*
X152738321Y-29067572D01*
X146761152Y-75148311D02*
X146692600Y-75173428D01*
X153138884Y-65754282D02*
X153017209Y-65518604D01*
X177499999Y-43000000D02*
X177499999Y-42750000D01*
X122372580Y-51865032D02*
X122323853Y-52012843D01*
X134830052Y-39124167D02*
X134692600Y-39173428D01*
X134018604Y-72517209D02*
X134254282Y-72638884D01*
X169565581Y-41175632D02*
X169449970Y-41279827D01*
X143500000Y-31000000D02*
X142500000Y-31000000D01*
X164883570Y-65289499D02*
X164738321Y-65067572D01*
X135500000Y-48999999D02*
X135500000Y-50000000D01*
X146968843Y-39078818D02*
X146899287Y-39101001D01*
X123500000Y-87000000D02*
X117500001Y-87000000D01*
X138981395Y-36517209D02*
X139210500Y-36383570D01*
X171500000Y-62000000D02*
X171500000Y-63000004D01*
X129345089Y-69757160D02*
X129429071Y-69505573D01*
X177345089Y-33757160D02*
X177429071Y-33505573D01*
X134994426Y-48929071D02*
X135250000Y-49000000D01*
X158761152Y-51148311D02*
X158624412Y-51199514D01*
X163210500Y-48383570D02*
X163432427Y-48238321D01*
X139432427Y-75761678D02*
X139210500Y-75616429D01*
X133329112Y-65377887D02*
X133203331Y-65469546D01*
X129017209Y-82481395D02*
X129138884Y-82245717D01*
X159250001Y-27000004D02*
X159179300Y-27018212D01*
X167624162Y-78330050D02*
X167600996Y-78399285D01*
X121353411Y-72081847D02*
X121567572Y-72238321D01*
X146203750Y-28299897D02*
X146132698Y-28438367D01*
X140049364Y-71736912D02*
X140236912Y-71549364D01*
X122761152Y-63148311D02*
X122624412Y-63199514D01*
X171500000Y-38000000D02*
X171500000Y-39000004D01*
X126005573Y-84929071D02*
X126257160Y-84845089D01*
X150745717Y-84638884D02*
X150981395Y-84517209D01*
X123108864Y-75037420D02*
X123038707Y-75057623D01*
X137749999Y-60999999D02*
X138005573Y-60929071D01*
X128581847Y-59146588D02*
X128738321Y-58932427D01*
X164581847Y-47146588D02*
X164738321Y-46932427D01*
X177429071Y-33505573D02*
X177500000Y-33250000D01*
X156062830Y-65946730D02*
X155909252Y-65971954D01*
X156950635Y-83736912D02*
X157147584Y-83914563D01*
X157675632Y-65065581D02*
X157565581Y-65175632D01*
X168938367Y-77632698D02*
X168799897Y-77703750D01*
X134413576Y-75714893D02*
X134372580Y-75865032D01*
X145072966Y-29554560D02*
X144938367Y-29632698D01*
X131751725Y-58004092D02*
X131861115Y-58245717D01*
X128738321Y-46932427D02*
X128883570Y-46710500D01*
X155726559Y-42056598D02*
X155673423Y-42192599D01*
X151210500Y-84383570D02*
X151432427Y-84238321D01*
X156763087Y-83549364D02*
X156950635Y-83736912D01*
X145789499Y-48383570D02*
X146018604Y-48517209D01*
X120799897Y-77703750D02*
X120657928Y-77767526D01*
X170471954Y-27409252D02*
X170446730Y-27562830D01*
X176236912Y-35549364D02*
X176414563Y-35352415D01*
X176236912Y-40450635D02*
X176049364Y-40263087D01*
X152236912Y-40450635D02*
X152049364Y-40263087D01*
X122692600Y-39173428D02*
X122624412Y-39199514D01*
X122830052Y-51124167D02*
X122761152Y-51148311D01*
X167557618Y-54538706D02*
X167537415Y-54608862D01*
X162981395Y-48517209D02*
X163210500Y-48383570D01*
X134624412Y-27199514D02*
X134489178Y-27254571D01*
X158372580Y-39865032D02*
X158323853Y-40012843D01*
X126257160Y-36845089D02*
X126504092Y-36748274D01*
X157147584Y-59914563D02*
X157353411Y-60081847D01*
X141429071Y-57505573D02*
X141500000Y-57250000D01*
X127210500Y-51616429D02*
X126981395Y-51482790D01*
X171500000Y-72999999D02*
X171500000Y-74000000D01*
X171250000Y-85000000D02*
X171500000Y-84999999D01*
X145877887Y-40829112D02*
X145779827Y-40949970D01*
X152049364Y-47736912D02*
X152236912Y-47549364D01*
X133329112Y-29377887D02*
X133203331Y-29469546D01*
X165138884Y-58245717D02*
X165248274Y-58004092D01*
X155500000Y-31000000D02*
X154500000Y-31000000D01*
X156585436Y-35352415D02*
X156763087Y-35549364D01*
X144799897Y-29703750D02*
X144657928Y-29767526D01*
X143654910Y-69757160D02*
X143751725Y-70004092D01*
X132261678Y-58932427D02*
X132418152Y-59146588D01*
X137500000Y-25000000D02*
X147500000Y-25000000D01*
X146203750Y-52299897D02*
X146132698Y-52438367D01*
X120938367Y-77632698D02*
X120799897Y-77703750D01*
X164581847Y-71146588D02*
X164738321Y-70932427D01*
X153248274Y-58004092D02*
X153345089Y-57757160D01*
X164049364Y-35736912D02*
X164236912Y-35549364D01*
X168763087Y-83549364D02*
X168950635Y-83736912D01*
X145203331Y-53469546D02*
X145072966Y-53554560D01*
X162005573Y-48929071D02*
X162257160Y-48845089D01*
X157449970Y-65279827D02*
X157329112Y-65377887D01*
X132585436Y-71352415D02*
X132763087Y-71549364D01*
X132261678Y-46932427D02*
X132418152Y-47146588D01*
X165429071Y-66494426D02*
X165345089Y-66242839D01*
X153500000Y-69250000D02*
X153499999Y-69000000D01*
X156938367Y-53632698D02*
X156799897Y-53703750D01*
X129499999Y-57000000D02*
X130500000Y-57000000D01*
X134742839Y-60845089D02*
X134994426Y-60929071D01*
X158471954Y-39409252D02*
X158446730Y-39562830D01*
X177429071Y-42494426D02*
X177345089Y-42242839D01*
X147500000Y-75000004D02*
X147250001Y-75000004D01*
X128738321Y-34932427D02*
X128883570Y-34710500D01*
X145877887Y-52829112D02*
X145779827Y-52949970D01*
X155500000Y-54750000D02*
X155500000Y-55000000D01*
X129499999Y-33000000D02*
X130500000Y-33000000D01*
X126005573Y-51070928D02*
X125750000Y-51000000D01*
X165017209Y-65518604D02*
X164883570Y-65289499D01*
X134203750Y-52299897D02*
X134132698Y-52438367D01*
X155578814Y-42468842D02*
X155557618Y-42538706D01*
X155654910Y-45757160D02*
X155751725Y-46004092D01*
X139852415Y-52085436D02*
X139646588Y-51918152D01*
X174005573Y-63070928D02*
X173750000Y-63000000D01*
X144799897Y-77703750D02*
X144657928Y-77767526D01*
X122018604Y-72517209D02*
X122254282Y-72638884D01*
X121329112Y-41377887D02*
X121203331Y-41469546D01*
X139432427Y-51761678D02*
X139210500Y-51616429D01*
X135500000Y-84999999D02*
X135500000Y-87000000D01*
X138257160Y-27154910D02*
X138005573Y-27070928D01*
X150005573Y-36929071D02*
X150257160Y-36845089D01*
X128883570Y-29289499D02*
X128738321Y-29067572D01*
X177017209Y-58481395D02*
X177138884Y-58245717D01*
X170994426Y-60929071D02*
X171250000Y-61000000D01*
X145675632Y-65065581D02*
X145565581Y-65175632D01*
X174745717Y-48638884D02*
X174981395Y-48517209D01*
X133147584Y-47914563D02*
X133353411Y-48081847D01*
X139646588Y-51918152D02*
X139432427Y-51761678D01*
X165345089Y-69757160D02*
X165429071Y-69505573D01*
X157565581Y-77175632D02*
X157449970Y-77279827D01*
X125750000Y-75000000D02*
X125500000Y-75000000D01*
X177248274Y-53995907D02*
X177138884Y-53754282D01*
X169449970Y-77279827D02*
X169329112Y-77377887D01*
X150005573Y-51070928D02*
X149750000Y-51000000D01*
X128581847Y-47146588D02*
X128738321Y-46932427D01*
X129345089Y-30242839D02*
X129248274Y-29995907D01*
X143909252Y-77971954D02*
X143754566Y-77989176D01*
X123500000Y-62000000D02*
X123500000Y-63000004D01*
X175852415Y-28085436D02*
X175646588Y-27918152D01*
X151646588Y-51918152D02*
X151432427Y-51761678D01*
X170692600Y-75173428D02*
X170624412Y-75199514D01*
X135250000Y-61000000D02*
X135500000Y-60999999D01*
X146054560Y-40572966D02*
X145969546Y-40703331D01*
X144763087Y-35549364D02*
X144950635Y-35736912D01*
X142500000Y-33000000D02*
X143500000Y-33000000D01*
X141499999Y-43000000D02*
X141499999Y-43000000D01*
X167624162Y-54330050D02*
X167578814Y-54468842D01*
X150005573Y-48929071D02*
X150257160Y-48845089D01*
X169353411Y-48081847D02*
X169567572Y-48238321D01*
X122054560Y-28572966D02*
X121969546Y-28703331D01*
X144950635Y-83736912D02*
X145147584Y-83914563D01*
X177345089Y-81757160D02*
X177429071Y-81505573D01*
X146372580Y-27865032D02*
X146323853Y-28012843D01*
X176883570Y-34710500D02*
X177017209Y-34481395D01*
X132763087Y-35549364D02*
X132950635Y-35736912D01*
X138981395Y-51482790D02*
X138745717Y-51361115D01*
X167500000Y-31000000D02*
X166500000Y-31000000D01*
X141248274Y-29995907D02*
X141138884Y-29754282D01*
X168657928Y-29767526D02*
X168512843Y-29823853D01*
X165499999Y-45000000D02*
X166500000Y-45000000D01*
X170489178Y-51254571D02*
X170471954Y-51409252D01*
X151646588Y-84081847D02*
X151852415Y-83914563D01*
X170267526Y-52157928D02*
X170203750Y-52299897D01*
X126257160Y-39154910D02*
X126005573Y-39070928D01*
X127210500Y-27616429D02*
X126981395Y-27482790D01*
X119699510Y-54124410D02*
X119673423Y-54192599D01*
X158446730Y-39562830D02*
X158413576Y-39714893D01*
X146761152Y-63148311D02*
X146624412Y-63199514D01*
X120062830Y-41946730D02*
X119909252Y-41971954D01*
X122495907Y-48748274D02*
X122742839Y-48845089D01*
X128049364Y-52263087D02*
X127852415Y-52085436D01*
X131909252Y-53971954D02*
X131754566Y-53989176D01*
X174504092Y-51251725D02*
X174257160Y-51154910D01*
X155754566Y-77989176D02*
X155699510Y-78124410D01*
X147500000Y-72999999D02*
X147500000Y-74000000D01*
X131654910Y-57757160D02*
X131751725Y-58004092D01*
X143751725Y-70004092D02*
X143861115Y-70245717D01*
X151432427Y-48238321D02*
X151646588Y-48081847D01*
X128883570Y-77289499D02*
X128738321Y-77067572D01*
X133449970Y-77279827D02*
X133329112Y-77377887D01*
X158018604Y-60517209D02*
X158254282Y-60638884D01*
X155500000Y-81000000D02*
X155500000Y-81249999D01*
X163432427Y-72238321D02*
X163646588Y-72081847D01*
X171500000Y-25000000D02*
X171500000Y-27000004D01*
X150504092Y-36748274D02*
X150745717Y-36638884D01*
X129017209Y-53518604D02*
X128883570Y-53289499D01*
X122254282Y-84638884D02*
X122495907Y-84748274D01*
X174005573Y-84929071D02*
X174257160Y-84845089D01*
X150981395Y-60517209D02*
X151210500Y-60383570D01*
X135250001Y-63000004D02*
X135108864Y-63037420D01*
X155699510Y-66124410D02*
X155673423Y-66192599D01*
X145565581Y-65175632D02*
X145449970Y-65279827D01*
X125500000Y-87000000D02*
X125500000Y-84999999D01*
X127210500Y-75616429D02*
X126981395Y-75482790D01*
X147108864Y-51037420D02*
X147038707Y-51057623D01*
X138005573Y-60929071D02*
X138005573Y-60929071D01*
X161500000Y-48999999D02*
X161749999Y-48999999D01*
X158899287Y-39101001D02*
X158830052Y-39124167D01*
X152049364Y-52263087D02*
X151852415Y-52085436D01*
X152236912Y-64450635D02*
X152049364Y-64263087D01*
X162745717Y-27361115D02*
X162504092Y-27251725D01*
X158446730Y-75562830D02*
X158413576Y-75714893D01*
X177248274Y-29995907D02*
X177138884Y-29754282D01*
X159500000Y-48999999D02*
X159500000Y-50000000D01*
X143751725Y-58004092D02*
X143861115Y-58245717D01*
X141017209Y-29518604D02*
X140883570Y-29289499D01*
X173500000Y-51000000D02*
X173500000Y-50000000D01*
X171250000Y-61000000D02*
X171500000Y-60999999D01*
X127210500Y-72383570D02*
X127432427Y-72238321D01*
X170899287Y-51101001D02*
X170830052Y-51124167D01*
X143861115Y-58245717D02*
X143982790Y-58481395D01*
X146692600Y-75173428D02*
X146624412Y-75199514D01*
X120763087Y-71549364D02*
X120950635Y-71736912D01*
X139210500Y-63616429D02*
X138981395Y-63482790D01*
X129017209Y-70481395D02*
X129138884Y-70245717D01*
X134830052Y-63124167D02*
X134761152Y-63148311D01*
X165499999Y-66750000D02*
X165429071Y-66494426D01*
X122254282Y-60638884D02*
X122495907Y-60748274D01*
X143726559Y-54056598D02*
X143673423Y-54192599D01*
X140414563Y-64647584D02*
X140236912Y-64450635D01*
X141499999Y-54750000D02*
X141429071Y-54494426D01*
X150981395Y-75482790D02*
X150745717Y-75361115D01*
X145353411Y-72081847D02*
X145567572Y-72238321D01*
X142500000Y-67000000D02*
X141499999Y-67000000D01*
X129345089Y-66242839D02*
X129248274Y-65995907D01*
X131751725Y-82004092D02*
X131861115Y-82245717D01*
X150745717Y-27361115D02*
X150504092Y-27251725D01*
X167500000Y-69249999D02*
X167570928Y-69505573D01*
X161500000Y-75000000D02*
X161500000Y-74000000D01*
X125749999Y-48999999D02*
X126005573Y-48929071D01*
X143578814Y-42468842D02*
X143557618Y-42538706D01*
X131500000Y-45000000D02*
X131500000Y-45249999D01*
X119654910Y-45757160D02*
X119751725Y-46004092D01*
X158203750Y-40299897D02*
X158132698Y-40438367D01*
X156365032Y-29872580D02*
X156214893Y-29913576D01*
X117500001Y-87000000D02*
X117500001Y-81000000D01*
X146203750Y-64299897D02*
X146132698Y-64438367D01*
X119751725Y-34004092D02*
X119861115Y-34245717D01*
X140581847Y-59146588D02*
X140738321Y-58932427D01*
X121329112Y-53377887D02*
X121203331Y-53469546D01*
X164738321Y-77067572D02*
X164581847Y-76853411D01*
X132657928Y-29767526D02*
X132512843Y-29823853D01*
X158489178Y-39254571D02*
X158471954Y-39409252D01*
X144585436Y-59352415D02*
X144763087Y-59549364D01*
X165499999Y-54750000D02*
X165429071Y-54494426D01*
X143570928Y-45505573D02*
X143654910Y-45757160D01*
X168950635Y-83736912D02*
X169147584Y-83914563D01*
X135038707Y-51057623D02*
X134968843Y-51078818D01*
X119982790Y-34481395D02*
X120116429Y-34710500D01*
X138745717Y-27361115D02*
X138504092Y-27251725D01*
X155557618Y-30538706D02*
X155518207Y-30679298D01*
X176738321Y-70932427D02*
X176883570Y-70710500D01*
X168261678Y-70932427D02*
X168418152Y-71146588D01*
X119500000Y-66750000D02*
X119500000Y-67000000D01*
X173500000Y-36999999D02*
X173749999Y-36999999D01*
X157789499Y-72383570D02*
X158018604Y-72517209D01*
X131982790Y-46481395D02*
X132116429Y-46710500D01*
X126005573Y-27070928D02*
X125750000Y-27000000D01*
X119754566Y-41989176D02*
X119699510Y-42124410D01*
X153429071Y-66494426D02*
X153345089Y-66242839D01*
X126257160Y-75154910D02*
X126005573Y-75070928D01*
X127852415Y-64085436D02*
X127646588Y-63918152D01*
X159250000Y-85000000D02*
X159500000Y-84999999D01*
X164883570Y-34710500D02*
X165017209Y-34481395D01*
X128236912Y-52450635D02*
X128049364Y-52263087D01*
X131557618Y-78538706D02*
X131537415Y-78608862D01*
X144657928Y-53767526D02*
X144512843Y-53823853D01*
X146495907Y-84748274D02*
X146742839Y-84845089D01*
X176414563Y-52647584D02*
X176236912Y-52450635D01*
X131600996Y-54399285D02*
X131557618Y-54538706D01*
X159500000Y-84999999D02*
X159500000Y-87000000D01*
X168214893Y-41913576D02*
X168062830Y-41946730D01*
X122495907Y-72748274D02*
X122742839Y-72845089D01*
X142500000Y-57000000D02*
X143500000Y-57000000D01*
X169329112Y-65377887D02*
X169203331Y-65469546D01*
X147250000Y-85000000D02*
X147500000Y-84999999D01*
X129499999Y-42750000D02*
X129499999Y-42750000D01*
X169779827Y-64949970D02*
X169675632Y-65065581D01*
X155500000Y-78750000D02*
X155500000Y-79000000D01*
X131500000Y-55000000D02*
X130500000Y-55000000D01*
X133779827Y-40949970D02*
X133675632Y-41065581D01*
X149750000Y-75000000D02*
X149500000Y-75000000D01*
X144261678Y-82932427D02*
X144418152Y-83146588D01*
X152581847Y-64853411D02*
X152414563Y-64647584D01*
X121449970Y-41279827D02*
X121329112Y-41377887D01*
X146692600Y-27173428D02*
X146556600Y-27226564D01*
X144261678Y-70932427D02*
X144418152Y-71146588D01*
X155557618Y-66538706D02*
X155518207Y-66679298D01*
X122994426Y-48929071D02*
X123250000Y-49000000D01*
X177345089Y-69757160D02*
X177429071Y-69505573D01*
X119537415Y-42608862D02*
X119500000Y-42750000D01*
X165017209Y-34481395D02*
X165138884Y-34245717D01*
X164049364Y-64263087D02*
X163852415Y-64085436D01*
X168116429Y-46710500D02*
X168261678Y-46932427D01*
X146968843Y-27078818D02*
X146899287Y-27101001D01*
X174005573Y-48929071D02*
X174257160Y-48845089D01*
X164738321Y-41067572D02*
X164581847Y-40853411D01*
X168365032Y-41872580D02*
X168214893Y-41913576D01*
X177499999Y-81000000D02*
X179500000Y-81000000D01*
X122830052Y-27124167D02*
X122692600Y-27173428D01*
X184500000Y-92000000D02*
X184500000Y-20000000D01*
X128883570Y-46710500D02*
X129017209Y-46481395D01*
X141499999Y-67000000D02*
X141499999Y-66750000D01*
X152738321Y-82932427D02*
X152883570Y-82710500D01*
X174504092Y-63251725D02*
X174257160Y-63154910D01*
X158994426Y-72929071D02*
X159250000Y-73000000D01*
X175432427Y-84238321D02*
X175646588Y-84081847D01*
X126005573Y-75070928D02*
X125750000Y-75000000D01*
X126745717Y-72638884D02*
X126981395Y-72517209D01*
X157072966Y-77554560D02*
X156938367Y-77632698D01*
X146254282Y-36638884D02*
X146495907Y-36748274D01*
X157329112Y-65377887D02*
X157203331Y-65469546D01*
X164049364Y-28263087D02*
X163852415Y-28085436D01*
X170489178Y-63254571D02*
X170471954Y-63409252D01*
X170471954Y-63409252D02*
X170446730Y-63562830D01*
X128049364Y-64263087D02*
X127852415Y-64085436D01*
X170203750Y-76299897D02*
X170132698Y-76438367D01*
X119500000Y-31000000D02*
X117500001Y-31000000D01*
X131500000Y-54750000D02*
X131500000Y-55000000D01*
X158761152Y-63148311D02*
X158624412Y-63199514D01*
X125500000Y-62000000D02*
X125500000Y-60999999D01*
X155624162Y-78330050D02*
X155600996Y-78399285D01*
X120062830Y-77946730D02*
X119909252Y-77971954D01*
X122495907Y-36748274D02*
X122742839Y-36845089D01*
X168214893Y-29913576D02*
X168062830Y-29946730D01*
X134018604Y-48517209D02*
X134254282Y-48638884D01*
X177138884Y-82245717D02*
X177248274Y-82004092D01*
X170446730Y-63562830D02*
X170413576Y-63714893D01*
X153499999Y-30750000D02*
X153429071Y-30494426D01*
X140883570Y-58710500D02*
X141017209Y-58481395D01*
X132365032Y-53872580D02*
X132214893Y-53913576D01*
X155578814Y-30468842D02*
X155557618Y-30538706D01*
X125500000Y-51000000D02*
X125500000Y-50000000D01*
X153499999Y-33000000D02*
X154500000Y-33000000D01*
X145675632Y-41065581D02*
X145565581Y-41175632D01*
X167754566Y-77989176D02*
X167699510Y-78124410D01*
X128581847Y-64853411D02*
X128414563Y-64647584D01*
X155600996Y-66399285D02*
X155557618Y-66538706D01*
X141429071Y-78494426D02*
X141345089Y-78242839D01*
X175432427Y-75761678D02*
X175210500Y-75616429D01*
X141017209Y-41518604D02*
X140883570Y-41289499D01*
X168657928Y-41767526D02*
X168512843Y-41823853D01*
X170372580Y-51865032D02*
X170323853Y-52012843D01*
X128236912Y-83549364D02*
X128414563Y-83352415D01*
X133877887Y-28829112D02*
X133779827Y-28949970D01*
X131570928Y-33505573D02*
X131654910Y-33757160D01*
X153248274Y-70004092D02*
X153345089Y-69757160D01*
X121567572Y-36238321D02*
X121789499Y-36383570D01*
X120261678Y-58932427D02*
X120418152Y-59146588D01*
X161750000Y-27000000D02*
X161500000Y-27000000D01*
X154500000Y-31000000D02*
X153499999Y-31000000D01*
X164581847Y-83146588D02*
X164738321Y-82932427D01*
X140414563Y-40647584D02*
X140236912Y-40450635D01*
X143557618Y-54538706D02*
X143518207Y-54679298D01*
X175432427Y-63761678D02*
X175210500Y-63616429D01*
X151646588Y-39918152D02*
X151432427Y-39761678D01*
X120418152Y-83146588D02*
X120585436Y-83352415D01*
X144214893Y-53913576D02*
X144062830Y-53946730D01*
X145789499Y-36383570D02*
X146018604Y-36517209D01*
X167570928Y-45505573D02*
X167654910Y-45757160D01*
X134323853Y-76012843D02*
X134267526Y-76157928D01*
X121147584Y-71914563D02*
X121353411Y-72081847D01*
X126005573Y-63070928D02*
X125750000Y-63000000D01*
X122372580Y-27865032D02*
X122323853Y-28012843D01*
X168365032Y-77872580D02*
X168214893Y-77913576D01*
X173749999Y-48999999D02*
X174005573Y-48929071D01*
X123038707Y-63057623D02*
X122968843Y-63078818D01*
X141429071Y-33505573D02*
X141500000Y-33250000D01*
X159250001Y-63000004D02*
X159179300Y-63018212D01*
X127646588Y-75918152D02*
X127432427Y-75761678D01*
X146446730Y-51562830D02*
X146413576Y-51714893D01*
X164236912Y-83549364D02*
X164414563Y-83352415D01*
X169449970Y-65279827D02*
X169329112Y-65377887D01*
X134830052Y-51124167D02*
X134761152Y-51148311D01*
X158471954Y-51409252D02*
X158446730Y-51562830D01*
X175646588Y-51918152D02*
X175432427Y-51761678D01*
X145072966Y-53554560D02*
X144938367Y-53632698D01*
X127210500Y-39616429D02*
X126981395Y-39482790D01*
X131754566Y-53989176D02*
X131699510Y-54124410D01*
X143751725Y-82004092D02*
X143861115Y-82245717D01*
X152049364Y-76263087D02*
X151852415Y-76085436D01*
X138981395Y-60517209D02*
X139210500Y-60383570D01*
X143500000Y-69000000D02*
X143500000Y-69249999D01*
X168512843Y-65823853D02*
X168365032Y-65872580D01*
X156657928Y-65767526D02*
X156512843Y-65823853D01*
X173500000Y-27000000D02*
X173500000Y-25000000D01*
X150005573Y-75070928D02*
X149750000Y-75000000D01*
X165248274Y-58004092D02*
X165345089Y-57757160D01*
X135500000Y-38000000D02*
X135500000Y-39000004D01*
X146489178Y-39254571D02*
X146471954Y-39409252D01*
X163646588Y-84081847D02*
X163852415Y-83914563D01*
X177138884Y-41754282D02*
X177017209Y-41518604D01*
X122018604Y-84517209D02*
X122254282Y-84638884D01*
X175646588Y-72081847D02*
X175852415Y-71914563D01*
X134471954Y-27409252D02*
X134446730Y-27562830D01*
X120938367Y-41632698D02*
X120799897Y-41703750D01*
X151210500Y-51616429D02*
X150981395Y-51482790D01*
X167500000Y-57000000D02*
X167500000Y-57249999D01*
X153429071Y-54494426D02*
X153429071Y-54494426D01*
X171038707Y-27057623D02*
X170899287Y-27101001D01*
X132585436Y-35352415D02*
X132763087Y-35549364D01*
X120512843Y-77823853D02*
X120365032Y-77872580D01*
X130500000Y-33000000D02*
X131500000Y-33000000D01*
X121877887Y-52829112D02*
X121779827Y-52949970D01*
X166500000Y-31000000D02*
X165499999Y-31000000D01*
X163210500Y-75616429D02*
X162981395Y-75482790D01*
X174981395Y-63482790D02*
X174745717Y-63361115D01*
X140049364Y-59736912D02*
X140236912Y-59549364D01*
X134372580Y-75865032D02*
X134323853Y-76012843D01*
X170742839Y-84845089D02*
X170994426Y-84929071D01*
X121675632Y-53065581D02*
X121565581Y-53175632D01*
X169877887Y-52829112D02*
X169779827Y-52949970D01*
X165429071Y-57505573D02*
X165500000Y-57250000D01*
X132214893Y-29913576D02*
X132062830Y-29946730D01*
X164738321Y-34932427D02*
X164883570Y-34710500D01*
X138257160Y-36845089D02*
X138504092Y-36748274D01*
X157779827Y-64949970D02*
X157675632Y-65065581D01*
X112500001Y-92000000D02*
X184500000Y-92000000D01*
X150257160Y-84845089D02*
X150504092Y-84748274D01*
X165345089Y-66242839D02*
X165248274Y-65995907D01*
X146495907Y-60748274D02*
X146742839Y-60845089D01*
X120261678Y-46932427D02*
X120418152Y-47146588D01*
X167578814Y-54468842D02*
X167557618Y-54538706D01*
X147500000Y-39000004D02*
X147250001Y-39000004D01*
X170132698Y-76438367D02*
X170054560Y-76572966D01*
X129138884Y-29754282D02*
X129017209Y-29518604D01*
X126981395Y-51482790D02*
X126745717Y-51361115D01*
X134489178Y-39254571D02*
X134471954Y-39409252D01*
X122267526Y-76157928D02*
X122203750Y-76299897D01*
X146968843Y-75078818D02*
X146899287Y-75101001D01*
X129499999Y-30750000D02*
X129429071Y-30494426D01*
X155654910Y-57757160D02*
X155751725Y-58004092D01*
X155624162Y-66330050D02*
X155600996Y-66399285D01*
X129499999Y-79000000D02*
X129499999Y-79000000D01*
X174005573Y-27070928D02*
X173750000Y-27000000D01*
X147500000Y-62000000D02*
X147500000Y-63000004D01*
X157565581Y-29175632D02*
X157449970Y-29279827D01*
X147500000Y-87000000D02*
X137500000Y-87000000D01*
X145203331Y-77469546D02*
X145072966Y-77554560D01*
X146018604Y-36517209D02*
X146254282Y-36638884D01*
X164236912Y-40450635D02*
X164049364Y-40263087D01*
X177345089Y-78242839D02*
X177248274Y-77995907D01*
X133072966Y-53554560D02*
X132938367Y-53632698D01*
X133329112Y-53377887D02*
X133203331Y-53469546D01*
X129138884Y-82245717D02*
X129248274Y-82004092D01*
X121072966Y-65554560D02*
X120938367Y-65632698D01*
X144512843Y-77823853D02*
X144365032Y-77872580D01*
X143500000Y-43000000D02*
X142500000Y-43000000D01*
X165017209Y-70481395D02*
X165138884Y-70245717D01*
X168799897Y-29703750D02*
X168657928Y-29767526D01*
X125500000Y-74000000D02*
X125500000Y-72999999D01*
X157449970Y-77279827D02*
X157329112Y-77377887D01*
X140414563Y-83352415D02*
X140581847Y-83146588D01*
X134446730Y-75562830D02*
X134413576Y-75714893D01*
X134323853Y-40012843D02*
X134267526Y-40157928D01*
X167909252Y-53971954D02*
X167754566Y-53989176D01*
X167654910Y-45757160D02*
X167751725Y-46004092D01*
X146489178Y-63254571D02*
X146471954Y-63409252D01*
X139646588Y-27918152D02*
X139432427Y-27761678D01*
X132938367Y-29632698D02*
X132799897Y-29703750D01*
X165500000Y-33250000D02*
X165499999Y-33000000D01*
X123500000Y-75000004D02*
X123250001Y-75000004D01*
X174745717Y-51361115D02*
X174504092Y-51251725D01*
X131982790Y-58481395D02*
X132116429Y-58710500D01*
X155600996Y-78399285D02*
X155557618Y-78538706D01*
X165248274Y-77995907D02*
X165138884Y-77754282D01*
X150981395Y-48517209D02*
X151210500Y-48383570D01*
X122018604Y-36517209D02*
X122254282Y-36638884D01*
X153017209Y-34481395D02*
X153138884Y-34245717D01*
X158372580Y-27865032D02*
X158323853Y-28012843D01*
X175432427Y-39761678D02*
X175210500Y-39616429D01*
X145147584Y-83914563D02*
X145353411Y-84081847D01*
X131600996Y-66399285D02*
X131557618Y-66538706D01*
X134968843Y-51078818D02*
X134830052Y-51124167D01*
X131648306Y-54261150D02*
X131600996Y-54399285D01*
X128236912Y-40450635D02*
X128049364Y-40263087D01*
X163852415Y-47914563D02*
X164049364Y-47736912D01*
X161500000Y-74000000D02*
X161500000Y-72999999D01*
X137500000Y-60999999D02*
X137749999Y-60999999D01*
X155624162Y-30330050D02*
X155578814Y-30468842D01*
X169789499Y-84383570D02*
X170018604Y-84517209D01*
X157203331Y-53469546D02*
X157072966Y-53554560D01*
X156585436Y-59352415D02*
X156763087Y-59549364D01*
X167751725Y-70004092D02*
X167861115Y-70245717D01*
X151210500Y-72383570D02*
X151432427Y-72238321D01*
X133353411Y-60081847D02*
X133567572Y-60238321D01*
X169877887Y-40829112D02*
X169779827Y-40949970D01*
X159250000Y-37000000D02*
X159500000Y-36999999D01*
X119654910Y-81757160D02*
X119751725Y-82004092D01*
X173750000Y-51000000D02*
X173500000Y-51000000D01*
X141017209Y-70481395D02*
X141138884Y-70245717D01*
X119754566Y-29989176D02*
X119726559Y-30056598D01*
X134692600Y-27173428D02*
X134624412Y-27199514D01*
X152883570Y-77289499D02*
X152738321Y-77067572D01*
X173500000Y-74000000D02*
X173500000Y-72999999D01*
X142500000Y-81000000D02*
X143500000Y-81000000D01*
X155500000Y-45000000D02*
X155500000Y-45249999D01*
X119861115Y-82245717D02*
X119982790Y-82481395D01*
X155754566Y-29989176D02*
X155726559Y-30056598D01*
X169969546Y-64703331D02*
X169877887Y-64829112D01*
X174981395Y-51482790D02*
X174745717Y-51361115D01*
X177499999Y-42750000D02*
X177429071Y-42494426D01*
X137749999Y-72999999D02*
X138005573Y-72929071D01*
X165248274Y-70004092D02*
X165345089Y-69757160D01*
X134471954Y-51409252D02*
X134446730Y-51562830D01*
X150981395Y-39482790D02*
X150745717Y-39361115D01*
X166500000Y-45000000D02*
X167500000Y-45000000D01*
X153248274Y-41995907D02*
X153138884Y-41754282D01*
X134413576Y-51714893D02*
X134372580Y-51865032D01*
X122413576Y-51714893D02*
X122372580Y-51865032D01*
X132512843Y-53823853D02*
X132365032Y-53872580D01*
X161500000Y-60999999D02*
X161749999Y-60999999D01*
X119654910Y-57757160D02*
X119751725Y-58004092D01*
X132512843Y-29823853D02*
X132365032Y-29872580D01*
X170692600Y-39173428D02*
X170556600Y-39226564D01*
X140049364Y-52263087D02*
X139852415Y-52085436D01*
X140581847Y-47146588D02*
X140738321Y-46932427D01*
X166500000Y-69000000D02*
X167500000Y-69000000D01*
X125500000Y-27000000D02*
X125500000Y-25000000D01*
X141017209Y-82481395D02*
X141138884Y-82245717D01*
X126504092Y-63251725D02*
X126257160Y-63154910D01*
X143500000Y-67000000D02*
X142500000Y-67000000D01*
X159250001Y-75000004D02*
X159108864Y-75037420D01*
X158018604Y-72517209D02*
X158254282Y-72638884D01*
X159500000Y-25000000D02*
X159500000Y-27000004D01*
X157353411Y-60081847D02*
X157567572Y-60238321D01*
X147250001Y-51000004D02*
X147108864Y-51037420D01*
X138257160Y-72845089D02*
X138504092Y-72748274D01*
X135108864Y-63037420D02*
X135038707Y-63057623D01*
X162504092Y-75251725D02*
X162257160Y-75154910D01*
X131751725Y-34004092D02*
X131861115Y-34245717D01*
X146495907Y-72748274D02*
X146742839Y-72845089D01*
X167751725Y-34004092D02*
X167861115Y-34245717D01*
X119557618Y-30538706D02*
X119537415Y-30608862D01*
X137500000Y-50000000D02*
X137500000Y-48999999D01*
X129499999Y-54750000D02*
X129429071Y-54494426D01*
X122471954Y-63409252D02*
X122446730Y-63562830D01*
X143557618Y-30538706D02*
X143518207Y-30679298D01*
X155500000Y-43000000D02*
X154500000Y-43000000D01*
X157969546Y-52703331D02*
X157877887Y-52829112D01*
X173500000Y-48999999D02*
X173749999Y-48999999D01*
X155500000Y-30750000D02*
X155500000Y-31000000D01*
X134489178Y-75254571D02*
X134471954Y-75409252D01*
X150504092Y-51251725D02*
X150257160Y-51154910D01*
X165500000Y-45250000D02*
X165499999Y-45000000D01*
X132418152Y-35146588D02*
X132585436Y-35352415D01*
X170018604Y-60517209D02*
X170254282Y-60638884D01*
X146446730Y-39562830D02*
X146413576Y-39714893D01*
X171500000Y-87000000D02*
X161500000Y-87000000D01*
X143570928Y-69505573D02*
X143654910Y-69757160D01*
X168418152Y-35146588D02*
X168585436Y-35352415D01*
X153248274Y-34004092D02*
X153345089Y-33757160D01*
X135250001Y-75000004D02*
X135108864Y-75037420D01*
X156261678Y-82932427D02*
X156418152Y-83146588D01*
X171250001Y-63000004D02*
X171179300Y-63018212D01*
X151432427Y-39761678D02*
X151210500Y-39616429D01*
X134054560Y-76572966D02*
X133969546Y-76703331D01*
X165499999Y-79000000D02*
X165499999Y-78750000D01*
X156799897Y-77703750D02*
X156657928Y-77767526D01*
X156418152Y-59146588D02*
X156585436Y-59352415D01*
X122742839Y-36845089D02*
X122994426Y-36929071D01*
X125749999Y-60999999D02*
X126005573Y-60929071D01*
X123108864Y-51037420D02*
X123038707Y-51057623D01*
X144261678Y-46932427D02*
X144418152Y-47146588D01*
X143654910Y-57757160D02*
X143751725Y-58004092D01*
X121779827Y-76949970D02*
X121675632Y-77065581D01*
X167699510Y-42124410D02*
X167673423Y-42192599D01*
X132418152Y-83146588D02*
X132585436Y-83352415D01*
X123250001Y-39000004D02*
X123108864Y-39037420D01*
X171250000Y-37000000D02*
X171500000Y-36999999D01*
X177017209Y-46481395D02*
X177138884Y-46245717D01*
X156418152Y-83146588D02*
X156585436Y-83352415D01*
X152049364Y-71736912D02*
X152236912Y-71549364D01*
X158413576Y-51714893D02*
X158372580Y-51865032D01*
X153248274Y-46004092D02*
X153345089Y-45757160D01*
X155570928Y-45505573D02*
X155654910Y-45757160D01*
X131570928Y-57505573D02*
X131654910Y-57757160D01*
X144512843Y-41823853D02*
X144365032Y-41872580D01*
X171500000Y-84999999D02*
X171500000Y-87000000D01*
X146830052Y-39124167D02*
X146692600Y-39173428D01*
X155751725Y-70004092D02*
X155861115Y-70245717D01*
X143500000Y-69249999D02*
X143570928Y-69505573D01*
X156657928Y-77767526D02*
X156512843Y-77823853D01*
X170761152Y-63148311D02*
X170624412Y-63199514D01*
X120950635Y-71736912D02*
X121147584Y-71914563D01*
X175646588Y-84081847D02*
X175852415Y-83914563D01*
X170413576Y-75714893D02*
X170372580Y-75865032D01*
X173750000Y-75000000D02*
X173500000Y-75000000D01*
X165499999Y-78750000D02*
X165429071Y-78494426D01*
X131673423Y-42192599D02*
X131624162Y-42330050D01*
X175646588Y-75918152D02*
X175432427Y-75761678D01*
X177499999Y-79000000D02*
X177499999Y-79000000D01*
X162257160Y-36845089D02*
X162504092Y-36748274D01*
X133877887Y-76829112D02*
X133779827Y-76949970D01*
X149750000Y-39000000D02*
X149500000Y-39000000D01*
X164581847Y-64853411D02*
X164414563Y-64647584D01*
X170323853Y-40012843D02*
X170267526Y-40157928D01*
X152738321Y-77067572D02*
X152581847Y-76853411D01*
X176581847Y-28853411D02*
X176414563Y-28647584D01*
X163432427Y-51761678D02*
X163210500Y-51616429D01*
X133072966Y-65554560D02*
X132938367Y-65632698D01*
X168585436Y-83352415D02*
X168763087Y-83549364D01*
X141248274Y-77995907D02*
X141138884Y-77754282D01*
X132938367Y-53632698D02*
X132799897Y-53703750D01*
X120585436Y-71352415D02*
X120763087Y-71549364D01*
X143909252Y-29971954D02*
X143754566Y-29989176D01*
X137500000Y-63000000D02*
X137500000Y-62000000D01*
X152581847Y-52853411D02*
X152414563Y-52647584D01*
X132365032Y-29872580D02*
X132214893Y-29913576D01*
X165017209Y-53518604D02*
X164883570Y-53289499D01*
X168950635Y-35736912D02*
X169147584Y-35914563D01*
X156214893Y-77913576D02*
X156062830Y-77946730D01*
X145147584Y-47914563D02*
X145353411Y-48081847D01*
X158495907Y-60748274D02*
X158742839Y-60845089D01*
X153429071Y-69505573D02*
X153500000Y-69250000D01*
X131570928Y-69505573D02*
X131654910Y-69757160D01*
X166500000Y-67000000D02*
X165499999Y-67000000D01*
X158994426Y-48929071D02*
X159250000Y-49000000D01*
X140236912Y-76450635D02*
X140049364Y-76263087D01*
X153345089Y-81757160D02*
X153429071Y-81505573D01*
X156950635Y-71736912D02*
X157147584Y-71914563D01*
X140883570Y-70710500D02*
X141017209Y-70481395D01*
X122994426Y-84929071D02*
X123250000Y-85000000D01*
X146323853Y-28012843D02*
X146267526Y-28157928D01*
X131500000Y-67000000D02*
X130500000Y-67000000D01*
X135250000Y-85000000D02*
X135500000Y-84999999D01*
X121449970Y-65279827D02*
X121329112Y-65377887D01*
X158203750Y-64299897D02*
X158132698Y-64438367D01*
X138504092Y-48748274D02*
X138745717Y-48638884D01*
X177499999Y-31000000D02*
X177499999Y-30750000D01*
X167909252Y-41971954D02*
X167754566Y-41989176D01*
X143909252Y-65971954D02*
X143754566Y-65989176D01*
X128738321Y-82932427D02*
X128883570Y-82710500D01*
X177138884Y-53754282D02*
X177017209Y-53518604D01*
X122489178Y-63254571D02*
X122471954Y-63409252D01*
X153429071Y-78494426D02*
X153345089Y-78242839D01*
X153429071Y-54494426D02*
X153345089Y-54242839D01*
X167861115Y-34245717D02*
X167982790Y-34481395D01*
X131500000Y-31000000D02*
X130500000Y-31000000D01*
X128049364Y-40263087D02*
X127852415Y-40085436D01*
X127432427Y-36238321D02*
X127646588Y-36081847D01*
X144214893Y-29913576D02*
X144062830Y-29946730D01*
X149500000Y-87000000D02*
X149500000Y-84999999D01*
X171500000Y-63000004D02*
X171250001Y-63000004D01*
X140414563Y-47352415D02*
X140581847Y-47146588D01*
X143673423Y-78192599D02*
X143624162Y-78330050D01*
X120214893Y-77913576D02*
X120062830Y-77946730D01*
X138005573Y-36929071D02*
X138257160Y-36845089D01*
X145203331Y-29469546D02*
X145072966Y-29554560D01*
X146267526Y-28157928D02*
X146203750Y-28299897D01*
X129248274Y-29995907D02*
X129138884Y-29754282D01*
X121675632Y-65065581D02*
X121565581Y-65175632D01*
X128738321Y-41067572D02*
X128581847Y-40853411D01*
X144116429Y-34710500D02*
X144261678Y-34932427D01*
X121565581Y-41175632D02*
X121449970Y-41279827D01*
X131754566Y-65989176D02*
X131699510Y-66124410D01*
X152738321Y-34932427D02*
X152883570Y-34710500D01*
X129499999Y-78750000D02*
X129429071Y-78494426D01*
X170018604Y-36517209D02*
X170254282Y-36638884D01*
X131699510Y-42124410D02*
X131673423Y-42192599D01*
X128883570Y-65289499D02*
X128738321Y-65067572D01*
X167861115Y-46245717D02*
X167982790Y-46481395D01*
X174257160Y-48845089D02*
X174504092Y-48748274D01*
X126981395Y-63482790D02*
X126745717Y-63361115D01*
X155518207Y-78679298D02*
X155500000Y-78750000D01*
X158624412Y-75199514D02*
X158489178Y-75254571D01*
X167909252Y-77971954D02*
X167754566Y-77989176D01*
X162981395Y-60517209D02*
X163210500Y-60383570D01*
X139432427Y-60238321D02*
X139646588Y-60081847D01*
X133203331Y-41469546D02*
X133072966Y-41554560D01*
X133072966Y-29554560D02*
X132938367Y-29632698D01*
X167500000Y-67000000D02*
X166500000Y-67000000D01*
X169567572Y-84238321D02*
X169789499Y-84383570D01*
X175646588Y-63918152D02*
X175432427Y-63761678D01*
X156062830Y-41946730D02*
X155909252Y-41971954D01*
X128236912Y-47549364D02*
X128414563Y-47352415D01*
X152236912Y-28450635D02*
X152049364Y-28263087D01*
X126504092Y-60748274D02*
X126745717Y-60638884D01*
X144657928Y-77767526D02*
X144512843Y-77823853D01*
X174745717Y-36638884D02*
X174981395Y-36517209D01*
X129499999Y-43000000D02*
X129499999Y-42750000D01*
X125749999Y-84999999D02*
X126005573Y-84929071D01*
X170761152Y-75148311D02*
X170692600Y-75173428D01*
X169147584Y-71914563D02*
X169353411Y-72081847D01*
X121969546Y-52703331D02*
X121877887Y-52829112D01*
X134054560Y-52572966D02*
X133969546Y-52703331D01*
X167500000Y-78750000D02*
X167500000Y-79000000D01*
X133675632Y-41065581D02*
X133565581Y-41175632D01*
X157567572Y-60238321D02*
X157789499Y-60383570D01*
X153499999Y-42750000D02*
X153429071Y-42494426D01*
X177499999Y-67000000D02*
X177499999Y-67000000D01*
X152049364Y-40263087D02*
X151852415Y-40085436D01*
X163432427Y-84238321D02*
X163646588Y-84081847D01*
X119648306Y-54261150D02*
X119600996Y-54399285D01*
X134446730Y-27562830D02*
X134413576Y-27714893D01*
X149500000Y-27000000D02*
X149500000Y-25000000D01*
X131699510Y-78124410D02*
X131673423Y-78192599D01*
X152414563Y-28647584D02*
X152236912Y-28450635D01*
X146413576Y-75714893D02*
X146372580Y-75865032D01*
X126504092Y-84748274D02*
X126745717Y-84638884D01*
X173500000Y-62000000D02*
X173500000Y-60999999D01*
X168261678Y-58932427D02*
X168418152Y-59146588D01*
X140581847Y-83146588D02*
X140738321Y-82932427D01*
X137750000Y-75000000D02*
X137500000Y-75000000D01*
X121969546Y-28703331D02*
X121877887Y-28829112D01*
X146446730Y-27562830D02*
X146413576Y-27714893D01*
X145329112Y-65377887D02*
X145203331Y-65469546D01*
X132116429Y-58710500D02*
X132261678Y-58932427D01*
X131909252Y-65971954D02*
X131754566Y-65989176D01*
X174504092Y-75251725D02*
X174257160Y-75154910D01*
X146761152Y-51148311D02*
X146624412Y-51199514D01*
X162981395Y-36517209D02*
X163210500Y-36383570D01*
X131600996Y-42399285D02*
X131578814Y-42468842D01*
X145203331Y-41469546D02*
X145072966Y-41554560D01*
X143982790Y-82481395D02*
X144116429Y-82710500D01*
X138981395Y-63482790D02*
X138745717Y-63361115D01*
X135500000Y-74000000D02*
X135500000Y-75000004D01*
X126745717Y-51361115D02*
X126504092Y-51251725D01*
X146489178Y-75254571D02*
X146471954Y-75409252D01*
X155726559Y-54056598D02*
X155673423Y-54192599D01*
X167600996Y-66399285D02*
X167557618Y-66538706D01*
X121072966Y-53554560D02*
X120938367Y-53632698D01*
X168261678Y-46932427D02*
X168418152Y-47146588D01*
X132657928Y-53767526D02*
X132512843Y-53823853D01*
X156585436Y-83352415D02*
X156763087Y-83549364D01*
X158446730Y-27562830D02*
X158413576Y-27714893D01*
X163852415Y-83914563D02*
X164049364Y-83736912D01*
X121449970Y-29279827D02*
X121329112Y-29377887D01*
X146132698Y-52438367D02*
X146054560Y-52572966D01*
X159500000Y-50000000D02*
X159500000Y-51000004D01*
X122495907Y-60748274D02*
X122742839Y-60845089D01*
X138745717Y-84638884D02*
X138981395Y-84517209D01*
X169675632Y-53065581D02*
X169565581Y-53175632D01*
X140883570Y-46710500D02*
X141017209Y-46481395D01*
X164236912Y-64450635D02*
X164049364Y-64263087D01*
X156365032Y-65872580D02*
X156214893Y-65913576D01*
X121877887Y-40829112D02*
X121779827Y-40949970D01*
X133329112Y-41377887D02*
X133203331Y-41469546D01*
X134323853Y-28012843D02*
X134267526Y-28157928D01*
X162504092Y-51251725D02*
X162257160Y-51154910D01*
X151646588Y-72081847D02*
X151852415Y-71914563D01*
X179500000Y-81000000D02*
X179500000Y-87000000D01*
X120585436Y-35352415D02*
X120763087Y-35549364D01*
X122624412Y-51199514D02*
X122489178Y-51254571D01*
X150005573Y-84929071D02*
X150257160Y-84845089D01*
X121779827Y-40949970D02*
X121675632Y-41065581D01*
X150257160Y-60845089D02*
X150504092Y-60748274D01*
X129429071Y-45505573D02*
X129500000Y-45250000D01*
X156585436Y-71352415D02*
X156763087Y-71549364D01*
X170994426Y-72929071D02*
X171250000Y-73000000D01*
X157969546Y-40703331D02*
X157877887Y-40829112D01*
X165499999Y-43000000D02*
X165499999Y-42750000D01*
X131861115Y-70245717D02*
X131982790Y-70481395D01*
X157969546Y-28703331D02*
X157877887Y-28829112D01*
X147250001Y-75000004D02*
X147108864Y-75037420D01*
X140581847Y-71146588D02*
X140738321Y-70932427D01*
X175210500Y-75616429D02*
X174981395Y-75482790D01*
X150005573Y-63070928D02*
X149750000Y-63000000D01*
X158132698Y-64438367D02*
X158054560Y-64572966D01*
X127210500Y-36383570D02*
X127432427Y-36238321D01*
X135500000Y-75000004D02*
X135250001Y-75000004D01*
X163432427Y-39761678D02*
X163210500Y-39616429D01*
X153499999Y-78750000D02*
X153429071Y-78494426D01*
X168062830Y-29946730D02*
X167909252Y-29971954D01*
X175210500Y-39616429D02*
X174981395Y-39482790D01*
X167673423Y-66192599D02*
X167624162Y-66330050D01*
X147108864Y-63037420D02*
X147038707Y-63057623D01*
X151210500Y-48383570D02*
X151432427Y-48238321D01*
X151210500Y-63616429D02*
X150981395Y-63482790D01*
X145072966Y-65554560D02*
X144938367Y-65632698D01*
X152236912Y-47549364D02*
X152414563Y-47352415D01*
X119500000Y-30750000D02*
X119500000Y-31000000D01*
X169565581Y-29175632D02*
X169449970Y-29279827D01*
X154500000Y-43000000D02*
X153499999Y-43000000D01*
X156799897Y-29703750D02*
X156657928Y-29767526D01*
X167578814Y-30468842D02*
X167557618Y-30538706D01*
X159108864Y-75037420D02*
X159038707Y-75057623D01*
X138504092Y-39251725D02*
X138257160Y-39154910D01*
X143982790Y-34481395D02*
X144116429Y-34710500D01*
X137500000Y-75000000D02*
X137500000Y-74000000D01*
X158372580Y-51865032D02*
X158323853Y-52012843D01*
X147500000Y-27000004D02*
X147500000Y-27000004D01*
X161750000Y-75000000D02*
X161500000Y-75000000D01*
X119537415Y-66608862D02*
X119500000Y-66750000D01*
X144365032Y-53872580D02*
X144214893Y-53913576D01*
X146624412Y-75199514D02*
X146489178Y-75254571D01*
X134489178Y-63254571D02*
X134471954Y-63409252D01*
X147250000Y-61000000D02*
X147500000Y-60999999D01*
X163210500Y-63616429D02*
X162981395Y-63482790D01*
X120950635Y-35736912D02*
X121147584Y-35914563D01*
X158267526Y-28157928D02*
X158203750Y-28299897D01*
X177499999Y-57000000D02*
X179500000Y-57000000D01*
X170254282Y-36638884D02*
X170495907Y-36748274D01*
X153429071Y-57505573D02*
X153500000Y-57250000D01*
X143518207Y-30679298D02*
X143500000Y-30750000D01*
X147500000Y-38000000D02*
X147500000Y-39000004D01*
X153345089Y-45757160D02*
X153429071Y-45505573D01*
X150504092Y-39251725D02*
X150257160Y-39154910D01*
X163210500Y-84383570D02*
X163432427Y-84238321D01*
X122203750Y-52299897D02*
X122132698Y-52438367D01*
X164414563Y-28647584D02*
X164236912Y-28450635D01*
X138005573Y-60929071D02*
X138257160Y-60845089D01*
X134495907Y-72748274D02*
X134742839Y-72845089D01*
X134018604Y-60517209D02*
X134254282Y-60638884D01*
X165017209Y-41518604D02*
X164883570Y-41289499D01*
X133072966Y-77554560D02*
X132938367Y-77632698D01*
X119751725Y-82004092D02*
X119861115Y-82245717D01*
X151432427Y-60238321D02*
X151646588Y-60081847D01*
X173500000Y-84999999D02*
X173749999Y-84999999D01*
X121072966Y-41554560D02*
X120938367Y-41632698D01*
X128414563Y-83352415D02*
X128581847Y-83146588D01*
X138981395Y-48517209D02*
X139210500Y-48383570D01*
X122742839Y-72845089D02*
X122994426Y-72929071D01*
X174981395Y-75482790D02*
X174745717Y-75361115D01*
X146556600Y-39226564D02*
X146489178Y-39254571D01*
X123500000Y-38000000D02*
X123500000Y-39000004D01*
X143570928Y-33505573D02*
X143654910Y-33757160D01*
X177499999Y-78750000D02*
X177429071Y-78494426D01*
X147250000Y-49000000D02*
X147500000Y-48999999D01*
X151210500Y-39616429D02*
X150981395Y-39482790D01*
X142500000Y-45000000D02*
X143500000Y-45000000D01*
X138005573Y-75070928D02*
X137750000Y-75000000D01*
X146018604Y-60517209D02*
X146254282Y-60638884D01*
X129500000Y-45250000D02*
X129499999Y-45000000D01*
X131500000Y-81000000D02*
X131500000Y-81249999D01*
X154500000Y-81000000D02*
X155500000Y-81000000D01*
X169779827Y-40949970D02*
X169675632Y-41065581D01*
X146018604Y-84517209D02*
X146254282Y-84638884D01*
X145449970Y-53279827D02*
X145329112Y-53377887D01*
X143500000Y-45249999D02*
X143570928Y-45505573D01*
X169789499Y-72383570D02*
X170018604Y-72517209D01*
X157675632Y-29065581D02*
X157565581Y-29175632D01*
X170132698Y-52438367D02*
X170054560Y-52572966D01*
X168214893Y-53913576D02*
X168062830Y-53946730D01*
X131909252Y-29971954D02*
X131754566Y-29989176D01*
X141345089Y-42242839D02*
X141248274Y-41995907D01*
X133329112Y-77377887D02*
X133203331Y-77469546D01*
X157329112Y-41377887D02*
X157203331Y-41469546D01*
X127432427Y-60238321D02*
X127646588Y-60081847D01*
X141345089Y-81757160D02*
X141429071Y-81505573D01*
X130500000Y-43000000D02*
X129499999Y-43000000D01*
X121203331Y-41469546D02*
X121072966Y-41554560D01*
X137749999Y-84999999D02*
X138005573Y-84929071D01*
X133449970Y-29279827D02*
X133329112Y-29377887D01*
X140738321Y-58932427D02*
X140883570Y-58710500D01*
X176581847Y-83146588D02*
X176738321Y-82932427D01*
X145779827Y-64949970D02*
X145675632Y-65065581D01*
X117500001Y-33000000D02*
X119500000Y-33000000D01*
X146994426Y-48929071D02*
X147250000Y-49000000D01*
X156763087Y-35549364D02*
X156950635Y-35736912D01*
X170471954Y-75409252D02*
X170446730Y-75562830D01*
X119537415Y-54608862D02*
X119500000Y-54750000D01*
X143861115Y-70245717D02*
X143982790Y-70481395D01*
X152236912Y-71549364D02*
X152414563Y-71352415D01*
X179500000Y-55000000D02*
X177499999Y-55000000D01*
X177499999Y-79000000D02*
X177499999Y-78750000D01*
X129345089Y-54242839D02*
X129248274Y-53995907D01*
X163432427Y-63761678D02*
X163210500Y-63616429D01*
X158054560Y-52572966D02*
X157969546Y-52703331D01*
X177500000Y-81250000D02*
X177499999Y-81000000D01*
X133789499Y-48383570D02*
X134018604Y-48517209D01*
X175852415Y-76085436D02*
X175646588Y-75918152D01*
X123500000Y-84999999D02*
X123500000Y-87000000D01*
X140738321Y-77067572D02*
X140581847Y-76853411D01*
X125500000Y-84999999D02*
X125500000Y-84999999D01*
X153017209Y-58481395D02*
X153138884Y-58245717D01*
X145779827Y-28949970D02*
X145675632Y-29065581D01*
X155500000Y-69249999D02*
X155570928Y-69505573D01*
X162745717Y-39361115D02*
X162504092Y-39251725D01*
X144418152Y-83146588D02*
X144585436Y-83352415D01*
X153429071Y-33505573D02*
X153500000Y-33250000D01*
X170830052Y-51124167D02*
X170761152Y-51148311D01*
X122254282Y-36638884D02*
X122495907Y-36748274D01*
X143500000Y-66750000D02*
X143500000Y-67000000D01*
X177017209Y-34481395D02*
X177138884Y-34245717D01*
X176883570Y-77289499D02*
X176738321Y-77067572D01*
X165499999Y-42750000D02*
X165429071Y-42494426D01*
X140581847Y-28853411D02*
X140414563Y-28647584D01*
X156763087Y-59549364D02*
X156950635Y-59736912D01*
X157877887Y-52829112D02*
X157779827Y-52949970D01*
X165429071Y-30494426D02*
X165345089Y-30242839D01*
X161749999Y-72999999D02*
X161749999Y-72999999D01*
X153138884Y-46245717D02*
X153248274Y-46004092D01*
X120116429Y-70710500D02*
X120261678Y-70932427D01*
X139210500Y-51616429D02*
X138981395Y-51482790D01*
X131726559Y-30056598D02*
X131673423Y-30192599D01*
X168938367Y-65632698D02*
X168799897Y-65703750D01*
X120657928Y-65767526D02*
X120512843Y-65823853D01*
X140414563Y-71352415D02*
X140581847Y-71146588D01*
X134054560Y-40572966D02*
X133969546Y-40703331D01*
X171250001Y-51000004D02*
X171179300Y-51018212D01*
X158054560Y-64572966D02*
X157969546Y-64703331D01*
X125500000Y-84999999D02*
X125749999Y-84999999D01*
X127852415Y-28085436D02*
X127646588Y-27918152D01*
X155500000Y-81249999D02*
X155570928Y-81505573D01*
X155751725Y-46004092D02*
X155861115Y-46245717D01*
X163210500Y-36383570D02*
X163432427Y-36238321D01*
X164883570Y-58710500D02*
X165017209Y-58481395D01*
X143699510Y-78124410D02*
X143673423Y-78192599D01*
X133789499Y-84383570D02*
X134018604Y-84517209D01*
X119500000Y-81000000D02*
X119500000Y-81000000D01*
X146132698Y-28438367D02*
X146054560Y-28572966D01*
X120365032Y-77872580D02*
X120214893Y-77913576D01*
X140414563Y-59352415D02*
X140581847Y-59146588D01*
X162745717Y-72638884D02*
X162981395Y-72517209D01*
X144062830Y-53946730D02*
X143909252Y-53971954D01*
X129248274Y-58004092D02*
X129345089Y-57757160D01*
X122899287Y-75101001D02*
X122761152Y-75148311D01*
X140049364Y-40263087D02*
X139852415Y-40085436D01*
X132799897Y-53703750D02*
X132657928Y-53767526D01*
X122267526Y-52157928D02*
X122203750Y-52299897D01*
X174257160Y-36845089D02*
X174504092Y-36748274D01*
X141499999Y-81000000D02*
X142500000Y-81000000D01*
X137750000Y-27000000D02*
X137500000Y-27000000D01*
X167500000Y-33000000D02*
X167500000Y-33249999D01*
X170372580Y-39865032D02*
X170323853Y-40012843D01*
X134372580Y-63865032D02*
X134323853Y-64012843D01*
X121353411Y-60081847D02*
X121567572Y-60238321D01*
X119654910Y-69757160D02*
X119751725Y-70004092D01*
X123108864Y-39037420D02*
X123038707Y-39057623D01*
X140883570Y-34710500D02*
X141017209Y-34481395D01*
X132512843Y-77823853D02*
X132365032Y-77872580D01*
X175432427Y-51761678D02*
X175210500Y-51616429D01*
X146471954Y-63409252D02*
X146446730Y-63562830D01*
X146471954Y-75409252D02*
X146446730Y-75562830D01*
X165345089Y-33757160D02*
X165429071Y-33505573D01*
X168763087Y-71549364D02*
X168950635Y-71736912D01*
X165138884Y-34245717D02*
X165248274Y-34004092D01*
X126981395Y-72517209D02*
X127210500Y-72383570D01*
X138257160Y-60845089D02*
X138504092Y-60748274D01*
X131500000Y-78750000D02*
X131500000Y-79000000D01*
X177429071Y-69505573D02*
X177500000Y-69250000D01*
X146899287Y-27101001D02*
X146830052Y-27124167D01*
X138745717Y-36638884D02*
X138981395Y-36517209D01*
X147500000Y-63000004D02*
X147250001Y-63000004D01*
X122267526Y-28157928D02*
X122203750Y-28299897D01*
X165499999Y-69000000D02*
X166500000Y-69000000D01*
X176883570Y-46710500D02*
X177017209Y-46481395D01*
X151852415Y-47914563D02*
X152049364Y-47736912D01*
X157789499Y-36383570D02*
X158018604Y-36517209D01*
X143624162Y-42330050D02*
X143578814Y-42468842D01*
X153017209Y-82481395D02*
X153138884Y-82245717D01*
X150504092Y-72748274D02*
X150745717Y-72638884D01*
X177017209Y-77518604D02*
X176883570Y-77289499D01*
X121675632Y-41065581D02*
X121565581Y-41175632D01*
X169353411Y-36081847D02*
X169567572Y-36238321D01*
X134254282Y-84638884D02*
X134495907Y-84748274D01*
X158446730Y-51562830D02*
X158413576Y-51714893D01*
X175852415Y-47914563D02*
X176049364Y-47736912D01*
X164236912Y-71549364D02*
X164414563Y-71352415D01*
X150745717Y-39361115D02*
X150504092Y-39251725D01*
X156116429Y-34710500D02*
X156261678Y-34932427D01*
X170203750Y-52299897D02*
X170132698Y-52438367D01*
X151646588Y-63918152D02*
X151432427Y-63761678D01*
X176049364Y-64263087D02*
X175852415Y-64085436D01*
X123250000Y-61000000D02*
X123500000Y-60999999D01*
X168261678Y-82932427D02*
X168418152Y-83146588D01*
X155500000Y-33000000D02*
X155500000Y-33249999D01*
X134267526Y-52157928D02*
X134203750Y-52299897D01*
X158489178Y-75254571D02*
X158471954Y-75409252D01*
X171038707Y-75057623D02*
X170899287Y-75101001D01*
X125749999Y-36999999D02*
X126005573Y-36929071D01*
X128414563Y-35352415D02*
X128581847Y-35146588D01*
X155861115Y-46245717D02*
X155982790Y-46481395D01*
X143726559Y-42056598D02*
X143673423Y-42192599D01*
X139852415Y-28085436D02*
X139646588Y-27918152D01*
X139432427Y-27761678D02*
X139210500Y-27616429D01*
X141345089Y-30242839D02*
X141248274Y-29995907D01*
X147500000Y-60999999D02*
X147500000Y-62000000D01*
X134132698Y-40438367D02*
X134054560Y-40572966D01*
X119624162Y-78330050D02*
X119600996Y-78399285D01*
X129499999Y-54750000D02*
X129499999Y-54750000D01*
X176049364Y-35736912D02*
X176236912Y-35549364D01*
X157789499Y-48383570D02*
X158018604Y-48517209D01*
X125500000Y-50000000D02*
X125500000Y-48999999D01*
X145779827Y-40949970D02*
X145675632Y-41065581D01*
X123250001Y-63000004D02*
X123108864Y-63037420D01*
X158471954Y-75409252D02*
X158446730Y-75562830D01*
X128883570Y-82710500D02*
X129017209Y-82481395D01*
X123250000Y-73000000D02*
X123500000Y-72999999D01*
X163210500Y-39616429D02*
X162981395Y-39482790D01*
X164414563Y-71352415D02*
X164581847Y-71146588D01*
X150257160Y-51154910D02*
X150005573Y-51070928D01*
X170203750Y-28299897D02*
X170132698Y-28438367D01*
X174745717Y-63361115D02*
X174504092Y-63251725D01*
X131500000Y-69249999D02*
X131570928Y-69505573D01*
X177248274Y-70004092D02*
X177345089Y-69757160D01*
X159500000Y-62000000D02*
X159500000Y-63000004D01*
X174504092Y-84748274D02*
X174745717Y-84638884D01*
X174257160Y-27154910D02*
X174005573Y-27070928D01*
X158624412Y-63199514D02*
X158489178Y-63254571D01*
X137500000Y-74000000D02*
X137500000Y-72999999D01*
X153248274Y-77995907D02*
X153138884Y-77754282D01*
X140883570Y-41289499D02*
X140738321Y-41067572D01*
X176414563Y-28647584D02*
X176236912Y-28450635D01*
X130500000Y-67000000D02*
X129499999Y-67000000D01*
X120512843Y-65823853D02*
X120365032Y-65872580D01*
X158267526Y-64157928D02*
X158203750Y-64299897D01*
X170054560Y-40572966D02*
X169969546Y-40703331D01*
X140883570Y-29289499D02*
X140738321Y-29067572D01*
X149500000Y-72999999D02*
X149749999Y-72999999D01*
X122132698Y-40438367D02*
X122054560Y-40572966D01*
X153499999Y-57000000D02*
X154500000Y-57000000D01*
X140236912Y-35549364D02*
X140414563Y-35352415D01*
X153345089Y-42242839D02*
X153248274Y-41995907D01*
X128414563Y-40647584D02*
X128236912Y-40450635D01*
X143624162Y-30330050D02*
X143578814Y-30468842D01*
X141138884Y-77754282D02*
X141017209Y-77518604D01*
X126504092Y-39251725D02*
X126257160Y-39154910D01*
X135500000Y-72999999D02*
X135500000Y-74000000D01*
X171500000Y-74000000D02*
X171500000Y-75000004D01*
X167624162Y-66330050D02*
X167600996Y-66399285D01*
X123500000Y-48999999D02*
X123500000Y-50000000D01*
X126745717Y-60638884D02*
X126981395Y-60517209D01*
X157789499Y-60383570D02*
X158018604Y-60517209D01*
X133147584Y-83914563D02*
X133353411Y-84081847D01*
X129500000Y-81250000D02*
X129499999Y-81000000D01*
X147108864Y-27037420D02*
X146968843Y-27078818D01*
X150257160Y-39154910D02*
X150005573Y-39070928D01*
X126745717Y-63361115D02*
X126504092Y-63251725D01*
X156418152Y-35146588D02*
X156585436Y-35352415D01*
X167500000Y-81000000D02*
X167500000Y-81249999D01*
X158323853Y-40012843D02*
X158267526Y-40157928D01*
X153345089Y-57757160D02*
X153429071Y-57505573D01*
X176738321Y-29067572D02*
X176581847Y-28853411D01*
X131537415Y-78608862D02*
X131500000Y-78750000D01*
X131500000Y-57000000D02*
X131500000Y-57249999D01*
X127432427Y-63761678D02*
X127210500Y-63616429D01*
X167500000Y-42750000D02*
X167500000Y-43000000D01*
X168950635Y-71736912D02*
X169147584Y-71914563D01*
X167754566Y-41989176D02*
X167699510Y-42124410D01*
X152414563Y-59352415D02*
X152581847Y-59146588D01*
X169567572Y-60238321D02*
X169789499Y-60383570D01*
X123500000Y-63000004D02*
X123250001Y-63000004D01*
X127432427Y-72238321D02*
X127646588Y-72081847D01*
X163646588Y-72081847D02*
X163852415Y-71914563D01*
X164738321Y-70932427D02*
X164883570Y-70710500D01*
X119500000Y-69000000D02*
X119500000Y-69249999D01*
X168365032Y-65872580D02*
X168214893Y-65913576D01*
X144799897Y-53703750D02*
X144657928Y-53767526D01*
X131673423Y-54192599D02*
X131648306Y-54261150D01*
X119909252Y-53971954D02*
X119754566Y-53989176D01*
X139646588Y-75918152D02*
X139432427Y-75761678D01*
X165138884Y-41754282D02*
X165017209Y-41518604D01*
X145353411Y-60081847D02*
X145567572Y-60238321D01*
X176414563Y-64647584D02*
X176236912Y-64450635D01*
X170489178Y-27254571D02*
X170471954Y-27409252D01*
X152738321Y-41067572D02*
X152581847Y-40853411D01*
X151852415Y-71914563D02*
X152049364Y-71736912D01*
X179500000Y-45000000D02*
X179500000Y-55000000D01*
X145147584Y-71914563D02*
X145353411Y-72081847D01*
X158692600Y-39173428D02*
X158556600Y-39226564D01*
X156261678Y-58932427D02*
X156418152Y-59146588D01*
X151432427Y-27761678D02*
X151210500Y-27616429D01*
X128738321Y-77067572D02*
X128581847Y-76853411D01*
X119557618Y-78538706D02*
X119537415Y-78608862D01*
X141499999Y-78750000D02*
X141429071Y-78494426D01*
X127646588Y-63918152D02*
X127432427Y-63761678D01*
X144116429Y-70710500D02*
X144261678Y-70932427D01*
X122267526Y-64157928D02*
X122203750Y-64299897D01*
X141499999Y-42750000D02*
X141429071Y-42494426D01*
X131673423Y-30192599D02*
X131624162Y-30330050D01*
X158899287Y-51101001D02*
X158830052Y-51124167D01*
X133449970Y-41279827D02*
X133329112Y-41377887D01*
X132062830Y-53946730D02*
X131909252Y-53971954D01*
X156512843Y-29823853D02*
X156365032Y-29872580D01*
X129499999Y-67000000D02*
X129499999Y-66750000D01*
X122994426Y-60929071D02*
X123250000Y-61000000D01*
X162504092Y-60748274D02*
X162745717Y-60638884D01*
X169072966Y-41554560D02*
X168938367Y-41632698D01*
X176414563Y-47352415D02*
X176581847Y-47146588D01*
X120116429Y-82710500D02*
X120261678Y-82932427D01*
X177429071Y-81505573D02*
X177500000Y-81250000D01*
X152883570Y-34710500D02*
X153017209Y-34481395D01*
X134203750Y-64299897D02*
X134132698Y-64438367D01*
X133969546Y-76703331D02*
X133877887Y-76829112D01*
X117500001Y-67000000D02*
X117500001Y-57000000D01*
X149500000Y-36999999D02*
X149749999Y-36999999D01*
X123500000Y-27000004D02*
X123250001Y-27000004D01*
X164414563Y-47352415D02*
X164581847Y-47146588D01*
X143500000Y-54750000D02*
X143500000Y-55000000D01*
X134054560Y-28572966D02*
X133969546Y-28703331D01*
X131500000Y-45249999D02*
X131570928Y-45505573D01*
X171500000Y-27000004D02*
X171250001Y-27000004D01*
X167500000Y-81249999D02*
X167570928Y-81505573D01*
X138005573Y-72929071D02*
X138257160Y-72845089D01*
X170830052Y-27124167D02*
X170692600Y-27173428D01*
X158054560Y-40572966D02*
X157969546Y-40703331D01*
X167500000Y-79000000D02*
X166500000Y-79000000D01*
X129017209Y-58481395D02*
X129138884Y-58245717D01*
X164049364Y-47736912D02*
X164236912Y-47549364D01*
X122132698Y-76438367D02*
X122054560Y-76572966D01*
X153500000Y-45250000D02*
X153499999Y-45000000D01*
X144116429Y-46710500D02*
X144261678Y-46932427D01*
X137500000Y-62000000D02*
X137500000Y-60999999D01*
X119537415Y-78608862D02*
X119500000Y-78750000D01*
X175432427Y-60238321D02*
X175646588Y-60081847D01*
X184500000Y-20000000D02*
X112500001Y-20000000D01*
X177138884Y-46245717D02*
X177248274Y-46004092D01*
X134742839Y-48845089D02*
X134994426Y-48929071D01*
X175852415Y-35914563D02*
X176049364Y-35736912D01*
X120938367Y-65632698D02*
X120799897Y-65703750D01*
X170446730Y-51562830D02*
X170413576Y-51714893D01*
X125750000Y-27000000D02*
X125500000Y-27000000D01*
X120585436Y-83352415D02*
X120763087Y-83549364D01*
X141499999Y-79000000D02*
X141499999Y-78750000D01*
X149500000Y-74000000D02*
X149500000Y-72999999D01*
X129500000Y-69250000D02*
X129499999Y-69000000D01*
X127432427Y-39761678D02*
X127210500Y-39616429D01*
X130500000Y-79000000D02*
X129499999Y-79000000D01*
X143673423Y-42192599D02*
X143624162Y-42330050D01*
X167861115Y-58245717D02*
X167982790Y-58481395D01*
X132116429Y-82710500D02*
X132261678Y-82932427D01*
X177429071Y-57505573D02*
X177500000Y-57250000D01*
X127852415Y-83914563D02*
X128049364Y-83736912D01*
X174745717Y-72638884D02*
X174981395Y-72517209D01*
X121353411Y-84081847D02*
X121567572Y-84238321D01*
X164414563Y-40647584D02*
X164236912Y-40450635D01*
X152738321Y-29067572D02*
X152581847Y-28853411D01*
X147250000Y-37000000D02*
X147500000Y-36999999D01*
X126504092Y-72748274D02*
X126745717Y-72638884D01*
X132261678Y-82932427D02*
X132418152Y-83146588D01*
X121789499Y-72383570D02*
X122018604Y-72517209D01*
X133567572Y-60238321D02*
X133789499Y-60383570D01*
X137500000Y-27000000D02*
X137500000Y-25000000D01*
X141429071Y-54494426D02*
X141345089Y-54242839D01*
X144214893Y-41913576D02*
X144062830Y-41946730D01*
X156512843Y-53823853D02*
X156365032Y-53872580D01*
X166500000Y-43000000D02*
X165499999Y-43000000D01*
X152581847Y-47146588D02*
X152738321Y-46932427D01*
X176414563Y-83352415D02*
X176581847Y-83146588D01*
X143500000Y-57000000D02*
X143500000Y-57249999D01*
X151432427Y-72238321D02*
X151646588Y-72081847D01*
X143557618Y-66538706D02*
X143518207Y-66679298D01*
X168261678Y-34932427D02*
X168418152Y-35146588D01*
X129345089Y-81757160D02*
X129429071Y-81505573D01*
X144512843Y-65823853D02*
X144365032Y-65872580D01*
X152414563Y-64647584D02*
X152236912Y-64450635D01*
X144365032Y-65872580D02*
X144214893Y-65913576D01*
X164049364Y-59736912D02*
X164236912Y-59549364D01*
X155673423Y-30192599D02*
X155624162Y-30330050D01*
X149500000Y-39000000D02*
X149500000Y-38000000D01*
X139432427Y-72238321D02*
X139646588Y-72081847D01*
X119500000Y-33000000D02*
X119500000Y-33249999D01*
X119537415Y-30608862D02*
X119500000Y-30750000D01*
X155500000Y-55000000D02*
X154500000Y-55000000D01*
X143861115Y-46245717D02*
X143982790Y-46481395D01*
X120365032Y-41872580D02*
X120214893Y-41913576D01*
X120418152Y-47146588D02*
X120585436Y-47352415D01*
X145449970Y-41279827D02*
X145329112Y-41377887D01*
X121203331Y-77469546D02*
X121072966Y-77554560D01*
X134899287Y-39101001D02*
X134830052Y-39124167D01*
X140581847Y-35146588D02*
X140738321Y-34932427D01*
X121147584Y-59914563D02*
X121353411Y-60081847D01*
X133567572Y-36238321D02*
X133789499Y-36383570D01*
X153138884Y-58245717D02*
X153248274Y-58004092D01*
X120214893Y-29913576D02*
X120062830Y-29946730D01*
X158018604Y-36517209D02*
X158254282Y-36638884D01*
X141138884Y-29754282D02*
X141017209Y-29518604D01*
X157449970Y-29279827D02*
X157329112Y-29377887D01*
X134413576Y-39714893D02*
X134372580Y-39865032D01*
X174745717Y-39361115D02*
X174504092Y-39251725D01*
X144062830Y-77946730D02*
X143909252Y-77971954D01*
X177138884Y-70245717D02*
X177248274Y-70004092D01*
X140049364Y-28263087D02*
X139852415Y-28085436D01*
X171250000Y-73000000D02*
X171500000Y-72999999D01*
X151432427Y-51761678D02*
X151210500Y-51616429D01*
X162257160Y-72845089D02*
X162504092Y-72748274D01*
X131500000Y-42750000D02*
X131500000Y-43000000D01*
X163210500Y-60383570D02*
X163432427Y-60238321D01*
X139210500Y-36383570D02*
X139432427Y-36238321D01*
X152049364Y-28263087D02*
X151852415Y-28085436D01*
X151852415Y-76085436D02*
X151646588Y-75918152D01*
X149500000Y-38000000D02*
X149500000Y-36999999D01*
X120657928Y-53767526D02*
X120512843Y-53823853D01*
X138257160Y-75154910D02*
X138005573Y-75070928D01*
X170413576Y-39714893D02*
X170372580Y-39865032D01*
X157353411Y-36081847D02*
X157567572Y-36238321D01*
X143624162Y-66330050D02*
X143600996Y-66399285D01*
X157675632Y-41065581D02*
X157565581Y-41175632D01*
X157147584Y-71914563D02*
X157353411Y-72081847D01*
X177429071Y-66494426D02*
X177345089Y-66242839D01*
X119699510Y-78124410D02*
X119673423Y-78192599D01*
X177345089Y-66242839D02*
X177248274Y-65995907D01*
X126005573Y-36929071D02*
X126257160Y-36845089D01*
X122489178Y-51254571D02*
X122471954Y-51409252D01*
X155754566Y-65989176D02*
X155699510Y-66124410D01*
X143500000Y-33249999D02*
X143570928Y-33505573D01*
X169449970Y-41279827D02*
X169329112Y-41377887D01*
X132657928Y-65767526D02*
X132512843Y-65823853D01*
X169779827Y-28949970D02*
X169675632Y-29065581D01*
X174257160Y-51154910D02*
X174005573Y-51070928D01*
X165345089Y-45757160D02*
X165429071Y-45505573D01*
X156116429Y-70710500D02*
X156261678Y-70932427D01*
X119909252Y-41971954D02*
X119754566Y-41989176D01*
X144657928Y-41767526D02*
X144512843Y-41823853D01*
X134742839Y-36845089D02*
X134994426Y-36929071D01*
X123250000Y-49000000D02*
X123500000Y-48999999D01*
X145329112Y-41377887D02*
X145203331Y-41469546D01*
X167578814Y-42468842D02*
X167557618Y-42538706D01*
X144657928Y-29767526D02*
X144512843Y-29823853D01*
X146446730Y-63562830D02*
X146413576Y-63714893D01*
X170994426Y-48929071D02*
X171250000Y-49000000D01*
X169329112Y-41377887D02*
X169203331Y-41469546D01*
X171250001Y-75000004D02*
X171108864Y-75037420D01*
X119624162Y-42330050D02*
X119600996Y-42399285D01*
X135108864Y-39037420D02*
X135038707Y-39057623D01*
X179500000Y-67000000D02*
X177499999Y-67000000D01*
X132799897Y-65703750D02*
X132657928Y-65767526D01*
X132062830Y-29946730D02*
X131909252Y-29971954D01*
X122323853Y-28012843D02*
X122267526Y-28157928D01*
X159500000Y-39000004D02*
X159250001Y-39000004D01*
X149749999Y-36999999D02*
X150005573Y-36929071D01*
X169877887Y-28829112D02*
X169779827Y-28949970D01*
X171500000Y-27000004D02*
X171500000Y-27000004D01*
X169449970Y-29279827D02*
X169329112Y-29377887D01*
X162745717Y-51361115D02*
X162504092Y-51251725D01*
X165345089Y-57757160D02*
X165429071Y-57505573D01*
X120261678Y-70932427D02*
X120418152Y-71146588D01*
X151852415Y-52085436D02*
X151646588Y-51918152D01*
X168657928Y-53767526D02*
X168512843Y-53823853D01*
X153017209Y-70481395D02*
X153138884Y-70245717D01*
X165345089Y-42242839D02*
X165345089Y-42242839D01*
X132938367Y-77632698D02*
X132799897Y-77703750D01*
X129248274Y-65995907D02*
X129138884Y-65754282D01*
X126981395Y-75482790D02*
X126745717Y-75361115D01*
X122471954Y-27409252D02*
X122446730Y-27562830D01*
X144418152Y-59146588D02*
X144585436Y-59352415D01*
X169675632Y-77065581D02*
X169565581Y-77175632D01*
X128581847Y-83146588D02*
X128738321Y-82932427D01*
X153500000Y-81250000D02*
X153499999Y-81000000D01*
X158742839Y-48845089D02*
X158994426Y-48929071D01*
X140738321Y-29067572D02*
X140581847Y-28853411D01*
X131570928Y-81505573D02*
X131654910Y-81757160D01*
X149749999Y-72999999D02*
X150005573Y-72929071D01*
X128049364Y-47736912D02*
X128236912Y-47549364D01*
X156214893Y-65913576D02*
X156062830Y-65946730D01*
X153500000Y-57250000D02*
X153499999Y-57000000D01*
X121877887Y-28829112D02*
X121779827Y-28949970D01*
X131500000Y-69000000D02*
X131500000Y-69249999D01*
X139210500Y-27616429D02*
X138981395Y-27482790D01*
X177138884Y-65754282D02*
X177017209Y-65518604D01*
X168512843Y-77823853D02*
X168365032Y-77872580D01*
X121675632Y-29065581D02*
X121565581Y-29175632D01*
X121329112Y-29377887D02*
X121203331Y-29469546D01*
X152738321Y-46932427D02*
X152883570Y-46710500D01*
X143600996Y-78399285D02*
X143557618Y-78538706D01*
X162745717Y-60638884D02*
X162981395Y-60517209D01*
X138005573Y-27070928D02*
X137750000Y-27000000D01*
X176581847Y-64853411D02*
X176414563Y-64647584D01*
X158495907Y-84748274D02*
X158742839Y-84845089D01*
X119751725Y-70004092D02*
X119861115Y-70245717D01*
X137749999Y-36999999D02*
X138005573Y-36929071D01*
X141138884Y-82245717D02*
X141248274Y-82004092D01*
X143673423Y-30192599D02*
X143624162Y-30330050D01*
X155537415Y-42608862D02*
X155500000Y-42750000D01*
X134761152Y-51148311D02*
X134624412Y-51199514D01*
X145565581Y-29175632D02*
X145449970Y-29279827D01*
X165500000Y-69250000D02*
X165499999Y-69000000D01*
X131537415Y-66608862D02*
X131500000Y-66750000D01*
X155500000Y-57000000D02*
X155500000Y-57249999D01*
X158018604Y-48517209D02*
X158254282Y-48638884D01*
X117500001Y-45000000D02*
X119500000Y-45000000D01*
X145877887Y-64829112D02*
X145779827Y-64949970D01*
X141345089Y-69757160D02*
X141429071Y-69505573D01*
X171500000Y-51000004D02*
X171250001Y-51000004D01*
X177429071Y-54494426D02*
X177345089Y-54242839D01*
X121565581Y-53175632D02*
X121449970Y-53279827D01*
X169969546Y-28703331D02*
X169877887Y-28829112D01*
X125500000Y-48999999D02*
X125749999Y-48999999D01*
X174257160Y-39154910D02*
X174005573Y-39070928D01*
X146267526Y-76157928D02*
X146203750Y-76299897D01*
X170742839Y-72845089D02*
X170994426Y-72929071D01*
X167654910Y-69757160D02*
X167751725Y-70004092D01*
X155909252Y-41971954D02*
X155754566Y-41989176D01*
X176883570Y-65289499D02*
X176738321Y-65067572D01*
X123250001Y-51000004D02*
X123108864Y-51037420D01*
X176738321Y-58932427D02*
X176883570Y-58710500D01*
X123108864Y-27037420D02*
X123038707Y-27057623D01*
X159500000Y-87000000D02*
X149500000Y-87000000D01*
X150981395Y-72517209D02*
X151210500Y-72383570D01*
X143518207Y-66679298D02*
X143500000Y-66750000D01*
X150504092Y-75251725D02*
X150257160Y-75154910D01*
X126745717Y-36638884D02*
X126981395Y-36517209D01*
X133877887Y-52829112D02*
X133779827Y-52949970D01*
X153499999Y-31000000D02*
X153499999Y-30750000D01*
X145147584Y-35914563D02*
X145353411Y-36081847D01*
X157072966Y-65554560D02*
X156938367Y-65632698D01*
X146372580Y-63865032D02*
X146323853Y-64012843D01*
X170899287Y-27101001D02*
X170830052Y-27124167D01*
X141429071Y-69505573D02*
X141500000Y-69250000D01*
X169675632Y-65065581D02*
X169565581Y-65175632D01*
X135500000Y-62000000D02*
X135500000Y-63000004D01*
X135038707Y-63057623D02*
X134968843Y-63078818D01*
X161500000Y-27000000D02*
X161500000Y-25000000D01*
X132261678Y-70932427D02*
X132418152Y-71146588D01*
X143500000Y-45000000D02*
X143500000Y-45249999D01*
X122054560Y-76572966D02*
X121969546Y-76703331D01*
X157329112Y-29377887D02*
X157203331Y-29469546D01*
X176883570Y-41289499D02*
X176738321Y-41067572D01*
X137750000Y-51000000D02*
X137500000Y-51000000D01*
X122489178Y-75254571D02*
X122471954Y-75409252D01*
X146495907Y-36748274D02*
X146742839Y-36845089D01*
X167537415Y-54608862D02*
X167500000Y-54750000D01*
X122372580Y-75865032D02*
X122323853Y-76012843D01*
X158267526Y-40157928D02*
X158203750Y-40299897D01*
X149500000Y-84999999D02*
X149749999Y-84999999D01*
X140738321Y-46932427D02*
X140883570Y-46710500D01*
X138981395Y-75482790D02*
X138745717Y-75361115D01*
X133147584Y-59914563D02*
X133353411Y-60081847D01*
X167500000Y-57249999D02*
X167570928Y-57505573D01*
X133969546Y-28703331D02*
X133877887Y-28829112D01*
X161749999Y-72999999D02*
X162005573Y-72929071D01*
X155751725Y-34004092D02*
X155861115Y-34245717D01*
X123038707Y-39057623D02*
X122899287Y-39101001D01*
X141345089Y-57757160D02*
X141429071Y-57505573D01*
X117500001Y-81000000D02*
X119500000Y-81000000D01*
X121567572Y-48238321D02*
X121789499Y-48383570D01*
X150745717Y-75361115D02*
X150504092Y-75251725D01*
X158018604Y-84517209D02*
X158254282Y-84638884D01*
X145789499Y-84383570D02*
X146018604Y-84517209D01*
X132938367Y-65632698D02*
X132799897Y-65703750D01*
X133353411Y-84081847D02*
X133567572Y-84238321D01*
X151852415Y-83914563D02*
X152049364Y-83736912D01*
X176883570Y-58710500D02*
X177017209Y-58481395D01*
X139432427Y-36238321D02*
X139646588Y-36081847D01*
X150005573Y-39070928D02*
X149750000Y-39000000D01*
X138504092Y-84748274D02*
X138745717Y-84638884D01*
X179500000Y-25000000D02*
X179500000Y-31000000D01*
X170446730Y-39562830D02*
X170413576Y-39714893D01*
X144799897Y-65703750D02*
X144657928Y-65767526D01*
X173500000Y-84999999D02*
X173500000Y-84999999D01*
X153248274Y-65995907D02*
X153138884Y-65754282D01*
X167570928Y-57505573D02*
X167654910Y-57757160D01*
X117500001Y-43000000D02*
X117500001Y-33000000D01*
X127432427Y-48238321D02*
X127646588Y-48081847D01*
X128414563Y-76647584D02*
X128236912Y-76450635D01*
X131624162Y-42330050D02*
X131600996Y-42399285D01*
X145353411Y-48081847D02*
X145567572Y-48238321D01*
X162257160Y-48845089D02*
X162504092Y-48748274D01*
X119624162Y-30330050D02*
X119600996Y-30399285D01*
X153429071Y-30494426D02*
X153345089Y-30242839D01*
X147250000Y-73000000D02*
X147500000Y-72999999D01*
X174745717Y-60638884D02*
X174981395Y-60517209D01*
X165345089Y-66242839D02*
X165345089Y-66242839D01*
X144116429Y-82710500D02*
X144261678Y-82932427D01*
X138504092Y-63251725D02*
X138257160Y-63154910D01*
X168062830Y-65946730D02*
X167909252Y-65971954D01*
X129345089Y-57757160D02*
X129429071Y-57505573D01*
X153499999Y-79000000D02*
X153499999Y-78750000D01*
X147108864Y-39037420D02*
X146968843Y-39078818D01*
X156365032Y-53872580D02*
X156214893Y-53913576D01*
X145969546Y-52703331D02*
X145877887Y-52829112D01*
X168418152Y-47146588D02*
X168585436Y-47352415D01*
X164049364Y-52263087D02*
X163852415Y-52085436D01*
X127432427Y-84238321D02*
X127646588Y-84081847D01*
X175852415Y-40085436D02*
X175646588Y-39918152D01*
X165345089Y-81757160D02*
X165429071Y-81505573D01*
X153429071Y-66494426D02*
X153429071Y-66494426D01*
X152883570Y-70710500D02*
X153017209Y-70481395D01*
X120062830Y-65946730D02*
X119909252Y-65971954D01*
X131537415Y-30608862D02*
X131500000Y-30750000D01*
X145353411Y-84081847D02*
X145567572Y-84238321D01*
X146372580Y-51865032D02*
X146323853Y-52012843D01*
X134624412Y-39199514D02*
X134489178Y-39254571D01*
X150504092Y-48748274D02*
X150745717Y-48638884D01*
X153499999Y-45000000D02*
X154500000Y-45000000D01*
X140738321Y-82932427D02*
X140883570Y-82710500D01*
X165499999Y-31000000D02*
X165499999Y-30750000D01*
X169329112Y-77377887D02*
X169203331Y-77469546D01*
X132763087Y-47549364D02*
X132950635Y-47736912D01*
X157203331Y-41469546D02*
X157072966Y-41554560D01*
X176581847Y-59146588D02*
X176738321Y-58932427D01*
X126745717Y-75361115D02*
X126504092Y-75251725D01*
X140414563Y-35352415D02*
X140581847Y-35146588D01*
X138981395Y-84517209D02*
X139210500Y-84383570D01*
X170495907Y-36748274D02*
X170742839Y-36845089D01*
X155500000Y-33249999D02*
X155570928Y-33505573D01*
X140581847Y-64853411D02*
X140414563Y-64647584D01*
X167570928Y-69505573D02*
X167654910Y-69757160D01*
X143982790Y-58481395D02*
X144116429Y-58710500D01*
X145449970Y-77279827D02*
X145329112Y-77377887D01*
X138005573Y-51070928D02*
X137750000Y-51000000D01*
X163852415Y-52085436D02*
X163646588Y-51918152D01*
X177138884Y-34245717D02*
X177248274Y-34004092D01*
X143500000Y-55000000D02*
X142500000Y-55000000D01*
X147038707Y-51057623D02*
X146968843Y-51078818D01*
X134254282Y-60638884D02*
X134495907Y-60748274D01*
X164414563Y-64647584D02*
X164236912Y-64450635D01*
X120950635Y-83736912D02*
X121147584Y-83914563D01*
X133779827Y-52949970D02*
X133675632Y-53065581D01*
X159250001Y-51000004D02*
X159179300Y-51018212D01*
X143909252Y-53971954D02*
X143754566Y-53989176D01*
X122692600Y-75173428D02*
X122624412Y-75199514D01*
X150745717Y-63361115D02*
X150504092Y-63251725D01*
X158132698Y-40438367D02*
X158054560Y-40572966D01*
X126981395Y-27482790D02*
X126745717Y-27361115D01*
X177429071Y-45505573D02*
X177500000Y-45250000D01*
X145789499Y-60383570D02*
X146018604Y-60517209D01*
X144585436Y-35352415D02*
X144763087Y-35549364D01*
X153499999Y-43000000D02*
X153499999Y-42750000D01*
X141429071Y-66494426D02*
X141345089Y-66242839D01*
X155570928Y-33505573D02*
X155654910Y-33757160D01*
X146132698Y-76438367D02*
X146054560Y-76572966D01*
X133779827Y-76949970D02*
X133675632Y-77065581D01*
X141500000Y-57250000D02*
X141499999Y-57000000D01*
X159500000Y-27000004D02*
X159250001Y-27000004D01*
X119500000Y-57000000D02*
X119500000Y-57249999D01*
X125500000Y-75000000D02*
X125500000Y-74000000D01*
X128581847Y-52853411D02*
X128414563Y-52647584D01*
X156418152Y-47146588D02*
X156585436Y-47352415D01*
X128883570Y-70710500D02*
X129017209Y-70481395D01*
X139852415Y-59914563D02*
X140049364Y-59736912D01*
X140236912Y-40450635D02*
X140049364Y-40263087D01*
X141345089Y-54242839D02*
X141248274Y-53995907D01*
X120512843Y-41823853D02*
X120365032Y-41872580D01*
X158267526Y-52157928D02*
X158203750Y-52299897D01*
X122132698Y-64438367D02*
X122054560Y-64572966D01*
X120418152Y-71146588D02*
X120585436Y-71352415D01*
X176049364Y-47736912D02*
X176236912Y-47549364D01*
X152236912Y-59549364D02*
X152414563Y-59352415D01*
X165499999Y-33000000D02*
X166500000Y-33000000D01*
X131754566Y-29989176D02*
X131726559Y-30056598D01*
X168062830Y-41946730D02*
X167909252Y-41971954D01*
X161500000Y-25000000D02*
X171500000Y-25000000D01*
X151646588Y-75918152D02*
X151432427Y-75761678D01*
X164883570Y-41289499D02*
X164738321Y-41067572D01*
X129248274Y-53995907D02*
X129138884Y-53754282D01*
X153248274Y-29995907D02*
X153138884Y-29754282D01*
X157329112Y-77377887D02*
X157203331Y-77469546D01*
X151852415Y-40085436D02*
X151646588Y-39918152D01*
X170323853Y-28012843D02*
X170267526Y-28157928D01*
X174005573Y-36929071D02*
X174257160Y-36845089D01*
X155500000Y-57249999D02*
X155570928Y-57505573D01*
X155654910Y-69757160D02*
X155751725Y-70004092D01*
X169565581Y-53175632D02*
X169449970Y-53279827D01*
X142500000Y-55000000D02*
X141499999Y-55000000D01*
X141138884Y-58245717D02*
X141248274Y-58004092D01*
X164883570Y-29289499D02*
X164738321Y-29067572D01*
X177017209Y-29518604D02*
X176883570Y-29289499D01*
X137750000Y-63000000D02*
X137500000Y-63000000D01*
X140049364Y-76263087D02*
X139852415Y-76085436D01*
X146830052Y-51124167D02*
X146761152Y-51148311D01*
X145147584Y-59914563D02*
X145353411Y-60081847D01*
X127646588Y-60081847D02*
X127852415Y-59914563D01*
X139646588Y-63918152D02*
X139432427Y-63761678D01*
X161749999Y-36999999D02*
X162005573Y-36929071D01*
X144214893Y-77913576D02*
X144062830Y-77946730D01*
X128581847Y-35146588D02*
X128738321Y-34932427D01*
X155909252Y-65971954D02*
X155754566Y-65989176D01*
X176738321Y-82932427D02*
X176883570Y-82710500D01*
X131500000Y-66750000D02*
X131500000Y-67000000D01*
X140236912Y-59549364D02*
X140414563Y-59352415D01*
X168365032Y-53872580D02*
X168214893Y-53913576D01*
X120214893Y-65913576D02*
X120062830Y-65946730D01*
X129138884Y-53754282D02*
X129017209Y-53518604D01*
X119673423Y-78192599D02*
X119624162Y-78330050D01*
X122899287Y-27101001D02*
X122830052Y-27124167D01*
X151852415Y-64085436D02*
X151646588Y-63918152D01*
X145329112Y-29377887D02*
X145203331Y-29469546D01*
X119500000Y-55000000D02*
X117500001Y-55000000D01*
X134267526Y-76157928D02*
X134203750Y-76299897D01*
X163432427Y-48238321D02*
X163646588Y-48081847D01*
X123038707Y-75057623D02*
X122899287Y-75101001D01*
X140581847Y-76853411D02*
X140414563Y-76647584D01*
X156062830Y-77946730D02*
X155909252Y-77971954D01*
X129499999Y-55000000D02*
X129499999Y-54750000D01*
X170372580Y-27865032D02*
X170323853Y-28012843D01*
X167909252Y-65971954D02*
X167754566Y-65989176D01*
X157072966Y-41554560D02*
X156938367Y-41632698D01*
X126981395Y-60517209D02*
X127210500Y-60383570D01*
X132585436Y-59352415D02*
X132763087Y-59549364D01*
X127646588Y-51918152D02*
X127432427Y-51761678D01*
X122323853Y-76012843D02*
X122267526Y-76157928D01*
X146323853Y-40012843D02*
X146267526Y-40157928D01*
X143537415Y-42608862D02*
X143500000Y-42750000D01*
X166500000Y-55000000D02*
X165499999Y-55000000D01*
X119673423Y-30192599D02*
X119624162Y-30330050D01*
X134323853Y-52012843D02*
X134267526Y-52157928D01*
X133789499Y-60383570D02*
X134018604Y-60517209D01*
X128883570Y-58710500D02*
X129017209Y-58481395D01*
X149500000Y-75000000D02*
X149500000Y-74000000D01*
X144938367Y-65632698D02*
X144799897Y-65703750D01*
X121969546Y-64703331D02*
X121877887Y-64829112D01*
X122968843Y-51078818D02*
X122830052Y-51124167D01*
X177345089Y-42242839D02*
X177248274Y-41995907D01*
X139852415Y-40085436D02*
X139646588Y-39918152D01*
X119570928Y-69505573D02*
X119654910Y-69757160D01*
X162981395Y-84517209D02*
X163210500Y-84383570D01*
X135038707Y-75057623D02*
X134899287Y-75101001D01*
X156214893Y-53913576D02*
X156062830Y-53946730D01*
X143500000Y-30750000D02*
X143500000Y-31000000D01*
X145072966Y-41554560D02*
X144938367Y-41632698D01*
X158742839Y-84845089D02*
X158994426Y-84929071D01*
X174504092Y-48748274D02*
X174745717Y-48638884D01*
X164581847Y-40853411D02*
X164414563Y-40647584D01*
X159500000Y-75000004D02*
X159250001Y-75000004D01*
X168418152Y-59146588D02*
X168585436Y-59352415D01*
X170254282Y-72638884D02*
X170495907Y-72748274D01*
X167754566Y-29989176D02*
X167699510Y-30124410D01*
X177499999Y-31000000D02*
X177499999Y-31000000D01*
X165429071Y-45505573D02*
X165500000Y-45250000D01*
X128049364Y-83736912D02*
X128236912Y-83549364D01*
X139210500Y-48383570D02*
X139432427Y-48238321D01*
X153138884Y-41754282D02*
X153017209Y-41518604D01*
X121147584Y-83914563D02*
X121353411Y-84081847D01*
X129138884Y-58245717D02*
X129248274Y-58004092D01*
X156950635Y-47736912D02*
X157147584Y-47914563D01*
X138745717Y-63361115D02*
X138504092Y-63251725D01*
X176581847Y-76853411D02*
X176414563Y-76647584D01*
X130500000Y-81000000D02*
X131500000Y-81000000D01*
X119570928Y-33505573D02*
X119654910Y-33757160D01*
X119570928Y-45505573D02*
X119654910Y-45757160D01*
X170267526Y-40157928D02*
X170203750Y-40299897D01*
X173500000Y-25000000D02*
X179500000Y-25000000D01*
X179500000Y-33000000D02*
X179500000Y-43000000D01*
X157203331Y-77469546D02*
X157072966Y-77554560D01*
X157877887Y-64829112D02*
X157779827Y-64949970D01*
X176414563Y-76647584D02*
X176236912Y-76450635D01*
X174745717Y-27361115D02*
X174504092Y-27251725D01*
X134495907Y-84748274D02*
X134742839Y-84845089D01*
X153429071Y-42494426D02*
X153345089Y-42242839D01*
X166500000Y-33000000D02*
X167500000Y-33000000D01*
X146413576Y-51714893D02*
X146372580Y-51865032D01*
X152883570Y-46710500D02*
X153017209Y-46481395D01*
X152581847Y-83146588D02*
X152738321Y-82932427D01*
X122323853Y-64012843D02*
X122267526Y-64157928D01*
X134994426Y-72929071D02*
X135250000Y-73000000D01*
X132585436Y-47352415D02*
X132763087Y-47549364D01*
X152581847Y-71146588D02*
X152738321Y-70932427D01*
X139852415Y-76085436D02*
X139646588Y-75918152D01*
X147500000Y-51000004D02*
X147250001Y-51000004D01*
X139852415Y-71914563D02*
X140049364Y-71736912D01*
X121877887Y-64829112D02*
X121779827Y-64949970D01*
X162257160Y-39154910D02*
X162005573Y-39070928D01*
X127646588Y-39918152D02*
X127432427Y-39761678D01*
X163210500Y-72383570D02*
X163432427Y-72238321D01*
X154500000Y-33000000D02*
X155500000Y-33000000D01*
X133789499Y-72383570D02*
X134018604Y-72517209D01*
X173500000Y-87000000D02*
X173500000Y-84999999D01*
X120763087Y-47549364D02*
X120950635Y-47736912D01*
X164581847Y-76853411D02*
X164414563Y-76647584D01*
X167699510Y-54124410D02*
X167673423Y-54192599D01*
X152236912Y-76450635D02*
X152049364Y-76263087D01*
X170203750Y-40299897D02*
X170132698Y-40438367D01*
X169203331Y-65469546D02*
X169072966Y-65554560D01*
X169675632Y-29065581D02*
X169565581Y-29175632D01*
X174504092Y-60748274D02*
X174745717Y-60638884D01*
X176738321Y-65067572D02*
X176581847Y-64853411D01*
X179500000Y-43000000D02*
X177499999Y-43000000D01*
X158495907Y-36748274D02*
X158742839Y-36845089D01*
X135250000Y-49000000D02*
X135500000Y-48999999D01*
X131500000Y-30750000D02*
X131500000Y-31000000D01*
X164049364Y-76263087D02*
X163852415Y-76085436D01*
X174005573Y-60929071D02*
X174257160Y-60845089D01*
X138257160Y-39154910D02*
X138005573Y-39070928D01*
X132950635Y-47736912D02*
X133147584Y-47914563D01*
X155557618Y-54538706D02*
X155518207Y-54679298D01*
X143754566Y-65989176D02*
X143699510Y-66124410D01*
X174981395Y-84517209D02*
X175210500Y-84383570D01*
X119726559Y-30056598D02*
X119673423Y-30192599D01*
X127210500Y-48383570D02*
X127432427Y-48238321D01*
X120365032Y-53872580D02*
X120214893Y-53913576D01*
X161749999Y-84999999D02*
X162005573Y-84929071D01*
X156950635Y-59736912D02*
X157147584Y-59914563D01*
X119500000Y-57249999D02*
X119570928Y-57505573D01*
X133565581Y-53175632D02*
X133449970Y-53279827D01*
X158830052Y-63124167D02*
X158761152Y-63148311D01*
X126745717Y-84638884D02*
X126981395Y-84517209D01*
X121203331Y-65469546D02*
X121072966Y-65554560D01*
X147500000Y-48999999D02*
X147500000Y-50000000D01*
X146132698Y-64438367D02*
X146054560Y-64572966D01*
X146203750Y-76299897D02*
X146132698Y-76438367D01*
X137750000Y-39000000D02*
X137500000Y-39000000D01*
X170899287Y-63101001D02*
X170830052Y-63124167D01*
X176236912Y-28450635D02*
X176049364Y-28263087D01*
X129248274Y-34004092D02*
X129345089Y-33757160D01*
X165499999Y-30750000D02*
X165429071Y-30494426D01*
X158994426Y-84929071D02*
X159250000Y-85000000D01*
X141345089Y-33757160D02*
X141429071Y-33505573D01*
X120261678Y-34932427D02*
X120418152Y-35146588D01*
X131537415Y-54608862D02*
X131500000Y-54750000D01*
X150005573Y-60929071D02*
X150257160Y-60845089D01*
X175646588Y-36081847D02*
X175852415Y-35914563D01*
X154500000Y-57000000D02*
X155500000Y-57000000D01*
X174257160Y-75154910D02*
X174005573Y-75070928D01*
X170018604Y-84517209D02*
X170254282Y-84638884D01*
X138005573Y-39070928D02*
X137750000Y-39000000D01*
X141500000Y-33250000D02*
X141499999Y-33000000D01*
X176049364Y-71736912D02*
X176236912Y-71549364D01*
X122413576Y-27714893D02*
X122372580Y-27865032D01*
X132261678Y-34932427D02*
X132418152Y-35146588D01*
X170413576Y-63714893D02*
X170372580Y-63865032D01*
X123500000Y-74000000D02*
X123500000Y-75000004D01*
X153138884Y-70245717D02*
X153248274Y-70004092D01*
X141248274Y-70004092D02*
X141345089Y-69757160D01*
X135500000Y-25000000D02*
X135500000Y-27000004D01*
X156365032Y-77872580D02*
X156214893Y-77913576D01*
X122624412Y-63199514D02*
X122489178Y-63254571D01*
X170018604Y-72517209D02*
X170254282Y-72638884D01*
X147500000Y-50000000D02*
X147500000Y-51000004D01*
X162745717Y-63361115D02*
X162504092Y-63251725D01*
X146994426Y-60929071D02*
X147250000Y-61000000D01*
X128049364Y-28263087D02*
X127852415Y-28085436D01*
X164414563Y-52647584D02*
X164236912Y-52450635D01*
X158830052Y-27124167D02*
X158692600Y-27173428D01*
X131673423Y-66192599D02*
X131624162Y-66330050D01*
X156799897Y-53703750D02*
X156657928Y-53767526D01*
X139646588Y-39918152D02*
X139432427Y-39761678D01*
X153017209Y-53518604D02*
X152883570Y-53289499D01*
X174257160Y-84845089D02*
X174504092Y-84748274D01*
X175210500Y-48383570D02*
X175432427Y-48238321D01*
X165248274Y-34004092D02*
X165345089Y-33757160D01*
X155500000Y-45249999D02*
X155570928Y-45505573D01*
X164581847Y-28853411D02*
X164414563Y-28647584D01*
X159179300Y-27018212D02*
X159038707Y-27057623D01*
X168938367Y-29632698D02*
X168799897Y-29703750D01*
X163432427Y-60238321D02*
X163646588Y-60081847D01*
X162005573Y-75070928D02*
X161750000Y-75000000D01*
X173500000Y-50000000D02*
X173500000Y-48999999D01*
X158489178Y-51254571D02*
X158471954Y-51409252D01*
X141499999Y-45000000D02*
X142500000Y-45000000D01*
X161500000Y-72999999D02*
X161749999Y-72999999D01*
X127646588Y-84081847D02*
X127852415Y-83914563D01*
X170899287Y-75101001D02*
X170761152Y-75148311D01*
X145567572Y-48238321D02*
X145789499Y-48383570D01*
X156062830Y-53946730D02*
X155909252Y-53971954D01*
X121675632Y-77065581D02*
X121565581Y-77175632D01*
X170899287Y-39101001D02*
X170830052Y-39124167D01*
X131861115Y-46245717D02*
X131982790Y-46481395D01*
X156950635Y-35736912D02*
X157147584Y-35914563D01*
X130500000Y-31000000D02*
X129499999Y-31000000D01*
X134692600Y-75173428D02*
X134624412Y-75199514D01*
X120116429Y-58710500D02*
X120261678Y-58932427D01*
X153345089Y-30242839D02*
X153248274Y-29995907D01*
X128049364Y-71736912D02*
X128236912Y-71549364D01*
X139852415Y-64085436D02*
X139646588Y-63918152D01*
X141345089Y-45757160D02*
X141429071Y-45505573D01*
X138504092Y-75251725D02*
X138257160Y-75154910D01*
X167673423Y-54192599D02*
X167624162Y-54330050D01*
X128738321Y-53067572D02*
X128581847Y-52853411D01*
X131500000Y-57249999D02*
X131570928Y-57505573D01*
X177499999Y-55000000D02*
X177499999Y-54750000D01*
X169072966Y-77554560D02*
X168938367Y-77632698D01*
X169147584Y-35914563D02*
X169353411Y-36081847D01*
X170323853Y-64012843D02*
X170267526Y-64157928D01*
X175852415Y-52085436D02*
X175646588Y-51918152D01*
X133203331Y-29469546D02*
X133072966Y-29554560D01*
X122018604Y-48517209D02*
X122254282Y-48638884D01*
X133969546Y-52703331D02*
X133877887Y-52829112D01*
X155500000Y-69000000D02*
X155500000Y-69249999D01*
X170692600Y-27173428D02*
X170556600Y-27226564D01*
X173749999Y-72999999D02*
X174005573Y-72929071D01*
X138981395Y-72517209D02*
X139210500Y-72383570D01*
X134132698Y-76438367D02*
X134054560Y-76572966D01*
X167557618Y-66538706D02*
X167537415Y-66608862D01*
X131570928Y-45505573D02*
X131654910Y-45757160D01*
X170446730Y-27562830D02*
X170413576Y-27714893D01*
X138745717Y-75361115D02*
X138504092Y-75251725D01*
X122489178Y-27254571D02*
X122471954Y-27409252D01*
X170830052Y-39124167D02*
X170692600Y-39173428D01*
X175646588Y-27918152D02*
X175432427Y-27761678D01*
X153345089Y-78242839D02*
X153248274Y-77995907D01*
X140883570Y-65289499D02*
X140738321Y-65067572D01*
X121449970Y-77279827D02*
X121329112Y-77377887D01*
X162504092Y-36748274D02*
X162745717Y-36638884D01*
X112500001Y-20000000D02*
X112500001Y-92000000D01*
X144418152Y-35146588D02*
X144585436Y-35352415D01*
X139432427Y-39761678D02*
X139210500Y-39616429D01*
X131624162Y-78330050D02*
X131600996Y-78399285D01*
X157789499Y-84383570D02*
X158018604Y-84517209D01*
X149500000Y-51000000D02*
X149500000Y-50000000D01*
X134413576Y-63714893D02*
X134372580Y-63865032D01*
X162257160Y-51154910D02*
X162005573Y-51070928D01*
X152049364Y-83736912D02*
X152236912Y-83549364D01*
X176581847Y-35146588D02*
X176738321Y-34932427D01*
X146830052Y-27124167D02*
X146692600Y-27173428D01*
X155751725Y-58004092D02*
X155861115Y-58245717D01*
X122446730Y-39562830D02*
X122413576Y-39714893D01*
X133567572Y-48238321D02*
X133789499Y-48383570D01*
X128049364Y-76263087D02*
X127852415Y-76085436D01*
X158203750Y-52299897D02*
X158132698Y-52438367D01*
X167751725Y-58004092D02*
X167861115Y-58245717D01*
X170624412Y-51199514D02*
X170489178Y-51254571D01*
X126005573Y-39070928D02*
X125750000Y-39000000D01*
X158054560Y-28572966D02*
X157969546Y-28703331D01*
X155500000Y-66750000D02*
X155500000Y-67000000D01*
X146742839Y-36845089D02*
X146994426Y-36929071D01*
X177017209Y-53518604D02*
X176883570Y-53289499D01*
X163852415Y-71914563D02*
X164049364Y-71736912D01*
X162005573Y-63070928D02*
X161750000Y-63000000D01*
X131500000Y-33000000D02*
X131500000Y-33249999D01*
X129500000Y-57250000D02*
X129499999Y-57000000D01*
X138005573Y-63070928D02*
X137750000Y-63000000D01*
X167699510Y-30124410D02*
X167673423Y-30192599D01*
X169072966Y-29554560D02*
X168938367Y-29632698D01*
X141017209Y-53518604D02*
X140883570Y-53289499D01*
X169789499Y-48383570D02*
X170018604Y-48517209D01*
X152414563Y-47352415D02*
X152581847Y-47146588D01*
X132062830Y-41946730D02*
X131909252Y-41971954D01*
X167654910Y-81757160D02*
X167751725Y-82004092D01*
X122624412Y-27199514D02*
X122489178Y-27254571D01*
X156512843Y-41823853D02*
X156365032Y-41872580D01*
X132938367Y-41632698D02*
X132799897Y-41703750D01*
X120214893Y-53913576D02*
X120062830Y-53946730D01*
X170994426Y-84929071D02*
X171250000Y-85000000D01*
X129499999Y-31000000D02*
X129499999Y-30750000D01*
X175852415Y-59914563D02*
X176049364Y-59736912D01*
X176049364Y-76263087D02*
X175852415Y-76085436D01*
X159179300Y-51018212D02*
X159038707Y-51057623D01*
X158267526Y-76157928D02*
X158203750Y-76299897D01*
X169329112Y-53377887D02*
X169203331Y-53469546D01*
X170624412Y-75199514D02*
X170489178Y-75254571D01*
X153138884Y-53754282D02*
X153017209Y-53518604D01*
X131654910Y-45757160D02*
X131751725Y-46004092D01*
X146054560Y-28572966D02*
X145969546Y-28703331D01*
X165138884Y-77754282D02*
X165017209Y-77518604D01*
X119909252Y-77971954D02*
X119754566Y-77989176D01*
X170054560Y-76572966D02*
X169969546Y-76703331D01*
X133353411Y-36081847D02*
X133567572Y-36238321D01*
X125750000Y-51000000D02*
X125500000Y-51000000D01*
X171500000Y-48999999D02*
X171500000Y-50000000D01*
X146968843Y-63078818D02*
X146830052Y-63124167D01*
X170267526Y-76157928D02*
X170203750Y-76299897D01*
X145567572Y-84238321D02*
X145789499Y-84383570D01*
X119600996Y-42399285D02*
X119578814Y-42468842D01*
X129017209Y-77518604D02*
X128883570Y-77289499D01*
X157449970Y-41279827D02*
X157329112Y-41377887D01*
X141248274Y-82004092D02*
X141345089Y-81757160D01*
X132062830Y-65946730D02*
X131909252Y-65971954D01*
X135500000Y-27000004D02*
X135500000Y-27000004D01*
X143500000Y-33000000D02*
X143500000Y-33249999D01*
X168799897Y-65703750D02*
X168657928Y-65767526D01*
X153499999Y-67000000D02*
X153499999Y-66750000D01*
X134254282Y-48638884D02*
X134495907Y-48748274D01*
X126257160Y-60845089D02*
X126504092Y-60748274D01*
X144365032Y-77872580D02*
X144214893Y-77913576D01*
X119699510Y-66124410D02*
X119673423Y-66192599D01*
X176236912Y-64450635D02*
X176049364Y-64263087D01*
X153138884Y-77754282D02*
X153017209Y-77518604D01*
X156799897Y-41703750D02*
X156657928Y-41767526D01*
X120799897Y-65703750D02*
X120657928Y-65767526D01*
X146742839Y-60845089D02*
X146994426Y-60929071D01*
X165345089Y-78242839D02*
X165248274Y-77995907D01*
X151646588Y-27918152D02*
X151432427Y-27761678D01*
X135250001Y-39000004D02*
X135108864Y-39037420D01*
X163210500Y-27616429D02*
X162981395Y-27482790D01*
X137500000Y-87000000D02*
X137500000Y-84999999D01*
X158254282Y-36638884D02*
X158495907Y-36748274D01*
X122495907Y-84748274D02*
X122742839Y-84845089D01*
X146968843Y-51078818D02*
X146830052Y-51124167D01*
X119500000Y-54750000D02*
X119500000Y-55000000D01*
X151432427Y-75761678D02*
X151210500Y-75616429D01*
X121072966Y-77554560D02*
X120938367Y-77632698D01*
X149749999Y-60999999D02*
X150005573Y-60929071D01*
X163646588Y-48081847D02*
X163852415Y-47914563D01*
X177248274Y-82004092D02*
X177345089Y-81757160D01*
X144763087Y-83549364D02*
X144950635Y-83736912D01*
X177138884Y-58245717D02*
X177248274Y-58004092D01*
X131557618Y-30538706D02*
X131537415Y-30608862D01*
X177499999Y-43000000D02*
X177499999Y-43000000D01*
X168585436Y-47352415D02*
X168763087Y-47549364D01*
X140738321Y-53067572D02*
X140581847Y-52853411D01*
X162981395Y-39482790D02*
X162745717Y-39361115D01*
X141499999Y-30750000D02*
X141429071Y-30494426D01*
X176738321Y-77067572D02*
X176581847Y-76853411D01*
X157877887Y-76829112D02*
X157779827Y-76949970D01*
X122742839Y-48845089D02*
X122994426Y-48929071D01*
X169353411Y-60081847D02*
X169567572Y-60238321D01*
X158372580Y-75865032D02*
X158323853Y-76012843D01*
X175210500Y-51616429D02*
X174981395Y-51482790D01*
X170495907Y-72748274D02*
X170742839Y-72845089D01*
X163646588Y-60081847D02*
X163852415Y-59914563D01*
X168116429Y-70710500D02*
X168261678Y-70932427D01*
X165138884Y-65754282D02*
X165017209Y-65518604D01*
X121565581Y-77175632D02*
X121449970Y-77279827D01*
X140883570Y-82710500D02*
X141017209Y-82481395D01*
X132214893Y-53913576D02*
X132062830Y-53946730D01*
X176049364Y-59736912D02*
X176236912Y-59549364D01*
X146323853Y-52012843D02*
X146267526Y-52157928D01*
X150504092Y-63251725D02*
X150257160Y-63154910D01*
X165138884Y-53754282D02*
X165017209Y-53518604D01*
X139210500Y-72383570D02*
X139432427Y-72238321D01*
X173500000Y-39000000D02*
X173500000Y-38000000D01*
X157147584Y-47914563D02*
X157353411Y-48081847D01*
X169203331Y-77469546D02*
X169072966Y-77554560D01*
X159250000Y-73000000D02*
X159500000Y-72999999D01*
X133072966Y-41554560D02*
X132938367Y-41632698D01*
X140414563Y-52647584D02*
X140236912Y-52450635D01*
X151210500Y-75616429D02*
X150981395Y-75482790D01*
X159179300Y-39018212D02*
X159038707Y-39057623D01*
X173750000Y-39000000D02*
X173500000Y-39000000D01*
X140883570Y-53289499D02*
X140738321Y-53067572D01*
X121329112Y-77377887D02*
X121203331Y-77469546D01*
X145969546Y-64703331D02*
X145877887Y-64829112D01*
X139432427Y-84238321D02*
X139646588Y-84081847D01*
X119673423Y-54192599D02*
X119648306Y-54261150D01*
X176414563Y-59352415D02*
X176581847Y-59146588D01*
X170203750Y-64299897D02*
X170132698Y-64438367D01*
X127646588Y-27918152D02*
X127432427Y-27761678D01*
X152738321Y-65067572D02*
X152581847Y-64853411D01*
X177248274Y-41995907D02*
X177138884Y-41754282D01*
X174504092Y-72748274D02*
X174745717Y-72638884D01*
X155909252Y-77971954D02*
X155754566Y-77989176D01*
X141345089Y-78242839D02*
X141248274Y-77995907D01*
X146446730Y-75562830D02*
X146413576Y-75714893D01*
X169203331Y-29469546D02*
X169072966Y-29554560D01*
X131557618Y-54538706D02*
X131537415Y-54608862D01*
X120062830Y-53946730D02*
X119909252Y-53971954D01*
X156512843Y-77823853D02*
X156365032Y-77872580D01*
X156261678Y-34932427D02*
X156418152Y-35146588D01*
X174981395Y-72517209D02*
X175210500Y-72383570D01*
X142500000Y-69000000D02*
X143500000Y-69000000D01*
X144938367Y-41632698D02*
X144799897Y-41703750D01*
X165248274Y-65995907D02*
X165138884Y-65754282D01*
X158446730Y-63562830D02*
X158413576Y-63714893D01*
X129345089Y-78242839D02*
X129248274Y-77995907D01*
X132799897Y-29703750D02*
X132657928Y-29767526D01*
X147108864Y-75037420D02*
X146968843Y-75078818D01*
X157779827Y-28949970D02*
X157675632Y-29065581D01*
X140581847Y-40853411D02*
X140414563Y-40647584D01*
X153429071Y-78494426D02*
X153429071Y-78494426D01*
X175852415Y-64085436D02*
X175646588Y-63918152D01*
X140049364Y-64263087D02*
X139852415Y-64085436D01*
X155654910Y-33757160D02*
X155751725Y-34004092D01*
X138504092Y-27251725D02*
X138257160Y-27154910D01*
X121567572Y-72238321D02*
X121789499Y-72383570D01*
X119861115Y-70245717D02*
X119982790Y-70481395D01*
X158413576Y-27714893D02*
X158372580Y-27865032D01*
X119578814Y-42468842D02*
X119537415Y-42608862D01*
X119500000Y-81000000D02*
X119500000Y-81249999D01*
X164236912Y-59549364D02*
X164414563Y-59352415D01*
X162504092Y-72748274D02*
X162745717Y-72638884D01*
X167699510Y-66124410D02*
X167673423Y-66192599D01*
X175210500Y-36383570D02*
X175432427Y-36238321D01*
X121779827Y-64949970D02*
X121675632Y-65065581D01*
X121789499Y-36383570D02*
X122018604Y-36517209D01*
X139852415Y-47914563D02*
X140049364Y-47736912D01*
X177499999Y-69000000D02*
X179500000Y-69000000D01*
X158323853Y-52012843D02*
X158267526Y-52157928D01*
X121779827Y-28949970D02*
X121675632Y-29065581D01*
X150981395Y-51482790D02*
X150745717Y-51361115D01*
X121567572Y-60238321D02*
X121789499Y-60383570D01*
X164414563Y-83352415D02*
X164581847Y-83146588D01*
X158413576Y-39714893D02*
X158372580Y-39865032D01*
X155518207Y-30679298D02*
X155500000Y-30750000D01*
X165138884Y-29754282D02*
X165017209Y-29518604D01*
X168657928Y-65767526D02*
X168512843Y-65823853D01*
X131861115Y-58245717D02*
X131982790Y-58481395D01*
X163852415Y-59914563D02*
X164049364Y-59736912D01*
X143624162Y-54330050D02*
X143578814Y-54468842D01*
X119673423Y-66192599D02*
X119624162Y-66330050D01*
X120950635Y-47736912D02*
X121147584Y-47914563D01*
X126257160Y-27154910D02*
X126005573Y-27070928D01*
X175432427Y-36238321D02*
X175646588Y-36081847D01*
X162504092Y-27251725D02*
X162257160Y-27154910D01*
X132657928Y-41767526D02*
X132512843Y-41823853D01*
X159250000Y-49000000D02*
X159500000Y-48999999D01*
X165500000Y-81250000D02*
X165499999Y-81000000D01*
X157565581Y-53175632D02*
X157449970Y-53279827D01*
X155570928Y-69505573D02*
X155654910Y-69757160D01*
X153345089Y-69757160D02*
X153429071Y-69505573D01*
X141500000Y-45250000D02*
X141499999Y-45000000D01*
X122323853Y-40012843D02*
X122267526Y-40157928D01*
X120657928Y-41767526D02*
X120512843Y-41823853D01*
X176738321Y-34932427D02*
X176883570Y-34710500D01*
X157329112Y-53377887D02*
X157203331Y-53469546D01*
X131982790Y-82481395D02*
X132116429Y-82710500D01*
X146203750Y-40299897D02*
X146132698Y-40438367D01*
X143518207Y-54679298D02*
X143500000Y-54750000D01*
X122742839Y-84845089D02*
X122994426Y-84929071D01*
X122018604Y-60517209D02*
X122254282Y-60638884D01*
X150005573Y-27070928D02*
X149750000Y-27000000D01*
X157353411Y-48081847D02*
X157567572Y-48238321D01*
X173749999Y-60999999D02*
X174005573Y-60929071D01*
X158203750Y-28299897D02*
X158132698Y-28438367D01*
X120512843Y-29823853D02*
X120365032Y-29872580D01*
X126981395Y-36517209D02*
X127210500Y-36383570D01*
X134968843Y-63078818D02*
X134830052Y-63124167D01*
X133449970Y-65279827D02*
X133329112Y-65377887D01*
X143982790Y-70481395D02*
X144116429Y-70710500D01*
X142500000Y-31000000D02*
X141499999Y-31000000D01*
X165500000Y-57250000D02*
X165499999Y-57000000D01*
X146489178Y-51254571D02*
X146471954Y-51409252D01*
X174504092Y-36748274D02*
X174745717Y-36638884D01*
X171500000Y-39000004D02*
X171250001Y-39000004D01*
X122203750Y-64299897D02*
X122132698Y-64438367D01*
X119861115Y-34245717D02*
X119982790Y-34481395D01*
X171108864Y-75037420D02*
X171038707Y-75057623D01*
X143754566Y-41989176D02*
X143726559Y-42056598D01*
X162005573Y-39070928D02*
X161750000Y-39000000D01*
X141138884Y-46245717D02*
X141248274Y-46004092D01*
X177248274Y-46004092D02*
X177345089Y-45757160D01*
X165017209Y-82481395D02*
X165138884Y-82245717D01*
X164738321Y-58932427D02*
X164883570Y-58710500D01*
X143500000Y-78750000D02*
X143500000Y-79000000D01*
X131909252Y-77971954D02*
X131754566Y-77989176D01*
X159038707Y-27057623D02*
X158899287Y-27101001D01*
X137500000Y-84999999D02*
X137500000Y-84999999D01*
X129500000Y-33250000D02*
X129499999Y-33000000D01*
X126005573Y-60929071D02*
X126257160Y-60845089D01*
X132116429Y-70710500D02*
X132261678Y-70932427D01*
X130500000Y-57000000D02*
X131500000Y-57000000D01*
X133565581Y-77175632D02*
X133449970Y-77279827D01*
X167982790Y-82481395D02*
X168116429Y-82710500D01*
X143578814Y-54468842D02*
X143557618Y-54538706D01*
X170254282Y-60638884D02*
X170495907Y-60748274D01*
X158132698Y-76438367D02*
X158054560Y-76572966D01*
X158413576Y-63714893D02*
X158372580Y-63865032D01*
X123250000Y-37000000D02*
X123500000Y-36999999D01*
X156938367Y-41632698D02*
X156799897Y-41703750D01*
X120418152Y-35146588D02*
X120585436Y-35352415D01*
X177345089Y-30242839D02*
X177248274Y-29995907D01*
X119909252Y-65971954D02*
X119754566Y-65989176D01*
X121567572Y-84238321D02*
X121789499Y-84383570D01*
X146132698Y-40438367D02*
X146054560Y-40572966D01*
X165138884Y-70245717D02*
X165248274Y-70004092D01*
X158203750Y-76299897D02*
X158132698Y-76438367D01*
X146054560Y-64572966D02*
X145969546Y-64703331D01*
X159038707Y-51057623D02*
X158899287Y-51101001D01*
X131861115Y-34245717D02*
X131982790Y-34481395D01*
X168585436Y-59352415D02*
X168763087Y-59549364D01*
X121203331Y-53469546D02*
X121072966Y-53554560D01*
X147500000Y-36999999D02*
X147500000Y-38000000D01*
X134372580Y-27865032D02*
X134323853Y-28012843D01*
X126005573Y-72929071D02*
X126257160Y-72845089D01*
X176581847Y-52853411D02*
X176414563Y-52647584D01*
X145969546Y-76703331D02*
X145877887Y-76829112D01*
X144938367Y-53632698D02*
X144799897Y-53703750D01*
X155909252Y-29971954D02*
X155754566Y-29989176D01*
X167557618Y-78538706D02*
X167537415Y-78608862D01*
X170761152Y-51148311D02*
X170624412Y-51199514D01*
X157072966Y-29554560D02*
X156938367Y-29632698D01*
X134254282Y-36638884D02*
X134495907Y-36748274D01*
X119500000Y-33000000D02*
X119500000Y-33000000D01*
X167624162Y-42330050D02*
X167578814Y-42468842D01*
X145675632Y-77065581D02*
X145565581Y-77175632D01*
X121969546Y-76703331D02*
X121877887Y-76829112D01*
X131654910Y-69757160D02*
X131751725Y-70004092D01*
X146323853Y-76012843D02*
X146267526Y-76157928D01*
X132512843Y-41823853D02*
X132365032Y-41872580D01*
X164236912Y-47549364D02*
X164414563Y-47352415D01*
X170742839Y-60845089D02*
X170994426Y-60929071D01*
X169565581Y-65175632D02*
X169449970Y-65279827D01*
X149500000Y-84999999D02*
X149500000Y-84999999D01*
X138745717Y-39361115D02*
X138504092Y-39251725D01*
X133779827Y-64949970D02*
X133675632Y-65065581D01*
X174005573Y-72929071D02*
X174257160Y-72845089D01*
X157779827Y-76949970D02*
X157675632Y-77065581D01*
X119982790Y-46481395D02*
X120116429Y-46710500D01*
X173500000Y-60999999D02*
X173749999Y-60999999D01*
X133203331Y-65469546D02*
X133072966Y-65554560D01*
X167673423Y-78192599D02*
X167624162Y-78330050D01*
X153499999Y-69000000D02*
X154500000Y-69000000D01*
X131699510Y-54124410D02*
X131673423Y-54192599D01*
X129429071Y-78494426D02*
X129345089Y-78242839D01*
X174005573Y-75070928D02*
X173750000Y-75000000D01*
X161500000Y-63000000D02*
X161500000Y-62000000D01*
X159038707Y-39057623D02*
X158899287Y-39101001D01*
X121449970Y-53279827D02*
X121329112Y-53377887D01*
X171038707Y-63057623D02*
X170899287Y-63101001D01*
X144950635Y-59736912D02*
X145147584Y-59914563D01*
X152236912Y-52450635D02*
X152049364Y-52263087D01*
X162257160Y-84845089D02*
X162504092Y-84748274D01*
X167861115Y-70245717D02*
X167982790Y-70481395D01*
X151646588Y-48081847D02*
X151852415Y-47914563D01*
X164883570Y-53289499D02*
X164738321Y-53067572D01*
X170742839Y-36845089D02*
X170994426Y-36929071D01*
X169072966Y-53554560D02*
X168938367Y-53632698D01*
X149500000Y-50000000D02*
X149500000Y-48999999D01*
X129429071Y-42494426D02*
X129345089Y-42242839D01*
X140738321Y-41067572D02*
X140581847Y-40853411D01*
X175210500Y-27616429D02*
X174981395Y-27482790D01*
X151210500Y-36383570D02*
X151432427Y-36238321D01*
X145567572Y-60238321D02*
X145789499Y-60383570D01*
X144950635Y-47736912D02*
X145147584Y-47914563D01*
X176738321Y-46932427D02*
X176883570Y-46710500D01*
X157779827Y-40949970D02*
X157675632Y-41065581D01*
X155500000Y-42750000D02*
X155500000Y-43000000D01*
X141248274Y-53995907D02*
X141138884Y-53754282D01*
X176581847Y-71146588D02*
X176738321Y-70932427D01*
X145565581Y-77175632D02*
X145449970Y-77279827D01*
X155673423Y-42192599D02*
X155624162Y-42330050D01*
X173500000Y-63000000D02*
X173500000Y-62000000D01*
X152049364Y-35736912D02*
X152236912Y-35549364D01*
X121789499Y-60383570D02*
X122018604Y-60517209D01*
X168799897Y-41703750D02*
X168657928Y-41767526D01*
X119654910Y-33757160D02*
X119751725Y-34004092D01*
X170132698Y-64438367D02*
X170054560Y-64572966D01*
X122471954Y-39409252D02*
X122446730Y-39562830D01*
X138981395Y-39482790D02*
X138745717Y-39361115D01*
X174005573Y-39070928D02*
X173750000Y-39000000D01*
X155570928Y-81505573D02*
X155654910Y-81757160D01*
X169072966Y-65554560D02*
X168938367Y-65632698D01*
X156365032Y-41872580D02*
X156214893Y-41913576D01*
X131600996Y-78399285D02*
X131557618Y-78538706D01*
X170624412Y-63199514D02*
X170489178Y-63254571D01*
X141138884Y-65754282D02*
X141017209Y-65518604D01*
X128236912Y-64450635D02*
X128049364Y-64263087D01*
X157565581Y-65175632D02*
X157449970Y-65279827D01*
X156214893Y-29913576D02*
X156062830Y-29946730D01*
X133779827Y-28949970D02*
X133675632Y-29065581D01*
X155982790Y-46481395D02*
X156116429Y-46710500D01*
X119500000Y-78750000D02*
X119500000Y-79000000D01*
X139432427Y-63761678D02*
X139210500Y-63616429D01*
X155754566Y-41989176D02*
X155726559Y-42056598D01*
X131654910Y-81757160D02*
X131751725Y-82004092D01*
X146692600Y-39173428D02*
X146556600Y-39226564D01*
X138981395Y-27482790D02*
X138745717Y-27361115D01*
X132763087Y-83549364D02*
X132950635Y-83736912D01*
X132418152Y-47146588D02*
X132585436Y-47352415D01*
X150257160Y-75154910D02*
X150005573Y-75070928D01*
X134203750Y-28299897D02*
X134132698Y-28438367D01*
X162504092Y-39251725D02*
X162257160Y-39154910D01*
X122413576Y-39714893D02*
X122372580Y-39865032D01*
X146054560Y-52572966D02*
X145969546Y-52703331D01*
X125750000Y-63000000D02*
X125500000Y-63000000D01*
X120799897Y-41703750D02*
X120657928Y-41767526D01*
X171250000Y-49000000D02*
X171500000Y-48999999D01*
X169329112Y-29377887D02*
X169203331Y-29469546D01*
X167654910Y-33757160D02*
X167751725Y-34004092D01*
X166500000Y-79000000D02*
X165499999Y-79000000D01*
X137500000Y-48999999D02*
X137749999Y-48999999D01*
X134132698Y-52438367D02*
X134054560Y-52572966D01*
X128414563Y-59352415D02*
X128581847Y-59146588D01*
X146471954Y-51409252D02*
X146446730Y-51562830D01*
X167500000Y-45249999D02*
X167570928Y-45505573D01*
X141429071Y-45505573D02*
X141500000Y-45250000D01*
X119909252Y-29971954D02*
X119754566Y-29989176D01*
X128581847Y-28853411D02*
X128414563Y-28647584D01*
X156116429Y-58710500D02*
X156261678Y-58932427D01*
X165345089Y-30242839D02*
X165248274Y-29995907D01*
X128414563Y-52647584D02*
X128236912Y-52450635D01*
X143518207Y-78679298D02*
X143500000Y-78750000D01*
X139646588Y-72081847D02*
X139852415Y-71914563D01*
X171179300Y-27018212D02*
X171038707Y-27057623D01*
X119600996Y-78399285D02*
X119557618Y-78538706D01*
X155754566Y-53989176D02*
X155726559Y-54056598D01*
X170495907Y-60748274D02*
X170742839Y-60845089D01*
X163646588Y-27918152D02*
X163432427Y-27761678D01*
X153138884Y-29754282D02*
X153017209Y-29518604D01*
X146899287Y-39101001D02*
X146830052Y-39124167D01*
X144261678Y-58932427D02*
X144418152Y-59146588D01*
X149750000Y-51000000D02*
X149500000Y-51000000D01*
X133789499Y-36383570D02*
X134018604Y-36517209D01*
X135038707Y-27057623D02*
X134899287Y-27101001D01*
X144214893Y-65913576D02*
X144062830Y-65946730D01*
X144261678Y-34932427D02*
X144418152Y-35146588D01*
X133203331Y-77469546D02*
X133072966Y-77554560D01*
X158489178Y-63254571D02*
X158471954Y-63409252D01*
X176236912Y-47549364D02*
X176414563Y-47352415D01*
X120950635Y-59736912D02*
X121147584Y-59914563D01*
X165345089Y-54242839D02*
X165248274Y-53995907D01*
X159500000Y-72999999D02*
X159500000Y-74000000D01*
X133147584Y-35914563D02*
X133353411Y-36081847D01*
X176049364Y-52263087D02*
X175852415Y-52085436D01*
X158742839Y-36845089D02*
X158994426Y-36929071D01*
X117500001Y-69000000D02*
X119500000Y-69000000D01*
X134267526Y-64157928D02*
X134203750Y-64299897D01*
X151852415Y-28085436D02*
X151646588Y-27918152D01*
X144365032Y-41872580D02*
X144214893Y-41913576D01*
X163646588Y-75918152D02*
X163432427Y-75761678D01*
X147250001Y-27000004D02*
X147108864Y-27037420D01*
X155654910Y-81757160D02*
X155751725Y-82004092D01*
X127646588Y-72081847D02*
X127852415Y-71914563D01*
X144938367Y-77632698D02*
X144799897Y-77703750D01*
X177499999Y-45000000D02*
X179500000Y-45000000D01*
X135038707Y-39057623D02*
X134899287Y-39101001D01*
X155909252Y-53971954D02*
X155754566Y-53989176D01*
X146994426Y-72929071D02*
X147250000Y-73000000D01*
X119500000Y-81249999D02*
X119570928Y-81505573D01*
X122994426Y-36929071D02*
X123250000Y-37000000D01*
X139646588Y-84081847D02*
X139852415Y-83914563D01*
X161500000Y-50000000D02*
X161500000Y-48999999D01*
X146899287Y-75101001D02*
X146761152Y-75148311D01*
X171500000Y-60999999D02*
X171500000Y-62000000D01*
X156657928Y-41767526D02*
X156512843Y-41823853D01*
X133675632Y-77065581D02*
X133565581Y-77175632D01*
X143909252Y-41971954D02*
X143754566Y-41989176D01*
X134132698Y-28438367D02*
X134054560Y-28572966D01*
X141017209Y-34481395D02*
X141138884Y-34245717D01*
X129138884Y-70245717D02*
X129248274Y-70004092D01*
X151852415Y-35914563D02*
X152049364Y-35736912D01*
X117500001Y-25000000D02*
X123500000Y-25000000D01*
X127852415Y-35914563D02*
X128049364Y-35736912D01*
X158830052Y-39124167D02*
X158692600Y-39173428D01*
X152581847Y-76853411D02*
X152414563Y-76647584D01*
X121353411Y-36081847D02*
X121567572Y-36238321D01*
X119500000Y-69000000D02*
X119500000Y-69000000D01*
X119624162Y-66330050D02*
X119600996Y-66399285D01*
X163852415Y-35914563D02*
X164049364Y-35736912D01*
X144799897Y-41703750D02*
X144657928Y-41767526D01*
X176236912Y-76450635D02*
X176049364Y-76263087D01*
X145789499Y-72383570D02*
X146018604Y-72517209D01*
X146742839Y-84845089D02*
X146994426Y-84929071D01*
X131909252Y-41971954D02*
X131754566Y-41989176D01*
X146018604Y-48517209D02*
X146254282Y-48638884D01*
X162981395Y-63482790D02*
X162745717Y-63361115D01*
X135500000Y-63000004D02*
X135250001Y-63000004D01*
X163432427Y-36238321D02*
X163646588Y-36081847D01*
X164414563Y-35352415D02*
X164581847Y-35146588D01*
X138745717Y-72638884D02*
X138981395Y-72517209D01*
X167909252Y-29971954D02*
X167754566Y-29989176D01*
X164581847Y-52853411D02*
X164414563Y-52647584D01*
X158323853Y-76012843D02*
X158267526Y-76157928D01*
X126504092Y-48748274D02*
X126745717Y-48638884D01*
X138257160Y-84845089D02*
X138504092Y-84748274D01*
X152414563Y-52647584D02*
X152236912Y-52450635D01*
X128049364Y-59736912D02*
X128236912Y-59549364D01*
X145072966Y-77554560D02*
X144938367Y-77632698D01*
X139646588Y-48081847D02*
X139852415Y-47914563D01*
X131500000Y-79000000D02*
X130500000Y-79000000D01*
X133353411Y-72081847D02*
X133567572Y-72238321D01*
X158899287Y-63101001D02*
X158830052Y-63124167D01*
X158489178Y-27254571D02*
X158471954Y-27409252D01*
X155861115Y-58245717D02*
X155982790Y-58481395D01*
X157675632Y-53065581D02*
X157565581Y-53175632D01*
X174504092Y-27251725D02*
X174257160Y-27154910D01*
X163646588Y-36081847D02*
X163852415Y-35914563D01*
X155699510Y-78124410D02*
X155673423Y-78192599D01*
X146254282Y-60638884D02*
X146495907Y-60748274D01*
X158830052Y-51124167D02*
X158761152Y-51148311D01*
X154500000Y-67000000D02*
X153499999Y-67000000D01*
X166500000Y-81000000D02*
X167500000Y-81000000D01*
X161750000Y-39000000D02*
X161500000Y-39000000D01*
X152883570Y-65289499D02*
X152738321Y-65067572D01*
X126504092Y-51251725D02*
X126257160Y-51154910D01*
X177500000Y-33250000D02*
X177499999Y-33000000D01*
X144763087Y-47549364D02*
X144950635Y-47736912D01*
X129248274Y-41995907D02*
X129138884Y-41754282D01*
X119570928Y-57505573D02*
X119654910Y-57757160D01*
X135500000Y-51000004D02*
X135250001Y-51000004D01*
X135500000Y-39000004D02*
X135250001Y-39000004D01*
X174745717Y-84638884D02*
X174981395Y-84517209D01*
X152883570Y-53289499D02*
X152738321Y-53067572D01*
X141138884Y-53754282D02*
X141017209Y-53518604D01*
X134761152Y-75148311D02*
X134692600Y-75173428D01*
X150257160Y-72845089D02*
X150504092Y-72748274D01*
X146267526Y-64157928D02*
X146203750Y-64299897D01*
X177499999Y-67000000D02*
X177499999Y-66750000D01*
X139210500Y-75616429D02*
X138981395Y-75482790D01*
X165017209Y-29518604D02*
X164883570Y-29289499D01*
X146018604Y-72517209D02*
X146254282Y-72638884D01*
X152049364Y-59736912D02*
X152236912Y-59549364D01*
X167537415Y-78608862D02*
X167500000Y-78750000D01*
X123250001Y-27000004D02*
X123108864Y-27037420D01*
X153017209Y-46481395D02*
X153138884Y-46245717D01*
X165248274Y-53995907D02*
X165138884Y-53754282D01*
X175646588Y-39918152D02*
X175432427Y-39761678D01*
X145567572Y-36238321D02*
X145789499Y-36383570D01*
X176883570Y-53289499D02*
X176738321Y-53067572D01*
X161500000Y-62000000D02*
X161500000Y-60999999D01*
X153499999Y-81000000D02*
X154500000Y-81000000D01*
X122446730Y-75562830D02*
X122413576Y-75714893D01*
X129429071Y-54494426D02*
X129345089Y-54242839D01*
X143726559Y-30056598D02*
X143673423Y-30192599D01*
X159500000Y-51000004D02*
X159250001Y-51000004D01*
X123250001Y-75000004D02*
X123108864Y-75037420D01*
X169779827Y-52949970D02*
X169675632Y-53065581D01*
X169203331Y-53469546D02*
X169072966Y-53554560D01*
X119600996Y-54399285D02*
X119557618Y-54538706D01*
X168938367Y-41632698D02*
X168799897Y-41703750D01*
X119982790Y-58481395D02*
X120116429Y-58710500D01*
X126005573Y-48929071D02*
X126257160Y-48845089D01*
X170489178Y-75254571D02*
X170471954Y-75409252D01*
X161749999Y-60999999D02*
X162005573Y-60929071D01*
X159500000Y-74000000D02*
X159500000Y-75000004D01*
X179500000Y-79000000D02*
X177499999Y-79000000D01*
X132116429Y-34710500D02*
X132261678Y-34932427D01*
X164236912Y-28450635D02*
X164049364Y-28263087D01*
X177345089Y-54242839D02*
X177248274Y-53995907D01*
X131500000Y-43000000D02*
X130500000Y-43000000D01*
X156261678Y-70932427D02*
X156418152Y-71146588D01*
X127852415Y-59914563D02*
X128049364Y-59736912D01*
X152581847Y-28853411D02*
X152414563Y-28647584D01*
X155982790Y-58481395D02*
X156116429Y-58710500D01*
X131699510Y-66124410D02*
X131673423Y-66192599D01*
X150981395Y-27482790D02*
X150745717Y-27361115D01*
X170471954Y-51409252D02*
X170446730Y-51562830D01*
X171250001Y-27000004D02*
X171179300Y-27018212D01*
X177499999Y-33000000D02*
X179500000Y-33000000D01*
X177248274Y-77995907D02*
X177138884Y-77754282D01*
X163852415Y-76085436D02*
X163646588Y-75918152D01*
X177499999Y-30750000D02*
X177429071Y-30494426D01*
X129429071Y-66494426D02*
X129345089Y-66242839D01*
X134471954Y-75409252D02*
X134446730Y-75562830D01*
X167500000Y-69000000D02*
X167500000Y-69249999D01*
X149749999Y-84999999D02*
X150005573Y-84929071D01*
X175852415Y-83914563D02*
X176049364Y-83736912D01*
X170994426Y-36929071D02*
X171250000Y-37000000D01*
X139646588Y-60081847D02*
X139852415Y-59914563D01*
X146495907Y-48748274D02*
X146742839Y-48845089D01*
X119982790Y-70481395D02*
X120116429Y-70710500D01*
X165248274Y-41995907D02*
X165138884Y-41754282D01*
X129345089Y-45757160D02*
X129429071Y-45505573D01*
X122830052Y-39124167D02*
X122692600Y-39173428D01*
X162504092Y-84748274D02*
X162745717Y-84638884D01*
X162745717Y-75361115D02*
X162504092Y-75251725D01*
X122323853Y-52012843D02*
X122267526Y-52157928D01*
X141248274Y-65995907D02*
X141138884Y-65754282D01*
X132365032Y-65872580D02*
X132214893Y-65913576D01*
X151852415Y-59914563D02*
X152049364Y-59736912D01*
X157072966Y-53554560D02*
X156938367Y-53632698D01*
X168950635Y-47736912D02*
X169147584Y-47914563D01*
X128738321Y-70932427D02*
X128883570Y-70710500D01*
X162005573Y-36929071D02*
X162257160Y-36845089D01*
X177345089Y-57757160D02*
X177429071Y-57505573D01*
X129017209Y-65518604D02*
X128883570Y-65289499D01*
X175210500Y-84383570D02*
X175432427Y-84238321D01*
X140049364Y-83736912D02*
X140236912Y-83549364D01*
X119600996Y-30399285D02*
X119557618Y-30538706D01*
X165017209Y-46481395D02*
X165138884Y-46245717D01*
X153017209Y-77518604D02*
X152883570Y-77289499D01*
X126745717Y-48638884D02*
X126981395Y-48517209D01*
X138005573Y-48929071D02*
X138257160Y-48845089D01*
X156116429Y-82710500D02*
X156261678Y-82932427D01*
X179500000Y-31000000D02*
X177499999Y-31000000D01*
X125500000Y-60999999D02*
X125749999Y-60999999D01*
X141499999Y-55000000D02*
X141499999Y-54750000D01*
X158742839Y-60845089D02*
X158994426Y-60929071D01*
X173749999Y-36999999D02*
X174005573Y-36929071D01*
X169779827Y-76949970D02*
X169675632Y-77065581D01*
X173749999Y-84999999D02*
X174005573Y-84929071D01*
X149500000Y-60999999D02*
X149749999Y-60999999D01*
X143861115Y-82245717D02*
X143982790Y-82481395D01*
X168062830Y-77946730D02*
X167909252Y-77971954D01*
X151646588Y-36081847D02*
X151852415Y-35914563D01*
X135500000Y-87000000D02*
X125500000Y-87000000D01*
X132763087Y-71549364D02*
X132950635Y-71736912D01*
X171500000Y-75000004D02*
X171250001Y-75000004D01*
X144062830Y-41946730D02*
X143909252Y-41971954D01*
X173750000Y-63000000D02*
X173500000Y-63000000D01*
X139852415Y-35914563D02*
X140049364Y-35736912D01*
X164236912Y-76450635D02*
X164049364Y-76263087D01*
X168418152Y-71146588D02*
X168585436Y-71352415D01*
X169565581Y-77175632D02*
X169449970Y-77279827D01*
X132950635Y-59736912D02*
X133147584Y-59914563D01*
X122471954Y-75409252D02*
X122446730Y-75562830D01*
X170054560Y-28572966D02*
X169969546Y-28703331D01*
X150257160Y-48845089D02*
X150504092Y-48748274D01*
X165248274Y-29995907D02*
X165138884Y-29754282D01*
X132116429Y-46710500D02*
X132261678Y-46932427D01*
X158692600Y-27173428D02*
X158556600Y-27226564D01*
X168116429Y-58710500D02*
X168261678Y-58932427D01*
X167751725Y-46004092D02*
X167861115Y-46245717D01*
X145877887Y-28829112D02*
X145779827Y-28949970D01*
X120657928Y-77767526D02*
X120512843Y-77823853D01*
X120512843Y-53823853D02*
X120365032Y-53872580D01*
X138504092Y-60748274D02*
X138745717Y-60638884D01*
X140738321Y-70932427D02*
X140883570Y-70710500D01*
X145779827Y-76949970D02*
X145675632Y-77065581D01*
X176236912Y-83549364D02*
X176414563Y-83352415D01*
X175432427Y-27761678D02*
X175210500Y-27616429D01*
X176414563Y-35352415D02*
X176581847Y-35146588D01*
X119754566Y-53989176D02*
X119699510Y-54124410D01*
X177500000Y-69250000D02*
X177499999Y-69000000D01*
X141017209Y-58481395D02*
X141138884Y-58245717D01*
X133969546Y-40703331D02*
X133877887Y-40829112D01*
X137500000Y-51000000D02*
X137500000Y-50000000D01*
X133147584Y-71914563D02*
X133353411Y-72081847D01*
X170054560Y-64572966D02*
X169969546Y-64703331D01*
X168938367Y-53632698D02*
X168799897Y-53703750D01*
X170556600Y-39226564D02*
X170489178Y-39254571D01*
X152236912Y-35549364D02*
X152414563Y-35352415D01*
X126745717Y-39361115D02*
X126504092Y-39251725D01*
X131754566Y-41989176D02*
X131699510Y-42124410D01*
X120799897Y-53703750D02*
X120657928Y-53767526D01*
X174981395Y-39482790D02*
X174745717Y-39361115D01*
X171038707Y-39057623D02*
X170899287Y-39101001D01*
X151210500Y-27616429D02*
X150981395Y-27482790D01*
X135500000Y-50000000D02*
X135500000Y-51000004D01*
X133565581Y-41175632D02*
X133449970Y-41279827D01*
X165429071Y-42494426D02*
X165345089Y-42242839D01*
X129017209Y-46481395D02*
X129138884Y-46245717D01*
X119861115Y-46245717D02*
X119982790Y-46481395D01*
X143500000Y-42750000D02*
X143500000Y-43000000D01*
X121969546Y-40703331D02*
X121877887Y-40829112D01*
X140236912Y-52450635D02*
X140049364Y-52263087D01*
X158254282Y-72638884D02*
X158495907Y-72748274D01*
X164581847Y-35146588D02*
X164738321Y-34932427D01*
X174005573Y-51070928D02*
X173750000Y-51000000D01*
X125500000Y-72999999D02*
X125749999Y-72999999D01*
X138745717Y-51361115D02*
X138504092Y-51251725D01*
X146471954Y-27409252D02*
X146446730Y-27562830D01*
X134624412Y-75199514D02*
X134489178Y-75254571D01*
X133675632Y-53065581D02*
X133565581Y-53175632D01*
X122830052Y-63124167D02*
X122761152Y-63148311D01*
X134742839Y-84845089D02*
X134994426Y-84929071D01*
X152414563Y-40647584D02*
X152236912Y-40450635D01*
X146742839Y-48845089D02*
X146994426Y-48929071D01*
X177017209Y-82481395D02*
X177138884Y-82245717D01*
X138257160Y-51154910D02*
X138005573Y-51070928D01*
X179500000Y-87000000D02*
X173500000Y-87000000D01*
X133675632Y-65065581D02*
X133565581Y-65175632D01*
X121353411Y-48081847D02*
X121567572Y-48238321D01*
X167500000Y-66750000D02*
X167500000Y-67000000D01*
X163646588Y-51918152D02*
X163432427Y-51761678D01*
X155751725Y-82004092D02*
X155861115Y-82245717D01*
X168512843Y-29823853D02*
X168365032Y-29872580D01*
X141138884Y-70245717D02*
X141248274Y-70004092D01*
X143654910Y-81757160D02*
X143751725Y-82004092D01*
X145969546Y-28703331D02*
X145877887Y-28829112D01*
X132950635Y-35736912D02*
X133147584Y-35914563D01*
X170254282Y-48638884D02*
X170495907Y-48748274D01*
X119500000Y-69249999D02*
X119570928Y-69505573D01*
X120365032Y-65872580D02*
X120214893Y-65913576D01*
X119751725Y-46004092D02*
X119861115Y-46245717D01*
X145877887Y-76829112D02*
X145779827Y-76949970D01*
X159500000Y-60999999D02*
X159500000Y-62000000D01*
X169877887Y-64829112D02*
X169779827Y-64949970D01*
X153499999Y-55000000D02*
X153499999Y-54750000D01*
X176049364Y-28263087D02*
X175852415Y-28085436D01*
X122624412Y-75199514D02*
X122489178Y-75254571D01*
X141138884Y-41754282D02*
X141017209Y-41518604D01*
X153345089Y-54242839D02*
X153248274Y-53995907D01*
X137749999Y-48999999D02*
X138005573Y-48929071D01*
X122203750Y-40299897D02*
X122132698Y-40438367D01*
X173500000Y-72999999D02*
X173749999Y-72999999D01*
X131624162Y-30330050D02*
X131600996Y-30399285D01*
X133675632Y-29065581D02*
X133565581Y-29175632D01*
X167699510Y-78124410D02*
X167673423Y-78192599D01*
X144950635Y-35736912D02*
X145147584Y-35914563D01*
X176236912Y-59549364D02*
X176414563Y-59352415D01*
X167500000Y-33249999D02*
X167570928Y-33505573D01*
X145565581Y-41175632D02*
X145449970Y-41279827D01*
X126257160Y-72845089D02*
X126504092Y-72748274D01*
X150504092Y-27251725D02*
X150257160Y-27154910D01*
X131751725Y-46004092D02*
X131861115Y-46245717D01*
X141138884Y-34245717D02*
X141248274Y-34004092D01*
X155578814Y-54468842D02*
X155557618Y-54538706D01*
X176738321Y-53067572D02*
X176581847Y-52853411D01*
X129429071Y-81505573D02*
X129500000Y-81250000D01*
X141345089Y-66242839D02*
X141248274Y-65995907D01*
X126504092Y-27251725D02*
X126257160Y-27154910D01*
X127646588Y-48081847D02*
X127852415Y-47914563D01*
X117500001Y-79000000D02*
X117500001Y-69000000D01*
X145353411Y-36081847D02*
X145567572Y-36238321D01*
X169449970Y-53279827D02*
X169329112Y-53377887D01*
X152581847Y-40853411D02*
X152414563Y-40647584D01*
X134413576Y-27714893D02*
X134372580Y-27865032D01*
X119570928Y-81505573D02*
X119654910Y-81757160D01*
X170018604Y-48517209D02*
X170254282Y-48638884D01*
X121147584Y-47914563D02*
X121353411Y-48081847D01*
X144585436Y-47352415D02*
X144763087Y-47549364D01*
X158624412Y-51199514D02*
X158489178Y-51254571D01*
X155861115Y-34245717D02*
X155982790Y-34481395D01*
X167754566Y-53989176D02*
X167699510Y-54124410D01*
X128883570Y-53289499D02*
X128738321Y-53067572D01*
X152883570Y-82710500D02*
X153017209Y-82481395D01*
X165345089Y-42242839D02*
X165248274Y-41995907D01*
X176414563Y-40647584D02*
X176236912Y-40450635D01*
X140581847Y-52853411D02*
X140414563Y-52647584D01*
X146742839Y-72845089D02*
X146994426Y-72929071D01*
X145675632Y-29065581D02*
X145565581Y-29175632D01*
X156763087Y-71549364D02*
X156950635Y-71736912D01*
X176414563Y-71352415D02*
X176581847Y-71146588D01*
X122761152Y-75148311D02*
X122692600Y-75173428D01*
X127646588Y-36081847D02*
X127852415Y-35914563D01*
X131578814Y-42468842D02*
X131537415Y-42608862D01*
X122372580Y-63865032D02*
X122323853Y-64012843D01*
X133565581Y-65175632D02*
X133449970Y-65279827D01*
X167537415Y-42608862D02*
X167500000Y-42750000D01*
X168950635Y-59736912D02*
X169147584Y-59914563D01*
X132799897Y-77703750D02*
X132657928Y-77767526D01*
X158994426Y-60929071D02*
X159250000Y-61000000D01*
X140236912Y-64450635D02*
X140049364Y-64263087D01*
M02*
