M48
; DRILL file {KiCad 7.0.5-1.fc38} date Fri 07 Jul 2023 14:16:19 EDT
; FORMAT={-:-/ absolute / metric / decimal}
; #@! TF.CreationDate,2023-07-07T14:16:19-04:00
; #@! TF.GenerationSoftware,Kicad,Pcbnew,7.0.5-1.fc38
; #@! TF.FileFunction,NonPlated,1,2,NPTH
FMAT,2
METRIC
; #@! TA.AperFunction,NonPlated,NPTH,ComponentDrill
T1C0.500
%
G90
G05
T1
X112.5Y-27.0
X112.5Y-85.0
X113.333Y-27.0
X113.333Y-85.0
X114.167Y-27.0
X114.167Y-85.0
X115.0Y-27.0
X115.0Y-85.0
X115.833Y-27.0
X115.833Y-85.0
X116.667Y-27.0
X116.667Y-85.0
X117.5Y-27.0
X117.5Y-85.0
X119.375Y-31.0
X119.375Y-32.0
X119.375Y-33.0
X119.375Y-43.0
X119.375Y-44.0
X119.375Y-45.0
X119.375Y-55.0
X119.375Y-56.0
X119.375Y-57.0
X119.375Y-67.0
X119.375Y-68.0
X119.375Y-69.0
X119.375Y-79.0
X119.375Y-80.0
X119.375Y-81.0
X119.5Y-20.0
X119.5Y-20.833
X119.5Y-21.667
X119.5Y-22.5
X119.5Y-23.333
X119.5Y-24.167
X119.5Y-25.0
X119.5Y-87.0
X119.5Y-87.833
X119.5Y-88.667
X119.5Y-89.5
X119.5Y-90.333
X119.5Y-91.167
X119.5Y-92.0
X123.5Y-26.875
X123.5Y-38.875
X123.5Y-50.875
X123.5Y-62.875
X123.5Y-74.875
X123.5Y-37.125
X123.5Y-49.125
X123.5Y-61.125
X123.5Y-73.125
X123.5Y-85.125
X124.5Y-26.875
X124.5Y-37.125
X124.5Y-38.875
X124.5Y-49.125
X124.5Y-50.875
X124.5Y-61.125
X124.5Y-62.875
X124.5Y-73.125
X124.5Y-74.875
X124.5Y-85.125
X125.5Y-26.875
X125.5Y-38.875
X125.5Y-50.875
X125.5Y-62.875
X125.5Y-74.875
X125.5Y-37.125
X125.5Y-49.125
X125.5Y-61.125
X125.5Y-73.125
X125.5Y-85.125
X129.625Y-31.0
X129.625Y-32.0
X129.625Y-33.0
X129.625Y-43.0
X129.625Y-44.0
X129.625Y-45.0
X129.625Y-55.0
X129.625Y-56.0
X129.625Y-57.0
X129.625Y-67.0
X129.625Y-68.0
X129.625Y-69.0
X129.625Y-79.0
X129.625Y-80.0
X129.625Y-81.0
X131.375Y-31.0
X131.375Y-32.0
X131.375Y-33.0
X131.375Y-43.0
X131.375Y-44.0
X131.375Y-45.0
X131.375Y-55.0
X131.375Y-56.0
X131.375Y-57.0
X131.375Y-67.0
X131.375Y-68.0
X131.375Y-69.0
X131.375Y-79.0
X131.375Y-80.0
X131.375Y-81.0
X135.5Y-26.875
X135.5Y-38.875
X135.5Y-50.875
X135.5Y-62.875
X135.5Y-74.875
X135.5Y-37.125
X135.5Y-49.125
X135.5Y-61.125
X135.5Y-73.125
X135.5Y-85.125
X136.5Y-26.875
X136.5Y-38.875
X136.5Y-50.875
X136.5Y-62.875
X136.5Y-74.875
X136.5Y-37.125
X136.5Y-49.125
X136.5Y-61.125
X136.5Y-73.125
X136.5Y-85.125
X137.5Y-26.875
X137.5Y-38.875
X137.5Y-50.875
X137.5Y-62.875
X137.5Y-74.875
X137.5Y-37.125
X137.5Y-49.125
X137.5Y-61.125
X137.5Y-73.125
X137.5Y-85.125
X141.625Y-31.0
X141.625Y-32.0
X141.625Y-33.0
X141.625Y-43.0
X141.625Y-44.0
X141.625Y-45.0
X141.625Y-55.0
X141.625Y-56.0
X141.625Y-57.0
X141.625Y-67.0
X141.625Y-68.0
X141.625Y-69.0
X141.625Y-79.0
X141.625Y-80.0
X141.625Y-81.0
X143.375Y-31.0
X143.375Y-32.0
X143.375Y-33.0
X143.375Y-43.0
X143.375Y-44.0
X143.375Y-45.0
X143.375Y-55.0
X143.375Y-56.0
X143.375Y-57.0
X143.375Y-67.0
X143.375Y-68.0
X143.375Y-69.0
X143.375Y-79.0
X143.375Y-80.0
X143.375Y-81.0
X147.5Y-26.875
X147.5Y-38.875
X147.5Y-50.875
X147.5Y-62.875
X147.5Y-74.875
X147.5Y-37.125
X147.5Y-49.125
X147.5Y-61.125
X147.5Y-73.125
X147.5Y-85.125
X148.5Y-26.875
X148.5Y-38.875
X148.5Y-50.875
X148.5Y-62.875
X148.5Y-74.875
X148.5Y-37.125
X148.5Y-49.125
X148.5Y-61.125
X148.5Y-73.125
X148.5Y-85.125
X149.5Y-26.875
X149.5Y-38.875
X149.5Y-50.875
X149.5Y-62.875
X149.5Y-74.875
X149.5Y-37.125
X149.5Y-49.125
X149.5Y-61.125
X149.5Y-73.125
X149.5Y-85.125
X153.625Y-31.0
X153.625Y-32.0
X153.625Y-33.0
X153.625Y-43.0
X153.625Y-44.0
X153.625Y-45.0
X153.625Y-55.0
X153.625Y-56.0
X153.625Y-57.0
X153.625Y-67.0
X153.625Y-68.0
X153.625Y-69.0
X153.625Y-79.0
X153.625Y-80.0
X153.625Y-81.0
X155.375Y-31.0
X155.375Y-32.0
X155.375Y-33.0
X155.375Y-43.0
X155.375Y-44.0
X155.375Y-45.0
X155.375Y-55.0
X155.375Y-56.0
X155.375Y-57.0
X155.375Y-67.0
X155.375Y-68.0
X155.375Y-69.0
X155.375Y-79.0
X155.375Y-80.0
X155.375Y-81.0
X159.5Y-26.875
X159.5Y-38.875
X159.5Y-50.875
X159.5Y-62.875
X159.5Y-74.875
X159.5Y-37.125
X159.5Y-49.125
X159.5Y-61.125
X159.5Y-73.125
X159.5Y-85.125
X160.5Y-26.875
X160.5Y-38.875
X160.5Y-50.875
X160.5Y-62.875
X160.5Y-74.875
X160.5Y-37.125
X160.5Y-49.125
X160.5Y-61.125
X160.5Y-73.125
X160.5Y-85.125
X161.5Y-26.875
X161.5Y-38.875
X161.5Y-50.875
X161.5Y-62.875
X161.5Y-74.875
X161.5Y-37.125
X161.5Y-49.125
X161.5Y-61.125
X161.5Y-73.125
X161.5Y-85.125
X165.625Y-31.0
X165.625Y-32.0
X165.625Y-33.0
X165.625Y-43.0
X165.625Y-44.0
X165.625Y-45.0
X165.625Y-55.0
X165.625Y-56.0
X165.625Y-57.0
X165.625Y-67.0
X165.625Y-68.0
X165.625Y-69.0
X165.625Y-79.0
X165.625Y-80.0
X165.625Y-81.0
X167.375Y-31.0
X167.375Y-32.0
X167.375Y-33.0
X167.375Y-43.0
X167.375Y-44.0
X167.375Y-45.0
X167.375Y-55.0
X167.375Y-56.0
X167.375Y-57.0
X167.375Y-67.0
X167.375Y-68.0
X167.375Y-69.0
X167.375Y-79.0
X167.375Y-80.0
X167.375Y-81.0
X171.5Y-26.875
X171.5Y-38.875
X171.5Y-50.875
X171.5Y-62.875
X171.5Y-74.875
X171.5Y-37.125
X171.5Y-49.125
X171.5Y-61.125
X171.5Y-73.125
X171.5Y-85.125
X172.5Y-26.875
X172.5Y-38.875
X172.5Y-50.875
X172.5Y-62.875
X172.5Y-74.875
X172.5Y-37.125
X172.5Y-49.125
X172.5Y-61.125
X172.5Y-73.125
X172.5Y-85.125
X173.5Y-26.875
X173.5Y-38.875
X173.5Y-50.875
X173.5Y-62.875
X173.5Y-74.875
X173.5Y-37.125
X173.5Y-49.125
X173.5Y-61.125
X173.5Y-73.125
X173.5Y-85.125
X177.5Y-20.0
X177.5Y-20.833
X177.5Y-21.667
X177.5Y-22.5
X177.5Y-23.333
X177.5Y-24.167
X177.5Y-25.0
X177.5Y-87.0
X177.5Y-87.833
X177.5Y-88.667
X177.5Y-89.5
X177.5Y-90.333
X177.5Y-91.167
X177.5Y-92.0
X177.625Y-31.0
X177.625Y-32.0
X177.625Y-33.0
X177.625Y-43.0
X177.625Y-44.0
X177.625Y-45.0
X177.625Y-55.0
X177.625Y-56.0
X177.625Y-57.0
X177.625Y-67.0
X177.625Y-68.0
X177.625Y-69.0
X177.625Y-79.0
X177.625Y-80.0
X177.625Y-81.0
X179.5Y-27.0
X179.5Y-85.0
X180.333Y-27.0
X180.333Y-85.0
X181.167Y-27.0
X181.167Y-85.0
X182.0Y-27.0
X182.0Y-85.0
X182.833Y-27.0
X182.833Y-85.0
X183.667Y-27.0
X183.667Y-85.0
X184.5Y-27.0
X184.5Y-85.0
T0
M30
