M48
; DRILL file {KiCad 7.0.5-1.fc38} date Fri 07 Jul 2023 14:16:19 EDT
; FORMAT={-:-/ absolute / metric / decimal}
; #@! TF.CreationDate,2023-07-07T14:16:19-04:00
; #@! TF.GenerationSoftware,Kicad,Pcbnew,7.0.5-1.fc38
; #@! TF.FileFunction,Plated,1,2,PTH
FMAT,2
METRIC
; #@! TA.AperFunction,Plated,PTH,ViaDrill
T1C0.400
; #@! TA.AperFunction,Plated,PTH,ComponentDrill
T2C0.500
%
G90
G05
T1
X121.507Y-35.353
X121.507Y-47.353
X121.507Y-59.353
X121.507Y-71.353
X121.507Y-83.353
X123.078Y-32.603
X123.078Y-44.603
X123.078Y-56.603
X123.078Y-68.603
X123.078Y-80.603
X124.0Y-31.25
X124.0Y-43.25
X124.0Y-55.25
X124.0Y-67.25
X124.0Y-79.25
X125.512Y-31.488
X125.512Y-43.488
X125.512Y-55.488
X125.512Y-67.488
X125.512Y-79.488
X127.25Y-28.5
X127.25Y-40.5
X127.25Y-52.5
X127.25Y-64.5
X127.25Y-76.5
X127.5Y-35.25
X127.5Y-47.25
X127.5Y-59.25
X127.5Y-71.25
X127.5Y-83.25
X133.507Y-35.353
X133.507Y-47.353
X133.507Y-59.353
X133.507Y-71.353
X133.507Y-83.353
X135.078Y-32.603
X135.078Y-44.603
X135.078Y-56.603
X135.078Y-68.603
X135.078Y-80.603
X136.0Y-31.25
X136.0Y-43.25
X136.0Y-55.25
X136.0Y-67.25
X136.0Y-79.25
X137.512Y-31.488
X137.512Y-43.488
X137.512Y-55.488
X137.512Y-67.488
X137.512Y-79.488
X139.25Y-28.5
X139.25Y-40.5
X139.25Y-52.5
X139.25Y-64.5
X139.25Y-76.5
X139.5Y-35.25
X139.5Y-47.25
X139.5Y-59.25
X139.5Y-71.25
X139.5Y-83.25
X145.507Y-35.353
X145.507Y-47.353
X145.507Y-59.353
X145.507Y-71.353
X145.507Y-83.353
X147.078Y-32.603
X147.078Y-44.603
X147.078Y-56.603
X147.078Y-68.603
X147.078Y-80.603
X148.0Y-31.25
X148.0Y-43.25
X148.0Y-55.25
X148.0Y-67.25
X148.0Y-79.25
X149.512Y-31.488
X149.512Y-43.488
X149.512Y-55.488
X149.512Y-67.488
X149.512Y-79.488
X151.25Y-28.5
X151.25Y-40.5
X151.25Y-52.5
X151.25Y-64.5
X151.25Y-76.5
X151.5Y-35.25
X151.5Y-47.25
X151.5Y-59.25
X151.5Y-71.25
X151.5Y-83.25
X157.507Y-35.353
X157.507Y-47.353
X157.507Y-59.353
X157.507Y-71.353
X157.507Y-83.353
X159.078Y-32.603
X159.078Y-44.603
X159.078Y-56.603
X159.078Y-68.603
X159.078Y-80.603
X160.0Y-31.25
X160.0Y-43.25
X160.0Y-55.25
X160.0Y-67.25
X160.0Y-79.25
X161.512Y-31.488
X161.512Y-43.488
X161.512Y-55.488
X161.512Y-67.488
X161.512Y-79.488
X163.25Y-28.5
X163.25Y-40.5
X163.25Y-52.5
X163.25Y-64.5
X163.25Y-76.5
X163.5Y-35.25
X163.5Y-47.25
X163.5Y-59.25
X163.5Y-71.25
X163.5Y-83.25
X169.507Y-35.353
X169.507Y-47.353
X169.507Y-59.353
X169.507Y-71.353
X169.507Y-83.353
X171.078Y-32.603
X171.078Y-44.603
X171.078Y-56.603
X171.078Y-68.603
X171.078Y-80.603
X172.0Y-31.25
X172.0Y-43.25
X172.0Y-55.25
X172.0Y-67.25
X172.0Y-79.25
X173.512Y-31.488
X173.512Y-43.488
X173.512Y-55.488
X173.512Y-67.488
X173.512Y-79.488
X175.25Y-28.5
X175.25Y-40.5
X175.25Y-52.5
X175.25Y-64.5
X175.25Y-76.5
X175.5Y-35.25
X175.5Y-47.25
X175.5Y-59.25
X175.5Y-71.25
X175.5Y-83.25
T2
X120.25Y-32.0
X120.25Y-44.0
X120.25Y-56.0
X120.25Y-68.0
X120.25Y-80.0
X124.5Y-27.75
X124.5Y-36.25
X124.5Y-39.75
X124.5Y-48.25
X124.5Y-51.75
X124.5Y-60.25
X124.5Y-63.75
X124.5Y-72.25
X124.5Y-75.75
X124.5Y-84.25
X128.75Y-32.0
X128.75Y-44.0
X128.75Y-56.0
X128.75Y-68.0
X128.75Y-80.0
X132.25Y-32.0
X132.25Y-44.0
X132.25Y-56.0
X132.25Y-68.0
X132.25Y-80.0
X136.5Y-27.75
X136.5Y-36.25
X136.5Y-39.75
X136.5Y-48.25
X136.5Y-51.75
X136.5Y-60.25
X136.5Y-63.75
X136.5Y-72.25
X136.5Y-75.75
X136.5Y-84.25
X140.75Y-32.0
X140.75Y-44.0
X140.75Y-56.0
X140.75Y-68.0
X140.75Y-80.0
X144.25Y-32.0
X144.25Y-44.0
X144.25Y-56.0
X144.25Y-68.0
X144.25Y-80.0
X148.5Y-27.75
X148.5Y-36.25
X148.5Y-39.75
X148.5Y-48.25
X148.5Y-51.75
X148.5Y-60.25
X148.5Y-63.75
X148.5Y-72.25
X148.5Y-75.75
X148.5Y-84.25
X152.75Y-32.0
X152.75Y-44.0
X152.75Y-56.0
X152.75Y-68.0
X152.75Y-80.0
X156.25Y-32.0
X156.25Y-44.0
X156.25Y-56.0
X156.25Y-68.0
X156.25Y-80.0
X160.5Y-27.75
X160.5Y-36.25
X160.5Y-39.75
X160.5Y-48.25
X160.5Y-51.75
X160.5Y-60.25
X160.5Y-63.75
X160.5Y-72.25
X160.5Y-75.75
X160.5Y-84.25
X164.75Y-32.0
X164.75Y-44.0
X164.75Y-56.0
X164.75Y-68.0
X164.75Y-80.0
X168.25Y-32.0
X168.25Y-44.0
X168.25Y-56.0
X168.25Y-68.0
X168.25Y-80.0
X172.5Y-27.75
X172.5Y-36.25
X172.5Y-39.75
X172.5Y-48.25
X172.5Y-51.75
X172.5Y-60.25
X172.5Y-63.75
X172.5Y-72.25
X172.5Y-75.75
X172.5Y-84.25
X176.75Y-32.0
X176.75Y-44.0
X176.75Y-56.0
X176.75Y-68.0
X176.75Y-80.0
T0
M30
