M48
INCH
T1C0.0157
T2C0.0197
%
G90
G05
T1
X0.3818Y-0.4527
X0.3818Y-1.1614
X0.3818Y-1.8701
X0.3818Y-2.5787
X0.3818Y-3.2874
X0.4094Y-0.5275
X0.4094Y-1.2362
X0.4094Y-1.9449
X0.4094Y-2.6535
X0.4094Y-3.3622
X0.4271Y-0.3661
X0.4271Y-1.0748
X0.4271Y-1.7834
X0.4271Y-2.4921
X0.4271Y-3.2008
X0.5019Y-0.7303
X0.5019Y-1.439
X0.5019Y-2.1476
X0.5019Y-2.8563
X0.5019Y-3.5649
X0.5727Y-0.7716
X0.5727Y-1.4803
X0.5727Y-2.189
X0.5727Y-2.8976
X0.5727Y-3.6063
X0.6416Y-0.8051
X0.6416Y-1.5138
X0.6416Y-2.2224
X0.6416Y-2.9311
X0.6416Y-3.6397
X0.7007Y-0.4508
X0.7007Y-1.1594
X0.7007Y-1.8681
X0.7007Y-2.5767
X0.7007Y-3.2854
X0.7637Y-0.561
X0.7637Y-1.2697
X0.7637Y-1.9783
X0.7637Y-2.687
X0.7637Y-3.3956
X0.7716Y-0.7874
X0.7716Y-1.496
X0.7716Y-2.2047
X0.7716Y-2.9134
X0.7716Y-3.622
X0.7727Y-0.4063
X0.7727Y-1.1149
X0.7727Y-1.8236
X0.7727Y-2.5323
X0.7727Y-3.2409
X1.0905Y-0.4527
X1.0905Y-1.1614
X1.0905Y-1.8701
X1.0905Y-2.5787
X1.0905Y-3.2874
X1.118Y-0.5275
X1.118Y-1.2362
X1.118Y-1.9449
X1.118Y-2.6535
X1.118Y-3.3622
X1.1357Y-0.3661
X1.1357Y-1.0748
X1.1357Y-1.7834
X1.1357Y-2.4921
X1.1357Y-3.2008
X1.2105Y-0.7303
X1.2105Y-1.439
X1.2105Y-2.1476
X1.2105Y-2.8563
X1.2105Y-3.5649
X1.2814Y-0.7716
X1.2814Y-1.4803
X1.2814Y-2.189
X1.2814Y-2.8976
X1.2814Y-3.6063
X1.3503Y-0.8051
X1.3503Y-1.5138
X1.3503Y-2.2224
X1.3503Y-2.9311
X1.3503Y-3.6397
X1.4094Y-0.4508
X1.4094Y-1.1594
X1.4094Y-1.8681
X1.4094Y-2.5767
X1.4094Y-3.2854
X1.4723Y-0.561
X1.4723Y-1.2697
X1.4723Y-1.9783
X1.4723Y-2.687
X1.4723Y-3.3956
X1.4802Y-0.7874
X1.4802Y-1.496
X1.4802Y-2.2047
X1.4802Y-2.9134
X1.4802Y-3.622
X1.4814Y-0.4063
X1.4814Y-1.1149
X1.4814Y-1.8236
X1.4814Y-2.5323
X1.4814Y-3.2409
X1.7991Y-0.4527
X1.7991Y-1.1614
X1.7991Y-1.8701
X1.7991Y-2.5787
X1.7991Y-3.2874
X1.8267Y-0.5275
X1.8267Y-1.2362
X1.8267Y-1.9449
X1.8267Y-2.6535
X1.8267Y-3.3622
X1.8444Y-0.3661
X1.8444Y-1.0748
X1.8444Y-1.7834
X1.8444Y-2.4921
X1.8444Y-3.2008
X1.9192Y-0.7303
X1.9192Y-1.439
X1.9192Y-2.1476
X1.9192Y-2.8563
X1.9192Y-3.5649
X1.9901Y-0.7716
X1.9901Y-1.4803
X1.9901Y-2.189
X1.9901Y-2.8976
X1.9901Y-3.6063
X2.059Y-0.8051
X2.059Y-1.5138
X2.059Y-2.2224
X2.059Y-2.9311
X2.059Y-3.6397
X2.118Y-0.4508
X2.118Y-1.1594
X2.118Y-1.8681
X2.118Y-2.5767
X2.118Y-3.2854
X2.181Y-0.561
X2.181Y-1.2697
X2.181Y-1.9783
X2.181Y-2.687
X2.181Y-3.3956
X2.1889Y-0.7874
X2.1889Y-1.496
X2.1889Y-2.2047
X2.1889Y-2.9134
X2.1889Y-3.622
X2.1901Y-0.4063
X2.1901Y-1.1149
X2.1901Y-1.8236
X2.1901Y-2.5323
X2.1901Y-3.2409
X2.5078Y-0.4527
X2.5078Y-1.1614
X2.5078Y-1.8701
X2.5078Y-2.5787
X2.5078Y-3.2874
X2.5353Y-0.5275
X2.5353Y-1.2362
X2.5353Y-1.9449
X2.5353Y-2.6535
X2.5353Y-3.3622
X2.5531Y-0.3661
X2.5531Y-1.0748
X2.5531Y-1.7834
X2.5531Y-2.4921
X2.5531Y-3.2008
X2.6279Y-0.7303
X2.6279Y-1.439
X2.6279Y-2.1476
X2.6279Y-2.8563
X2.6279Y-3.5649
X2.6987Y-0.7716
X2.6987Y-1.4803
X2.6987Y-2.189
X2.6987Y-2.8976
X2.6987Y-3.6063
X2.7676Y-0.8051
X2.7676Y-1.5138
X2.7676Y-2.2224
X2.7676Y-2.9311
X2.7676Y-3.6397
X2.8267Y-0.4508
X2.8267Y-1.1594
X2.8267Y-1.8681
X2.8267Y-2.5767
X2.8267Y-3.2854
X2.8897Y-0.561
X2.8897Y-1.2697
X2.8897Y-1.9783
X2.8897Y-2.687
X2.8897Y-3.3956
X2.8975Y-0.7874
X2.8975Y-1.496
X2.8975Y-2.2047
X2.8975Y-2.9134
X2.8975Y-3.622
X2.8987Y-0.4063
X2.8987Y-1.1149
X2.8987Y-1.8236
X2.8987Y-2.5323
X2.8987Y-3.2409
X3.2164Y-0.4527
X3.2164Y-1.1614
X3.2164Y-1.8701
X3.2164Y-2.5787
X3.2164Y-3.2874
X3.244Y-0.5275
X3.244Y-1.2362
X3.244Y-1.9449
X3.244Y-2.6535
X3.244Y-3.3622
X3.2617Y-0.3661
X3.2617Y-1.0748
X3.2617Y-1.7834
X3.2617Y-2.4921
X3.2617Y-3.2008
X3.3365Y-0.7303
X3.3365Y-1.439
X3.3365Y-2.1476
X3.3365Y-2.8563
X3.3365Y-3.5649
X3.4074Y-0.7716
X3.4074Y-1.4803
X3.4074Y-2.189
X3.4074Y-2.8976
X3.4074Y-3.6063
X3.4763Y-0.8051
X3.4763Y-1.5138
X3.4763Y-2.2224
X3.4763Y-2.9311
X3.4763Y-3.6397
X3.5353Y-0.4508
X3.5353Y-1.1594
X3.5353Y-1.8681
X3.5353Y-2.5767
X3.5353Y-3.2854
X3.5983Y-0.561
X3.5983Y-1.2697
X3.5983Y-1.9783
X3.5983Y-2.687
X3.5983Y-3.3956
X3.6062Y-0.7874
X3.6062Y-1.496
X3.6062Y-2.2047
X3.6062Y-2.9134
X3.6062Y-3.622
X3.6074Y-0.4063
X3.6074Y-1.1149
X3.6074Y-1.8236
X3.6074Y-2.5323
X3.6074Y-3.2409
T2
X0.307Y-0.5905
X0.307Y-1.2992
X0.307Y-2.0078
X0.307Y-2.7165
X0.307Y-3.4252
X0.5905Y-0.3071
X0.5905Y-0.874
X0.5905Y-1.0157
X0.5905Y-1.5827
X0.5905Y-1.7244
X0.5905Y-2.2913
X0.5905Y-2.433
X0.5905Y-3.0
X0.5905Y-3.1417
X0.5905Y-3.7086
X0.8739Y-0.5905
X0.8739Y-1.2992
X0.8739Y-2.0078
X0.8739Y-2.7165
X0.8739Y-3.4252
X1.0157Y-0.5905
X1.0157Y-1.2992
X1.0157Y-2.0078
X1.0157Y-2.7165
X1.0157Y-3.4252
X1.2991Y-0.3071
X1.2991Y-0.874
X1.2991Y-1.0157
X1.2991Y-1.5827
X1.2991Y-1.7244
X1.2991Y-2.2913
X1.2991Y-2.433
X1.2991Y-3.0
X1.2991Y-3.1417
X1.2991Y-3.7086
X1.5826Y-0.5905
X1.5826Y-1.2992
X1.5826Y-2.0078
X1.5826Y-2.7165
X1.5826Y-3.4252
X1.7243Y-0.5905
X1.7243Y-1.2992
X1.7243Y-2.0078
X1.7243Y-2.7165
X1.7243Y-3.4252
X2.0078Y-0.3071
X2.0078Y-0.874
X2.0078Y-1.0157
X2.0078Y-1.5827
X2.0078Y-1.7244
X2.0078Y-2.2913
X2.0078Y-2.433
X2.0078Y-3.0
X2.0078Y-3.1417
X2.0078Y-3.7086
X2.2912Y-0.5905
X2.2912Y-1.2992
X2.2912Y-2.0078
X2.2912Y-2.7165
X2.2912Y-3.4252
X2.433Y-0.5905
X2.433Y-1.2992
X2.433Y-2.0078
X2.433Y-2.7165
X2.433Y-3.4252
X2.7164Y-0.3071
X2.7164Y-0.874
X2.7164Y-1.0157
X2.7164Y-1.5827
X2.7164Y-1.7244
X2.7164Y-2.2913
X2.7164Y-2.433
X2.7164Y-3.0
X2.7164Y-3.1417
X2.7164Y-3.7086
X2.9999Y-0.5905
X2.9999Y-1.2992
X2.9999Y-2.0078
X2.9999Y-2.7165
X2.9999Y-3.4252
X3.1416Y-0.5905
X3.1416Y-1.2992
X3.1416Y-2.0078
X3.1416Y-2.7165
X3.1416Y-3.4252
X3.4251Y-0.3071
X3.4251Y-0.874
X3.4251Y-1.0157
X3.4251Y-1.5827
X3.4251Y-1.7244
X3.4251Y-2.2913
X3.4251Y-2.433
X3.4251Y-3.0
X3.4251Y-3.1417
X3.4251Y-3.7086
X3.7086Y-0.5905
X3.7086Y-1.2992
X3.7086Y-2.0078
X3.7086Y-2.7165
X3.7086Y-3.4252
T0
M30
