%TF.GenerationSoftware,KiCad,Pcbnew,7.0.7-7.0.7~ubuntu20.04.1*%
%TF.CreationDate,2023-08-22T16:04:55-04:00*%
%TF.ProjectId,bno08x-i2c-board-v6-large-crystal-panel,626e6f30-3878-42d6-9932-632d626f6172,rev?*%
%TF.SameCoordinates,Original*%
%TF.FileFunction,Paste,Top*%
%TF.FilePolarity,Positive*%
%FSLAX46Y46*%
G04 Gerber Fmt 4.6, Leading zero omitted, Abs format (unit mm)*
G04 Created by KiCad (PCBNEW 7.0.7-7.0.7~ubuntu20.04.1) date 2023-08-22 16:04:55*
%MOMM*%
%LPD*%
G01*
G04 APERTURE LIST*
G04 Aperture macros list*
%AMRoundRect*
0 Rectangle with rounded corners*
0 $1 Rounding radius*
0 $2 $3 $4 $5 $6 $7 $8 $9 X,Y pos of 4 corners*
0 Add a 4 corners polygon primitive as box body*
4,1,4,$2,$3,$4,$5,$6,$7,$8,$9,$2,$3,0*
0 Add four circle primitives for the rounded corners*
1,1,$1+$1,$2,$3*
1,1,$1+$1,$4,$5*
1,1,$1+$1,$6,$7*
1,1,$1+$1,$8,$9*
0 Add four rect primitives between the rounded corners*
20,1,$1+$1,$2,$3,$4,$5,0*
20,1,$1+$1,$4,$5,$6,$7,0*
20,1,$1+$1,$6,$7,$8,$9,0*
20,1,$1+$1,$8,$9,$2,$3,0*%
G04 Aperture macros list end*
%ADD10RoundRect,0.135000X-0.185000X0.135000X-0.185000X-0.135000X0.185000X-0.135000X0.185000X0.135000X0*%
%ADD11R,0.254000X0.975000*%
%ADD12R,0.950000X0.254000*%
%ADD13RoundRect,0.135000X0.135000X0.185000X-0.135000X0.185000X-0.135000X-0.185000X0.135000X-0.185000X0*%
%ADD14RoundRect,0.140000X-0.140000X-0.170000X0.140000X-0.170000X0.140000X0.170000X-0.140000X0.170000X0*%
%ADD15RoundRect,0.135000X0.185000X-0.135000X0.185000X0.135000X-0.185000X0.135000X-0.185000X-0.135000X0*%
%ADD16R,0.600000X1.200000*%
%ADD17RoundRect,0.135000X-0.135000X-0.185000X0.135000X-0.185000X0.135000X0.185000X-0.135000X0.185000X0*%
%ADD18RoundRect,0.140000X0.140000X0.170000X-0.140000X0.170000X-0.140000X-0.170000X0.140000X-0.170000X0*%
%ADD19RoundRect,0.140000X0.170000X-0.140000X0.170000X0.140000X-0.170000X0.140000X-0.170000X-0.140000X0*%
%ADD20C,4.000000*%
G04 APERTURE END LIST*
D10*
%TO.C,R2*%
X39797552Y-16489388D03*
X39797552Y-17509388D03*
%TD*%
D11*
%TO.C,U1*%
X30747552Y-67186888D03*
D12*
X30472552Y-68249388D03*
X30472552Y-68749388D03*
X30472552Y-69249388D03*
X30472552Y-69749388D03*
D11*
X30747552Y-70811888D03*
X32247552Y-70811888D03*
X32747552Y-70811888D03*
X35247552Y-70811888D03*
D12*
X35522552Y-69749388D03*
X35522552Y-69249388D03*
X35522552Y-68249388D03*
D11*
X35247552Y-67186888D03*
X32747552Y-67186888D03*
X32247552Y-67186888D03*
X31747552Y-67186888D03*
X31247552Y-67186888D03*
%TD*%
D10*
%TO.C,R2*%
X21797552Y-16489388D03*
X21797552Y-17509388D03*
%TD*%
D13*
%TO.C,R5*%
X53657552Y-44199388D03*
X52637552Y-44199388D03*
%TD*%
D14*
%TO.C,C4*%
X12367552Y-8199388D03*
X13327552Y-8199388D03*
%TD*%
%TO.C,C4*%
X84367552Y-44199388D03*
X85327552Y-44199388D03*
%TD*%
%TO.C,C4*%
X84367552Y-8199388D03*
X85327552Y-8199388D03*
%TD*%
%TO.C,C5*%
X52667552Y-82399388D03*
X53627552Y-82399388D03*
%TD*%
%TO.C,C4*%
X48367552Y-8199388D03*
X49327552Y-8199388D03*
%TD*%
D11*
%TO.C,U1*%
X48747552Y-49186888D03*
D12*
X48472552Y-50249388D03*
X48472552Y-50749388D03*
X48472552Y-51249388D03*
X48472552Y-51749388D03*
D11*
X48747552Y-52811888D03*
X50247552Y-52811888D03*
X50747552Y-52811888D03*
X53247552Y-52811888D03*
D12*
X53522552Y-51749388D03*
X53522552Y-51249388D03*
X53522552Y-50249388D03*
D11*
X53247552Y-49186888D03*
X50747552Y-49186888D03*
X50247552Y-49186888D03*
X49747552Y-49186888D03*
X49247552Y-49186888D03*
%TD*%
D15*
%TO.C,R4*%
X26197552Y-89509388D03*
X26197552Y-88489388D03*
%TD*%
D16*
%TO.C,Y1*%
X86397552Y-64849388D03*
X87597552Y-64849388D03*
%TD*%
D15*
%TO.C,R3*%
X57797552Y-31509388D03*
X57797552Y-30489388D03*
%TD*%
D17*
%TO.C,R1*%
X34637552Y-75799388D03*
X35657552Y-75799388D03*
%TD*%
D14*
%TO.C,C4*%
X48367552Y-80199388D03*
X49327552Y-80199388D03*
%TD*%
D13*
%TO.C,R5*%
X71657552Y-62199388D03*
X70637552Y-62199388D03*
%TD*%
D14*
%TO.C,C4*%
X84367552Y-80199388D03*
X85327552Y-80199388D03*
%TD*%
%TO.C,C5*%
X88667552Y-28399388D03*
X89627552Y-28399388D03*
%TD*%
D15*
%TO.C,R4*%
X26197552Y-35509388D03*
X26197552Y-34489388D03*
%TD*%
D14*
%TO.C,C4*%
X66367552Y-44199388D03*
X67327552Y-44199388D03*
%TD*%
%TO.C,C1*%
X12387552Y-39799388D03*
X13347552Y-39799388D03*
%TD*%
D11*
%TO.C,U1*%
X12747552Y-13186888D03*
D12*
X12472552Y-14249388D03*
X12472552Y-14749388D03*
X12472552Y-15249388D03*
X12472552Y-15749388D03*
D11*
X12747552Y-16811888D03*
X14247552Y-16811888D03*
X14747552Y-16811888D03*
X17247552Y-16811888D03*
D12*
X17522552Y-15749388D03*
X17522552Y-15249388D03*
X17522552Y-14249388D03*
D11*
X17247552Y-13186888D03*
X14747552Y-13186888D03*
X14247552Y-13186888D03*
X13747552Y-13186888D03*
X13247552Y-13186888D03*
%TD*%
D15*
%TO.C,R4*%
X8197552Y-89509388D03*
X8197552Y-88489388D03*
%TD*%
D13*
%TO.C,R5*%
X53657552Y-80199388D03*
X52637552Y-80199388D03*
%TD*%
D16*
%TO.C,Y1*%
X68397552Y-64849388D03*
X69597552Y-64849388D03*
%TD*%
D18*
%TO.C,C3*%
X67327552Y-28399388D03*
X66367552Y-28399388D03*
%TD*%
D17*
%TO.C,R1*%
X16637552Y-75799388D03*
X17657552Y-75799388D03*
%TD*%
D13*
%TO.C,R5*%
X89657552Y-26199388D03*
X88637552Y-26199388D03*
%TD*%
D16*
%TO.C,Y1*%
X32397552Y-64849388D03*
X33597552Y-64849388D03*
%TD*%
%TO.C,Y1*%
X50397552Y-82849388D03*
X51597552Y-82849388D03*
%TD*%
D14*
%TO.C,C4*%
X84367552Y-26199388D03*
X85327552Y-26199388D03*
%TD*%
D13*
%TO.C,R5*%
X71657552Y-44199388D03*
X70637552Y-44199388D03*
%TD*%
%TO.C,R5*%
X35657552Y-44199388D03*
X34637552Y-44199388D03*
%TD*%
D18*
%TO.C,C3*%
X85327552Y-64399388D03*
X84367552Y-64399388D03*
%TD*%
D11*
%TO.C,U1*%
X84747552Y-13186888D03*
D12*
X84472552Y-14249388D03*
X84472552Y-14749388D03*
X84472552Y-15249388D03*
X84472552Y-15749388D03*
D11*
X84747552Y-16811888D03*
X86247552Y-16811888D03*
X86747552Y-16811888D03*
X89247552Y-16811888D03*
D12*
X89522552Y-15749388D03*
X89522552Y-15249388D03*
X89522552Y-14249388D03*
D11*
X89247552Y-13186888D03*
X86747552Y-13186888D03*
X86247552Y-13186888D03*
X85747552Y-13186888D03*
X85247552Y-13186888D03*
%TD*%
%TO.C,U1*%
X30747552Y-31186888D03*
D12*
X30472552Y-32249388D03*
X30472552Y-32749388D03*
X30472552Y-33249388D03*
X30472552Y-33749388D03*
D11*
X30747552Y-34811888D03*
X32247552Y-34811888D03*
X32747552Y-34811888D03*
X35247552Y-34811888D03*
D12*
X35522552Y-33749388D03*
X35522552Y-33249388D03*
X35522552Y-32249388D03*
D11*
X35247552Y-31186888D03*
X32747552Y-31186888D03*
X32247552Y-31186888D03*
X31747552Y-31186888D03*
X31247552Y-31186888D03*
%TD*%
D15*
%TO.C,R4*%
X62197552Y-35509388D03*
X62197552Y-34489388D03*
%TD*%
D10*
%TO.C,R2*%
X93797552Y-88489388D03*
X93797552Y-89509388D03*
%TD*%
D19*
%TO.C,C2*%
X8197552Y-49479388D03*
X8197552Y-48519388D03*
%TD*%
D17*
%TO.C,R1*%
X52637552Y-93799388D03*
X53657552Y-93799388D03*
%TD*%
D19*
%TO.C,C2*%
X62197552Y-85479388D03*
X62197552Y-84519388D03*
%TD*%
D14*
%TO.C,C4*%
X30367552Y-44199388D03*
X31327552Y-44199388D03*
%TD*%
D16*
%TO.C,Y1*%
X32397552Y-10849388D03*
X33597552Y-10849388D03*
%TD*%
D15*
%TO.C,R3*%
X75797552Y-49509388D03*
X75797552Y-48489388D03*
%TD*%
D14*
%TO.C,C1*%
X84387552Y-21799388D03*
X85347552Y-21799388D03*
%TD*%
D15*
%TO.C,R3*%
X57797552Y-13509388D03*
X57797552Y-12489388D03*
%TD*%
D17*
%TO.C,R1*%
X70637552Y-93799388D03*
X71657552Y-93799388D03*
%TD*%
D14*
%TO.C,C5*%
X16667552Y-46399388D03*
X17627552Y-46399388D03*
%TD*%
%TO.C,C4*%
X66367552Y-80199388D03*
X67327552Y-80199388D03*
%TD*%
D10*
%TO.C,R2*%
X39797552Y-52489388D03*
X39797552Y-53509388D03*
%TD*%
D15*
%TO.C,R4*%
X44197552Y-89509388D03*
X44197552Y-88489388D03*
%TD*%
D16*
%TO.C,Y1*%
X86397552Y-10849388D03*
X87597552Y-10849388D03*
%TD*%
D19*
%TO.C,C2*%
X62197552Y-13479388D03*
X62197552Y-12519388D03*
%TD*%
D18*
%TO.C,C3*%
X13327552Y-28399388D03*
X12367552Y-28399388D03*
%TD*%
%TO.C,C3*%
X49327552Y-28399388D03*
X48367552Y-28399388D03*
%TD*%
%TO.C,C3*%
X67327552Y-10399388D03*
X66367552Y-10399388D03*
%TD*%
D11*
%TO.C,U1*%
X84747552Y-67186888D03*
D12*
X84472552Y-68249388D03*
X84472552Y-68749388D03*
X84472552Y-69249388D03*
X84472552Y-69749388D03*
D11*
X84747552Y-70811888D03*
X86247552Y-70811888D03*
X86747552Y-70811888D03*
X89247552Y-70811888D03*
D12*
X89522552Y-69749388D03*
X89522552Y-69249388D03*
X89522552Y-68249388D03*
D11*
X89247552Y-67186888D03*
X86747552Y-67186888D03*
X86247552Y-67186888D03*
X85747552Y-67186888D03*
X85247552Y-67186888D03*
%TD*%
D19*
%TO.C,C2*%
X8197552Y-85479388D03*
X8197552Y-84519388D03*
%TD*%
D16*
%TO.C,Y1*%
X14397552Y-28849388D03*
X15597552Y-28849388D03*
%TD*%
D18*
%TO.C,C3*%
X13327552Y-82399388D03*
X12367552Y-82399388D03*
%TD*%
D15*
%TO.C,R4*%
X62197552Y-71509388D03*
X62197552Y-70489388D03*
%TD*%
D17*
%TO.C,R1*%
X52637552Y-39799388D03*
X53657552Y-39799388D03*
%TD*%
%TO.C,R1*%
X70637552Y-75799388D03*
X71657552Y-75799388D03*
%TD*%
D15*
%TO.C,R3*%
X39797552Y-13509388D03*
X39797552Y-12489388D03*
%TD*%
D14*
%TO.C,C1*%
X84387552Y-57799388D03*
X85347552Y-57799388D03*
%TD*%
D11*
%TO.C,U1*%
X84747552Y-85186888D03*
D12*
X84472552Y-86249388D03*
X84472552Y-86749388D03*
X84472552Y-87249388D03*
X84472552Y-87749388D03*
D11*
X84747552Y-88811888D03*
X86247552Y-88811888D03*
X86747552Y-88811888D03*
X89247552Y-88811888D03*
D12*
X89522552Y-87749388D03*
X89522552Y-87249388D03*
X89522552Y-86249388D03*
D11*
X89247552Y-85186888D03*
X86747552Y-85186888D03*
X86247552Y-85186888D03*
X85747552Y-85186888D03*
X85247552Y-85186888D03*
%TD*%
D16*
%TO.C,Y1*%
X32397552Y-28849388D03*
X33597552Y-28849388D03*
%TD*%
D15*
%TO.C,R3*%
X93797552Y-49509388D03*
X93797552Y-48489388D03*
%TD*%
D18*
%TO.C,C3*%
X31327552Y-10399388D03*
X30367552Y-10399388D03*
%TD*%
D13*
%TO.C,R5*%
X53657552Y-26199388D03*
X52637552Y-26199388D03*
%TD*%
D14*
%TO.C,C1*%
X12387552Y-21799388D03*
X13347552Y-21799388D03*
%TD*%
D15*
%TO.C,R3*%
X93797552Y-31509388D03*
X93797552Y-30489388D03*
%TD*%
%TO.C,R4*%
X80197552Y-71509388D03*
X80197552Y-70489388D03*
%TD*%
D19*
%TO.C,C2*%
X80197552Y-13479388D03*
X80197552Y-12519388D03*
%TD*%
D14*
%TO.C,C5*%
X70667552Y-10399388D03*
X71627552Y-10399388D03*
%TD*%
D11*
%TO.C,U1*%
X48747552Y-13186888D03*
D12*
X48472552Y-14249388D03*
X48472552Y-14749388D03*
X48472552Y-15249388D03*
X48472552Y-15749388D03*
D11*
X48747552Y-16811888D03*
X50247552Y-16811888D03*
X50747552Y-16811888D03*
X53247552Y-16811888D03*
D12*
X53522552Y-15749388D03*
X53522552Y-15249388D03*
X53522552Y-14249388D03*
D11*
X53247552Y-13186888D03*
X50747552Y-13186888D03*
X50247552Y-13186888D03*
X49747552Y-13186888D03*
X49247552Y-13186888D03*
%TD*%
D16*
%TO.C,Y1*%
X14397552Y-46849388D03*
X15597552Y-46849388D03*
%TD*%
D18*
%TO.C,C3*%
X85327552Y-10399388D03*
X84367552Y-10399388D03*
%TD*%
D15*
%TO.C,R4*%
X62197552Y-17509388D03*
X62197552Y-16489388D03*
%TD*%
D17*
%TO.C,R1*%
X34637552Y-93799388D03*
X35657552Y-93799388D03*
%TD*%
D10*
%TO.C,R2*%
X39797552Y-70489388D03*
X39797552Y-71509388D03*
%TD*%
D15*
%TO.C,R4*%
X8197552Y-71509388D03*
X8197552Y-70489388D03*
%TD*%
D14*
%TO.C,C5*%
X52667552Y-64399388D03*
X53627552Y-64399388D03*
%TD*%
D20*
%TO.C,REF\u002A\u002A*%
X99497552Y-2500000D03*
%TD*%
D14*
%TO.C,C4*%
X66367552Y-62199388D03*
X67327552Y-62199388D03*
%TD*%
D16*
%TO.C,Y1*%
X50397552Y-46849388D03*
X51597552Y-46849388D03*
%TD*%
D13*
%TO.C,R5*%
X35657552Y-26199388D03*
X34637552Y-26199388D03*
%TD*%
D15*
%TO.C,R3*%
X39797552Y-31509388D03*
X39797552Y-30489388D03*
%TD*%
D13*
%TO.C,R5*%
X17657552Y-44199388D03*
X16637552Y-44199388D03*
%TD*%
D11*
%TO.C,U1*%
X30747552Y-49186888D03*
D12*
X30472552Y-50249388D03*
X30472552Y-50749388D03*
X30472552Y-51249388D03*
X30472552Y-51749388D03*
D11*
X30747552Y-52811888D03*
X32247552Y-52811888D03*
X32747552Y-52811888D03*
X35247552Y-52811888D03*
D12*
X35522552Y-51749388D03*
X35522552Y-51249388D03*
X35522552Y-50249388D03*
D11*
X35247552Y-49186888D03*
X32747552Y-49186888D03*
X32247552Y-49186888D03*
X31747552Y-49186888D03*
X31247552Y-49186888D03*
%TD*%
D14*
%TO.C,C5*%
X70667552Y-46399388D03*
X71627552Y-46399388D03*
%TD*%
%TO.C,C1*%
X66387552Y-39799388D03*
X67347552Y-39799388D03*
%TD*%
D10*
%TO.C,R2*%
X57797552Y-88489388D03*
X57797552Y-89509388D03*
%TD*%
D14*
%TO.C,C1*%
X12387552Y-57799388D03*
X13347552Y-57799388D03*
%TD*%
D16*
%TO.C,Y1*%
X68397552Y-46849388D03*
X69597552Y-46849388D03*
%TD*%
D14*
%TO.C,C5*%
X88667552Y-10399388D03*
X89627552Y-10399388D03*
%TD*%
D11*
%TO.C,U1*%
X66747552Y-49186888D03*
D12*
X66472552Y-50249388D03*
X66472552Y-50749388D03*
X66472552Y-51249388D03*
X66472552Y-51749388D03*
D11*
X66747552Y-52811888D03*
X68247552Y-52811888D03*
X68747552Y-52811888D03*
X71247552Y-52811888D03*
D12*
X71522552Y-51749388D03*
X71522552Y-51249388D03*
X71522552Y-50249388D03*
D11*
X71247552Y-49186888D03*
X68747552Y-49186888D03*
X68247552Y-49186888D03*
X67747552Y-49186888D03*
X67247552Y-49186888D03*
%TD*%
D14*
%TO.C,C4*%
X12367552Y-44199388D03*
X13327552Y-44199388D03*
%TD*%
%TO.C,C5*%
X34667552Y-64399388D03*
X35627552Y-64399388D03*
%TD*%
D11*
%TO.C,U1*%
X48747552Y-31186888D03*
D12*
X48472552Y-32249388D03*
X48472552Y-32749388D03*
X48472552Y-33249388D03*
X48472552Y-33749388D03*
D11*
X48747552Y-34811888D03*
X50247552Y-34811888D03*
X50747552Y-34811888D03*
X53247552Y-34811888D03*
D12*
X53522552Y-33749388D03*
X53522552Y-33249388D03*
X53522552Y-32249388D03*
D11*
X53247552Y-31186888D03*
X50747552Y-31186888D03*
X50247552Y-31186888D03*
X49747552Y-31186888D03*
X49247552Y-31186888D03*
%TD*%
D17*
%TO.C,R1*%
X16637552Y-93799388D03*
X17657552Y-93799388D03*
%TD*%
D15*
%TO.C,R4*%
X8197552Y-35509388D03*
X8197552Y-34489388D03*
%TD*%
D17*
%TO.C,R1*%
X70637552Y-21799388D03*
X71657552Y-21799388D03*
%TD*%
D19*
%TO.C,C2*%
X26197552Y-67479388D03*
X26197552Y-66519388D03*
%TD*%
D18*
%TO.C,C3*%
X67327552Y-64399388D03*
X66367552Y-64399388D03*
%TD*%
D14*
%TO.C,C1*%
X84387552Y-39799388D03*
X85347552Y-39799388D03*
%TD*%
%TO.C,C4*%
X12367552Y-80199388D03*
X13327552Y-80199388D03*
%TD*%
D13*
%TO.C,R5*%
X17657552Y-26199388D03*
X16637552Y-26199388D03*
%TD*%
D14*
%TO.C,C5*%
X34667552Y-10399388D03*
X35627552Y-10399388D03*
%TD*%
D11*
%TO.C,U1*%
X12747552Y-67186888D03*
D12*
X12472552Y-68249388D03*
X12472552Y-68749388D03*
X12472552Y-69249388D03*
X12472552Y-69749388D03*
D11*
X12747552Y-70811888D03*
X14247552Y-70811888D03*
X14747552Y-70811888D03*
X17247552Y-70811888D03*
D12*
X17522552Y-69749388D03*
X17522552Y-69249388D03*
X17522552Y-68249388D03*
D11*
X17247552Y-67186888D03*
X14747552Y-67186888D03*
X14247552Y-67186888D03*
X13747552Y-67186888D03*
X13247552Y-67186888D03*
%TD*%
D13*
%TO.C,R5*%
X35657552Y-80199388D03*
X34637552Y-80199388D03*
%TD*%
D11*
%TO.C,U1*%
X66747552Y-85186888D03*
D12*
X66472552Y-86249388D03*
X66472552Y-86749388D03*
X66472552Y-87249388D03*
X66472552Y-87749388D03*
D11*
X66747552Y-88811888D03*
X68247552Y-88811888D03*
X68747552Y-88811888D03*
X71247552Y-88811888D03*
D12*
X71522552Y-87749388D03*
X71522552Y-87249388D03*
X71522552Y-86249388D03*
D11*
X71247552Y-85186888D03*
X68747552Y-85186888D03*
X68247552Y-85186888D03*
X67747552Y-85186888D03*
X67247552Y-85186888D03*
%TD*%
%TO.C,U1*%
X66747552Y-67186888D03*
D12*
X66472552Y-68249388D03*
X66472552Y-68749388D03*
X66472552Y-69249388D03*
X66472552Y-69749388D03*
D11*
X66747552Y-70811888D03*
X68247552Y-70811888D03*
X68747552Y-70811888D03*
X71247552Y-70811888D03*
D12*
X71522552Y-69749388D03*
X71522552Y-69249388D03*
X71522552Y-68249388D03*
D11*
X71247552Y-67186888D03*
X68747552Y-67186888D03*
X68247552Y-67186888D03*
X67747552Y-67186888D03*
X67247552Y-67186888D03*
%TD*%
D15*
%TO.C,R3*%
X39797552Y-49509388D03*
X39797552Y-48489388D03*
%TD*%
D16*
%TO.C,Y1*%
X50397552Y-10849388D03*
X51597552Y-10849388D03*
%TD*%
D14*
%TO.C,C1*%
X30387552Y-39799388D03*
X31347552Y-39799388D03*
%TD*%
D11*
%TO.C,U1*%
X84747552Y-31186888D03*
D12*
X84472552Y-32249388D03*
X84472552Y-32749388D03*
X84472552Y-33249388D03*
X84472552Y-33749388D03*
D11*
X84747552Y-34811888D03*
X86247552Y-34811888D03*
X86747552Y-34811888D03*
X89247552Y-34811888D03*
D12*
X89522552Y-33749388D03*
X89522552Y-33249388D03*
X89522552Y-32249388D03*
D11*
X89247552Y-31186888D03*
X86747552Y-31186888D03*
X86247552Y-31186888D03*
X85747552Y-31186888D03*
X85247552Y-31186888D03*
%TD*%
D15*
%TO.C,R3*%
X75797552Y-13509388D03*
X75797552Y-12489388D03*
%TD*%
D18*
%TO.C,C3*%
X13327552Y-46399388D03*
X12367552Y-46399388D03*
%TD*%
D10*
%TO.C,R2*%
X21797552Y-70489388D03*
X21797552Y-71509388D03*
%TD*%
%TO.C,R2*%
X75797552Y-34489388D03*
X75797552Y-35509388D03*
%TD*%
D17*
%TO.C,R1*%
X34637552Y-57799388D03*
X35657552Y-57799388D03*
%TD*%
D19*
%TO.C,C2*%
X8197552Y-31479388D03*
X8197552Y-30519388D03*
%TD*%
D10*
%TO.C,R2*%
X57797552Y-34489388D03*
X57797552Y-35509388D03*
%TD*%
D14*
%TO.C,C5*%
X34667552Y-82399388D03*
X35627552Y-82399388D03*
%TD*%
%TO.C,C1*%
X48387552Y-75799388D03*
X49347552Y-75799388D03*
%TD*%
%TO.C,C4*%
X30367552Y-8199388D03*
X31327552Y-8199388D03*
%TD*%
D15*
%TO.C,R4*%
X44197552Y-17509388D03*
X44197552Y-16489388D03*
%TD*%
D10*
%TO.C,R2*%
X39797552Y-34489388D03*
X39797552Y-35509388D03*
%TD*%
D19*
%TO.C,C2*%
X80197552Y-31479388D03*
X80197552Y-30519388D03*
%TD*%
%TO.C,C2*%
X80197552Y-67479388D03*
X80197552Y-66519388D03*
%TD*%
D14*
%TO.C,C1*%
X48387552Y-93799388D03*
X49347552Y-93799388D03*
%TD*%
D11*
%TO.C,U1*%
X30747552Y-13186888D03*
D12*
X30472552Y-14249388D03*
X30472552Y-14749388D03*
X30472552Y-15249388D03*
X30472552Y-15749388D03*
D11*
X30747552Y-16811888D03*
X32247552Y-16811888D03*
X32747552Y-16811888D03*
X35247552Y-16811888D03*
D12*
X35522552Y-15749388D03*
X35522552Y-15249388D03*
X35522552Y-14249388D03*
D11*
X35247552Y-13186888D03*
X32747552Y-13186888D03*
X32247552Y-13186888D03*
X31747552Y-13186888D03*
X31247552Y-13186888D03*
%TD*%
D13*
%TO.C,R5*%
X71657552Y-26199388D03*
X70637552Y-26199388D03*
%TD*%
D18*
%TO.C,C3*%
X85327552Y-82399388D03*
X84367552Y-82399388D03*
%TD*%
D19*
%TO.C,C2*%
X26197552Y-85479388D03*
X26197552Y-84519388D03*
%TD*%
D17*
%TO.C,R1*%
X52637552Y-57799388D03*
X53657552Y-57799388D03*
%TD*%
D11*
%TO.C,U1*%
X12747552Y-31186888D03*
D12*
X12472552Y-32249388D03*
X12472552Y-32749388D03*
X12472552Y-33249388D03*
X12472552Y-33749388D03*
D11*
X12747552Y-34811888D03*
X14247552Y-34811888D03*
X14747552Y-34811888D03*
X17247552Y-34811888D03*
D12*
X17522552Y-33749388D03*
X17522552Y-33249388D03*
X17522552Y-32249388D03*
D11*
X17247552Y-31186888D03*
X14747552Y-31186888D03*
X14247552Y-31186888D03*
X13747552Y-31186888D03*
X13247552Y-31186888D03*
%TD*%
D13*
%TO.C,R5*%
X35657552Y-62199388D03*
X34637552Y-62199388D03*
%TD*%
%TO.C,R5*%
X71657552Y-8199388D03*
X70637552Y-8199388D03*
%TD*%
D15*
%TO.C,R3*%
X21797552Y-67509388D03*
X21797552Y-66489388D03*
%TD*%
%TO.C,R3*%
X93797552Y-85509388D03*
X93797552Y-84489388D03*
%TD*%
D14*
%TO.C,C5*%
X16667552Y-10399388D03*
X17627552Y-10399388D03*
%TD*%
D18*
%TO.C,C3*%
X13327552Y-10399388D03*
X12367552Y-10399388D03*
%TD*%
D11*
%TO.C,U1*%
X48747552Y-85186888D03*
D12*
X48472552Y-86249388D03*
X48472552Y-86749388D03*
X48472552Y-87249388D03*
X48472552Y-87749388D03*
D11*
X48747552Y-88811888D03*
X50247552Y-88811888D03*
X50747552Y-88811888D03*
X53247552Y-88811888D03*
D12*
X53522552Y-87749388D03*
X53522552Y-87249388D03*
X53522552Y-86249388D03*
D11*
X53247552Y-85186888D03*
X50747552Y-85186888D03*
X50247552Y-85186888D03*
X49747552Y-85186888D03*
X49247552Y-85186888D03*
%TD*%
D14*
%TO.C,C4*%
X66367552Y-26199388D03*
X67327552Y-26199388D03*
%TD*%
D15*
%TO.C,R3*%
X21797552Y-13509388D03*
X21797552Y-12489388D03*
%TD*%
D13*
%TO.C,R5*%
X35657552Y-8199388D03*
X34637552Y-8199388D03*
%TD*%
D15*
%TO.C,R4*%
X80197552Y-35509388D03*
X80197552Y-34489388D03*
%TD*%
D11*
%TO.C,U1*%
X12747552Y-49186888D03*
D12*
X12472552Y-50249388D03*
X12472552Y-50749388D03*
X12472552Y-51249388D03*
X12472552Y-51749388D03*
D11*
X12747552Y-52811888D03*
X14247552Y-52811888D03*
X14747552Y-52811888D03*
X17247552Y-52811888D03*
D12*
X17522552Y-51749388D03*
X17522552Y-51249388D03*
X17522552Y-50249388D03*
D11*
X17247552Y-49186888D03*
X14747552Y-49186888D03*
X14247552Y-49186888D03*
X13747552Y-49186888D03*
X13247552Y-49186888D03*
%TD*%
D16*
%TO.C,Y1*%
X68397552Y-82849388D03*
X69597552Y-82849388D03*
%TD*%
D18*
%TO.C,C3*%
X13327552Y-64399388D03*
X12367552Y-64399388D03*
%TD*%
D14*
%TO.C,C4*%
X48367552Y-26199388D03*
X49327552Y-26199388D03*
%TD*%
D15*
%TO.C,R3*%
X21797552Y-49509388D03*
X21797552Y-48489388D03*
%TD*%
D13*
%TO.C,R5*%
X89657552Y-80199388D03*
X88637552Y-80199388D03*
%TD*%
D14*
%TO.C,C5*%
X34667552Y-28399388D03*
X35627552Y-28399388D03*
%TD*%
D13*
%TO.C,R5*%
X53657552Y-8199388D03*
X52637552Y-8199388D03*
%TD*%
D17*
%TO.C,R1*%
X52637552Y-75799388D03*
X53657552Y-75799388D03*
%TD*%
D15*
%TO.C,R4*%
X80197552Y-89509388D03*
X80197552Y-88489388D03*
%TD*%
D14*
%TO.C,C5*%
X16667552Y-82399388D03*
X17627552Y-82399388D03*
%TD*%
%TO.C,C1*%
X84387552Y-93799388D03*
X85347552Y-93799388D03*
%TD*%
D18*
%TO.C,C3*%
X67327552Y-82399388D03*
X66367552Y-82399388D03*
%TD*%
D17*
%TO.C,R1*%
X88637552Y-39799388D03*
X89657552Y-39799388D03*
%TD*%
D11*
%TO.C,U1*%
X12747552Y-85186888D03*
D12*
X12472552Y-86249388D03*
X12472552Y-86749388D03*
X12472552Y-87249388D03*
X12472552Y-87749388D03*
D11*
X12747552Y-88811888D03*
X14247552Y-88811888D03*
X14747552Y-88811888D03*
X17247552Y-88811888D03*
D12*
X17522552Y-87749388D03*
X17522552Y-87249388D03*
X17522552Y-86249388D03*
D11*
X17247552Y-85186888D03*
X14747552Y-85186888D03*
X14247552Y-85186888D03*
X13747552Y-85186888D03*
X13247552Y-85186888D03*
%TD*%
D18*
%TO.C,C3*%
X31327552Y-28399388D03*
X30367552Y-28399388D03*
%TD*%
D10*
%TO.C,R2*%
X57797552Y-70489388D03*
X57797552Y-71509388D03*
%TD*%
D14*
%TO.C,C5*%
X52667552Y-46399388D03*
X53627552Y-46399388D03*
%TD*%
D10*
%TO.C,R2*%
X93797552Y-34489388D03*
X93797552Y-35509388D03*
%TD*%
%TO.C,R2*%
X21797552Y-88489388D03*
X21797552Y-89509388D03*
%TD*%
D15*
%TO.C,R3*%
X39797552Y-67509388D03*
X39797552Y-66489388D03*
%TD*%
D18*
%TO.C,C3*%
X49327552Y-82399388D03*
X48367552Y-82399388D03*
%TD*%
D14*
%TO.C,C4*%
X30367552Y-26199388D03*
X31327552Y-26199388D03*
%TD*%
%TO.C,C4*%
X48367552Y-44199388D03*
X49327552Y-44199388D03*
%TD*%
D10*
%TO.C,R2*%
X21797552Y-34489388D03*
X21797552Y-35509388D03*
%TD*%
D16*
%TO.C,Y1*%
X68397552Y-28849388D03*
X69597552Y-28849388D03*
%TD*%
%TO.C,Y1*%
X86397552Y-28849388D03*
X87597552Y-28849388D03*
%TD*%
D10*
%TO.C,R2*%
X21797552Y-52489388D03*
X21797552Y-53509388D03*
%TD*%
D16*
%TO.C,Y1*%
X14397552Y-10849388D03*
X15597552Y-10849388D03*
%TD*%
D14*
%TO.C,C1*%
X66387552Y-21799388D03*
X67347552Y-21799388D03*
%TD*%
D15*
%TO.C,R4*%
X8197552Y-17509388D03*
X8197552Y-16489388D03*
%TD*%
D17*
%TO.C,R1*%
X16637552Y-21799388D03*
X17657552Y-21799388D03*
%TD*%
D15*
%TO.C,R3*%
X75797552Y-85509388D03*
X75797552Y-84489388D03*
%TD*%
D18*
%TO.C,C3*%
X67327552Y-46399388D03*
X66367552Y-46399388D03*
%TD*%
D20*
%TO.C,REF\u002A\u002A*%
X2500000Y-2500000D03*
%TD*%
D10*
%TO.C,R2*%
X93797552Y-52489388D03*
X93797552Y-53509388D03*
%TD*%
D13*
%TO.C,R5*%
X17657552Y-62199388D03*
X16637552Y-62199388D03*
%TD*%
D15*
%TO.C,R4*%
X62197552Y-89509388D03*
X62197552Y-88489388D03*
%TD*%
D17*
%TO.C,R1*%
X88637552Y-75799388D03*
X89657552Y-75799388D03*
%TD*%
D19*
%TO.C,C2*%
X80197552Y-49479388D03*
X80197552Y-48519388D03*
%TD*%
D14*
%TO.C,C1*%
X30387552Y-57799388D03*
X31347552Y-57799388D03*
%TD*%
D15*
%TO.C,R3*%
X57797552Y-49509388D03*
X57797552Y-48489388D03*
%TD*%
D14*
%TO.C,C1*%
X84387552Y-75799388D03*
X85347552Y-75799388D03*
%TD*%
D11*
%TO.C,U1*%
X48747552Y-67186888D03*
D12*
X48472552Y-68249388D03*
X48472552Y-68749388D03*
X48472552Y-69249388D03*
X48472552Y-69749388D03*
D11*
X48747552Y-70811888D03*
X50247552Y-70811888D03*
X50747552Y-70811888D03*
X53247552Y-70811888D03*
D12*
X53522552Y-69749388D03*
X53522552Y-69249388D03*
X53522552Y-68249388D03*
D11*
X53247552Y-67186888D03*
X50747552Y-67186888D03*
X50247552Y-67186888D03*
X49747552Y-67186888D03*
X49247552Y-67186888D03*
%TD*%
D16*
%TO.C,Y1*%
X68397552Y-10849388D03*
X69597552Y-10849388D03*
%TD*%
D19*
%TO.C,C2*%
X44197552Y-85479388D03*
X44197552Y-84519388D03*
%TD*%
D14*
%TO.C,C4*%
X30367552Y-62199388D03*
X31327552Y-62199388D03*
%TD*%
D16*
%TO.C,Y1*%
X86397552Y-46849388D03*
X87597552Y-46849388D03*
%TD*%
D17*
%TO.C,R1*%
X34637552Y-39799388D03*
X35657552Y-39799388D03*
%TD*%
D19*
%TO.C,C2*%
X62197552Y-49479388D03*
X62197552Y-48519388D03*
%TD*%
D16*
%TO.C,Y1*%
X32397552Y-82849388D03*
X33597552Y-82849388D03*
%TD*%
D18*
%TO.C,C3*%
X49327552Y-64399388D03*
X48367552Y-64399388D03*
%TD*%
D14*
%TO.C,C1*%
X30387552Y-93799388D03*
X31347552Y-93799388D03*
%TD*%
D19*
%TO.C,C2*%
X8197552Y-13479388D03*
X8197552Y-12519388D03*
%TD*%
D14*
%TO.C,C5*%
X70667552Y-82399388D03*
X71627552Y-82399388D03*
%TD*%
D16*
%TO.C,Y1*%
X50397552Y-28849388D03*
X51597552Y-28849388D03*
%TD*%
D15*
%TO.C,R4*%
X26197552Y-53509388D03*
X26197552Y-52489388D03*
%TD*%
D14*
%TO.C,C5*%
X34667552Y-46399388D03*
X35627552Y-46399388D03*
%TD*%
D19*
%TO.C,C2*%
X44197552Y-31479388D03*
X44197552Y-30519388D03*
%TD*%
D11*
%TO.C,U1*%
X84747552Y-49186888D03*
D12*
X84472552Y-50249388D03*
X84472552Y-50749388D03*
X84472552Y-51249388D03*
X84472552Y-51749388D03*
D11*
X84747552Y-52811888D03*
X86247552Y-52811888D03*
X86747552Y-52811888D03*
X89247552Y-52811888D03*
D12*
X89522552Y-51749388D03*
X89522552Y-51249388D03*
X89522552Y-50249388D03*
D11*
X89247552Y-49186888D03*
X86747552Y-49186888D03*
X86247552Y-49186888D03*
X85747552Y-49186888D03*
X85247552Y-49186888D03*
%TD*%
D20*
%TO.C,REF\u002A\u002A*%
X2500000Y-99498776D03*
%TD*%
D15*
%TO.C,R3*%
X39797552Y-85509388D03*
X39797552Y-84489388D03*
%TD*%
D14*
%TO.C,C1*%
X30387552Y-75799388D03*
X31347552Y-75799388D03*
%TD*%
D15*
%TO.C,R3*%
X21797552Y-31509388D03*
X21797552Y-30489388D03*
%TD*%
D14*
%TO.C,C1*%
X12387552Y-93799388D03*
X13347552Y-93799388D03*
%TD*%
D15*
%TO.C,R4*%
X8197552Y-53509388D03*
X8197552Y-52489388D03*
%TD*%
D13*
%TO.C,R5*%
X53657552Y-62199388D03*
X52637552Y-62199388D03*
%TD*%
D19*
%TO.C,C2*%
X26197552Y-13479388D03*
X26197552Y-12519388D03*
%TD*%
D15*
%TO.C,R4*%
X80197552Y-53509388D03*
X80197552Y-52489388D03*
%TD*%
%TO.C,R3*%
X75797552Y-31509388D03*
X75797552Y-30489388D03*
%TD*%
D13*
%TO.C,R5*%
X71657552Y-80199388D03*
X70637552Y-80199388D03*
%TD*%
D19*
%TO.C,C2*%
X62197552Y-67479388D03*
X62197552Y-66519388D03*
%TD*%
D11*
%TO.C,U1*%
X30747552Y-85186888D03*
D12*
X30472552Y-86249388D03*
X30472552Y-86749388D03*
X30472552Y-87249388D03*
X30472552Y-87749388D03*
D11*
X30747552Y-88811888D03*
X32247552Y-88811888D03*
X32747552Y-88811888D03*
X35247552Y-88811888D03*
D12*
X35522552Y-87749388D03*
X35522552Y-87249388D03*
X35522552Y-86249388D03*
D11*
X35247552Y-85186888D03*
X32747552Y-85186888D03*
X32247552Y-85186888D03*
X31747552Y-85186888D03*
X31247552Y-85186888D03*
%TD*%
D19*
%TO.C,C2*%
X80197552Y-85479388D03*
X80197552Y-84519388D03*
%TD*%
D10*
%TO.C,R2*%
X75797552Y-88489388D03*
X75797552Y-89509388D03*
%TD*%
D11*
%TO.C,U1*%
X66747552Y-31186888D03*
D12*
X66472552Y-32249388D03*
X66472552Y-32749388D03*
X66472552Y-33249388D03*
X66472552Y-33749388D03*
D11*
X66747552Y-34811888D03*
X68247552Y-34811888D03*
X68747552Y-34811888D03*
X71247552Y-34811888D03*
D12*
X71522552Y-33749388D03*
X71522552Y-33249388D03*
X71522552Y-32249388D03*
D11*
X71247552Y-31186888D03*
X68747552Y-31186888D03*
X68247552Y-31186888D03*
X67747552Y-31186888D03*
X67247552Y-31186888D03*
%TD*%
D13*
%TO.C,R5*%
X89657552Y-62199388D03*
X88637552Y-62199388D03*
%TD*%
D15*
%TO.C,R3*%
X57797552Y-85509388D03*
X57797552Y-84489388D03*
%TD*%
%TO.C,R3*%
X21797552Y-85509388D03*
X21797552Y-84489388D03*
%TD*%
%TO.C,R4*%
X80197552Y-17509388D03*
X80197552Y-16489388D03*
%TD*%
D17*
%TO.C,R1*%
X70637552Y-57799388D03*
X71657552Y-57799388D03*
%TD*%
D16*
%TO.C,Y1*%
X14397552Y-64849388D03*
X15597552Y-64849388D03*
%TD*%
D19*
%TO.C,C2*%
X44197552Y-49479388D03*
X44197552Y-48519388D03*
%TD*%
D18*
%TO.C,C3*%
X49327552Y-46399388D03*
X48367552Y-46399388D03*
%TD*%
D10*
%TO.C,R2*%
X75797552Y-70489388D03*
X75797552Y-71509388D03*
%TD*%
D18*
%TO.C,C3*%
X31327552Y-82399388D03*
X30367552Y-82399388D03*
%TD*%
D10*
%TO.C,R2*%
X57797552Y-16489388D03*
X57797552Y-17509388D03*
%TD*%
D16*
%TO.C,Y1*%
X86397552Y-82849388D03*
X87597552Y-82849388D03*
%TD*%
D14*
%TO.C,C1*%
X66387552Y-75799388D03*
X67347552Y-75799388D03*
%TD*%
D17*
%TO.C,R1*%
X16637552Y-57799388D03*
X17657552Y-57799388D03*
%TD*%
D19*
%TO.C,C2*%
X26197552Y-31479388D03*
X26197552Y-30519388D03*
%TD*%
D14*
%TO.C,C5*%
X70667552Y-28399388D03*
X71627552Y-28399388D03*
%TD*%
%TO.C,C1*%
X30387552Y-21799388D03*
X31347552Y-21799388D03*
%TD*%
D10*
%TO.C,R2*%
X75797552Y-16489388D03*
X75797552Y-17509388D03*
%TD*%
D17*
%TO.C,R1*%
X88637552Y-57799388D03*
X89657552Y-57799388D03*
%TD*%
D14*
%TO.C,C5*%
X70667552Y-64399388D03*
X71627552Y-64399388D03*
%TD*%
%TO.C,C1*%
X66387552Y-93799388D03*
X67347552Y-93799388D03*
%TD*%
D17*
%TO.C,R1*%
X70637552Y-39799388D03*
X71657552Y-39799388D03*
%TD*%
D18*
%TO.C,C3*%
X31327552Y-64399388D03*
X30367552Y-64399388D03*
%TD*%
%TO.C,C3*%
X49327552Y-10399388D03*
X48367552Y-10399388D03*
%TD*%
D13*
%TO.C,R5*%
X17657552Y-8199388D03*
X16637552Y-8199388D03*
%TD*%
D17*
%TO.C,R1*%
X16637552Y-39799388D03*
X17657552Y-39799388D03*
%TD*%
%TO.C,R1*%
X34637552Y-21799388D03*
X35657552Y-21799388D03*
%TD*%
D14*
%TO.C,C1*%
X48387552Y-57799388D03*
X49347552Y-57799388D03*
%TD*%
%TO.C,C1*%
X66387552Y-57799388D03*
X67347552Y-57799388D03*
%TD*%
D15*
%TO.C,R4*%
X44197552Y-53509388D03*
X44197552Y-52489388D03*
%TD*%
D10*
%TO.C,R2*%
X39797552Y-88489388D03*
X39797552Y-89509388D03*
%TD*%
D15*
%TO.C,R4*%
X62197552Y-53509388D03*
X62197552Y-52489388D03*
%TD*%
D10*
%TO.C,R2*%
X75797552Y-52489388D03*
X75797552Y-53509388D03*
%TD*%
D14*
%TO.C,C4*%
X12367552Y-62199388D03*
X13327552Y-62199388D03*
%TD*%
D19*
%TO.C,C2*%
X44197552Y-67479388D03*
X44197552Y-66519388D03*
%TD*%
D16*
%TO.C,Y1*%
X32397552Y-46849388D03*
X33597552Y-46849388D03*
%TD*%
D13*
%TO.C,R5*%
X89657552Y-44199388D03*
X88637552Y-44199388D03*
%TD*%
D17*
%TO.C,R1*%
X88637552Y-93799388D03*
X89657552Y-93799388D03*
%TD*%
D14*
%TO.C,C5*%
X52667552Y-28399388D03*
X53627552Y-28399388D03*
%TD*%
D19*
%TO.C,C2*%
X8197552Y-67479388D03*
X8197552Y-66519388D03*
%TD*%
D14*
%TO.C,C4*%
X12367552Y-26199388D03*
X13327552Y-26199388D03*
%TD*%
D15*
%TO.C,R3*%
X93797552Y-67509388D03*
X93797552Y-66489388D03*
%TD*%
D14*
%TO.C,C5*%
X88667552Y-82399388D03*
X89627552Y-82399388D03*
%TD*%
D15*
%TO.C,R4*%
X44197552Y-71509388D03*
X44197552Y-70489388D03*
%TD*%
D14*
%TO.C,C4*%
X66367552Y-8199388D03*
X67327552Y-8199388D03*
%TD*%
%TO.C,C5*%
X52667552Y-10399388D03*
X53627552Y-10399388D03*
%TD*%
D18*
%TO.C,C3*%
X85327552Y-28399388D03*
X84367552Y-28399388D03*
%TD*%
D14*
%TO.C,C5*%
X16667552Y-28399388D03*
X17627552Y-28399388D03*
%TD*%
D13*
%TO.C,R5*%
X17657552Y-80199388D03*
X16637552Y-80199388D03*
%TD*%
D14*
%TO.C,C1*%
X48387552Y-39799388D03*
X49347552Y-39799388D03*
%TD*%
%TO.C,C4*%
X30367552Y-80199388D03*
X31327552Y-80199388D03*
%TD*%
D15*
%TO.C,R4*%
X26197552Y-17509388D03*
X26197552Y-16489388D03*
%TD*%
D14*
%TO.C,C4*%
X84367552Y-62199388D03*
X85327552Y-62199388D03*
%TD*%
%TO.C,C1*%
X48387552Y-21799388D03*
X49347552Y-21799388D03*
%TD*%
D18*
%TO.C,C3*%
X31327552Y-46399388D03*
X30367552Y-46399388D03*
%TD*%
D15*
%TO.C,R3*%
X75797552Y-67509388D03*
X75797552Y-66489388D03*
%TD*%
D14*
%TO.C,C5*%
X88667552Y-46399388D03*
X89627552Y-46399388D03*
%TD*%
D15*
%TO.C,R3*%
X57797552Y-67509388D03*
X57797552Y-66489388D03*
%TD*%
%TO.C,R3*%
X93797552Y-13509388D03*
X93797552Y-12489388D03*
%TD*%
D14*
%TO.C,C5*%
X16667552Y-64399388D03*
X17627552Y-64399388D03*
%TD*%
D19*
%TO.C,C2*%
X26197552Y-49479388D03*
X26197552Y-48519388D03*
%TD*%
D18*
%TO.C,C3*%
X85327552Y-46399388D03*
X84367552Y-46399388D03*
%TD*%
D14*
%TO.C,C5*%
X88667552Y-64399388D03*
X89627552Y-64399388D03*
%TD*%
D17*
%TO.C,R1*%
X88637552Y-21799388D03*
X89657552Y-21799388D03*
%TD*%
%TO.C,R1*%
X52637552Y-21799388D03*
X53657552Y-21799388D03*
%TD*%
D10*
%TO.C,R2*%
X93797552Y-16489388D03*
X93797552Y-17509388D03*
%TD*%
%TO.C,R2*%
X93797552Y-70489388D03*
X93797552Y-71509388D03*
%TD*%
D15*
%TO.C,R4*%
X44197552Y-35509388D03*
X44197552Y-34489388D03*
%TD*%
D13*
%TO.C,R5*%
X89657552Y-8199388D03*
X88637552Y-8199388D03*
%TD*%
D19*
%TO.C,C2*%
X62197552Y-31479388D03*
X62197552Y-30519388D03*
%TD*%
D15*
%TO.C,R4*%
X26197552Y-71509388D03*
X26197552Y-70489388D03*
%TD*%
D14*
%TO.C,C4*%
X48367552Y-62199388D03*
X49327552Y-62199388D03*
%TD*%
D16*
%TO.C,Y1*%
X50397552Y-64849388D03*
X51597552Y-64849388D03*
%TD*%
D11*
%TO.C,U1*%
X66747552Y-13186888D03*
D12*
X66472552Y-14249388D03*
X66472552Y-14749388D03*
X66472552Y-15249388D03*
X66472552Y-15749388D03*
D11*
X66747552Y-16811888D03*
X68247552Y-16811888D03*
X68747552Y-16811888D03*
X71247552Y-16811888D03*
D12*
X71522552Y-15749388D03*
X71522552Y-15249388D03*
X71522552Y-14249388D03*
D11*
X71247552Y-13186888D03*
X68747552Y-13186888D03*
X68247552Y-13186888D03*
X67747552Y-13186888D03*
X67247552Y-13186888D03*
%TD*%
D14*
%TO.C,C1*%
X12387552Y-75799388D03*
X13347552Y-75799388D03*
%TD*%
D16*
%TO.C,Y1*%
X14397552Y-82849388D03*
X15597552Y-82849388D03*
%TD*%
D10*
%TO.C,R2*%
X57797552Y-52489388D03*
X57797552Y-53509388D03*
%TD*%
D19*
%TO.C,C2*%
X44197552Y-13479388D03*
X44197552Y-12519388D03*
%TD*%
M02*
