M48
INCH
T1C0.0197
%
G90
G05
T1
X0.0Y-0.2756
X0.0Y-3.7401
X0.0197Y-0.2756
X0.0197Y-3.7401
X0.0394Y-0.2756
X0.0394Y-3.7401
X0.0591Y-0.2756
X0.0591Y-3.7401
X0.0787Y-0.2756
X0.0787Y-3.7401
X0.0984Y-0.2756
X0.0984Y-3.7401
X0.1181Y-0.2756
X0.1181Y-3.7401
X0.1378Y-0.2756
X0.1378Y-3.7401
X0.1575Y-0.2756
X0.1575Y-3.7401
X0.1772Y-0.2756
X0.1772Y-3.7401
X0.1969Y-0.2756
X0.1969Y-3.7401
X0.2707Y-1.2992
X0.2707Y-2.0078
X0.2707Y-2.7165
X0.2707Y-3.4252
X0.2707Y-0.5905
X0.2713Y-0.6105
X0.2713Y-1.3192
X0.2713Y-2.0278
X0.2713Y-2.7365
X0.2713Y-3.4451
X0.2713Y-0.5706
X0.2713Y-1.2792
X0.2713Y-1.9879
X0.2713Y-2.6965
X0.2713Y-3.4052
X0.2756Y0.0
X0.2756Y-0.0197
X0.2756Y-0.0394
X0.2756Y-0.0591
X0.2756Y-0.0787
X0.2756Y-0.0984
X0.2756Y-0.1181
X0.2756Y-0.1378
X0.2756Y-0.1575
X0.2756Y-0.1772
X0.2756Y-0.1969
X0.2756Y-3.8188
X0.2756Y-3.8385
X0.2756Y-3.8582
X0.2756Y-3.8779
X0.2756Y-3.8976
X0.2756Y-3.9173
X0.2756Y-3.937
X0.2756Y-3.9566
X0.2756Y-3.9763
X0.2756Y-3.996
X0.2756Y-4.0157
X0.5704Y-0.2713
X0.5704Y-0.9098
X0.5704Y-0.9799
X0.5704Y-1.6184
X0.5704Y-1.6886
X0.5704Y-2.3271
X0.5704Y-2.3973
X0.5704Y-3.0358
X0.5704Y-3.1059
X0.5704Y-3.7444
X0.5904Y-0.2707
X0.5904Y-0.9103
X0.5904Y-0.9794
X0.5904Y-1.619
X0.5904Y-1.688
X0.5904Y-2.3277
X0.5904Y-2.3967
X0.5904Y-3.0363
X0.5904Y-3.1054
X0.5904Y-3.745
X0.6105Y-0.2714
X0.6105Y-0.9097
X0.6105Y-0.98
X0.6105Y-1.6183
X0.6105Y-1.6887
X0.6105Y-2.327
X0.6105Y-2.3974
X0.6105Y-3.0357
X0.6105Y-3.106
X0.6105Y-3.7443
X0.9096Y-0.5705
X0.9096Y-0.6106
X0.9096Y-1.2792
X0.9096Y-1.3192
X0.9096Y-1.9878
X0.9096Y-2.0279
X0.9096Y-2.6965
X0.9096Y-2.7365
X0.9096Y-3.4051
X0.9096Y-3.4452
X0.9103Y-0.5905
X0.9103Y-1.2992
X0.9103Y-2.0078
X0.9103Y-2.7165
X0.9103Y-3.4252
X0.9793Y-0.5905
X0.9793Y-1.2992
X0.9793Y-2.0078
X0.9793Y-2.7165
X0.9793Y-3.4252
X0.9799Y-0.5706
X0.9799Y-1.3192
X0.9799Y-1.9879
X0.9799Y-2.6965
X0.9799Y-3.4052
X0.9799Y-0.6105
X0.9799Y-1.2792
X0.9799Y-2.0278
X0.9799Y-2.7365
X0.9799Y-3.4451
X1.2791Y-0.2713
X1.2791Y-0.9098
X1.2791Y-0.9799
X1.2791Y-1.6184
X1.2791Y-1.6886
X1.2791Y-2.3271
X1.2791Y-2.3973
X1.2791Y-3.0358
X1.2791Y-3.1059
X1.2791Y-3.7444
X1.2991Y-0.2707
X1.2991Y-0.9103
X1.2991Y-0.9794
X1.2991Y-1.619
X1.2991Y-1.688
X1.2991Y-2.3277
X1.2991Y-2.3967
X1.2991Y-3.0363
X1.2991Y-3.1054
X1.2991Y-3.745
X1.3191Y-0.2714
X1.3191Y-0.9097
X1.3191Y-0.98
X1.3191Y-1.6183
X1.3191Y-1.6887
X1.3191Y-2.327
X1.3191Y-2.3974
X1.3191Y-3.0357
X1.3191Y-3.106
X1.3191Y-3.7443
X1.6183Y-0.5705
X1.6183Y-0.6106
X1.6183Y-1.2792
X1.6183Y-1.3192
X1.6183Y-1.9878
X1.6183Y-2.0279
X1.6183Y-2.6965
X1.6183Y-2.7365
X1.6183Y-3.4051
X1.6183Y-3.4452
X1.619Y-0.5905
X1.619Y-1.2992
X1.619Y-2.0078
X1.619Y-2.7165
X1.619Y-3.4252
X1.688Y-0.5905
X1.688Y-1.2992
X1.688Y-2.0078
X1.688Y-2.7165
X1.688Y-3.4252
X1.6886Y-0.5706
X1.6886Y-1.2792
X1.6886Y-1.9879
X1.6886Y-2.6965
X1.6886Y-3.4052
X1.6886Y-0.6105
X1.6886Y-1.3192
X1.6886Y-2.0278
X1.6886Y-2.7365
X1.6886Y-3.4451
X1.9877Y-0.2713
X1.9877Y-0.9098
X1.9877Y-0.9799
X1.9877Y-1.6184
X1.9877Y-1.6886
X1.9877Y-2.3271
X1.9877Y-2.3973
X1.9877Y-3.0358
X1.9877Y-3.1059
X1.9877Y-3.7444
X2.0078Y-0.2707
X2.0078Y-0.9103
X2.0078Y-0.9794
X2.0078Y-1.619
X2.0078Y-1.688
X2.0078Y-2.3277
X2.0078Y-2.3967
X2.0078Y-3.0363
X2.0078Y-3.1054
X2.0078Y-3.745
X2.0278Y-0.2714
X2.0278Y-0.9097
X2.0278Y-0.98
X2.0278Y-1.6183
X2.0278Y-1.6887
X2.0278Y-2.327
X2.0278Y-2.3974
X2.0278Y-3.0357
X2.0278Y-3.106
X2.0278Y-3.7443
X2.327Y-0.5705
X2.327Y-0.6106
X2.327Y-1.2792
X2.327Y-1.3192
X2.327Y-1.9878
X2.327Y-2.0279
X2.327Y-2.6965
X2.327Y-2.7365
X2.327Y-3.4051
X2.327Y-3.4452
X2.3277Y-0.5905
X2.3277Y-1.2992
X2.3277Y-2.0078
X2.3277Y-2.7165
X2.3277Y-3.4252
X2.3967Y-0.5905
X2.3967Y-1.2992
X2.3967Y-2.0078
X2.3967Y-2.7165
X2.3967Y-3.4252
X2.3973Y-0.5706
X2.3973Y-1.2792
X2.3973Y-1.9879
X2.3973Y-2.6965
X2.3973Y-3.4052
X2.3973Y-0.6105
X2.3973Y-1.3192
X2.3973Y-2.0278
X2.3973Y-2.7365
X2.3973Y-3.4451
X2.6964Y-0.2713
X2.6964Y-0.9098
X2.6964Y-0.9799
X2.6964Y-1.6184
X2.6964Y-1.6886
X2.6964Y-2.3271
X2.6964Y-2.3973
X2.6964Y-3.0358
X2.6964Y-3.1059
X2.6964Y-3.7444
X2.7164Y-0.2707
X2.7164Y-0.9103
X2.7164Y-0.9794
X2.7164Y-1.619
X2.7164Y-1.688
X2.7164Y-2.3277
X2.7164Y-2.3967
X2.7164Y-3.0363
X2.7164Y-3.1054
X2.7164Y-3.745
X2.7365Y-0.2714
X2.7365Y-0.9097
X2.7365Y-0.98
X2.7365Y-1.6183
X2.7365Y-1.6887
X2.7365Y-2.327
X2.7365Y-2.3974
X2.7365Y-3.0357
X2.7365Y-3.106
X2.7365Y-3.7443
X3.0356Y-0.5705
X3.0356Y-0.6106
X3.0356Y-1.2792
X3.0356Y-1.3192
X3.0356Y-1.9878
X3.0356Y-2.0279
X3.0356Y-2.6965
X3.0356Y-2.7365
X3.0356Y-3.4051
X3.0356Y-3.4452
X3.0363Y-0.5905
X3.0363Y-1.2992
X3.0363Y-2.0078
X3.0363Y-2.7165
X3.0363Y-3.4252
X3.1053Y-0.5905
X3.1053Y-1.2992
X3.1053Y-2.0078
X3.1053Y-2.7165
X3.1053Y-3.4252
X3.1059Y-0.5706
X3.1059Y-1.2792
X3.1059Y-1.9879
X3.1059Y-2.6965
X3.1059Y-3.4052
X3.1059Y-0.6105
X3.1059Y-1.3192
X3.1059Y-2.0278
X3.1059Y-2.7365
X3.1059Y-3.4451
X3.4051Y-0.2713
X3.4051Y-0.9098
X3.4051Y-0.9799
X3.4051Y-1.6184
X3.4051Y-1.6886
X3.4051Y-2.3271
X3.4051Y-2.3973
X3.4051Y-3.0358
X3.4051Y-3.1059
X3.4051Y-3.7444
X3.4251Y-0.2707
X3.4251Y-0.9103
X3.4251Y-0.9794
X3.4251Y-1.619
X3.4251Y-1.688
X3.4251Y-2.3277
X3.4251Y-2.3967
X3.4251Y-3.0363
X3.4251Y-3.1054
X3.4251Y-3.745
X3.4451Y-0.2714
X3.4451Y-0.9097
X3.4451Y-0.98
X3.4451Y-1.6183
X3.4451Y-1.6887
X3.4451Y-2.327
X3.4451Y-2.3974
X3.4451Y-3.0357
X3.4451Y-3.106
X3.4451Y-3.7443
X3.7401Y0.0
X3.7401Y-0.0197
X3.7401Y-0.0394
X3.7401Y-0.0591
X3.7401Y-0.0787
X3.7401Y-0.0984
X3.7401Y-0.1181
X3.7401Y-0.1378
X3.7401Y-0.1575
X3.7401Y-0.1772
X3.7401Y-0.1969
X3.7401Y-3.8188
X3.7401Y-3.8385
X3.7401Y-3.8582
X3.7401Y-3.8779
X3.7401Y-3.8976
X3.7401Y-3.9173
X3.7401Y-3.937
X3.7401Y-3.9566
X3.7401Y-3.9763
X3.7401Y-3.996
X3.7401Y-4.0157
X3.7443Y-0.5705
X3.7443Y-0.6106
X3.7443Y-1.2792
X3.7443Y-1.3192
X3.7443Y-1.9878
X3.7443Y-2.0279
X3.7443Y-2.6965
X3.7443Y-2.7365
X3.7443Y-3.4051
X3.7443Y-3.4452
X3.745Y-0.5905
X3.745Y-1.2992
X3.745Y-2.0078
X3.745Y-2.7165
X3.745Y-3.4252
X3.8188Y-0.2756
X3.8188Y-3.7401
X3.8385Y-0.2756
X3.8385Y-3.7401
X3.8582Y-0.2756
X3.8582Y-3.7401
X3.8779Y-0.2756
X3.8779Y-3.7401
X3.8975Y-0.2756
X3.8975Y-3.7401
X3.9172Y-0.2756
X3.9172Y-3.7401
X3.9369Y-0.2756
X3.9369Y-3.7401
X3.9566Y-0.2756
X3.9566Y-3.7401
X3.9763Y-0.2756
X3.9763Y-3.7401
X3.996Y-0.2756
X3.996Y-3.7401
X4.0157Y-0.2756
X4.0157Y-3.7401
T0
M30
