%TF.GenerationSoftware,KiCad,Pcbnew,7.0.7-7.0.7~ubuntu20.04.1*%
%TF.CreationDate,2023-08-22T16:04:55-04:00*%
%TF.ProjectId,bno08x-i2c-board-v6-large-crystal-panel,626e6f30-3878-42d6-9932-632d626f6172,rev?*%
%TF.SameCoordinates,Original*%
%TF.FileFunction,Soldermask,Bot*%
%TF.FilePolarity,Negative*%
%FSLAX46Y46*%
G04 Gerber Fmt 4.6, Leading zero omitted, Abs format (unit mm)*
G04 Created by KiCad (PCBNEW 7.0.7-7.0.7~ubuntu20.04.1) date 2023-08-22 16:04:55*
%MOMM*%
%LPD*%
G01*
G04 APERTURE LIST*
%ADD10C,0.500000*%
%ADD11R,0.850000X0.850000*%
%ADD12C,1.000000*%
G04 APERTURE END LIST*
D10*
%TO.C,REF\u002A\u002A*%
X6890197Y-69506570D03*
%TD*%
%TO.C,REF\u002A\u002A*%
X32997189Y-24876246D03*
%TD*%
%TO.C,REF\u002A\u002A*%
X15505875Y-59106021D03*
%TD*%
%TO.C,REF\u002A\u002A*%
X59122437Y-32999386D03*
%TD*%
%TO.C,REF\u002A\u002A*%
X69505875Y-24892754D03*
%TD*%
%TO.C,REF\u002A\u002A*%
X15505875Y-23106021D03*
%TD*%
%TO.C,REF\u002A\u002A*%
X33505875Y-41106021D03*
%TD*%
%TO.C,REF\u002A\u002A*%
X15505875Y-95106021D03*
%TD*%
%TO.C,REF\u002A\u002A*%
X95104699Y-69508115D03*
%TD*%
%TO.C,REF\u002A\u002A*%
X78875074Y-32999387D03*
%TD*%
%TO.C,REF\u002A\u002A*%
X50488391Y-60890490D03*
%TD*%
%TO.C,REF\u002A\u002A*%
X24890196Y-14492206D03*
%TD*%
%TO.C,REF\u002A\u002A*%
X59104699Y-86490660D03*
%TD*%
%TO.C,REF\u002A\u002A*%
X7000000Y-96998776D03*
%TD*%
%TO.C,REF\u002A\u002A*%
X7000000Y-98498776D03*
%TD*%
%TO.C,REF\u002A\u002A*%
X59104699Y-69508115D03*
%TD*%
%TO.C,REF\u002A\u002A*%
X97997552Y-94998775D03*
%TD*%
%TO.C,REF\u002A\u002A*%
X77104699Y-33508115D03*
%TD*%
%TO.C,REF\u002A\u002A*%
X24890321Y-69506564D03*
%TD*%
D11*
%TO.C,J4*%
X58197552Y-50999388D03*
%TD*%
%TO.C,J2*%
X68997552Y-43799388D03*
%TD*%
D10*
%TO.C,REF\u002A\u002A*%
X32488391Y-41108285D03*
%TD*%
%TO.C,REF\u002A\u002A*%
X60890161Y-50492203D03*
%TD*%
%TO.C,REF\u002A\u002A*%
X95104699Y-33508115D03*
%TD*%
%TO.C,REF\u002A\u002A*%
X68488391Y-95108285D03*
%TD*%
D11*
%TO.C,J4*%
X22197552Y-32999388D03*
%TD*%
D10*
%TO.C,REF\u002A\u002A*%
X7000000Y-101498776D03*
%TD*%
%TO.C,REF\u002A\u002A*%
X6875000Y-86999388D03*
%TD*%
D11*
%TO.C,J3*%
X25797552Y-68999388D03*
%TD*%
D10*
%TO.C,REF\u002A\u002A*%
X68997189Y-77122529D03*
%TD*%
D11*
%TO.C,J2*%
X14997552Y-43799388D03*
%TD*%
D10*
%TO.C,REF\u002A\u002A*%
X99997552Y-94998775D03*
%TD*%
%TO.C,REF\u002A\u002A*%
X95104699Y-15508115D03*
%TD*%
%TO.C,REF\u002A\u002A*%
X100997552Y-7000000D03*
%TD*%
%TO.C,REF\u002A\u002A*%
X50997189Y-59122529D03*
%TD*%
%TO.C,REF\u002A\u002A*%
X23104699Y-33508115D03*
%TD*%
%TO.C,REF\u002A\u002A*%
X94997551Y-101998776D03*
%TD*%
%TO.C,REF\u002A\u002A*%
X99997552Y-7000000D03*
%TD*%
%TO.C,REF\u002A\u002A*%
X68997189Y-6876247D03*
%TD*%
D11*
%TO.C,J2*%
X86997552Y-79799388D03*
%TD*%
D10*
%TO.C,REF\u002A\u002A*%
X6890197Y-51506570D03*
%TD*%
%TO.C,REF\u002A\u002A*%
X7000000Y0D03*
%TD*%
%TO.C,REF\u002A\u002A*%
X59104699Y-51508115D03*
%TD*%
%TO.C,REF\u002A\u002A*%
X15505875Y-77106021D03*
%TD*%
%TO.C,REF\u002A\u002A*%
X95122437Y-32999386D03*
%TD*%
D11*
%TO.C,J1*%
X32997552Y-76199388D03*
%TD*%
D10*
%TO.C,REF\u002A\u002A*%
X94997551Y-101498776D03*
%TD*%
D11*
%TO.C,J3*%
X43797552Y-32999388D03*
%TD*%
D10*
%TO.C,REF\u002A\u002A*%
X42874999Y-32999387D03*
%TD*%
D11*
%TO.C,J4*%
X22197552Y-86999388D03*
%TD*%
D10*
%TO.C,REF\u002A\u002A*%
X15505875Y-78892754D03*
%TD*%
%TO.C,REF\u002A\u002A*%
X42890321Y-69506564D03*
%TD*%
%TO.C,REF\u002A\u002A*%
X77104699Y-15508115D03*
%TD*%
%TO.C,REF\u002A\u002A*%
X59104699Y-68490660D03*
%TD*%
%TO.C,REF\u002A\u002A*%
X23122437Y-14999387D03*
%TD*%
%TO.C,REF\u002A\u002A*%
X32488391Y-77108285D03*
%TD*%
%TO.C,REF\u002A\u002A*%
X24890196Y-33506570D03*
%TD*%
%TO.C,REF\u002A\u002A*%
X60875074Y-32999387D03*
%TD*%
%TO.C,REF\u002A\u002A*%
X86997189Y-95122529D03*
%TD*%
%TO.C,REF\u002A\u002A*%
X87505875Y-23106021D03*
%TD*%
%TO.C,REF\u002A\u002A*%
X50488391Y-95108285D03*
%TD*%
D11*
%TO.C,J4*%
X76197552Y-14999388D03*
%TD*%
%TO.C,J4*%
X76197552Y-32999388D03*
%TD*%
D10*
%TO.C,REF\u002A\u002A*%
X95104699Y-68490660D03*
%TD*%
%TO.C,REF\u002A\u002A*%
X7000000Y-500000D03*
%TD*%
%TO.C,REF\u002A\u002A*%
X32488391Y-60890490D03*
%TD*%
D11*
%TO.C,J3*%
X25797552Y-50999388D03*
%TD*%
D10*
%TO.C,REF\u002A\u002A*%
X7000000Y-3500000D03*
%TD*%
%TO.C,REF\u002A\u002A*%
X14488392Y-23108285D03*
%TD*%
%TO.C,REF\u002A\u002A*%
X14997190Y-77122529D03*
%TD*%
%TO.C,REF\u002A\u002A*%
X68488391Y-77108285D03*
%TD*%
%TO.C,REF\u002A\u002A*%
X77104699Y-50490660D03*
%TD*%
D11*
%TO.C,J4*%
X40197552Y-32999388D03*
%TD*%
D10*
%TO.C,REF\u002A\u002A*%
X94997551Y-99998776D03*
%TD*%
%TO.C,REF\u002A\u002A*%
X94997551Y-100998776D03*
%TD*%
D11*
%TO.C,J3*%
X7797552Y-68999388D03*
%TD*%
D10*
%TO.C,REF\u002A\u002A*%
X32997189Y-60876246D03*
%TD*%
D11*
%TO.C,J3*%
X79797552Y-14999388D03*
%TD*%
D10*
%TO.C,REF\u002A\u002A*%
X60875074Y-68999387D03*
%TD*%
%TO.C,REF\u002A\u002A*%
X98497552Y-94998775D03*
%TD*%
%TO.C,REF\u002A\u002A*%
X41104699Y-50490660D03*
%TD*%
%TO.C,REF\u002A\u002A*%
X42890196Y-50492205D03*
%TD*%
%TO.C,REF\u002A\u002A*%
X32997189Y-59122529D03*
%TD*%
%TO.C,REF\u002A\u002A*%
X87505875Y-59106021D03*
%TD*%
%TO.C,REF\u002A\u002A*%
X94997551Y-96998776D03*
%TD*%
D11*
%TO.C,J4*%
X40197552Y-50999388D03*
%TD*%
%TO.C,J4*%
X94197552Y-50999388D03*
%TD*%
D10*
%TO.C,REF\u002A\u002A*%
X50997189Y-95122529D03*
%TD*%
D11*
%TO.C,J3*%
X79797552Y-32999388D03*
%TD*%
%TO.C,J3*%
X43797552Y-68999388D03*
%TD*%
D10*
%TO.C,REF\u002A\u002A*%
X51505875Y-42892754D03*
%TD*%
%TO.C,REF\u002A\u002A*%
X68488391Y-23108285D03*
%TD*%
%TO.C,REF\u002A\u002A*%
X98997552Y-94998775D03*
%TD*%
%TO.C,REF\u002A\u002A*%
X68997189Y-23122529D03*
%TD*%
D11*
%TO.C,J4*%
X94197552Y-14999388D03*
%TD*%
D10*
%TO.C,REF\u002A\u002A*%
X14997190Y-41122529D03*
%TD*%
%TO.C,REF\u002A\u002A*%
X14488392Y-95108285D03*
%TD*%
%TO.C,REF\u002A\u002A*%
X32488391Y-6890491D03*
%TD*%
D11*
%TO.C,J2*%
X14997552Y-7799388D03*
%TD*%
%TO.C,J3*%
X61797552Y-14999388D03*
%TD*%
D10*
%TO.C,REF\u002A\u002A*%
X14488392Y-42890490D03*
%TD*%
D11*
%TO.C,J2*%
X50997552Y-79799388D03*
%TD*%
D10*
%TO.C,REF\u002A\u002A*%
X86997189Y-59122529D03*
%TD*%
%TO.C,REF\u002A\u002A*%
X78890321Y-87506564D03*
%TD*%
%TO.C,REF\u002A\u002A*%
X78890161Y-50492203D03*
%TD*%
%TO.C,REF\u002A\u002A*%
X5000000Y-94998775D03*
%TD*%
%TO.C,REF\u002A\u002A*%
X60890321Y-15506564D03*
%TD*%
%TO.C,REF\u002A\u002A*%
X69505875Y-42892754D03*
%TD*%
D11*
%TO.C,J4*%
X40197552Y-86999388D03*
%TD*%
D10*
%TO.C,REF\u002A\u002A*%
X4500000Y-94998775D03*
%TD*%
%TO.C,REF\u002A\u002A*%
X1000000Y-94998775D03*
%TD*%
%TO.C,REF\u002A\u002A*%
X33505875Y-60892754D03*
%TD*%
%TO.C,REF\u002A\u002A*%
X7000000Y-4000000D03*
%TD*%
%TO.C,REF\u002A\u002A*%
X99497552Y-7000000D03*
%TD*%
%TO.C,REF\u002A\u002A*%
X500000Y-94998775D03*
%TD*%
%TO.C,REF\u002A\u002A*%
X77104699Y-86490660D03*
%TD*%
%TO.C,REF\u002A\u002A*%
X6890322Y-86492211D03*
%TD*%
%TO.C,REF\u002A\u002A*%
X14997190Y-42876246D03*
%TD*%
%TO.C,REF\u002A\u002A*%
X24874999Y-68999387D03*
%TD*%
%TO.C,REF\u002A\u002A*%
X2500000Y-7000000D03*
%TD*%
%TO.C,REF\u002A\u002A*%
X100497552Y-94998775D03*
%TD*%
%TO.C,REF\u002A\u002A*%
X41104699Y-68490660D03*
%TD*%
%TO.C,REF\u002A\u002A*%
X59104699Y-15508115D03*
%TD*%
%TO.C,REF\u002A\u002A*%
X14488392Y-24890490D03*
%TD*%
%TO.C,REF\u002A\u002A*%
X60890321Y-87506564D03*
%TD*%
%TO.C,REF\u002A\u002A*%
X59104699Y-33508115D03*
%TD*%
%TO.C,REF\u002A\u002A*%
X7000000Y-99498776D03*
%TD*%
D11*
%TO.C,J2*%
X50997552Y-25799388D03*
%TD*%
D10*
%TO.C,REF\u002A\u002A*%
X77104699Y-51508115D03*
%TD*%
%TO.C,REF\u002A\u002A*%
X2000000Y-7000000D03*
%TD*%
%TO.C,REF\u002A\u002A*%
X32488391Y-78890490D03*
%TD*%
%TO.C,REF\u002A\u002A*%
X97497552Y-94998775D03*
%TD*%
D11*
%TO.C,J4*%
X22197552Y-14999388D03*
%TD*%
D10*
%TO.C,REF\u002A\u002A*%
X87505875Y-42892754D03*
%TD*%
D11*
%TO.C,J3*%
X61797552Y-32999388D03*
%TD*%
%TO.C,J4*%
X94197552Y-86999388D03*
%TD*%
D10*
%TO.C,REF\u002A\u002A*%
X7000000Y-98998776D03*
%TD*%
D11*
%TO.C,J1*%
X50997552Y-94199388D03*
%TD*%
D10*
%TO.C,REF\u002A\u002A*%
X86997189Y-23122529D03*
%TD*%
%TO.C,REF\u002A\u002A*%
X60890161Y-86492203D03*
%TD*%
D11*
%TO.C,J4*%
X22197552Y-68999388D03*
%TD*%
D10*
%TO.C,REF\u002A\u002A*%
X14488392Y-59108285D03*
%TD*%
%TO.C,REF\u002A\u002A*%
X51505875Y-24892754D03*
%TD*%
D11*
%TO.C,J3*%
X43797552Y-14999388D03*
%TD*%
D10*
%TO.C,REF\u002A\u002A*%
X6890197Y-87506570D03*
%TD*%
%TO.C,REF\u002A\u002A*%
X24874999Y-50999387D03*
%TD*%
%TO.C,REF\u002A\u002A*%
X69505875Y-77106021D03*
%TD*%
D11*
%TO.C,J2*%
X32997552Y-25799388D03*
%TD*%
D10*
%TO.C,REF\u002A\u002A*%
X24874999Y-32999388D03*
%TD*%
%TO.C,REF\u002A\u002A*%
X69505875Y-95106021D03*
%TD*%
%TO.C,REF\u002A\u002A*%
X41104699Y-69508115D03*
%TD*%
%TO.C,REF\u002A\u002A*%
X4000000Y-7000000D03*
%TD*%
%TO.C,REF\u002A\u002A*%
X51505875Y-60892754D03*
%TD*%
%TO.C,REF\u002A\u002A*%
X69505875Y-78892754D03*
%TD*%
D11*
%TO.C,J4*%
X94197552Y-32999388D03*
%TD*%
D10*
%TO.C,REF\u002A\u002A*%
X32997189Y-95122529D03*
%TD*%
%TO.C,REF\u002A\u002A*%
X51505875Y-59106021D03*
%TD*%
D11*
%TO.C,J2*%
X14997552Y-25799388D03*
%TD*%
%TO.C,J1*%
X68997552Y-58199388D03*
%TD*%
D10*
%TO.C,REF\u002A\u002A*%
X68488391Y-78890490D03*
%TD*%
%TO.C,REF\u002A\u002A*%
X32997189Y-77122529D03*
%TD*%
%TO.C,REF\u002A\u002A*%
X68488391Y-41108285D03*
%TD*%
D11*
%TO.C,J1*%
X68997552Y-76199388D03*
%TD*%
D10*
%TO.C,REF\u002A\u002A*%
X500000Y-7000000D03*
%TD*%
%TO.C,REF\u002A\u002A*%
X7000000Y-3000000D03*
%TD*%
D11*
%TO.C,J2*%
X86997552Y-43799388D03*
%TD*%
%TO.C,J1*%
X68997552Y-22199388D03*
%TD*%
D10*
%TO.C,REF\u002A\u002A*%
X95122437Y-86999386D03*
%TD*%
%TO.C,REF\u002A\u002A*%
X87505875Y-78892754D03*
%TD*%
%TO.C,REF\u002A\u002A*%
X59122437Y-50999386D03*
%TD*%
%TO.C,REF\u002A\u002A*%
X59122437Y-86999386D03*
%TD*%
%TO.C,REF\u002A\u002A*%
X24890321Y-32492211D03*
%TD*%
%TO.C,REF\u002A\u002A*%
X50997189Y-42876246D03*
%TD*%
D11*
%TO.C,J3*%
X43797552Y-86999388D03*
%TD*%
D10*
%TO.C,REF\u002A\u002A*%
X50997189Y-6876247D03*
%TD*%
%TO.C,REF\u002A\u002A*%
X68997189Y-60876246D03*
%TD*%
%TO.C,REF\u002A\u002A*%
X24890196Y-50492205D03*
%TD*%
%TO.C,REF\u002A\u002A*%
X7000000Y-97998776D03*
%TD*%
%TO.C,REF\u002A\u002A*%
X59104699Y-32490660D03*
%TD*%
%TO.C,REF\u002A\u002A*%
X23104699Y-87508115D03*
%TD*%
D11*
%TO.C,J1*%
X14997552Y-58199388D03*
%TD*%
D10*
%TO.C,REF\u002A\u002A*%
X78890321Y-69506564D03*
%TD*%
D11*
%TO.C,J3*%
X61797552Y-50999388D03*
%TD*%
D10*
%TO.C,REF\u002A\u002A*%
X87505875Y-41106021D03*
%TD*%
%TO.C,REF\u002A\u002A*%
X42890321Y-87506564D03*
%TD*%
D11*
%TO.C,J3*%
X25797552Y-86999388D03*
%TD*%
%TO.C,J1*%
X86997552Y-40199388D03*
%TD*%
%TO.C,J1*%
X50997552Y-40199388D03*
%TD*%
D10*
%TO.C,REF\u002A\u002A*%
X32488391Y-59108285D03*
%TD*%
%TO.C,REF\u002A\u002A*%
X24874999Y-86999387D03*
%TD*%
%TO.C,REF\u002A\u002A*%
X98497552Y-7000000D03*
%TD*%
D11*
%TO.C,J1*%
X68997552Y-94199388D03*
%TD*%
D10*
%TO.C,REF\u002A\u002A*%
X94997551Y-500000D03*
%TD*%
%TO.C,REF\u002A\u002A*%
X3500000Y-7000000D03*
%TD*%
D11*
%TO.C,J4*%
X76197552Y-50999388D03*
%TD*%
D10*
%TO.C,REF\u002A\u002A*%
X0Y-94998775D03*
%TD*%
%TO.C,REF\u002A\u002A*%
X33505875Y-95106021D03*
%TD*%
D11*
%TO.C,J4*%
X58197552Y-14999388D03*
%TD*%
D10*
%TO.C,REF\u002A\u002A*%
X69505875Y-41106021D03*
%TD*%
%TO.C,REF\u002A\u002A*%
X94997551Y-4500000D03*
%TD*%
%TO.C,REF\u002A\u002A*%
X24890321Y-15506564D03*
%TD*%
%TO.C,REF\u002A\u002A*%
X87505875Y-6892755D03*
%TD*%
%TO.C,REF\u002A\u002A*%
X95122437Y-50999386D03*
%TD*%
D11*
%TO.C,J4*%
X40197552Y-68999388D03*
%TD*%
D10*
%TO.C,REF\u002A\u002A*%
X77104699Y-14490661D03*
%TD*%
%TO.C,REF\u002A\u002A*%
X33505875Y-6892755D03*
%TD*%
%TO.C,REF\u002A\u002A*%
X41104699Y-87508115D03*
%TD*%
%TO.C,REF\u002A\u002A*%
X41122437Y-68999386D03*
%TD*%
%TO.C,REF\u002A\u002A*%
X5000000Y-7000000D03*
%TD*%
%TO.C,REF\u002A\u002A*%
X68488391Y-24890490D03*
%TD*%
%TO.C,REF\u002A\u002A*%
X95104699Y-14490661D03*
%TD*%
%TO.C,REF\u002A\u002A*%
X78890321Y-51506564D03*
%TD*%
%TO.C,REF\u002A\u002A*%
X77122437Y-14999387D03*
%TD*%
%TO.C,REF\u002A\u002A*%
X7000000Y-99998776D03*
%TD*%
%TO.C,REF\u002A\u002A*%
X24874999Y-14999388D03*
%TD*%
%TO.C,REF\u002A\u002A*%
X23104699Y-14490661D03*
%TD*%
%TO.C,REF\u002A\u002A*%
X94997551Y-100498776D03*
%TD*%
%TO.C,REF\u002A\u002A*%
X42890321Y-51506564D03*
%TD*%
%TO.C,REF\u002A\u002A*%
X68488391Y-42890490D03*
%TD*%
%TO.C,REF\u002A\u002A*%
X14997190Y-6876247D03*
%TD*%
%TO.C,REF\u002A\u002A*%
X32997189Y-42876246D03*
%TD*%
D11*
%TO.C,J3*%
X25797552Y-32999388D03*
%TD*%
D10*
%TO.C,REF\u002A\u002A*%
X32997189Y-78876246D03*
%TD*%
%TO.C,REF\u002A\u002A*%
X98997552Y-7000000D03*
%TD*%
%TO.C,REF\u002A\u002A*%
X14997190Y-95122529D03*
%TD*%
D11*
%TO.C,J3*%
X79797552Y-68999388D03*
%TD*%
D10*
%TO.C,REF\u002A\u002A*%
X7000000Y-5000000D03*
%TD*%
%TO.C,REF\u002A\u002A*%
X86997189Y-42876246D03*
%TD*%
%TO.C,REF\u002A\u002A*%
X7000000Y-97498776D03*
%TD*%
%TO.C,REF\u002A\u002A*%
X78875074Y-50999387D03*
%TD*%
%TO.C,REF\u002A\u002A*%
X33505875Y-23106021D03*
%TD*%
%TO.C,REF\u002A\u002A*%
X68997189Y-59122529D03*
%TD*%
D11*
%TO.C,J2*%
X86997552Y-61799388D03*
%TD*%
D10*
%TO.C,REF\u002A\u002A*%
X3000000Y-7000000D03*
%TD*%
%TO.C,REF\u002A\u002A*%
X94997551Y-1000000D03*
%TD*%
D11*
%TO.C,J1*%
X50997552Y-22199388D03*
%TD*%
D10*
%TO.C,REF\u002A\u002A*%
X86488391Y-42890490D03*
%TD*%
%TO.C,REF\u002A\u002A*%
X51505875Y-78892754D03*
%TD*%
%TO.C,REF\u002A\u002A*%
X1500000Y-7000000D03*
%TD*%
%TO.C,REF\u002A\u002A*%
X78890161Y-86492203D03*
%TD*%
%TO.C,REF\u002A\u002A*%
X0Y-7000000D03*
%TD*%
%TO.C,REF\u002A\u002A*%
X94997551Y-98998776D03*
%TD*%
%TO.C,REF\u002A\u002A*%
X23104699Y-50490660D03*
%TD*%
%TO.C,REF\u002A\u002A*%
X15505875Y-60892754D03*
%TD*%
%TO.C,REF\u002A\u002A*%
X7000000Y-1000000D03*
%TD*%
D11*
%TO.C,J2*%
X32997552Y-43799388D03*
%TD*%
%TO.C,J1*%
X32997552Y-94199388D03*
%TD*%
D10*
%TO.C,REF\u002A\u002A*%
X60875074Y-86999387D03*
%TD*%
%TO.C,REF\u002A\u002A*%
X41122437Y-86999386D03*
%TD*%
%TO.C,REF\u002A\u002A*%
X14997190Y-24876246D03*
%TD*%
%TO.C,REF\u002A\u002A*%
X3500000Y-94998775D03*
%TD*%
%TO.C,REF\u002A\u002A*%
X15505875Y-24892754D03*
%TD*%
%TO.C,REF\u002A\u002A*%
X68488391Y-6890491D03*
%TD*%
%TO.C,REF\u002A\u002A*%
X41104699Y-51508115D03*
%TD*%
%TO.C,REF\u002A\u002A*%
X86997189Y-77122529D03*
%TD*%
%TO.C,REF\u002A\u002A*%
X68997189Y-42876246D03*
%TD*%
%TO.C,REF\u002A\u002A*%
X59104699Y-14490661D03*
%TD*%
%TO.C,REF\u002A\u002A*%
X15505875Y-41106021D03*
%TD*%
%TO.C,REF\u002A\u002A*%
X14488392Y-60890490D03*
%TD*%
%TO.C,REF\u002A\u002A*%
X23104699Y-68490660D03*
%TD*%
%TO.C,REF\u002A\u002A*%
X41104699Y-32490660D03*
%TD*%
%TO.C,REF\u002A\u002A*%
X68488391Y-59108285D03*
%TD*%
%TO.C,REF\u002A\u002A*%
X7000000Y-101998776D03*
%TD*%
%TO.C,REF\u002A\u002A*%
X94997551Y-99498776D03*
%TD*%
%TO.C,REF\u002A\u002A*%
X78890321Y-33506564D03*
%TD*%
%TO.C,REF\u002A\u002A*%
X41122437Y-32999386D03*
%TD*%
D11*
%TO.C,J3*%
X7797552Y-50999388D03*
%TD*%
D10*
%TO.C,REF\u002A\u002A*%
X68997189Y-24876246D03*
%TD*%
%TO.C,REF\u002A\u002A*%
X42874999Y-68999387D03*
%TD*%
D11*
%TO.C,J2*%
X68997552Y-61799388D03*
%TD*%
D10*
%TO.C,REF\u002A\u002A*%
X78875074Y-14999388D03*
%TD*%
%TO.C,REF\u002A\u002A*%
X14488392Y-41108285D03*
%TD*%
%TO.C,REF\u002A\u002A*%
X86488391Y-41108285D03*
%TD*%
%TO.C,REF\u002A\u002A*%
X51505875Y-41106021D03*
%TD*%
%TO.C,REF\u002A\u002A*%
X15505875Y-6892755D03*
%TD*%
D11*
%TO.C,J2*%
X14997552Y-79799388D03*
%TD*%
%TO.C,J3*%
X43797552Y-50999388D03*
%TD*%
D10*
%TO.C,REF\u002A\u002A*%
X100497552Y-7000000D03*
%TD*%
%TO.C,REF\u002A\u002A*%
X50488391Y-42890490D03*
%TD*%
D11*
%TO.C,J1*%
X86997552Y-76199388D03*
%TD*%
D10*
%TO.C,REF\u002A\u002A*%
X95104699Y-51508115D03*
%TD*%
%TO.C,REF\u002A\u002A*%
X60890321Y-51506564D03*
%TD*%
%TO.C,REF\u002A\u002A*%
X15505875Y-42892754D03*
%TD*%
%TO.C,REF\u002A\u002A*%
X101497552Y-94998775D03*
%TD*%
%TO.C,REF\u002A\u002A*%
X86488391Y-24890490D03*
%TD*%
%TO.C,REF\u002A\u002A*%
X77104699Y-69508115D03*
%TD*%
%TO.C,REF\u002A\u002A*%
X23104699Y-86490660D03*
%TD*%
%TO.C,REF\u002A\u002A*%
X86488391Y-60890490D03*
%TD*%
%TO.C,REF\u002A\u002A*%
X95122437Y-68999386D03*
%TD*%
%TO.C,REF\u002A\u002A*%
X94997551Y-98498776D03*
%TD*%
%TO.C,REF\u002A\u002A*%
X50997189Y-77122529D03*
%TD*%
%TO.C,REF\u002A\u002A*%
X23122437Y-32999386D03*
%TD*%
%TO.C,REF\u002A\u002A*%
X60890161Y-32492203D03*
%TD*%
%TO.C,REF\u002A\u002A*%
X50488391Y-41108285D03*
%TD*%
%TO.C,REF\u002A\u002A*%
X7000000Y-2000000D03*
%TD*%
%TO.C,REF\u002A\u002A*%
X50488391Y-6890491D03*
%TD*%
%TO.C,REF\u002A\u002A*%
X50488391Y-59108285D03*
%TD*%
%TO.C,REF\u002A\u002A*%
X86997189Y-41122529D03*
%TD*%
%TO.C,REF\u002A\u002A*%
X23122437Y-68999386D03*
%TD*%
%TO.C,REF\u002A\u002A*%
X86488391Y-77108285D03*
%TD*%
%TO.C,REF\u002A\u002A*%
X33505875Y-77106021D03*
%TD*%
%TO.C,REF\u002A\u002A*%
X96997552Y-7000000D03*
%TD*%
%TO.C,REF\u002A\u002A*%
X7000000Y-1500000D03*
%TD*%
%TO.C,REF\u002A\u002A*%
X78890321Y-15506564D03*
%TD*%
%TO.C,REF\u002A\u002A*%
X101997552Y-7000000D03*
%TD*%
%TO.C,REF\u002A\u002A*%
X50997189Y-24876246D03*
%TD*%
D11*
%TO.C,J2*%
X68997552Y-25799388D03*
%TD*%
D10*
%TO.C,REF\u002A\u002A*%
X69505875Y-23106021D03*
%TD*%
%TO.C,REF\u002A\u002A*%
X68488391Y-60890490D03*
%TD*%
%TO.C,REF\u002A\u002A*%
X59122437Y-14999387D03*
%TD*%
%TO.C,REF\u002A\u002A*%
X60890161Y-14492204D03*
%TD*%
D11*
%TO.C,J4*%
X76197552Y-68999388D03*
%TD*%
D10*
%TO.C,REF\u002A\u002A*%
X33505875Y-59106021D03*
%TD*%
%TO.C,REF\u002A\u002A*%
X6875000Y-50999388D03*
%TD*%
D11*
%TO.C,J2*%
X86997552Y-7799388D03*
%TD*%
D10*
%TO.C,REF\u002A\u002A*%
X33505875Y-42892754D03*
%TD*%
%TO.C,REF\u002A\u002A*%
X42890196Y-68492205D03*
%TD*%
%TO.C,REF\u002A\u002A*%
X68997189Y-41122529D03*
%TD*%
D11*
%TO.C,J2*%
X14997552Y-61799388D03*
%TD*%
D10*
%TO.C,REF\u002A\u002A*%
X32488391Y-23108285D03*
%TD*%
%TO.C,REF\u002A\u002A*%
X50997189Y-78876246D03*
%TD*%
%TO.C,REF\u002A\u002A*%
X78890161Y-68492203D03*
%TD*%
%TO.C,REF\u002A\u002A*%
X7000000Y-100998776D03*
%TD*%
%TO.C,REF\u002A\u002A*%
X6890322Y-50492211D03*
%TD*%
D11*
%TO.C,J1*%
X14997552Y-76199388D03*
%TD*%
D10*
%TO.C,REF\u002A\u002A*%
X77104699Y-87508115D03*
%TD*%
%TO.C,REF\u002A\u002A*%
X33505875Y-78892754D03*
%TD*%
%TO.C,REF\u002A\u002A*%
X60890321Y-33506564D03*
%TD*%
%TO.C,REF\u002A\u002A*%
X60875074Y-14999388D03*
%TD*%
%TO.C,REF\u002A\u002A*%
X24890321Y-87506564D03*
%TD*%
D11*
%TO.C,J4*%
X76197552Y-86999388D03*
%TD*%
D10*
%TO.C,REF\u002A\u002A*%
X86997189Y-6876247D03*
%TD*%
D11*
%TO.C,J1*%
X50997552Y-58199388D03*
%TD*%
D10*
%TO.C,REF\u002A\u002A*%
X42890196Y-86492205D03*
%TD*%
%TO.C,REF\u002A\u002A*%
X78890161Y-32492203D03*
%TD*%
%TO.C,REF\u002A\u002A*%
X23104699Y-32490660D03*
%TD*%
%TO.C,REF\u002A\u002A*%
X24890196Y-68492205D03*
%TD*%
%TO.C,REF\u002A\u002A*%
X101997552Y-94998775D03*
%TD*%
%TO.C,REF\u002A\u002A*%
X14488392Y-6890491D03*
%TD*%
%TO.C,REF\u002A\u002A*%
X23104699Y-69508115D03*
%TD*%
D11*
%TO.C,J1*%
X14997552Y-40199388D03*
%TD*%
D10*
%TO.C,REF\u002A\u002A*%
X23104699Y-51508115D03*
%TD*%
D11*
%TO.C,J3*%
X7797552Y-14999388D03*
%TD*%
D10*
%TO.C,REF\u002A\u002A*%
X86488391Y-95108285D03*
%TD*%
%TO.C,REF\u002A\u002A*%
X6875000Y-68999388D03*
%TD*%
%TO.C,REF\u002A\u002A*%
X6875000Y-32999388D03*
%TD*%
D11*
%TO.C,J3*%
X61797552Y-68999388D03*
%TD*%
D10*
%TO.C,REF\u002A\u002A*%
X14997190Y-23122529D03*
%TD*%
%TO.C,REF\u002A\u002A*%
X77104699Y-32490660D03*
%TD*%
%TO.C,REF\u002A\u002A*%
X60890161Y-68492203D03*
%TD*%
%TO.C,REF\u002A\u002A*%
X23122437Y-50999386D03*
%TD*%
D11*
%TO.C,J1*%
X32997552Y-22199388D03*
%TD*%
D10*
%TO.C,REF\u002A\u002A*%
X97997552Y-7000000D03*
%TD*%
%TO.C,REF\u002A\u002A*%
X86488391Y-78890490D03*
%TD*%
%TO.C,REF\u002A\u002A*%
X51505875Y-23106021D03*
%TD*%
D11*
%TO.C,J1*%
X86997552Y-94199388D03*
%TD*%
D10*
%TO.C,REF\u002A\u002A*%
X42890196Y-32492205D03*
%TD*%
D11*
%TO.C,J1*%
X50997552Y-76199388D03*
%TD*%
D10*
%TO.C,REF\u002A\u002A*%
X3000000Y-94998775D03*
%TD*%
%TO.C,REF\u002A\u002A*%
X42890196Y-14492206D03*
%TD*%
%TO.C,REF\u002A\u002A*%
X41122437Y-14999387D03*
%TD*%
%TO.C,REF\u002A\u002A*%
X6890322Y-32492211D03*
%TD*%
%TO.C,REF\u002A\u002A*%
X14488392Y-78890490D03*
%TD*%
%TO.C,REF\u002A\u002A*%
X77104699Y-68490660D03*
%TD*%
%TO.C,REF\u002A\u002A*%
X78875074Y-68999387D03*
%TD*%
%TO.C,REF\u002A\u002A*%
X32997189Y-6876247D03*
%TD*%
%TO.C,REF\u002A\u002A*%
X41104699Y-14490661D03*
%TD*%
D11*
%TO.C,J2*%
X50997552Y-7799388D03*
%TD*%
D10*
%TO.C,REF\u002A\u002A*%
X14488392Y-77108285D03*
%TD*%
%TO.C,REF\u002A\u002A*%
X2500000Y-94998775D03*
%TD*%
D11*
%TO.C,J1*%
X14997552Y-94199388D03*
%TD*%
D10*
%TO.C,REF\u002A\u002A*%
X100997552Y-94998775D03*
%TD*%
%TO.C,REF\u002A\u002A*%
X77122437Y-50999386D03*
%TD*%
%TO.C,REF\u002A\u002A*%
X95104699Y-87508115D03*
%TD*%
%TO.C,REF\u002A\u002A*%
X6890197Y-33506570D03*
%TD*%
%TO.C,REF\u002A\u002A*%
X95104699Y-32490660D03*
%TD*%
D11*
%TO.C,J1*%
X86997552Y-22199388D03*
%TD*%
D10*
%TO.C,REF\u002A\u002A*%
X50997189Y-23122529D03*
%TD*%
%TO.C,REF\u002A\u002A*%
X42890321Y-33506564D03*
%TD*%
%TO.C,REF\u002A\u002A*%
X6890162Y-15506572D03*
%TD*%
%TO.C,REF\u002A\u002A*%
X50488391Y-24890490D03*
%TD*%
%TO.C,REF\u002A\u002A*%
X42890321Y-15506564D03*
%TD*%
%TO.C,REF\u002A\u002A*%
X32488391Y-24890490D03*
%TD*%
%TO.C,REF\u002A\u002A*%
X32997189Y-23122529D03*
%TD*%
%TO.C,REF\u002A\u002A*%
X94997551Y-2000000D03*
%TD*%
D11*
%TO.C,J4*%
X94197552Y-68999388D03*
%TD*%
D10*
%TO.C,REF\u002A\u002A*%
X59122437Y-68999386D03*
%TD*%
D11*
%TO.C,J2*%
X32997552Y-7799388D03*
%TD*%
D10*
%TO.C,REF\u002A\u002A*%
X97497552Y-7000000D03*
%TD*%
%TO.C,REF\u002A\u002A*%
X94997551Y-97998776D03*
%TD*%
%TO.C,REF\u002A\u002A*%
X32488391Y-42890490D03*
%TD*%
%TO.C,REF\u002A\u002A*%
X24890321Y-51506564D03*
%TD*%
D11*
%TO.C,J2*%
X50997552Y-43799388D03*
%TD*%
D10*
%TO.C,REF\u002A\u002A*%
X2000000Y-94998775D03*
%TD*%
%TO.C,REF\u002A\u002A*%
X50488391Y-78890490D03*
%TD*%
D11*
%TO.C,J3*%
X79797552Y-86999388D03*
%TD*%
D10*
%TO.C,REF\u002A\u002A*%
X51505875Y-6892755D03*
%TD*%
D11*
%TO.C,J2*%
X86997552Y-25799388D03*
%TD*%
%TO.C,J4*%
X58197552Y-68999388D03*
%TD*%
D10*
%TO.C,REF\u002A\u002A*%
X101497552Y-7000000D03*
%TD*%
%TO.C,REF\u002A\u002A*%
X32997189Y-41122529D03*
%TD*%
%TO.C,REF\u002A\u002A*%
X94997551Y-97498776D03*
%TD*%
%TO.C,REF\u002A\u002A*%
X33505875Y-24892754D03*
%TD*%
%TO.C,REF\u002A\u002A*%
X41104699Y-86490660D03*
%TD*%
D11*
%TO.C,J2*%
X32997552Y-79799388D03*
%TD*%
D10*
%TO.C,REF\u002A\u002A*%
X42874999Y-14999388D03*
%TD*%
%TO.C,REF\u002A\u002A*%
X87505875Y-60892754D03*
%TD*%
%TO.C,REF\u002A\u002A*%
X69505875Y-60892754D03*
%TD*%
%TO.C,REF\u002A\u002A*%
X77122437Y-86999386D03*
%TD*%
D11*
%TO.C,J4*%
X58197552Y-86999388D03*
%TD*%
D10*
%TO.C,REF\u002A\u002A*%
X23104699Y-15508115D03*
%TD*%
D11*
%TO.C,J3*%
X7797552Y-86999388D03*
%TD*%
%TO.C,J3*%
X61797552Y-86999388D03*
%TD*%
%TO.C,J3*%
X79797552Y-50999388D03*
%TD*%
%TO.C,J4*%
X22197552Y-50999388D03*
%TD*%
D10*
%TO.C,REF\u002A\u002A*%
X24890196Y-86492205D03*
%TD*%
%TO.C,REF\u002A\u002A*%
X50997189Y-41122529D03*
%TD*%
%TO.C,REF\u002A\u002A*%
X6890322Y-14492212D03*
%TD*%
%TO.C,REF\u002A\u002A*%
X41104699Y-33508115D03*
%TD*%
%TO.C,REF\u002A\u002A*%
X42874999Y-86999387D03*
%TD*%
%TO.C,REF\u002A\u002A*%
X96997552Y-94998775D03*
%TD*%
%TO.C,REF\u002A\u002A*%
X86997189Y-24876246D03*
%TD*%
D11*
%TO.C,J1*%
X14997552Y-22199388D03*
%TD*%
D10*
%TO.C,REF\u002A\u002A*%
X68997189Y-78876246D03*
%TD*%
%TO.C,REF\u002A\u002A*%
X68997189Y-95122529D03*
%TD*%
%TO.C,REF\u002A\u002A*%
X4000000Y-94998775D03*
%TD*%
%TO.C,REF\u002A\u002A*%
X14997190Y-60876246D03*
%TD*%
%TO.C,REF\u002A\u002A*%
X95104699Y-50490660D03*
%TD*%
%TO.C,REF\u002A\u002A*%
X94997551Y-3000000D03*
%TD*%
%TO.C,REF\u002A\u002A*%
X14997190Y-59122529D03*
%TD*%
%TO.C,REF\u002A\u002A*%
X1000000Y-7000000D03*
%TD*%
%TO.C,REF\u002A\u002A*%
X94997551Y-5000000D03*
%TD*%
D11*
%TO.C,J2*%
X68997552Y-79799388D03*
%TD*%
D10*
%TO.C,REF\u002A\u002A*%
X87505875Y-24892754D03*
%TD*%
%TO.C,REF\u002A\u002A*%
X78875074Y-86999387D03*
%TD*%
D11*
%TO.C,J2*%
X68997552Y-7799388D03*
%TD*%
D10*
%TO.C,REF\u002A\u002A*%
X41122437Y-50999386D03*
%TD*%
D11*
%TO.C,J1*%
X32997552Y-40199388D03*
%TD*%
D10*
%TO.C,REF\u002A\u002A*%
X87505875Y-77106021D03*
%TD*%
D11*
%TO.C,J1*%
X86997552Y-58199388D03*
%TD*%
D10*
%TO.C,REF\u002A\u002A*%
X94997551Y-1500000D03*
%TD*%
%TO.C,REF\u002A\u002A*%
X95104699Y-86490660D03*
%TD*%
D11*
%TO.C,J4*%
X40197552Y-14999388D03*
%TD*%
D10*
%TO.C,REF\u002A\u002A*%
X78890161Y-14492204D03*
%TD*%
%TO.C,REF\u002A\u002A*%
X59104699Y-87508115D03*
%TD*%
%TO.C,REF\u002A\u002A*%
X41104699Y-15508115D03*
%TD*%
%TO.C,REF\u002A\u002A*%
X87505875Y-95106021D03*
%TD*%
D11*
%TO.C,J3*%
X25797552Y-14999388D03*
%TD*%
D10*
%TO.C,REF\u002A\u002A*%
X32488391Y-95108285D03*
%TD*%
%TO.C,REF\u002A\u002A*%
X86997189Y-60876246D03*
%TD*%
%TO.C,REF\u002A\u002A*%
X42874999Y-50999387D03*
%TD*%
%TO.C,REF\u002A\u002A*%
X60875074Y-50999387D03*
%TD*%
%TO.C,REF\u002A\u002A*%
X94997551Y-4000000D03*
%TD*%
%TO.C,REF\u002A\u002A*%
X60890321Y-69506564D03*
%TD*%
%TO.C,REF\u002A\u002A*%
X51505875Y-95106021D03*
%TD*%
%TO.C,REF\u002A\u002A*%
X77122437Y-68999386D03*
%TD*%
%TO.C,REF\u002A\u002A*%
X7000000Y-4500000D03*
%TD*%
D11*
%TO.C,J2*%
X50997552Y-61799388D03*
%TD*%
D10*
%TO.C,REF\u002A\u002A*%
X86997189Y-78876246D03*
%TD*%
%TO.C,REF\u002A\u002A*%
X51505875Y-77106021D03*
%TD*%
%TO.C,REF\u002A\u002A*%
X86488391Y-6890491D03*
%TD*%
%TO.C,REF\u002A\u002A*%
X99497552Y-94998775D03*
%TD*%
%TO.C,REF\u002A\u002A*%
X94997551Y-2500000D03*
%TD*%
%TO.C,REF\u002A\u002A*%
X50997189Y-60876246D03*
%TD*%
%TO.C,REF\u002A\u002A*%
X94997551Y0D03*
%TD*%
%TO.C,REF\u002A\u002A*%
X50488391Y-23108285D03*
%TD*%
%TO.C,REF\u002A\u002A*%
X23122437Y-86999386D03*
%TD*%
%TO.C,REF\u002A\u002A*%
X6890322Y-68492211D03*
%TD*%
D11*
%TO.C,J4*%
X58197552Y-32999388D03*
%TD*%
D10*
%TO.C,REF\u002A\u002A*%
X95122437Y-14999387D03*
%TD*%
D11*
%TO.C,J3*%
X7797552Y-32999388D03*
%TD*%
D10*
%TO.C,REF\u002A\u002A*%
X1500000Y-94998775D03*
%TD*%
D11*
%TO.C,J2*%
X32997552Y-61799388D03*
%TD*%
D10*
%TO.C,REF\u002A\u002A*%
X7000000Y-2500000D03*
%TD*%
%TO.C,REF\u002A\u002A*%
X94997551Y-3500000D03*
%TD*%
%TO.C,REF\u002A\u002A*%
X77122437Y-32999386D03*
%TD*%
%TO.C,REF\u002A\u002A*%
X6875075Y-14999388D03*
%TD*%
D11*
%TO.C,J1*%
X68997552Y-40199388D03*
%TD*%
D10*
%TO.C,REF\u002A\u002A*%
X50488391Y-77108285D03*
%TD*%
D11*
%TO.C,J1*%
X32997552Y-58199388D03*
%TD*%
D10*
%TO.C,REF\u002A\u002A*%
X14997190Y-78876246D03*
%TD*%
%TO.C,REF\u002A\u002A*%
X86488391Y-59108285D03*
%TD*%
%TO.C,REF\u002A\u002A*%
X4500000Y-7000000D03*
%TD*%
%TO.C,REF\u002A\u002A*%
X59104699Y-50490660D03*
%TD*%
%TO.C,REF\u002A\u002A*%
X69505875Y-59106021D03*
%TD*%
%TO.C,REF\u002A\u002A*%
X86488391Y-23108285D03*
%TD*%
%TO.C,REF\u002A\u002A*%
X69505875Y-6892755D03*
%TD*%
%TO.C,REF\u002A\u002A*%
X7000000Y-100498776D03*
%TD*%
D12*
%TO.C,REF\u002A\u002A*%
X2500000Y-2500000D03*
%TD*%
%TO.C,REF\u002A\u002A*%
X99497552Y-2500000D03*
%TD*%
%TO.C,REF\u002A\u002A*%
X2500000Y-99498776D03*
%TD*%
M02*
