%TF.GenerationSoftware,KiCad,Pcbnew,7.0.7-7.0.7~ubuntu20.04.1*%
%TF.CreationDate,2023-08-22T16:04:55-04:00*%
%TF.ProjectId,bno08x-i2c-board-v6-large-crystal-panel,626e6f30-3878-42d6-9932-632d626f6172,rev?*%
%TF.SameCoordinates,Original*%
%TF.FileFunction,Soldermask,Top*%
%TF.FilePolarity,Negative*%
%FSLAX46Y46*%
G04 Gerber Fmt 4.6, Leading zero omitted, Abs format (unit mm)*
G04 Created by KiCad (PCBNEW 7.0.7-7.0.7~ubuntu20.04.1) date 2023-08-22 16:04:55*
%MOMM*%
%LPD*%
G01*
G04 APERTURE LIST*
G04 Aperture macros list*
%AMRoundRect*
0 Rectangle with rounded corners*
0 $1 Rounding radius*
0 $2 $3 $4 $5 $6 $7 $8 $9 X,Y pos of 4 corners*
0 Add a 4 corners polygon primitive as box body*
4,1,4,$2,$3,$4,$5,$6,$7,$8,$9,$2,$3,0*
0 Add four circle primitives for the rounded corners*
1,1,$1+$1,$2,$3*
1,1,$1+$1,$4,$5*
1,1,$1+$1,$6,$7*
1,1,$1+$1,$8,$9*
0 Add four rect primitives between the rounded corners*
20,1,$1+$1,$2,$3,$4,$5,0*
20,1,$1+$1,$4,$5,$6,$7,0*
20,1,$1+$1,$6,$7,$8,$9,0*
20,1,$1+$1,$8,$9,$2,$3,0*%
G04 Aperture macros list end*
%ADD10C,0.500000*%
%ADD11RoundRect,0.135000X-0.185000X0.135000X-0.185000X-0.135000X0.185000X-0.135000X0.185000X0.135000X0*%
%ADD12R,0.254000X0.975000*%
%ADD13R,0.950000X0.254000*%
%ADD14RoundRect,0.135000X0.135000X0.185000X-0.135000X0.185000X-0.135000X-0.185000X0.135000X-0.185000X0*%
%ADD15RoundRect,0.140000X-0.140000X-0.170000X0.140000X-0.170000X0.140000X0.170000X-0.140000X0.170000X0*%
%ADD16RoundRect,0.135000X0.185000X-0.135000X0.185000X0.135000X-0.185000X0.135000X-0.185000X-0.135000X0*%
%ADD17R,0.600000X1.200000*%
%ADD18R,0.850000X0.850000*%
%ADD19RoundRect,0.135000X-0.135000X-0.185000X0.135000X-0.185000X0.135000X0.185000X-0.135000X0.185000X0*%
%ADD20RoundRect,0.140000X0.140000X0.170000X-0.140000X0.170000X-0.140000X-0.170000X0.140000X-0.170000X0*%
%ADD21RoundRect,0.140000X0.170000X-0.140000X0.170000X0.140000X-0.170000X0.140000X-0.170000X-0.140000X0*%
%ADD22C,1.000000*%
G04 APERTURE END LIST*
D10*
%TO.C,REF\u002A\u002A*%
X6890197Y-69506570D03*
%TD*%
%TO.C,REF\u002A\u002A*%
X32997189Y-24876246D03*
%TD*%
%TO.C,REF\u002A\u002A*%
X15505875Y-59106021D03*
%TD*%
%TO.C,REF\u002A\u002A*%
X59122437Y-32999386D03*
%TD*%
%TO.C,REF\u002A\u002A*%
X69505875Y-24892754D03*
%TD*%
D11*
%TO.C,R2*%
X39797552Y-16489388D03*
X39797552Y-17509388D03*
%TD*%
D10*
%TO.C,REF\u002A\u002A*%
X15505875Y-23106021D03*
%TD*%
D12*
%TO.C,U1*%
X30747552Y-67186888D03*
D13*
X30472552Y-68249388D03*
X30472552Y-68749388D03*
X30472552Y-69249388D03*
X30472552Y-69749388D03*
D12*
X30747552Y-70811888D03*
X32247552Y-70811888D03*
X32747552Y-70811888D03*
X35247552Y-70811888D03*
D13*
X35522552Y-69749388D03*
X35522552Y-69249388D03*
X35522552Y-68249388D03*
D12*
X35247552Y-67186888D03*
X32747552Y-67186888D03*
X32247552Y-67186888D03*
X31747552Y-67186888D03*
X31247552Y-67186888D03*
%TD*%
D10*
%TO.C,REF\u002A\u002A*%
X33505875Y-41106021D03*
%TD*%
%TO.C,REF\u002A\u002A*%
X15505875Y-95106021D03*
%TD*%
%TO.C,REF\u002A\u002A*%
X95104699Y-69508115D03*
%TD*%
%TO.C,REF\u002A\u002A*%
X78875074Y-32999387D03*
%TD*%
D11*
%TO.C,R2*%
X21797552Y-16489388D03*
X21797552Y-17509388D03*
%TD*%
D14*
%TO.C,R5*%
X53657552Y-44199388D03*
X52637552Y-44199388D03*
%TD*%
D15*
%TO.C,C4*%
X12367552Y-8199388D03*
X13327552Y-8199388D03*
%TD*%
%TO.C,C4*%
X84367552Y-44199388D03*
X85327552Y-44199388D03*
%TD*%
%TO.C,C4*%
X84367552Y-8199388D03*
X85327552Y-8199388D03*
%TD*%
%TO.C,C5*%
X52667552Y-82399388D03*
X53627552Y-82399388D03*
%TD*%
D10*
%TO.C,REF\u002A\u002A*%
X50488391Y-60890490D03*
%TD*%
%TO.C,REF\u002A\u002A*%
X24890196Y-14492206D03*
%TD*%
%TO.C,REF\u002A\u002A*%
X59104699Y-86490660D03*
%TD*%
D15*
%TO.C,C4*%
X48367552Y-8199388D03*
X49327552Y-8199388D03*
%TD*%
D10*
%TO.C,REF\u002A\u002A*%
X7000000Y-96998776D03*
%TD*%
%TO.C,REF\u002A\u002A*%
X7000000Y-98498776D03*
%TD*%
D12*
%TO.C,U1*%
X48747552Y-49186888D03*
D13*
X48472552Y-50249388D03*
X48472552Y-50749388D03*
X48472552Y-51249388D03*
X48472552Y-51749388D03*
D12*
X48747552Y-52811888D03*
X50247552Y-52811888D03*
X50747552Y-52811888D03*
X53247552Y-52811888D03*
D13*
X53522552Y-51749388D03*
X53522552Y-51249388D03*
X53522552Y-50249388D03*
D12*
X53247552Y-49186888D03*
X50747552Y-49186888D03*
X50247552Y-49186888D03*
X49747552Y-49186888D03*
X49247552Y-49186888D03*
%TD*%
D10*
%TO.C,REF\u002A\u002A*%
X59104699Y-69508115D03*
%TD*%
%TO.C,REF\u002A\u002A*%
X97997552Y-94998775D03*
%TD*%
D16*
%TO.C,R4*%
X26197552Y-89509388D03*
X26197552Y-88489388D03*
%TD*%
D17*
%TO.C,Y1*%
X86397552Y-64849388D03*
X87597552Y-64849388D03*
%TD*%
D10*
%TO.C,REF\u002A\u002A*%
X77104699Y-33508115D03*
%TD*%
%TO.C,REF\u002A\u002A*%
X24890321Y-69506564D03*
%TD*%
D18*
%TO.C,J4*%
X58197552Y-50999388D03*
%TD*%
%TO.C,J2*%
X68997552Y-43799388D03*
%TD*%
D16*
%TO.C,R3*%
X57797552Y-31509388D03*
X57797552Y-30489388D03*
%TD*%
D19*
%TO.C,R1*%
X34637552Y-75799388D03*
X35657552Y-75799388D03*
%TD*%
D15*
%TO.C,C4*%
X48367552Y-80199388D03*
X49327552Y-80199388D03*
%TD*%
D14*
%TO.C,R5*%
X71657552Y-62199388D03*
X70637552Y-62199388D03*
%TD*%
D10*
%TO.C,REF\u002A\u002A*%
X32488391Y-41108285D03*
%TD*%
%TO.C,REF\u002A\u002A*%
X60890161Y-50492203D03*
%TD*%
D15*
%TO.C,C4*%
X84367552Y-80199388D03*
X85327552Y-80199388D03*
%TD*%
D10*
%TO.C,REF\u002A\u002A*%
X95104699Y-33508115D03*
%TD*%
%TO.C,REF\u002A\u002A*%
X68488391Y-95108285D03*
%TD*%
D15*
%TO.C,C5*%
X88667552Y-28399388D03*
X89627552Y-28399388D03*
%TD*%
D16*
%TO.C,R4*%
X26197552Y-35509388D03*
X26197552Y-34489388D03*
%TD*%
D15*
%TO.C,C4*%
X66367552Y-44199388D03*
X67327552Y-44199388D03*
%TD*%
%TO.C,C1*%
X12387552Y-39799388D03*
X13347552Y-39799388D03*
%TD*%
D12*
%TO.C,U1*%
X12747552Y-13186888D03*
D13*
X12472552Y-14249388D03*
X12472552Y-14749388D03*
X12472552Y-15249388D03*
X12472552Y-15749388D03*
D12*
X12747552Y-16811888D03*
X14247552Y-16811888D03*
X14747552Y-16811888D03*
X17247552Y-16811888D03*
D13*
X17522552Y-15749388D03*
X17522552Y-15249388D03*
X17522552Y-14249388D03*
D12*
X17247552Y-13186888D03*
X14747552Y-13186888D03*
X14247552Y-13186888D03*
X13747552Y-13186888D03*
X13247552Y-13186888D03*
%TD*%
D18*
%TO.C,J4*%
X22197552Y-32999388D03*
%TD*%
D16*
%TO.C,R4*%
X8197552Y-89509388D03*
X8197552Y-88489388D03*
%TD*%
D10*
%TO.C,REF\u002A\u002A*%
X7000000Y-101498776D03*
%TD*%
D14*
%TO.C,R5*%
X53657552Y-80199388D03*
X52637552Y-80199388D03*
%TD*%
D10*
%TO.C,REF\u002A\u002A*%
X6875000Y-86999388D03*
%TD*%
D17*
%TO.C,Y1*%
X68397552Y-64849388D03*
X69597552Y-64849388D03*
%TD*%
D18*
%TO.C,J3*%
X25797552Y-68999388D03*
%TD*%
D20*
%TO.C,C3*%
X67327552Y-28399388D03*
X66367552Y-28399388D03*
%TD*%
D19*
%TO.C,R1*%
X16637552Y-75799388D03*
X17657552Y-75799388D03*
%TD*%
D10*
%TO.C,REF\u002A\u002A*%
X68997189Y-77122529D03*
%TD*%
D18*
%TO.C,J2*%
X14997552Y-43799388D03*
%TD*%
D10*
%TO.C,REF\u002A\u002A*%
X99997552Y-94998775D03*
%TD*%
%TO.C,REF\u002A\u002A*%
X95104699Y-15508115D03*
%TD*%
D14*
%TO.C,R5*%
X89657552Y-26199388D03*
X88637552Y-26199388D03*
%TD*%
D17*
%TO.C,Y1*%
X32397552Y-64849388D03*
X33597552Y-64849388D03*
%TD*%
D10*
%TO.C,REF\u002A\u002A*%
X100997552Y-7000000D03*
%TD*%
%TO.C,REF\u002A\u002A*%
X50997189Y-59122529D03*
%TD*%
%TO.C,REF\u002A\u002A*%
X23104699Y-33508115D03*
%TD*%
D17*
%TO.C,Y1*%
X50397552Y-82849388D03*
X51597552Y-82849388D03*
%TD*%
D10*
%TO.C,REF\u002A\u002A*%
X94997551Y-101998776D03*
%TD*%
D15*
%TO.C,C4*%
X84367552Y-26199388D03*
X85327552Y-26199388D03*
%TD*%
D14*
%TO.C,R5*%
X71657552Y-44199388D03*
X70637552Y-44199388D03*
%TD*%
%TO.C,R5*%
X35657552Y-44199388D03*
X34637552Y-44199388D03*
%TD*%
D10*
%TO.C,REF\u002A\u002A*%
X99997552Y-7000000D03*
%TD*%
D20*
%TO.C,C3*%
X85327552Y-64399388D03*
X84367552Y-64399388D03*
%TD*%
D10*
%TO.C,REF\u002A\u002A*%
X68997189Y-6876247D03*
%TD*%
D18*
%TO.C,J2*%
X86997552Y-79799388D03*
%TD*%
D12*
%TO.C,U1*%
X84747552Y-13186888D03*
D13*
X84472552Y-14249388D03*
X84472552Y-14749388D03*
X84472552Y-15249388D03*
X84472552Y-15749388D03*
D12*
X84747552Y-16811888D03*
X86247552Y-16811888D03*
X86747552Y-16811888D03*
X89247552Y-16811888D03*
D13*
X89522552Y-15749388D03*
X89522552Y-15249388D03*
X89522552Y-14249388D03*
D12*
X89247552Y-13186888D03*
X86747552Y-13186888D03*
X86247552Y-13186888D03*
X85747552Y-13186888D03*
X85247552Y-13186888D03*
%TD*%
D10*
%TO.C,REF\u002A\u002A*%
X6890197Y-51506570D03*
%TD*%
%TO.C,REF\u002A\u002A*%
X7000000Y0D03*
%TD*%
%TO.C,REF\u002A\u002A*%
X59104699Y-51508115D03*
%TD*%
D12*
%TO.C,U1*%
X30747552Y-31186888D03*
D13*
X30472552Y-32249388D03*
X30472552Y-32749388D03*
X30472552Y-33249388D03*
X30472552Y-33749388D03*
D12*
X30747552Y-34811888D03*
X32247552Y-34811888D03*
X32747552Y-34811888D03*
X35247552Y-34811888D03*
D13*
X35522552Y-33749388D03*
X35522552Y-33249388D03*
X35522552Y-32249388D03*
D12*
X35247552Y-31186888D03*
X32747552Y-31186888D03*
X32247552Y-31186888D03*
X31747552Y-31186888D03*
X31247552Y-31186888D03*
%TD*%
D10*
%TO.C,REF\u002A\u002A*%
X15505875Y-77106021D03*
%TD*%
%TO.C,REF\u002A\u002A*%
X95122437Y-32999386D03*
%TD*%
D18*
%TO.C,J1*%
X32997552Y-76199388D03*
%TD*%
D10*
%TO.C,REF\u002A\u002A*%
X94997551Y-101498776D03*
%TD*%
D18*
%TO.C,J3*%
X43797552Y-32999388D03*
%TD*%
D16*
%TO.C,R4*%
X62197552Y-35509388D03*
X62197552Y-34489388D03*
%TD*%
D10*
%TO.C,REF\u002A\u002A*%
X42874999Y-32999387D03*
%TD*%
D11*
%TO.C,R2*%
X93797552Y-88489388D03*
X93797552Y-89509388D03*
%TD*%
D18*
%TO.C,J4*%
X22197552Y-86999388D03*
%TD*%
D10*
%TO.C,REF\u002A\u002A*%
X15505875Y-78892754D03*
%TD*%
D21*
%TO.C,C2*%
X8197552Y-49479388D03*
X8197552Y-48519388D03*
%TD*%
D10*
%TO.C,REF\u002A\u002A*%
X42890321Y-69506564D03*
%TD*%
%TO.C,REF\u002A\u002A*%
X77104699Y-15508115D03*
%TD*%
%TO.C,REF\u002A\u002A*%
X59104699Y-68490660D03*
%TD*%
%TO.C,REF\u002A\u002A*%
X23122437Y-14999387D03*
%TD*%
D19*
%TO.C,R1*%
X52637552Y-93799388D03*
X53657552Y-93799388D03*
%TD*%
D10*
%TO.C,REF\u002A\u002A*%
X32488391Y-77108285D03*
%TD*%
%TO.C,REF\u002A\u002A*%
X24890196Y-33506570D03*
%TD*%
D21*
%TO.C,C2*%
X62197552Y-85479388D03*
X62197552Y-84519388D03*
%TD*%
D15*
%TO.C,C4*%
X30367552Y-44199388D03*
X31327552Y-44199388D03*
%TD*%
D10*
%TO.C,REF\u002A\u002A*%
X60875074Y-32999387D03*
%TD*%
%TO.C,REF\u002A\u002A*%
X86997189Y-95122529D03*
%TD*%
D17*
%TO.C,Y1*%
X32397552Y-10849388D03*
X33597552Y-10849388D03*
%TD*%
D16*
%TO.C,R3*%
X75797552Y-49509388D03*
X75797552Y-48489388D03*
%TD*%
D15*
%TO.C,C1*%
X84387552Y-21799388D03*
X85347552Y-21799388D03*
%TD*%
D10*
%TO.C,REF\u002A\u002A*%
X87505875Y-23106021D03*
%TD*%
D16*
%TO.C,R3*%
X57797552Y-13509388D03*
X57797552Y-12489388D03*
%TD*%
D10*
%TO.C,REF\u002A\u002A*%
X50488391Y-95108285D03*
%TD*%
D18*
%TO.C,J4*%
X76197552Y-14999388D03*
%TD*%
%TO.C,J4*%
X76197552Y-32999388D03*
%TD*%
D10*
%TO.C,REF\u002A\u002A*%
X95104699Y-68490660D03*
%TD*%
%TO.C,REF\u002A\u002A*%
X7000000Y-500000D03*
%TD*%
%TO.C,REF\u002A\u002A*%
X32488391Y-60890490D03*
%TD*%
D19*
%TO.C,R1*%
X70637552Y-93799388D03*
X71657552Y-93799388D03*
%TD*%
D18*
%TO.C,J3*%
X25797552Y-50999388D03*
%TD*%
D10*
%TO.C,REF\u002A\u002A*%
X7000000Y-3500000D03*
%TD*%
%TO.C,REF\u002A\u002A*%
X14488392Y-23108285D03*
%TD*%
D15*
%TO.C,C5*%
X16667552Y-46399388D03*
X17627552Y-46399388D03*
%TD*%
D10*
%TO.C,REF\u002A\u002A*%
X14997190Y-77122529D03*
%TD*%
D15*
%TO.C,C4*%
X66367552Y-80199388D03*
X67327552Y-80199388D03*
%TD*%
D11*
%TO.C,R2*%
X39797552Y-52489388D03*
X39797552Y-53509388D03*
%TD*%
D10*
%TO.C,REF\u002A\u002A*%
X68488391Y-77108285D03*
%TD*%
%TO.C,REF\u002A\u002A*%
X77104699Y-50490660D03*
%TD*%
D18*
%TO.C,J4*%
X40197552Y-32999388D03*
%TD*%
D10*
%TO.C,REF\u002A\u002A*%
X94997551Y-99998776D03*
%TD*%
%TO.C,REF\u002A\u002A*%
X94997551Y-100998776D03*
%TD*%
D16*
%TO.C,R4*%
X44197552Y-89509388D03*
X44197552Y-88489388D03*
%TD*%
D18*
%TO.C,J3*%
X7797552Y-68999388D03*
%TD*%
D17*
%TO.C,Y1*%
X86397552Y-10849388D03*
X87597552Y-10849388D03*
%TD*%
D10*
%TO.C,REF\u002A\u002A*%
X32997189Y-60876246D03*
%TD*%
D18*
%TO.C,J3*%
X79797552Y-14999388D03*
%TD*%
D21*
%TO.C,C2*%
X62197552Y-13479388D03*
X62197552Y-12519388D03*
%TD*%
D10*
%TO.C,REF\u002A\u002A*%
X60875074Y-68999387D03*
%TD*%
D20*
%TO.C,C3*%
X13327552Y-28399388D03*
X12367552Y-28399388D03*
%TD*%
D10*
%TO.C,REF\u002A\u002A*%
X98497552Y-94998775D03*
%TD*%
D20*
%TO.C,C3*%
X49327552Y-28399388D03*
X48367552Y-28399388D03*
%TD*%
D10*
%TO.C,REF\u002A\u002A*%
X41104699Y-50490660D03*
%TD*%
D20*
%TO.C,C3*%
X67327552Y-10399388D03*
X66367552Y-10399388D03*
%TD*%
D10*
%TO.C,REF\u002A\u002A*%
X42890196Y-50492205D03*
%TD*%
D12*
%TO.C,U1*%
X84747552Y-67186888D03*
D13*
X84472552Y-68249388D03*
X84472552Y-68749388D03*
X84472552Y-69249388D03*
X84472552Y-69749388D03*
D12*
X84747552Y-70811888D03*
X86247552Y-70811888D03*
X86747552Y-70811888D03*
X89247552Y-70811888D03*
D13*
X89522552Y-69749388D03*
X89522552Y-69249388D03*
X89522552Y-68249388D03*
D12*
X89247552Y-67186888D03*
X86747552Y-67186888D03*
X86247552Y-67186888D03*
X85747552Y-67186888D03*
X85247552Y-67186888D03*
%TD*%
D21*
%TO.C,C2*%
X8197552Y-85479388D03*
X8197552Y-84519388D03*
%TD*%
D17*
%TO.C,Y1*%
X14397552Y-28849388D03*
X15597552Y-28849388D03*
%TD*%
D10*
%TO.C,REF\u002A\u002A*%
X32997189Y-59122529D03*
%TD*%
D20*
%TO.C,C3*%
X13327552Y-82399388D03*
X12367552Y-82399388D03*
%TD*%
D16*
%TO.C,R4*%
X62197552Y-71509388D03*
X62197552Y-70489388D03*
%TD*%
D10*
%TO.C,REF\u002A\u002A*%
X87505875Y-59106021D03*
%TD*%
D19*
%TO.C,R1*%
X52637552Y-39799388D03*
X53657552Y-39799388D03*
%TD*%
D10*
%TO.C,REF\u002A\u002A*%
X94997551Y-96998776D03*
%TD*%
D18*
%TO.C,J4*%
X40197552Y-50999388D03*
%TD*%
%TO.C,J4*%
X94197552Y-50999388D03*
%TD*%
D19*
%TO.C,R1*%
X70637552Y-75799388D03*
X71657552Y-75799388D03*
%TD*%
D10*
%TO.C,REF\u002A\u002A*%
X50997189Y-95122529D03*
%TD*%
D18*
%TO.C,J3*%
X79797552Y-32999388D03*
%TD*%
%TO.C,J3*%
X43797552Y-68999388D03*
%TD*%
D10*
%TO.C,REF\u002A\u002A*%
X51505875Y-42892754D03*
%TD*%
%TO.C,REF\u002A\u002A*%
X68488391Y-23108285D03*
%TD*%
%TO.C,REF\u002A\u002A*%
X98997552Y-94998775D03*
%TD*%
%TO.C,REF\u002A\u002A*%
X68997189Y-23122529D03*
%TD*%
D16*
%TO.C,R3*%
X39797552Y-13509388D03*
X39797552Y-12489388D03*
%TD*%
D18*
%TO.C,J4*%
X94197552Y-14999388D03*
%TD*%
D10*
%TO.C,REF\u002A\u002A*%
X14997190Y-41122529D03*
%TD*%
%TO.C,REF\u002A\u002A*%
X14488392Y-95108285D03*
%TD*%
%TO.C,REF\u002A\u002A*%
X32488391Y-6890491D03*
%TD*%
D18*
%TO.C,J2*%
X14997552Y-7799388D03*
%TD*%
%TO.C,J3*%
X61797552Y-14999388D03*
%TD*%
D15*
%TO.C,C1*%
X84387552Y-57799388D03*
X85347552Y-57799388D03*
%TD*%
D12*
%TO.C,U1*%
X84747552Y-85186888D03*
D13*
X84472552Y-86249388D03*
X84472552Y-86749388D03*
X84472552Y-87249388D03*
X84472552Y-87749388D03*
D12*
X84747552Y-88811888D03*
X86247552Y-88811888D03*
X86747552Y-88811888D03*
X89247552Y-88811888D03*
D13*
X89522552Y-87749388D03*
X89522552Y-87249388D03*
X89522552Y-86249388D03*
D12*
X89247552Y-85186888D03*
X86747552Y-85186888D03*
X86247552Y-85186888D03*
X85747552Y-85186888D03*
X85247552Y-85186888D03*
%TD*%
D17*
%TO.C,Y1*%
X32397552Y-28849388D03*
X33597552Y-28849388D03*
%TD*%
D10*
%TO.C,REF\u002A\u002A*%
X14488392Y-42890490D03*
%TD*%
D18*
%TO.C,J2*%
X50997552Y-79799388D03*
%TD*%
D16*
%TO.C,R3*%
X93797552Y-49509388D03*
X93797552Y-48489388D03*
%TD*%
D10*
%TO.C,REF\u002A\u002A*%
X86997189Y-59122529D03*
%TD*%
D20*
%TO.C,C3*%
X31327552Y-10399388D03*
X30367552Y-10399388D03*
%TD*%
D10*
%TO.C,REF\u002A\u002A*%
X78890321Y-87506564D03*
%TD*%
D14*
%TO.C,R5*%
X53657552Y-26199388D03*
X52637552Y-26199388D03*
%TD*%
D10*
%TO.C,REF\u002A\u002A*%
X78890161Y-50492203D03*
%TD*%
D15*
%TO.C,C1*%
X12387552Y-21799388D03*
X13347552Y-21799388D03*
%TD*%
D16*
%TO.C,R3*%
X93797552Y-31509388D03*
X93797552Y-30489388D03*
%TD*%
D10*
%TO.C,REF\u002A\u002A*%
X5000000Y-94998775D03*
%TD*%
%TO.C,REF\u002A\u002A*%
X60890321Y-15506564D03*
%TD*%
%TO.C,REF\u002A\u002A*%
X69505875Y-42892754D03*
%TD*%
D16*
%TO.C,R4*%
X80197552Y-71509388D03*
X80197552Y-70489388D03*
%TD*%
D21*
%TO.C,C2*%
X80197552Y-13479388D03*
X80197552Y-12519388D03*
%TD*%
D18*
%TO.C,J4*%
X40197552Y-86999388D03*
%TD*%
D10*
%TO.C,REF\u002A\u002A*%
X4500000Y-94998775D03*
%TD*%
%TO.C,REF\u002A\u002A*%
X1000000Y-94998775D03*
%TD*%
%TO.C,REF\u002A\u002A*%
X33505875Y-60892754D03*
%TD*%
%TO.C,REF\u002A\u002A*%
X7000000Y-4000000D03*
%TD*%
D15*
%TO.C,C5*%
X70667552Y-10399388D03*
X71627552Y-10399388D03*
%TD*%
D12*
%TO.C,U1*%
X48747552Y-13186888D03*
D13*
X48472552Y-14249388D03*
X48472552Y-14749388D03*
X48472552Y-15249388D03*
X48472552Y-15749388D03*
D12*
X48747552Y-16811888D03*
X50247552Y-16811888D03*
X50747552Y-16811888D03*
X53247552Y-16811888D03*
D13*
X53522552Y-15749388D03*
X53522552Y-15249388D03*
X53522552Y-14249388D03*
D12*
X53247552Y-13186888D03*
X50747552Y-13186888D03*
X50247552Y-13186888D03*
X49747552Y-13186888D03*
X49247552Y-13186888D03*
%TD*%
D10*
%TO.C,REF\u002A\u002A*%
X99497552Y-7000000D03*
%TD*%
%TO.C,REF\u002A\u002A*%
X500000Y-94998775D03*
%TD*%
%TO.C,REF\u002A\u002A*%
X77104699Y-86490660D03*
%TD*%
%TO.C,REF\u002A\u002A*%
X6890322Y-86492211D03*
%TD*%
D17*
%TO.C,Y1*%
X14397552Y-46849388D03*
X15597552Y-46849388D03*
%TD*%
D10*
%TO.C,REF\u002A\u002A*%
X14997190Y-42876246D03*
%TD*%
%TO.C,REF\u002A\u002A*%
X24874999Y-68999387D03*
%TD*%
%TO.C,REF\u002A\u002A*%
X2500000Y-7000000D03*
%TD*%
%TO.C,REF\u002A\u002A*%
X100497552Y-94998775D03*
%TD*%
%TO.C,REF\u002A\u002A*%
X41104699Y-68490660D03*
%TD*%
D20*
%TO.C,C3*%
X85327552Y-10399388D03*
X84367552Y-10399388D03*
%TD*%
D10*
%TO.C,REF\u002A\u002A*%
X59104699Y-15508115D03*
%TD*%
%TO.C,REF\u002A\u002A*%
X14488392Y-24890490D03*
%TD*%
%TO.C,REF\u002A\u002A*%
X60890321Y-87506564D03*
%TD*%
%TO.C,REF\u002A\u002A*%
X59104699Y-33508115D03*
%TD*%
D16*
%TO.C,R4*%
X62197552Y-17509388D03*
X62197552Y-16489388D03*
%TD*%
D19*
%TO.C,R1*%
X34637552Y-93799388D03*
X35657552Y-93799388D03*
%TD*%
D10*
%TO.C,REF\u002A\u002A*%
X7000000Y-99498776D03*
%TD*%
D11*
%TO.C,R2*%
X39797552Y-70489388D03*
X39797552Y-71509388D03*
%TD*%
D18*
%TO.C,J2*%
X50997552Y-25799388D03*
%TD*%
D10*
%TO.C,REF\u002A\u002A*%
X77104699Y-51508115D03*
%TD*%
D16*
%TO.C,R4*%
X8197552Y-71509388D03*
X8197552Y-70489388D03*
%TD*%
D10*
%TO.C,REF\u002A\u002A*%
X2000000Y-7000000D03*
%TD*%
%TO.C,REF\u002A\u002A*%
X32488391Y-78890490D03*
%TD*%
%TO.C,REF\u002A\u002A*%
X97497552Y-94998775D03*
%TD*%
D18*
%TO.C,J4*%
X22197552Y-14999388D03*
%TD*%
D10*
%TO.C,REF\u002A\u002A*%
X87505875Y-42892754D03*
%TD*%
D15*
%TO.C,C5*%
X52667552Y-64399388D03*
X53627552Y-64399388D03*
%TD*%
D22*
%TO.C,REF\u002A\u002A*%
X99497552Y-2500000D03*
%TD*%
D18*
%TO.C,J3*%
X61797552Y-32999388D03*
%TD*%
D15*
%TO.C,C4*%
X66367552Y-62199388D03*
X67327552Y-62199388D03*
%TD*%
D18*
%TO.C,J4*%
X94197552Y-86999388D03*
%TD*%
D17*
%TO.C,Y1*%
X50397552Y-46849388D03*
X51597552Y-46849388D03*
%TD*%
D14*
%TO.C,R5*%
X35657552Y-26199388D03*
X34637552Y-26199388D03*
%TD*%
D16*
%TO.C,R3*%
X39797552Y-31509388D03*
X39797552Y-30489388D03*
%TD*%
D10*
%TO.C,REF\u002A\u002A*%
X7000000Y-98998776D03*
%TD*%
D18*
%TO.C,J1*%
X50997552Y-94199388D03*
%TD*%
D10*
%TO.C,REF\u002A\u002A*%
X86997189Y-23122529D03*
%TD*%
D14*
%TO.C,R5*%
X17657552Y-44199388D03*
X16637552Y-44199388D03*
%TD*%
D10*
%TO.C,REF\u002A\u002A*%
X60890161Y-86492203D03*
%TD*%
D12*
%TO.C,U1*%
X30747552Y-49186888D03*
D13*
X30472552Y-50249388D03*
X30472552Y-50749388D03*
X30472552Y-51249388D03*
X30472552Y-51749388D03*
D12*
X30747552Y-52811888D03*
X32247552Y-52811888D03*
X32747552Y-52811888D03*
X35247552Y-52811888D03*
D13*
X35522552Y-51749388D03*
X35522552Y-51249388D03*
X35522552Y-50249388D03*
D12*
X35247552Y-49186888D03*
X32747552Y-49186888D03*
X32247552Y-49186888D03*
X31747552Y-49186888D03*
X31247552Y-49186888D03*
%TD*%
D18*
%TO.C,J4*%
X22197552Y-68999388D03*
%TD*%
D10*
%TO.C,REF\u002A\u002A*%
X14488392Y-59108285D03*
%TD*%
%TO.C,REF\u002A\u002A*%
X51505875Y-24892754D03*
%TD*%
D18*
%TO.C,J3*%
X43797552Y-14999388D03*
%TD*%
D15*
%TO.C,C5*%
X70667552Y-46399388D03*
X71627552Y-46399388D03*
%TD*%
%TO.C,C1*%
X66387552Y-39799388D03*
X67347552Y-39799388D03*
%TD*%
D10*
%TO.C,REF\u002A\u002A*%
X6890197Y-87506570D03*
%TD*%
%TO.C,REF\u002A\u002A*%
X24874999Y-50999387D03*
%TD*%
%TO.C,REF\u002A\u002A*%
X69505875Y-77106021D03*
%TD*%
D18*
%TO.C,J2*%
X32997552Y-25799388D03*
%TD*%
D11*
%TO.C,R2*%
X57797552Y-88489388D03*
X57797552Y-89509388D03*
%TD*%
D15*
%TO.C,C1*%
X12387552Y-57799388D03*
X13347552Y-57799388D03*
%TD*%
D17*
%TO.C,Y1*%
X68397552Y-46849388D03*
X69597552Y-46849388D03*
%TD*%
D10*
%TO.C,REF\u002A\u002A*%
X24874999Y-32999388D03*
%TD*%
D15*
%TO.C,C5*%
X88667552Y-10399388D03*
X89627552Y-10399388D03*
%TD*%
D12*
%TO.C,U1*%
X66747552Y-49186888D03*
D13*
X66472552Y-50249388D03*
X66472552Y-50749388D03*
X66472552Y-51249388D03*
X66472552Y-51749388D03*
D12*
X66747552Y-52811888D03*
X68247552Y-52811888D03*
X68747552Y-52811888D03*
X71247552Y-52811888D03*
D13*
X71522552Y-51749388D03*
X71522552Y-51249388D03*
X71522552Y-50249388D03*
D12*
X71247552Y-49186888D03*
X68747552Y-49186888D03*
X68247552Y-49186888D03*
X67747552Y-49186888D03*
X67247552Y-49186888D03*
%TD*%
D15*
%TO.C,C4*%
X12367552Y-44199388D03*
X13327552Y-44199388D03*
%TD*%
%TO.C,C5*%
X34667552Y-64399388D03*
X35627552Y-64399388D03*
%TD*%
D12*
%TO.C,U1*%
X48747552Y-31186888D03*
D13*
X48472552Y-32249388D03*
X48472552Y-32749388D03*
X48472552Y-33249388D03*
X48472552Y-33749388D03*
D12*
X48747552Y-34811888D03*
X50247552Y-34811888D03*
X50747552Y-34811888D03*
X53247552Y-34811888D03*
D13*
X53522552Y-33749388D03*
X53522552Y-33249388D03*
X53522552Y-32249388D03*
D12*
X53247552Y-31186888D03*
X50747552Y-31186888D03*
X50247552Y-31186888D03*
X49747552Y-31186888D03*
X49247552Y-31186888D03*
%TD*%
D10*
%TO.C,REF\u002A\u002A*%
X69505875Y-95106021D03*
%TD*%
%TO.C,REF\u002A\u002A*%
X41104699Y-69508115D03*
%TD*%
%TO.C,REF\u002A\u002A*%
X4000000Y-7000000D03*
%TD*%
%TO.C,REF\u002A\u002A*%
X51505875Y-60892754D03*
%TD*%
D19*
%TO.C,R1*%
X16637552Y-93799388D03*
X17657552Y-93799388D03*
%TD*%
D10*
%TO.C,REF\u002A\u002A*%
X69505875Y-78892754D03*
%TD*%
D18*
%TO.C,J4*%
X94197552Y-32999388D03*
%TD*%
D16*
%TO.C,R4*%
X8197552Y-35509388D03*
X8197552Y-34489388D03*
%TD*%
D10*
%TO.C,REF\u002A\u002A*%
X32997189Y-95122529D03*
%TD*%
%TO.C,REF\u002A\u002A*%
X51505875Y-59106021D03*
%TD*%
D19*
%TO.C,R1*%
X70637552Y-21799388D03*
X71657552Y-21799388D03*
%TD*%
D21*
%TO.C,C2*%
X26197552Y-67479388D03*
X26197552Y-66519388D03*
%TD*%
D20*
%TO.C,C3*%
X67327552Y-64399388D03*
X66367552Y-64399388D03*
%TD*%
D18*
%TO.C,J2*%
X14997552Y-25799388D03*
%TD*%
%TO.C,J1*%
X68997552Y-58199388D03*
%TD*%
D10*
%TO.C,REF\u002A\u002A*%
X68488391Y-78890490D03*
%TD*%
%TO.C,REF\u002A\u002A*%
X32997189Y-77122529D03*
%TD*%
%TO.C,REF\u002A\u002A*%
X68488391Y-41108285D03*
%TD*%
D18*
%TO.C,J1*%
X68997552Y-76199388D03*
%TD*%
D15*
%TO.C,C1*%
X84387552Y-39799388D03*
X85347552Y-39799388D03*
%TD*%
D10*
%TO.C,REF\u002A\u002A*%
X500000Y-7000000D03*
%TD*%
%TO.C,REF\u002A\u002A*%
X7000000Y-3000000D03*
%TD*%
D18*
%TO.C,J2*%
X86997552Y-43799388D03*
%TD*%
D15*
%TO.C,C4*%
X12367552Y-80199388D03*
X13327552Y-80199388D03*
%TD*%
D18*
%TO.C,J1*%
X68997552Y-22199388D03*
%TD*%
D14*
%TO.C,R5*%
X17657552Y-26199388D03*
X16637552Y-26199388D03*
%TD*%
D15*
%TO.C,C5*%
X34667552Y-10399388D03*
X35627552Y-10399388D03*
%TD*%
D10*
%TO.C,REF\u002A\u002A*%
X95122437Y-86999386D03*
%TD*%
%TO.C,REF\u002A\u002A*%
X87505875Y-78892754D03*
%TD*%
%TO.C,REF\u002A\u002A*%
X59122437Y-50999386D03*
%TD*%
%TO.C,REF\u002A\u002A*%
X59122437Y-86999386D03*
%TD*%
%TO.C,REF\u002A\u002A*%
X24890321Y-32492211D03*
%TD*%
%TO.C,REF\u002A\u002A*%
X50997189Y-42876246D03*
%TD*%
D12*
%TO.C,U1*%
X12747552Y-67186888D03*
D13*
X12472552Y-68249388D03*
X12472552Y-68749388D03*
X12472552Y-69249388D03*
X12472552Y-69749388D03*
D12*
X12747552Y-70811888D03*
X14247552Y-70811888D03*
X14747552Y-70811888D03*
X17247552Y-70811888D03*
D13*
X17522552Y-69749388D03*
X17522552Y-69249388D03*
X17522552Y-68249388D03*
D12*
X17247552Y-67186888D03*
X14747552Y-67186888D03*
X14247552Y-67186888D03*
X13747552Y-67186888D03*
X13247552Y-67186888D03*
%TD*%
D18*
%TO.C,J3*%
X43797552Y-86999388D03*
%TD*%
D14*
%TO.C,R5*%
X35657552Y-80199388D03*
X34637552Y-80199388D03*
%TD*%
D10*
%TO.C,REF\u002A\u002A*%
X50997189Y-6876247D03*
%TD*%
D12*
%TO.C,U1*%
X66747552Y-85186888D03*
D13*
X66472552Y-86249388D03*
X66472552Y-86749388D03*
X66472552Y-87249388D03*
X66472552Y-87749388D03*
D12*
X66747552Y-88811888D03*
X68247552Y-88811888D03*
X68747552Y-88811888D03*
X71247552Y-88811888D03*
D13*
X71522552Y-87749388D03*
X71522552Y-87249388D03*
X71522552Y-86249388D03*
D12*
X71247552Y-85186888D03*
X68747552Y-85186888D03*
X68247552Y-85186888D03*
X67747552Y-85186888D03*
X67247552Y-85186888D03*
%TD*%
D10*
%TO.C,REF\u002A\u002A*%
X68997189Y-60876246D03*
%TD*%
D12*
%TO.C,U1*%
X66747552Y-67186888D03*
D13*
X66472552Y-68249388D03*
X66472552Y-68749388D03*
X66472552Y-69249388D03*
X66472552Y-69749388D03*
D12*
X66747552Y-70811888D03*
X68247552Y-70811888D03*
X68747552Y-70811888D03*
X71247552Y-70811888D03*
D13*
X71522552Y-69749388D03*
X71522552Y-69249388D03*
X71522552Y-68249388D03*
D12*
X71247552Y-67186888D03*
X68747552Y-67186888D03*
X68247552Y-67186888D03*
X67747552Y-67186888D03*
X67247552Y-67186888D03*
%TD*%
D16*
%TO.C,R3*%
X39797552Y-49509388D03*
X39797552Y-48489388D03*
%TD*%
D10*
%TO.C,REF\u002A\u002A*%
X24890196Y-50492205D03*
%TD*%
D17*
%TO.C,Y1*%
X50397552Y-10849388D03*
X51597552Y-10849388D03*
%TD*%
D10*
%TO.C,REF\u002A\u002A*%
X7000000Y-97998776D03*
%TD*%
%TO.C,REF\u002A\u002A*%
X59104699Y-32490660D03*
%TD*%
D15*
%TO.C,C1*%
X30387552Y-39799388D03*
X31347552Y-39799388D03*
%TD*%
D12*
%TO.C,U1*%
X84747552Y-31186888D03*
D13*
X84472552Y-32249388D03*
X84472552Y-32749388D03*
X84472552Y-33249388D03*
X84472552Y-33749388D03*
D12*
X84747552Y-34811888D03*
X86247552Y-34811888D03*
X86747552Y-34811888D03*
X89247552Y-34811888D03*
D13*
X89522552Y-33749388D03*
X89522552Y-33249388D03*
X89522552Y-32249388D03*
D12*
X89247552Y-31186888D03*
X86747552Y-31186888D03*
X86247552Y-31186888D03*
X85747552Y-31186888D03*
X85247552Y-31186888D03*
%TD*%
D10*
%TO.C,REF\u002A\u002A*%
X23104699Y-87508115D03*
%TD*%
D18*
%TO.C,J1*%
X14997552Y-58199388D03*
%TD*%
D10*
%TO.C,REF\u002A\u002A*%
X78890321Y-69506564D03*
%TD*%
D16*
%TO.C,R3*%
X75797552Y-13509388D03*
X75797552Y-12489388D03*
%TD*%
D20*
%TO.C,C3*%
X13327552Y-46399388D03*
X12367552Y-46399388D03*
%TD*%
D11*
%TO.C,R2*%
X21797552Y-70489388D03*
X21797552Y-71509388D03*
%TD*%
%TO.C,R2*%
X75797552Y-34489388D03*
X75797552Y-35509388D03*
%TD*%
D18*
%TO.C,J3*%
X61797552Y-50999388D03*
%TD*%
D19*
%TO.C,R1*%
X34637552Y-57799388D03*
X35657552Y-57799388D03*
%TD*%
D10*
%TO.C,REF\u002A\u002A*%
X87505875Y-41106021D03*
%TD*%
D21*
%TO.C,C2*%
X8197552Y-31479388D03*
X8197552Y-30519388D03*
%TD*%
D11*
%TO.C,R2*%
X57797552Y-34489388D03*
X57797552Y-35509388D03*
%TD*%
D10*
%TO.C,REF\u002A\u002A*%
X42890321Y-87506564D03*
%TD*%
D18*
%TO.C,J3*%
X25797552Y-86999388D03*
%TD*%
D15*
%TO.C,C5*%
X34667552Y-82399388D03*
X35627552Y-82399388D03*
%TD*%
D18*
%TO.C,J1*%
X86997552Y-40199388D03*
%TD*%
%TO.C,J1*%
X50997552Y-40199388D03*
%TD*%
D10*
%TO.C,REF\u002A\u002A*%
X32488391Y-59108285D03*
%TD*%
%TO.C,REF\u002A\u002A*%
X24874999Y-86999387D03*
%TD*%
%TO.C,REF\u002A\u002A*%
X98497552Y-7000000D03*
%TD*%
D15*
%TO.C,C1*%
X48387552Y-75799388D03*
X49347552Y-75799388D03*
%TD*%
D18*
%TO.C,J1*%
X68997552Y-94199388D03*
%TD*%
D10*
%TO.C,REF\u002A\u002A*%
X94997551Y-500000D03*
%TD*%
%TO.C,REF\u002A\u002A*%
X3500000Y-7000000D03*
%TD*%
D18*
%TO.C,J4*%
X76197552Y-50999388D03*
%TD*%
D15*
%TO.C,C4*%
X30367552Y-8199388D03*
X31327552Y-8199388D03*
%TD*%
D16*
%TO.C,R4*%
X44197552Y-17509388D03*
X44197552Y-16489388D03*
%TD*%
D10*
%TO.C,REF\u002A\u002A*%
X0Y-94998775D03*
%TD*%
D11*
%TO.C,R2*%
X39797552Y-34489388D03*
X39797552Y-35509388D03*
%TD*%
D21*
%TO.C,C2*%
X80197552Y-31479388D03*
X80197552Y-30519388D03*
%TD*%
%TO.C,C2*%
X80197552Y-67479388D03*
X80197552Y-66519388D03*
%TD*%
D10*
%TO.C,REF\u002A\u002A*%
X33505875Y-95106021D03*
%TD*%
D15*
%TO.C,C1*%
X48387552Y-93799388D03*
X49347552Y-93799388D03*
%TD*%
D18*
%TO.C,J4*%
X58197552Y-14999388D03*
%TD*%
D10*
%TO.C,REF\u002A\u002A*%
X69505875Y-41106021D03*
%TD*%
D12*
%TO.C,U1*%
X30747552Y-13186888D03*
D13*
X30472552Y-14249388D03*
X30472552Y-14749388D03*
X30472552Y-15249388D03*
X30472552Y-15749388D03*
D12*
X30747552Y-16811888D03*
X32247552Y-16811888D03*
X32747552Y-16811888D03*
X35247552Y-16811888D03*
D13*
X35522552Y-15749388D03*
X35522552Y-15249388D03*
X35522552Y-14249388D03*
D12*
X35247552Y-13186888D03*
X32747552Y-13186888D03*
X32247552Y-13186888D03*
X31747552Y-13186888D03*
X31247552Y-13186888D03*
%TD*%
D10*
%TO.C,REF\u002A\u002A*%
X94997551Y-4500000D03*
%TD*%
%TO.C,REF\u002A\u002A*%
X24890321Y-15506564D03*
%TD*%
%TO.C,REF\u002A\u002A*%
X87505875Y-6892755D03*
%TD*%
%TO.C,REF\u002A\u002A*%
X95122437Y-50999386D03*
%TD*%
D14*
%TO.C,R5*%
X71657552Y-26199388D03*
X70637552Y-26199388D03*
%TD*%
D18*
%TO.C,J4*%
X40197552Y-68999388D03*
%TD*%
D10*
%TO.C,REF\u002A\u002A*%
X77104699Y-14490661D03*
%TD*%
D20*
%TO.C,C3*%
X85327552Y-82399388D03*
X84367552Y-82399388D03*
%TD*%
D10*
%TO.C,REF\u002A\u002A*%
X33505875Y-6892755D03*
%TD*%
%TO.C,REF\u002A\u002A*%
X41104699Y-87508115D03*
%TD*%
%TO.C,REF\u002A\u002A*%
X41122437Y-68999386D03*
%TD*%
%TO.C,REF\u002A\u002A*%
X5000000Y-7000000D03*
%TD*%
D21*
%TO.C,C2*%
X26197552Y-85479388D03*
X26197552Y-84519388D03*
%TD*%
D10*
%TO.C,REF\u002A\u002A*%
X68488391Y-24890490D03*
%TD*%
D19*
%TO.C,R1*%
X52637552Y-57799388D03*
X53657552Y-57799388D03*
%TD*%
D12*
%TO.C,U1*%
X12747552Y-31186888D03*
D13*
X12472552Y-32249388D03*
X12472552Y-32749388D03*
X12472552Y-33249388D03*
X12472552Y-33749388D03*
D12*
X12747552Y-34811888D03*
X14247552Y-34811888D03*
X14747552Y-34811888D03*
X17247552Y-34811888D03*
D13*
X17522552Y-33749388D03*
X17522552Y-33249388D03*
X17522552Y-32249388D03*
D12*
X17247552Y-31186888D03*
X14747552Y-31186888D03*
X14247552Y-31186888D03*
X13747552Y-31186888D03*
X13247552Y-31186888D03*
%TD*%
D10*
%TO.C,REF\u002A\u002A*%
X95104699Y-14490661D03*
%TD*%
D14*
%TO.C,R5*%
X35657552Y-62199388D03*
X34637552Y-62199388D03*
%TD*%
%TO.C,R5*%
X71657552Y-8199388D03*
X70637552Y-8199388D03*
%TD*%
D10*
%TO.C,REF\u002A\u002A*%
X78890321Y-51506564D03*
%TD*%
%TO.C,REF\u002A\u002A*%
X77122437Y-14999387D03*
%TD*%
%TO.C,REF\u002A\u002A*%
X7000000Y-99998776D03*
%TD*%
D16*
%TO.C,R3*%
X21797552Y-67509388D03*
X21797552Y-66489388D03*
%TD*%
%TO.C,R3*%
X93797552Y-85509388D03*
X93797552Y-84489388D03*
%TD*%
D15*
%TO.C,C5*%
X16667552Y-10399388D03*
X17627552Y-10399388D03*
%TD*%
D10*
%TO.C,REF\u002A\u002A*%
X24874999Y-14999388D03*
%TD*%
%TO.C,REF\u002A\u002A*%
X23104699Y-14490661D03*
%TD*%
%TO.C,REF\u002A\u002A*%
X94997551Y-100498776D03*
%TD*%
D20*
%TO.C,C3*%
X13327552Y-10399388D03*
X12367552Y-10399388D03*
%TD*%
D12*
%TO.C,U1*%
X48747552Y-85186888D03*
D13*
X48472552Y-86249388D03*
X48472552Y-86749388D03*
X48472552Y-87249388D03*
X48472552Y-87749388D03*
D12*
X48747552Y-88811888D03*
X50247552Y-88811888D03*
X50747552Y-88811888D03*
X53247552Y-88811888D03*
D13*
X53522552Y-87749388D03*
X53522552Y-87249388D03*
X53522552Y-86249388D03*
D12*
X53247552Y-85186888D03*
X50747552Y-85186888D03*
X50247552Y-85186888D03*
X49747552Y-85186888D03*
X49247552Y-85186888D03*
%TD*%
D15*
%TO.C,C4*%
X66367552Y-26199388D03*
X67327552Y-26199388D03*
%TD*%
D10*
%TO.C,REF\u002A\u002A*%
X42890321Y-51506564D03*
%TD*%
%TO.C,REF\u002A\u002A*%
X68488391Y-42890490D03*
%TD*%
%TO.C,REF\u002A\u002A*%
X14997190Y-6876247D03*
%TD*%
%TO.C,REF\u002A\u002A*%
X32997189Y-42876246D03*
%TD*%
D16*
%TO.C,R3*%
X21797552Y-13509388D03*
X21797552Y-12489388D03*
%TD*%
D18*
%TO.C,J3*%
X25797552Y-32999388D03*
%TD*%
D10*
%TO.C,REF\u002A\u002A*%
X32997189Y-78876246D03*
%TD*%
D14*
%TO.C,R5*%
X35657552Y-8199388D03*
X34637552Y-8199388D03*
%TD*%
D16*
%TO.C,R4*%
X80197552Y-35509388D03*
X80197552Y-34489388D03*
%TD*%
D10*
%TO.C,REF\u002A\u002A*%
X98997552Y-7000000D03*
%TD*%
%TO.C,REF\u002A\u002A*%
X14997190Y-95122529D03*
%TD*%
D12*
%TO.C,U1*%
X12747552Y-49186888D03*
D13*
X12472552Y-50249388D03*
X12472552Y-50749388D03*
X12472552Y-51249388D03*
X12472552Y-51749388D03*
D12*
X12747552Y-52811888D03*
X14247552Y-52811888D03*
X14747552Y-52811888D03*
X17247552Y-52811888D03*
D13*
X17522552Y-51749388D03*
X17522552Y-51249388D03*
X17522552Y-50249388D03*
D12*
X17247552Y-49186888D03*
X14747552Y-49186888D03*
X14247552Y-49186888D03*
X13747552Y-49186888D03*
X13247552Y-49186888D03*
%TD*%
D18*
%TO.C,J3*%
X79797552Y-68999388D03*
%TD*%
D17*
%TO.C,Y1*%
X68397552Y-82849388D03*
X69597552Y-82849388D03*
%TD*%
D20*
%TO.C,C3*%
X13327552Y-64399388D03*
X12367552Y-64399388D03*
%TD*%
D10*
%TO.C,REF\u002A\u002A*%
X7000000Y-5000000D03*
%TD*%
%TO.C,REF\u002A\u002A*%
X86997189Y-42876246D03*
%TD*%
%TO.C,REF\u002A\u002A*%
X7000000Y-97498776D03*
%TD*%
D15*
%TO.C,C4*%
X48367552Y-26199388D03*
X49327552Y-26199388D03*
%TD*%
D16*
%TO.C,R3*%
X21797552Y-49509388D03*
X21797552Y-48489388D03*
%TD*%
D10*
%TO.C,REF\u002A\u002A*%
X78875074Y-50999387D03*
%TD*%
%TO.C,REF\u002A\u002A*%
X33505875Y-23106021D03*
%TD*%
%TO.C,REF\u002A\u002A*%
X68997189Y-59122529D03*
%TD*%
D18*
%TO.C,J2*%
X86997552Y-61799388D03*
%TD*%
D10*
%TO.C,REF\u002A\u002A*%
X3000000Y-7000000D03*
%TD*%
%TO.C,REF\u002A\u002A*%
X94997551Y-1000000D03*
%TD*%
D18*
%TO.C,J1*%
X50997552Y-22199388D03*
%TD*%
D14*
%TO.C,R5*%
X89657552Y-80199388D03*
X88637552Y-80199388D03*
%TD*%
D15*
%TO.C,C5*%
X34667552Y-28399388D03*
X35627552Y-28399388D03*
%TD*%
D10*
%TO.C,REF\u002A\u002A*%
X86488391Y-42890490D03*
%TD*%
D14*
%TO.C,R5*%
X53657552Y-8199388D03*
X52637552Y-8199388D03*
%TD*%
D10*
%TO.C,REF\u002A\u002A*%
X51505875Y-78892754D03*
%TD*%
D19*
%TO.C,R1*%
X52637552Y-75799388D03*
X53657552Y-75799388D03*
%TD*%
D16*
%TO.C,R4*%
X80197552Y-89509388D03*
X80197552Y-88489388D03*
%TD*%
D10*
%TO.C,REF\u002A\u002A*%
X1500000Y-7000000D03*
%TD*%
D15*
%TO.C,C5*%
X16667552Y-82399388D03*
X17627552Y-82399388D03*
%TD*%
D10*
%TO.C,REF\u002A\u002A*%
X78890161Y-86492203D03*
%TD*%
D15*
%TO.C,C1*%
X84387552Y-93799388D03*
X85347552Y-93799388D03*
%TD*%
D10*
%TO.C,REF\u002A\u002A*%
X0Y-7000000D03*
%TD*%
%TO.C,REF\u002A\u002A*%
X94997551Y-98998776D03*
%TD*%
%TO.C,REF\u002A\u002A*%
X23104699Y-50490660D03*
%TD*%
D20*
%TO.C,C3*%
X67327552Y-82399388D03*
X66367552Y-82399388D03*
%TD*%
D19*
%TO.C,R1*%
X88637552Y-39799388D03*
X89657552Y-39799388D03*
%TD*%
D10*
%TO.C,REF\u002A\u002A*%
X15505875Y-60892754D03*
%TD*%
%TO.C,REF\u002A\u002A*%
X7000000Y-1000000D03*
%TD*%
D18*
%TO.C,J2*%
X32997552Y-43799388D03*
%TD*%
%TO.C,J1*%
X32997552Y-94199388D03*
%TD*%
D10*
%TO.C,REF\u002A\u002A*%
X60875074Y-86999387D03*
%TD*%
%TO.C,REF\u002A\u002A*%
X41122437Y-86999386D03*
%TD*%
%TO.C,REF\u002A\u002A*%
X14997190Y-24876246D03*
%TD*%
D12*
%TO.C,U1*%
X12747552Y-85186888D03*
D13*
X12472552Y-86249388D03*
X12472552Y-86749388D03*
X12472552Y-87249388D03*
X12472552Y-87749388D03*
D12*
X12747552Y-88811888D03*
X14247552Y-88811888D03*
X14747552Y-88811888D03*
X17247552Y-88811888D03*
D13*
X17522552Y-87749388D03*
X17522552Y-87249388D03*
X17522552Y-86249388D03*
D12*
X17247552Y-85186888D03*
X14747552Y-85186888D03*
X14247552Y-85186888D03*
X13747552Y-85186888D03*
X13247552Y-85186888D03*
%TD*%
D10*
%TO.C,REF\u002A\u002A*%
X3500000Y-94998775D03*
%TD*%
%TO.C,REF\u002A\u002A*%
X15505875Y-24892754D03*
%TD*%
D20*
%TO.C,C3*%
X31327552Y-28399388D03*
X30367552Y-28399388D03*
%TD*%
D11*
%TO.C,R2*%
X57797552Y-70489388D03*
X57797552Y-71509388D03*
%TD*%
D15*
%TO.C,C5*%
X52667552Y-46399388D03*
X53627552Y-46399388D03*
%TD*%
D11*
%TO.C,R2*%
X93797552Y-34489388D03*
X93797552Y-35509388D03*
%TD*%
D10*
%TO.C,REF\u002A\u002A*%
X68488391Y-6890491D03*
%TD*%
D11*
%TO.C,R2*%
X21797552Y-88489388D03*
X21797552Y-89509388D03*
%TD*%
D10*
%TO.C,REF\u002A\u002A*%
X41104699Y-51508115D03*
%TD*%
%TO.C,REF\u002A\u002A*%
X86997189Y-77122529D03*
%TD*%
%TO.C,REF\u002A\u002A*%
X68997189Y-42876246D03*
%TD*%
%TO.C,REF\u002A\u002A*%
X59104699Y-14490661D03*
%TD*%
%TO.C,REF\u002A\u002A*%
X15505875Y-41106021D03*
%TD*%
%TO.C,REF\u002A\u002A*%
X14488392Y-60890490D03*
%TD*%
%TO.C,REF\u002A\u002A*%
X23104699Y-68490660D03*
%TD*%
%TO.C,REF\u002A\u002A*%
X41104699Y-32490660D03*
%TD*%
%TO.C,REF\u002A\u002A*%
X68488391Y-59108285D03*
%TD*%
%TO.C,REF\u002A\u002A*%
X7000000Y-101998776D03*
%TD*%
%TO.C,REF\u002A\u002A*%
X94997551Y-99498776D03*
%TD*%
%TO.C,REF\u002A\u002A*%
X78890321Y-33506564D03*
%TD*%
%TO.C,REF\u002A\u002A*%
X41122437Y-32999386D03*
%TD*%
D18*
%TO.C,J3*%
X7797552Y-50999388D03*
%TD*%
D10*
%TO.C,REF\u002A\u002A*%
X68997189Y-24876246D03*
%TD*%
D16*
%TO.C,R3*%
X39797552Y-67509388D03*
X39797552Y-66489388D03*
%TD*%
D20*
%TO.C,C3*%
X49327552Y-82399388D03*
X48367552Y-82399388D03*
%TD*%
D15*
%TO.C,C4*%
X30367552Y-26199388D03*
X31327552Y-26199388D03*
%TD*%
D10*
%TO.C,REF\u002A\u002A*%
X42874999Y-68999387D03*
%TD*%
D18*
%TO.C,J2*%
X68997552Y-61799388D03*
%TD*%
D15*
%TO.C,C4*%
X48367552Y-44199388D03*
X49327552Y-44199388D03*
%TD*%
D10*
%TO.C,REF\u002A\u002A*%
X78875074Y-14999388D03*
%TD*%
%TO.C,REF\u002A\u002A*%
X14488392Y-41108285D03*
%TD*%
D11*
%TO.C,R2*%
X21797552Y-34489388D03*
X21797552Y-35509388D03*
%TD*%
D17*
%TO.C,Y1*%
X68397552Y-28849388D03*
X69597552Y-28849388D03*
%TD*%
%TO.C,Y1*%
X86397552Y-28849388D03*
X87597552Y-28849388D03*
%TD*%
D10*
%TO.C,REF\u002A\u002A*%
X86488391Y-41108285D03*
%TD*%
%TO.C,REF\u002A\u002A*%
X51505875Y-41106021D03*
%TD*%
D11*
%TO.C,R2*%
X21797552Y-52489388D03*
X21797552Y-53509388D03*
%TD*%
D10*
%TO.C,REF\u002A\u002A*%
X15505875Y-6892755D03*
%TD*%
D17*
%TO.C,Y1*%
X14397552Y-10849388D03*
X15597552Y-10849388D03*
%TD*%
D18*
%TO.C,J2*%
X14997552Y-79799388D03*
%TD*%
%TO.C,J3*%
X43797552Y-50999388D03*
%TD*%
D10*
%TO.C,REF\u002A\u002A*%
X100497552Y-7000000D03*
%TD*%
%TO.C,REF\u002A\u002A*%
X50488391Y-42890490D03*
%TD*%
D15*
%TO.C,C1*%
X66387552Y-21799388D03*
X67347552Y-21799388D03*
%TD*%
D18*
%TO.C,J1*%
X86997552Y-76199388D03*
%TD*%
D10*
%TO.C,REF\u002A\u002A*%
X95104699Y-51508115D03*
%TD*%
%TO.C,REF\u002A\u002A*%
X60890321Y-51506564D03*
%TD*%
%TO.C,REF\u002A\u002A*%
X15505875Y-42892754D03*
%TD*%
%TO.C,REF\u002A\u002A*%
X101497552Y-94998775D03*
%TD*%
D16*
%TO.C,R4*%
X8197552Y-17509388D03*
X8197552Y-16489388D03*
%TD*%
D10*
%TO.C,REF\u002A\u002A*%
X86488391Y-24890490D03*
%TD*%
%TO.C,REF\u002A\u002A*%
X77104699Y-69508115D03*
%TD*%
%TO.C,REF\u002A\u002A*%
X23104699Y-86490660D03*
%TD*%
%TO.C,REF\u002A\u002A*%
X86488391Y-60890490D03*
%TD*%
%TO.C,REF\u002A\u002A*%
X95122437Y-68999386D03*
%TD*%
%TO.C,REF\u002A\u002A*%
X94997551Y-98498776D03*
%TD*%
%TO.C,REF\u002A\u002A*%
X50997189Y-77122529D03*
%TD*%
%TO.C,REF\u002A\u002A*%
X23122437Y-32999386D03*
%TD*%
%TO.C,REF\u002A\u002A*%
X60890161Y-32492203D03*
%TD*%
D19*
%TO.C,R1*%
X16637552Y-21799388D03*
X17657552Y-21799388D03*
%TD*%
D10*
%TO.C,REF\u002A\u002A*%
X50488391Y-41108285D03*
%TD*%
%TO.C,REF\u002A\u002A*%
X7000000Y-2000000D03*
%TD*%
%TO.C,REF\u002A\u002A*%
X50488391Y-6890491D03*
%TD*%
%TO.C,REF\u002A\u002A*%
X50488391Y-59108285D03*
%TD*%
%TO.C,REF\u002A\u002A*%
X86997189Y-41122529D03*
%TD*%
%TO.C,REF\u002A\u002A*%
X23122437Y-68999386D03*
%TD*%
D16*
%TO.C,R3*%
X75797552Y-85509388D03*
X75797552Y-84489388D03*
%TD*%
D20*
%TO.C,C3*%
X67327552Y-46399388D03*
X66367552Y-46399388D03*
%TD*%
D10*
%TO.C,REF\u002A\u002A*%
X86488391Y-77108285D03*
%TD*%
D22*
%TO.C,REF\u002A\u002A*%
X2500000Y-2500000D03*
%TD*%
D10*
%TO.C,REF\u002A\u002A*%
X33505875Y-77106021D03*
%TD*%
%TO.C,REF\u002A\u002A*%
X96997552Y-7000000D03*
%TD*%
D11*
%TO.C,R2*%
X93797552Y-52489388D03*
X93797552Y-53509388D03*
%TD*%
D14*
%TO.C,R5*%
X17657552Y-62199388D03*
X16637552Y-62199388D03*
%TD*%
D10*
%TO.C,REF\u002A\u002A*%
X7000000Y-1500000D03*
%TD*%
%TO.C,REF\u002A\u002A*%
X78890321Y-15506564D03*
%TD*%
%TO.C,REF\u002A\u002A*%
X101997552Y-7000000D03*
%TD*%
%TO.C,REF\u002A\u002A*%
X50997189Y-24876246D03*
%TD*%
D18*
%TO.C,J2*%
X68997552Y-25799388D03*
%TD*%
D16*
%TO.C,R4*%
X62197552Y-89509388D03*
X62197552Y-88489388D03*
%TD*%
D10*
%TO.C,REF\u002A\u002A*%
X69505875Y-23106021D03*
%TD*%
D19*
%TO.C,R1*%
X88637552Y-75799388D03*
X89657552Y-75799388D03*
%TD*%
D21*
%TO.C,C2*%
X80197552Y-49479388D03*
X80197552Y-48519388D03*
%TD*%
D15*
%TO.C,C1*%
X30387552Y-57799388D03*
X31347552Y-57799388D03*
%TD*%
D10*
%TO.C,REF\u002A\u002A*%
X68488391Y-60890490D03*
%TD*%
%TO.C,REF\u002A\u002A*%
X59122437Y-14999387D03*
%TD*%
D16*
%TO.C,R3*%
X57797552Y-49509388D03*
X57797552Y-48489388D03*
%TD*%
D10*
%TO.C,REF\u002A\u002A*%
X60890161Y-14492204D03*
%TD*%
D18*
%TO.C,J4*%
X76197552Y-68999388D03*
%TD*%
D10*
%TO.C,REF\u002A\u002A*%
X33505875Y-59106021D03*
%TD*%
D15*
%TO.C,C1*%
X84387552Y-75799388D03*
X85347552Y-75799388D03*
%TD*%
D12*
%TO.C,U1*%
X48747552Y-67186888D03*
D13*
X48472552Y-68249388D03*
X48472552Y-68749388D03*
X48472552Y-69249388D03*
X48472552Y-69749388D03*
D12*
X48747552Y-70811888D03*
X50247552Y-70811888D03*
X50747552Y-70811888D03*
X53247552Y-70811888D03*
D13*
X53522552Y-69749388D03*
X53522552Y-69249388D03*
X53522552Y-68249388D03*
D12*
X53247552Y-67186888D03*
X50747552Y-67186888D03*
X50247552Y-67186888D03*
X49747552Y-67186888D03*
X49247552Y-67186888D03*
%TD*%
D10*
%TO.C,REF\u002A\u002A*%
X6875000Y-50999388D03*
%TD*%
D18*
%TO.C,J2*%
X86997552Y-7799388D03*
%TD*%
D10*
%TO.C,REF\u002A\u002A*%
X33505875Y-42892754D03*
%TD*%
D17*
%TO.C,Y1*%
X68397552Y-10849388D03*
X69597552Y-10849388D03*
%TD*%
D10*
%TO.C,REF\u002A\u002A*%
X42890196Y-68492205D03*
%TD*%
%TO.C,REF\u002A\u002A*%
X68997189Y-41122529D03*
%TD*%
D18*
%TO.C,J2*%
X14997552Y-61799388D03*
%TD*%
D10*
%TO.C,REF\u002A\u002A*%
X32488391Y-23108285D03*
%TD*%
%TO.C,REF\u002A\u002A*%
X50997189Y-78876246D03*
%TD*%
D21*
%TO.C,C2*%
X44197552Y-85479388D03*
X44197552Y-84519388D03*
%TD*%
D10*
%TO.C,REF\u002A\u002A*%
X78890161Y-68492203D03*
%TD*%
D15*
%TO.C,C4*%
X30367552Y-62199388D03*
X31327552Y-62199388D03*
%TD*%
D17*
%TO.C,Y1*%
X86397552Y-46849388D03*
X87597552Y-46849388D03*
%TD*%
D19*
%TO.C,R1*%
X34637552Y-39799388D03*
X35657552Y-39799388D03*
%TD*%
D10*
%TO.C,REF\u002A\u002A*%
X7000000Y-100998776D03*
%TD*%
%TO.C,REF\u002A\u002A*%
X6890322Y-50492211D03*
%TD*%
D21*
%TO.C,C2*%
X62197552Y-49479388D03*
X62197552Y-48519388D03*
%TD*%
D17*
%TO.C,Y1*%
X32397552Y-82849388D03*
X33597552Y-82849388D03*
%TD*%
D20*
%TO.C,C3*%
X49327552Y-64399388D03*
X48367552Y-64399388D03*
%TD*%
D15*
%TO.C,C1*%
X30387552Y-93799388D03*
X31347552Y-93799388D03*
%TD*%
D21*
%TO.C,C2*%
X8197552Y-13479388D03*
X8197552Y-12519388D03*
%TD*%
D18*
%TO.C,J1*%
X14997552Y-76199388D03*
%TD*%
D10*
%TO.C,REF\u002A\u002A*%
X77104699Y-87508115D03*
%TD*%
%TO.C,REF\u002A\u002A*%
X33505875Y-78892754D03*
%TD*%
%TO.C,REF\u002A\u002A*%
X60890321Y-33506564D03*
%TD*%
%TO.C,REF\u002A\u002A*%
X60875074Y-14999388D03*
%TD*%
%TO.C,REF\u002A\u002A*%
X24890321Y-87506564D03*
%TD*%
D15*
%TO.C,C5*%
X70667552Y-82399388D03*
X71627552Y-82399388D03*
%TD*%
D17*
%TO.C,Y1*%
X50397552Y-28849388D03*
X51597552Y-28849388D03*
%TD*%
D16*
%TO.C,R4*%
X26197552Y-53509388D03*
X26197552Y-52489388D03*
%TD*%
D15*
%TO.C,C5*%
X34667552Y-46399388D03*
X35627552Y-46399388D03*
%TD*%
D21*
%TO.C,C2*%
X44197552Y-31479388D03*
X44197552Y-30519388D03*
%TD*%
D18*
%TO.C,J4*%
X76197552Y-86999388D03*
%TD*%
D10*
%TO.C,REF\u002A\u002A*%
X86997189Y-6876247D03*
%TD*%
D12*
%TO.C,U1*%
X84747552Y-49186888D03*
D13*
X84472552Y-50249388D03*
X84472552Y-50749388D03*
X84472552Y-51249388D03*
X84472552Y-51749388D03*
D12*
X84747552Y-52811888D03*
X86247552Y-52811888D03*
X86747552Y-52811888D03*
X89247552Y-52811888D03*
D13*
X89522552Y-51749388D03*
X89522552Y-51249388D03*
X89522552Y-50249388D03*
D12*
X89247552Y-49186888D03*
X86747552Y-49186888D03*
X86247552Y-49186888D03*
X85747552Y-49186888D03*
X85247552Y-49186888D03*
%TD*%
D22*
%TO.C,REF\u002A\u002A*%
X2500000Y-99498776D03*
%TD*%
D18*
%TO.C,J1*%
X50997552Y-58199388D03*
%TD*%
D16*
%TO.C,R3*%
X39797552Y-85509388D03*
X39797552Y-84489388D03*
%TD*%
D10*
%TO.C,REF\u002A\u002A*%
X42890196Y-86492205D03*
%TD*%
D15*
%TO.C,C1*%
X30387552Y-75799388D03*
X31347552Y-75799388D03*
%TD*%
D10*
%TO.C,REF\u002A\u002A*%
X78890161Y-32492203D03*
%TD*%
D16*
%TO.C,R3*%
X21797552Y-31509388D03*
X21797552Y-30489388D03*
%TD*%
D10*
%TO.C,REF\u002A\u002A*%
X23104699Y-32490660D03*
%TD*%
%TO.C,REF\u002A\u002A*%
X24890196Y-68492205D03*
%TD*%
%TO.C,REF\u002A\u002A*%
X101997552Y-94998775D03*
%TD*%
%TO.C,REF\u002A\u002A*%
X14488392Y-6890491D03*
%TD*%
%TO.C,REF\u002A\u002A*%
X23104699Y-69508115D03*
%TD*%
D15*
%TO.C,C1*%
X12387552Y-93799388D03*
X13347552Y-93799388D03*
%TD*%
D16*
%TO.C,R4*%
X8197552Y-53509388D03*
X8197552Y-52489388D03*
%TD*%
D18*
%TO.C,J1*%
X14997552Y-40199388D03*
%TD*%
D10*
%TO.C,REF\u002A\u002A*%
X23104699Y-51508115D03*
%TD*%
D14*
%TO.C,R5*%
X53657552Y-62199388D03*
X52637552Y-62199388D03*
%TD*%
D18*
%TO.C,J3*%
X7797552Y-14999388D03*
%TD*%
D21*
%TO.C,C2*%
X26197552Y-13479388D03*
X26197552Y-12519388D03*
%TD*%
D10*
%TO.C,REF\u002A\u002A*%
X86488391Y-95108285D03*
%TD*%
D16*
%TO.C,R4*%
X80197552Y-53509388D03*
X80197552Y-52489388D03*
%TD*%
D10*
%TO.C,REF\u002A\u002A*%
X6875000Y-68999388D03*
%TD*%
%TO.C,REF\u002A\u002A*%
X6875000Y-32999388D03*
%TD*%
D16*
%TO.C,R3*%
X75797552Y-31509388D03*
X75797552Y-30489388D03*
%TD*%
D18*
%TO.C,J3*%
X61797552Y-68999388D03*
%TD*%
D14*
%TO.C,R5*%
X71657552Y-80199388D03*
X70637552Y-80199388D03*
%TD*%
D10*
%TO.C,REF\u002A\u002A*%
X14997190Y-23122529D03*
%TD*%
D21*
%TO.C,C2*%
X62197552Y-67479388D03*
X62197552Y-66519388D03*
%TD*%
D10*
%TO.C,REF\u002A\u002A*%
X77104699Y-32490660D03*
%TD*%
%TO.C,REF\u002A\u002A*%
X60890161Y-68492203D03*
%TD*%
D12*
%TO.C,U1*%
X30747552Y-85186888D03*
D13*
X30472552Y-86249388D03*
X30472552Y-86749388D03*
X30472552Y-87249388D03*
X30472552Y-87749388D03*
D12*
X30747552Y-88811888D03*
X32247552Y-88811888D03*
X32747552Y-88811888D03*
X35247552Y-88811888D03*
D13*
X35522552Y-87749388D03*
X35522552Y-87249388D03*
X35522552Y-86249388D03*
D12*
X35247552Y-85186888D03*
X32747552Y-85186888D03*
X32247552Y-85186888D03*
X31747552Y-85186888D03*
X31247552Y-85186888D03*
%TD*%
D10*
%TO.C,REF\u002A\u002A*%
X23122437Y-50999386D03*
%TD*%
D18*
%TO.C,J1*%
X32997552Y-22199388D03*
%TD*%
D10*
%TO.C,REF\u002A\u002A*%
X97997552Y-7000000D03*
%TD*%
D21*
%TO.C,C2*%
X80197552Y-85479388D03*
X80197552Y-84519388D03*
%TD*%
D11*
%TO.C,R2*%
X75797552Y-88489388D03*
X75797552Y-89509388D03*
%TD*%
D12*
%TO.C,U1*%
X66747552Y-31186888D03*
D13*
X66472552Y-32249388D03*
X66472552Y-32749388D03*
X66472552Y-33249388D03*
X66472552Y-33749388D03*
D12*
X66747552Y-34811888D03*
X68247552Y-34811888D03*
X68747552Y-34811888D03*
X71247552Y-34811888D03*
D13*
X71522552Y-33749388D03*
X71522552Y-33249388D03*
X71522552Y-32249388D03*
D12*
X71247552Y-31186888D03*
X68747552Y-31186888D03*
X68247552Y-31186888D03*
X67747552Y-31186888D03*
X67247552Y-31186888D03*
%TD*%
D10*
%TO.C,REF\u002A\u002A*%
X86488391Y-78890490D03*
%TD*%
%TO.C,REF\u002A\u002A*%
X51505875Y-23106021D03*
%TD*%
D18*
%TO.C,J1*%
X86997552Y-94199388D03*
%TD*%
D14*
%TO.C,R5*%
X89657552Y-62199388D03*
X88637552Y-62199388D03*
%TD*%
D16*
%TO.C,R3*%
X57797552Y-85509388D03*
X57797552Y-84489388D03*
%TD*%
D10*
%TO.C,REF\u002A\u002A*%
X42890196Y-32492205D03*
%TD*%
D18*
%TO.C,J1*%
X50997552Y-76199388D03*
%TD*%
D10*
%TO.C,REF\u002A\u002A*%
X3000000Y-94998775D03*
%TD*%
%TO.C,REF\u002A\u002A*%
X42890196Y-14492206D03*
%TD*%
D16*
%TO.C,R3*%
X21797552Y-85509388D03*
X21797552Y-84489388D03*
%TD*%
D10*
%TO.C,REF\u002A\u002A*%
X41122437Y-14999387D03*
%TD*%
%TO.C,REF\u002A\u002A*%
X6890322Y-32492211D03*
%TD*%
%TO.C,REF\u002A\u002A*%
X14488392Y-78890490D03*
%TD*%
D16*
%TO.C,R4*%
X80197552Y-17509388D03*
X80197552Y-16489388D03*
%TD*%
D10*
%TO.C,REF\u002A\u002A*%
X77104699Y-68490660D03*
%TD*%
%TO.C,REF\u002A\u002A*%
X78875074Y-68999387D03*
%TD*%
D19*
%TO.C,R1*%
X70637552Y-57799388D03*
X71657552Y-57799388D03*
%TD*%
D10*
%TO.C,REF\u002A\u002A*%
X32997189Y-6876247D03*
%TD*%
%TO.C,REF\u002A\u002A*%
X41104699Y-14490661D03*
%TD*%
D17*
%TO.C,Y1*%
X14397552Y-64849388D03*
X15597552Y-64849388D03*
%TD*%
D18*
%TO.C,J2*%
X50997552Y-7799388D03*
%TD*%
D10*
%TO.C,REF\u002A\u002A*%
X14488392Y-77108285D03*
%TD*%
%TO.C,REF\u002A\u002A*%
X2500000Y-94998775D03*
%TD*%
D18*
%TO.C,J1*%
X14997552Y-94199388D03*
%TD*%
D21*
%TO.C,C2*%
X44197552Y-49479388D03*
X44197552Y-48519388D03*
%TD*%
D10*
%TO.C,REF\u002A\u002A*%
X100997552Y-94998775D03*
%TD*%
D20*
%TO.C,C3*%
X49327552Y-46399388D03*
X48367552Y-46399388D03*
%TD*%
D10*
%TO.C,REF\u002A\u002A*%
X77122437Y-50999386D03*
%TD*%
%TO.C,REF\u002A\u002A*%
X95104699Y-87508115D03*
%TD*%
%TO.C,REF\u002A\u002A*%
X6890197Y-33506570D03*
%TD*%
%TO.C,REF\u002A\u002A*%
X95104699Y-32490660D03*
%TD*%
D18*
%TO.C,J1*%
X86997552Y-22199388D03*
%TD*%
D10*
%TO.C,REF\u002A\u002A*%
X50997189Y-23122529D03*
%TD*%
D11*
%TO.C,R2*%
X75797552Y-70489388D03*
X75797552Y-71509388D03*
%TD*%
D10*
%TO.C,REF\u002A\u002A*%
X42890321Y-33506564D03*
%TD*%
%TO.C,REF\u002A\u002A*%
X6890162Y-15506572D03*
%TD*%
D20*
%TO.C,C3*%
X31327552Y-82399388D03*
X30367552Y-82399388D03*
%TD*%
D10*
%TO.C,REF\u002A\u002A*%
X50488391Y-24890490D03*
%TD*%
D11*
%TO.C,R2*%
X57797552Y-16489388D03*
X57797552Y-17509388D03*
%TD*%
D10*
%TO.C,REF\u002A\u002A*%
X42890321Y-15506564D03*
%TD*%
D17*
%TO.C,Y1*%
X86397552Y-82849388D03*
X87597552Y-82849388D03*
%TD*%
D10*
%TO.C,REF\u002A\u002A*%
X32488391Y-24890490D03*
%TD*%
%TO.C,REF\u002A\u002A*%
X32997189Y-23122529D03*
%TD*%
%TO.C,REF\u002A\u002A*%
X94997551Y-2000000D03*
%TD*%
D18*
%TO.C,J4*%
X94197552Y-68999388D03*
%TD*%
D10*
%TO.C,REF\u002A\u002A*%
X59122437Y-68999386D03*
%TD*%
D18*
%TO.C,J2*%
X32997552Y-7799388D03*
%TD*%
D10*
%TO.C,REF\u002A\u002A*%
X97497552Y-7000000D03*
%TD*%
%TO.C,REF\u002A\u002A*%
X94997551Y-97998776D03*
%TD*%
%TO.C,REF\u002A\u002A*%
X32488391Y-42890490D03*
%TD*%
%TO.C,REF\u002A\u002A*%
X24890321Y-51506564D03*
%TD*%
D18*
%TO.C,J2*%
X50997552Y-43799388D03*
%TD*%
D10*
%TO.C,REF\u002A\u002A*%
X2000000Y-94998775D03*
%TD*%
%TO.C,REF\u002A\u002A*%
X50488391Y-78890490D03*
%TD*%
D15*
%TO.C,C1*%
X66387552Y-75799388D03*
X67347552Y-75799388D03*
%TD*%
D19*
%TO.C,R1*%
X16637552Y-57799388D03*
X17657552Y-57799388D03*
%TD*%
D21*
%TO.C,C2*%
X26197552Y-31479388D03*
X26197552Y-30519388D03*
%TD*%
D18*
%TO.C,J3*%
X79797552Y-86999388D03*
%TD*%
D15*
%TO.C,C5*%
X70667552Y-28399388D03*
X71627552Y-28399388D03*
%TD*%
D10*
%TO.C,REF\u002A\u002A*%
X51505875Y-6892755D03*
%TD*%
D18*
%TO.C,J2*%
X86997552Y-25799388D03*
%TD*%
D15*
%TO.C,C1*%
X30387552Y-21799388D03*
X31347552Y-21799388D03*
%TD*%
D18*
%TO.C,J4*%
X58197552Y-68999388D03*
%TD*%
D10*
%TO.C,REF\u002A\u002A*%
X101497552Y-7000000D03*
%TD*%
%TO.C,REF\u002A\u002A*%
X32997189Y-41122529D03*
%TD*%
D11*
%TO.C,R2*%
X75797552Y-16489388D03*
X75797552Y-17509388D03*
%TD*%
D10*
%TO.C,REF\u002A\u002A*%
X94997551Y-97498776D03*
%TD*%
D19*
%TO.C,R1*%
X88637552Y-57799388D03*
X89657552Y-57799388D03*
%TD*%
D15*
%TO.C,C5*%
X70667552Y-64399388D03*
X71627552Y-64399388D03*
%TD*%
D10*
%TO.C,REF\u002A\u002A*%
X33505875Y-24892754D03*
%TD*%
%TO.C,REF\u002A\u002A*%
X41104699Y-86490660D03*
%TD*%
D15*
%TO.C,C1*%
X66387552Y-93799388D03*
X67347552Y-93799388D03*
%TD*%
D18*
%TO.C,J2*%
X32997552Y-79799388D03*
%TD*%
D19*
%TO.C,R1*%
X70637552Y-39799388D03*
X71657552Y-39799388D03*
%TD*%
D20*
%TO.C,C3*%
X31327552Y-64399388D03*
X30367552Y-64399388D03*
%TD*%
D10*
%TO.C,REF\u002A\u002A*%
X42874999Y-14999388D03*
%TD*%
%TO.C,REF\u002A\u002A*%
X87505875Y-60892754D03*
%TD*%
%TO.C,REF\u002A\u002A*%
X69505875Y-60892754D03*
%TD*%
D20*
%TO.C,C3*%
X49327552Y-10399388D03*
X48367552Y-10399388D03*
%TD*%
D10*
%TO.C,REF\u002A\u002A*%
X77122437Y-86999386D03*
%TD*%
D14*
%TO.C,R5*%
X17657552Y-8199388D03*
X16637552Y-8199388D03*
%TD*%
D18*
%TO.C,J4*%
X58197552Y-86999388D03*
%TD*%
D19*
%TO.C,R1*%
X16637552Y-39799388D03*
X17657552Y-39799388D03*
%TD*%
%TO.C,R1*%
X34637552Y-21799388D03*
X35657552Y-21799388D03*
%TD*%
D15*
%TO.C,C1*%
X48387552Y-57799388D03*
X49347552Y-57799388D03*
%TD*%
D10*
%TO.C,REF\u002A\u002A*%
X23104699Y-15508115D03*
%TD*%
D15*
%TO.C,C1*%
X66387552Y-57799388D03*
X67347552Y-57799388D03*
%TD*%
D16*
%TO.C,R4*%
X44197552Y-53509388D03*
X44197552Y-52489388D03*
%TD*%
D11*
%TO.C,R2*%
X39797552Y-88489388D03*
X39797552Y-89509388D03*
%TD*%
D18*
%TO.C,J3*%
X7797552Y-86999388D03*
%TD*%
%TO.C,J3*%
X61797552Y-86999388D03*
%TD*%
D16*
%TO.C,R4*%
X62197552Y-53509388D03*
X62197552Y-52489388D03*
%TD*%
D18*
%TO.C,J3*%
X79797552Y-50999388D03*
%TD*%
D11*
%TO.C,R2*%
X75797552Y-52489388D03*
X75797552Y-53509388D03*
%TD*%
D18*
%TO.C,J4*%
X22197552Y-50999388D03*
%TD*%
D10*
%TO.C,REF\u002A\u002A*%
X24890196Y-86492205D03*
%TD*%
%TO.C,REF\u002A\u002A*%
X50997189Y-41122529D03*
%TD*%
%TO.C,REF\u002A\u002A*%
X6890322Y-14492212D03*
%TD*%
%TO.C,REF\u002A\u002A*%
X41104699Y-33508115D03*
%TD*%
%TO.C,REF\u002A\u002A*%
X42874999Y-86999387D03*
%TD*%
%TO.C,REF\u002A\u002A*%
X96997552Y-94998775D03*
%TD*%
%TO.C,REF\u002A\u002A*%
X86997189Y-24876246D03*
%TD*%
D18*
%TO.C,J1*%
X14997552Y-22199388D03*
%TD*%
D10*
%TO.C,REF\u002A\u002A*%
X68997189Y-78876246D03*
%TD*%
%TO.C,REF\u002A\u002A*%
X68997189Y-95122529D03*
%TD*%
%TO.C,REF\u002A\u002A*%
X4000000Y-94998775D03*
%TD*%
%TO.C,REF\u002A\u002A*%
X14997190Y-60876246D03*
%TD*%
%TO.C,REF\u002A\u002A*%
X95104699Y-50490660D03*
%TD*%
%TO.C,REF\u002A\u002A*%
X94997551Y-3000000D03*
%TD*%
%TO.C,REF\u002A\u002A*%
X14997190Y-59122529D03*
%TD*%
D15*
%TO.C,C4*%
X12367552Y-62199388D03*
X13327552Y-62199388D03*
%TD*%
D10*
%TO.C,REF\u002A\u002A*%
X1000000Y-7000000D03*
%TD*%
D21*
%TO.C,C2*%
X44197552Y-67479388D03*
X44197552Y-66519388D03*
%TD*%
D17*
%TO.C,Y1*%
X32397552Y-46849388D03*
X33597552Y-46849388D03*
%TD*%
D10*
%TO.C,REF\u002A\u002A*%
X94997551Y-5000000D03*
%TD*%
D14*
%TO.C,R5*%
X89657552Y-44199388D03*
X88637552Y-44199388D03*
%TD*%
D19*
%TO.C,R1*%
X88637552Y-93799388D03*
X89657552Y-93799388D03*
%TD*%
D15*
%TO.C,C5*%
X52667552Y-28399388D03*
X53627552Y-28399388D03*
%TD*%
D21*
%TO.C,C2*%
X8197552Y-67479388D03*
X8197552Y-66519388D03*
%TD*%
D18*
%TO.C,J2*%
X68997552Y-79799388D03*
%TD*%
D15*
%TO.C,C4*%
X12367552Y-26199388D03*
X13327552Y-26199388D03*
%TD*%
D16*
%TO.C,R3*%
X93797552Y-67509388D03*
X93797552Y-66489388D03*
%TD*%
D10*
%TO.C,REF\u002A\u002A*%
X87505875Y-24892754D03*
%TD*%
%TO.C,REF\u002A\u002A*%
X78875074Y-86999387D03*
%TD*%
D18*
%TO.C,J2*%
X68997552Y-7799388D03*
%TD*%
D15*
%TO.C,C5*%
X88667552Y-82399388D03*
X89627552Y-82399388D03*
%TD*%
D10*
%TO.C,REF\u002A\u002A*%
X41122437Y-50999386D03*
%TD*%
D18*
%TO.C,J1*%
X32997552Y-40199388D03*
%TD*%
D16*
%TO.C,R4*%
X44197552Y-71509388D03*
X44197552Y-70489388D03*
%TD*%
D15*
%TO.C,C4*%
X66367552Y-8199388D03*
X67327552Y-8199388D03*
%TD*%
%TO.C,C5*%
X52667552Y-10399388D03*
X53627552Y-10399388D03*
%TD*%
D10*
%TO.C,REF\u002A\u002A*%
X87505875Y-77106021D03*
%TD*%
D18*
%TO.C,J1*%
X86997552Y-58199388D03*
%TD*%
D20*
%TO.C,C3*%
X85327552Y-28399388D03*
X84367552Y-28399388D03*
%TD*%
D10*
%TO.C,REF\u002A\u002A*%
X94997551Y-1500000D03*
%TD*%
%TO.C,REF\u002A\u002A*%
X95104699Y-86490660D03*
%TD*%
D18*
%TO.C,J4*%
X40197552Y-14999388D03*
%TD*%
D15*
%TO.C,C5*%
X16667552Y-28399388D03*
X17627552Y-28399388D03*
%TD*%
D10*
%TO.C,REF\u002A\u002A*%
X78890161Y-14492204D03*
%TD*%
%TO.C,REF\u002A\u002A*%
X59104699Y-87508115D03*
%TD*%
%TO.C,REF\u002A\u002A*%
X41104699Y-15508115D03*
%TD*%
%TO.C,REF\u002A\u002A*%
X87505875Y-95106021D03*
%TD*%
D18*
%TO.C,J3*%
X25797552Y-14999388D03*
%TD*%
D14*
%TO.C,R5*%
X17657552Y-80199388D03*
X16637552Y-80199388D03*
%TD*%
D10*
%TO.C,REF\u002A\u002A*%
X32488391Y-95108285D03*
%TD*%
D15*
%TO.C,C1*%
X48387552Y-39799388D03*
X49347552Y-39799388D03*
%TD*%
D10*
%TO.C,REF\u002A\u002A*%
X86997189Y-60876246D03*
%TD*%
D15*
%TO.C,C4*%
X30367552Y-80199388D03*
X31327552Y-80199388D03*
%TD*%
D16*
%TO.C,R4*%
X26197552Y-17509388D03*
X26197552Y-16489388D03*
%TD*%
D10*
%TO.C,REF\u002A\u002A*%
X42874999Y-50999387D03*
%TD*%
D15*
%TO.C,C4*%
X84367552Y-62199388D03*
X85327552Y-62199388D03*
%TD*%
%TO.C,C1*%
X48387552Y-21799388D03*
X49347552Y-21799388D03*
%TD*%
D20*
%TO.C,C3*%
X31327552Y-46399388D03*
X30367552Y-46399388D03*
%TD*%
D10*
%TO.C,REF\u002A\u002A*%
X60875074Y-50999387D03*
%TD*%
%TO.C,REF\u002A\u002A*%
X94997551Y-4000000D03*
%TD*%
%TO.C,REF\u002A\u002A*%
X60890321Y-69506564D03*
%TD*%
D16*
%TO.C,R3*%
X75797552Y-67509388D03*
X75797552Y-66489388D03*
%TD*%
D15*
%TO.C,C5*%
X88667552Y-46399388D03*
X89627552Y-46399388D03*
%TD*%
D10*
%TO.C,REF\u002A\u002A*%
X51505875Y-95106021D03*
%TD*%
%TO.C,REF\u002A\u002A*%
X77122437Y-68999386D03*
%TD*%
%TO.C,REF\u002A\u002A*%
X7000000Y-4500000D03*
%TD*%
D16*
%TO.C,R3*%
X57797552Y-67509388D03*
X57797552Y-66489388D03*
%TD*%
D18*
%TO.C,J2*%
X50997552Y-61799388D03*
%TD*%
D10*
%TO.C,REF\u002A\u002A*%
X86997189Y-78876246D03*
%TD*%
D16*
%TO.C,R3*%
X93797552Y-13509388D03*
X93797552Y-12489388D03*
%TD*%
D15*
%TO.C,C5*%
X16667552Y-64399388D03*
X17627552Y-64399388D03*
%TD*%
D10*
%TO.C,REF\u002A\u002A*%
X51505875Y-77106021D03*
%TD*%
D21*
%TO.C,C2*%
X26197552Y-49479388D03*
X26197552Y-48519388D03*
%TD*%
D10*
%TO.C,REF\u002A\u002A*%
X86488391Y-6890491D03*
%TD*%
%TO.C,REF\u002A\u002A*%
X99497552Y-94998775D03*
%TD*%
%TO.C,REF\u002A\u002A*%
X94997551Y-2500000D03*
%TD*%
D20*
%TO.C,C3*%
X85327552Y-46399388D03*
X84367552Y-46399388D03*
%TD*%
D10*
%TO.C,REF\u002A\u002A*%
X50997189Y-60876246D03*
%TD*%
D15*
%TO.C,C5*%
X88667552Y-64399388D03*
X89627552Y-64399388D03*
%TD*%
D19*
%TO.C,R1*%
X88637552Y-21799388D03*
X89657552Y-21799388D03*
%TD*%
%TO.C,R1*%
X52637552Y-21799388D03*
X53657552Y-21799388D03*
%TD*%
D10*
%TO.C,REF\u002A\u002A*%
X94997551Y0D03*
%TD*%
%TO.C,REF\u002A\u002A*%
X50488391Y-23108285D03*
%TD*%
D11*
%TO.C,R2*%
X93797552Y-16489388D03*
X93797552Y-17509388D03*
%TD*%
D10*
%TO.C,REF\u002A\u002A*%
X23122437Y-86999386D03*
%TD*%
%TO.C,REF\u002A\u002A*%
X6890322Y-68492211D03*
%TD*%
D18*
%TO.C,J4*%
X58197552Y-32999388D03*
%TD*%
D11*
%TO.C,R2*%
X93797552Y-70489388D03*
X93797552Y-71509388D03*
%TD*%
D10*
%TO.C,REF\u002A\u002A*%
X95122437Y-14999387D03*
%TD*%
D18*
%TO.C,J3*%
X7797552Y-32999388D03*
%TD*%
D10*
%TO.C,REF\u002A\u002A*%
X1500000Y-94998775D03*
%TD*%
D18*
%TO.C,J2*%
X32997552Y-61799388D03*
%TD*%
D10*
%TO.C,REF\u002A\u002A*%
X7000000Y-2500000D03*
%TD*%
D16*
%TO.C,R4*%
X44197552Y-35509388D03*
X44197552Y-34489388D03*
%TD*%
D10*
%TO.C,REF\u002A\u002A*%
X94997551Y-3500000D03*
%TD*%
%TO.C,REF\u002A\u002A*%
X77122437Y-32999386D03*
%TD*%
%TO.C,REF\u002A\u002A*%
X6875075Y-14999388D03*
%TD*%
D18*
%TO.C,J1*%
X68997552Y-40199388D03*
%TD*%
D14*
%TO.C,R5*%
X89657552Y-8199388D03*
X88637552Y-8199388D03*
%TD*%
D10*
%TO.C,REF\u002A\u002A*%
X50488391Y-77108285D03*
%TD*%
D21*
%TO.C,C2*%
X62197552Y-31479388D03*
X62197552Y-30519388D03*
%TD*%
D18*
%TO.C,J1*%
X32997552Y-58199388D03*
%TD*%
D16*
%TO.C,R4*%
X26197552Y-71509388D03*
X26197552Y-70489388D03*
%TD*%
D10*
%TO.C,REF\u002A\u002A*%
X14997190Y-78876246D03*
%TD*%
%TO.C,REF\u002A\u002A*%
X86488391Y-59108285D03*
%TD*%
D15*
%TO.C,C4*%
X48367552Y-62199388D03*
X49327552Y-62199388D03*
%TD*%
D17*
%TO.C,Y1*%
X50397552Y-64849388D03*
X51597552Y-64849388D03*
%TD*%
D10*
%TO.C,REF\u002A\u002A*%
X4500000Y-7000000D03*
%TD*%
%TO.C,REF\u002A\u002A*%
X59104699Y-50490660D03*
%TD*%
D12*
%TO.C,U1*%
X66747552Y-13186888D03*
D13*
X66472552Y-14249388D03*
X66472552Y-14749388D03*
X66472552Y-15249388D03*
X66472552Y-15749388D03*
D12*
X66747552Y-16811888D03*
X68247552Y-16811888D03*
X68747552Y-16811888D03*
X71247552Y-16811888D03*
D13*
X71522552Y-15749388D03*
X71522552Y-15249388D03*
X71522552Y-14249388D03*
D12*
X71247552Y-13186888D03*
X68747552Y-13186888D03*
X68247552Y-13186888D03*
X67747552Y-13186888D03*
X67247552Y-13186888D03*
%TD*%
D10*
%TO.C,REF\u002A\u002A*%
X69505875Y-59106021D03*
%TD*%
%TO.C,REF\u002A\u002A*%
X86488391Y-23108285D03*
%TD*%
D15*
%TO.C,C1*%
X12387552Y-75799388D03*
X13347552Y-75799388D03*
%TD*%
D17*
%TO.C,Y1*%
X14397552Y-82849388D03*
X15597552Y-82849388D03*
%TD*%
D11*
%TO.C,R2*%
X57797552Y-52489388D03*
X57797552Y-53509388D03*
%TD*%
D10*
%TO.C,REF\u002A\u002A*%
X69505875Y-6892755D03*
%TD*%
%TO.C,REF\u002A\u002A*%
X7000000Y-100498776D03*
%TD*%
D21*
%TO.C,C2*%
X44197552Y-13479388D03*
X44197552Y-12519388D03*
%TD*%
M02*
