%TF.GenerationSoftware,KiCad,Pcbnew,7.0.7-7.0.7~ubuntu20.04.1*%
%TF.CreationDate,2023-08-22T16:04:55-04:00*%
%TF.ProjectId,bno08x-i2c-board-v6-large-crystal-panel,626e6f30-3878-42d6-9932-632d626f6172,rev?*%
%TF.SameCoordinates,Original*%
%TF.FileFunction,Copper,L1,Top*%
%TF.FilePolarity,Positive*%
%FSLAX46Y46*%
G04 Gerber Fmt 4.6, Leading zero omitted, Abs format (unit mm)*
G04 Created by KiCad (PCBNEW 7.0.7-7.0.7~ubuntu20.04.1) date 2023-08-22 16:04:55*
%MOMM*%
%LPD*%
G01*
G04 APERTURE LIST*
G04 Aperture macros list*
%AMRoundRect*
0 Rectangle with rounded corners*
0 $1 Rounding radius*
0 $2 $3 $4 $5 $6 $7 $8 $9 X,Y pos of 4 corners*
0 Add a 4 corners polygon primitive as box body*
4,1,4,$2,$3,$4,$5,$6,$7,$8,$9,$2,$3,0*
0 Add four circle primitives for the rounded corners*
1,1,$1+$1,$2,$3*
1,1,$1+$1,$4,$5*
1,1,$1+$1,$6,$7*
1,1,$1+$1,$8,$9*
0 Add four rect primitives between the rounded corners*
20,1,$1+$1,$2,$3,$4,$5,0*
20,1,$1+$1,$4,$5,$6,$7,0*
20,1,$1+$1,$6,$7,$8,$9,0*
20,1,$1+$1,$8,$9,$2,$3,0*%
G04 Aperture macros list end*
%TA.AperFunction,SMDPad,CuDef*%
%ADD10RoundRect,0.135000X-0.185000X0.135000X-0.185000X-0.135000X0.185000X-0.135000X0.185000X0.135000X0*%
%TD*%
%TA.AperFunction,SMDPad,CuDef*%
%ADD11R,0.254000X0.975000*%
%TD*%
%TA.AperFunction,SMDPad,CuDef*%
%ADD12R,0.950000X0.254000*%
%TD*%
%TA.AperFunction,SMDPad,CuDef*%
%ADD13RoundRect,0.135000X0.135000X0.185000X-0.135000X0.185000X-0.135000X-0.185000X0.135000X-0.185000X0*%
%TD*%
%TA.AperFunction,SMDPad,CuDef*%
%ADD14RoundRect,0.140000X-0.140000X-0.170000X0.140000X-0.170000X0.140000X0.170000X-0.140000X0.170000X0*%
%TD*%
%TA.AperFunction,SMDPad,CuDef*%
%ADD15RoundRect,0.135000X0.185000X-0.135000X0.185000X0.135000X-0.185000X0.135000X-0.185000X-0.135000X0*%
%TD*%
%TA.AperFunction,SMDPad,CuDef*%
%ADD16R,0.600000X1.200000*%
%TD*%
%TA.AperFunction,ComponentPad*%
%ADD17R,0.850000X0.850000*%
%TD*%
%TA.AperFunction,SMDPad,CuDef*%
%ADD18RoundRect,0.135000X-0.135000X-0.185000X0.135000X-0.185000X0.135000X0.185000X-0.135000X0.185000X0*%
%TD*%
%TA.AperFunction,SMDPad,CuDef*%
%ADD19RoundRect,0.140000X0.140000X0.170000X-0.140000X0.170000X-0.140000X-0.170000X0.140000X-0.170000X0*%
%TD*%
%TA.AperFunction,SMDPad,CuDef*%
%ADD20RoundRect,0.140000X0.170000X-0.140000X0.170000X0.140000X-0.170000X0.140000X-0.170000X-0.140000X0*%
%TD*%
%TA.AperFunction,SMDPad,CuDef*%
%ADD21C,4.000000*%
%TD*%
%TA.AperFunction,ViaPad*%
%ADD22C,0.800000*%
%TD*%
%TA.AperFunction,Conductor*%
%ADD23C,0.250000*%
%TD*%
G04 APERTURE END LIST*
D10*
%TO.P,R2,1*%
%TO.N,Board_1-Net-(U1-ENV_SDA)*%
X39797552Y-16489388D03*
%TO.P,R2,2*%
%TO.N,Board_1-+3.3V*%
X39797552Y-17509388D03*
%TD*%
D11*
%TO.P,U1,1,RESV_NC*%
%TO.N,Board_16-unconnected-(U1-RESV_NC-Pad1)*%
X30747552Y-67186888D03*
D12*
%TO.P,U1,2,GND*%
%TO.N,Board_16-CLKSEL0*%
X30472552Y-68249388D03*
%TO.P,U1,3,VDD*%
%TO.N,Board_16-+3.3V*%
X30472552Y-68749388D03*
%TO.P,U1,4,BOOTN*%
%TO.N,Board_16-Net-(U1-BOOTN)*%
X30472552Y-69249388D03*
%TO.P,U1,5,PS1*%
%TO.N,Board_16-CLKSEL0*%
X30472552Y-69749388D03*
D11*
%TO.P,U1,6,PS0/WAKE*%
X30747552Y-70811888D03*
%TO.P,U1,9,CAP*%
%TO.N,Board_16-Net-(U1-CAP)*%
X32247552Y-70811888D03*
%TO.P,U1,10,CLKSEL0*%
%TO.N,Board_16-CLKSEL0*%
X32747552Y-70811888D03*
%TO.P,U1,15,ENV_SCL*%
%TO.N,Board_16-Net-(U1-ENV_SCL)*%
X35247552Y-70811888D03*
D12*
%TO.P,U1,16,ENV_SDA*%
%TO.N,Board_16-Net-(U1-ENV_SDA)*%
X35522552Y-69749388D03*
%TO.P,U1,17,SA0/H_MOSI*%
%TO.N,Board_16-CLKSEL0*%
X35522552Y-69249388D03*
%TO.P,U1,19,H_SCL/SCK/RX*%
%TO.N,Board_16-SCL*%
X35522552Y-68249388D03*
D11*
%TO.P,U1,20,H_SDA/H_MISO/TX*%
%TO.N,Board_16-SDA*%
X35247552Y-67186888D03*
%TO.P,U1,25,GNDIO*%
%TO.N,Board_16-CLKSEL0*%
X32747552Y-67186888D03*
%TO.P,U1,26,XOUT32/CLKSEL1*%
%TO.N,Board_16-CLKSEL1*%
X32247552Y-67186888D03*
%TO.P,U1,27,XIN32*%
%TO.N,Board_16-XIN32*%
X31747552Y-67186888D03*
%TO.P,U1,28,VDDIO*%
%TO.N,Board_16-+3.3V*%
X31247552Y-67186888D03*
%TD*%
D10*
%TO.P,R2,1*%
%TO.N,Board_0-Net-(U1-ENV_SDA)*%
X21797552Y-16489388D03*
%TO.P,R2,2*%
%TO.N,Board_0-+3.3V*%
X21797552Y-17509388D03*
%TD*%
D13*
%TO.P,R5,1*%
%TO.N,Board_12-+3.3V*%
X53657552Y-44199388D03*
%TO.P,R5,2*%
%TO.N,Board_12-SDA*%
X52637552Y-44199388D03*
%TD*%
D14*
%TO.P,C4,1*%
%TO.N,Board_0-+3.3V*%
X12367552Y-8199388D03*
%TO.P,C4,2*%
%TO.N,Board_0-CLKSEL0*%
X13327552Y-8199388D03*
%TD*%
%TO.P,C4,1*%
%TO.N,Board_14-+3.3V*%
X84367552Y-44199388D03*
%TO.P,C4,2*%
%TO.N,Board_14-CLKSEL0*%
X85327552Y-44199388D03*
%TD*%
%TO.P,C4,1*%
%TO.N,Board_4-+3.3V*%
X84367552Y-8199388D03*
%TO.P,C4,2*%
%TO.N,Board_4-CLKSEL0*%
X85327552Y-8199388D03*
%TD*%
%TO.P,C5,1*%
%TO.N,Board_22-CLKSEL1*%
X52667552Y-82399388D03*
%TO.P,C5,2*%
%TO.N,Board_22-CLKSEL0*%
X53627552Y-82399388D03*
%TD*%
%TO.P,C4,1*%
%TO.N,Board_2-+3.3V*%
X48367552Y-8199388D03*
%TO.P,C4,2*%
%TO.N,Board_2-CLKSEL0*%
X49327552Y-8199388D03*
%TD*%
D11*
%TO.P,U1,1,RESV_NC*%
%TO.N,Board_12-unconnected-(U1-RESV_NC-Pad1)*%
X48747552Y-49186888D03*
D12*
%TO.P,U1,2,GND*%
%TO.N,Board_12-CLKSEL0*%
X48472552Y-50249388D03*
%TO.P,U1,3,VDD*%
%TO.N,Board_12-+3.3V*%
X48472552Y-50749388D03*
%TO.P,U1,4,BOOTN*%
%TO.N,Board_12-Net-(U1-BOOTN)*%
X48472552Y-51249388D03*
%TO.P,U1,5,PS1*%
%TO.N,Board_12-CLKSEL0*%
X48472552Y-51749388D03*
D11*
%TO.P,U1,6,PS0/WAKE*%
X48747552Y-52811888D03*
%TO.P,U1,9,CAP*%
%TO.N,Board_12-Net-(U1-CAP)*%
X50247552Y-52811888D03*
%TO.P,U1,10,CLKSEL0*%
%TO.N,Board_12-CLKSEL0*%
X50747552Y-52811888D03*
%TO.P,U1,15,ENV_SCL*%
%TO.N,Board_12-Net-(U1-ENV_SCL)*%
X53247552Y-52811888D03*
D12*
%TO.P,U1,16,ENV_SDA*%
%TO.N,Board_12-Net-(U1-ENV_SDA)*%
X53522552Y-51749388D03*
%TO.P,U1,17,SA0/H_MOSI*%
%TO.N,Board_12-CLKSEL0*%
X53522552Y-51249388D03*
%TO.P,U1,19,H_SCL/SCK/RX*%
%TO.N,Board_12-SCL*%
X53522552Y-50249388D03*
D11*
%TO.P,U1,20,H_SDA/H_MISO/TX*%
%TO.N,Board_12-SDA*%
X53247552Y-49186888D03*
%TO.P,U1,25,GNDIO*%
%TO.N,Board_12-CLKSEL0*%
X50747552Y-49186888D03*
%TO.P,U1,26,XOUT32/CLKSEL1*%
%TO.N,Board_12-CLKSEL1*%
X50247552Y-49186888D03*
%TO.P,U1,27,XIN32*%
%TO.N,Board_12-XIN32*%
X49747552Y-49186888D03*
%TO.P,U1,28,VDDIO*%
%TO.N,Board_12-+3.3V*%
X49247552Y-49186888D03*
%TD*%
D15*
%TO.P,R4,1*%
%TO.N,Board_21-Net-(U1-BOOTN)*%
X26197552Y-89509388D03*
%TO.P,R4,2*%
%TO.N,Board_21-+3.3V*%
X26197552Y-88489388D03*
%TD*%
D16*
%TO.P,Y1,1,1*%
%TO.N,Board_19-XIN32*%
X86397552Y-64849388D03*
%TO.P,Y1,2,2*%
%TO.N,Board_19-CLKSEL1*%
X87597552Y-64849388D03*
%TD*%
D17*
%TO.P,J4,1,Pin_1*%
%TO.N,Board_12-CLKSEL0*%
X58197552Y-50999388D03*
%TD*%
%TO.P,J2,1,Pin_1*%
%TO.N,Board_13-SDA*%
X68997552Y-43799388D03*
%TD*%
D15*
%TO.P,R3,1*%
%TO.N,Board_7-SCL*%
X57797552Y-31509388D03*
%TO.P,R3,2*%
%TO.N,Board_7-+3.3V*%
X57797552Y-30489388D03*
%TD*%
D18*
%TO.P,R1,1*%
%TO.N,Board_16-+3.3V*%
X34637552Y-75799388D03*
%TO.P,R1,2*%
%TO.N,Board_16-Net-(U1-ENV_SCL)*%
X35657552Y-75799388D03*
%TD*%
D14*
%TO.P,C4,1*%
%TO.N,Board_22-+3.3V*%
X48367552Y-80199388D03*
%TO.P,C4,2*%
%TO.N,Board_22-CLKSEL0*%
X49327552Y-80199388D03*
%TD*%
D13*
%TO.P,R5,1*%
%TO.N,Board_18-+3.3V*%
X71657552Y-62199388D03*
%TO.P,R5,2*%
%TO.N,Board_18-SDA*%
X70637552Y-62199388D03*
%TD*%
D14*
%TO.P,C4,1*%
%TO.N,Board_24-+3.3V*%
X84367552Y-80199388D03*
%TO.P,C4,2*%
%TO.N,Board_24-CLKSEL0*%
X85327552Y-80199388D03*
%TD*%
%TO.P,C5,1*%
%TO.N,Board_9-CLKSEL1*%
X88667552Y-28399388D03*
%TO.P,C5,2*%
%TO.N,Board_9-CLKSEL0*%
X89627552Y-28399388D03*
%TD*%
D15*
%TO.P,R4,1*%
%TO.N,Board_6-Net-(U1-BOOTN)*%
X26197552Y-35509388D03*
%TO.P,R4,2*%
%TO.N,Board_6-+3.3V*%
X26197552Y-34489388D03*
%TD*%
D14*
%TO.P,C4,1*%
%TO.N,Board_13-+3.3V*%
X66367552Y-44199388D03*
%TO.P,C4,2*%
%TO.N,Board_13-CLKSEL0*%
X67327552Y-44199388D03*
%TD*%
%TO.P,C1,1*%
%TO.N,Board_5-CLKSEL0*%
X12387552Y-39799388D03*
%TO.P,C1,2*%
%TO.N,Board_5-Net-(U1-CAP)*%
X13347552Y-39799388D03*
%TD*%
D11*
%TO.P,U1,1,RESV_NC*%
%TO.N,Board_0-unconnected-(U1-RESV_NC-Pad1)*%
X12747552Y-13186888D03*
D12*
%TO.P,U1,2,GND*%
%TO.N,Board_0-CLKSEL0*%
X12472552Y-14249388D03*
%TO.P,U1,3,VDD*%
%TO.N,Board_0-+3.3V*%
X12472552Y-14749388D03*
%TO.P,U1,4,BOOTN*%
%TO.N,Board_0-Net-(U1-BOOTN)*%
X12472552Y-15249388D03*
%TO.P,U1,5,PS1*%
%TO.N,Board_0-CLKSEL0*%
X12472552Y-15749388D03*
D11*
%TO.P,U1,6,PS0/WAKE*%
X12747552Y-16811888D03*
%TO.P,U1,9,CAP*%
%TO.N,Board_0-Net-(U1-CAP)*%
X14247552Y-16811888D03*
%TO.P,U1,10,CLKSEL0*%
%TO.N,Board_0-CLKSEL0*%
X14747552Y-16811888D03*
%TO.P,U1,15,ENV_SCL*%
%TO.N,Board_0-Net-(U1-ENV_SCL)*%
X17247552Y-16811888D03*
D12*
%TO.P,U1,16,ENV_SDA*%
%TO.N,Board_0-Net-(U1-ENV_SDA)*%
X17522552Y-15749388D03*
%TO.P,U1,17,SA0/H_MOSI*%
%TO.N,Board_0-CLKSEL0*%
X17522552Y-15249388D03*
%TO.P,U1,19,H_SCL/SCK/RX*%
%TO.N,Board_0-SCL*%
X17522552Y-14249388D03*
D11*
%TO.P,U1,20,H_SDA/H_MISO/TX*%
%TO.N,Board_0-SDA*%
X17247552Y-13186888D03*
%TO.P,U1,25,GNDIO*%
%TO.N,Board_0-CLKSEL0*%
X14747552Y-13186888D03*
%TO.P,U1,26,XOUT32/CLKSEL1*%
%TO.N,Board_0-CLKSEL1*%
X14247552Y-13186888D03*
%TO.P,U1,27,XIN32*%
%TO.N,Board_0-XIN32*%
X13747552Y-13186888D03*
%TO.P,U1,28,VDDIO*%
%TO.N,Board_0-+3.3V*%
X13247552Y-13186888D03*
%TD*%
D17*
%TO.P,J4,1,Pin_1*%
%TO.N,Board_5-CLKSEL0*%
X22197552Y-32999388D03*
%TD*%
D15*
%TO.P,R4,1*%
%TO.N,Board_20-Net-(U1-BOOTN)*%
X8197552Y-89509388D03*
%TO.P,R4,2*%
%TO.N,Board_20-+3.3V*%
X8197552Y-88489388D03*
%TD*%
D13*
%TO.P,R5,1*%
%TO.N,Board_22-+3.3V*%
X53657552Y-80199388D03*
%TO.P,R5,2*%
%TO.N,Board_22-SDA*%
X52637552Y-80199388D03*
%TD*%
D16*
%TO.P,Y1,1,1*%
%TO.N,Board_18-XIN32*%
X68397552Y-64849388D03*
%TO.P,Y1,2,2*%
%TO.N,Board_18-CLKSEL1*%
X69597552Y-64849388D03*
%TD*%
D17*
%TO.P,J3,1,Pin_1*%
%TO.N,Board_16-+3.3V*%
X25797552Y-68999388D03*
%TD*%
D19*
%TO.P,C3,1*%
%TO.N,Board_8-XIN32*%
X67327552Y-28399388D03*
%TO.P,C3,2*%
%TO.N,Board_8-CLKSEL0*%
X66367552Y-28399388D03*
%TD*%
D18*
%TO.P,R1,1*%
%TO.N,Board_15-+3.3V*%
X16637552Y-75799388D03*
%TO.P,R1,2*%
%TO.N,Board_15-Net-(U1-ENV_SCL)*%
X17657552Y-75799388D03*
%TD*%
D17*
%TO.P,J2,1,Pin_1*%
%TO.N,Board_10-SDA*%
X14997552Y-43799388D03*
%TD*%
D13*
%TO.P,R5,1*%
%TO.N,Board_9-+3.3V*%
X89657552Y-26199388D03*
%TO.P,R5,2*%
%TO.N,Board_9-SDA*%
X88637552Y-26199388D03*
%TD*%
D16*
%TO.P,Y1,1,1*%
%TO.N,Board_16-XIN32*%
X32397552Y-64849388D03*
%TO.P,Y1,2,2*%
%TO.N,Board_16-CLKSEL1*%
X33597552Y-64849388D03*
%TD*%
%TO.P,Y1,1,1*%
%TO.N,Board_22-XIN32*%
X50397552Y-82849388D03*
%TO.P,Y1,2,2*%
%TO.N,Board_22-CLKSEL1*%
X51597552Y-82849388D03*
%TD*%
D14*
%TO.P,C4,1*%
%TO.N,Board_9-+3.3V*%
X84367552Y-26199388D03*
%TO.P,C4,2*%
%TO.N,Board_9-CLKSEL0*%
X85327552Y-26199388D03*
%TD*%
D13*
%TO.P,R5,1*%
%TO.N,Board_13-+3.3V*%
X71657552Y-44199388D03*
%TO.P,R5,2*%
%TO.N,Board_13-SDA*%
X70637552Y-44199388D03*
%TD*%
%TO.P,R5,1*%
%TO.N,Board_11-+3.3V*%
X35657552Y-44199388D03*
%TO.P,R5,2*%
%TO.N,Board_11-SDA*%
X34637552Y-44199388D03*
%TD*%
D19*
%TO.P,C3,1*%
%TO.N,Board_19-XIN32*%
X85327552Y-64399388D03*
%TO.P,C3,2*%
%TO.N,Board_19-CLKSEL0*%
X84367552Y-64399388D03*
%TD*%
D17*
%TO.P,J2,1,Pin_1*%
%TO.N,Board_24-SDA*%
X86997552Y-79799388D03*
%TD*%
D11*
%TO.P,U1,1,RESV_NC*%
%TO.N,Board_4-unconnected-(U1-RESV_NC-Pad1)*%
X84747552Y-13186888D03*
D12*
%TO.P,U1,2,GND*%
%TO.N,Board_4-CLKSEL0*%
X84472552Y-14249388D03*
%TO.P,U1,3,VDD*%
%TO.N,Board_4-+3.3V*%
X84472552Y-14749388D03*
%TO.P,U1,4,BOOTN*%
%TO.N,Board_4-Net-(U1-BOOTN)*%
X84472552Y-15249388D03*
%TO.P,U1,5,PS1*%
%TO.N,Board_4-CLKSEL0*%
X84472552Y-15749388D03*
D11*
%TO.P,U1,6,PS0/WAKE*%
X84747552Y-16811888D03*
%TO.P,U1,9,CAP*%
%TO.N,Board_4-Net-(U1-CAP)*%
X86247552Y-16811888D03*
%TO.P,U1,10,CLKSEL0*%
%TO.N,Board_4-CLKSEL0*%
X86747552Y-16811888D03*
%TO.P,U1,15,ENV_SCL*%
%TO.N,Board_4-Net-(U1-ENV_SCL)*%
X89247552Y-16811888D03*
D12*
%TO.P,U1,16,ENV_SDA*%
%TO.N,Board_4-Net-(U1-ENV_SDA)*%
X89522552Y-15749388D03*
%TO.P,U1,17,SA0/H_MOSI*%
%TO.N,Board_4-CLKSEL0*%
X89522552Y-15249388D03*
%TO.P,U1,19,H_SCL/SCK/RX*%
%TO.N,Board_4-SCL*%
X89522552Y-14249388D03*
D11*
%TO.P,U1,20,H_SDA/H_MISO/TX*%
%TO.N,Board_4-SDA*%
X89247552Y-13186888D03*
%TO.P,U1,25,GNDIO*%
%TO.N,Board_4-CLKSEL0*%
X86747552Y-13186888D03*
%TO.P,U1,26,XOUT32/CLKSEL1*%
%TO.N,Board_4-CLKSEL1*%
X86247552Y-13186888D03*
%TO.P,U1,27,XIN32*%
%TO.N,Board_4-XIN32*%
X85747552Y-13186888D03*
%TO.P,U1,28,VDDIO*%
%TO.N,Board_4-+3.3V*%
X85247552Y-13186888D03*
%TD*%
%TO.P,U1,1,RESV_NC*%
%TO.N,Board_6-unconnected-(U1-RESV_NC-Pad1)*%
X30747552Y-31186888D03*
D12*
%TO.P,U1,2,GND*%
%TO.N,Board_6-CLKSEL0*%
X30472552Y-32249388D03*
%TO.P,U1,3,VDD*%
%TO.N,Board_6-+3.3V*%
X30472552Y-32749388D03*
%TO.P,U1,4,BOOTN*%
%TO.N,Board_6-Net-(U1-BOOTN)*%
X30472552Y-33249388D03*
%TO.P,U1,5,PS1*%
%TO.N,Board_6-CLKSEL0*%
X30472552Y-33749388D03*
D11*
%TO.P,U1,6,PS0/WAKE*%
X30747552Y-34811888D03*
%TO.P,U1,9,CAP*%
%TO.N,Board_6-Net-(U1-CAP)*%
X32247552Y-34811888D03*
%TO.P,U1,10,CLKSEL0*%
%TO.N,Board_6-CLKSEL0*%
X32747552Y-34811888D03*
%TO.P,U1,15,ENV_SCL*%
%TO.N,Board_6-Net-(U1-ENV_SCL)*%
X35247552Y-34811888D03*
D12*
%TO.P,U1,16,ENV_SDA*%
%TO.N,Board_6-Net-(U1-ENV_SDA)*%
X35522552Y-33749388D03*
%TO.P,U1,17,SA0/H_MOSI*%
%TO.N,Board_6-CLKSEL0*%
X35522552Y-33249388D03*
%TO.P,U1,19,H_SCL/SCK/RX*%
%TO.N,Board_6-SCL*%
X35522552Y-32249388D03*
D11*
%TO.P,U1,20,H_SDA/H_MISO/TX*%
%TO.N,Board_6-SDA*%
X35247552Y-31186888D03*
%TO.P,U1,25,GNDIO*%
%TO.N,Board_6-CLKSEL0*%
X32747552Y-31186888D03*
%TO.P,U1,26,XOUT32/CLKSEL1*%
%TO.N,Board_6-CLKSEL1*%
X32247552Y-31186888D03*
%TO.P,U1,27,XIN32*%
%TO.N,Board_6-XIN32*%
X31747552Y-31186888D03*
%TO.P,U1,28,VDDIO*%
%TO.N,Board_6-+3.3V*%
X31247552Y-31186888D03*
%TD*%
D17*
%TO.P,J1,1,Pin_1*%
%TO.N,Board_16-SCL*%
X32997552Y-76199388D03*
%TD*%
%TO.P,J3,1,Pin_1*%
%TO.N,Board_7-+3.3V*%
X43797552Y-32999388D03*
%TD*%
D15*
%TO.P,R4,1*%
%TO.N,Board_8-Net-(U1-BOOTN)*%
X62197552Y-35509388D03*
%TO.P,R4,2*%
%TO.N,Board_8-+3.3V*%
X62197552Y-34489388D03*
%TD*%
D10*
%TO.P,R2,1*%
%TO.N,Board_24-Net-(U1-ENV_SDA)*%
X93797552Y-88489388D03*
%TO.P,R2,2*%
%TO.N,Board_24-+3.3V*%
X93797552Y-89509388D03*
%TD*%
D17*
%TO.P,J4,1,Pin_1*%
%TO.N,Board_20-CLKSEL0*%
X22197552Y-86999388D03*
%TD*%
D20*
%TO.P,C2,1*%
%TO.N,Board_10-+3.3V*%
X8197552Y-49479388D03*
%TO.P,C2,2*%
%TO.N,Board_10-CLKSEL0*%
X8197552Y-48519388D03*
%TD*%
D18*
%TO.P,R1,1*%
%TO.N,Board_22-+3.3V*%
X52637552Y-93799388D03*
%TO.P,R1,2*%
%TO.N,Board_22-Net-(U1-ENV_SCL)*%
X53657552Y-93799388D03*
%TD*%
D20*
%TO.P,C2,1*%
%TO.N,Board_23-+3.3V*%
X62197552Y-85479388D03*
%TO.P,C2,2*%
%TO.N,Board_23-CLKSEL0*%
X62197552Y-84519388D03*
%TD*%
D14*
%TO.P,C4,1*%
%TO.N,Board_11-+3.3V*%
X30367552Y-44199388D03*
%TO.P,C4,2*%
%TO.N,Board_11-CLKSEL0*%
X31327552Y-44199388D03*
%TD*%
D16*
%TO.P,Y1,1,1*%
%TO.N,Board_1-XIN32*%
X32397552Y-10849388D03*
%TO.P,Y1,2,2*%
%TO.N,Board_1-CLKSEL1*%
X33597552Y-10849388D03*
%TD*%
D15*
%TO.P,R3,1*%
%TO.N,Board_13-SCL*%
X75797552Y-49509388D03*
%TO.P,R3,2*%
%TO.N,Board_13-+3.3V*%
X75797552Y-48489388D03*
%TD*%
D14*
%TO.P,C1,1*%
%TO.N,Board_4-CLKSEL0*%
X84387552Y-21799388D03*
%TO.P,C1,2*%
%TO.N,Board_4-Net-(U1-CAP)*%
X85347552Y-21799388D03*
%TD*%
D15*
%TO.P,R3,1*%
%TO.N,Board_2-SCL*%
X57797552Y-13509388D03*
%TO.P,R3,2*%
%TO.N,Board_2-+3.3V*%
X57797552Y-12489388D03*
%TD*%
D17*
%TO.P,J4,1,Pin_1*%
%TO.N,Board_3-CLKSEL0*%
X76197552Y-14999388D03*
%TD*%
%TO.P,J4,1,Pin_1*%
%TO.N,Board_8-CLKSEL0*%
X76197552Y-32999388D03*
%TD*%
D18*
%TO.P,R1,1*%
%TO.N,Board_23-+3.3V*%
X70637552Y-93799388D03*
%TO.P,R1,2*%
%TO.N,Board_23-Net-(U1-ENV_SCL)*%
X71657552Y-93799388D03*
%TD*%
D17*
%TO.P,J3,1,Pin_1*%
%TO.N,Board_11-+3.3V*%
X25797552Y-50999388D03*
%TD*%
D14*
%TO.P,C5,1*%
%TO.N,Board_10-CLKSEL1*%
X16667552Y-46399388D03*
%TO.P,C5,2*%
%TO.N,Board_10-CLKSEL0*%
X17627552Y-46399388D03*
%TD*%
%TO.P,C4,1*%
%TO.N,Board_23-+3.3V*%
X66367552Y-80199388D03*
%TO.P,C4,2*%
%TO.N,Board_23-CLKSEL0*%
X67327552Y-80199388D03*
%TD*%
D10*
%TO.P,R2,1*%
%TO.N,Board_11-Net-(U1-ENV_SDA)*%
X39797552Y-52489388D03*
%TO.P,R2,2*%
%TO.N,Board_11-+3.3V*%
X39797552Y-53509388D03*
%TD*%
D17*
%TO.P,J4,1,Pin_1*%
%TO.N,Board_6-CLKSEL0*%
X40197552Y-32999388D03*
%TD*%
D15*
%TO.P,R4,1*%
%TO.N,Board_22-Net-(U1-BOOTN)*%
X44197552Y-89509388D03*
%TO.P,R4,2*%
%TO.N,Board_22-+3.3V*%
X44197552Y-88489388D03*
%TD*%
D17*
%TO.P,J3,1,Pin_1*%
%TO.N,Board_15-+3.3V*%
X7797552Y-68999388D03*
%TD*%
D16*
%TO.P,Y1,1,1*%
%TO.N,Board_4-XIN32*%
X86397552Y-10849388D03*
%TO.P,Y1,2,2*%
%TO.N,Board_4-CLKSEL1*%
X87597552Y-10849388D03*
%TD*%
D17*
%TO.P,J3,1,Pin_1*%
%TO.N,Board_4-+3.3V*%
X79797552Y-14999388D03*
%TD*%
D20*
%TO.P,C2,1*%
%TO.N,Board_3-+3.3V*%
X62197552Y-13479388D03*
%TO.P,C2,2*%
%TO.N,Board_3-CLKSEL0*%
X62197552Y-12519388D03*
%TD*%
D19*
%TO.P,C3,1*%
%TO.N,Board_5-XIN32*%
X13327552Y-28399388D03*
%TO.P,C3,2*%
%TO.N,Board_5-CLKSEL0*%
X12367552Y-28399388D03*
%TD*%
%TO.P,C3,1*%
%TO.N,Board_7-XIN32*%
X49327552Y-28399388D03*
%TO.P,C3,2*%
%TO.N,Board_7-CLKSEL0*%
X48367552Y-28399388D03*
%TD*%
%TO.P,C3,1*%
%TO.N,Board_3-XIN32*%
X67327552Y-10399388D03*
%TO.P,C3,2*%
%TO.N,Board_3-CLKSEL0*%
X66367552Y-10399388D03*
%TD*%
D11*
%TO.P,U1,1,RESV_NC*%
%TO.N,Board_19-unconnected-(U1-RESV_NC-Pad1)*%
X84747552Y-67186888D03*
D12*
%TO.P,U1,2,GND*%
%TO.N,Board_19-CLKSEL0*%
X84472552Y-68249388D03*
%TO.P,U1,3,VDD*%
%TO.N,Board_19-+3.3V*%
X84472552Y-68749388D03*
%TO.P,U1,4,BOOTN*%
%TO.N,Board_19-Net-(U1-BOOTN)*%
X84472552Y-69249388D03*
%TO.P,U1,5,PS1*%
%TO.N,Board_19-CLKSEL0*%
X84472552Y-69749388D03*
D11*
%TO.P,U1,6,PS0/WAKE*%
X84747552Y-70811888D03*
%TO.P,U1,9,CAP*%
%TO.N,Board_19-Net-(U1-CAP)*%
X86247552Y-70811888D03*
%TO.P,U1,10,CLKSEL0*%
%TO.N,Board_19-CLKSEL0*%
X86747552Y-70811888D03*
%TO.P,U1,15,ENV_SCL*%
%TO.N,Board_19-Net-(U1-ENV_SCL)*%
X89247552Y-70811888D03*
D12*
%TO.P,U1,16,ENV_SDA*%
%TO.N,Board_19-Net-(U1-ENV_SDA)*%
X89522552Y-69749388D03*
%TO.P,U1,17,SA0/H_MOSI*%
%TO.N,Board_19-CLKSEL0*%
X89522552Y-69249388D03*
%TO.P,U1,19,H_SCL/SCK/RX*%
%TO.N,Board_19-SCL*%
X89522552Y-68249388D03*
D11*
%TO.P,U1,20,H_SDA/H_MISO/TX*%
%TO.N,Board_19-SDA*%
X89247552Y-67186888D03*
%TO.P,U1,25,GNDIO*%
%TO.N,Board_19-CLKSEL0*%
X86747552Y-67186888D03*
%TO.P,U1,26,XOUT32/CLKSEL1*%
%TO.N,Board_19-CLKSEL1*%
X86247552Y-67186888D03*
%TO.P,U1,27,XIN32*%
%TO.N,Board_19-XIN32*%
X85747552Y-67186888D03*
%TO.P,U1,28,VDDIO*%
%TO.N,Board_19-+3.3V*%
X85247552Y-67186888D03*
%TD*%
D20*
%TO.P,C2,1*%
%TO.N,Board_20-+3.3V*%
X8197552Y-85479388D03*
%TO.P,C2,2*%
%TO.N,Board_20-CLKSEL0*%
X8197552Y-84519388D03*
%TD*%
D16*
%TO.P,Y1,1,1*%
%TO.N,Board_5-XIN32*%
X14397552Y-28849388D03*
%TO.P,Y1,2,2*%
%TO.N,Board_5-CLKSEL1*%
X15597552Y-28849388D03*
%TD*%
D19*
%TO.P,C3,1*%
%TO.N,Board_20-XIN32*%
X13327552Y-82399388D03*
%TO.P,C3,2*%
%TO.N,Board_20-CLKSEL0*%
X12367552Y-82399388D03*
%TD*%
D15*
%TO.P,R4,1*%
%TO.N,Board_18-Net-(U1-BOOTN)*%
X62197552Y-71509388D03*
%TO.P,R4,2*%
%TO.N,Board_18-+3.3V*%
X62197552Y-70489388D03*
%TD*%
D18*
%TO.P,R1,1*%
%TO.N,Board_7-+3.3V*%
X52637552Y-39799388D03*
%TO.P,R1,2*%
%TO.N,Board_7-Net-(U1-ENV_SCL)*%
X53657552Y-39799388D03*
%TD*%
D17*
%TO.P,J4,1,Pin_1*%
%TO.N,Board_11-CLKSEL0*%
X40197552Y-50999388D03*
%TD*%
%TO.P,J4,1,Pin_1*%
%TO.N,Board_14-CLKSEL0*%
X94197552Y-50999388D03*
%TD*%
D18*
%TO.P,R1,1*%
%TO.N,Board_18-+3.3V*%
X70637552Y-75799388D03*
%TO.P,R1,2*%
%TO.N,Board_18-Net-(U1-ENV_SCL)*%
X71657552Y-75799388D03*
%TD*%
D17*
%TO.P,J3,1,Pin_1*%
%TO.N,Board_9-+3.3V*%
X79797552Y-32999388D03*
%TD*%
%TO.P,J3,1,Pin_1*%
%TO.N,Board_17-+3.3V*%
X43797552Y-68999388D03*
%TD*%
D15*
%TO.P,R3,1*%
%TO.N,Board_1-SCL*%
X39797552Y-13509388D03*
%TO.P,R3,2*%
%TO.N,Board_1-+3.3V*%
X39797552Y-12489388D03*
%TD*%
D17*
%TO.P,J4,1,Pin_1*%
%TO.N,Board_4-CLKSEL0*%
X94197552Y-14999388D03*
%TD*%
%TO.P,J2,1,Pin_1*%
%TO.N,Board_0-SDA*%
X14997552Y-7799388D03*
%TD*%
%TO.P,J3,1,Pin_1*%
%TO.N,Board_3-+3.3V*%
X61797552Y-14999388D03*
%TD*%
D14*
%TO.P,C1,1*%
%TO.N,Board_14-CLKSEL0*%
X84387552Y-57799388D03*
%TO.P,C1,2*%
%TO.N,Board_14-Net-(U1-CAP)*%
X85347552Y-57799388D03*
%TD*%
D11*
%TO.P,U1,1,RESV_NC*%
%TO.N,Board_24-unconnected-(U1-RESV_NC-Pad1)*%
X84747552Y-85186888D03*
D12*
%TO.P,U1,2,GND*%
%TO.N,Board_24-CLKSEL0*%
X84472552Y-86249388D03*
%TO.P,U1,3,VDD*%
%TO.N,Board_24-+3.3V*%
X84472552Y-86749388D03*
%TO.P,U1,4,BOOTN*%
%TO.N,Board_24-Net-(U1-BOOTN)*%
X84472552Y-87249388D03*
%TO.P,U1,5,PS1*%
%TO.N,Board_24-CLKSEL0*%
X84472552Y-87749388D03*
D11*
%TO.P,U1,6,PS0/WAKE*%
X84747552Y-88811888D03*
%TO.P,U1,9,CAP*%
%TO.N,Board_24-Net-(U1-CAP)*%
X86247552Y-88811888D03*
%TO.P,U1,10,CLKSEL0*%
%TO.N,Board_24-CLKSEL0*%
X86747552Y-88811888D03*
%TO.P,U1,15,ENV_SCL*%
%TO.N,Board_24-Net-(U1-ENV_SCL)*%
X89247552Y-88811888D03*
D12*
%TO.P,U1,16,ENV_SDA*%
%TO.N,Board_24-Net-(U1-ENV_SDA)*%
X89522552Y-87749388D03*
%TO.P,U1,17,SA0/H_MOSI*%
%TO.N,Board_24-CLKSEL0*%
X89522552Y-87249388D03*
%TO.P,U1,19,H_SCL/SCK/RX*%
%TO.N,Board_24-SCL*%
X89522552Y-86249388D03*
D11*
%TO.P,U1,20,H_SDA/H_MISO/TX*%
%TO.N,Board_24-SDA*%
X89247552Y-85186888D03*
%TO.P,U1,25,GNDIO*%
%TO.N,Board_24-CLKSEL0*%
X86747552Y-85186888D03*
%TO.P,U1,26,XOUT32/CLKSEL1*%
%TO.N,Board_24-CLKSEL1*%
X86247552Y-85186888D03*
%TO.P,U1,27,XIN32*%
%TO.N,Board_24-XIN32*%
X85747552Y-85186888D03*
%TO.P,U1,28,VDDIO*%
%TO.N,Board_24-+3.3V*%
X85247552Y-85186888D03*
%TD*%
D16*
%TO.P,Y1,1,1*%
%TO.N,Board_6-XIN32*%
X32397552Y-28849388D03*
%TO.P,Y1,2,2*%
%TO.N,Board_6-CLKSEL1*%
X33597552Y-28849388D03*
%TD*%
D17*
%TO.P,J2,1,Pin_1*%
%TO.N,Board_22-SDA*%
X50997552Y-79799388D03*
%TD*%
D15*
%TO.P,R3,1*%
%TO.N,Board_14-SCL*%
X93797552Y-49509388D03*
%TO.P,R3,2*%
%TO.N,Board_14-+3.3V*%
X93797552Y-48489388D03*
%TD*%
D19*
%TO.P,C3,1*%
%TO.N,Board_1-XIN32*%
X31327552Y-10399388D03*
%TO.P,C3,2*%
%TO.N,Board_1-CLKSEL0*%
X30367552Y-10399388D03*
%TD*%
D13*
%TO.P,R5,1*%
%TO.N,Board_7-+3.3V*%
X53657552Y-26199388D03*
%TO.P,R5,2*%
%TO.N,Board_7-SDA*%
X52637552Y-26199388D03*
%TD*%
D14*
%TO.P,C1,1*%
%TO.N,Board_0-CLKSEL0*%
X12387552Y-21799388D03*
%TO.P,C1,2*%
%TO.N,Board_0-Net-(U1-CAP)*%
X13347552Y-21799388D03*
%TD*%
D15*
%TO.P,R3,1*%
%TO.N,Board_9-SCL*%
X93797552Y-31509388D03*
%TO.P,R3,2*%
%TO.N,Board_9-+3.3V*%
X93797552Y-30489388D03*
%TD*%
%TO.P,R4,1*%
%TO.N,Board_19-Net-(U1-BOOTN)*%
X80197552Y-71509388D03*
%TO.P,R4,2*%
%TO.N,Board_19-+3.3V*%
X80197552Y-70489388D03*
%TD*%
D20*
%TO.P,C2,1*%
%TO.N,Board_4-+3.3V*%
X80197552Y-13479388D03*
%TO.P,C2,2*%
%TO.N,Board_4-CLKSEL0*%
X80197552Y-12519388D03*
%TD*%
D17*
%TO.P,J4,1,Pin_1*%
%TO.N,Board_21-CLKSEL0*%
X40197552Y-86999388D03*
%TD*%
D14*
%TO.P,C5,1*%
%TO.N,Board_3-CLKSEL1*%
X70667552Y-10399388D03*
%TO.P,C5,2*%
%TO.N,Board_3-CLKSEL0*%
X71627552Y-10399388D03*
%TD*%
D11*
%TO.P,U1,1,RESV_NC*%
%TO.N,Board_2-unconnected-(U1-RESV_NC-Pad1)*%
X48747552Y-13186888D03*
D12*
%TO.P,U1,2,GND*%
%TO.N,Board_2-CLKSEL0*%
X48472552Y-14249388D03*
%TO.P,U1,3,VDD*%
%TO.N,Board_2-+3.3V*%
X48472552Y-14749388D03*
%TO.P,U1,4,BOOTN*%
%TO.N,Board_2-Net-(U1-BOOTN)*%
X48472552Y-15249388D03*
%TO.P,U1,5,PS1*%
%TO.N,Board_2-CLKSEL0*%
X48472552Y-15749388D03*
D11*
%TO.P,U1,6,PS0/WAKE*%
X48747552Y-16811888D03*
%TO.P,U1,9,CAP*%
%TO.N,Board_2-Net-(U1-CAP)*%
X50247552Y-16811888D03*
%TO.P,U1,10,CLKSEL0*%
%TO.N,Board_2-CLKSEL0*%
X50747552Y-16811888D03*
%TO.P,U1,15,ENV_SCL*%
%TO.N,Board_2-Net-(U1-ENV_SCL)*%
X53247552Y-16811888D03*
D12*
%TO.P,U1,16,ENV_SDA*%
%TO.N,Board_2-Net-(U1-ENV_SDA)*%
X53522552Y-15749388D03*
%TO.P,U1,17,SA0/H_MOSI*%
%TO.N,Board_2-CLKSEL0*%
X53522552Y-15249388D03*
%TO.P,U1,19,H_SCL/SCK/RX*%
%TO.N,Board_2-SCL*%
X53522552Y-14249388D03*
D11*
%TO.P,U1,20,H_SDA/H_MISO/TX*%
%TO.N,Board_2-SDA*%
X53247552Y-13186888D03*
%TO.P,U1,25,GNDIO*%
%TO.N,Board_2-CLKSEL0*%
X50747552Y-13186888D03*
%TO.P,U1,26,XOUT32/CLKSEL1*%
%TO.N,Board_2-CLKSEL1*%
X50247552Y-13186888D03*
%TO.P,U1,27,XIN32*%
%TO.N,Board_2-XIN32*%
X49747552Y-13186888D03*
%TO.P,U1,28,VDDIO*%
%TO.N,Board_2-+3.3V*%
X49247552Y-13186888D03*
%TD*%
D16*
%TO.P,Y1,1,1*%
%TO.N,Board_10-XIN32*%
X14397552Y-46849388D03*
%TO.P,Y1,2,2*%
%TO.N,Board_10-CLKSEL1*%
X15597552Y-46849388D03*
%TD*%
D19*
%TO.P,C3,1*%
%TO.N,Board_4-XIN32*%
X85327552Y-10399388D03*
%TO.P,C3,2*%
%TO.N,Board_4-CLKSEL0*%
X84367552Y-10399388D03*
%TD*%
D15*
%TO.P,R4,1*%
%TO.N,Board_3-Net-(U1-BOOTN)*%
X62197552Y-17509388D03*
%TO.P,R4,2*%
%TO.N,Board_3-+3.3V*%
X62197552Y-16489388D03*
%TD*%
D18*
%TO.P,R1,1*%
%TO.N,Board_21-+3.3V*%
X34637552Y-93799388D03*
%TO.P,R1,2*%
%TO.N,Board_21-Net-(U1-ENV_SCL)*%
X35657552Y-93799388D03*
%TD*%
D10*
%TO.P,R2,1*%
%TO.N,Board_16-Net-(U1-ENV_SDA)*%
X39797552Y-70489388D03*
%TO.P,R2,2*%
%TO.N,Board_16-+3.3V*%
X39797552Y-71509388D03*
%TD*%
D17*
%TO.P,J2,1,Pin_1*%
%TO.N,Board_7-SDA*%
X50997552Y-25799388D03*
%TD*%
D15*
%TO.P,R4,1*%
%TO.N,Board_15-Net-(U1-BOOTN)*%
X8197552Y-71509388D03*
%TO.P,R4,2*%
%TO.N,Board_15-+3.3V*%
X8197552Y-70489388D03*
%TD*%
D17*
%TO.P,J4,1,Pin_1*%
%TO.N,Board_0-CLKSEL0*%
X22197552Y-14999388D03*
%TD*%
D14*
%TO.P,C5,1*%
%TO.N,Board_17-CLKSEL1*%
X52667552Y-64399388D03*
%TO.P,C5,2*%
%TO.N,Board_17-CLKSEL0*%
X53627552Y-64399388D03*
%TD*%
D21*
%TO.P,REF\u002A\u002A,*%
%TO.N,*%
X99497552Y-2500000D03*
%TD*%
D17*
%TO.P,J3,1,Pin_1*%
%TO.N,Board_8-+3.3V*%
X61797552Y-32999388D03*
%TD*%
D14*
%TO.P,C4,1*%
%TO.N,Board_18-+3.3V*%
X66367552Y-62199388D03*
%TO.P,C4,2*%
%TO.N,Board_18-CLKSEL0*%
X67327552Y-62199388D03*
%TD*%
D17*
%TO.P,J4,1,Pin_1*%
%TO.N,Board_24-CLKSEL0*%
X94197552Y-86999388D03*
%TD*%
D16*
%TO.P,Y1,1,1*%
%TO.N,Board_12-XIN32*%
X50397552Y-46849388D03*
%TO.P,Y1,2,2*%
%TO.N,Board_12-CLKSEL1*%
X51597552Y-46849388D03*
%TD*%
D13*
%TO.P,R5,1*%
%TO.N,Board_6-+3.3V*%
X35657552Y-26199388D03*
%TO.P,R5,2*%
%TO.N,Board_6-SDA*%
X34637552Y-26199388D03*
%TD*%
D15*
%TO.P,R3,1*%
%TO.N,Board_6-SCL*%
X39797552Y-31509388D03*
%TO.P,R3,2*%
%TO.N,Board_6-+3.3V*%
X39797552Y-30489388D03*
%TD*%
D17*
%TO.P,J1,1,Pin_1*%
%TO.N,Board_22-SCL*%
X50997552Y-94199388D03*
%TD*%
D13*
%TO.P,R5,1*%
%TO.N,Board_10-+3.3V*%
X17657552Y-44199388D03*
%TO.P,R5,2*%
%TO.N,Board_10-SDA*%
X16637552Y-44199388D03*
%TD*%
D11*
%TO.P,U1,1,RESV_NC*%
%TO.N,Board_11-unconnected-(U1-RESV_NC-Pad1)*%
X30747552Y-49186888D03*
D12*
%TO.P,U1,2,GND*%
%TO.N,Board_11-CLKSEL0*%
X30472552Y-50249388D03*
%TO.P,U1,3,VDD*%
%TO.N,Board_11-+3.3V*%
X30472552Y-50749388D03*
%TO.P,U1,4,BOOTN*%
%TO.N,Board_11-Net-(U1-BOOTN)*%
X30472552Y-51249388D03*
%TO.P,U1,5,PS1*%
%TO.N,Board_11-CLKSEL0*%
X30472552Y-51749388D03*
D11*
%TO.P,U1,6,PS0/WAKE*%
X30747552Y-52811888D03*
%TO.P,U1,9,CAP*%
%TO.N,Board_11-Net-(U1-CAP)*%
X32247552Y-52811888D03*
%TO.P,U1,10,CLKSEL0*%
%TO.N,Board_11-CLKSEL0*%
X32747552Y-52811888D03*
%TO.P,U1,15,ENV_SCL*%
%TO.N,Board_11-Net-(U1-ENV_SCL)*%
X35247552Y-52811888D03*
D12*
%TO.P,U1,16,ENV_SDA*%
%TO.N,Board_11-Net-(U1-ENV_SDA)*%
X35522552Y-51749388D03*
%TO.P,U1,17,SA0/H_MOSI*%
%TO.N,Board_11-CLKSEL0*%
X35522552Y-51249388D03*
%TO.P,U1,19,H_SCL/SCK/RX*%
%TO.N,Board_11-SCL*%
X35522552Y-50249388D03*
D11*
%TO.P,U1,20,H_SDA/H_MISO/TX*%
%TO.N,Board_11-SDA*%
X35247552Y-49186888D03*
%TO.P,U1,25,GNDIO*%
%TO.N,Board_11-CLKSEL0*%
X32747552Y-49186888D03*
%TO.P,U1,26,XOUT32/CLKSEL1*%
%TO.N,Board_11-CLKSEL1*%
X32247552Y-49186888D03*
%TO.P,U1,27,XIN32*%
%TO.N,Board_11-XIN32*%
X31747552Y-49186888D03*
%TO.P,U1,28,VDDIO*%
%TO.N,Board_11-+3.3V*%
X31247552Y-49186888D03*
%TD*%
D17*
%TO.P,J4,1,Pin_1*%
%TO.N,Board_15-CLKSEL0*%
X22197552Y-68999388D03*
%TD*%
%TO.P,J3,1,Pin_1*%
%TO.N,Board_2-+3.3V*%
X43797552Y-14999388D03*
%TD*%
D14*
%TO.P,C5,1*%
%TO.N,Board_13-CLKSEL1*%
X70667552Y-46399388D03*
%TO.P,C5,2*%
%TO.N,Board_13-CLKSEL0*%
X71627552Y-46399388D03*
%TD*%
%TO.P,C1,1*%
%TO.N,Board_8-CLKSEL0*%
X66387552Y-39799388D03*
%TO.P,C1,2*%
%TO.N,Board_8-Net-(U1-CAP)*%
X67347552Y-39799388D03*
%TD*%
D17*
%TO.P,J2,1,Pin_1*%
%TO.N,Board_6-SDA*%
X32997552Y-25799388D03*
%TD*%
D10*
%TO.P,R2,1*%
%TO.N,Board_22-Net-(U1-ENV_SDA)*%
X57797552Y-88489388D03*
%TO.P,R2,2*%
%TO.N,Board_22-+3.3V*%
X57797552Y-89509388D03*
%TD*%
D14*
%TO.P,C1,1*%
%TO.N,Board_10-CLKSEL0*%
X12387552Y-57799388D03*
%TO.P,C1,2*%
%TO.N,Board_10-Net-(U1-CAP)*%
X13347552Y-57799388D03*
%TD*%
D16*
%TO.P,Y1,1,1*%
%TO.N,Board_13-XIN32*%
X68397552Y-46849388D03*
%TO.P,Y1,2,2*%
%TO.N,Board_13-CLKSEL1*%
X69597552Y-46849388D03*
%TD*%
D14*
%TO.P,C5,1*%
%TO.N,Board_4-CLKSEL1*%
X88667552Y-10399388D03*
%TO.P,C5,2*%
%TO.N,Board_4-CLKSEL0*%
X89627552Y-10399388D03*
%TD*%
D11*
%TO.P,U1,1,RESV_NC*%
%TO.N,Board_13-unconnected-(U1-RESV_NC-Pad1)*%
X66747552Y-49186888D03*
D12*
%TO.P,U1,2,GND*%
%TO.N,Board_13-CLKSEL0*%
X66472552Y-50249388D03*
%TO.P,U1,3,VDD*%
%TO.N,Board_13-+3.3V*%
X66472552Y-50749388D03*
%TO.P,U1,4,BOOTN*%
%TO.N,Board_13-Net-(U1-BOOTN)*%
X66472552Y-51249388D03*
%TO.P,U1,5,PS1*%
%TO.N,Board_13-CLKSEL0*%
X66472552Y-51749388D03*
D11*
%TO.P,U1,6,PS0/WAKE*%
X66747552Y-52811888D03*
%TO.P,U1,9,CAP*%
%TO.N,Board_13-Net-(U1-CAP)*%
X68247552Y-52811888D03*
%TO.P,U1,10,CLKSEL0*%
%TO.N,Board_13-CLKSEL0*%
X68747552Y-52811888D03*
%TO.P,U1,15,ENV_SCL*%
%TO.N,Board_13-Net-(U1-ENV_SCL)*%
X71247552Y-52811888D03*
D12*
%TO.P,U1,16,ENV_SDA*%
%TO.N,Board_13-Net-(U1-ENV_SDA)*%
X71522552Y-51749388D03*
%TO.P,U1,17,SA0/H_MOSI*%
%TO.N,Board_13-CLKSEL0*%
X71522552Y-51249388D03*
%TO.P,U1,19,H_SCL/SCK/RX*%
%TO.N,Board_13-SCL*%
X71522552Y-50249388D03*
D11*
%TO.P,U1,20,H_SDA/H_MISO/TX*%
%TO.N,Board_13-SDA*%
X71247552Y-49186888D03*
%TO.P,U1,25,GNDIO*%
%TO.N,Board_13-CLKSEL0*%
X68747552Y-49186888D03*
%TO.P,U1,26,XOUT32/CLKSEL1*%
%TO.N,Board_13-CLKSEL1*%
X68247552Y-49186888D03*
%TO.P,U1,27,XIN32*%
%TO.N,Board_13-XIN32*%
X67747552Y-49186888D03*
%TO.P,U1,28,VDDIO*%
%TO.N,Board_13-+3.3V*%
X67247552Y-49186888D03*
%TD*%
D14*
%TO.P,C4,1*%
%TO.N,Board_10-+3.3V*%
X12367552Y-44199388D03*
%TO.P,C4,2*%
%TO.N,Board_10-CLKSEL0*%
X13327552Y-44199388D03*
%TD*%
%TO.P,C5,1*%
%TO.N,Board_16-CLKSEL1*%
X34667552Y-64399388D03*
%TO.P,C5,2*%
%TO.N,Board_16-CLKSEL0*%
X35627552Y-64399388D03*
%TD*%
D11*
%TO.P,U1,1,RESV_NC*%
%TO.N,Board_7-unconnected-(U1-RESV_NC-Pad1)*%
X48747552Y-31186888D03*
D12*
%TO.P,U1,2,GND*%
%TO.N,Board_7-CLKSEL0*%
X48472552Y-32249388D03*
%TO.P,U1,3,VDD*%
%TO.N,Board_7-+3.3V*%
X48472552Y-32749388D03*
%TO.P,U1,4,BOOTN*%
%TO.N,Board_7-Net-(U1-BOOTN)*%
X48472552Y-33249388D03*
%TO.P,U1,5,PS1*%
%TO.N,Board_7-CLKSEL0*%
X48472552Y-33749388D03*
D11*
%TO.P,U1,6,PS0/WAKE*%
X48747552Y-34811888D03*
%TO.P,U1,9,CAP*%
%TO.N,Board_7-Net-(U1-CAP)*%
X50247552Y-34811888D03*
%TO.P,U1,10,CLKSEL0*%
%TO.N,Board_7-CLKSEL0*%
X50747552Y-34811888D03*
%TO.P,U1,15,ENV_SCL*%
%TO.N,Board_7-Net-(U1-ENV_SCL)*%
X53247552Y-34811888D03*
D12*
%TO.P,U1,16,ENV_SDA*%
%TO.N,Board_7-Net-(U1-ENV_SDA)*%
X53522552Y-33749388D03*
%TO.P,U1,17,SA0/H_MOSI*%
%TO.N,Board_7-CLKSEL0*%
X53522552Y-33249388D03*
%TO.P,U1,19,H_SCL/SCK/RX*%
%TO.N,Board_7-SCL*%
X53522552Y-32249388D03*
D11*
%TO.P,U1,20,H_SDA/H_MISO/TX*%
%TO.N,Board_7-SDA*%
X53247552Y-31186888D03*
%TO.P,U1,25,GNDIO*%
%TO.N,Board_7-CLKSEL0*%
X50747552Y-31186888D03*
%TO.P,U1,26,XOUT32/CLKSEL1*%
%TO.N,Board_7-CLKSEL1*%
X50247552Y-31186888D03*
%TO.P,U1,27,XIN32*%
%TO.N,Board_7-XIN32*%
X49747552Y-31186888D03*
%TO.P,U1,28,VDDIO*%
%TO.N,Board_7-+3.3V*%
X49247552Y-31186888D03*
%TD*%
D18*
%TO.P,R1,1*%
%TO.N,Board_20-+3.3V*%
X16637552Y-93799388D03*
%TO.P,R1,2*%
%TO.N,Board_20-Net-(U1-ENV_SCL)*%
X17657552Y-93799388D03*
%TD*%
D17*
%TO.P,J4,1,Pin_1*%
%TO.N,Board_9-CLKSEL0*%
X94197552Y-32999388D03*
%TD*%
D15*
%TO.P,R4,1*%
%TO.N,Board_5-Net-(U1-BOOTN)*%
X8197552Y-35509388D03*
%TO.P,R4,2*%
%TO.N,Board_5-+3.3V*%
X8197552Y-34489388D03*
%TD*%
D18*
%TO.P,R1,1*%
%TO.N,Board_3-+3.3V*%
X70637552Y-21799388D03*
%TO.P,R1,2*%
%TO.N,Board_3-Net-(U1-ENV_SCL)*%
X71657552Y-21799388D03*
%TD*%
D20*
%TO.P,C2,1*%
%TO.N,Board_16-+3.3V*%
X26197552Y-67479388D03*
%TO.P,C2,2*%
%TO.N,Board_16-CLKSEL0*%
X26197552Y-66519388D03*
%TD*%
D19*
%TO.P,C3,1*%
%TO.N,Board_18-XIN32*%
X67327552Y-64399388D03*
%TO.P,C3,2*%
%TO.N,Board_18-CLKSEL0*%
X66367552Y-64399388D03*
%TD*%
D17*
%TO.P,J2,1,Pin_1*%
%TO.N,Board_5-SDA*%
X14997552Y-25799388D03*
%TD*%
%TO.P,J1,1,Pin_1*%
%TO.N,Board_13-SCL*%
X68997552Y-58199388D03*
%TD*%
%TO.P,J1,1,Pin_1*%
%TO.N,Board_18-SCL*%
X68997552Y-76199388D03*
%TD*%
D14*
%TO.P,C1,1*%
%TO.N,Board_9-CLKSEL0*%
X84387552Y-39799388D03*
%TO.P,C1,2*%
%TO.N,Board_9-Net-(U1-CAP)*%
X85347552Y-39799388D03*
%TD*%
D17*
%TO.P,J2,1,Pin_1*%
%TO.N,Board_14-SDA*%
X86997552Y-43799388D03*
%TD*%
D14*
%TO.P,C4,1*%
%TO.N,Board_20-+3.3V*%
X12367552Y-80199388D03*
%TO.P,C4,2*%
%TO.N,Board_20-CLKSEL0*%
X13327552Y-80199388D03*
%TD*%
D17*
%TO.P,J1,1,Pin_1*%
%TO.N,Board_3-SCL*%
X68997552Y-22199388D03*
%TD*%
D13*
%TO.P,R5,1*%
%TO.N,Board_5-+3.3V*%
X17657552Y-26199388D03*
%TO.P,R5,2*%
%TO.N,Board_5-SDA*%
X16637552Y-26199388D03*
%TD*%
D14*
%TO.P,C5,1*%
%TO.N,Board_1-CLKSEL1*%
X34667552Y-10399388D03*
%TO.P,C5,2*%
%TO.N,Board_1-CLKSEL0*%
X35627552Y-10399388D03*
%TD*%
D11*
%TO.P,U1,1,RESV_NC*%
%TO.N,Board_15-unconnected-(U1-RESV_NC-Pad1)*%
X12747552Y-67186888D03*
D12*
%TO.P,U1,2,GND*%
%TO.N,Board_15-CLKSEL0*%
X12472552Y-68249388D03*
%TO.P,U1,3,VDD*%
%TO.N,Board_15-+3.3V*%
X12472552Y-68749388D03*
%TO.P,U1,4,BOOTN*%
%TO.N,Board_15-Net-(U1-BOOTN)*%
X12472552Y-69249388D03*
%TO.P,U1,5,PS1*%
%TO.N,Board_15-CLKSEL0*%
X12472552Y-69749388D03*
D11*
%TO.P,U1,6,PS0/WAKE*%
X12747552Y-70811888D03*
%TO.P,U1,9,CAP*%
%TO.N,Board_15-Net-(U1-CAP)*%
X14247552Y-70811888D03*
%TO.P,U1,10,CLKSEL0*%
%TO.N,Board_15-CLKSEL0*%
X14747552Y-70811888D03*
%TO.P,U1,15,ENV_SCL*%
%TO.N,Board_15-Net-(U1-ENV_SCL)*%
X17247552Y-70811888D03*
D12*
%TO.P,U1,16,ENV_SDA*%
%TO.N,Board_15-Net-(U1-ENV_SDA)*%
X17522552Y-69749388D03*
%TO.P,U1,17,SA0/H_MOSI*%
%TO.N,Board_15-CLKSEL0*%
X17522552Y-69249388D03*
%TO.P,U1,19,H_SCL/SCK/RX*%
%TO.N,Board_15-SCL*%
X17522552Y-68249388D03*
D11*
%TO.P,U1,20,H_SDA/H_MISO/TX*%
%TO.N,Board_15-SDA*%
X17247552Y-67186888D03*
%TO.P,U1,25,GNDIO*%
%TO.N,Board_15-CLKSEL0*%
X14747552Y-67186888D03*
%TO.P,U1,26,XOUT32/CLKSEL1*%
%TO.N,Board_15-CLKSEL1*%
X14247552Y-67186888D03*
%TO.P,U1,27,XIN32*%
%TO.N,Board_15-XIN32*%
X13747552Y-67186888D03*
%TO.P,U1,28,VDDIO*%
%TO.N,Board_15-+3.3V*%
X13247552Y-67186888D03*
%TD*%
D17*
%TO.P,J3,1,Pin_1*%
%TO.N,Board_22-+3.3V*%
X43797552Y-86999388D03*
%TD*%
D13*
%TO.P,R5,1*%
%TO.N,Board_21-+3.3V*%
X35657552Y-80199388D03*
%TO.P,R5,2*%
%TO.N,Board_21-SDA*%
X34637552Y-80199388D03*
%TD*%
D11*
%TO.P,U1,1,RESV_NC*%
%TO.N,Board_23-unconnected-(U1-RESV_NC-Pad1)*%
X66747552Y-85186888D03*
D12*
%TO.P,U1,2,GND*%
%TO.N,Board_23-CLKSEL0*%
X66472552Y-86249388D03*
%TO.P,U1,3,VDD*%
%TO.N,Board_23-+3.3V*%
X66472552Y-86749388D03*
%TO.P,U1,4,BOOTN*%
%TO.N,Board_23-Net-(U1-BOOTN)*%
X66472552Y-87249388D03*
%TO.P,U1,5,PS1*%
%TO.N,Board_23-CLKSEL0*%
X66472552Y-87749388D03*
D11*
%TO.P,U1,6,PS0/WAKE*%
X66747552Y-88811888D03*
%TO.P,U1,9,CAP*%
%TO.N,Board_23-Net-(U1-CAP)*%
X68247552Y-88811888D03*
%TO.P,U1,10,CLKSEL0*%
%TO.N,Board_23-CLKSEL0*%
X68747552Y-88811888D03*
%TO.P,U1,15,ENV_SCL*%
%TO.N,Board_23-Net-(U1-ENV_SCL)*%
X71247552Y-88811888D03*
D12*
%TO.P,U1,16,ENV_SDA*%
%TO.N,Board_23-Net-(U1-ENV_SDA)*%
X71522552Y-87749388D03*
%TO.P,U1,17,SA0/H_MOSI*%
%TO.N,Board_23-CLKSEL0*%
X71522552Y-87249388D03*
%TO.P,U1,19,H_SCL/SCK/RX*%
%TO.N,Board_23-SCL*%
X71522552Y-86249388D03*
D11*
%TO.P,U1,20,H_SDA/H_MISO/TX*%
%TO.N,Board_23-SDA*%
X71247552Y-85186888D03*
%TO.P,U1,25,GNDIO*%
%TO.N,Board_23-CLKSEL0*%
X68747552Y-85186888D03*
%TO.P,U1,26,XOUT32/CLKSEL1*%
%TO.N,Board_23-CLKSEL1*%
X68247552Y-85186888D03*
%TO.P,U1,27,XIN32*%
%TO.N,Board_23-XIN32*%
X67747552Y-85186888D03*
%TO.P,U1,28,VDDIO*%
%TO.N,Board_23-+3.3V*%
X67247552Y-85186888D03*
%TD*%
%TO.P,U1,1,RESV_NC*%
%TO.N,Board_18-unconnected-(U1-RESV_NC-Pad1)*%
X66747552Y-67186888D03*
D12*
%TO.P,U1,2,GND*%
%TO.N,Board_18-CLKSEL0*%
X66472552Y-68249388D03*
%TO.P,U1,3,VDD*%
%TO.N,Board_18-+3.3V*%
X66472552Y-68749388D03*
%TO.P,U1,4,BOOTN*%
%TO.N,Board_18-Net-(U1-BOOTN)*%
X66472552Y-69249388D03*
%TO.P,U1,5,PS1*%
%TO.N,Board_18-CLKSEL0*%
X66472552Y-69749388D03*
D11*
%TO.P,U1,6,PS0/WAKE*%
X66747552Y-70811888D03*
%TO.P,U1,9,CAP*%
%TO.N,Board_18-Net-(U1-CAP)*%
X68247552Y-70811888D03*
%TO.P,U1,10,CLKSEL0*%
%TO.N,Board_18-CLKSEL0*%
X68747552Y-70811888D03*
%TO.P,U1,15,ENV_SCL*%
%TO.N,Board_18-Net-(U1-ENV_SCL)*%
X71247552Y-70811888D03*
D12*
%TO.P,U1,16,ENV_SDA*%
%TO.N,Board_18-Net-(U1-ENV_SDA)*%
X71522552Y-69749388D03*
%TO.P,U1,17,SA0/H_MOSI*%
%TO.N,Board_18-CLKSEL0*%
X71522552Y-69249388D03*
%TO.P,U1,19,H_SCL/SCK/RX*%
%TO.N,Board_18-SCL*%
X71522552Y-68249388D03*
D11*
%TO.P,U1,20,H_SDA/H_MISO/TX*%
%TO.N,Board_18-SDA*%
X71247552Y-67186888D03*
%TO.P,U1,25,GNDIO*%
%TO.N,Board_18-CLKSEL0*%
X68747552Y-67186888D03*
%TO.P,U1,26,XOUT32/CLKSEL1*%
%TO.N,Board_18-CLKSEL1*%
X68247552Y-67186888D03*
%TO.P,U1,27,XIN32*%
%TO.N,Board_18-XIN32*%
X67747552Y-67186888D03*
%TO.P,U1,28,VDDIO*%
%TO.N,Board_18-+3.3V*%
X67247552Y-67186888D03*
%TD*%
D15*
%TO.P,R3,1*%
%TO.N,Board_11-SCL*%
X39797552Y-49509388D03*
%TO.P,R3,2*%
%TO.N,Board_11-+3.3V*%
X39797552Y-48489388D03*
%TD*%
D16*
%TO.P,Y1,1,1*%
%TO.N,Board_2-XIN32*%
X50397552Y-10849388D03*
%TO.P,Y1,2,2*%
%TO.N,Board_2-CLKSEL1*%
X51597552Y-10849388D03*
%TD*%
D14*
%TO.P,C1,1*%
%TO.N,Board_6-CLKSEL0*%
X30387552Y-39799388D03*
%TO.P,C1,2*%
%TO.N,Board_6-Net-(U1-CAP)*%
X31347552Y-39799388D03*
%TD*%
D11*
%TO.P,U1,1,RESV_NC*%
%TO.N,Board_9-unconnected-(U1-RESV_NC-Pad1)*%
X84747552Y-31186888D03*
D12*
%TO.P,U1,2,GND*%
%TO.N,Board_9-CLKSEL0*%
X84472552Y-32249388D03*
%TO.P,U1,3,VDD*%
%TO.N,Board_9-+3.3V*%
X84472552Y-32749388D03*
%TO.P,U1,4,BOOTN*%
%TO.N,Board_9-Net-(U1-BOOTN)*%
X84472552Y-33249388D03*
%TO.P,U1,5,PS1*%
%TO.N,Board_9-CLKSEL0*%
X84472552Y-33749388D03*
D11*
%TO.P,U1,6,PS0/WAKE*%
X84747552Y-34811888D03*
%TO.P,U1,9,CAP*%
%TO.N,Board_9-Net-(U1-CAP)*%
X86247552Y-34811888D03*
%TO.P,U1,10,CLKSEL0*%
%TO.N,Board_9-CLKSEL0*%
X86747552Y-34811888D03*
%TO.P,U1,15,ENV_SCL*%
%TO.N,Board_9-Net-(U1-ENV_SCL)*%
X89247552Y-34811888D03*
D12*
%TO.P,U1,16,ENV_SDA*%
%TO.N,Board_9-Net-(U1-ENV_SDA)*%
X89522552Y-33749388D03*
%TO.P,U1,17,SA0/H_MOSI*%
%TO.N,Board_9-CLKSEL0*%
X89522552Y-33249388D03*
%TO.P,U1,19,H_SCL/SCK/RX*%
%TO.N,Board_9-SCL*%
X89522552Y-32249388D03*
D11*
%TO.P,U1,20,H_SDA/H_MISO/TX*%
%TO.N,Board_9-SDA*%
X89247552Y-31186888D03*
%TO.P,U1,25,GNDIO*%
%TO.N,Board_9-CLKSEL0*%
X86747552Y-31186888D03*
%TO.P,U1,26,XOUT32/CLKSEL1*%
%TO.N,Board_9-CLKSEL1*%
X86247552Y-31186888D03*
%TO.P,U1,27,XIN32*%
%TO.N,Board_9-XIN32*%
X85747552Y-31186888D03*
%TO.P,U1,28,VDDIO*%
%TO.N,Board_9-+3.3V*%
X85247552Y-31186888D03*
%TD*%
D17*
%TO.P,J1,1,Pin_1*%
%TO.N,Board_10-SCL*%
X14997552Y-58199388D03*
%TD*%
D15*
%TO.P,R3,1*%
%TO.N,Board_3-SCL*%
X75797552Y-13509388D03*
%TO.P,R3,2*%
%TO.N,Board_3-+3.3V*%
X75797552Y-12489388D03*
%TD*%
D19*
%TO.P,C3,1*%
%TO.N,Board_10-XIN32*%
X13327552Y-46399388D03*
%TO.P,C3,2*%
%TO.N,Board_10-CLKSEL0*%
X12367552Y-46399388D03*
%TD*%
D10*
%TO.P,R2,1*%
%TO.N,Board_15-Net-(U1-ENV_SDA)*%
X21797552Y-70489388D03*
%TO.P,R2,2*%
%TO.N,Board_15-+3.3V*%
X21797552Y-71509388D03*
%TD*%
%TO.P,R2,1*%
%TO.N,Board_8-Net-(U1-ENV_SDA)*%
X75797552Y-34489388D03*
%TO.P,R2,2*%
%TO.N,Board_8-+3.3V*%
X75797552Y-35509388D03*
%TD*%
D17*
%TO.P,J3,1,Pin_1*%
%TO.N,Board_13-+3.3V*%
X61797552Y-50999388D03*
%TD*%
D18*
%TO.P,R1,1*%
%TO.N,Board_11-+3.3V*%
X34637552Y-57799388D03*
%TO.P,R1,2*%
%TO.N,Board_11-Net-(U1-ENV_SCL)*%
X35657552Y-57799388D03*
%TD*%
D20*
%TO.P,C2,1*%
%TO.N,Board_5-+3.3V*%
X8197552Y-31479388D03*
%TO.P,C2,2*%
%TO.N,Board_5-CLKSEL0*%
X8197552Y-30519388D03*
%TD*%
D10*
%TO.P,R2,1*%
%TO.N,Board_7-Net-(U1-ENV_SDA)*%
X57797552Y-34489388D03*
%TO.P,R2,2*%
%TO.N,Board_7-+3.3V*%
X57797552Y-35509388D03*
%TD*%
D17*
%TO.P,J3,1,Pin_1*%
%TO.N,Board_21-+3.3V*%
X25797552Y-86999388D03*
%TD*%
D14*
%TO.P,C5,1*%
%TO.N,Board_21-CLKSEL1*%
X34667552Y-82399388D03*
%TO.P,C5,2*%
%TO.N,Board_21-CLKSEL0*%
X35627552Y-82399388D03*
%TD*%
D17*
%TO.P,J1,1,Pin_1*%
%TO.N,Board_9-SCL*%
X86997552Y-40199388D03*
%TD*%
%TO.P,J1,1,Pin_1*%
%TO.N,Board_7-SCL*%
X50997552Y-40199388D03*
%TD*%
D14*
%TO.P,C1,1*%
%TO.N,Board_17-CLKSEL0*%
X48387552Y-75799388D03*
%TO.P,C1,2*%
%TO.N,Board_17-Net-(U1-CAP)*%
X49347552Y-75799388D03*
%TD*%
D17*
%TO.P,J1,1,Pin_1*%
%TO.N,Board_23-SCL*%
X68997552Y-94199388D03*
%TD*%
%TO.P,J4,1,Pin_1*%
%TO.N,Board_13-CLKSEL0*%
X76197552Y-50999388D03*
%TD*%
D14*
%TO.P,C4,1*%
%TO.N,Board_1-+3.3V*%
X30367552Y-8199388D03*
%TO.P,C4,2*%
%TO.N,Board_1-CLKSEL0*%
X31327552Y-8199388D03*
%TD*%
D15*
%TO.P,R4,1*%
%TO.N,Board_2-Net-(U1-BOOTN)*%
X44197552Y-17509388D03*
%TO.P,R4,2*%
%TO.N,Board_2-+3.3V*%
X44197552Y-16489388D03*
%TD*%
D10*
%TO.P,R2,1*%
%TO.N,Board_6-Net-(U1-ENV_SDA)*%
X39797552Y-34489388D03*
%TO.P,R2,2*%
%TO.N,Board_6-+3.3V*%
X39797552Y-35509388D03*
%TD*%
D20*
%TO.P,C2,1*%
%TO.N,Board_9-+3.3V*%
X80197552Y-31479388D03*
%TO.P,C2,2*%
%TO.N,Board_9-CLKSEL0*%
X80197552Y-30519388D03*
%TD*%
%TO.P,C2,1*%
%TO.N,Board_19-+3.3V*%
X80197552Y-67479388D03*
%TO.P,C2,2*%
%TO.N,Board_19-CLKSEL0*%
X80197552Y-66519388D03*
%TD*%
D14*
%TO.P,C1,1*%
%TO.N,Board_22-CLKSEL0*%
X48387552Y-93799388D03*
%TO.P,C1,2*%
%TO.N,Board_22-Net-(U1-CAP)*%
X49347552Y-93799388D03*
%TD*%
D17*
%TO.P,J4,1,Pin_1*%
%TO.N,Board_2-CLKSEL0*%
X58197552Y-14999388D03*
%TD*%
D11*
%TO.P,U1,1,RESV_NC*%
%TO.N,Board_1-unconnected-(U1-RESV_NC-Pad1)*%
X30747552Y-13186888D03*
D12*
%TO.P,U1,2,GND*%
%TO.N,Board_1-CLKSEL0*%
X30472552Y-14249388D03*
%TO.P,U1,3,VDD*%
%TO.N,Board_1-+3.3V*%
X30472552Y-14749388D03*
%TO.P,U1,4,BOOTN*%
%TO.N,Board_1-Net-(U1-BOOTN)*%
X30472552Y-15249388D03*
%TO.P,U1,5,PS1*%
%TO.N,Board_1-CLKSEL0*%
X30472552Y-15749388D03*
D11*
%TO.P,U1,6,PS0/WAKE*%
X30747552Y-16811888D03*
%TO.P,U1,9,CAP*%
%TO.N,Board_1-Net-(U1-CAP)*%
X32247552Y-16811888D03*
%TO.P,U1,10,CLKSEL0*%
%TO.N,Board_1-CLKSEL0*%
X32747552Y-16811888D03*
%TO.P,U1,15,ENV_SCL*%
%TO.N,Board_1-Net-(U1-ENV_SCL)*%
X35247552Y-16811888D03*
D12*
%TO.P,U1,16,ENV_SDA*%
%TO.N,Board_1-Net-(U1-ENV_SDA)*%
X35522552Y-15749388D03*
%TO.P,U1,17,SA0/H_MOSI*%
%TO.N,Board_1-CLKSEL0*%
X35522552Y-15249388D03*
%TO.P,U1,19,H_SCL/SCK/RX*%
%TO.N,Board_1-SCL*%
X35522552Y-14249388D03*
D11*
%TO.P,U1,20,H_SDA/H_MISO/TX*%
%TO.N,Board_1-SDA*%
X35247552Y-13186888D03*
%TO.P,U1,25,GNDIO*%
%TO.N,Board_1-CLKSEL0*%
X32747552Y-13186888D03*
%TO.P,U1,26,XOUT32/CLKSEL1*%
%TO.N,Board_1-CLKSEL1*%
X32247552Y-13186888D03*
%TO.P,U1,27,XIN32*%
%TO.N,Board_1-XIN32*%
X31747552Y-13186888D03*
%TO.P,U1,28,VDDIO*%
%TO.N,Board_1-+3.3V*%
X31247552Y-13186888D03*
%TD*%
D13*
%TO.P,R5,1*%
%TO.N,Board_8-+3.3V*%
X71657552Y-26199388D03*
%TO.P,R5,2*%
%TO.N,Board_8-SDA*%
X70637552Y-26199388D03*
%TD*%
D17*
%TO.P,J4,1,Pin_1*%
%TO.N,Board_16-CLKSEL0*%
X40197552Y-68999388D03*
%TD*%
D19*
%TO.P,C3,1*%
%TO.N,Board_24-XIN32*%
X85327552Y-82399388D03*
%TO.P,C3,2*%
%TO.N,Board_24-CLKSEL0*%
X84367552Y-82399388D03*
%TD*%
D20*
%TO.P,C2,1*%
%TO.N,Board_21-+3.3V*%
X26197552Y-85479388D03*
%TO.P,C2,2*%
%TO.N,Board_21-CLKSEL0*%
X26197552Y-84519388D03*
%TD*%
D18*
%TO.P,R1,1*%
%TO.N,Board_12-+3.3V*%
X52637552Y-57799388D03*
%TO.P,R1,2*%
%TO.N,Board_12-Net-(U1-ENV_SCL)*%
X53657552Y-57799388D03*
%TD*%
D11*
%TO.P,U1,1,RESV_NC*%
%TO.N,Board_5-unconnected-(U1-RESV_NC-Pad1)*%
X12747552Y-31186888D03*
D12*
%TO.P,U1,2,GND*%
%TO.N,Board_5-CLKSEL0*%
X12472552Y-32249388D03*
%TO.P,U1,3,VDD*%
%TO.N,Board_5-+3.3V*%
X12472552Y-32749388D03*
%TO.P,U1,4,BOOTN*%
%TO.N,Board_5-Net-(U1-BOOTN)*%
X12472552Y-33249388D03*
%TO.P,U1,5,PS1*%
%TO.N,Board_5-CLKSEL0*%
X12472552Y-33749388D03*
D11*
%TO.P,U1,6,PS0/WAKE*%
X12747552Y-34811888D03*
%TO.P,U1,9,CAP*%
%TO.N,Board_5-Net-(U1-CAP)*%
X14247552Y-34811888D03*
%TO.P,U1,10,CLKSEL0*%
%TO.N,Board_5-CLKSEL0*%
X14747552Y-34811888D03*
%TO.P,U1,15,ENV_SCL*%
%TO.N,Board_5-Net-(U1-ENV_SCL)*%
X17247552Y-34811888D03*
D12*
%TO.P,U1,16,ENV_SDA*%
%TO.N,Board_5-Net-(U1-ENV_SDA)*%
X17522552Y-33749388D03*
%TO.P,U1,17,SA0/H_MOSI*%
%TO.N,Board_5-CLKSEL0*%
X17522552Y-33249388D03*
%TO.P,U1,19,H_SCL/SCK/RX*%
%TO.N,Board_5-SCL*%
X17522552Y-32249388D03*
D11*
%TO.P,U1,20,H_SDA/H_MISO/TX*%
%TO.N,Board_5-SDA*%
X17247552Y-31186888D03*
%TO.P,U1,25,GNDIO*%
%TO.N,Board_5-CLKSEL0*%
X14747552Y-31186888D03*
%TO.P,U1,26,XOUT32/CLKSEL1*%
%TO.N,Board_5-CLKSEL1*%
X14247552Y-31186888D03*
%TO.P,U1,27,XIN32*%
%TO.N,Board_5-XIN32*%
X13747552Y-31186888D03*
%TO.P,U1,28,VDDIO*%
%TO.N,Board_5-+3.3V*%
X13247552Y-31186888D03*
%TD*%
D13*
%TO.P,R5,1*%
%TO.N,Board_16-+3.3V*%
X35657552Y-62199388D03*
%TO.P,R5,2*%
%TO.N,Board_16-SDA*%
X34637552Y-62199388D03*
%TD*%
%TO.P,R5,1*%
%TO.N,Board_3-+3.3V*%
X71657552Y-8199388D03*
%TO.P,R5,2*%
%TO.N,Board_3-SDA*%
X70637552Y-8199388D03*
%TD*%
D15*
%TO.P,R3,1*%
%TO.N,Board_15-SCL*%
X21797552Y-67509388D03*
%TO.P,R3,2*%
%TO.N,Board_15-+3.3V*%
X21797552Y-66489388D03*
%TD*%
%TO.P,R3,1*%
%TO.N,Board_24-SCL*%
X93797552Y-85509388D03*
%TO.P,R3,2*%
%TO.N,Board_24-+3.3V*%
X93797552Y-84489388D03*
%TD*%
D14*
%TO.P,C5,1*%
%TO.N,Board_0-CLKSEL1*%
X16667552Y-10399388D03*
%TO.P,C5,2*%
%TO.N,Board_0-CLKSEL0*%
X17627552Y-10399388D03*
%TD*%
D19*
%TO.P,C3,1*%
%TO.N,Board_0-XIN32*%
X13327552Y-10399388D03*
%TO.P,C3,2*%
%TO.N,Board_0-CLKSEL0*%
X12367552Y-10399388D03*
%TD*%
D11*
%TO.P,U1,1,RESV_NC*%
%TO.N,Board_22-unconnected-(U1-RESV_NC-Pad1)*%
X48747552Y-85186888D03*
D12*
%TO.P,U1,2,GND*%
%TO.N,Board_22-CLKSEL0*%
X48472552Y-86249388D03*
%TO.P,U1,3,VDD*%
%TO.N,Board_22-+3.3V*%
X48472552Y-86749388D03*
%TO.P,U1,4,BOOTN*%
%TO.N,Board_22-Net-(U1-BOOTN)*%
X48472552Y-87249388D03*
%TO.P,U1,5,PS1*%
%TO.N,Board_22-CLKSEL0*%
X48472552Y-87749388D03*
D11*
%TO.P,U1,6,PS0/WAKE*%
X48747552Y-88811888D03*
%TO.P,U1,9,CAP*%
%TO.N,Board_22-Net-(U1-CAP)*%
X50247552Y-88811888D03*
%TO.P,U1,10,CLKSEL0*%
%TO.N,Board_22-CLKSEL0*%
X50747552Y-88811888D03*
%TO.P,U1,15,ENV_SCL*%
%TO.N,Board_22-Net-(U1-ENV_SCL)*%
X53247552Y-88811888D03*
D12*
%TO.P,U1,16,ENV_SDA*%
%TO.N,Board_22-Net-(U1-ENV_SDA)*%
X53522552Y-87749388D03*
%TO.P,U1,17,SA0/H_MOSI*%
%TO.N,Board_22-CLKSEL0*%
X53522552Y-87249388D03*
%TO.P,U1,19,H_SCL/SCK/RX*%
%TO.N,Board_22-SCL*%
X53522552Y-86249388D03*
D11*
%TO.P,U1,20,H_SDA/H_MISO/TX*%
%TO.N,Board_22-SDA*%
X53247552Y-85186888D03*
%TO.P,U1,25,GNDIO*%
%TO.N,Board_22-CLKSEL0*%
X50747552Y-85186888D03*
%TO.P,U1,26,XOUT32/CLKSEL1*%
%TO.N,Board_22-CLKSEL1*%
X50247552Y-85186888D03*
%TO.P,U1,27,XIN32*%
%TO.N,Board_22-XIN32*%
X49747552Y-85186888D03*
%TO.P,U1,28,VDDIO*%
%TO.N,Board_22-+3.3V*%
X49247552Y-85186888D03*
%TD*%
D14*
%TO.P,C4,1*%
%TO.N,Board_8-+3.3V*%
X66367552Y-26199388D03*
%TO.P,C4,2*%
%TO.N,Board_8-CLKSEL0*%
X67327552Y-26199388D03*
%TD*%
D15*
%TO.P,R3,1*%
%TO.N,Board_0-SCL*%
X21797552Y-13509388D03*
%TO.P,R3,2*%
%TO.N,Board_0-+3.3V*%
X21797552Y-12489388D03*
%TD*%
D17*
%TO.P,J3,1,Pin_1*%
%TO.N,Board_6-+3.3V*%
X25797552Y-32999388D03*
%TD*%
D13*
%TO.P,R5,1*%
%TO.N,Board_1-+3.3V*%
X35657552Y-8199388D03*
%TO.P,R5,2*%
%TO.N,Board_1-SDA*%
X34637552Y-8199388D03*
%TD*%
D15*
%TO.P,R4,1*%
%TO.N,Board_9-Net-(U1-BOOTN)*%
X80197552Y-35509388D03*
%TO.P,R4,2*%
%TO.N,Board_9-+3.3V*%
X80197552Y-34489388D03*
%TD*%
D11*
%TO.P,U1,1,RESV_NC*%
%TO.N,Board_10-unconnected-(U1-RESV_NC-Pad1)*%
X12747552Y-49186888D03*
D12*
%TO.P,U1,2,GND*%
%TO.N,Board_10-CLKSEL0*%
X12472552Y-50249388D03*
%TO.P,U1,3,VDD*%
%TO.N,Board_10-+3.3V*%
X12472552Y-50749388D03*
%TO.P,U1,4,BOOTN*%
%TO.N,Board_10-Net-(U1-BOOTN)*%
X12472552Y-51249388D03*
%TO.P,U1,5,PS1*%
%TO.N,Board_10-CLKSEL0*%
X12472552Y-51749388D03*
D11*
%TO.P,U1,6,PS0/WAKE*%
X12747552Y-52811888D03*
%TO.P,U1,9,CAP*%
%TO.N,Board_10-Net-(U1-CAP)*%
X14247552Y-52811888D03*
%TO.P,U1,10,CLKSEL0*%
%TO.N,Board_10-CLKSEL0*%
X14747552Y-52811888D03*
%TO.P,U1,15,ENV_SCL*%
%TO.N,Board_10-Net-(U1-ENV_SCL)*%
X17247552Y-52811888D03*
D12*
%TO.P,U1,16,ENV_SDA*%
%TO.N,Board_10-Net-(U1-ENV_SDA)*%
X17522552Y-51749388D03*
%TO.P,U1,17,SA0/H_MOSI*%
%TO.N,Board_10-CLKSEL0*%
X17522552Y-51249388D03*
%TO.P,U1,19,H_SCL/SCK/RX*%
%TO.N,Board_10-SCL*%
X17522552Y-50249388D03*
D11*
%TO.P,U1,20,H_SDA/H_MISO/TX*%
%TO.N,Board_10-SDA*%
X17247552Y-49186888D03*
%TO.P,U1,25,GNDIO*%
%TO.N,Board_10-CLKSEL0*%
X14747552Y-49186888D03*
%TO.P,U1,26,XOUT32/CLKSEL1*%
%TO.N,Board_10-CLKSEL1*%
X14247552Y-49186888D03*
%TO.P,U1,27,XIN32*%
%TO.N,Board_10-XIN32*%
X13747552Y-49186888D03*
%TO.P,U1,28,VDDIO*%
%TO.N,Board_10-+3.3V*%
X13247552Y-49186888D03*
%TD*%
D17*
%TO.P,J3,1,Pin_1*%
%TO.N,Board_19-+3.3V*%
X79797552Y-68999388D03*
%TD*%
D16*
%TO.P,Y1,1,1*%
%TO.N,Board_23-XIN32*%
X68397552Y-82849388D03*
%TO.P,Y1,2,2*%
%TO.N,Board_23-CLKSEL1*%
X69597552Y-82849388D03*
%TD*%
D19*
%TO.P,C3,1*%
%TO.N,Board_15-XIN32*%
X13327552Y-64399388D03*
%TO.P,C3,2*%
%TO.N,Board_15-CLKSEL0*%
X12367552Y-64399388D03*
%TD*%
D14*
%TO.P,C4,1*%
%TO.N,Board_7-+3.3V*%
X48367552Y-26199388D03*
%TO.P,C4,2*%
%TO.N,Board_7-CLKSEL0*%
X49327552Y-26199388D03*
%TD*%
D15*
%TO.P,R3,1*%
%TO.N,Board_10-SCL*%
X21797552Y-49509388D03*
%TO.P,R3,2*%
%TO.N,Board_10-+3.3V*%
X21797552Y-48489388D03*
%TD*%
D17*
%TO.P,J2,1,Pin_1*%
%TO.N,Board_19-SDA*%
X86997552Y-61799388D03*
%TD*%
%TO.P,J1,1,Pin_1*%
%TO.N,Board_2-SCL*%
X50997552Y-22199388D03*
%TD*%
D13*
%TO.P,R5,1*%
%TO.N,Board_24-+3.3V*%
X89657552Y-80199388D03*
%TO.P,R5,2*%
%TO.N,Board_24-SDA*%
X88637552Y-80199388D03*
%TD*%
D14*
%TO.P,C5,1*%
%TO.N,Board_6-CLKSEL1*%
X34667552Y-28399388D03*
%TO.P,C5,2*%
%TO.N,Board_6-CLKSEL0*%
X35627552Y-28399388D03*
%TD*%
D13*
%TO.P,R5,1*%
%TO.N,Board_2-+3.3V*%
X53657552Y-8199388D03*
%TO.P,R5,2*%
%TO.N,Board_2-SDA*%
X52637552Y-8199388D03*
%TD*%
D18*
%TO.P,R1,1*%
%TO.N,Board_17-+3.3V*%
X52637552Y-75799388D03*
%TO.P,R1,2*%
%TO.N,Board_17-Net-(U1-ENV_SCL)*%
X53657552Y-75799388D03*
%TD*%
D15*
%TO.P,R4,1*%
%TO.N,Board_24-Net-(U1-BOOTN)*%
X80197552Y-89509388D03*
%TO.P,R4,2*%
%TO.N,Board_24-+3.3V*%
X80197552Y-88489388D03*
%TD*%
D14*
%TO.P,C5,1*%
%TO.N,Board_20-CLKSEL1*%
X16667552Y-82399388D03*
%TO.P,C5,2*%
%TO.N,Board_20-CLKSEL0*%
X17627552Y-82399388D03*
%TD*%
%TO.P,C1,1*%
%TO.N,Board_24-CLKSEL0*%
X84387552Y-93799388D03*
%TO.P,C1,2*%
%TO.N,Board_24-Net-(U1-CAP)*%
X85347552Y-93799388D03*
%TD*%
D19*
%TO.P,C3,1*%
%TO.N,Board_23-XIN32*%
X67327552Y-82399388D03*
%TO.P,C3,2*%
%TO.N,Board_23-CLKSEL0*%
X66367552Y-82399388D03*
%TD*%
D18*
%TO.P,R1,1*%
%TO.N,Board_9-+3.3V*%
X88637552Y-39799388D03*
%TO.P,R1,2*%
%TO.N,Board_9-Net-(U1-ENV_SCL)*%
X89657552Y-39799388D03*
%TD*%
D17*
%TO.P,J2,1,Pin_1*%
%TO.N,Board_11-SDA*%
X32997552Y-43799388D03*
%TD*%
%TO.P,J1,1,Pin_1*%
%TO.N,Board_21-SCL*%
X32997552Y-94199388D03*
%TD*%
D11*
%TO.P,U1,1,RESV_NC*%
%TO.N,Board_20-unconnected-(U1-RESV_NC-Pad1)*%
X12747552Y-85186888D03*
D12*
%TO.P,U1,2,GND*%
%TO.N,Board_20-CLKSEL0*%
X12472552Y-86249388D03*
%TO.P,U1,3,VDD*%
%TO.N,Board_20-+3.3V*%
X12472552Y-86749388D03*
%TO.P,U1,4,BOOTN*%
%TO.N,Board_20-Net-(U1-BOOTN)*%
X12472552Y-87249388D03*
%TO.P,U1,5,PS1*%
%TO.N,Board_20-CLKSEL0*%
X12472552Y-87749388D03*
D11*
%TO.P,U1,6,PS0/WAKE*%
X12747552Y-88811888D03*
%TO.P,U1,9,CAP*%
%TO.N,Board_20-Net-(U1-CAP)*%
X14247552Y-88811888D03*
%TO.P,U1,10,CLKSEL0*%
%TO.N,Board_20-CLKSEL0*%
X14747552Y-88811888D03*
%TO.P,U1,15,ENV_SCL*%
%TO.N,Board_20-Net-(U1-ENV_SCL)*%
X17247552Y-88811888D03*
D12*
%TO.P,U1,16,ENV_SDA*%
%TO.N,Board_20-Net-(U1-ENV_SDA)*%
X17522552Y-87749388D03*
%TO.P,U1,17,SA0/H_MOSI*%
%TO.N,Board_20-CLKSEL0*%
X17522552Y-87249388D03*
%TO.P,U1,19,H_SCL/SCK/RX*%
%TO.N,Board_20-SCL*%
X17522552Y-86249388D03*
D11*
%TO.P,U1,20,H_SDA/H_MISO/TX*%
%TO.N,Board_20-SDA*%
X17247552Y-85186888D03*
%TO.P,U1,25,GNDIO*%
%TO.N,Board_20-CLKSEL0*%
X14747552Y-85186888D03*
%TO.P,U1,26,XOUT32/CLKSEL1*%
%TO.N,Board_20-CLKSEL1*%
X14247552Y-85186888D03*
%TO.P,U1,27,XIN32*%
%TO.N,Board_20-XIN32*%
X13747552Y-85186888D03*
%TO.P,U1,28,VDDIO*%
%TO.N,Board_20-+3.3V*%
X13247552Y-85186888D03*
%TD*%
D19*
%TO.P,C3,1*%
%TO.N,Board_6-XIN32*%
X31327552Y-28399388D03*
%TO.P,C3,2*%
%TO.N,Board_6-CLKSEL0*%
X30367552Y-28399388D03*
%TD*%
D10*
%TO.P,R2,1*%
%TO.N,Board_17-Net-(U1-ENV_SDA)*%
X57797552Y-70489388D03*
%TO.P,R2,2*%
%TO.N,Board_17-+3.3V*%
X57797552Y-71509388D03*
%TD*%
D14*
%TO.P,C5,1*%
%TO.N,Board_12-CLKSEL1*%
X52667552Y-46399388D03*
%TO.P,C5,2*%
%TO.N,Board_12-CLKSEL0*%
X53627552Y-46399388D03*
%TD*%
D10*
%TO.P,R2,1*%
%TO.N,Board_9-Net-(U1-ENV_SDA)*%
X93797552Y-34489388D03*
%TO.P,R2,2*%
%TO.N,Board_9-+3.3V*%
X93797552Y-35509388D03*
%TD*%
%TO.P,R2,1*%
%TO.N,Board_20-Net-(U1-ENV_SDA)*%
X21797552Y-88489388D03*
%TO.P,R2,2*%
%TO.N,Board_20-+3.3V*%
X21797552Y-89509388D03*
%TD*%
D17*
%TO.P,J3,1,Pin_1*%
%TO.N,Board_10-+3.3V*%
X7797552Y-50999388D03*
%TD*%
D15*
%TO.P,R3,1*%
%TO.N,Board_16-SCL*%
X39797552Y-67509388D03*
%TO.P,R3,2*%
%TO.N,Board_16-+3.3V*%
X39797552Y-66489388D03*
%TD*%
D19*
%TO.P,C3,1*%
%TO.N,Board_22-XIN32*%
X49327552Y-82399388D03*
%TO.P,C3,2*%
%TO.N,Board_22-CLKSEL0*%
X48367552Y-82399388D03*
%TD*%
D14*
%TO.P,C4,1*%
%TO.N,Board_6-+3.3V*%
X30367552Y-26199388D03*
%TO.P,C4,2*%
%TO.N,Board_6-CLKSEL0*%
X31327552Y-26199388D03*
%TD*%
D17*
%TO.P,J2,1,Pin_1*%
%TO.N,Board_18-SDA*%
X68997552Y-61799388D03*
%TD*%
D14*
%TO.P,C4,1*%
%TO.N,Board_12-+3.3V*%
X48367552Y-44199388D03*
%TO.P,C4,2*%
%TO.N,Board_12-CLKSEL0*%
X49327552Y-44199388D03*
%TD*%
D10*
%TO.P,R2,1*%
%TO.N,Board_5-Net-(U1-ENV_SDA)*%
X21797552Y-34489388D03*
%TO.P,R2,2*%
%TO.N,Board_5-+3.3V*%
X21797552Y-35509388D03*
%TD*%
D16*
%TO.P,Y1,1,1*%
%TO.N,Board_8-XIN32*%
X68397552Y-28849388D03*
%TO.P,Y1,2,2*%
%TO.N,Board_8-CLKSEL1*%
X69597552Y-28849388D03*
%TD*%
%TO.P,Y1,1,1*%
%TO.N,Board_9-XIN32*%
X86397552Y-28849388D03*
%TO.P,Y1,2,2*%
%TO.N,Board_9-CLKSEL1*%
X87597552Y-28849388D03*
%TD*%
D10*
%TO.P,R2,1*%
%TO.N,Board_10-Net-(U1-ENV_SDA)*%
X21797552Y-52489388D03*
%TO.P,R2,2*%
%TO.N,Board_10-+3.3V*%
X21797552Y-53509388D03*
%TD*%
D16*
%TO.P,Y1,1,1*%
%TO.N,Board_0-XIN32*%
X14397552Y-10849388D03*
%TO.P,Y1,2,2*%
%TO.N,Board_0-CLKSEL1*%
X15597552Y-10849388D03*
%TD*%
D17*
%TO.P,J2,1,Pin_1*%
%TO.N,Board_20-SDA*%
X14997552Y-79799388D03*
%TD*%
%TO.P,J3,1,Pin_1*%
%TO.N,Board_12-+3.3V*%
X43797552Y-50999388D03*
%TD*%
D14*
%TO.P,C1,1*%
%TO.N,Board_3-CLKSEL0*%
X66387552Y-21799388D03*
%TO.P,C1,2*%
%TO.N,Board_3-Net-(U1-CAP)*%
X67347552Y-21799388D03*
%TD*%
D17*
%TO.P,J1,1,Pin_1*%
%TO.N,Board_19-SCL*%
X86997552Y-76199388D03*
%TD*%
D15*
%TO.P,R4,1*%
%TO.N,Board_0-Net-(U1-BOOTN)*%
X8197552Y-17509388D03*
%TO.P,R4,2*%
%TO.N,Board_0-+3.3V*%
X8197552Y-16489388D03*
%TD*%
D18*
%TO.P,R1,1*%
%TO.N,Board_0-+3.3V*%
X16637552Y-21799388D03*
%TO.P,R1,2*%
%TO.N,Board_0-Net-(U1-ENV_SCL)*%
X17657552Y-21799388D03*
%TD*%
D15*
%TO.P,R3,1*%
%TO.N,Board_23-SCL*%
X75797552Y-85509388D03*
%TO.P,R3,2*%
%TO.N,Board_23-+3.3V*%
X75797552Y-84489388D03*
%TD*%
D19*
%TO.P,C3,1*%
%TO.N,Board_13-XIN32*%
X67327552Y-46399388D03*
%TO.P,C3,2*%
%TO.N,Board_13-CLKSEL0*%
X66367552Y-46399388D03*
%TD*%
D21*
%TO.P,REF\u002A\u002A,*%
%TO.N,*%
X2500000Y-2500000D03*
%TD*%
D10*
%TO.P,R2,1*%
%TO.N,Board_14-Net-(U1-ENV_SDA)*%
X93797552Y-52489388D03*
%TO.P,R2,2*%
%TO.N,Board_14-+3.3V*%
X93797552Y-53509388D03*
%TD*%
D13*
%TO.P,R5,1*%
%TO.N,Board_15-+3.3V*%
X17657552Y-62199388D03*
%TO.P,R5,2*%
%TO.N,Board_15-SDA*%
X16637552Y-62199388D03*
%TD*%
D17*
%TO.P,J2,1,Pin_1*%
%TO.N,Board_8-SDA*%
X68997552Y-25799388D03*
%TD*%
D15*
%TO.P,R4,1*%
%TO.N,Board_23-Net-(U1-BOOTN)*%
X62197552Y-89509388D03*
%TO.P,R4,2*%
%TO.N,Board_23-+3.3V*%
X62197552Y-88489388D03*
%TD*%
D18*
%TO.P,R1,1*%
%TO.N,Board_19-+3.3V*%
X88637552Y-75799388D03*
%TO.P,R1,2*%
%TO.N,Board_19-Net-(U1-ENV_SCL)*%
X89657552Y-75799388D03*
%TD*%
D20*
%TO.P,C2,1*%
%TO.N,Board_14-+3.3V*%
X80197552Y-49479388D03*
%TO.P,C2,2*%
%TO.N,Board_14-CLKSEL0*%
X80197552Y-48519388D03*
%TD*%
D14*
%TO.P,C1,1*%
%TO.N,Board_11-CLKSEL0*%
X30387552Y-57799388D03*
%TO.P,C1,2*%
%TO.N,Board_11-Net-(U1-CAP)*%
X31347552Y-57799388D03*
%TD*%
D15*
%TO.P,R3,1*%
%TO.N,Board_12-SCL*%
X57797552Y-49509388D03*
%TO.P,R3,2*%
%TO.N,Board_12-+3.3V*%
X57797552Y-48489388D03*
%TD*%
D17*
%TO.P,J4,1,Pin_1*%
%TO.N,Board_18-CLKSEL0*%
X76197552Y-68999388D03*
%TD*%
D14*
%TO.P,C1,1*%
%TO.N,Board_19-CLKSEL0*%
X84387552Y-75799388D03*
%TO.P,C1,2*%
%TO.N,Board_19-Net-(U1-CAP)*%
X85347552Y-75799388D03*
%TD*%
D11*
%TO.P,U1,1,RESV_NC*%
%TO.N,Board_17-unconnected-(U1-RESV_NC-Pad1)*%
X48747552Y-67186888D03*
D12*
%TO.P,U1,2,GND*%
%TO.N,Board_17-CLKSEL0*%
X48472552Y-68249388D03*
%TO.P,U1,3,VDD*%
%TO.N,Board_17-+3.3V*%
X48472552Y-68749388D03*
%TO.P,U1,4,BOOTN*%
%TO.N,Board_17-Net-(U1-BOOTN)*%
X48472552Y-69249388D03*
%TO.P,U1,5,PS1*%
%TO.N,Board_17-CLKSEL0*%
X48472552Y-69749388D03*
D11*
%TO.P,U1,6,PS0/WAKE*%
X48747552Y-70811888D03*
%TO.P,U1,9,CAP*%
%TO.N,Board_17-Net-(U1-CAP)*%
X50247552Y-70811888D03*
%TO.P,U1,10,CLKSEL0*%
%TO.N,Board_17-CLKSEL0*%
X50747552Y-70811888D03*
%TO.P,U1,15,ENV_SCL*%
%TO.N,Board_17-Net-(U1-ENV_SCL)*%
X53247552Y-70811888D03*
D12*
%TO.P,U1,16,ENV_SDA*%
%TO.N,Board_17-Net-(U1-ENV_SDA)*%
X53522552Y-69749388D03*
%TO.P,U1,17,SA0/H_MOSI*%
%TO.N,Board_17-CLKSEL0*%
X53522552Y-69249388D03*
%TO.P,U1,19,H_SCL/SCK/RX*%
%TO.N,Board_17-SCL*%
X53522552Y-68249388D03*
D11*
%TO.P,U1,20,H_SDA/H_MISO/TX*%
%TO.N,Board_17-SDA*%
X53247552Y-67186888D03*
%TO.P,U1,25,GNDIO*%
%TO.N,Board_17-CLKSEL0*%
X50747552Y-67186888D03*
%TO.P,U1,26,XOUT32/CLKSEL1*%
%TO.N,Board_17-CLKSEL1*%
X50247552Y-67186888D03*
%TO.P,U1,27,XIN32*%
%TO.N,Board_17-XIN32*%
X49747552Y-67186888D03*
%TO.P,U1,28,VDDIO*%
%TO.N,Board_17-+3.3V*%
X49247552Y-67186888D03*
%TD*%
D17*
%TO.P,J2,1,Pin_1*%
%TO.N,Board_4-SDA*%
X86997552Y-7799388D03*
%TD*%
D16*
%TO.P,Y1,1,1*%
%TO.N,Board_3-XIN32*%
X68397552Y-10849388D03*
%TO.P,Y1,2,2*%
%TO.N,Board_3-CLKSEL1*%
X69597552Y-10849388D03*
%TD*%
D17*
%TO.P,J2,1,Pin_1*%
%TO.N,Board_15-SDA*%
X14997552Y-61799388D03*
%TD*%
D20*
%TO.P,C2,1*%
%TO.N,Board_22-+3.3V*%
X44197552Y-85479388D03*
%TO.P,C2,2*%
%TO.N,Board_22-CLKSEL0*%
X44197552Y-84519388D03*
%TD*%
D14*
%TO.P,C4,1*%
%TO.N,Board_16-+3.3V*%
X30367552Y-62199388D03*
%TO.P,C4,2*%
%TO.N,Board_16-CLKSEL0*%
X31327552Y-62199388D03*
%TD*%
D16*
%TO.P,Y1,1,1*%
%TO.N,Board_14-XIN32*%
X86397552Y-46849388D03*
%TO.P,Y1,2,2*%
%TO.N,Board_14-CLKSEL1*%
X87597552Y-46849388D03*
%TD*%
D18*
%TO.P,R1,1*%
%TO.N,Board_6-+3.3V*%
X34637552Y-39799388D03*
%TO.P,R1,2*%
%TO.N,Board_6-Net-(U1-ENV_SCL)*%
X35657552Y-39799388D03*
%TD*%
D20*
%TO.P,C2,1*%
%TO.N,Board_13-+3.3V*%
X62197552Y-49479388D03*
%TO.P,C2,2*%
%TO.N,Board_13-CLKSEL0*%
X62197552Y-48519388D03*
%TD*%
D16*
%TO.P,Y1,1,1*%
%TO.N,Board_21-XIN32*%
X32397552Y-82849388D03*
%TO.P,Y1,2,2*%
%TO.N,Board_21-CLKSEL1*%
X33597552Y-82849388D03*
%TD*%
D19*
%TO.P,C3,1*%
%TO.N,Board_17-XIN32*%
X49327552Y-64399388D03*
%TO.P,C3,2*%
%TO.N,Board_17-CLKSEL0*%
X48367552Y-64399388D03*
%TD*%
D14*
%TO.P,C1,1*%
%TO.N,Board_21-CLKSEL0*%
X30387552Y-93799388D03*
%TO.P,C1,2*%
%TO.N,Board_21-Net-(U1-CAP)*%
X31347552Y-93799388D03*
%TD*%
D20*
%TO.P,C2,1*%
%TO.N,Board_0-+3.3V*%
X8197552Y-13479388D03*
%TO.P,C2,2*%
%TO.N,Board_0-CLKSEL0*%
X8197552Y-12519388D03*
%TD*%
D17*
%TO.P,J1,1,Pin_1*%
%TO.N,Board_15-SCL*%
X14997552Y-76199388D03*
%TD*%
D14*
%TO.P,C5,1*%
%TO.N,Board_23-CLKSEL1*%
X70667552Y-82399388D03*
%TO.P,C5,2*%
%TO.N,Board_23-CLKSEL0*%
X71627552Y-82399388D03*
%TD*%
D16*
%TO.P,Y1,1,1*%
%TO.N,Board_7-XIN32*%
X50397552Y-28849388D03*
%TO.P,Y1,2,2*%
%TO.N,Board_7-CLKSEL1*%
X51597552Y-28849388D03*
%TD*%
D15*
%TO.P,R4,1*%
%TO.N,Board_11-Net-(U1-BOOTN)*%
X26197552Y-53509388D03*
%TO.P,R4,2*%
%TO.N,Board_11-+3.3V*%
X26197552Y-52489388D03*
%TD*%
D14*
%TO.P,C5,1*%
%TO.N,Board_11-CLKSEL1*%
X34667552Y-46399388D03*
%TO.P,C5,2*%
%TO.N,Board_11-CLKSEL0*%
X35627552Y-46399388D03*
%TD*%
D20*
%TO.P,C2,1*%
%TO.N,Board_7-+3.3V*%
X44197552Y-31479388D03*
%TO.P,C2,2*%
%TO.N,Board_7-CLKSEL0*%
X44197552Y-30519388D03*
%TD*%
D17*
%TO.P,J4,1,Pin_1*%
%TO.N,Board_23-CLKSEL0*%
X76197552Y-86999388D03*
%TD*%
D11*
%TO.P,U1,1,RESV_NC*%
%TO.N,Board_14-unconnected-(U1-RESV_NC-Pad1)*%
X84747552Y-49186888D03*
D12*
%TO.P,U1,2,GND*%
%TO.N,Board_14-CLKSEL0*%
X84472552Y-50249388D03*
%TO.P,U1,3,VDD*%
%TO.N,Board_14-+3.3V*%
X84472552Y-50749388D03*
%TO.P,U1,4,BOOTN*%
%TO.N,Board_14-Net-(U1-BOOTN)*%
X84472552Y-51249388D03*
%TO.P,U1,5,PS1*%
%TO.N,Board_14-CLKSEL0*%
X84472552Y-51749388D03*
D11*
%TO.P,U1,6,PS0/WAKE*%
X84747552Y-52811888D03*
%TO.P,U1,9,CAP*%
%TO.N,Board_14-Net-(U1-CAP)*%
X86247552Y-52811888D03*
%TO.P,U1,10,CLKSEL0*%
%TO.N,Board_14-CLKSEL0*%
X86747552Y-52811888D03*
%TO.P,U1,15,ENV_SCL*%
%TO.N,Board_14-Net-(U1-ENV_SCL)*%
X89247552Y-52811888D03*
D12*
%TO.P,U1,16,ENV_SDA*%
%TO.N,Board_14-Net-(U1-ENV_SDA)*%
X89522552Y-51749388D03*
%TO.P,U1,17,SA0/H_MOSI*%
%TO.N,Board_14-CLKSEL0*%
X89522552Y-51249388D03*
%TO.P,U1,19,H_SCL/SCK/RX*%
%TO.N,Board_14-SCL*%
X89522552Y-50249388D03*
D11*
%TO.P,U1,20,H_SDA/H_MISO/TX*%
%TO.N,Board_14-SDA*%
X89247552Y-49186888D03*
%TO.P,U1,25,GNDIO*%
%TO.N,Board_14-CLKSEL0*%
X86747552Y-49186888D03*
%TO.P,U1,26,XOUT32/CLKSEL1*%
%TO.N,Board_14-CLKSEL1*%
X86247552Y-49186888D03*
%TO.P,U1,27,XIN32*%
%TO.N,Board_14-XIN32*%
X85747552Y-49186888D03*
%TO.P,U1,28,VDDIO*%
%TO.N,Board_14-+3.3V*%
X85247552Y-49186888D03*
%TD*%
D21*
%TO.P,REF\u002A\u002A,*%
%TO.N,*%
X2500000Y-99498776D03*
%TD*%
D17*
%TO.P,J1,1,Pin_1*%
%TO.N,Board_12-SCL*%
X50997552Y-58199388D03*
%TD*%
D15*
%TO.P,R3,1*%
%TO.N,Board_21-SCL*%
X39797552Y-85509388D03*
%TO.P,R3,2*%
%TO.N,Board_21-+3.3V*%
X39797552Y-84489388D03*
%TD*%
D14*
%TO.P,C1,1*%
%TO.N,Board_16-CLKSEL0*%
X30387552Y-75799388D03*
%TO.P,C1,2*%
%TO.N,Board_16-Net-(U1-CAP)*%
X31347552Y-75799388D03*
%TD*%
D15*
%TO.P,R3,1*%
%TO.N,Board_5-SCL*%
X21797552Y-31509388D03*
%TO.P,R3,2*%
%TO.N,Board_5-+3.3V*%
X21797552Y-30489388D03*
%TD*%
D14*
%TO.P,C1,1*%
%TO.N,Board_20-CLKSEL0*%
X12387552Y-93799388D03*
%TO.P,C1,2*%
%TO.N,Board_20-Net-(U1-CAP)*%
X13347552Y-93799388D03*
%TD*%
D15*
%TO.P,R4,1*%
%TO.N,Board_10-Net-(U1-BOOTN)*%
X8197552Y-53509388D03*
%TO.P,R4,2*%
%TO.N,Board_10-+3.3V*%
X8197552Y-52489388D03*
%TD*%
D17*
%TO.P,J1,1,Pin_1*%
%TO.N,Board_5-SCL*%
X14997552Y-40199388D03*
%TD*%
D13*
%TO.P,R5,1*%
%TO.N,Board_17-+3.3V*%
X53657552Y-62199388D03*
%TO.P,R5,2*%
%TO.N,Board_17-SDA*%
X52637552Y-62199388D03*
%TD*%
D17*
%TO.P,J3,1,Pin_1*%
%TO.N,Board_0-+3.3V*%
X7797552Y-14999388D03*
%TD*%
D20*
%TO.P,C2,1*%
%TO.N,Board_1-+3.3V*%
X26197552Y-13479388D03*
%TO.P,C2,2*%
%TO.N,Board_1-CLKSEL0*%
X26197552Y-12519388D03*
%TD*%
D15*
%TO.P,R4,1*%
%TO.N,Board_14-Net-(U1-BOOTN)*%
X80197552Y-53509388D03*
%TO.P,R4,2*%
%TO.N,Board_14-+3.3V*%
X80197552Y-52489388D03*
%TD*%
%TO.P,R3,1*%
%TO.N,Board_8-SCL*%
X75797552Y-31509388D03*
%TO.P,R3,2*%
%TO.N,Board_8-+3.3V*%
X75797552Y-30489388D03*
%TD*%
D17*
%TO.P,J3,1,Pin_1*%
%TO.N,Board_18-+3.3V*%
X61797552Y-68999388D03*
%TD*%
D13*
%TO.P,R5,1*%
%TO.N,Board_23-+3.3V*%
X71657552Y-80199388D03*
%TO.P,R5,2*%
%TO.N,Board_23-SDA*%
X70637552Y-80199388D03*
%TD*%
D20*
%TO.P,C2,1*%
%TO.N,Board_18-+3.3V*%
X62197552Y-67479388D03*
%TO.P,C2,2*%
%TO.N,Board_18-CLKSEL0*%
X62197552Y-66519388D03*
%TD*%
D11*
%TO.P,U1,1,RESV_NC*%
%TO.N,Board_21-unconnected-(U1-RESV_NC-Pad1)*%
X30747552Y-85186888D03*
D12*
%TO.P,U1,2,GND*%
%TO.N,Board_21-CLKSEL0*%
X30472552Y-86249388D03*
%TO.P,U1,3,VDD*%
%TO.N,Board_21-+3.3V*%
X30472552Y-86749388D03*
%TO.P,U1,4,BOOTN*%
%TO.N,Board_21-Net-(U1-BOOTN)*%
X30472552Y-87249388D03*
%TO.P,U1,5,PS1*%
%TO.N,Board_21-CLKSEL0*%
X30472552Y-87749388D03*
D11*
%TO.P,U1,6,PS0/WAKE*%
X30747552Y-88811888D03*
%TO.P,U1,9,CAP*%
%TO.N,Board_21-Net-(U1-CAP)*%
X32247552Y-88811888D03*
%TO.P,U1,10,CLKSEL0*%
%TO.N,Board_21-CLKSEL0*%
X32747552Y-88811888D03*
%TO.P,U1,15,ENV_SCL*%
%TO.N,Board_21-Net-(U1-ENV_SCL)*%
X35247552Y-88811888D03*
D12*
%TO.P,U1,16,ENV_SDA*%
%TO.N,Board_21-Net-(U1-ENV_SDA)*%
X35522552Y-87749388D03*
%TO.P,U1,17,SA0/H_MOSI*%
%TO.N,Board_21-CLKSEL0*%
X35522552Y-87249388D03*
%TO.P,U1,19,H_SCL/SCK/RX*%
%TO.N,Board_21-SCL*%
X35522552Y-86249388D03*
D11*
%TO.P,U1,20,H_SDA/H_MISO/TX*%
%TO.N,Board_21-SDA*%
X35247552Y-85186888D03*
%TO.P,U1,25,GNDIO*%
%TO.N,Board_21-CLKSEL0*%
X32747552Y-85186888D03*
%TO.P,U1,26,XOUT32/CLKSEL1*%
%TO.N,Board_21-CLKSEL1*%
X32247552Y-85186888D03*
%TO.P,U1,27,XIN32*%
%TO.N,Board_21-XIN32*%
X31747552Y-85186888D03*
%TO.P,U1,28,VDDIO*%
%TO.N,Board_21-+3.3V*%
X31247552Y-85186888D03*
%TD*%
D17*
%TO.P,J1,1,Pin_1*%
%TO.N,Board_1-SCL*%
X32997552Y-22199388D03*
%TD*%
D20*
%TO.P,C2,1*%
%TO.N,Board_24-+3.3V*%
X80197552Y-85479388D03*
%TO.P,C2,2*%
%TO.N,Board_24-CLKSEL0*%
X80197552Y-84519388D03*
%TD*%
D10*
%TO.P,R2,1*%
%TO.N,Board_23-Net-(U1-ENV_SDA)*%
X75797552Y-88489388D03*
%TO.P,R2,2*%
%TO.N,Board_23-+3.3V*%
X75797552Y-89509388D03*
%TD*%
D11*
%TO.P,U1,1,RESV_NC*%
%TO.N,Board_8-unconnected-(U1-RESV_NC-Pad1)*%
X66747552Y-31186888D03*
D12*
%TO.P,U1,2,GND*%
%TO.N,Board_8-CLKSEL0*%
X66472552Y-32249388D03*
%TO.P,U1,3,VDD*%
%TO.N,Board_8-+3.3V*%
X66472552Y-32749388D03*
%TO.P,U1,4,BOOTN*%
%TO.N,Board_8-Net-(U1-BOOTN)*%
X66472552Y-33249388D03*
%TO.P,U1,5,PS1*%
%TO.N,Board_8-CLKSEL0*%
X66472552Y-33749388D03*
D11*
%TO.P,U1,6,PS0/WAKE*%
X66747552Y-34811888D03*
%TO.P,U1,9,CAP*%
%TO.N,Board_8-Net-(U1-CAP)*%
X68247552Y-34811888D03*
%TO.P,U1,10,CLKSEL0*%
%TO.N,Board_8-CLKSEL0*%
X68747552Y-34811888D03*
%TO.P,U1,15,ENV_SCL*%
%TO.N,Board_8-Net-(U1-ENV_SCL)*%
X71247552Y-34811888D03*
D12*
%TO.P,U1,16,ENV_SDA*%
%TO.N,Board_8-Net-(U1-ENV_SDA)*%
X71522552Y-33749388D03*
%TO.P,U1,17,SA0/H_MOSI*%
%TO.N,Board_8-CLKSEL0*%
X71522552Y-33249388D03*
%TO.P,U1,19,H_SCL/SCK/RX*%
%TO.N,Board_8-SCL*%
X71522552Y-32249388D03*
D11*
%TO.P,U1,20,H_SDA/H_MISO/TX*%
%TO.N,Board_8-SDA*%
X71247552Y-31186888D03*
%TO.P,U1,25,GNDIO*%
%TO.N,Board_8-CLKSEL0*%
X68747552Y-31186888D03*
%TO.P,U1,26,XOUT32/CLKSEL1*%
%TO.N,Board_8-CLKSEL1*%
X68247552Y-31186888D03*
%TO.P,U1,27,XIN32*%
%TO.N,Board_8-XIN32*%
X67747552Y-31186888D03*
%TO.P,U1,28,VDDIO*%
%TO.N,Board_8-+3.3V*%
X67247552Y-31186888D03*
%TD*%
D17*
%TO.P,J1,1,Pin_1*%
%TO.N,Board_24-SCL*%
X86997552Y-94199388D03*
%TD*%
D13*
%TO.P,R5,1*%
%TO.N,Board_19-+3.3V*%
X89657552Y-62199388D03*
%TO.P,R5,2*%
%TO.N,Board_19-SDA*%
X88637552Y-62199388D03*
%TD*%
D15*
%TO.P,R3,1*%
%TO.N,Board_22-SCL*%
X57797552Y-85509388D03*
%TO.P,R3,2*%
%TO.N,Board_22-+3.3V*%
X57797552Y-84489388D03*
%TD*%
D17*
%TO.P,J1,1,Pin_1*%
%TO.N,Board_17-SCL*%
X50997552Y-76199388D03*
%TD*%
D15*
%TO.P,R3,1*%
%TO.N,Board_20-SCL*%
X21797552Y-85509388D03*
%TO.P,R3,2*%
%TO.N,Board_20-+3.3V*%
X21797552Y-84489388D03*
%TD*%
%TO.P,R4,1*%
%TO.N,Board_4-Net-(U1-BOOTN)*%
X80197552Y-17509388D03*
%TO.P,R4,2*%
%TO.N,Board_4-+3.3V*%
X80197552Y-16489388D03*
%TD*%
D18*
%TO.P,R1,1*%
%TO.N,Board_13-+3.3V*%
X70637552Y-57799388D03*
%TO.P,R1,2*%
%TO.N,Board_13-Net-(U1-ENV_SCL)*%
X71657552Y-57799388D03*
%TD*%
D16*
%TO.P,Y1,1,1*%
%TO.N,Board_15-XIN32*%
X14397552Y-64849388D03*
%TO.P,Y1,2,2*%
%TO.N,Board_15-CLKSEL1*%
X15597552Y-64849388D03*
%TD*%
D17*
%TO.P,J2,1,Pin_1*%
%TO.N,Board_2-SDA*%
X50997552Y-7799388D03*
%TD*%
%TO.P,J1,1,Pin_1*%
%TO.N,Board_20-SCL*%
X14997552Y-94199388D03*
%TD*%
D20*
%TO.P,C2,1*%
%TO.N,Board_12-+3.3V*%
X44197552Y-49479388D03*
%TO.P,C2,2*%
%TO.N,Board_12-CLKSEL0*%
X44197552Y-48519388D03*
%TD*%
D19*
%TO.P,C3,1*%
%TO.N,Board_12-XIN32*%
X49327552Y-46399388D03*
%TO.P,C3,2*%
%TO.N,Board_12-CLKSEL0*%
X48367552Y-46399388D03*
%TD*%
D17*
%TO.P,J1,1,Pin_1*%
%TO.N,Board_4-SCL*%
X86997552Y-22199388D03*
%TD*%
D10*
%TO.P,R2,1*%
%TO.N,Board_18-Net-(U1-ENV_SDA)*%
X75797552Y-70489388D03*
%TO.P,R2,2*%
%TO.N,Board_18-+3.3V*%
X75797552Y-71509388D03*
%TD*%
D19*
%TO.P,C3,1*%
%TO.N,Board_21-XIN32*%
X31327552Y-82399388D03*
%TO.P,C3,2*%
%TO.N,Board_21-CLKSEL0*%
X30367552Y-82399388D03*
%TD*%
D10*
%TO.P,R2,1*%
%TO.N,Board_2-Net-(U1-ENV_SDA)*%
X57797552Y-16489388D03*
%TO.P,R2,2*%
%TO.N,Board_2-+3.3V*%
X57797552Y-17509388D03*
%TD*%
D16*
%TO.P,Y1,1,1*%
%TO.N,Board_24-XIN32*%
X86397552Y-82849388D03*
%TO.P,Y1,2,2*%
%TO.N,Board_24-CLKSEL1*%
X87597552Y-82849388D03*
%TD*%
D17*
%TO.P,J4,1,Pin_1*%
%TO.N,Board_19-CLKSEL0*%
X94197552Y-68999388D03*
%TD*%
%TO.P,J2,1,Pin_1*%
%TO.N,Board_1-SDA*%
X32997552Y-7799388D03*
%TD*%
%TO.P,J2,1,Pin_1*%
%TO.N,Board_12-SDA*%
X50997552Y-43799388D03*
%TD*%
D14*
%TO.P,C1,1*%
%TO.N,Board_18-CLKSEL0*%
X66387552Y-75799388D03*
%TO.P,C1,2*%
%TO.N,Board_18-Net-(U1-CAP)*%
X67347552Y-75799388D03*
%TD*%
D18*
%TO.P,R1,1*%
%TO.N,Board_10-+3.3V*%
X16637552Y-57799388D03*
%TO.P,R1,2*%
%TO.N,Board_10-Net-(U1-ENV_SCL)*%
X17657552Y-57799388D03*
%TD*%
D20*
%TO.P,C2,1*%
%TO.N,Board_6-+3.3V*%
X26197552Y-31479388D03*
%TO.P,C2,2*%
%TO.N,Board_6-CLKSEL0*%
X26197552Y-30519388D03*
%TD*%
D17*
%TO.P,J3,1,Pin_1*%
%TO.N,Board_24-+3.3V*%
X79797552Y-86999388D03*
%TD*%
D14*
%TO.P,C5,1*%
%TO.N,Board_8-CLKSEL1*%
X70667552Y-28399388D03*
%TO.P,C5,2*%
%TO.N,Board_8-CLKSEL0*%
X71627552Y-28399388D03*
%TD*%
D17*
%TO.P,J2,1,Pin_1*%
%TO.N,Board_9-SDA*%
X86997552Y-25799388D03*
%TD*%
D14*
%TO.P,C1,1*%
%TO.N,Board_1-CLKSEL0*%
X30387552Y-21799388D03*
%TO.P,C1,2*%
%TO.N,Board_1-Net-(U1-CAP)*%
X31347552Y-21799388D03*
%TD*%
D17*
%TO.P,J4,1,Pin_1*%
%TO.N,Board_17-CLKSEL0*%
X58197552Y-68999388D03*
%TD*%
D10*
%TO.P,R2,1*%
%TO.N,Board_3-Net-(U1-ENV_SDA)*%
X75797552Y-16489388D03*
%TO.P,R2,2*%
%TO.N,Board_3-+3.3V*%
X75797552Y-17509388D03*
%TD*%
D18*
%TO.P,R1,1*%
%TO.N,Board_14-+3.3V*%
X88637552Y-57799388D03*
%TO.P,R1,2*%
%TO.N,Board_14-Net-(U1-ENV_SCL)*%
X89657552Y-57799388D03*
%TD*%
D14*
%TO.P,C5,1*%
%TO.N,Board_18-CLKSEL1*%
X70667552Y-64399388D03*
%TO.P,C5,2*%
%TO.N,Board_18-CLKSEL0*%
X71627552Y-64399388D03*
%TD*%
%TO.P,C1,1*%
%TO.N,Board_23-CLKSEL0*%
X66387552Y-93799388D03*
%TO.P,C1,2*%
%TO.N,Board_23-Net-(U1-CAP)*%
X67347552Y-93799388D03*
%TD*%
D17*
%TO.P,J2,1,Pin_1*%
%TO.N,Board_21-SDA*%
X32997552Y-79799388D03*
%TD*%
D18*
%TO.P,R1,1*%
%TO.N,Board_8-+3.3V*%
X70637552Y-39799388D03*
%TO.P,R1,2*%
%TO.N,Board_8-Net-(U1-ENV_SCL)*%
X71657552Y-39799388D03*
%TD*%
D19*
%TO.P,C3,1*%
%TO.N,Board_16-XIN32*%
X31327552Y-64399388D03*
%TO.P,C3,2*%
%TO.N,Board_16-CLKSEL0*%
X30367552Y-64399388D03*
%TD*%
%TO.P,C3,1*%
%TO.N,Board_2-XIN32*%
X49327552Y-10399388D03*
%TO.P,C3,2*%
%TO.N,Board_2-CLKSEL0*%
X48367552Y-10399388D03*
%TD*%
D13*
%TO.P,R5,1*%
%TO.N,Board_0-+3.3V*%
X17657552Y-8199388D03*
%TO.P,R5,2*%
%TO.N,Board_0-SDA*%
X16637552Y-8199388D03*
%TD*%
D17*
%TO.P,J4,1,Pin_1*%
%TO.N,Board_22-CLKSEL0*%
X58197552Y-86999388D03*
%TD*%
D18*
%TO.P,R1,1*%
%TO.N,Board_5-+3.3V*%
X16637552Y-39799388D03*
%TO.P,R1,2*%
%TO.N,Board_5-Net-(U1-ENV_SCL)*%
X17657552Y-39799388D03*
%TD*%
%TO.P,R1,1*%
%TO.N,Board_1-+3.3V*%
X34637552Y-21799388D03*
%TO.P,R1,2*%
%TO.N,Board_1-Net-(U1-ENV_SCL)*%
X35657552Y-21799388D03*
%TD*%
D14*
%TO.P,C1,1*%
%TO.N,Board_12-CLKSEL0*%
X48387552Y-57799388D03*
%TO.P,C1,2*%
%TO.N,Board_12-Net-(U1-CAP)*%
X49347552Y-57799388D03*
%TD*%
%TO.P,C1,1*%
%TO.N,Board_13-CLKSEL0*%
X66387552Y-57799388D03*
%TO.P,C1,2*%
%TO.N,Board_13-Net-(U1-CAP)*%
X67347552Y-57799388D03*
%TD*%
D15*
%TO.P,R4,1*%
%TO.N,Board_12-Net-(U1-BOOTN)*%
X44197552Y-53509388D03*
%TO.P,R4,2*%
%TO.N,Board_12-+3.3V*%
X44197552Y-52489388D03*
%TD*%
D10*
%TO.P,R2,1*%
%TO.N,Board_21-Net-(U1-ENV_SDA)*%
X39797552Y-88489388D03*
%TO.P,R2,2*%
%TO.N,Board_21-+3.3V*%
X39797552Y-89509388D03*
%TD*%
D17*
%TO.P,J3,1,Pin_1*%
%TO.N,Board_20-+3.3V*%
X7797552Y-86999388D03*
%TD*%
%TO.P,J3,1,Pin_1*%
%TO.N,Board_23-+3.3V*%
X61797552Y-86999388D03*
%TD*%
D15*
%TO.P,R4,1*%
%TO.N,Board_13-Net-(U1-BOOTN)*%
X62197552Y-53509388D03*
%TO.P,R4,2*%
%TO.N,Board_13-+3.3V*%
X62197552Y-52489388D03*
%TD*%
D17*
%TO.P,J3,1,Pin_1*%
%TO.N,Board_14-+3.3V*%
X79797552Y-50999388D03*
%TD*%
D10*
%TO.P,R2,1*%
%TO.N,Board_13-Net-(U1-ENV_SDA)*%
X75797552Y-52489388D03*
%TO.P,R2,2*%
%TO.N,Board_13-+3.3V*%
X75797552Y-53509388D03*
%TD*%
D17*
%TO.P,J4,1,Pin_1*%
%TO.N,Board_10-CLKSEL0*%
X22197552Y-50999388D03*
%TD*%
%TO.P,J1,1,Pin_1*%
%TO.N,Board_0-SCL*%
X14997552Y-22199388D03*
%TD*%
D14*
%TO.P,C4,1*%
%TO.N,Board_15-+3.3V*%
X12367552Y-62199388D03*
%TO.P,C4,2*%
%TO.N,Board_15-CLKSEL0*%
X13327552Y-62199388D03*
%TD*%
D20*
%TO.P,C2,1*%
%TO.N,Board_17-+3.3V*%
X44197552Y-67479388D03*
%TO.P,C2,2*%
%TO.N,Board_17-CLKSEL0*%
X44197552Y-66519388D03*
%TD*%
D16*
%TO.P,Y1,1,1*%
%TO.N,Board_11-XIN32*%
X32397552Y-46849388D03*
%TO.P,Y1,2,2*%
%TO.N,Board_11-CLKSEL1*%
X33597552Y-46849388D03*
%TD*%
D13*
%TO.P,R5,1*%
%TO.N,Board_14-+3.3V*%
X89657552Y-44199388D03*
%TO.P,R5,2*%
%TO.N,Board_14-SDA*%
X88637552Y-44199388D03*
%TD*%
D18*
%TO.P,R1,1*%
%TO.N,Board_24-+3.3V*%
X88637552Y-93799388D03*
%TO.P,R1,2*%
%TO.N,Board_24-Net-(U1-ENV_SCL)*%
X89657552Y-93799388D03*
%TD*%
D14*
%TO.P,C5,1*%
%TO.N,Board_7-CLKSEL1*%
X52667552Y-28399388D03*
%TO.P,C5,2*%
%TO.N,Board_7-CLKSEL0*%
X53627552Y-28399388D03*
%TD*%
D20*
%TO.P,C2,1*%
%TO.N,Board_15-+3.3V*%
X8197552Y-67479388D03*
%TO.P,C2,2*%
%TO.N,Board_15-CLKSEL0*%
X8197552Y-66519388D03*
%TD*%
D17*
%TO.P,J2,1,Pin_1*%
%TO.N,Board_23-SDA*%
X68997552Y-79799388D03*
%TD*%
D14*
%TO.P,C4,1*%
%TO.N,Board_5-+3.3V*%
X12367552Y-26199388D03*
%TO.P,C4,2*%
%TO.N,Board_5-CLKSEL0*%
X13327552Y-26199388D03*
%TD*%
D15*
%TO.P,R3,1*%
%TO.N,Board_19-SCL*%
X93797552Y-67509388D03*
%TO.P,R3,2*%
%TO.N,Board_19-+3.3V*%
X93797552Y-66489388D03*
%TD*%
D17*
%TO.P,J2,1,Pin_1*%
%TO.N,Board_3-SDA*%
X68997552Y-7799388D03*
%TD*%
D14*
%TO.P,C5,1*%
%TO.N,Board_24-CLKSEL1*%
X88667552Y-82399388D03*
%TO.P,C5,2*%
%TO.N,Board_24-CLKSEL0*%
X89627552Y-82399388D03*
%TD*%
D17*
%TO.P,J1,1,Pin_1*%
%TO.N,Board_6-SCL*%
X32997552Y-40199388D03*
%TD*%
D15*
%TO.P,R4,1*%
%TO.N,Board_17-Net-(U1-BOOTN)*%
X44197552Y-71509388D03*
%TO.P,R4,2*%
%TO.N,Board_17-+3.3V*%
X44197552Y-70489388D03*
%TD*%
D14*
%TO.P,C4,1*%
%TO.N,Board_3-+3.3V*%
X66367552Y-8199388D03*
%TO.P,C4,2*%
%TO.N,Board_3-CLKSEL0*%
X67327552Y-8199388D03*
%TD*%
%TO.P,C5,1*%
%TO.N,Board_2-CLKSEL1*%
X52667552Y-10399388D03*
%TO.P,C5,2*%
%TO.N,Board_2-CLKSEL0*%
X53627552Y-10399388D03*
%TD*%
D17*
%TO.P,J1,1,Pin_1*%
%TO.N,Board_14-SCL*%
X86997552Y-58199388D03*
%TD*%
D19*
%TO.P,C3,1*%
%TO.N,Board_9-XIN32*%
X85327552Y-28399388D03*
%TO.P,C3,2*%
%TO.N,Board_9-CLKSEL0*%
X84367552Y-28399388D03*
%TD*%
D17*
%TO.P,J4,1,Pin_1*%
%TO.N,Board_1-CLKSEL0*%
X40197552Y-14999388D03*
%TD*%
D14*
%TO.P,C5,1*%
%TO.N,Board_5-CLKSEL1*%
X16667552Y-28399388D03*
%TO.P,C5,2*%
%TO.N,Board_5-CLKSEL0*%
X17627552Y-28399388D03*
%TD*%
D17*
%TO.P,J3,1,Pin_1*%
%TO.N,Board_1-+3.3V*%
X25797552Y-14999388D03*
%TD*%
D13*
%TO.P,R5,1*%
%TO.N,Board_20-+3.3V*%
X17657552Y-80199388D03*
%TO.P,R5,2*%
%TO.N,Board_20-SDA*%
X16637552Y-80199388D03*
%TD*%
D14*
%TO.P,C1,1*%
%TO.N,Board_7-CLKSEL0*%
X48387552Y-39799388D03*
%TO.P,C1,2*%
%TO.N,Board_7-Net-(U1-CAP)*%
X49347552Y-39799388D03*
%TD*%
%TO.P,C4,1*%
%TO.N,Board_21-+3.3V*%
X30367552Y-80199388D03*
%TO.P,C4,2*%
%TO.N,Board_21-CLKSEL0*%
X31327552Y-80199388D03*
%TD*%
D15*
%TO.P,R4,1*%
%TO.N,Board_1-Net-(U1-BOOTN)*%
X26197552Y-17509388D03*
%TO.P,R4,2*%
%TO.N,Board_1-+3.3V*%
X26197552Y-16489388D03*
%TD*%
D14*
%TO.P,C4,1*%
%TO.N,Board_19-+3.3V*%
X84367552Y-62199388D03*
%TO.P,C4,2*%
%TO.N,Board_19-CLKSEL0*%
X85327552Y-62199388D03*
%TD*%
%TO.P,C1,1*%
%TO.N,Board_2-CLKSEL0*%
X48387552Y-21799388D03*
%TO.P,C1,2*%
%TO.N,Board_2-Net-(U1-CAP)*%
X49347552Y-21799388D03*
%TD*%
D19*
%TO.P,C3,1*%
%TO.N,Board_11-XIN32*%
X31327552Y-46399388D03*
%TO.P,C3,2*%
%TO.N,Board_11-CLKSEL0*%
X30367552Y-46399388D03*
%TD*%
D15*
%TO.P,R3,1*%
%TO.N,Board_18-SCL*%
X75797552Y-67509388D03*
%TO.P,R3,2*%
%TO.N,Board_18-+3.3V*%
X75797552Y-66489388D03*
%TD*%
D14*
%TO.P,C5,1*%
%TO.N,Board_14-CLKSEL1*%
X88667552Y-46399388D03*
%TO.P,C5,2*%
%TO.N,Board_14-CLKSEL0*%
X89627552Y-46399388D03*
%TD*%
D15*
%TO.P,R3,1*%
%TO.N,Board_17-SCL*%
X57797552Y-67509388D03*
%TO.P,R3,2*%
%TO.N,Board_17-+3.3V*%
X57797552Y-66489388D03*
%TD*%
D17*
%TO.P,J2,1,Pin_1*%
%TO.N,Board_17-SDA*%
X50997552Y-61799388D03*
%TD*%
D15*
%TO.P,R3,1*%
%TO.N,Board_4-SCL*%
X93797552Y-13509388D03*
%TO.P,R3,2*%
%TO.N,Board_4-+3.3V*%
X93797552Y-12489388D03*
%TD*%
D14*
%TO.P,C5,1*%
%TO.N,Board_15-CLKSEL1*%
X16667552Y-64399388D03*
%TO.P,C5,2*%
%TO.N,Board_15-CLKSEL0*%
X17627552Y-64399388D03*
%TD*%
D20*
%TO.P,C2,1*%
%TO.N,Board_11-+3.3V*%
X26197552Y-49479388D03*
%TO.P,C2,2*%
%TO.N,Board_11-CLKSEL0*%
X26197552Y-48519388D03*
%TD*%
D19*
%TO.P,C3,1*%
%TO.N,Board_14-XIN32*%
X85327552Y-46399388D03*
%TO.P,C3,2*%
%TO.N,Board_14-CLKSEL0*%
X84367552Y-46399388D03*
%TD*%
D14*
%TO.P,C5,1*%
%TO.N,Board_19-CLKSEL1*%
X88667552Y-64399388D03*
%TO.P,C5,2*%
%TO.N,Board_19-CLKSEL0*%
X89627552Y-64399388D03*
%TD*%
D18*
%TO.P,R1,1*%
%TO.N,Board_4-+3.3V*%
X88637552Y-21799388D03*
%TO.P,R1,2*%
%TO.N,Board_4-Net-(U1-ENV_SCL)*%
X89657552Y-21799388D03*
%TD*%
%TO.P,R1,1*%
%TO.N,Board_2-+3.3V*%
X52637552Y-21799388D03*
%TO.P,R1,2*%
%TO.N,Board_2-Net-(U1-ENV_SCL)*%
X53657552Y-21799388D03*
%TD*%
D10*
%TO.P,R2,1*%
%TO.N,Board_4-Net-(U1-ENV_SDA)*%
X93797552Y-16489388D03*
%TO.P,R2,2*%
%TO.N,Board_4-+3.3V*%
X93797552Y-17509388D03*
%TD*%
D17*
%TO.P,J4,1,Pin_1*%
%TO.N,Board_7-CLKSEL0*%
X58197552Y-32999388D03*
%TD*%
D10*
%TO.P,R2,1*%
%TO.N,Board_19-Net-(U1-ENV_SDA)*%
X93797552Y-70489388D03*
%TO.P,R2,2*%
%TO.N,Board_19-+3.3V*%
X93797552Y-71509388D03*
%TD*%
D17*
%TO.P,J3,1,Pin_1*%
%TO.N,Board_5-+3.3V*%
X7797552Y-32999388D03*
%TD*%
%TO.P,J2,1,Pin_1*%
%TO.N,Board_16-SDA*%
X32997552Y-61799388D03*
%TD*%
D15*
%TO.P,R4,1*%
%TO.N,Board_7-Net-(U1-BOOTN)*%
X44197552Y-35509388D03*
%TO.P,R4,2*%
%TO.N,Board_7-+3.3V*%
X44197552Y-34489388D03*
%TD*%
D17*
%TO.P,J1,1,Pin_1*%
%TO.N,Board_8-SCL*%
X68997552Y-40199388D03*
%TD*%
D13*
%TO.P,R5,1*%
%TO.N,Board_4-+3.3V*%
X89657552Y-8199388D03*
%TO.P,R5,2*%
%TO.N,Board_4-SDA*%
X88637552Y-8199388D03*
%TD*%
D20*
%TO.P,C2,1*%
%TO.N,Board_8-+3.3V*%
X62197552Y-31479388D03*
%TO.P,C2,2*%
%TO.N,Board_8-CLKSEL0*%
X62197552Y-30519388D03*
%TD*%
D17*
%TO.P,J1,1,Pin_1*%
%TO.N,Board_11-SCL*%
X32997552Y-58199388D03*
%TD*%
D15*
%TO.P,R4,1*%
%TO.N,Board_16-Net-(U1-BOOTN)*%
X26197552Y-71509388D03*
%TO.P,R4,2*%
%TO.N,Board_16-+3.3V*%
X26197552Y-70489388D03*
%TD*%
D14*
%TO.P,C4,1*%
%TO.N,Board_17-+3.3V*%
X48367552Y-62199388D03*
%TO.P,C4,2*%
%TO.N,Board_17-CLKSEL0*%
X49327552Y-62199388D03*
%TD*%
D16*
%TO.P,Y1,1,1*%
%TO.N,Board_17-XIN32*%
X50397552Y-64849388D03*
%TO.P,Y1,2,2*%
%TO.N,Board_17-CLKSEL1*%
X51597552Y-64849388D03*
%TD*%
D11*
%TO.P,U1,1,RESV_NC*%
%TO.N,Board_3-unconnected-(U1-RESV_NC-Pad1)*%
X66747552Y-13186888D03*
D12*
%TO.P,U1,2,GND*%
%TO.N,Board_3-CLKSEL0*%
X66472552Y-14249388D03*
%TO.P,U1,3,VDD*%
%TO.N,Board_3-+3.3V*%
X66472552Y-14749388D03*
%TO.P,U1,4,BOOTN*%
%TO.N,Board_3-Net-(U1-BOOTN)*%
X66472552Y-15249388D03*
%TO.P,U1,5,PS1*%
%TO.N,Board_3-CLKSEL0*%
X66472552Y-15749388D03*
D11*
%TO.P,U1,6,PS0/WAKE*%
X66747552Y-16811888D03*
%TO.P,U1,9,CAP*%
%TO.N,Board_3-Net-(U1-CAP)*%
X68247552Y-16811888D03*
%TO.P,U1,10,CLKSEL0*%
%TO.N,Board_3-CLKSEL0*%
X68747552Y-16811888D03*
%TO.P,U1,15,ENV_SCL*%
%TO.N,Board_3-Net-(U1-ENV_SCL)*%
X71247552Y-16811888D03*
D12*
%TO.P,U1,16,ENV_SDA*%
%TO.N,Board_3-Net-(U1-ENV_SDA)*%
X71522552Y-15749388D03*
%TO.P,U1,17,SA0/H_MOSI*%
%TO.N,Board_3-CLKSEL0*%
X71522552Y-15249388D03*
%TO.P,U1,19,H_SCL/SCK/RX*%
%TO.N,Board_3-SCL*%
X71522552Y-14249388D03*
D11*
%TO.P,U1,20,H_SDA/H_MISO/TX*%
%TO.N,Board_3-SDA*%
X71247552Y-13186888D03*
%TO.P,U1,25,GNDIO*%
%TO.N,Board_3-CLKSEL0*%
X68747552Y-13186888D03*
%TO.P,U1,26,XOUT32/CLKSEL1*%
%TO.N,Board_3-CLKSEL1*%
X68247552Y-13186888D03*
%TO.P,U1,27,XIN32*%
%TO.N,Board_3-XIN32*%
X67747552Y-13186888D03*
%TO.P,U1,28,VDDIO*%
%TO.N,Board_3-+3.3V*%
X67247552Y-13186888D03*
%TD*%
D14*
%TO.P,C1,1*%
%TO.N,Board_15-CLKSEL0*%
X12387552Y-75799388D03*
%TO.P,C1,2*%
%TO.N,Board_15-Net-(U1-CAP)*%
X13347552Y-75799388D03*
%TD*%
D16*
%TO.P,Y1,1,1*%
%TO.N,Board_20-XIN32*%
X14397552Y-82849388D03*
%TO.P,Y1,2,2*%
%TO.N,Board_20-CLKSEL1*%
X15597552Y-82849388D03*
%TD*%
D10*
%TO.P,R2,1*%
%TO.N,Board_12-Net-(U1-ENV_SDA)*%
X57797552Y-52489388D03*
%TO.P,R2,2*%
%TO.N,Board_12-+3.3V*%
X57797552Y-53509388D03*
%TD*%
D20*
%TO.P,C2,1*%
%TO.N,Board_2-+3.3V*%
X44197552Y-13479388D03*
%TO.P,C2,2*%
%TO.N,Board_2-CLKSEL0*%
X44197552Y-12519388D03*
%TD*%
D22*
%TO.N,Board_0-+3.3V*%
X16297552Y-20449388D03*
X14547552Y-19599388D03*
X19597552Y-19999388D03*
X10847552Y-9299388D03*
X19627552Y-10319388D03*
%TO.N,Board_0-CLKSEL0*%
X12747552Y-18549388D03*
X10397552Y-13399388D03*
X9697552Y-11499388D03*
%TO.N,Board_0-SCL*%
X19397552Y-14249388D03*
%TO.N,Board_0-SDA*%
X17797552Y-11449388D03*
%TO.N,Board_1-+3.3V*%
X37627552Y-10319388D03*
X37597552Y-19999388D03*
X32547552Y-19599388D03*
X28847552Y-9299388D03*
X34297552Y-20449388D03*
%TO.N,Board_1-CLKSEL0*%
X30747552Y-18549388D03*
X28397552Y-13399388D03*
X27697552Y-11499388D03*
%TO.N,Board_1-SCL*%
X37397552Y-14249388D03*
%TO.N,Board_1-SDA*%
X35797552Y-11449388D03*
%TO.N,Board_2-+3.3V*%
X52297552Y-20449388D03*
X46847552Y-9299388D03*
X50547552Y-19599388D03*
X55597552Y-19999388D03*
X55627552Y-10319388D03*
%TO.N,Board_2-CLKSEL0*%
X48747552Y-18549388D03*
X46397552Y-13399388D03*
X45697552Y-11499388D03*
%TO.N,Board_2-SCL*%
X55397552Y-14249388D03*
%TO.N,Board_2-SDA*%
X53797552Y-11449388D03*
%TO.N,Board_3-+3.3V*%
X64847552Y-9299388D03*
X70297552Y-20449388D03*
X68547552Y-19599388D03*
X73597552Y-19999388D03*
X73627552Y-10319388D03*
%TO.N,Board_3-CLKSEL0*%
X64397552Y-13399388D03*
X63697552Y-11499388D03*
X66747552Y-18549388D03*
%TO.N,Board_3-SCL*%
X73397552Y-14249388D03*
%TO.N,Board_3-SDA*%
X71797552Y-11449388D03*
%TO.N,Board_4-+3.3V*%
X91627552Y-10319388D03*
X82847552Y-9299388D03*
X86547552Y-19599388D03*
X91597552Y-19999388D03*
X88297552Y-20449388D03*
%TO.N,Board_4-CLKSEL0*%
X84747552Y-18549388D03*
X82397552Y-13399388D03*
X81697552Y-11499388D03*
%TO.N,Board_4-SCL*%
X91397552Y-14249388D03*
%TO.N,Board_4-SDA*%
X89797552Y-11449388D03*
%TO.N,Board_5-+3.3V*%
X14547552Y-37599388D03*
X10847552Y-27299388D03*
X19597552Y-37999388D03*
X16297552Y-38449388D03*
X19627552Y-28319388D03*
%TO.N,Board_5-CLKSEL0*%
X9697552Y-29499388D03*
X12747552Y-36549388D03*
X10397552Y-31399388D03*
%TO.N,Board_5-SCL*%
X19397552Y-32249388D03*
%TO.N,Board_5-SDA*%
X17797552Y-29449388D03*
%TO.N,Board_6-+3.3V*%
X34297552Y-38449388D03*
X37597552Y-37999388D03*
X28847552Y-27299388D03*
X37627552Y-28319388D03*
X32547552Y-37599388D03*
%TO.N,Board_6-CLKSEL0*%
X28397552Y-31399388D03*
X30747552Y-36549388D03*
X27697552Y-29499388D03*
%TO.N,Board_6-SCL*%
X37397552Y-32249388D03*
%TO.N,Board_6-SDA*%
X35797552Y-29449388D03*
%TO.N,Board_7-+3.3V*%
X55627552Y-28319388D03*
X46847552Y-27299388D03*
X55597552Y-37999388D03*
X50547552Y-37599388D03*
X52297552Y-38449388D03*
%TO.N,Board_7-CLKSEL0*%
X48747552Y-36549388D03*
X45697552Y-29499388D03*
X46397552Y-31399388D03*
%TO.N,Board_7-SCL*%
X55397552Y-32249388D03*
%TO.N,Board_7-SDA*%
X53797552Y-29449388D03*
%TO.N,Board_8-+3.3V*%
X73627552Y-28319388D03*
X73597552Y-37999388D03*
X64847552Y-27299388D03*
X70297552Y-38449388D03*
X68547552Y-37599388D03*
%TO.N,Board_8-CLKSEL0*%
X66747552Y-36549388D03*
X63697552Y-29499388D03*
X64397552Y-31399388D03*
%TO.N,Board_8-SCL*%
X73397552Y-32249388D03*
%TO.N,Board_8-SDA*%
X71797552Y-29449388D03*
%TO.N,Board_9-+3.3V*%
X82847552Y-27299388D03*
X91627552Y-28319388D03*
X86547552Y-37599388D03*
X91597552Y-37999388D03*
X88297552Y-38449388D03*
%TO.N,Board_9-CLKSEL0*%
X84747552Y-36549388D03*
X81697552Y-29499388D03*
X82397552Y-31399388D03*
%TO.N,Board_9-SCL*%
X91397552Y-32249388D03*
%TO.N,Board_9-SDA*%
X89797552Y-29449388D03*
%TO.N,Board_10-+3.3V*%
X19627552Y-46319388D03*
X10847552Y-45299388D03*
X16297552Y-56449388D03*
X14547552Y-55599388D03*
X19597552Y-55999388D03*
%TO.N,Board_10-CLKSEL0*%
X9697552Y-47499388D03*
X12747552Y-54549388D03*
X10397552Y-49399388D03*
%TO.N,Board_10-SCL*%
X19397552Y-50249388D03*
%TO.N,Board_10-SDA*%
X17797552Y-47449388D03*
%TO.N,Board_11-+3.3V*%
X28847552Y-45299388D03*
X34297552Y-56449388D03*
X37627552Y-46319388D03*
X37597552Y-55999388D03*
X32547552Y-55599388D03*
%TO.N,Board_11-CLKSEL0*%
X27697552Y-47499388D03*
X30747552Y-54549388D03*
X28397552Y-49399388D03*
%TO.N,Board_11-SCL*%
X37397552Y-50249388D03*
%TO.N,Board_11-SDA*%
X35797552Y-47449388D03*
%TO.N,Board_12-+3.3V*%
X50547552Y-55599388D03*
X52297552Y-56449388D03*
X55627552Y-46319388D03*
X46847552Y-45299388D03*
X55597552Y-55999388D03*
%TO.N,Board_12-CLKSEL0*%
X46397552Y-49399388D03*
X45697552Y-47499388D03*
X48747552Y-54549388D03*
%TO.N,Board_12-SCL*%
X55397552Y-50249388D03*
%TO.N,Board_12-SDA*%
X53797552Y-47449388D03*
%TO.N,Board_13-+3.3V*%
X64847552Y-45299388D03*
X73597552Y-55999388D03*
X68547552Y-55599388D03*
X73627552Y-46319388D03*
X70297552Y-56449388D03*
%TO.N,Board_13-CLKSEL0*%
X64397552Y-49399388D03*
X63697552Y-47499388D03*
X66747552Y-54549388D03*
%TO.N,Board_13-SCL*%
X73397552Y-50249388D03*
%TO.N,Board_13-SDA*%
X71797552Y-47449388D03*
%TO.N,Board_14-+3.3V*%
X91627552Y-46319388D03*
X86547552Y-55599388D03*
X88297552Y-56449388D03*
X82847552Y-45299388D03*
X91597552Y-55999388D03*
%TO.N,Board_14-CLKSEL0*%
X84747552Y-54549388D03*
X82397552Y-49399388D03*
X81697552Y-47499388D03*
%TO.N,Board_14-SCL*%
X91397552Y-50249388D03*
%TO.N,Board_14-SDA*%
X89797552Y-47449388D03*
%TO.N,Board_15-+3.3V*%
X10847552Y-63299388D03*
X19597552Y-73999388D03*
X16297552Y-74449388D03*
X19627552Y-64319388D03*
X14547552Y-73599388D03*
%TO.N,Board_15-CLKSEL0*%
X9697552Y-65499388D03*
X10397552Y-67399388D03*
X12747552Y-72549388D03*
%TO.N,Board_15-SCL*%
X19397552Y-68249388D03*
%TO.N,Board_15-SDA*%
X17797552Y-65449388D03*
%TO.N,Board_16-+3.3V*%
X32547552Y-73599388D03*
X37627552Y-64319388D03*
X37597552Y-73999388D03*
X34297552Y-74449388D03*
X28847552Y-63299388D03*
%TO.N,Board_16-CLKSEL0*%
X30747552Y-72549388D03*
X27697552Y-65499388D03*
X28397552Y-67399388D03*
%TO.N,Board_16-SCL*%
X37397552Y-68249388D03*
%TO.N,Board_16-SDA*%
X35797552Y-65449388D03*
%TO.N,Board_17-+3.3V*%
X55597552Y-73999388D03*
X46847552Y-63299388D03*
X50547552Y-73599388D03*
X52297552Y-74449388D03*
X55627552Y-64319388D03*
%TO.N,Board_17-CLKSEL0*%
X45697552Y-65499388D03*
X48747552Y-72549388D03*
X46397552Y-67399388D03*
%TO.N,Board_17-SCL*%
X55397552Y-68249388D03*
%TO.N,Board_17-SDA*%
X53797552Y-65449388D03*
%TO.N,Board_18-+3.3V*%
X73627552Y-64319388D03*
X70297552Y-74449388D03*
X68547552Y-73599388D03*
X64847552Y-63299388D03*
X73597552Y-73999388D03*
%TO.N,Board_18-CLKSEL0*%
X64397552Y-67399388D03*
X66747552Y-72549388D03*
X63697552Y-65499388D03*
%TO.N,Board_18-SCL*%
X73397552Y-68249388D03*
%TO.N,Board_18-SDA*%
X71797552Y-65449388D03*
%TO.N,Board_19-+3.3V*%
X82847552Y-63299388D03*
X88297552Y-74449388D03*
X91597552Y-73999388D03*
X86547552Y-73599388D03*
X91627552Y-64319388D03*
%TO.N,Board_19-CLKSEL0*%
X82397552Y-67399388D03*
X81697552Y-65499388D03*
X84747552Y-72549388D03*
%TO.N,Board_19-SCL*%
X91397552Y-68249388D03*
%TO.N,Board_19-SDA*%
X89797552Y-65449388D03*
%TO.N,Board_20-+3.3V*%
X14547552Y-91599388D03*
X10847552Y-81299388D03*
X16297552Y-92449388D03*
X19627552Y-82319388D03*
X19597552Y-91999388D03*
%TO.N,Board_20-CLKSEL0*%
X9697552Y-83499388D03*
X10397552Y-85399388D03*
X12747552Y-90549388D03*
%TO.N,Board_20-SCL*%
X19397552Y-86249388D03*
%TO.N,Board_20-SDA*%
X17797552Y-83449388D03*
%TO.N,Board_21-+3.3V*%
X28847552Y-81299388D03*
X37597552Y-91999388D03*
X37627552Y-82319388D03*
X32547552Y-91599388D03*
X34297552Y-92449388D03*
%TO.N,Board_21-CLKSEL0*%
X28397552Y-85399388D03*
X27697552Y-83499388D03*
X30747552Y-90549388D03*
%TO.N,Board_21-SCL*%
X37397552Y-86249388D03*
%TO.N,Board_21-SDA*%
X35797552Y-83449388D03*
%TO.N,Board_22-+3.3V*%
X46847552Y-81299388D03*
X52297552Y-92449388D03*
X50547552Y-91599388D03*
X55597552Y-91999388D03*
X55627552Y-82319388D03*
%TO.N,Board_22-CLKSEL0*%
X45697552Y-83499388D03*
X48747552Y-90549388D03*
X46397552Y-85399388D03*
%TO.N,Board_22-SCL*%
X55397552Y-86249388D03*
%TO.N,Board_22-SDA*%
X53797552Y-83449388D03*
%TO.N,Board_23-+3.3V*%
X73597552Y-91999388D03*
X73627552Y-82319388D03*
X64847552Y-81299388D03*
X70297552Y-92449388D03*
X68547552Y-91599388D03*
%TO.N,Board_23-CLKSEL0*%
X64397552Y-85399388D03*
X63697552Y-83499388D03*
X66747552Y-90549388D03*
%TO.N,Board_23-SCL*%
X73397552Y-86249388D03*
%TO.N,Board_23-SDA*%
X71797552Y-83449388D03*
%TO.N,Board_24-+3.3V*%
X88297552Y-92449388D03*
X86547552Y-91599388D03*
X91627552Y-82319388D03*
X91597552Y-91999388D03*
X82847552Y-81299388D03*
%TO.N,Board_24-CLKSEL0*%
X81697552Y-83499388D03*
X82397552Y-85399388D03*
X84747552Y-90549388D03*
%TO.N,Board_24-SCL*%
X91397552Y-86249388D03*
%TO.N,Board_24-SDA*%
X89797552Y-83449388D03*
%TD*%
D23*
%TO.N,Board_0-+3.3V*%
X17657552Y-8199388D02*
X17657552Y-8349388D01*
X7797552Y-14149388D02*
X7797552Y-14999388D01*
X12049943Y-11049388D02*
X10897552Y-11049388D01*
X8197552Y-16539388D02*
X8197552Y-15399388D01*
X21797552Y-17799388D02*
X19597552Y-19999388D01*
X13197552Y-11499388D02*
X12499943Y-11499388D01*
X8197552Y-13479388D02*
X8197552Y-14599388D01*
X10422552Y-11524388D02*
X10422552Y-11799693D01*
X10897552Y-11049388D02*
X10422552Y-11524388D01*
X21797552Y-17509388D02*
X21797552Y-17799388D01*
X9722552Y-12224388D02*
X7797552Y-14149388D01*
X9997857Y-12224388D02*
X9722552Y-12224388D01*
X10422552Y-11799693D02*
X9997857Y-12224388D01*
X8047552Y-14749388D02*
X12472552Y-14749388D01*
X8197552Y-15399388D02*
X7797552Y-14999388D01*
X19627552Y-10319388D02*
X21797552Y-12489388D01*
X15447552Y-19599388D02*
X16297552Y-20449388D01*
X13247552Y-13186888D02*
X13247552Y-11549388D01*
X12499943Y-11499388D02*
X12049943Y-11049388D01*
X11947552Y-8199388D02*
X10847552Y-9299388D01*
X12367552Y-8199388D02*
X11947552Y-8199388D01*
X16297552Y-21459388D02*
X16637552Y-21799388D01*
X8197552Y-14599388D02*
X7797552Y-14999388D01*
X16297552Y-20449388D02*
X16297552Y-21459388D01*
X17657552Y-8349388D02*
X19627552Y-10319388D01*
X14547552Y-19599388D02*
X15447552Y-19599388D01*
X7797552Y-14999388D02*
X8047552Y-14749388D01*
X13247552Y-11549388D02*
X13197552Y-11499388D01*
%TO.N,Board_0-CLKSEL0*%
X12472552Y-16536888D02*
X12747552Y-16811888D01*
X10797552Y-10399388D02*
X9697552Y-11499388D01*
X12747552Y-18549388D02*
X12747552Y-16811888D01*
X14847661Y-13186888D02*
X14747552Y-13186888D01*
X13327552Y-8199388D02*
X13327552Y-9431779D01*
X14747552Y-16811888D02*
X14747552Y-16599388D01*
X17772552Y-14999388D02*
X17522552Y-15249388D01*
X12472552Y-15749388D02*
X12472552Y-16536888D01*
X12387552Y-21799388D02*
X12747552Y-21439388D01*
X16097552Y-15249388D02*
X17522552Y-15249388D01*
X17627552Y-10399388D02*
X17627552Y-10406997D01*
X12747552Y-21439388D02*
X12747552Y-18549388D01*
X14747552Y-13186888D02*
X16810052Y-15249388D01*
X10397552Y-13399388D02*
X11622552Y-13399388D01*
X16810052Y-15249388D02*
X17522552Y-15249388D01*
X22197552Y-14999388D02*
X17772552Y-14999388D01*
X14747552Y-16599388D02*
X16097552Y-15249388D01*
X12367552Y-10391779D02*
X12367552Y-10399388D01*
X11622552Y-13399388D02*
X12472552Y-14249388D01*
X8197552Y-12519388D02*
X8677552Y-12519388D01*
X17627552Y-10406997D02*
X14847661Y-13186888D01*
X12367552Y-10399388D02*
X10797552Y-10399388D01*
X13327552Y-9431779D02*
X12367552Y-10391779D01*
X8677552Y-12519388D02*
X9697552Y-11499388D01*
%TO.N,Board_0-CLKSEL1*%
X14247552Y-12549388D02*
X14247552Y-13186888D01*
X15597552Y-10849388D02*
X15597552Y-11199388D01*
X16047552Y-10399388D02*
X15597552Y-10849388D01*
X15597552Y-11199388D02*
X14247552Y-12549388D01*
X16667552Y-10399388D02*
X16047552Y-10399388D01*
%TO.N,Board_0-Net-(U1-BOOTN)*%
X11720552Y-15249388D02*
X9410552Y-17559388D01*
X12472552Y-15249388D02*
X11720552Y-15249388D01*
X9410552Y-17559388D02*
X8197552Y-17559388D01*
%TO.N,Board_0-Net-(U1-CAP)*%
X13347552Y-21799388D02*
X13497552Y-21649388D01*
X13497552Y-21649388D02*
X13497552Y-17561888D01*
X13497552Y-17561888D02*
X14247552Y-16811888D01*
%TO.N,Board_0-Net-(U1-ENV_SCL)*%
X17247552Y-21389388D02*
X17657552Y-21799388D01*
X17247552Y-16811888D02*
X17247552Y-21389388D01*
%TO.N,Board_0-Net-(U1-ENV_SDA)*%
X21057552Y-15749388D02*
X21797552Y-16489388D01*
X17522552Y-15749388D02*
X21057552Y-15749388D01*
%TO.N,Board_0-SCL*%
X21057552Y-14249388D02*
X21797552Y-13509388D01*
X19397552Y-14249388D02*
X21057552Y-14249388D01*
X17522552Y-14249388D02*
X19397552Y-14249388D01*
%TO.N,Board_0-SDA*%
X16637552Y-8199388D02*
X15397552Y-8199388D01*
X17247552Y-11999388D02*
X17797552Y-11449388D01*
X15397552Y-8199388D02*
X14997552Y-7799388D01*
X17247552Y-13186888D02*
X17247552Y-11999388D01*
%TO.N,Board_0-XIN32*%
X13327552Y-10399388D02*
X13947552Y-10399388D01*
X13947552Y-10399388D02*
X14397552Y-10849388D01*
X14397552Y-10849388D02*
X13747552Y-11499388D01*
X13747552Y-11499388D02*
X13747552Y-13186888D01*
%TO.N,Board_1-+3.3V*%
X27997857Y-12224388D02*
X27722552Y-12224388D01*
X26197552Y-15399388D02*
X25797552Y-14999388D01*
X28897552Y-11049388D02*
X28422552Y-11524388D01*
X33447552Y-19599388D02*
X34297552Y-20449388D01*
X37627552Y-10319388D02*
X39797552Y-12489388D01*
X31197552Y-11499388D02*
X30499943Y-11499388D01*
X25797552Y-14149388D02*
X25797552Y-14999388D01*
X39797552Y-17799388D02*
X37597552Y-19999388D01*
X34297552Y-20449388D02*
X34297552Y-21459388D01*
X26197552Y-16539388D02*
X26197552Y-15399388D01*
X39797552Y-17509388D02*
X39797552Y-17799388D01*
X29947552Y-8199388D02*
X28847552Y-9299388D01*
X28422552Y-11799693D02*
X27997857Y-12224388D01*
X31247552Y-13186888D02*
X31247552Y-11549388D01*
X32547552Y-19599388D02*
X33447552Y-19599388D01*
X30499943Y-11499388D02*
X30049943Y-11049388D01*
X26197552Y-14599388D02*
X25797552Y-14999388D01*
X30367552Y-8199388D02*
X29947552Y-8199388D01*
X34297552Y-21459388D02*
X34637552Y-21799388D01*
X35657552Y-8199388D02*
X35657552Y-8349388D01*
X30049943Y-11049388D02*
X28897552Y-11049388D01*
X26197552Y-13479388D02*
X26197552Y-14599388D01*
X35657552Y-8349388D02*
X37627552Y-10319388D01*
X31247552Y-11549388D02*
X31197552Y-11499388D01*
X28422552Y-11524388D02*
X28422552Y-11799693D01*
X27722552Y-12224388D02*
X25797552Y-14149388D01*
X25797552Y-14999388D02*
X26047552Y-14749388D01*
X26047552Y-14749388D02*
X30472552Y-14749388D01*
%TO.N,Board_1-CLKSEL0*%
X35627552Y-10406997D02*
X32847661Y-13186888D01*
X31327552Y-9431779D02*
X30367552Y-10391779D01*
X32747552Y-13186888D02*
X34810052Y-15249388D01*
X29622552Y-13399388D02*
X30472552Y-14249388D01*
X32747552Y-16811888D02*
X32747552Y-16599388D01*
X26197552Y-12519388D02*
X26677552Y-12519388D01*
X30472552Y-15749388D02*
X30472552Y-16536888D01*
X34097552Y-15249388D02*
X35522552Y-15249388D01*
X40197552Y-14999388D02*
X35772552Y-14999388D01*
X32847661Y-13186888D02*
X32747552Y-13186888D01*
X31327552Y-8199388D02*
X31327552Y-9431779D01*
X35627552Y-10399388D02*
X35627552Y-10406997D01*
X32747552Y-16599388D02*
X34097552Y-15249388D01*
X30367552Y-10399388D02*
X28797552Y-10399388D01*
X30747552Y-21439388D02*
X30747552Y-18549388D01*
X30367552Y-10391779D02*
X30367552Y-10399388D01*
X35772552Y-14999388D02*
X35522552Y-15249388D01*
X28797552Y-10399388D02*
X27697552Y-11499388D01*
X30472552Y-16536888D02*
X30747552Y-16811888D01*
X28397552Y-13399388D02*
X29622552Y-13399388D01*
X34810052Y-15249388D02*
X35522552Y-15249388D01*
X30387552Y-21799388D02*
X30747552Y-21439388D01*
X26677552Y-12519388D02*
X27697552Y-11499388D01*
X30747552Y-18549388D02*
X30747552Y-16811888D01*
%TO.N,Board_1-CLKSEL1*%
X33597552Y-11199388D02*
X32247552Y-12549388D01*
X34667552Y-10399388D02*
X34047552Y-10399388D01*
X32247552Y-12549388D02*
X32247552Y-13186888D01*
X34047552Y-10399388D02*
X33597552Y-10849388D01*
X33597552Y-10849388D02*
X33597552Y-11199388D01*
%TO.N,Board_1-Net-(U1-BOOTN)*%
X27410552Y-17559388D02*
X26197552Y-17559388D01*
X30472552Y-15249388D02*
X29720552Y-15249388D01*
X29720552Y-15249388D02*
X27410552Y-17559388D01*
%TO.N,Board_1-Net-(U1-CAP)*%
X31497552Y-21649388D02*
X31497552Y-17561888D01*
X31347552Y-21799388D02*
X31497552Y-21649388D01*
X31497552Y-17561888D02*
X32247552Y-16811888D01*
%TO.N,Board_1-Net-(U1-ENV_SCL)*%
X35247552Y-21389388D02*
X35657552Y-21799388D01*
X35247552Y-16811888D02*
X35247552Y-21389388D01*
%TO.N,Board_1-Net-(U1-ENV_SDA)*%
X35522552Y-15749388D02*
X39057552Y-15749388D01*
X39057552Y-15749388D02*
X39797552Y-16489388D01*
%TO.N,Board_1-SCL*%
X35522552Y-14249388D02*
X37397552Y-14249388D01*
X37397552Y-14249388D02*
X39057552Y-14249388D01*
X39057552Y-14249388D02*
X39797552Y-13509388D01*
%TO.N,Board_1-SDA*%
X35247552Y-11999388D02*
X35797552Y-11449388D01*
X33397552Y-8199388D02*
X32997552Y-7799388D01*
X34637552Y-8199388D02*
X33397552Y-8199388D01*
X35247552Y-13186888D02*
X35247552Y-11999388D01*
%TO.N,Board_1-XIN32*%
X32397552Y-10849388D02*
X31747552Y-11499388D01*
X31327552Y-10399388D02*
X31947552Y-10399388D01*
X31947552Y-10399388D02*
X32397552Y-10849388D01*
X31747552Y-11499388D02*
X31747552Y-13186888D01*
%TO.N,Board_2-+3.3V*%
X49247552Y-11549388D02*
X49197552Y-11499388D01*
X44197552Y-13479388D02*
X44197552Y-14599388D01*
X52297552Y-20449388D02*
X52297552Y-21459388D01*
X46422552Y-11799693D02*
X45997857Y-12224388D01*
X46897552Y-11049388D02*
X46422552Y-11524388D01*
X53657552Y-8349388D02*
X55627552Y-10319388D01*
X45722552Y-12224388D02*
X43797552Y-14149388D01*
X53657552Y-8199388D02*
X53657552Y-8349388D01*
X55627552Y-10319388D02*
X57797552Y-12489388D01*
X50547552Y-19599388D02*
X51447552Y-19599388D01*
X52297552Y-21459388D02*
X52637552Y-21799388D01*
X44047552Y-14749388D02*
X48472552Y-14749388D01*
X44197552Y-15399388D02*
X43797552Y-14999388D01*
X49197552Y-11499388D02*
X48499943Y-11499388D01*
X48499943Y-11499388D02*
X48049943Y-11049388D01*
X48049943Y-11049388D02*
X46897552Y-11049388D01*
X49247552Y-13186888D02*
X49247552Y-11549388D01*
X45997857Y-12224388D02*
X45722552Y-12224388D01*
X51447552Y-19599388D02*
X52297552Y-20449388D01*
X46422552Y-11524388D02*
X46422552Y-11799693D01*
X57797552Y-17799388D02*
X55597552Y-19999388D01*
X57797552Y-17509388D02*
X57797552Y-17799388D01*
X44197552Y-16539388D02*
X44197552Y-15399388D01*
X47947552Y-8199388D02*
X46847552Y-9299388D01*
X48367552Y-8199388D02*
X47947552Y-8199388D01*
X43797552Y-14149388D02*
X43797552Y-14999388D01*
X44197552Y-14599388D02*
X43797552Y-14999388D01*
X43797552Y-14999388D02*
X44047552Y-14749388D01*
%TO.N,Board_2-CLKSEL0*%
X48747552Y-21439388D02*
X48747552Y-18549388D01*
X53627552Y-10406997D02*
X50847661Y-13186888D01*
X46797552Y-10399388D02*
X45697552Y-11499388D01*
X48387552Y-21799388D02*
X48747552Y-21439388D01*
X50747552Y-13186888D02*
X52810052Y-15249388D01*
X53772552Y-14999388D02*
X53522552Y-15249388D01*
X44197552Y-12519388D02*
X44677552Y-12519388D01*
X47622552Y-13399388D02*
X48472552Y-14249388D01*
X49327552Y-8199388D02*
X49327552Y-9431779D01*
X48472552Y-16536888D02*
X48747552Y-16811888D01*
X44677552Y-12519388D02*
X45697552Y-11499388D01*
X50747552Y-16811888D02*
X50747552Y-16599388D01*
X53627552Y-10399388D02*
X53627552Y-10406997D01*
X52810052Y-15249388D02*
X53522552Y-15249388D01*
X48472552Y-15749388D02*
X48472552Y-16536888D01*
X48367552Y-10399388D02*
X46797552Y-10399388D01*
X49327552Y-9431779D02*
X48367552Y-10391779D01*
X50847661Y-13186888D02*
X50747552Y-13186888D01*
X50747552Y-16599388D02*
X52097552Y-15249388D01*
X48367552Y-10391779D02*
X48367552Y-10399388D01*
X58197552Y-14999388D02*
X53772552Y-14999388D01*
X52097552Y-15249388D02*
X53522552Y-15249388D01*
X46397552Y-13399388D02*
X47622552Y-13399388D01*
X48747552Y-18549388D02*
X48747552Y-16811888D01*
%TO.N,Board_2-CLKSEL1*%
X51597552Y-10849388D02*
X51597552Y-11199388D01*
X52667552Y-10399388D02*
X52047552Y-10399388D01*
X50247552Y-12549388D02*
X50247552Y-13186888D01*
X51597552Y-11199388D02*
X50247552Y-12549388D01*
X52047552Y-10399388D02*
X51597552Y-10849388D01*
%TO.N,Board_2-Net-(U1-BOOTN)*%
X48472552Y-15249388D02*
X47720552Y-15249388D01*
X47720552Y-15249388D02*
X45410552Y-17559388D01*
X45410552Y-17559388D02*
X44197552Y-17559388D01*
%TO.N,Board_2-Net-(U1-CAP)*%
X49497552Y-17561888D02*
X50247552Y-16811888D01*
X49347552Y-21799388D02*
X49497552Y-21649388D01*
X49497552Y-21649388D02*
X49497552Y-17561888D01*
%TO.N,Board_2-Net-(U1-ENV_SCL)*%
X53247552Y-21389388D02*
X53657552Y-21799388D01*
X53247552Y-16811888D02*
X53247552Y-21389388D01*
%TO.N,Board_2-Net-(U1-ENV_SDA)*%
X53522552Y-15749388D02*
X57057552Y-15749388D01*
X57057552Y-15749388D02*
X57797552Y-16489388D01*
%TO.N,Board_2-SCL*%
X55397552Y-14249388D02*
X57057552Y-14249388D01*
X57057552Y-14249388D02*
X57797552Y-13509388D01*
X53522552Y-14249388D02*
X55397552Y-14249388D01*
%TO.N,Board_2-SDA*%
X53247552Y-11999388D02*
X53797552Y-11449388D01*
X53247552Y-13186888D02*
X53247552Y-11999388D01*
X51397552Y-8199388D02*
X50997552Y-7799388D01*
X52637552Y-8199388D02*
X51397552Y-8199388D01*
%TO.N,Board_2-XIN32*%
X49327552Y-10399388D02*
X49947552Y-10399388D01*
X49947552Y-10399388D02*
X50397552Y-10849388D01*
X49747552Y-11499388D02*
X49747552Y-13186888D01*
X50397552Y-10849388D02*
X49747552Y-11499388D01*
%TO.N,Board_3-+3.3V*%
X62197552Y-16539388D02*
X62197552Y-15399388D01*
X71657552Y-8199388D02*
X71657552Y-8349388D01*
X66049943Y-11049388D02*
X64897552Y-11049388D01*
X67247552Y-11549388D02*
X67197552Y-11499388D01*
X65947552Y-8199388D02*
X64847552Y-9299388D01*
X68547552Y-19599388D02*
X69447552Y-19599388D01*
X66367552Y-8199388D02*
X65947552Y-8199388D01*
X64422552Y-11524388D02*
X64422552Y-11799693D01*
X71657552Y-8349388D02*
X73627552Y-10319388D01*
X70297552Y-20449388D02*
X70297552Y-21459388D01*
X62197552Y-15399388D02*
X61797552Y-14999388D01*
X66499943Y-11499388D02*
X66049943Y-11049388D01*
X62197552Y-13479388D02*
X62197552Y-14599388D01*
X75797552Y-17799388D02*
X73597552Y-19999388D01*
X64897552Y-11049388D02*
X64422552Y-11524388D01*
X75797552Y-17509388D02*
X75797552Y-17799388D01*
X62197552Y-14599388D02*
X61797552Y-14999388D01*
X64422552Y-11799693D02*
X63997857Y-12224388D01*
X67247552Y-13186888D02*
X67247552Y-11549388D01*
X63722552Y-12224388D02*
X61797552Y-14149388D01*
X73627552Y-10319388D02*
X75797552Y-12489388D01*
X62047552Y-14749388D02*
X66472552Y-14749388D01*
X61797552Y-14999388D02*
X62047552Y-14749388D01*
X61797552Y-14149388D02*
X61797552Y-14999388D01*
X70297552Y-21459388D02*
X70637552Y-21799388D01*
X63997857Y-12224388D02*
X63722552Y-12224388D01*
X69447552Y-19599388D02*
X70297552Y-20449388D01*
X67197552Y-11499388D02*
X66499943Y-11499388D01*
%TO.N,Board_3-CLKSEL0*%
X66367552Y-10399388D02*
X64797552Y-10399388D01*
X76197552Y-14999388D02*
X71772552Y-14999388D01*
X66387552Y-21799388D02*
X66747552Y-21439388D01*
X71627552Y-10406997D02*
X68847661Y-13186888D01*
X70810052Y-15249388D02*
X71522552Y-15249388D01*
X68747552Y-13186888D02*
X70810052Y-15249388D01*
X71627552Y-10399388D02*
X71627552Y-10406997D01*
X66472552Y-16536888D02*
X66747552Y-16811888D01*
X71772552Y-14999388D02*
X71522552Y-15249388D01*
X68747552Y-16811888D02*
X68747552Y-16599388D01*
X62197552Y-12519388D02*
X62677552Y-12519388D01*
X70097552Y-15249388D02*
X71522552Y-15249388D01*
X66747552Y-18549388D02*
X66747552Y-16811888D01*
X68747552Y-16599388D02*
X70097552Y-15249388D01*
X64397552Y-13399388D02*
X65622552Y-13399388D01*
X65622552Y-13399388D02*
X66472552Y-14249388D01*
X62677552Y-12519388D02*
X63697552Y-11499388D01*
X66472552Y-15749388D02*
X66472552Y-16536888D01*
X67327552Y-9431779D02*
X66367552Y-10391779D01*
X64797552Y-10399388D02*
X63697552Y-11499388D01*
X66747552Y-21439388D02*
X66747552Y-18549388D01*
X67327552Y-8199388D02*
X67327552Y-9431779D01*
X68847661Y-13186888D02*
X68747552Y-13186888D01*
X66367552Y-10391779D02*
X66367552Y-10399388D01*
%TO.N,Board_3-CLKSEL1*%
X70667552Y-10399388D02*
X70047552Y-10399388D01*
X70047552Y-10399388D02*
X69597552Y-10849388D01*
X68247552Y-12549388D02*
X68247552Y-13186888D01*
X69597552Y-11199388D02*
X68247552Y-12549388D01*
X69597552Y-10849388D02*
X69597552Y-11199388D01*
%TO.N,Board_3-Net-(U1-BOOTN)*%
X63410552Y-17559388D02*
X62197552Y-17559388D01*
X65720552Y-15249388D02*
X63410552Y-17559388D01*
X66472552Y-15249388D02*
X65720552Y-15249388D01*
%TO.N,Board_3-Net-(U1-CAP)*%
X67497552Y-21649388D02*
X67497552Y-17561888D01*
X67347552Y-21799388D02*
X67497552Y-21649388D01*
X67497552Y-17561888D02*
X68247552Y-16811888D01*
%TO.N,Board_3-Net-(U1-ENV_SCL)*%
X71247552Y-21389388D02*
X71657552Y-21799388D01*
X71247552Y-16811888D02*
X71247552Y-21389388D01*
%TO.N,Board_3-Net-(U1-ENV_SDA)*%
X75057552Y-15749388D02*
X75797552Y-16489388D01*
X71522552Y-15749388D02*
X75057552Y-15749388D01*
%TO.N,Board_3-SCL*%
X75057552Y-14249388D02*
X75797552Y-13509388D01*
X73397552Y-14249388D02*
X75057552Y-14249388D01*
X71522552Y-14249388D02*
X73397552Y-14249388D01*
%TO.N,Board_3-SDA*%
X69397552Y-8199388D02*
X68997552Y-7799388D01*
X71247552Y-11999388D02*
X71797552Y-11449388D01*
X70637552Y-8199388D02*
X69397552Y-8199388D01*
X71247552Y-13186888D02*
X71247552Y-11999388D01*
%TO.N,Board_3-XIN32*%
X67747552Y-11499388D02*
X67747552Y-13186888D01*
X67327552Y-10399388D02*
X67947552Y-10399388D01*
X67947552Y-10399388D02*
X68397552Y-10849388D01*
X68397552Y-10849388D02*
X67747552Y-11499388D01*
%TO.N,Board_4-+3.3V*%
X80197552Y-14599388D02*
X79797552Y-14999388D01*
X80197552Y-13479388D02*
X80197552Y-14599388D01*
X84499943Y-11499388D02*
X84049943Y-11049388D01*
X88297552Y-20449388D02*
X88297552Y-21459388D01*
X81722552Y-12224388D02*
X79797552Y-14149388D01*
X82422552Y-11799693D02*
X81997857Y-12224388D01*
X85197552Y-11499388D02*
X84499943Y-11499388D01*
X80197552Y-16539388D02*
X80197552Y-15399388D01*
X79797552Y-14999388D02*
X80047552Y-14749388D01*
X86547552Y-19599388D02*
X87447552Y-19599388D01*
X85247552Y-13186888D02*
X85247552Y-11549388D01*
X84049943Y-11049388D02*
X82897552Y-11049388D01*
X89657552Y-8199388D02*
X89657552Y-8349388D01*
X87447552Y-19599388D02*
X88297552Y-20449388D01*
X93797552Y-17799388D02*
X91597552Y-19999388D01*
X84367552Y-8199388D02*
X83947552Y-8199388D01*
X81997857Y-12224388D02*
X81722552Y-12224388D01*
X93797552Y-17509388D02*
X93797552Y-17799388D01*
X80047552Y-14749388D02*
X84472552Y-14749388D01*
X91627552Y-10319388D02*
X93797552Y-12489388D01*
X82897552Y-11049388D02*
X82422552Y-11524388D01*
X79797552Y-14149388D02*
X79797552Y-14999388D01*
X89657552Y-8349388D02*
X91627552Y-10319388D01*
X88297552Y-21459388D02*
X88637552Y-21799388D01*
X80197552Y-15399388D02*
X79797552Y-14999388D01*
X85247552Y-11549388D02*
X85197552Y-11499388D01*
X82422552Y-11524388D02*
X82422552Y-11799693D01*
X83947552Y-8199388D02*
X82847552Y-9299388D01*
%TO.N,Board_4-CLKSEL0*%
X86747552Y-13186888D02*
X88810052Y-15249388D01*
X89627552Y-10406997D02*
X86847661Y-13186888D01*
X86747552Y-16599388D02*
X88097552Y-15249388D01*
X80677552Y-12519388D02*
X81697552Y-11499388D01*
X80197552Y-12519388D02*
X80677552Y-12519388D01*
X82397552Y-13399388D02*
X83622552Y-13399388D01*
X94197552Y-14999388D02*
X89772552Y-14999388D01*
X85327552Y-8199388D02*
X85327552Y-9431779D01*
X88810052Y-15249388D02*
X89522552Y-15249388D01*
X84747552Y-21439388D02*
X84747552Y-18549388D01*
X84747552Y-18549388D02*
X84747552Y-16811888D01*
X85327552Y-9431779D02*
X84367552Y-10391779D01*
X84367552Y-10391779D02*
X84367552Y-10399388D01*
X89772552Y-14999388D02*
X89522552Y-15249388D01*
X83622552Y-13399388D02*
X84472552Y-14249388D01*
X84472552Y-16536888D02*
X84747552Y-16811888D01*
X84472552Y-15749388D02*
X84472552Y-16536888D01*
X84367552Y-10399388D02*
X82797552Y-10399388D01*
X88097552Y-15249388D02*
X89522552Y-15249388D01*
X86747552Y-16811888D02*
X86747552Y-16599388D01*
X82797552Y-10399388D02*
X81697552Y-11499388D01*
X89627552Y-10399388D02*
X89627552Y-10406997D01*
X84387552Y-21799388D02*
X84747552Y-21439388D01*
X86847661Y-13186888D02*
X86747552Y-13186888D01*
%TO.N,Board_4-CLKSEL1*%
X88047552Y-10399388D02*
X87597552Y-10849388D01*
X88667552Y-10399388D02*
X88047552Y-10399388D01*
X87597552Y-10849388D02*
X87597552Y-11199388D01*
X86247552Y-12549388D02*
X86247552Y-13186888D01*
X87597552Y-11199388D02*
X86247552Y-12549388D01*
%TO.N,Board_4-Net-(U1-BOOTN)*%
X84472552Y-15249388D02*
X83720552Y-15249388D01*
X81410552Y-17559388D02*
X80197552Y-17559388D01*
X83720552Y-15249388D02*
X81410552Y-17559388D01*
%TO.N,Board_4-Net-(U1-CAP)*%
X85497552Y-21649388D02*
X85497552Y-17561888D01*
X85497552Y-17561888D02*
X86247552Y-16811888D01*
X85347552Y-21799388D02*
X85497552Y-21649388D01*
%TO.N,Board_4-Net-(U1-ENV_SCL)*%
X89247552Y-21389388D02*
X89657552Y-21799388D01*
X89247552Y-16811888D02*
X89247552Y-21389388D01*
%TO.N,Board_4-Net-(U1-ENV_SDA)*%
X89522552Y-15749388D02*
X93057552Y-15749388D01*
X93057552Y-15749388D02*
X93797552Y-16489388D01*
%TO.N,Board_4-SCL*%
X89522552Y-14249388D02*
X91397552Y-14249388D01*
X93057552Y-14249388D02*
X93797552Y-13509388D01*
X91397552Y-14249388D02*
X93057552Y-14249388D01*
%TO.N,Board_4-SDA*%
X89247552Y-13186888D02*
X89247552Y-11999388D01*
X89247552Y-11999388D02*
X89797552Y-11449388D01*
X88637552Y-8199388D02*
X87397552Y-8199388D01*
X87397552Y-8199388D02*
X86997552Y-7799388D01*
%TO.N,Board_4-XIN32*%
X85947552Y-10399388D02*
X86397552Y-10849388D01*
X85747552Y-11499388D02*
X85747552Y-13186888D01*
X85327552Y-10399388D02*
X85947552Y-10399388D01*
X86397552Y-10849388D02*
X85747552Y-11499388D01*
%TO.N,Board_5-+3.3V*%
X13247552Y-31186888D02*
X13247552Y-29549388D01*
X10897552Y-29049388D02*
X10422552Y-29524388D01*
X8047552Y-32749388D02*
X12472552Y-32749388D01*
X15447552Y-37599388D02*
X16297552Y-38449388D01*
X7797552Y-32149388D02*
X7797552Y-32999388D01*
X21797552Y-35799388D02*
X19597552Y-37999388D01*
X7797552Y-32999388D02*
X8047552Y-32749388D01*
X11947552Y-26199388D02*
X10847552Y-27299388D01*
X8197552Y-33399388D02*
X7797552Y-32999388D01*
X12367552Y-26199388D02*
X11947552Y-26199388D01*
X10422552Y-29524388D02*
X10422552Y-29799693D01*
X17657552Y-26199388D02*
X17657552Y-26349388D01*
X10422552Y-29799693D02*
X9997857Y-30224388D01*
X16297552Y-39459388D02*
X16637552Y-39799388D01*
X12049943Y-29049388D02*
X10897552Y-29049388D01*
X8197552Y-31479388D02*
X8197552Y-32599388D01*
X16297552Y-38449388D02*
X16297552Y-39459388D01*
X8197552Y-32599388D02*
X7797552Y-32999388D01*
X9997857Y-30224388D02*
X9722552Y-30224388D01*
X17657552Y-26349388D02*
X19627552Y-28319388D01*
X13197552Y-29499388D02*
X12499943Y-29499388D01*
X12499943Y-29499388D02*
X12049943Y-29049388D01*
X8197552Y-34539388D02*
X8197552Y-33399388D01*
X14547552Y-37599388D02*
X15447552Y-37599388D01*
X13247552Y-29549388D02*
X13197552Y-29499388D01*
X21797552Y-35509388D02*
X21797552Y-35799388D01*
X9722552Y-30224388D02*
X7797552Y-32149388D01*
X19627552Y-28319388D02*
X21797552Y-30489388D01*
%TO.N,Board_5-CLKSEL0*%
X17627552Y-28399388D02*
X17627552Y-28406997D01*
X10397552Y-31399388D02*
X11622552Y-31399388D01*
X14747552Y-34811888D02*
X14747552Y-34599388D01*
X8197552Y-30519388D02*
X8677552Y-30519388D01*
X13327552Y-27431779D02*
X12367552Y-28391779D01*
X17772552Y-32999388D02*
X17522552Y-33249388D01*
X12367552Y-28399388D02*
X10797552Y-28399388D01*
X16810052Y-33249388D02*
X17522552Y-33249388D01*
X14747552Y-34599388D02*
X16097552Y-33249388D01*
X12472552Y-33749388D02*
X12472552Y-34536888D01*
X12472552Y-34536888D02*
X12747552Y-34811888D01*
X22197552Y-32999388D02*
X17772552Y-32999388D01*
X14747552Y-31186888D02*
X16810052Y-33249388D01*
X17627552Y-28406997D02*
X14847661Y-31186888D01*
X12747552Y-36549388D02*
X12747552Y-34811888D01*
X12747552Y-39439388D02*
X12747552Y-36549388D01*
X8677552Y-30519388D02*
X9697552Y-29499388D01*
X13327552Y-26199388D02*
X13327552Y-27431779D01*
X12387552Y-39799388D02*
X12747552Y-39439388D01*
X16097552Y-33249388D02*
X17522552Y-33249388D01*
X11622552Y-31399388D02*
X12472552Y-32249388D01*
X14847661Y-31186888D02*
X14747552Y-31186888D01*
X10797552Y-28399388D02*
X9697552Y-29499388D01*
X12367552Y-28391779D02*
X12367552Y-28399388D01*
%TO.N,Board_5-CLKSEL1*%
X16047552Y-28399388D02*
X15597552Y-28849388D01*
X15597552Y-29199388D02*
X14247552Y-30549388D01*
X14247552Y-30549388D02*
X14247552Y-31186888D01*
X15597552Y-28849388D02*
X15597552Y-29199388D01*
X16667552Y-28399388D02*
X16047552Y-28399388D01*
%TO.N,Board_5-Net-(U1-BOOTN)*%
X11720552Y-33249388D02*
X9410552Y-35559388D01*
X9410552Y-35559388D02*
X8197552Y-35559388D01*
X12472552Y-33249388D02*
X11720552Y-33249388D01*
%TO.N,Board_5-Net-(U1-CAP)*%
X13497552Y-35561888D02*
X14247552Y-34811888D01*
X13497552Y-39649388D02*
X13497552Y-35561888D01*
X13347552Y-39799388D02*
X13497552Y-39649388D01*
%TO.N,Board_5-Net-(U1-ENV_SCL)*%
X17247552Y-39389388D02*
X17657552Y-39799388D01*
X17247552Y-34811888D02*
X17247552Y-39389388D01*
%TO.N,Board_5-Net-(U1-ENV_SDA)*%
X21057552Y-33749388D02*
X21797552Y-34489388D01*
X17522552Y-33749388D02*
X21057552Y-33749388D01*
%TO.N,Board_5-SCL*%
X17522552Y-32249388D02*
X19397552Y-32249388D01*
X19397552Y-32249388D02*
X21057552Y-32249388D01*
X21057552Y-32249388D02*
X21797552Y-31509388D01*
%TO.N,Board_5-SDA*%
X17247552Y-29999388D02*
X17797552Y-29449388D01*
X17247552Y-31186888D02*
X17247552Y-29999388D01*
X16637552Y-26199388D02*
X15397552Y-26199388D01*
X15397552Y-26199388D02*
X14997552Y-25799388D01*
%TO.N,Board_5-XIN32*%
X13947552Y-28399388D02*
X14397552Y-28849388D01*
X13747552Y-29499388D02*
X13747552Y-31186888D01*
X13327552Y-28399388D02*
X13947552Y-28399388D01*
X14397552Y-28849388D02*
X13747552Y-29499388D01*
%TO.N,Board_6-+3.3V*%
X26197552Y-33399388D02*
X25797552Y-32999388D01*
X26197552Y-32599388D02*
X25797552Y-32999388D01*
X31247552Y-31186888D02*
X31247552Y-29549388D01*
X26197552Y-34539388D02*
X26197552Y-33399388D01*
X39797552Y-35799388D02*
X37597552Y-37999388D01*
X28422552Y-29524388D02*
X28422552Y-29799693D01*
X30367552Y-26199388D02*
X29947552Y-26199388D01*
X27722552Y-30224388D02*
X25797552Y-32149388D01*
X37627552Y-28319388D02*
X39797552Y-30489388D01*
X26047552Y-32749388D02*
X30472552Y-32749388D01*
X33447552Y-37599388D02*
X34297552Y-38449388D01*
X31247552Y-29549388D02*
X31197552Y-29499388D01*
X34297552Y-39459388D02*
X34637552Y-39799388D01*
X28422552Y-29799693D02*
X27997857Y-30224388D01*
X25797552Y-32149388D02*
X25797552Y-32999388D01*
X30499943Y-29499388D02*
X30049943Y-29049388D01*
X26197552Y-31479388D02*
X26197552Y-32599388D01*
X35657552Y-26349388D02*
X37627552Y-28319388D01*
X35657552Y-26199388D02*
X35657552Y-26349388D01*
X25797552Y-32999388D02*
X26047552Y-32749388D01*
X30049943Y-29049388D02*
X28897552Y-29049388D01*
X29947552Y-26199388D02*
X28847552Y-27299388D01*
X34297552Y-38449388D02*
X34297552Y-39459388D01*
X39797552Y-35509388D02*
X39797552Y-35799388D01*
X31197552Y-29499388D02*
X30499943Y-29499388D01*
X28897552Y-29049388D02*
X28422552Y-29524388D01*
X32547552Y-37599388D02*
X33447552Y-37599388D01*
X27997857Y-30224388D02*
X27722552Y-30224388D01*
%TO.N,Board_6-CLKSEL0*%
X32747552Y-34811888D02*
X32747552Y-34599388D01*
X35772552Y-32999388D02*
X35522552Y-33249388D01*
X29622552Y-31399388D02*
X30472552Y-32249388D01*
X32747552Y-34599388D02*
X34097552Y-33249388D01*
X34810052Y-33249388D02*
X35522552Y-33249388D01*
X30367552Y-28399388D02*
X28797552Y-28399388D01*
X30387552Y-39799388D02*
X30747552Y-39439388D01*
X30472552Y-34536888D02*
X30747552Y-34811888D01*
X26197552Y-30519388D02*
X26677552Y-30519388D01*
X31327552Y-27431779D02*
X30367552Y-28391779D01*
X30367552Y-28391779D02*
X30367552Y-28399388D01*
X30472552Y-33749388D02*
X30472552Y-34536888D01*
X40197552Y-32999388D02*
X35772552Y-32999388D01*
X28397552Y-31399388D02*
X29622552Y-31399388D01*
X31327552Y-26199388D02*
X31327552Y-27431779D01*
X35627552Y-28406997D02*
X32847661Y-31186888D01*
X26677552Y-30519388D02*
X27697552Y-29499388D01*
X30747552Y-39439388D02*
X30747552Y-36549388D01*
X34097552Y-33249388D02*
X35522552Y-33249388D01*
X28797552Y-28399388D02*
X27697552Y-29499388D01*
X32847661Y-31186888D02*
X32747552Y-31186888D01*
X35627552Y-28399388D02*
X35627552Y-28406997D01*
X32747552Y-31186888D02*
X34810052Y-33249388D01*
X30747552Y-36549388D02*
X30747552Y-34811888D01*
%TO.N,Board_6-CLKSEL1*%
X32247552Y-30549388D02*
X32247552Y-31186888D01*
X33597552Y-29199388D02*
X32247552Y-30549388D01*
X34667552Y-28399388D02*
X34047552Y-28399388D01*
X34047552Y-28399388D02*
X33597552Y-28849388D01*
X33597552Y-28849388D02*
X33597552Y-29199388D01*
%TO.N,Board_6-Net-(U1-BOOTN)*%
X27410552Y-35559388D02*
X26197552Y-35559388D01*
X30472552Y-33249388D02*
X29720552Y-33249388D01*
X29720552Y-33249388D02*
X27410552Y-35559388D01*
%TO.N,Board_6-Net-(U1-CAP)*%
X31347552Y-39799388D02*
X31497552Y-39649388D01*
X31497552Y-35561888D02*
X32247552Y-34811888D01*
X31497552Y-39649388D02*
X31497552Y-35561888D01*
%TO.N,Board_6-Net-(U1-ENV_SCL)*%
X35247552Y-34811888D02*
X35247552Y-39389388D01*
X35247552Y-39389388D02*
X35657552Y-39799388D01*
%TO.N,Board_6-Net-(U1-ENV_SDA)*%
X35522552Y-33749388D02*
X39057552Y-33749388D01*
X39057552Y-33749388D02*
X39797552Y-34489388D01*
%TO.N,Board_6-SCL*%
X37397552Y-32249388D02*
X39057552Y-32249388D01*
X35522552Y-32249388D02*
X37397552Y-32249388D01*
X39057552Y-32249388D02*
X39797552Y-31509388D01*
%TO.N,Board_6-SDA*%
X33397552Y-26199388D02*
X32997552Y-25799388D01*
X35247552Y-29999388D02*
X35797552Y-29449388D01*
X35247552Y-31186888D02*
X35247552Y-29999388D01*
X34637552Y-26199388D02*
X33397552Y-26199388D01*
%TO.N,Board_6-XIN32*%
X31327552Y-28399388D02*
X31947552Y-28399388D01*
X32397552Y-28849388D02*
X31747552Y-29499388D01*
X31747552Y-29499388D02*
X31747552Y-31186888D01*
X31947552Y-28399388D02*
X32397552Y-28849388D01*
%TO.N,Board_7-+3.3V*%
X44197552Y-32599388D02*
X43797552Y-32999388D01*
X48367552Y-26199388D02*
X47947552Y-26199388D01*
X57797552Y-35509388D02*
X57797552Y-35799388D01*
X49197552Y-29499388D02*
X48499943Y-29499388D01*
X46422552Y-29524388D02*
X46422552Y-29799693D01*
X46897552Y-29049388D02*
X46422552Y-29524388D01*
X44197552Y-31479388D02*
X44197552Y-32599388D01*
X48499943Y-29499388D02*
X48049943Y-29049388D01*
X53657552Y-26349388D02*
X55627552Y-28319388D01*
X44047552Y-32749388D02*
X48472552Y-32749388D01*
X57797552Y-35799388D02*
X55597552Y-37999388D01*
X55627552Y-28319388D02*
X57797552Y-30489388D01*
X43797552Y-32149388D02*
X43797552Y-32999388D01*
X43797552Y-32999388D02*
X44047552Y-32749388D01*
X45997857Y-30224388D02*
X45722552Y-30224388D01*
X52297552Y-39459388D02*
X52637552Y-39799388D01*
X49247552Y-29549388D02*
X49197552Y-29499388D01*
X50547552Y-37599388D02*
X51447552Y-37599388D01*
X52297552Y-38449388D02*
X52297552Y-39459388D01*
X49247552Y-31186888D02*
X49247552Y-29549388D01*
X48049943Y-29049388D02*
X46897552Y-29049388D01*
X44197552Y-33399388D02*
X43797552Y-32999388D01*
X51447552Y-37599388D02*
X52297552Y-38449388D01*
X53657552Y-26199388D02*
X53657552Y-26349388D01*
X44197552Y-34539388D02*
X44197552Y-33399388D01*
X47947552Y-26199388D02*
X46847552Y-27299388D01*
X45722552Y-30224388D02*
X43797552Y-32149388D01*
X46422552Y-29799693D02*
X45997857Y-30224388D01*
%TO.N,Board_7-CLKSEL0*%
X53627552Y-28399388D02*
X53627552Y-28406997D01*
X48472552Y-34536888D02*
X48747552Y-34811888D01*
X58197552Y-32999388D02*
X53772552Y-32999388D01*
X48367552Y-28399388D02*
X46797552Y-28399388D01*
X52097552Y-33249388D02*
X53522552Y-33249388D01*
X46797552Y-28399388D02*
X45697552Y-29499388D01*
X49327552Y-27431779D02*
X48367552Y-28391779D01*
X53627552Y-28406997D02*
X50847661Y-31186888D01*
X49327552Y-26199388D02*
X49327552Y-27431779D01*
X46397552Y-31399388D02*
X47622552Y-31399388D01*
X48747552Y-36549388D02*
X48747552Y-34811888D01*
X50747552Y-34811888D02*
X50747552Y-34599388D01*
X47622552Y-31399388D02*
X48472552Y-32249388D01*
X52810052Y-33249388D02*
X53522552Y-33249388D01*
X53772552Y-32999388D02*
X53522552Y-33249388D01*
X44677552Y-30519388D02*
X45697552Y-29499388D01*
X48472552Y-33749388D02*
X48472552Y-34536888D01*
X48367552Y-28391779D02*
X48367552Y-28399388D01*
X50747552Y-31186888D02*
X52810052Y-33249388D01*
X50747552Y-34599388D02*
X52097552Y-33249388D01*
X48747552Y-39439388D02*
X48747552Y-36549388D01*
X48387552Y-39799388D02*
X48747552Y-39439388D01*
X50847661Y-31186888D02*
X50747552Y-31186888D01*
X44197552Y-30519388D02*
X44677552Y-30519388D01*
%TO.N,Board_7-CLKSEL1*%
X51597552Y-28849388D02*
X51597552Y-29199388D01*
X50247552Y-30549388D02*
X50247552Y-31186888D01*
X51597552Y-29199388D02*
X50247552Y-30549388D01*
X52047552Y-28399388D02*
X51597552Y-28849388D01*
X52667552Y-28399388D02*
X52047552Y-28399388D01*
%TO.N,Board_7-Net-(U1-BOOTN)*%
X47720552Y-33249388D02*
X45410552Y-35559388D01*
X48472552Y-33249388D02*
X47720552Y-33249388D01*
X45410552Y-35559388D02*
X44197552Y-35559388D01*
%TO.N,Board_7-Net-(U1-CAP)*%
X49497552Y-39649388D02*
X49497552Y-35561888D01*
X49347552Y-39799388D02*
X49497552Y-39649388D01*
X49497552Y-35561888D02*
X50247552Y-34811888D01*
%TO.N,Board_7-Net-(U1-ENV_SCL)*%
X53247552Y-34811888D02*
X53247552Y-39389388D01*
X53247552Y-39389388D02*
X53657552Y-39799388D01*
%TO.N,Board_7-Net-(U1-ENV_SDA)*%
X53522552Y-33749388D02*
X57057552Y-33749388D01*
X57057552Y-33749388D02*
X57797552Y-34489388D01*
%TO.N,Board_7-SCL*%
X55397552Y-32249388D02*
X57057552Y-32249388D01*
X53522552Y-32249388D02*
X55397552Y-32249388D01*
X57057552Y-32249388D02*
X57797552Y-31509388D01*
%TO.N,Board_7-SDA*%
X53247552Y-31186888D02*
X53247552Y-29999388D01*
X51397552Y-26199388D02*
X50997552Y-25799388D01*
X53247552Y-29999388D02*
X53797552Y-29449388D01*
X52637552Y-26199388D02*
X51397552Y-26199388D01*
%TO.N,Board_7-XIN32*%
X49747552Y-29499388D02*
X49747552Y-31186888D01*
X49327552Y-28399388D02*
X49947552Y-28399388D01*
X49947552Y-28399388D02*
X50397552Y-28849388D01*
X50397552Y-28849388D02*
X49747552Y-29499388D01*
%TO.N,Board_8-+3.3V*%
X62197552Y-32599388D02*
X61797552Y-32999388D01*
X75797552Y-35509388D02*
X75797552Y-35799388D01*
X68547552Y-37599388D02*
X69447552Y-37599388D01*
X62197552Y-33399388D02*
X61797552Y-32999388D01*
X71657552Y-26199388D02*
X71657552Y-26349388D01*
X64422552Y-29799693D02*
X63997857Y-30224388D01*
X73627552Y-28319388D02*
X75797552Y-30489388D01*
X61797552Y-32149388D02*
X61797552Y-32999388D01*
X71657552Y-26349388D02*
X73627552Y-28319388D01*
X70297552Y-38449388D02*
X70297552Y-39459388D01*
X63997857Y-30224388D02*
X63722552Y-30224388D01*
X66499943Y-29499388D02*
X66049943Y-29049388D01*
X66367552Y-26199388D02*
X65947552Y-26199388D01*
X64897552Y-29049388D02*
X64422552Y-29524388D01*
X62047552Y-32749388D02*
X66472552Y-32749388D01*
X66049943Y-29049388D02*
X64897552Y-29049388D01*
X62197552Y-31479388D02*
X62197552Y-32599388D01*
X62197552Y-34539388D02*
X62197552Y-33399388D01*
X67247552Y-29549388D02*
X67197552Y-29499388D01*
X64422552Y-29524388D02*
X64422552Y-29799693D01*
X75797552Y-35799388D02*
X73597552Y-37999388D01*
X65947552Y-26199388D02*
X64847552Y-27299388D01*
X67247552Y-31186888D02*
X67247552Y-29549388D01*
X61797552Y-32999388D02*
X62047552Y-32749388D01*
X67197552Y-29499388D02*
X66499943Y-29499388D01*
X63722552Y-30224388D02*
X61797552Y-32149388D01*
X70297552Y-39459388D02*
X70637552Y-39799388D01*
X69447552Y-37599388D02*
X70297552Y-38449388D01*
%TO.N,Board_8-CLKSEL0*%
X68747552Y-34811888D02*
X68747552Y-34599388D01*
X71627552Y-28406997D02*
X68847661Y-31186888D01*
X64397552Y-31399388D02*
X65622552Y-31399388D01*
X66472552Y-34536888D02*
X66747552Y-34811888D01*
X66367552Y-28399388D02*
X64797552Y-28399388D01*
X65622552Y-31399388D02*
X66472552Y-32249388D01*
X70810052Y-33249388D02*
X71522552Y-33249388D01*
X66387552Y-39799388D02*
X66747552Y-39439388D01*
X64797552Y-28399388D02*
X63697552Y-29499388D01*
X62677552Y-30519388D02*
X63697552Y-29499388D01*
X68747552Y-31186888D02*
X70810052Y-33249388D01*
X68747552Y-34599388D02*
X70097552Y-33249388D01*
X62197552Y-30519388D02*
X62677552Y-30519388D01*
X66367552Y-28391779D02*
X66367552Y-28399388D01*
X71772552Y-32999388D02*
X71522552Y-33249388D01*
X68847661Y-31186888D02*
X68747552Y-31186888D01*
X67327552Y-26199388D02*
X67327552Y-27431779D01*
X66472552Y-33749388D02*
X66472552Y-34536888D01*
X71627552Y-28399388D02*
X71627552Y-28406997D01*
X66747552Y-39439388D02*
X66747552Y-36549388D01*
X70097552Y-33249388D02*
X71522552Y-33249388D01*
X67327552Y-27431779D02*
X66367552Y-28391779D01*
X66747552Y-36549388D02*
X66747552Y-34811888D01*
X76197552Y-32999388D02*
X71772552Y-32999388D01*
%TO.N,Board_8-CLKSEL1*%
X68247552Y-30549388D02*
X68247552Y-31186888D01*
X69597552Y-29199388D02*
X68247552Y-30549388D01*
X69597552Y-28849388D02*
X69597552Y-29199388D01*
X70047552Y-28399388D02*
X69597552Y-28849388D01*
X70667552Y-28399388D02*
X70047552Y-28399388D01*
%TO.N,Board_8-Net-(U1-BOOTN)*%
X63410552Y-35559388D02*
X62197552Y-35559388D01*
X65720552Y-33249388D02*
X63410552Y-35559388D01*
X66472552Y-33249388D02*
X65720552Y-33249388D01*
%TO.N,Board_8-Net-(U1-CAP)*%
X67497552Y-39649388D02*
X67497552Y-35561888D01*
X67347552Y-39799388D02*
X67497552Y-39649388D01*
X67497552Y-35561888D02*
X68247552Y-34811888D01*
%TO.N,Board_8-Net-(U1-ENV_SCL)*%
X71247552Y-34811888D02*
X71247552Y-39389388D01*
X71247552Y-39389388D02*
X71657552Y-39799388D01*
%TO.N,Board_8-Net-(U1-ENV_SDA)*%
X75057552Y-33749388D02*
X75797552Y-34489388D01*
X71522552Y-33749388D02*
X75057552Y-33749388D01*
%TO.N,Board_8-SCL*%
X71522552Y-32249388D02*
X73397552Y-32249388D01*
X73397552Y-32249388D02*
X75057552Y-32249388D01*
X75057552Y-32249388D02*
X75797552Y-31509388D01*
%TO.N,Board_8-SDA*%
X70637552Y-26199388D02*
X69397552Y-26199388D01*
X69397552Y-26199388D02*
X68997552Y-25799388D01*
X71247552Y-29999388D02*
X71797552Y-29449388D01*
X71247552Y-31186888D02*
X71247552Y-29999388D01*
%TO.N,Board_8-XIN32*%
X67747552Y-29499388D02*
X67747552Y-31186888D01*
X67327552Y-28399388D02*
X67947552Y-28399388D01*
X68397552Y-28849388D02*
X67747552Y-29499388D01*
X67947552Y-28399388D02*
X68397552Y-28849388D01*
%TO.N,Board_9-+3.3V*%
X86547552Y-37599388D02*
X87447552Y-37599388D01*
X81997857Y-30224388D02*
X81722552Y-30224388D01*
X85247552Y-31186888D02*
X85247552Y-29549388D01*
X85247552Y-29549388D02*
X85197552Y-29499388D01*
X82422552Y-29524388D02*
X82422552Y-29799693D01*
X91627552Y-28319388D02*
X93797552Y-30489388D01*
X89657552Y-26199388D02*
X89657552Y-26349388D01*
X83947552Y-26199388D02*
X82847552Y-27299388D01*
X85197552Y-29499388D02*
X84499943Y-29499388D01*
X84049943Y-29049388D02*
X82897552Y-29049388D01*
X80197552Y-31479388D02*
X80197552Y-32599388D01*
X88297552Y-39459388D02*
X88637552Y-39799388D01*
X84367552Y-26199388D02*
X83947552Y-26199388D01*
X93797552Y-35799388D02*
X91597552Y-37999388D01*
X80197552Y-32599388D02*
X79797552Y-32999388D01*
X82897552Y-29049388D02*
X82422552Y-29524388D01*
X81722552Y-30224388D02*
X79797552Y-32149388D01*
X79797552Y-32149388D02*
X79797552Y-32999388D01*
X88297552Y-38449388D02*
X88297552Y-39459388D01*
X80047552Y-32749388D02*
X84472552Y-32749388D01*
X89657552Y-26349388D02*
X91627552Y-28319388D01*
X84499943Y-29499388D02*
X84049943Y-29049388D01*
X93797552Y-35509388D02*
X93797552Y-35799388D01*
X79797552Y-32999388D02*
X80047552Y-32749388D01*
X80197552Y-33399388D02*
X79797552Y-32999388D01*
X80197552Y-34539388D02*
X80197552Y-33399388D01*
X87447552Y-37599388D02*
X88297552Y-38449388D01*
X82422552Y-29799693D02*
X81997857Y-30224388D01*
%TO.N,Board_9-CLKSEL0*%
X84747552Y-36549388D02*
X84747552Y-34811888D01*
X94197552Y-32999388D02*
X89772552Y-32999388D01*
X80197552Y-30519388D02*
X80677552Y-30519388D01*
X84367552Y-28399388D02*
X82797552Y-28399388D01*
X86847661Y-31186888D02*
X86747552Y-31186888D01*
X84472552Y-33749388D02*
X84472552Y-34536888D01*
X84747552Y-39439388D02*
X84747552Y-36549388D01*
X88097552Y-33249388D02*
X89522552Y-33249388D01*
X86747552Y-31186888D02*
X88810052Y-33249388D01*
X86747552Y-34599388D02*
X88097552Y-33249388D01*
X85327552Y-26199388D02*
X85327552Y-27431779D01*
X84472552Y-34536888D02*
X84747552Y-34811888D01*
X82397552Y-31399388D02*
X83622552Y-31399388D01*
X84367552Y-28391779D02*
X84367552Y-28399388D01*
X89627552Y-28406997D02*
X86847661Y-31186888D01*
X83622552Y-31399388D02*
X84472552Y-32249388D01*
X85327552Y-27431779D02*
X84367552Y-28391779D01*
X88810052Y-33249388D02*
X89522552Y-33249388D01*
X89627552Y-28399388D02*
X89627552Y-28406997D01*
X80677552Y-30519388D02*
X81697552Y-29499388D01*
X86747552Y-34811888D02*
X86747552Y-34599388D01*
X89772552Y-32999388D02*
X89522552Y-33249388D01*
X82797552Y-28399388D02*
X81697552Y-29499388D01*
X84387552Y-39799388D02*
X84747552Y-39439388D01*
%TO.N,Board_9-CLKSEL1*%
X88667552Y-28399388D02*
X88047552Y-28399388D01*
X87597552Y-29199388D02*
X86247552Y-30549388D01*
X86247552Y-30549388D02*
X86247552Y-31186888D01*
X87597552Y-28849388D02*
X87597552Y-29199388D01*
X88047552Y-28399388D02*
X87597552Y-28849388D01*
%TO.N,Board_9-Net-(U1-BOOTN)*%
X83720552Y-33249388D02*
X81410552Y-35559388D01*
X81410552Y-35559388D02*
X80197552Y-35559388D01*
X84472552Y-33249388D02*
X83720552Y-33249388D01*
%TO.N,Board_9-Net-(U1-CAP)*%
X85347552Y-39799388D02*
X85497552Y-39649388D01*
X85497552Y-39649388D02*
X85497552Y-35561888D01*
X85497552Y-35561888D02*
X86247552Y-34811888D01*
%TO.N,Board_9-Net-(U1-ENV_SCL)*%
X89247552Y-34811888D02*
X89247552Y-39389388D01*
X89247552Y-39389388D02*
X89657552Y-39799388D01*
%TO.N,Board_9-Net-(U1-ENV_SDA)*%
X93057552Y-33749388D02*
X93797552Y-34489388D01*
X89522552Y-33749388D02*
X93057552Y-33749388D01*
%TO.N,Board_9-SCL*%
X89522552Y-32249388D02*
X91397552Y-32249388D01*
X91397552Y-32249388D02*
X93057552Y-32249388D01*
X93057552Y-32249388D02*
X93797552Y-31509388D01*
%TO.N,Board_9-SDA*%
X88637552Y-26199388D02*
X87397552Y-26199388D01*
X89247552Y-31186888D02*
X89247552Y-29999388D01*
X89247552Y-29999388D02*
X89797552Y-29449388D01*
X87397552Y-26199388D02*
X86997552Y-25799388D01*
%TO.N,Board_9-XIN32*%
X85947552Y-28399388D02*
X86397552Y-28849388D01*
X85747552Y-29499388D02*
X85747552Y-31186888D01*
X85327552Y-28399388D02*
X85947552Y-28399388D01*
X86397552Y-28849388D02*
X85747552Y-29499388D01*
%TO.N,Board_10-+3.3V*%
X14547552Y-55599388D02*
X15447552Y-55599388D01*
X15447552Y-55599388D02*
X16297552Y-56449388D01*
X13197552Y-47499388D02*
X12499943Y-47499388D01*
X8197552Y-49479388D02*
X8197552Y-50599388D01*
X12367552Y-44199388D02*
X11947552Y-44199388D01*
X10422552Y-47799693D02*
X9997857Y-48224388D01*
X17657552Y-44199388D02*
X17657552Y-44349388D01*
X21797552Y-53799388D02*
X19597552Y-55999388D01*
X7797552Y-50149388D02*
X7797552Y-50999388D01*
X10897552Y-47049388D02*
X10422552Y-47524388D01*
X8047552Y-50749388D02*
X12472552Y-50749388D01*
X17657552Y-44349388D02*
X19627552Y-46319388D01*
X8197552Y-52539388D02*
X8197552Y-51399388D01*
X16297552Y-56449388D02*
X16297552Y-57459388D01*
X21797552Y-53509388D02*
X21797552Y-53799388D01*
X13247552Y-47549388D02*
X13197552Y-47499388D01*
X8197552Y-51399388D02*
X7797552Y-50999388D01*
X16297552Y-57459388D02*
X16637552Y-57799388D01*
X8197552Y-50599388D02*
X7797552Y-50999388D01*
X9722552Y-48224388D02*
X7797552Y-50149388D01*
X12499943Y-47499388D02*
X12049943Y-47049388D01*
X10422552Y-47524388D02*
X10422552Y-47799693D01*
X12049943Y-47049388D02*
X10897552Y-47049388D01*
X11947552Y-44199388D02*
X10847552Y-45299388D01*
X13247552Y-49186888D02*
X13247552Y-47549388D01*
X7797552Y-50999388D02*
X8047552Y-50749388D01*
X9997857Y-48224388D02*
X9722552Y-48224388D01*
X19627552Y-46319388D02*
X21797552Y-48489388D01*
%TO.N,Board_10-CLKSEL0*%
X17772552Y-50999388D02*
X17522552Y-51249388D01*
X8197552Y-48519388D02*
X8677552Y-48519388D01*
X14847661Y-49186888D02*
X14747552Y-49186888D01*
X17627552Y-46399388D02*
X17627552Y-46406997D01*
X12367552Y-46391779D02*
X12367552Y-46399388D01*
X10397552Y-49399388D02*
X11622552Y-49399388D01*
X11622552Y-49399388D02*
X12472552Y-50249388D01*
X12387552Y-57799388D02*
X12747552Y-57439388D01*
X12747552Y-57439388D02*
X12747552Y-54549388D01*
X10797552Y-46399388D02*
X9697552Y-47499388D01*
X12367552Y-46399388D02*
X10797552Y-46399388D01*
X14747552Y-49186888D02*
X16810052Y-51249388D01*
X16097552Y-51249388D02*
X17522552Y-51249388D01*
X14747552Y-52599388D02*
X16097552Y-51249388D01*
X12472552Y-51749388D02*
X12472552Y-52536888D01*
X22197552Y-50999388D02*
X17772552Y-50999388D01*
X8677552Y-48519388D02*
X9697552Y-47499388D01*
X12472552Y-52536888D02*
X12747552Y-52811888D01*
X12747552Y-54549388D02*
X12747552Y-52811888D01*
X17627552Y-46406997D02*
X14847661Y-49186888D01*
X14747552Y-52811888D02*
X14747552Y-52599388D01*
X13327552Y-44199388D02*
X13327552Y-45431779D01*
X16810052Y-51249388D02*
X17522552Y-51249388D01*
X13327552Y-45431779D02*
X12367552Y-46391779D01*
%TO.N,Board_10-CLKSEL1*%
X16667552Y-46399388D02*
X16047552Y-46399388D01*
X14247552Y-48549388D02*
X14247552Y-49186888D01*
X15597552Y-46849388D02*
X15597552Y-47199388D01*
X15597552Y-47199388D02*
X14247552Y-48549388D01*
X16047552Y-46399388D02*
X15597552Y-46849388D01*
%TO.N,Board_10-Net-(U1-BOOTN)*%
X11720552Y-51249388D02*
X9410552Y-53559388D01*
X12472552Y-51249388D02*
X11720552Y-51249388D01*
X9410552Y-53559388D02*
X8197552Y-53559388D01*
%TO.N,Board_10-Net-(U1-CAP)*%
X13497552Y-57649388D02*
X13497552Y-53561888D01*
X13497552Y-53561888D02*
X14247552Y-52811888D01*
X13347552Y-57799388D02*
X13497552Y-57649388D01*
%TO.N,Board_10-Net-(U1-ENV_SCL)*%
X17247552Y-57389388D02*
X17657552Y-57799388D01*
X17247552Y-52811888D02*
X17247552Y-57389388D01*
%TO.N,Board_10-Net-(U1-ENV_SDA)*%
X17522552Y-51749388D02*
X21057552Y-51749388D01*
X21057552Y-51749388D02*
X21797552Y-52489388D01*
%TO.N,Board_10-SCL*%
X19397552Y-50249388D02*
X21057552Y-50249388D01*
X17522552Y-50249388D02*
X19397552Y-50249388D01*
X21057552Y-50249388D02*
X21797552Y-49509388D01*
%TO.N,Board_10-SDA*%
X17247552Y-49186888D02*
X17247552Y-47999388D01*
X17247552Y-47999388D02*
X17797552Y-47449388D01*
X16637552Y-44199388D02*
X15397552Y-44199388D01*
X15397552Y-44199388D02*
X14997552Y-43799388D01*
%TO.N,Board_10-XIN32*%
X13947552Y-46399388D02*
X14397552Y-46849388D01*
X14397552Y-46849388D02*
X13747552Y-47499388D01*
X13747552Y-47499388D02*
X13747552Y-49186888D01*
X13327552Y-46399388D02*
X13947552Y-46399388D01*
%TO.N,Board_11-+3.3V*%
X26197552Y-51399388D02*
X25797552Y-50999388D01*
X28897552Y-47049388D02*
X28422552Y-47524388D01*
X32547552Y-55599388D02*
X33447552Y-55599388D01*
X30499943Y-47499388D02*
X30049943Y-47049388D01*
X26197552Y-50599388D02*
X25797552Y-50999388D01*
X31247552Y-49186888D02*
X31247552Y-47549388D01*
X25797552Y-50149388D02*
X25797552Y-50999388D01*
X28422552Y-47524388D02*
X28422552Y-47799693D01*
X39797552Y-53509388D02*
X39797552Y-53799388D01*
X34297552Y-57459388D02*
X34637552Y-57799388D01*
X35657552Y-44349388D02*
X37627552Y-46319388D01*
X26047552Y-50749388D02*
X30472552Y-50749388D01*
X35657552Y-44199388D02*
X35657552Y-44349388D01*
X31247552Y-47549388D02*
X31197552Y-47499388D01*
X30367552Y-44199388D02*
X29947552Y-44199388D01*
X33447552Y-55599388D02*
X34297552Y-56449388D01*
X34297552Y-56449388D02*
X34297552Y-57459388D01*
X27722552Y-48224388D02*
X25797552Y-50149388D01*
X26197552Y-49479388D02*
X26197552Y-50599388D01*
X27997857Y-48224388D02*
X27722552Y-48224388D01*
X26197552Y-52539388D02*
X26197552Y-51399388D01*
X31197552Y-47499388D02*
X30499943Y-47499388D01*
X25797552Y-50999388D02*
X26047552Y-50749388D01*
X30049943Y-47049388D02*
X28897552Y-47049388D01*
X29947552Y-44199388D02*
X28847552Y-45299388D01*
X37627552Y-46319388D02*
X39797552Y-48489388D01*
X39797552Y-53799388D02*
X37597552Y-55999388D01*
X28422552Y-47799693D02*
X27997857Y-48224388D01*
%TO.N,Board_11-CLKSEL0*%
X31327552Y-44199388D02*
X31327552Y-45431779D01*
X30387552Y-57799388D02*
X30747552Y-57439388D01*
X32747552Y-52811888D02*
X32747552Y-52599388D01*
X31327552Y-45431779D02*
X30367552Y-46391779D01*
X29622552Y-49399388D02*
X30472552Y-50249388D01*
X26677552Y-48519388D02*
X27697552Y-47499388D01*
X30367552Y-46391779D02*
X30367552Y-46399388D01*
X35772552Y-50999388D02*
X35522552Y-51249388D01*
X35627552Y-46406997D02*
X32847661Y-49186888D01*
X32847661Y-49186888D02*
X32747552Y-49186888D01*
X40197552Y-50999388D02*
X35772552Y-50999388D01*
X30472552Y-51749388D02*
X30472552Y-52536888D01*
X28797552Y-46399388D02*
X27697552Y-47499388D01*
X26197552Y-48519388D02*
X26677552Y-48519388D01*
X34810052Y-51249388D02*
X35522552Y-51249388D01*
X30747552Y-54549388D02*
X30747552Y-52811888D01*
X30472552Y-52536888D02*
X30747552Y-52811888D01*
X32747552Y-52599388D02*
X34097552Y-51249388D01*
X32747552Y-49186888D02*
X34810052Y-51249388D01*
X34097552Y-51249388D02*
X35522552Y-51249388D01*
X28397552Y-49399388D02*
X29622552Y-49399388D01*
X35627552Y-46399388D02*
X35627552Y-46406997D01*
X30747552Y-57439388D02*
X30747552Y-54549388D01*
X30367552Y-46399388D02*
X28797552Y-46399388D01*
%TO.N,Board_11-CLKSEL1*%
X32247552Y-48549388D02*
X32247552Y-49186888D01*
X34047552Y-46399388D02*
X33597552Y-46849388D01*
X34667552Y-46399388D02*
X34047552Y-46399388D01*
X33597552Y-47199388D02*
X32247552Y-48549388D01*
X33597552Y-46849388D02*
X33597552Y-47199388D01*
%TO.N,Board_11-Net-(U1-BOOTN)*%
X29720552Y-51249388D02*
X27410552Y-53559388D01*
X27410552Y-53559388D02*
X26197552Y-53559388D01*
X30472552Y-51249388D02*
X29720552Y-51249388D01*
%TO.N,Board_11-Net-(U1-CAP)*%
X31347552Y-57799388D02*
X31497552Y-57649388D01*
X31497552Y-57649388D02*
X31497552Y-53561888D01*
X31497552Y-53561888D02*
X32247552Y-52811888D01*
%TO.N,Board_11-Net-(U1-ENV_SCL)*%
X35247552Y-52811888D02*
X35247552Y-57389388D01*
X35247552Y-57389388D02*
X35657552Y-57799388D01*
%TO.N,Board_11-Net-(U1-ENV_SDA)*%
X35522552Y-51749388D02*
X39057552Y-51749388D01*
X39057552Y-51749388D02*
X39797552Y-52489388D01*
%TO.N,Board_11-SCL*%
X37397552Y-50249388D02*
X39057552Y-50249388D01*
X35522552Y-50249388D02*
X37397552Y-50249388D01*
X39057552Y-50249388D02*
X39797552Y-49509388D01*
%TO.N,Board_11-SDA*%
X33397552Y-44199388D02*
X32997552Y-43799388D01*
X34637552Y-44199388D02*
X33397552Y-44199388D01*
X35247552Y-49186888D02*
X35247552Y-47999388D01*
X35247552Y-47999388D02*
X35797552Y-47449388D01*
%TO.N,Board_11-XIN32*%
X31747552Y-47499388D02*
X31747552Y-49186888D01*
X31947552Y-46399388D02*
X32397552Y-46849388D01*
X32397552Y-46849388D02*
X31747552Y-47499388D01*
X31327552Y-46399388D02*
X31947552Y-46399388D01*
%TO.N,Board_12-+3.3V*%
X53657552Y-44199388D02*
X53657552Y-44349388D01*
X44197552Y-51399388D02*
X43797552Y-50999388D01*
X49247552Y-49186888D02*
X49247552Y-47549388D01*
X43797552Y-50999388D02*
X44047552Y-50749388D01*
X46422552Y-47524388D02*
X46422552Y-47799693D01*
X46422552Y-47799693D02*
X45997857Y-48224388D01*
X47947552Y-44199388D02*
X46847552Y-45299388D01*
X49197552Y-47499388D02*
X48499943Y-47499388D01*
X55627552Y-46319388D02*
X57797552Y-48489388D01*
X43797552Y-50149388D02*
X43797552Y-50999388D01*
X52297552Y-57459388D02*
X52637552Y-57799388D01*
X48367552Y-44199388D02*
X47947552Y-44199388D01*
X49247552Y-47549388D02*
X49197552Y-47499388D01*
X48049943Y-47049388D02*
X46897552Y-47049388D01*
X44197552Y-49479388D02*
X44197552Y-50599388D01*
X57797552Y-53509388D02*
X57797552Y-53799388D01*
X52297552Y-56449388D02*
X52297552Y-57459388D01*
X45997857Y-48224388D02*
X45722552Y-48224388D01*
X45722552Y-48224388D02*
X43797552Y-50149388D01*
X46897552Y-47049388D02*
X46422552Y-47524388D01*
X44197552Y-50599388D02*
X43797552Y-50999388D01*
X48499943Y-47499388D02*
X48049943Y-47049388D01*
X44197552Y-52539388D02*
X44197552Y-51399388D01*
X51447552Y-55599388D02*
X52297552Y-56449388D01*
X57797552Y-53799388D02*
X55597552Y-55999388D01*
X53657552Y-44349388D02*
X55627552Y-46319388D01*
X50547552Y-55599388D02*
X51447552Y-55599388D01*
X44047552Y-50749388D02*
X48472552Y-50749388D01*
%TO.N,Board_12-CLKSEL0*%
X50747552Y-49186888D02*
X52810052Y-51249388D01*
X48387552Y-57799388D02*
X48747552Y-57439388D01*
X46397552Y-49399388D02*
X47622552Y-49399388D01*
X53772552Y-50999388D02*
X53522552Y-51249388D01*
X58197552Y-50999388D02*
X53772552Y-50999388D01*
X46797552Y-46399388D02*
X45697552Y-47499388D01*
X44197552Y-48519388D02*
X44677552Y-48519388D01*
X48747552Y-57439388D02*
X48747552Y-54549388D01*
X48747552Y-54549388D02*
X48747552Y-52811888D01*
X44677552Y-48519388D02*
X45697552Y-47499388D01*
X48367552Y-46399388D02*
X46797552Y-46399388D01*
X47622552Y-49399388D02*
X48472552Y-50249388D01*
X52810052Y-51249388D02*
X53522552Y-51249388D01*
X48472552Y-52536888D02*
X48747552Y-52811888D01*
X48367552Y-46391779D02*
X48367552Y-46399388D01*
X53627552Y-46399388D02*
X53627552Y-46406997D01*
X52097552Y-51249388D02*
X53522552Y-51249388D01*
X50747552Y-52599388D02*
X52097552Y-51249388D01*
X49327552Y-44199388D02*
X49327552Y-45431779D01*
X50747552Y-52811888D02*
X50747552Y-52599388D01*
X49327552Y-45431779D02*
X48367552Y-46391779D01*
X50847661Y-49186888D02*
X50747552Y-49186888D01*
X48472552Y-51749388D02*
X48472552Y-52536888D01*
X53627552Y-46406997D02*
X50847661Y-49186888D01*
%TO.N,Board_12-CLKSEL1*%
X51597552Y-47199388D02*
X50247552Y-48549388D01*
X52047552Y-46399388D02*
X51597552Y-46849388D01*
X51597552Y-46849388D02*
X51597552Y-47199388D01*
X50247552Y-48549388D02*
X50247552Y-49186888D01*
X52667552Y-46399388D02*
X52047552Y-46399388D01*
%TO.N,Board_12-Net-(U1-BOOTN)*%
X48472552Y-51249388D02*
X47720552Y-51249388D01*
X47720552Y-51249388D02*
X45410552Y-53559388D01*
X45410552Y-53559388D02*
X44197552Y-53559388D01*
%TO.N,Board_12-Net-(U1-CAP)*%
X49497552Y-57649388D02*
X49497552Y-53561888D01*
X49347552Y-57799388D02*
X49497552Y-57649388D01*
X49497552Y-53561888D02*
X50247552Y-52811888D01*
%TO.N,Board_12-Net-(U1-ENV_SCL)*%
X53247552Y-57389388D02*
X53657552Y-57799388D01*
X53247552Y-52811888D02*
X53247552Y-57389388D01*
%TO.N,Board_12-Net-(U1-ENV_SDA)*%
X53522552Y-51749388D02*
X57057552Y-51749388D01*
X57057552Y-51749388D02*
X57797552Y-52489388D01*
%TO.N,Board_12-SCL*%
X57057552Y-50249388D02*
X57797552Y-49509388D01*
X55397552Y-50249388D02*
X57057552Y-50249388D01*
X53522552Y-50249388D02*
X55397552Y-50249388D01*
%TO.N,Board_12-SDA*%
X51397552Y-44199388D02*
X50997552Y-43799388D01*
X52637552Y-44199388D02*
X51397552Y-44199388D01*
X53247552Y-49186888D02*
X53247552Y-47999388D01*
X53247552Y-47999388D02*
X53797552Y-47449388D01*
%TO.N,Board_12-XIN32*%
X49747552Y-47499388D02*
X49747552Y-49186888D01*
X49327552Y-46399388D02*
X49947552Y-46399388D01*
X49947552Y-46399388D02*
X50397552Y-46849388D01*
X50397552Y-46849388D02*
X49747552Y-47499388D01*
%TO.N,Board_13-+3.3V*%
X69447552Y-55599388D02*
X70297552Y-56449388D01*
X71657552Y-44199388D02*
X71657552Y-44349388D01*
X63722552Y-48224388D02*
X61797552Y-50149388D01*
X66499943Y-47499388D02*
X66049943Y-47049388D01*
X64422552Y-47799693D02*
X63997857Y-48224388D01*
X62047552Y-50749388D02*
X66472552Y-50749388D01*
X62197552Y-51399388D02*
X61797552Y-50999388D01*
X67197552Y-47499388D02*
X66499943Y-47499388D01*
X61797552Y-50999388D02*
X62047552Y-50749388D01*
X65947552Y-44199388D02*
X64847552Y-45299388D01*
X70297552Y-57459388D02*
X70637552Y-57799388D01*
X68547552Y-55599388D02*
X69447552Y-55599388D01*
X62197552Y-49479388D02*
X62197552Y-50599388D01*
X61797552Y-50149388D02*
X61797552Y-50999388D01*
X75797552Y-53509388D02*
X75797552Y-53799388D01*
X62197552Y-50599388D02*
X61797552Y-50999388D01*
X66049943Y-47049388D02*
X64897552Y-47049388D01*
X73627552Y-46319388D02*
X75797552Y-48489388D01*
X62197552Y-52539388D02*
X62197552Y-51399388D01*
X63997857Y-48224388D02*
X63722552Y-48224388D01*
X70297552Y-56449388D02*
X70297552Y-57459388D01*
X75797552Y-53799388D02*
X73597552Y-55999388D01*
X66367552Y-44199388D02*
X65947552Y-44199388D01*
X67247552Y-49186888D02*
X67247552Y-47549388D01*
X64422552Y-47524388D02*
X64422552Y-47799693D01*
X67247552Y-47549388D02*
X67197552Y-47499388D01*
X64897552Y-47049388D02*
X64422552Y-47524388D01*
X71657552Y-44349388D02*
X73627552Y-46319388D01*
%TO.N,Board_13-CLKSEL0*%
X62677552Y-48519388D02*
X63697552Y-47499388D01*
X66472552Y-51749388D02*
X66472552Y-52536888D01*
X68847661Y-49186888D02*
X68747552Y-49186888D01*
X66747552Y-57439388D02*
X66747552Y-54549388D01*
X64797552Y-46399388D02*
X63697552Y-47499388D01*
X71627552Y-46406997D02*
X68847661Y-49186888D01*
X65622552Y-49399388D02*
X66472552Y-50249388D01*
X70810052Y-51249388D02*
X71522552Y-51249388D01*
X68747552Y-52599388D02*
X70097552Y-51249388D01*
X66387552Y-57799388D02*
X66747552Y-57439388D01*
X66747552Y-54549388D02*
X66747552Y-52811888D01*
X66367552Y-46391779D02*
X66367552Y-46399388D01*
X68747552Y-52811888D02*
X68747552Y-52599388D01*
X64397552Y-49399388D02*
X65622552Y-49399388D01*
X71627552Y-46399388D02*
X71627552Y-46406997D01*
X67327552Y-44199388D02*
X67327552Y-45431779D01*
X68747552Y-49186888D02*
X70810052Y-51249388D01*
X70097552Y-51249388D02*
X71522552Y-51249388D01*
X67327552Y-45431779D02*
X66367552Y-46391779D01*
X66472552Y-52536888D02*
X66747552Y-52811888D01*
X66367552Y-46399388D02*
X64797552Y-46399388D01*
X62197552Y-48519388D02*
X62677552Y-48519388D01*
X76197552Y-50999388D02*
X71772552Y-50999388D01*
X71772552Y-50999388D02*
X71522552Y-51249388D01*
%TO.N,Board_13-CLKSEL1*%
X68247552Y-48549388D02*
X68247552Y-49186888D01*
X70047552Y-46399388D02*
X69597552Y-46849388D01*
X69597552Y-47199388D02*
X68247552Y-48549388D01*
X70667552Y-46399388D02*
X70047552Y-46399388D01*
X69597552Y-46849388D02*
X69597552Y-47199388D01*
%TO.N,Board_13-Net-(U1-BOOTN)*%
X65720552Y-51249388D02*
X63410552Y-53559388D01*
X66472552Y-51249388D02*
X65720552Y-51249388D01*
X63410552Y-53559388D02*
X62197552Y-53559388D01*
%TO.N,Board_13-Net-(U1-CAP)*%
X67497552Y-53561888D02*
X68247552Y-52811888D01*
X67497552Y-57649388D02*
X67497552Y-53561888D01*
X67347552Y-57799388D02*
X67497552Y-57649388D01*
%TO.N,Board_13-Net-(U1-ENV_SCL)*%
X71247552Y-57389388D02*
X71657552Y-57799388D01*
X71247552Y-52811888D02*
X71247552Y-57389388D01*
%TO.N,Board_13-Net-(U1-ENV_SDA)*%
X71522552Y-51749388D02*
X75057552Y-51749388D01*
X75057552Y-51749388D02*
X75797552Y-52489388D01*
%TO.N,Board_13-SCL*%
X71522552Y-50249388D02*
X73397552Y-50249388D01*
X73397552Y-50249388D02*
X75057552Y-50249388D01*
X75057552Y-50249388D02*
X75797552Y-49509388D01*
%TO.N,Board_13-SDA*%
X69397552Y-44199388D02*
X68997552Y-43799388D01*
X70637552Y-44199388D02*
X69397552Y-44199388D01*
X71247552Y-49186888D02*
X71247552Y-47999388D01*
X71247552Y-47999388D02*
X71797552Y-47449388D01*
%TO.N,Board_13-XIN32*%
X67327552Y-46399388D02*
X67947552Y-46399388D01*
X67947552Y-46399388D02*
X68397552Y-46849388D01*
X67747552Y-47499388D02*
X67747552Y-49186888D01*
X68397552Y-46849388D02*
X67747552Y-47499388D01*
%TO.N,Board_14-+3.3V*%
X85197552Y-47499388D02*
X84499943Y-47499388D01*
X85247552Y-49186888D02*
X85247552Y-47549388D01*
X79797552Y-50999388D02*
X80047552Y-50749388D01*
X88297552Y-57459388D02*
X88637552Y-57799388D01*
X93797552Y-53799388D02*
X91597552Y-55999388D01*
X82422552Y-47799693D02*
X81997857Y-48224388D01*
X82897552Y-47049388D02*
X82422552Y-47524388D01*
X84499943Y-47499388D02*
X84049943Y-47049388D01*
X88297552Y-56449388D02*
X88297552Y-57459388D01*
X84049943Y-47049388D02*
X82897552Y-47049388D01*
X89657552Y-44349388D02*
X91627552Y-46319388D01*
X83947552Y-44199388D02*
X82847552Y-45299388D01*
X80197552Y-52539388D02*
X80197552Y-51399388D01*
X81722552Y-48224388D02*
X79797552Y-50149388D01*
X84367552Y-44199388D02*
X83947552Y-44199388D01*
X80197552Y-50599388D02*
X79797552Y-50999388D01*
X93797552Y-53509388D02*
X93797552Y-53799388D01*
X87447552Y-55599388D02*
X88297552Y-56449388D01*
X86547552Y-55599388D02*
X87447552Y-55599388D01*
X82422552Y-47524388D02*
X82422552Y-47799693D01*
X79797552Y-50149388D02*
X79797552Y-50999388D01*
X85247552Y-47549388D02*
X85197552Y-47499388D01*
X80047552Y-50749388D02*
X84472552Y-50749388D01*
X91627552Y-46319388D02*
X93797552Y-48489388D01*
X80197552Y-49479388D02*
X80197552Y-50599388D01*
X81997857Y-48224388D02*
X81722552Y-48224388D01*
X80197552Y-51399388D02*
X79797552Y-50999388D01*
X89657552Y-44199388D02*
X89657552Y-44349388D01*
%TO.N,Board_14-CLKSEL0*%
X86847661Y-49186888D02*
X86747552Y-49186888D01*
X84387552Y-57799388D02*
X84747552Y-57439388D01*
X88097552Y-51249388D02*
X89522552Y-51249388D01*
X84472552Y-51749388D02*
X84472552Y-52536888D01*
X84472552Y-52536888D02*
X84747552Y-52811888D01*
X83622552Y-49399388D02*
X84472552Y-50249388D01*
X85327552Y-44199388D02*
X85327552Y-45431779D01*
X88810052Y-51249388D02*
X89522552Y-51249388D01*
X84747552Y-57439388D02*
X84747552Y-54549388D01*
X89627552Y-46399388D02*
X89627552Y-46406997D01*
X94197552Y-50999388D02*
X89772552Y-50999388D01*
X80677552Y-48519388D02*
X81697552Y-47499388D01*
X89772552Y-50999388D02*
X89522552Y-51249388D01*
X86747552Y-52811888D02*
X86747552Y-52599388D01*
X82397552Y-49399388D02*
X83622552Y-49399388D01*
X84747552Y-54549388D02*
X84747552Y-52811888D01*
X85327552Y-45431779D02*
X84367552Y-46391779D01*
X80197552Y-48519388D02*
X80677552Y-48519388D01*
X89627552Y-46406997D02*
X86847661Y-49186888D01*
X84367552Y-46391779D02*
X84367552Y-46399388D01*
X84367552Y-46399388D02*
X82797552Y-46399388D01*
X82797552Y-46399388D02*
X81697552Y-47499388D01*
X86747552Y-49186888D02*
X88810052Y-51249388D01*
X86747552Y-52599388D02*
X88097552Y-51249388D01*
%TO.N,Board_14-CLKSEL1*%
X86247552Y-48549388D02*
X86247552Y-49186888D01*
X87597552Y-47199388D02*
X86247552Y-48549388D01*
X88047552Y-46399388D02*
X87597552Y-46849388D01*
X87597552Y-46849388D02*
X87597552Y-47199388D01*
X88667552Y-46399388D02*
X88047552Y-46399388D01*
%TO.N,Board_14-Net-(U1-BOOTN)*%
X83720552Y-51249388D02*
X81410552Y-53559388D01*
X81410552Y-53559388D02*
X80197552Y-53559388D01*
X84472552Y-51249388D02*
X83720552Y-51249388D01*
%TO.N,Board_14-Net-(U1-CAP)*%
X85497552Y-57649388D02*
X85497552Y-53561888D01*
X85347552Y-57799388D02*
X85497552Y-57649388D01*
X85497552Y-53561888D02*
X86247552Y-52811888D01*
%TO.N,Board_14-Net-(U1-ENV_SCL)*%
X89247552Y-57389388D02*
X89657552Y-57799388D01*
X89247552Y-52811888D02*
X89247552Y-57389388D01*
%TO.N,Board_14-Net-(U1-ENV_SDA)*%
X89522552Y-51749388D02*
X93057552Y-51749388D01*
X93057552Y-51749388D02*
X93797552Y-52489388D01*
%TO.N,Board_14-SCL*%
X89522552Y-50249388D02*
X91397552Y-50249388D01*
X91397552Y-50249388D02*
X93057552Y-50249388D01*
X93057552Y-50249388D02*
X93797552Y-49509388D01*
%TO.N,Board_14-SDA*%
X88637552Y-44199388D02*
X87397552Y-44199388D01*
X89247552Y-49186888D02*
X89247552Y-47999388D01*
X89247552Y-47999388D02*
X89797552Y-47449388D01*
X87397552Y-44199388D02*
X86997552Y-43799388D01*
%TO.N,Board_14-XIN32*%
X85747552Y-47499388D02*
X85747552Y-49186888D01*
X85327552Y-46399388D02*
X85947552Y-46399388D01*
X85947552Y-46399388D02*
X86397552Y-46849388D01*
X86397552Y-46849388D02*
X85747552Y-47499388D01*
%TO.N,Board_15-+3.3V*%
X10897552Y-65049388D02*
X10422552Y-65524388D01*
X8197552Y-68599388D02*
X7797552Y-68999388D01*
X19627552Y-64319388D02*
X21797552Y-66489388D01*
X13247552Y-67186888D02*
X13247552Y-65549388D01*
X10422552Y-65524388D02*
X10422552Y-65799693D01*
X21797552Y-71509388D02*
X21797552Y-71799388D01*
X11947552Y-62199388D02*
X10847552Y-63299388D01*
X13197552Y-65499388D02*
X12499943Y-65499388D01*
X8197552Y-69399388D02*
X7797552Y-68999388D01*
X8197552Y-70539388D02*
X8197552Y-69399388D01*
X16297552Y-74449388D02*
X16297552Y-75459388D01*
X17657552Y-62349388D02*
X19627552Y-64319388D01*
X7797552Y-68999388D02*
X8047552Y-68749388D01*
X12049943Y-65049388D02*
X10897552Y-65049388D01*
X12499943Y-65499388D02*
X12049943Y-65049388D01*
X7797552Y-68149388D02*
X7797552Y-68999388D01*
X15447552Y-73599388D02*
X16297552Y-74449388D01*
X9997857Y-66224388D02*
X9722552Y-66224388D01*
X16297552Y-75459388D02*
X16637552Y-75799388D01*
X9722552Y-66224388D02*
X7797552Y-68149388D01*
X12367552Y-62199388D02*
X11947552Y-62199388D01*
X8197552Y-67479388D02*
X8197552Y-68599388D01*
X8047552Y-68749388D02*
X12472552Y-68749388D01*
X21797552Y-71799388D02*
X19597552Y-73999388D01*
X14547552Y-73599388D02*
X15447552Y-73599388D01*
X17657552Y-62199388D02*
X17657552Y-62349388D01*
X10422552Y-65799693D02*
X9997857Y-66224388D01*
X13247552Y-65549388D02*
X13197552Y-65499388D01*
%TO.N,Board_15-CLKSEL0*%
X22197552Y-68999388D02*
X17772552Y-68999388D01*
X12387552Y-75799388D02*
X12747552Y-75439388D01*
X12747552Y-75439388D02*
X12747552Y-72549388D01*
X13327552Y-63431779D02*
X12367552Y-64391779D01*
X10797552Y-64399388D02*
X9697552Y-65499388D01*
X8677552Y-66519388D02*
X9697552Y-65499388D01*
X13327552Y-62199388D02*
X13327552Y-63431779D01*
X14747552Y-67186888D02*
X16810052Y-69249388D01*
X16810052Y-69249388D02*
X17522552Y-69249388D01*
X17772552Y-68999388D02*
X17522552Y-69249388D01*
X12367552Y-64391779D02*
X12367552Y-64399388D01*
X16097552Y-69249388D02*
X17522552Y-69249388D01*
X14747552Y-70599388D02*
X16097552Y-69249388D01*
X17627552Y-64399388D02*
X17627552Y-64406997D01*
X10397552Y-67399388D02*
X11622552Y-67399388D01*
X8197552Y-66519388D02*
X8677552Y-66519388D01*
X11622552Y-67399388D02*
X12472552Y-68249388D01*
X14847661Y-67186888D02*
X14747552Y-67186888D01*
X17627552Y-64406997D02*
X14847661Y-67186888D01*
X12472552Y-69749388D02*
X12472552Y-70536888D01*
X12367552Y-64399388D02*
X10797552Y-64399388D01*
X14747552Y-70811888D02*
X14747552Y-70599388D01*
X12472552Y-70536888D02*
X12747552Y-70811888D01*
X12747552Y-72549388D02*
X12747552Y-70811888D01*
%TO.N,Board_15-CLKSEL1*%
X16047552Y-64399388D02*
X15597552Y-64849388D01*
X14247552Y-66549388D02*
X14247552Y-67186888D01*
X15597552Y-65199388D02*
X14247552Y-66549388D01*
X15597552Y-64849388D02*
X15597552Y-65199388D01*
X16667552Y-64399388D02*
X16047552Y-64399388D01*
%TO.N,Board_15-Net-(U1-BOOTN)*%
X9410552Y-71559388D02*
X8197552Y-71559388D01*
X11720552Y-69249388D02*
X9410552Y-71559388D01*
X12472552Y-69249388D02*
X11720552Y-69249388D01*
%TO.N,Board_15-Net-(U1-CAP)*%
X13497552Y-71561888D02*
X14247552Y-70811888D01*
X13497552Y-75649388D02*
X13497552Y-71561888D01*
X13347552Y-75799388D02*
X13497552Y-75649388D01*
%TO.N,Board_15-Net-(U1-ENV_SCL)*%
X17247552Y-70811888D02*
X17247552Y-75389388D01*
X17247552Y-75389388D02*
X17657552Y-75799388D01*
%TO.N,Board_15-Net-(U1-ENV_SDA)*%
X17522552Y-69749388D02*
X21057552Y-69749388D01*
X21057552Y-69749388D02*
X21797552Y-70489388D01*
%TO.N,Board_15-SCL*%
X17522552Y-68249388D02*
X19397552Y-68249388D01*
X21057552Y-68249388D02*
X21797552Y-67509388D01*
X19397552Y-68249388D02*
X21057552Y-68249388D01*
%TO.N,Board_15-SDA*%
X17247552Y-67186888D02*
X17247552Y-65999388D01*
X16637552Y-62199388D02*
X15397552Y-62199388D01*
X17247552Y-65999388D02*
X17797552Y-65449388D01*
X15397552Y-62199388D02*
X14997552Y-61799388D01*
%TO.N,Board_15-XIN32*%
X13947552Y-64399388D02*
X14397552Y-64849388D01*
X13327552Y-64399388D02*
X13947552Y-64399388D01*
X13747552Y-65499388D02*
X13747552Y-67186888D01*
X14397552Y-64849388D02*
X13747552Y-65499388D01*
%TO.N,Board_16-+3.3V*%
X31247552Y-65549388D02*
X31197552Y-65499388D01*
X26197552Y-67479388D02*
X26197552Y-68599388D01*
X26047552Y-68749388D02*
X30472552Y-68749388D01*
X30049943Y-65049388D02*
X28897552Y-65049388D01*
X37627552Y-64319388D02*
X39797552Y-66489388D01*
X27997857Y-66224388D02*
X27722552Y-66224388D01*
X25797552Y-68149388D02*
X25797552Y-68999388D01*
X39797552Y-71509388D02*
X39797552Y-71799388D01*
X27722552Y-66224388D02*
X25797552Y-68149388D01*
X28422552Y-65524388D02*
X28422552Y-65799693D01*
X34297552Y-75459388D02*
X34637552Y-75799388D01*
X35657552Y-62199388D02*
X35657552Y-62349388D01*
X26197552Y-70539388D02*
X26197552Y-69399388D01*
X26197552Y-68599388D02*
X25797552Y-68999388D01*
X28897552Y-65049388D02*
X28422552Y-65524388D01*
X29947552Y-62199388D02*
X28847552Y-63299388D01*
X33447552Y-73599388D02*
X34297552Y-74449388D01*
X26197552Y-69399388D02*
X25797552Y-68999388D01*
X35657552Y-62349388D02*
X37627552Y-64319388D01*
X31197552Y-65499388D02*
X30499943Y-65499388D01*
X31247552Y-67186888D02*
X31247552Y-65549388D01*
X39797552Y-71799388D02*
X37597552Y-73999388D01*
X28422552Y-65799693D02*
X27997857Y-66224388D01*
X32547552Y-73599388D02*
X33447552Y-73599388D01*
X34297552Y-74449388D02*
X34297552Y-75459388D01*
X25797552Y-68999388D02*
X26047552Y-68749388D01*
X30499943Y-65499388D02*
X30049943Y-65049388D01*
X30367552Y-62199388D02*
X29947552Y-62199388D01*
%TO.N,Board_16-CLKSEL0*%
X35627552Y-64399388D02*
X35627552Y-64406997D01*
X30472552Y-70536888D02*
X30747552Y-70811888D01*
X30367552Y-64399388D02*
X28797552Y-64399388D01*
X35627552Y-64406997D02*
X32847661Y-67186888D01*
X28797552Y-64399388D02*
X27697552Y-65499388D01*
X34097552Y-69249388D02*
X35522552Y-69249388D01*
X30367552Y-64391779D02*
X30367552Y-64399388D01*
X32747552Y-70599388D02*
X34097552Y-69249388D01*
X32747552Y-70811888D02*
X32747552Y-70599388D01*
X30472552Y-69749388D02*
X30472552Y-70536888D01*
X26197552Y-66519388D02*
X26677552Y-66519388D01*
X29622552Y-67399388D02*
X30472552Y-68249388D01*
X32747552Y-67186888D02*
X34810052Y-69249388D01*
X40197552Y-68999388D02*
X35772552Y-68999388D01*
X26677552Y-66519388D02*
X27697552Y-65499388D01*
X30747552Y-72549388D02*
X30747552Y-70811888D01*
X30387552Y-75799388D02*
X30747552Y-75439388D01*
X35772552Y-68999388D02*
X35522552Y-69249388D01*
X32847661Y-67186888D02*
X32747552Y-67186888D01*
X34810052Y-69249388D02*
X35522552Y-69249388D01*
X28397552Y-67399388D02*
X29622552Y-67399388D01*
X31327552Y-62199388D02*
X31327552Y-63431779D01*
X30747552Y-75439388D02*
X30747552Y-72549388D01*
X31327552Y-63431779D02*
X30367552Y-64391779D01*
%TO.N,Board_16-CLKSEL1*%
X34047552Y-64399388D02*
X33597552Y-64849388D01*
X33597552Y-64849388D02*
X33597552Y-65199388D01*
X33597552Y-65199388D02*
X32247552Y-66549388D01*
X32247552Y-66549388D02*
X32247552Y-67186888D01*
X34667552Y-64399388D02*
X34047552Y-64399388D01*
%TO.N,Board_16-Net-(U1-BOOTN)*%
X27410552Y-71559388D02*
X26197552Y-71559388D01*
X29720552Y-69249388D02*
X27410552Y-71559388D01*
X30472552Y-69249388D02*
X29720552Y-69249388D01*
%TO.N,Board_16-Net-(U1-CAP)*%
X31347552Y-75799388D02*
X31497552Y-75649388D01*
X31497552Y-71561888D02*
X32247552Y-70811888D01*
X31497552Y-75649388D02*
X31497552Y-71561888D01*
%TO.N,Board_16-Net-(U1-ENV_SCL)*%
X35247552Y-75389388D02*
X35657552Y-75799388D01*
X35247552Y-70811888D02*
X35247552Y-75389388D01*
%TO.N,Board_16-Net-(U1-ENV_SDA)*%
X39057552Y-69749388D02*
X39797552Y-70489388D01*
X35522552Y-69749388D02*
X39057552Y-69749388D01*
%TO.N,Board_16-SCL*%
X39057552Y-68249388D02*
X39797552Y-67509388D01*
X35522552Y-68249388D02*
X37397552Y-68249388D01*
X37397552Y-68249388D02*
X39057552Y-68249388D01*
%TO.N,Board_16-SDA*%
X35247552Y-65999388D02*
X35797552Y-65449388D01*
X35247552Y-67186888D02*
X35247552Y-65999388D01*
X34637552Y-62199388D02*
X33397552Y-62199388D01*
X33397552Y-62199388D02*
X32997552Y-61799388D01*
%TO.N,Board_16-XIN32*%
X31747552Y-65499388D02*
X31747552Y-67186888D01*
X31947552Y-64399388D02*
X32397552Y-64849388D01*
X31327552Y-64399388D02*
X31947552Y-64399388D01*
X32397552Y-64849388D02*
X31747552Y-65499388D01*
%TO.N,Board_17-+3.3V*%
X48499943Y-65499388D02*
X48049943Y-65049388D01*
X55627552Y-64319388D02*
X57797552Y-66489388D01*
X51447552Y-73599388D02*
X52297552Y-74449388D01*
X46422552Y-65799693D02*
X45997857Y-66224388D01*
X44197552Y-68599388D02*
X43797552Y-68999388D01*
X57797552Y-71509388D02*
X57797552Y-71799388D01*
X53657552Y-62199388D02*
X53657552Y-62349388D01*
X45997857Y-66224388D02*
X45722552Y-66224388D01*
X49197552Y-65499388D02*
X48499943Y-65499388D01*
X43797552Y-68149388D02*
X43797552Y-68999388D01*
X49247552Y-67186888D02*
X49247552Y-65549388D01*
X50547552Y-73599388D02*
X51447552Y-73599388D01*
X49247552Y-65549388D02*
X49197552Y-65499388D01*
X44197552Y-69399388D02*
X43797552Y-68999388D01*
X46422552Y-65524388D02*
X46422552Y-65799693D01*
X48049943Y-65049388D02*
X46897552Y-65049388D01*
X48367552Y-62199388D02*
X47947552Y-62199388D01*
X57797552Y-71799388D02*
X55597552Y-73999388D01*
X44047552Y-68749388D02*
X48472552Y-68749388D01*
X44197552Y-67479388D02*
X44197552Y-68599388D01*
X52297552Y-75459388D02*
X52637552Y-75799388D01*
X53657552Y-62349388D02*
X55627552Y-64319388D01*
X47947552Y-62199388D02*
X46847552Y-63299388D01*
X43797552Y-68999388D02*
X44047552Y-68749388D01*
X46897552Y-65049388D02*
X46422552Y-65524388D01*
X44197552Y-70539388D02*
X44197552Y-69399388D01*
X45722552Y-66224388D02*
X43797552Y-68149388D01*
X52297552Y-74449388D02*
X52297552Y-75459388D01*
%TO.N,Board_17-CLKSEL0*%
X50747552Y-67186888D02*
X52810052Y-69249388D01*
X48367552Y-64399388D02*
X46797552Y-64399388D01*
X44197552Y-66519388D02*
X44677552Y-66519388D01*
X48367552Y-64391779D02*
X48367552Y-64399388D01*
X47622552Y-67399388D02*
X48472552Y-68249388D01*
X50747552Y-70599388D02*
X52097552Y-69249388D01*
X48747552Y-75439388D02*
X48747552Y-72549388D01*
X53627552Y-64406997D02*
X50847661Y-67186888D01*
X50847661Y-67186888D02*
X50747552Y-67186888D01*
X53627552Y-64399388D02*
X53627552Y-64406997D01*
X48747552Y-72549388D02*
X48747552Y-70811888D01*
X46397552Y-67399388D02*
X47622552Y-67399388D01*
X48387552Y-75799388D02*
X48747552Y-75439388D01*
X44677552Y-66519388D02*
X45697552Y-65499388D01*
X48472552Y-70536888D02*
X48747552Y-70811888D01*
X52097552Y-69249388D02*
X53522552Y-69249388D01*
X49327552Y-63431779D02*
X48367552Y-64391779D01*
X58197552Y-68999388D02*
X53772552Y-68999388D01*
X50747552Y-70811888D02*
X50747552Y-70599388D01*
X46797552Y-64399388D02*
X45697552Y-65499388D01*
X52810052Y-69249388D02*
X53522552Y-69249388D01*
X53772552Y-68999388D02*
X53522552Y-69249388D01*
X48472552Y-69749388D02*
X48472552Y-70536888D01*
X49327552Y-62199388D02*
X49327552Y-63431779D01*
%TO.N,Board_17-CLKSEL1*%
X52047552Y-64399388D02*
X51597552Y-64849388D01*
X50247552Y-66549388D02*
X50247552Y-67186888D01*
X52667552Y-64399388D02*
X52047552Y-64399388D01*
X51597552Y-64849388D02*
X51597552Y-65199388D01*
X51597552Y-65199388D02*
X50247552Y-66549388D01*
%TO.N,Board_17-Net-(U1-BOOTN)*%
X45410552Y-71559388D02*
X44197552Y-71559388D01*
X48472552Y-69249388D02*
X47720552Y-69249388D01*
X47720552Y-69249388D02*
X45410552Y-71559388D01*
%TO.N,Board_17-Net-(U1-CAP)*%
X49497552Y-71561888D02*
X50247552Y-70811888D01*
X49497552Y-75649388D02*
X49497552Y-71561888D01*
X49347552Y-75799388D02*
X49497552Y-75649388D01*
%TO.N,Board_17-Net-(U1-ENV_SCL)*%
X53247552Y-75389388D02*
X53657552Y-75799388D01*
X53247552Y-70811888D02*
X53247552Y-75389388D01*
%TO.N,Board_17-Net-(U1-ENV_SDA)*%
X57057552Y-69749388D02*
X57797552Y-70489388D01*
X53522552Y-69749388D02*
X57057552Y-69749388D01*
%TO.N,Board_17-SCL*%
X57057552Y-68249388D02*
X57797552Y-67509388D01*
X53522552Y-68249388D02*
X55397552Y-68249388D01*
X55397552Y-68249388D02*
X57057552Y-68249388D01*
%TO.N,Board_17-SDA*%
X53247552Y-67186888D02*
X53247552Y-65999388D01*
X52637552Y-62199388D02*
X51397552Y-62199388D01*
X51397552Y-62199388D02*
X50997552Y-61799388D01*
X53247552Y-65999388D02*
X53797552Y-65449388D01*
%TO.N,Board_17-XIN32*%
X49327552Y-64399388D02*
X49947552Y-64399388D01*
X50397552Y-64849388D02*
X49747552Y-65499388D01*
X49947552Y-64399388D02*
X50397552Y-64849388D01*
X49747552Y-65499388D02*
X49747552Y-67186888D01*
%TO.N,Board_18-+3.3V*%
X62197552Y-68599388D02*
X61797552Y-68999388D01*
X67247552Y-67186888D02*
X67247552Y-65549388D01*
X61797552Y-68999388D02*
X62047552Y-68749388D01*
X62197552Y-67479388D02*
X62197552Y-68599388D01*
X73627552Y-64319388D02*
X75797552Y-66489388D01*
X75797552Y-71509388D02*
X75797552Y-71799388D01*
X71657552Y-62349388D02*
X73627552Y-64319388D01*
X66499943Y-65499388D02*
X66049943Y-65049388D01*
X75797552Y-71799388D02*
X73597552Y-73999388D01*
X66049943Y-65049388D02*
X64897552Y-65049388D01*
X63997857Y-66224388D02*
X63722552Y-66224388D01*
X70297552Y-74449388D02*
X70297552Y-75459388D01*
X62047552Y-68749388D02*
X66472552Y-68749388D01*
X69447552Y-73599388D02*
X70297552Y-74449388D01*
X62197552Y-70539388D02*
X62197552Y-69399388D01*
X66367552Y-62199388D02*
X65947552Y-62199388D01*
X68547552Y-73599388D02*
X69447552Y-73599388D01*
X67197552Y-65499388D02*
X66499943Y-65499388D01*
X61797552Y-68149388D02*
X61797552Y-68999388D01*
X64897552Y-65049388D02*
X64422552Y-65524388D01*
X70297552Y-75459388D02*
X70637552Y-75799388D01*
X64422552Y-65524388D02*
X64422552Y-65799693D01*
X65947552Y-62199388D02*
X64847552Y-63299388D01*
X71657552Y-62199388D02*
X71657552Y-62349388D01*
X63722552Y-66224388D02*
X61797552Y-68149388D01*
X67247552Y-65549388D02*
X67197552Y-65499388D01*
X64422552Y-65799693D02*
X63997857Y-66224388D01*
X62197552Y-69399388D02*
X61797552Y-68999388D01*
%TO.N,Board_18-CLKSEL0*%
X70097552Y-69249388D02*
X71522552Y-69249388D01*
X67327552Y-62199388D02*
X67327552Y-63431779D01*
X64797552Y-64399388D02*
X63697552Y-65499388D01*
X66472552Y-69749388D02*
X66472552Y-70536888D01*
X66747552Y-72549388D02*
X66747552Y-70811888D01*
X68847661Y-67186888D02*
X68747552Y-67186888D01*
X70810052Y-69249388D02*
X71522552Y-69249388D01*
X66367552Y-64399388D02*
X64797552Y-64399388D01*
X65622552Y-67399388D02*
X66472552Y-68249388D01*
X62197552Y-66519388D02*
X62677552Y-66519388D01*
X68747552Y-70811888D02*
X68747552Y-70599388D01*
X64397552Y-67399388D02*
X65622552Y-67399388D01*
X66387552Y-75799388D02*
X66747552Y-75439388D01*
X66472552Y-70536888D02*
X66747552Y-70811888D01*
X71772552Y-68999388D02*
X71522552Y-69249388D01*
X62677552Y-66519388D02*
X63697552Y-65499388D01*
X66367552Y-64391779D02*
X66367552Y-64399388D01*
X76197552Y-68999388D02*
X71772552Y-68999388D01*
X71627552Y-64406997D02*
X68847661Y-67186888D01*
X67327552Y-63431779D02*
X66367552Y-64391779D01*
X68747552Y-70599388D02*
X70097552Y-69249388D01*
X66747552Y-75439388D02*
X66747552Y-72549388D01*
X71627552Y-64399388D02*
X71627552Y-64406997D01*
X68747552Y-67186888D02*
X70810052Y-69249388D01*
%TO.N,Board_18-CLKSEL1*%
X70047552Y-64399388D02*
X69597552Y-64849388D01*
X68247552Y-66549388D02*
X68247552Y-67186888D01*
X70667552Y-64399388D02*
X70047552Y-64399388D01*
X69597552Y-64849388D02*
X69597552Y-65199388D01*
X69597552Y-65199388D02*
X68247552Y-66549388D01*
%TO.N,Board_18-Net-(U1-BOOTN)*%
X66472552Y-69249388D02*
X65720552Y-69249388D01*
X63410552Y-71559388D02*
X62197552Y-71559388D01*
X65720552Y-69249388D02*
X63410552Y-71559388D01*
%TO.N,Board_18-Net-(U1-CAP)*%
X67497552Y-75649388D02*
X67497552Y-71561888D01*
X67497552Y-71561888D02*
X68247552Y-70811888D01*
X67347552Y-75799388D02*
X67497552Y-75649388D01*
%TO.N,Board_18-Net-(U1-ENV_SCL)*%
X71247552Y-75389388D02*
X71657552Y-75799388D01*
X71247552Y-70811888D02*
X71247552Y-75389388D01*
%TO.N,Board_18-Net-(U1-ENV_SDA)*%
X75057552Y-69749388D02*
X75797552Y-70489388D01*
X71522552Y-69749388D02*
X75057552Y-69749388D01*
%TO.N,Board_18-SCL*%
X75057552Y-68249388D02*
X75797552Y-67509388D01*
X71522552Y-68249388D02*
X73397552Y-68249388D01*
X73397552Y-68249388D02*
X75057552Y-68249388D01*
%TO.N,Board_18-SDA*%
X70637552Y-62199388D02*
X69397552Y-62199388D01*
X71247552Y-67186888D02*
X71247552Y-65999388D01*
X69397552Y-62199388D02*
X68997552Y-61799388D01*
X71247552Y-65999388D02*
X71797552Y-65449388D01*
%TO.N,Board_18-XIN32*%
X67327552Y-64399388D02*
X67947552Y-64399388D01*
X68397552Y-64849388D02*
X67747552Y-65499388D01*
X67747552Y-65499388D02*
X67747552Y-67186888D01*
X67947552Y-64399388D02*
X68397552Y-64849388D01*
%TO.N,Board_19-+3.3V*%
X80197552Y-70539388D02*
X80197552Y-69399388D01*
X93797552Y-71799388D02*
X91597552Y-73999388D01*
X81722552Y-66224388D02*
X79797552Y-68149388D01*
X80047552Y-68749388D02*
X84472552Y-68749388D01*
X82422552Y-65524388D02*
X82422552Y-65799693D01*
X88297552Y-74449388D02*
X88297552Y-75459388D01*
X89657552Y-62199388D02*
X89657552Y-62349388D01*
X79797552Y-68999388D02*
X80047552Y-68749388D01*
X86547552Y-73599388D02*
X87447552Y-73599388D01*
X85247552Y-65549388D02*
X85197552Y-65499388D01*
X82897552Y-65049388D02*
X82422552Y-65524388D01*
X83947552Y-62199388D02*
X82847552Y-63299388D01*
X80197552Y-68599388D02*
X79797552Y-68999388D01*
X85247552Y-67186888D02*
X85247552Y-65549388D01*
X85197552Y-65499388D02*
X84499943Y-65499388D01*
X87447552Y-73599388D02*
X88297552Y-74449388D01*
X84499943Y-65499388D02*
X84049943Y-65049388D01*
X79797552Y-68149388D02*
X79797552Y-68999388D01*
X84367552Y-62199388D02*
X83947552Y-62199388D01*
X84049943Y-65049388D02*
X82897552Y-65049388D01*
X80197552Y-67479388D02*
X80197552Y-68599388D01*
X82422552Y-65799693D02*
X81997857Y-66224388D01*
X80197552Y-69399388D02*
X79797552Y-68999388D01*
X89657552Y-62349388D02*
X91627552Y-64319388D01*
X81997857Y-66224388D02*
X81722552Y-66224388D01*
X93797552Y-71509388D02*
X93797552Y-71799388D01*
X88297552Y-75459388D02*
X88637552Y-75799388D01*
X91627552Y-64319388D02*
X93797552Y-66489388D01*
%TO.N,Board_19-CLKSEL0*%
X82397552Y-67399388D02*
X83622552Y-67399388D01*
X80677552Y-66519388D02*
X81697552Y-65499388D01*
X86747552Y-70811888D02*
X86747552Y-70599388D01*
X80197552Y-66519388D02*
X80677552Y-66519388D01*
X84747552Y-72549388D02*
X84747552Y-70811888D01*
X84472552Y-70536888D02*
X84747552Y-70811888D01*
X94197552Y-68999388D02*
X89772552Y-68999388D01*
X85327552Y-62199388D02*
X85327552Y-63431779D01*
X86747552Y-70599388D02*
X88097552Y-69249388D01*
X84387552Y-75799388D02*
X84747552Y-75439388D01*
X84367552Y-64399388D02*
X82797552Y-64399388D01*
X83622552Y-67399388D02*
X84472552Y-68249388D01*
X88097552Y-69249388D02*
X89522552Y-69249388D01*
X89627552Y-64399388D02*
X89627552Y-64406997D01*
X88810052Y-69249388D02*
X89522552Y-69249388D01*
X84367552Y-64391779D02*
X84367552Y-64399388D01*
X89627552Y-64406997D02*
X86847661Y-67186888D01*
X89772552Y-68999388D02*
X89522552Y-69249388D01*
X84747552Y-75439388D02*
X84747552Y-72549388D01*
X84472552Y-69749388D02*
X84472552Y-70536888D01*
X85327552Y-63431779D02*
X84367552Y-64391779D01*
X86747552Y-67186888D02*
X88810052Y-69249388D01*
X82797552Y-64399388D02*
X81697552Y-65499388D01*
X86847661Y-67186888D02*
X86747552Y-67186888D01*
%TO.N,Board_19-CLKSEL1*%
X87597552Y-64849388D02*
X87597552Y-65199388D01*
X88667552Y-64399388D02*
X88047552Y-64399388D01*
X86247552Y-66549388D02*
X86247552Y-67186888D01*
X87597552Y-65199388D02*
X86247552Y-66549388D01*
X88047552Y-64399388D02*
X87597552Y-64849388D01*
%TO.N,Board_19-Net-(U1-BOOTN)*%
X81410552Y-71559388D02*
X80197552Y-71559388D01*
X83720552Y-69249388D02*
X81410552Y-71559388D01*
X84472552Y-69249388D02*
X83720552Y-69249388D01*
%TO.N,Board_19-Net-(U1-CAP)*%
X85497552Y-71561888D02*
X86247552Y-70811888D01*
X85347552Y-75799388D02*
X85497552Y-75649388D01*
X85497552Y-75649388D02*
X85497552Y-71561888D01*
%TO.N,Board_19-Net-(U1-ENV_SCL)*%
X89247552Y-75389388D02*
X89657552Y-75799388D01*
X89247552Y-70811888D02*
X89247552Y-75389388D01*
%TO.N,Board_19-Net-(U1-ENV_SDA)*%
X93057552Y-69749388D02*
X93797552Y-70489388D01*
X89522552Y-69749388D02*
X93057552Y-69749388D01*
%TO.N,Board_19-SCL*%
X93057552Y-68249388D02*
X93797552Y-67509388D01*
X91397552Y-68249388D02*
X93057552Y-68249388D01*
X89522552Y-68249388D02*
X91397552Y-68249388D01*
%TO.N,Board_19-SDA*%
X87397552Y-62199388D02*
X86997552Y-61799388D01*
X89247552Y-67186888D02*
X89247552Y-65999388D01*
X88637552Y-62199388D02*
X87397552Y-62199388D01*
X89247552Y-65999388D02*
X89797552Y-65449388D01*
%TO.N,Board_19-XIN32*%
X85747552Y-65499388D02*
X85747552Y-67186888D01*
X85327552Y-64399388D02*
X85947552Y-64399388D01*
X85947552Y-64399388D02*
X86397552Y-64849388D01*
X86397552Y-64849388D02*
X85747552Y-65499388D01*
%TO.N,Board_20-+3.3V*%
X12367552Y-80199388D02*
X11947552Y-80199388D01*
X17657552Y-80349388D02*
X19627552Y-82319388D01*
X15447552Y-91599388D02*
X16297552Y-92449388D01*
X19627552Y-82319388D02*
X21797552Y-84489388D01*
X12049943Y-83049388D02*
X10897552Y-83049388D01*
X17657552Y-80199388D02*
X17657552Y-80349388D01*
X10422552Y-83524388D02*
X10422552Y-83799693D01*
X12499943Y-83499388D02*
X12049943Y-83049388D01*
X8197552Y-87399388D02*
X7797552Y-86999388D01*
X9722552Y-84224388D02*
X7797552Y-86149388D01*
X16297552Y-92449388D02*
X16297552Y-93459388D01*
X9997857Y-84224388D02*
X9722552Y-84224388D01*
X7797552Y-86149388D02*
X7797552Y-86999388D01*
X8047552Y-86749388D02*
X12472552Y-86749388D01*
X13247552Y-85186888D02*
X13247552Y-83549388D01*
X16297552Y-93459388D02*
X16637552Y-93799388D01*
X7797552Y-86999388D02*
X8047552Y-86749388D01*
X10422552Y-83799693D02*
X9997857Y-84224388D01*
X14547552Y-91599388D02*
X15447552Y-91599388D01*
X21797552Y-89509388D02*
X21797552Y-89799388D01*
X10897552Y-83049388D02*
X10422552Y-83524388D01*
X13197552Y-83499388D02*
X12499943Y-83499388D01*
X8197552Y-85479388D02*
X8197552Y-86599388D01*
X21797552Y-89799388D02*
X19597552Y-91999388D01*
X13247552Y-83549388D02*
X13197552Y-83499388D01*
X8197552Y-86599388D02*
X7797552Y-86999388D01*
X8197552Y-88539388D02*
X8197552Y-87399388D01*
X11947552Y-80199388D02*
X10847552Y-81299388D01*
%TO.N,Board_20-CLKSEL0*%
X17772552Y-86999388D02*
X17522552Y-87249388D01*
X12367552Y-82399388D02*
X10797552Y-82399388D01*
X12472552Y-88536888D02*
X12747552Y-88811888D01*
X12367552Y-82391779D02*
X12367552Y-82399388D01*
X14847661Y-85186888D02*
X14747552Y-85186888D01*
X8677552Y-84519388D02*
X9697552Y-83499388D01*
X22197552Y-86999388D02*
X17772552Y-86999388D01*
X12387552Y-93799388D02*
X12747552Y-93439388D01*
X12472552Y-87749388D02*
X12472552Y-88536888D01*
X14747552Y-88599388D02*
X16097552Y-87249388D01*
X12747552Y-90549388D02*
X12747552Y-88811888D01*
X16097552Y-87249388D02*
X17522552Y-87249388D01*
X13327552Y-80199388D02*
X13327552Y-81431779D01*
X8197552Y-84519388D02*
X8677552Y-84519388D01*
X10397552Y-85399388D02*
X11622552Y-85399388D01*
X11622552Y-85399388D02*
X12472552Y-86249388D01*
X13327552Y-81431779D02*
X12367552Y-82391779D01*
X10797552Y-82399388D02*
X9697552Y-83499388D01*
X16810052Y-87249388D02*
X17522552Y-87249388D01*
X17627552Y-82406997D02*
X14847661Y-85186888D01*
X17627552Y-82399388D02*
X17627552Y-82406997D01*
X14747552Y-88811888D02*
X14747552Y-88599388D01*
X12747552Y-93439388D02*
X12747552Y-90549388D01*
X14747552Y-85186888D02*
X16810052Y-87249388D01*
%TO.N,Board_20-CLKSEL1*%
X16667552Y-82399388D02*
X16047552Y-82399388D01*
X15597552Y-82849388D02*
X15597552Y-83199388D01*
X14247552Y-84549388D02*
X14247552Y-85186888D01*
X16047552Y-82399388D02*
X15597552Y-82849388D01*
X15597552Y-83199388D02*
X14247552Y-84549388D01*
%TO.N,Board_20-Net-(U1-BOOTN)*%
X11720552Y-87249388D02*
X9410552Y-89559388D01*
X12472552Y-87249388D02*
X11720552Y-87249388D01*
X9410552Y-89559388D02*
X8197552Y-89559388D01*
%TO.N,Board_20-Net-(U1-CAP)*%
X13497552Y-89561888D02*
X14247552Y-88811888D01*
X13347552Y-93799388D02*
X13497552Y-93649388D01*
X13497552Y-93649388D02*
X13497552Y-89561888D01*
%TO.N,Board_20-Net-(U1-ENV_SCL)*%
X17247552Y-93389388D02*
X17657552Y-93799388D01*
X17247552Y-88811888D02*
X17247552Y-93389388D01*
%TO.N,Board_20-Net-(U1-ENV_SDA)*%
X17522552Y-87749388D02*
X21057552Y-87749388D01*
X21057552Y-87749388D02*
X21797552Y-88489388D01*
%TO.N,Board_20-SCL*%
X19397552Y-86249388D02*
X21057552Y-86249388D01*
X21057552Y-86249388D02*
X21797552Y-85509388D01*
X17522552Y-86249388D02*
X19397552Y-86249388D01*
%TO.N,Board_20-SDA*%
X17247552Y-83999388D02*
X17797552Y-83449388D01*
X15397552Y-80199388D02*
X14997552Y-79799388D01*
X16637552Y-80199388D02*
X15397552Y-80199388D01*
X17247552Y-85186888D02*
X17247552Y-83999388D01*
%TO.N,Board_20-XIN32*%
X13947552Y-82399388D02*
X14397552Y-82849388D01*
X13327552Y-82399388D02*
X13947552Y-82399388D01*
X13747552Y-83499388D02*
X13747552Y-85186888D01*
X14397552Y-82849388D02*
X13747552Y-83499388D01*
%TO.N,Board_21-+3.3V*%
X34297552Y-93459388D02*
X34637552Y-93799388D01*
X34297552Y-92449388D02*
X34297552Y-93459388D01*
X27997857Y-84224388D02*
X27722552Y-84224388D01*
X39797552Y-89799388D02*
X37597552Y-91999388D01*
X26197552Y-87399388D02*
X25797552Y-86999388D01*
X35657552Y-80199388D02*
X35657552Y-80349388D01*
X28422552Y-83799693D02*
X27997857Y-84224388D01*
X37627552Y-82319388D02*
X39797552Y-84489388D01*
X39797552Y-89509388D02*
X39797552Y-89799388D01*
X30499943Y-83499388D02*
X30049943Y-83049388D01*
X30367552Y-80199388D02*
X29947552Y-80199388D01*
X30049943Y-83049388D02*
X28897552Y-83049388D01*
X25797552Y-86999388D02*
X26047552Y-86749388D01*
X31197552Y-83499388D02*
X30499943Y-83499388D01*
X31247552Y-83549388D02*
X31197552Y-83499388D01*
X29947552Y-80199388D02*
X28847552Y-81299388D01*
X27722552Y-84224388D02*
X25797552Y-86149388D01*
X26197552Y-86599388D02*
X25797552Y-86999388D01*
X26197552Y-88539388D02*
X26197552Y-87399388D01*
X32547552Y-91599388D02*
X33447552Y-91599388D01*
X28897552Y-83049388D02*
X28422552Y-83524388D01*
X35657552Y-80349388D02*
X37627552Y-82319388D01*
X25797552Y-86149388D02*
X25797552Y-86999388D01*
X26047552Y-86749388D02*
X30472552Y-86749388D01*
X33447552Y-91599388D02*
X34297552Y-92449388D01*
X28422552Y-83524388D02*
X28422552Y-83799693D01*
X31247552Y-85186888D02*
X31247552Y-83549388D01*
X26197552Y-85479388D02*
X26197552Y-86599388D01*
%TO.N,Board_21-CLKSEL0*%
X40197552Y-86999388D02*
X35772552Y-86999388D01*
X34097552Y-87249388D02*
X35522552Y-87249388D01*
X26677552Y-84519388D02*
X27697552Y-83499388D01*
X29622552Y-85399388D02*
X30472552Y-86249388D01*
X30472552Y-87749388D02*
X30472552Y-88536888D01*
X35627552Y-82406997D02*
X32847661Y-85186888D01*
X30472552Y-88536888D02*
X30747552Y-88811888D01*
X30747552Y-90549388D02*
X30747552Y-88811888D01*
X31327552Y-80199388D02*
X31327552Y-81431779D01*
X35627552Y-82399388D02*
X35627552Y-82406997D01*
X28797552Y-82399388D02*
X27697552Y-83499388D01*
X34810052Y-87249388D02*
X35522552Y-87249388D01*
X30747552Y-93439388D02*
X30747552Y-90549388D01*
X32747552Y-88599388D02*
X34097552Y-87249388D01*
X30367552Y-82391779D02*
X30367552Y-82399388D01*
X30387552Y-93799388D02*
X30747552Y-93439388D01*
X32747552Y-88811888D02*
X32747552Y-88599388D01*
X32847661Y-85186888D02*
X32747552Y-85186888D01*
X32747552Y-85186888D02*
X34810052Y-87249388D01*
X30367552Y-82399388D02*
X28797552Y-82399388D01*
X26197552Y-84519388D02*
X26677552Y-84519388D01*
X31327552Y-81431779D02*
X30367552Y-82391779D01*
X35772552Y-86999388D02*
X35522552Y-87249388D01*
X28397552Y-85399388D02*
X29622552Y-85399388D01*
%TO.N,Board_21-CLKSEL1*%
X32247552Y-84549388D02*
X32247552Y-85186888D01*
X33597552Y-83199388D02*
X32247552Y-84549388D01*
X34047552Y-82399388D02*
X33597552Y-82849388D01*
X34667552Y-82399388D02*
X34047552Y-82399388D01*
X33597552Y-82849388D02*
X33597552Y-83199388D01*
%TO.N,Board_21-Net-(U1-BOOTN)*%
X29720552Y-87249388D02*
X27410552Y-89559388D01*
X30472552Y-87249388D02*
X29720552Y-87249388D01*
X27410552Y-89559388D02*
X26197552Y-89559388D01*
%TO.N,Board_21-Net-(U1-CAP)*%
X31497552Y-93649388D02*
X31497552Y-89561888D01*
X31497552Y-89561888D02*
X32247552Y-88811888D01*
X31347552Y-93799388D02*
X31497552Y-93649388D01*
%TO.N,Board_21-Net-(U1-ENV_SCL)*%
X35247552Y-93389388D02*
X35657552Y-93799388D01*
X35247552Y-88811888D02*
X35247552Y-93389388D01*
%TO.N,Board_21-Net-(U1-ENV_SDA)*%
X39057552Y-87749388D02*
X39797552Y-88489388D01*
X35522552Y-87749388D02*
X39057552Y-87749388D01*
%TO.N,Board_21-SCL*%
X35522552Y-86249388D02*
X37397552Y-86249388D01*
X39057552Y-86249388D02*
X39797552Y-85509388D01*
X37397552Y-86249388D02*
X39057552Y-86249388D01*
%TO.N,Board_21-SDA*%
X35247552Y-85186888D02*
X35247552Y-83999388D01*
X35247552Y-83999388D02*
X35797552Y-83449388D01*
X34637552Y-80199388D02*
X33397552Y-80199388D01*
X33397552Y-80199388D02*
X32997552Y-79799388D01*
%TO.N,Board_21-XIN32*%
X31947552Y-82399388D02*
X32397552Y-82849388D01*
X31747552Y-83499388D02*
X31747552Y-85186888D01*
X31327552Y-82399388D02*
X31947552Y-82399388D01*
X32397552Y-82849388D02*
X31747552Y-83499388D01*
%TO.N,Board_22-+3.3V*%
X53657552Y-80349388D02*
X55627552Y-82319388D01*
X44197552Y-86599388D02*
X43797552Y-86999388D01*
X52297552Y-93459388D02*
X52637552Y-93799388D01*
X43797552Y-86149388D02*
X43797552Y-86999388D01*
X55627552Y-82319388D02*
X57797552Y-84489388D01*
X46897552Y-83049388D02*
X46422552Y-83524388D01*
X48499943Y-83499388D02*
X48049943Y-83049388D01*
X44197552Y-87399388D02*
X43797552Y-86999388D01*
X53657552Y-80199388D02*
X53657552Y-80349388D01*
X52297552Y-92449388D02*
X52297552Y-93459388D01*
X49247552Y-85186888D02*
X49247552Y-83549388D01*
X44197552Y-85479388D02*
X44197552Y-86599388D01*
X48367552Y-80199388D02*
X47947552Y-80199388D01*
X57797552Y-89799388D02*
X55597552Y-91999388D01*
X43797552Y-86999388D02*
X44047552Y-86749388D01*
X44047552Y-86749388D02*
X48472552Y-86749388D01*
X45997857Y-84224388D02*
X45722552Y-84224388D01*
X45722552Y-84224388D02*
X43797552Y-86149388D01*
X46422552Y-83799693D02*
X45997857Y-84224388D01*
X44197552Y-88539388D02*
X44197552Y-87399388D01*
X51447552Y-91599388D02*
X52297552Y-92449388D01*
X50547552Y-91599388D02*
X51447552Y-91599388D01*
X57797552Y-89509388D02*
X57797552Y-89799388D01*
X46422552Y-83524388D02*
X46422552Y-83799693D01*
X48049943Y-83049388D02*
X46897552Y-83049388D01*
X49247552Y-83549388D02*
X49197552Y-83499388D01*
X49197552Y-83499388D02*
X48499943Y-83499388D01*
X47947552Y-80199388D02*
X46847552Y-81299388D01*
%TO.N,Board_22-CLKSEL0*%
X53772552Y-86999388D02*
X53522552Y-87249388D01*
X49327552Y-80199388D02*
X49327552Y-81431779D01*
X48387552Y-93799388D02*
X48747552Y-93439388D01*
X47622552Y-85399388D02*
X48472552Y-86249388D01*
X48747552Y-90549388D02*
X48747552Y-88811888D01*
X48367552Y-82399388D02*
X46797552Y-82399388D01*
X52097552Y-87249388D02*
X53522552Y-87249388D01*
X53627552Y-82406997D02*
X50847661Y-85186888D01*
X50747552Y-88811888D02*
X50747552Y-88599388D01*
X44677552Y-84519388D02*
X45697552Y-83499388D01*
X49327552Y-81431779D02*
X48367552Y-82391779D01*
X53627552Y-82399388D02*
X53627552Y-82406997D01*
X48747552Y-93439388D02*
X48747552Y-90549388D01*
X46397552Y-85399388D02*
X47622552Y-85399388D01*
X50747552Y-88599388D02*
X52097552Y-87249388D01*
X44197552Y-84519388D02*
X44677552Y-84519388D01*
X48472552Y-87749388D02*
X48472552Y-88536888D01*
X46797552Y-82399388D02*
X45697552Y-83499388D01*
X48367552Y-82391779D02*
X48367552Y-82399388D01*
X52810052Y-87249388D02*
X53522552Y-87249388D01*
X50747552Y-85186888D02*
X52810052Y-87249388D01*
X58197552Y-86999388D02*
X53772552Y-86999388D01*
X48472552Y-88536888D02*
X48747552Y-88811888D01*
X50847661Y-85186888D02*
X50747552Y-85186888D01*
%TO.N,Board_22-CLKSEL1*%
X52667552Y-82399388D02*
X52047552Y-82399388D01*
X51597552Y-82849388D02*
X51597552Y-83199388D01*
X50247552Y-84549388D02*
X50247552Y-85186888D01*
X52047552Y-82399388D02*
X51597552Y-82849388D01*
X51597552Y-83199388D02*
X50247552Y-84549388D01*
%TO.N,Board_22-Net-(U1-BOOTN)*%
X45410552Y-89559388D02*
X44197552Y-89559388D01*
X48472552Y-87249388D02*
X47720552Y-87249388D01*
X47720552Y-87249388D02*
X45410552Y-89559388D01*
%TO.N,Board_22-Net-(U1-CAP)*%
X49347552Y-93799388D02*
X49497552Y-93649388D01*
X49497552Y-93649388D02*
X49497552Y-89561888D01*
X49497552Y-89561888D02*
X50247552Y-88811888D01*
%TO.N,Board_22-Net-(U1-ENV_SCL)*%
X53247552Y-88811888D02*
X53247552Y-93389388D01*
X53247552Y-93389388D02*
X53657552Y-93799388D01*
%TO.N,Board_22-Net-(U1-ENV_SDA)*%
X53522552Y-87749388D02*
X57057552Y-87749388D01*
X57057552Y-87749388D02*
X57797552Y-88489388D01*
%TO.N,Board_22-SCL*%
X55397552Y-86249388D02*
X57057552Y-86249388D01*
X53522552Y-86249388D02*
X55397552Y-86249388D01*
X57057552Y-86249388D02*
X57797552Y-85509388D01*
%TO.N,Board_22-SDA*%
X53247552Y-83999388D02*
X53797552Y-83449388D01*
X52637552Y-80199388D02*
X51397552Y-80199388D01*
X53247552Y-85186888D02*
X53247552Y-83999388D01*
X51397552Y-80199388D02*
X50997552Y-79799388D01*
%TO.N,Board_22-XIN32*%
X50397552Y-82849388D02*
X49747552Y-83499388D01*
X49947552Y-82399388D02*
X50397552Y-82849388D01*
X49327552Y-82399388D02*
X49947552Y-82399388D01*
X49747552Y-83499388D02*
X49747552Y-85186888D01*
%TO.N,Board_23-+3.3V*%
X62197552Y-87399388D02*
X61797552Y-86999388D01*
X65947552Y-80199388D02*
X64847552Y-81299388D01*
X64422552Y-83524388D02*
X64422552Y-83799693D01*
X66367552Y-80199388D02*
X65947552Y-80199388D01*
X67197552Y-83499388D02*
X66499943Y-83499388D01*
X71657552Y-80199388D02*
X71657552Y-80349388D01*
X70297552Y-93459388D02*
X70637552Y-93799388D01*
X66499943Y-83499388D02*
X66049943Y-83049388D01*
X62047552Y-86749388D02*
X66472552Y-86749388D01*
X64422552Y-83799693D02*
X63997857Y-84224388D01*
X68547552Y-91599388D02*
X69447552Y-91599388D01*
X75797552Y-89509388D02*
X75797552Y-89799388D01*
X62197552Y-86599388D02*
X61797552Y-86999388D01*
X71657552Y-80349388D02*
X73627552Y-82319388D01*
X64897552Y-83049388D02*
X64422552Y-83524388D01*
X75797552Y-89799388D02*
X73597552Y-91999388D01*
X61797552Y-86999388D02*
X62047552Y-86749388D01*
X73627552Y-82319388D02*
X75797552Y-84489388D01*
X66049943Y-83049388D02*
X64897552Y-83049388D01*
X67247552Y-85186888D02*
X67247552Y-83549388D01*
X62197552Y-85479388D02*
X62197552Y-86599388D01*
X63997857Y-84224388D02*
X63722552Y-84224388D01*
X69447552Y-91599388D02*
X70297552Y-92449388D01*
X70297552Y-92449388D02*
X70297552Y-93459388D01*
X62197552Y-88539388D02*
X62197552Y-87399388D01*
X61797552Y-86149388D02*
X61797552Y-86999388D01*
X67247552Y-83549388D02*
X67197552Y-83499388D01*
X63722552Y-84224388D02*
X61797552Y-86149388D01*
%TO.N,Board_23-CLKSEL0*%
X71627552Y-82406997D02*
X68847661Y-85186888D01*
X62197552Y-84519388D02*
X62677552Y-84519388D01*
X67327552Y-81431779D02*
X66367552Y-82391779D01*
X70810052Y-87249388D02*
X71522552Y-87249388D01*
X64397552Y-85399388D02*
X65622552Y-85399388D01*
X68847661Y-85186888D02*
X68747552Y-85186888D01*
X66472552Y-87749388D02*
X66472552Y-88536888D01*
X65622552Y-85399388D02*
X66472552Y-86249388D01*
X66367552Y-82399388D02*
X64797552Y-82399388D01*
X66472552Y-88536888D02*
X66747552Y-88811888D01*
X68747552Y-88599388D02*
X70097552Y-87249388D01*
X68747552Y-85186888D02*
X70810052Y-87249388D01*
X71627552Y-82399388D02*
X71627552Y-82406997D01*
X71772552Y-86999388D02*
X71522552Y-87249388D01*
X64797552Y-82399388D02*
X63697552Y-83499388D01*
X62677552Y-84519388D02*
X63697552Y-83499388D01*
X66747552Y-90549388D02*
X66747552Y-88811888D01*
X76197552Y-86999388D02*
X71772552Y-86999388D01*
X66367552Y-82391779D02*
X66367552Y-82399388D01*
X66747552Y-93439388D02*
X66747552Y-90549388D01*
X66387552Y-93799388D02*
X66747552Y-93439388D01*
X70097552Y-87249388D02*
X71522552Y-87249388D01*
X68747552Y-88811888D02*
X68747552Y-88599388D01*
X67327552Y-80199388D02*
X67327552Y-81431779D01*
%TO.N,Board_23-CLKSEL1*%
X68247552Y-84549388D02*
X68247552Y-85186888D01*
X70047552Y-82399388D02*
X69597552Y-82849388D01*
X69597552Y-83199388D02*
X68247552Y-84549388D01*
X70667552Y-82399388D02*
X70047552Y-82399388D01*
X69597552Y-82849388D02*
X69597552Y-83199388D01*
%TO.N,Board_23-Net-(U1-BOOTN)*%
X66472552Y-87249388D02*
X65720552Y-87249388D01*
X65720552Y-87249388D02*
X63410552Y-89559388D01*
X63410552Y-89559388D02*
X62197552Y-89559388D01*
%TO.N,Board_23-Net-(U1-CAP)*%
X67497552Y-93649388D02*
X67497552Y-89561888D01*
X67347552Y-93799388D02*
X67497552Y-93649388D01*
X67497552Y-89561888D02*
X68247552Y-88811888D01*
%TO.N,Board_23-Net-(U1-ENV_SCL)*%
X71247552Y-93389388D02*
X71657552Y-93799388D01*
X71247552Y-88811888D02*
X71247552Y-93389388D01*
%TO.N,Board_23-Net-(U1-ENV_SDA)*%
X71522552Y-87749388D02*
X75057552Y-87749388D01*
X75057552Y-87749388D02*
X75797552Y-88489388D01*
%TO.N,Board_23-SCL*%
X75057552Y-86249388D02*
X75797552Y-85509388D01*
X71522552Y-86249388D02*
X73397552Y-86249388D01*
X73397552Y-86249388D02*
X75057552Y-86249388D01*
%TO.N,Board_23-SDA*%
X71247552Y-83999388D02*
X71797552Y-83449388D01*
X71247552Y-85186888D02*
X71247552Y-83999388D01*
X70637552Y-80199388D02*
X69397552Y-80199388D01*
X69397552Y-80199388D02*
X68997552Y-79799388D01*
%TO.N,Board_23-XIN32*%
X67327552Y-82399388D02*
X67947552Y-82399388D01*
X68397552Y-82849388D02*
X67747552Y-83499388D01*
X67747552Y-83499388D02*
X67747552Y-85186888D01*
X67947552Y-82399388D02*
X68397552Y-82849388D01*
%TO.N,Board_24-+3.3V*%
X85247552Y-83549388D02*
X85197552Y-83499388D01*
X91627552Y-82319388D02*
X93797552Y-84489388D01*
X89657552Y-80199388D02*
X89657552Y-80349388D01*
X82422552Y-83799693D02*
X81997857Y-84224388D01*
X86547552Y-91599388D02*
X87447552Y-91599388D01*
X84499943Y-83499388D02*
X84049943Y-83049388D01*
X80197552Y-86599388D02*
X79797552Y-86999388D01*
X93797552Y-89509388D02*
X93797552Y-89799388D01*
X85197552Y-83499388D02*
X84499943Y-83499388D01*
X83947552Y-80199388D02*
X82847552Y-81299388D01*
X87447552Y-91599388D02*
X88297552Y-92449388D01*
X80197552Y-87399388D02*
X79797552Y-86999388D01*
X88297552Y-92449388D02*
X88297552Y-93459388D01*
X80047552Y-86749388D02*
X84472552Y-86749388D01*
X80197552Y-85479388D02*
X80197552Y-86599388D01*
X81997857Y-84224388D02*
X81722552Y-84224388D01*
X84367552Y-80199388D02*
X83947552Y-80199388D01*
X82422552Y-83524388D02*
X82422552Y-83799693D01*
X79797552Y-86149388D02*
X79797552Y-86999388D01*
X84049943Y-83049388D02*
X82897552Y-83049388D01*
X88297552Y-93459388D02*
X88637552Y-93799388D01*
X79797552Y-86999388D02*
X80047552Y-86749388D01*
X93797552Y-89799388D02*
X91597552Y-91999388D01*
X81722552Y-84224388D02*
X79797552Y-86149388D01*
X80197552Y-88539388D02*
X80197552Y-87399388D01*
X82897552Y-83049388D02*
X82422552Y-83524388D01*
X85247552Y-85186888D02*
X85247552Y-83549388D01*
X89657552Y-80349388D02*
X91627552Y-82319388D01*
%TO.N,Board_24-CLKSEL0*%
X84387552Y-93799388D02*
X84747552Y-93439388D01*
X80197552Y-84519388D02*
X80677552Y-84519388D01*
X85327552Y-81431779D02*
X84367552Y-82391779D01*
X86747552Y-88599388D02*
X88097552Y-87249388D01*
X82797552Y-82399388D02*
X81697552Y-83499388D01*
X89772552Y-86999388D02*
X89522552Y-87249388D01*
X84472552Y-87749388D02*
X84472552Y-88536888D01*
X82397552Y-85399388D02*
X83622552Y-85399388D01*
X86747552Y-88811888D02*
X86747552Y-88599388D01*
X80677552Y-84519388D02*
X81697552Y-83499388D01*
X88810052Y-87249388D02*
X89522552Y-87249388D01*
X89627552Y-82399388D02*
X89627552Y-82406997D01*
X84747552Y-93439388D02*
X84747552Y-90549388D01*
X84472552Y-88536888D02*
X84747552Y-88811888D01*
X84367552Y-82391779D02*
X84367552Y-82399388D01*
X94197552Y-86999388D02*
X89772552Y-86999388D01*
X86847661Y-85186888D02*
X86747552Y-85186888D01*
X83622552Y-85399388D02*
X84472552Y-86249388D01*
X84747552Y-90549388D02*
X84747552Y-88811888D01*
X89627552Y-82406997D02*
X86847661Y-85186888D01*
X84367552Y-82399388D02*
X82797552Y-82399388D01*
X85327552Y-80199388D02*
X85327552Y-81431779D01*
X86747552Y-85186888D02*
X88810052Y-87249388D01*
X88097552Y-87249388D02*
X89522552Y-87249388D01*
%TO.N,Board_24-CLKSEL1*%
X88047552Y-82399388D02*
X87597552Y-82849388D01*
X87597552Y-83199388D02*
X86247552Y-84549388D01*
X86247552Y-84549388D02*
X86247552Y-85186888D01*
X88667552Y-82399388D02*
X88047552Y-82399388D01*
X87597552Y-82849388D02*
X87597552Y-83199388D01*
%TO.N,Board_24-Net-(U1-BOOTN)*%
X83720552Y-87249388D02*
X81410552Y-89559388D01*
X84472552Y-87249388D02*
X83720552Y-87249388D01*
X81410552Y-89559388D02*
X80197552Y-89559388D01*
%TO.N,Board_24-Net-(U1-CAP)*%
X85347552Y-93799388D02*
X85497552Y-93649388D01*
X85497552Y-89561888D02*
X86247552Y-88811888D01*
X85497552Y-93649388D02*
X85497552Y-89561888D01*
%TO.N,Board_24-Net-(U1-ENV_SCL)*%
X89247552Y-88811888D02*
X89247552Y-93389388D01*
X89247552Y-93389388D02*
X89657552Y-93799388D01*
%TO.N,Board_24-Net-(U1-ENV_SDA)*%
X89522552Y-87749388D02*
X93057552Y-87749388D01*
X93057552Y-87749388D02*
X93797552Y-88489388D01*
%TO.N,Board_24-SCL*%
X93057552Y-86249388D02*
X93797552Y-85509388D01*
X89522552Y-86249388D02*
X91397552Y-86249388D01*
X91397552Y-86249388D02*
X93057552Y-86249388D01*
%TO.N,Board_24-SDA*%
X89247552Y-85186888D02*
X89247552Y-83999388D01*
X88637552Y-80199388D02*
X87397552Y-80199388D01*
X87397552Y-80199388D02*
X86997552Y-79799388D01*
X89247552Y-83999388D02*
X89797552Y-83449388D01*
%TO.N,Board_24-XIN32*%
X86397552Y-82849388D02*
X85747552Y-83499388D01*
X85947552Y-82399388D02*
X86397552Y-82849388D01*
X85747552Y-83499388D02*
X85747552Y-85186888D01*
X85327552Y-82399388D02*
X85947552Y-82399388D01*
%TD*%
M02*
