%TF.GenerationSoftware,KiCad,Pcbnew,7.0.7-7.0.7~ubuntu20.04.1*%
%TF.CreationDate,2023-08-22T16:04:55-04:00*%
%TF.ProjectId,bno08x-i2c-board-v6-large-crystal-panel,626e6f30-3878-42d6-9932-632d626f6172,rev?*%
%TF.SameCoordinates,Original*%
%TF.FileFunction,Copper,L2,Bot*%
%TF.FilePolarity,Positive*%
%FSLAX46Y46*%
G04 Gerber Fmt 4.6, Leading zero omitted, Abs format (unit mm)*
G04 Created by KiCad (PCBNEW 7.0.7-7.0.7~ubuntu20.04.1) date 2023-08-22 16:04:55*
%MOMM*%
%LPD*%
G01*
G04 APERTURE LIST*
%TA.AperFunction,ComponentPad*%
%ADD10R,0.850000X0.850000*%
%TD*%
%TA.AperFunction,SMDPad,CuDef*%
%ADD11C,4.000000*%
%TD*%
%TA.AperFunction,ViaPad*%
%ADD12C,0.800000*%
%TD*%
%TA.AperFunction,Conductor*%
%ADD13C,0.250000*%
%TD*%
G04 APERTURE END LIST*
D10*
%TO.P,J4,1,Pin_1*%
%TO.N,Board_12-CLKSEL0*%
X58197552Y-50999388D03*
%TD*%
%TO.P,J2,1,Pin_1*%
%TO.N,Board_13-SDA*%
X68997552Y-43799388D03*
%TD*%
%TO.P,J4,1,Pin_1*%
%TO.N,Board_5-CLKSEL0*%
X22197552Y-32999388D03*
%TD*%
%TO.P,J3,1,Pin_1*%
%TO.N,Board_16-+3.3V*%
X25797552Y-68999388D03*
%TD*%
%TO.P,J2,1,Pin_1*%
%TO.N,Board_10-SDA*%
X14997552Y-43799388D03*
%TD*%
%TO.P,J2,1,Pin_1*%
%TO.N,Board_24-SDA*%
X86997552Y-79799388D03*
%TD*%
%TO.P,J1,1,Pin_1*%
%TO.N,Board_16-SCL*%
X32997552Y-76199388D03*
%TD*%
%TO.P,J3,1,Pin_1*%
%TO.N,Board_7-+3.3V*%
X43797552Y-32999388D03*
%TD*%
%TO.P,J4,1,Pin_1*%
%TO.N,Board_20-CLKSEL0*%
X22197552Y-86999388D03*
%TD*%
%TO.P,J4,1,Pin_1*%
%TO.N,Board_3-CLKSEL0*%
X76197552Y-14999388D03*
%TD*%
%TO.P,J4,1,Pin_1*%
%TO.N,Board_8-CLKSEL0*%
X76197552Y-32999388D03*
%TD*%
%TO.P,J3,1,Pin_1*%
%TO.N,Board_11-+3.3V*%
X25797552Y-50999388D03*
%TD*%
%TO.P,J4,1,Pin_1*%
%TO.N,Board_6-CLKSEL0*%
X40197552Y-32999388D03*
%TD*%
%TO.P,J3,1,Pin_1*%
%TO.N,Board_15-+3.3V*%
X7797552Y-68999388D03*
%TD*%
%TO.P,J3,1,Pin_1*%
%TO.N,Board_4-+3.3V*%
X79797552Y-14999388D03*
%TD*%
%TO.P,J4,1,Pin_1*%
%TO.N,Board_11-CLKSEL0*%
X40197552Y-50999388D03*
%TD*%
%TO.P,J4,1,Pin_1*%
%TO.N,Board_14-CLKSEL0*%
X94197552Y-50999388D03*
%TD*%
%TO.P,J3,1,Pin_1*%
%TO.N,Board_9-+3.3V*%
X79797552Y-32999388D03*
%TD*%
%TO.P,J3,1,Pin_1*%
%TO.N,Board_17-+3.3V*%
X43797552Y-68999388D03*
%TD*%
%TO.P,J4,1,Pin_1*%
%TO.N,Board_4-CLKSEL0*%
X94197552Y-14999388D03*
%TD*%
%TO.P,J2,1,Pin_1*%
%TO.N,Board_0-SDA*%
X14997552Y-7799388D03*
%TD*%
%TO.P,J3,1,Pin_1*%
%TO.N,Board_3-+3.3V*%
X61797552Y-14999388D03*
%TD*%
%TO.P,J2,1,Pin_1*%
%TO.N,Board_22-SDA*%
X50997552Y-79799388D03*
%TD*%
%TO.P,J4,1,Pin_1*%
%TO.N,Board_21-CLKSEL0*%
X40197552Y-86999388D03*
%TD*%
%TO.P,J2,1,Pin_1*%
%TO.N,Board_7-SDA*%
X50997552Y-25799388D03*
%TD*%
%TO.P,J4,1,Pin_1*%
%TO.N,Board_0-CLKSEL0*%
X22197552Y-14999388D03*
%TD*%
%TO.P,J3,1,Pin_1*%
%TO.N,Board_8-+3.3V*%
X61797552Y-32999388D03*
%TD*%
%TO.P,J4,1,Pin_1*%
%TO.N,Board_24-CLKSEL0*%
X94197552Y-86999388D03*
%TD*%
%TO.P,J1,1,Pin_1*%
%TO.N,Board_22-SCL*%
X50997552Y-94199388D03*
%TD*%
%TO.P,J4,1,Pin_1*%
%TO.N,Board_15-CLKSEL0*%
X22197552Y-68999388D03*
%TD*%
%TO.P,J3,1,Pin_1*%
%TO.N,Board_2-+3.3V*%
X43797552Y-14999388D03*
%TD*%
%TO.P,J2,1,Pin_1*%
%TO.N,Board_6-SDA*%
X32997552Y-25799388D03*
%TD*%
%TO.P,J4,1,Pin_1*%
%TO.N,Board_9-CLKSEL0*%
X94197552Y-32999388D03*
%TD*%
%TO.P,J2,1,Pin_1*%
%TO.N,Board_5-SDA*%
X14997552Y-25799388D03*
%TD*%
%TO.P,J1,1,Pin_1*%
%TO.N,Board_13-SCL*%
X68997552Y-58199388D03*
%TD*%
%TO.P,J1,1,Pin_1*%
%TO.N,Board_18-SCL*%
X68997552Y-76199388D03*
%TD*%
%TO.P,J2,1,Pin_1*%
%TO.N,Board_14-SDA*%
X86997552Y-43799388D03*
%TD*%
%TO.P,J1,1,Pin_1*%
%TO.N,Board_3-SCL*%
X68997552Y-22199388D03*
%TD*%
%TO.P,J3,1,Pin_1*%
%TO.N,Board_22-+3.3V*%
X43797552Y-86999388D03*
%TD*%
%TO.P,J1,1,Pin_1*%
%TO.N,Board_10-SCL*%
X14997552Y-58199388D03*
%TD*%
%TO.P,J3,1,Pin_1*%
%TO.N,Board_13-+3.3V*%
X61797552Y-50999388D03*
%TD*%
%TO.P,J3,1,Pin_1*%
%TO.N,Board_21-+3.3V*%
X25797552Y-86999388D03*
%TD*%
%TO.P,J1,1,Pin_1*%
%TO.N,Board_9-SCL*%
X86997552Y-40199388D03*
%TD*%
%TO.P,J1,1,Pin_1*%
%TO.N,Board_7-SCL*%
X50997552Y-40199388D03*
%TD*%
%TO.P,J1,1,Pin_1*%
%TO.N,Board_23-SCL*%
X68997552Y-94199388D03*
%TD*%
%TO.P,J4,1,Pin_1*%
%TO.N,Board_13-CLKSEL0*%
X76197552Y-50999388D03*
%TD*%
%TO.P,J4,1,Pin_1*%
%TO.N,Board_2-CLKSEL0*%
X58197552Y-14999388D03*
%TD*%
%TO.P,J4,1,Pin_1*%
%TO.N,Board_16-CLKSEL0*%
X40197552Y-68999388D03*
%TD*%
%TO.P,J3,1,Pin_1*%
%TO.N,Board_6-+3.3V*%
X25797552Y-32999388D03*
%TD*%
%TO.P,J3,1,Pin_1*%
%TO.N,Board_19-+3.3V*%
X79797552Y-68999388D03*
%TD*%
%TO.P,J2,1,Pin_1*%
%TO.N,Board_19-SDA*%
X86997552Y-61799388D03*
%TD*%
%TO.P,J1,1,Pin_1*%
%TO.N,Board_2-SCL*%
X50997552Y-22199388D03*
%TD*%
%TO.P,J2,1,Pin_1*%
%TO.N,Board_11-SDA*%
X32997552Y-43799388D03*
%TD*%
%TO.P,J1,1,Pin_1*%
%TO.N,Board_21-SCL*%
X32997552Y-94199388D03*
%TD*%
%TO.P,J3,1,Pin_1*%
%TO.N,Board_10-+3.3V*%
X7797552Y-50999388D03*
%TD*%
%TO.P,J2,1,Pin_1*%
%TO.N,Board_18-SDA*%
X68997552Y-61799388D03*
%TD*%
%TO.P,J2,1,Pin_1*%
%TO.N,Board_20-SDA*%
X14997552Y-79799388D03*
%TD*%
%TO.P,J3,1,Pin_1*%
%TO.N,Board_12-+3.3V*%
X43797552Y-50999388D03*
%TD*%
%TO.P,J1,1,Pin_1*%
%TO.N,Board_19-SCL*%
X86997552Y-76199388D03*
%TD*%
%TO.P,J2,1,Pin_1*%
%TO.N,Board_8-SDA*%
X68997552Y-25799388D03*
%TD*%
%TO.P,J4,1,Pin_1*%
%TO.N,Board_18-CLKSEL0*%
X76197552Y-68999388D03*
%TD*%
%TO.P,J2,1,Pin_1*%
%TO.N,Board_4-SDA*%
X86997552Y-7799388D03*
%TD*%
%TO.P,J2,1,Pin_1*%
%TO.N,Board_15-SDA*%
X14997552Y-61799388D03*
%TD*%
%TO.P,J1,1,Pin_1*%
%TO.N,Board_15-SCL*%
X14997552Y-76199388D03*
%TD*%
%TO.P,J4,1,Pin_1*%
%TO.N,Board_23-CLKSEL0*%
X76197552Y-86999388D03*
%TD*%
%TO.P,J1,1,Pin_1*%
%TO.N,Board_12-SCL*%
X50997552Y-58199388D03*
%TD*%
%TO.P,J1,1,Pin_1*%
%TO.N,Board_5-SCL*%
X14997552Y-40199388D03*
%TD*%
%TO.P,J3,1,Pin_1*%
%TO.N,Board_0-+3.3V*%
X7797552Y-14999388D03*
%TD*%
%TO.P,J3,1,Pin_1*%
%TO.N,Board_18-+3.3V*%
X61797552Y-68999388D03*
%TD*%
%TO.P,J1,1,Pin_1*%
%TO.N,Board_1-SCL*%
X32997552Y-22199388D03*
%TD*%
%TO.P,J1,1,Pin_1*%
%TO.N,Board_24-SCL*%
X86997552Y-94199388D03*
%TD*%
%TO.P,J1,1,Pin_1*%
%TO.N,Board_17-SCL*%
X50997552Y-76199388D03*
%TD*%
%TO.P,J2,1,Pin_1*%
%TO.N,Board_2-SDA*%
X50997552Y-7799388D03*
%TD*%
%TO.P,J1,1,Pin_1*%
%TO.N,Board_20-SCL*%
X14997552Y-94199388D03*
%TD*%
%TO.P,J1,1,Pin_1*%
%TO.N,Board_4-SCL*%
X86997552Y-22199388D03*
%TD*%
%TO.P,J4,1,Pin_1*%
%TO.N,Board_19-CLKSEL0*%
X94197552Y-68999388D03*
%TD*%
%TO.P,J2,1,Pin_1*%
%TO.N,Board_1-SDA*%
X32997552Y-7799388D03*
%TD*%
%TO.P,J2,1,Pin_1*%
%TO.N,Board_12-SDA*%
X50997552Y-43799388D03*
%TD*%
%TO.P,J3,1,Pin_1*%
%TO.N,Board_24-+3.3V*%
X79797552Y-86999388D03*
%TD*%
%TO.P,J2,1,Pin_1*%
%TO.N,Board_9-SDA*%
X86997552Y-25799388D03*
%TD*%
%TO.P,J4,1,Pin_1*%
%TO.N,Board_17-CLKSEL0*%
X58197552Y-68999388D03*
%TD*%
%TO.P,J2,1,Pin_1*%
%TO.N,Board_21-SDA*%
X32997552Y-79799388D03*
%TD*%
%TO.P,J4,1,Pin_1*%
%TO.N,Board_22-CLKSEL0*%
X58197552Y-86999388D03*
%TD*%
%TO.P,J3,1,Pin_1*%
%TO.N,Board_20-+3.3V*%
X7797552Y-86999388D03*
%TD*%
%TO.P,J3,1,Pin_1*%
%TO.N,Board_23-+3.3V*%
X61797552Y-86999388D03*
%TD*%
%TO.P,J3,1,Pin_1*%
%TO.N,Board_14-+3.3V*%
X79797552Y-50999388D03*
%TD*%
%TO.P,J4,1,Pin_1*%
%TO.N,Board_10-CLKSEL0*%
X22197552Y-50999388D03*
%TD*%
%TO.P,J1,1,Pin_1*%
%TO.N,Board_0-SCL*%
X14997552Y-22199388D03*
%TD*%
%TO.P,J2,1,Pin_1*%
%TO.N,Board_23-SDA*%
X68997552Y-79799388D03*
%TD*%
%TO.P,J2,1,Pin_1*%
%TO.N,Board_3-SDA*%
X68997552Y-7799388D03*
%TD*%
%TO.P,J1,1,Pin_1*%
%TO.N,Board_6-SCL*%
X32997552Y-40199388D03*
%TD*%
%TO.P,J1,1,Pin_1*%
%TO.N,Board_14-SCL*%
X86997552Y-58199388D03*
%TD*%
%TO.P,J4,1,Pin_1*%
%TO.N,Board_1-CLKSEL0*%
X40197552Y-14999388D03*
%TD*%
%TO.P,J3,1,Pin_1*%
%TO.N,Board_1-+3.3V*%
X25797552Y-14999388D03*
%TD*%
%TO.P,J2,1,Pin_1*%
%TO.N,Board_17-SDA*%
X50997552Y-61799388D03*
%TD*%
%TO.P,J4,1,Pin_1*%
%TO.N,Board_7-CLKSEL0*%
X58197552Y-32999388D03*
%TD*%
%TO.P,J3,1,Pin_1*%
%TO.N,Board_5-+3.3V*%
X7797552Y-32999388D03*
%TD*%
%TO.P,J2,1,Pin_1*%
%TO.N,Board_16-SDA*%
X32997552Y-61799388D03*
%TD*%
%TO.P,J1,1,Pin_1*%
%TO.N,Board_8-SCL*%
X68997552Y-40199388D03*
%TD*%
%TO.P,J1,1,Pin_1*%
%TO.N,Board_11-SCL*%
X32997552Y-58199388D03*
%TD*%
D11*
%TO.P,REF\u002A\u002A,*%
%TO.N,*%
X2500000Y-2500000D03*
%TD*%
%TO.P,REF\u002A\u002A,*%
%TO.N,*%
X99497552Y-2500000D03*
%TD*%
%TO.P,REF\u002A\u002A,*%
%TO.N,*%
X2500000Y-99498776D03*
%TD*%
D12*
%TO.N,Board_0-+3.3V*%
X16297552Y-20449388D03*
X14547552Y-19599388D03*
X19597552Y-19999388D03*
X10847552Y-9299388D03*
X19627552Y-10319388D03*
%TO.N,Board_0-CLKSEL0*%
X12747552Y-18549388D03*
X10397552Y-13399388D03*
X9697552Y-11499388D03*
%TO.N,Board_0-SCL*%
X19397552Y-14249388D03*
%TO.N,Board_0-SDA*%
X17797552Y-11449388D03*
%TO.N,Board_1-+3.3V*%
X37627552Y-10319388D03*
X37597552Y-19999388D03*
X32547552Y-19599388D03*
X28847552Y-9299388D03*
X34297552Y-20449388D03*
%TO.N,Board_1-CLKSEL0*%
X30747552Y-18549388D03*
X28397552Y-13399388D03*
X27697552Y-11499388D03*
%TO.N,Board_1-SCL*%
X37397552Y-14249388D03*
%TO.N,Board_1-SDA*%
X35797552Y-11449388D03*
%TO.N,Board_2-+3.3V*%
X52297552Y-20449388D03*
X46847552Y-9299388D03*
X50547552Y-19599388D03*
X55597552Y-19999388D03*
X55627552Y-10319388D03*
%TO.N,Board_2-CLKSEL0*%
X48747552Y-18549388D03*
X46397552Y-13399388D03*
X45697552Y-11499388D03*
%TO.N,Board_2-SCL*%
X55397552Y-14249388D03*
%TO.N,Board_2-SDA*%
X53797552Y-11449388D03*
%TO.N,Board_3-+3.3V*%
X64847552Y-9299388D03*
X70297552Y-20449388D03*
X68547552Y-19599388D03*
X73597552Y-19999388D03*
X73627552Y-10319388D03*
%TO.N,Board_3-CLKSEL0*%
X64397552Y-13399388D03*
X63697552Y-11499388D03*
X66747552Y-18549388D03*
%TO.N,Board_3-SCL*%
X73397552Y-14249388D03*
%TO.N,Board_3-SDA*%
X71797552Y-11449388D03*
%TO.N,Board_4-+3.3V*%
X91627552Y-10319388D03*
X82847552Y-9299388D03*
X86547552Y-19599388D03*
X91597552Y-19999388D03*
X88297552Y-20449388D03*
%TO.N,Board_4-CLKSEL0*%
X84747552Y-18549388D03*
X82397552Y-13399388D03*
X81697552Y-11499388D03*
%TO.N,Board_4-SCL*%
X91397552Y-14249388D03*
%TO.N,Board_4-SDA*%
X89797552Y-11449388D03*
%TO.N,Board_5-+3.3V*%
X14547552Y-37599388D03*
X10847552Y-27299388D03*
X19597552Y-37999388D03*
X16297552Y-38449388D03*
X19627552Y-28319388D03*
%TO.N,Board_5-CLKSEL0*%
X9697552Y-29499388D03*
X12747552Y-36549388D03*
X10397552Y-31399388D03*
%TO.N,Board_5-SCL*%
X19397552Y-32249388D03*
%TO.N,Board_5-SDA*%
X17797552Y-29449388D03*
%TO.N,Board_6-+3.3V*%
X34297552Y-38449388D03*
X37597552Y-37999388D03*
X28847552Y-27299388D03*
X37627552Y-28319388D03*
X32547552Y-37599388D03*
%TO.N,Board_6-CLKSEL0*%
X28397552Y-31399388D03*
X30747552Y-36549388D03*
X27697552Y-29499388D03*
%TO.N,Board_6-SCL*%
X37397552Y-32249388D03*
%TO.N,Board_6-SDA*%
X35797552Y-29449388D03*
%TO.N,Board_7-+3.3V*%
X55627552Y-28319388D03*
X46847552Y-27299388D03*
X55597552Y-37999388D03*
X50547552Y-37599388D03*
X52297552Y-38449388D03*
%TO.N,Board_7-CLKSEL0*%
X48747552Y-36549388D03*
X45697552Y-29499388D03*
X46397552Y-31399388D03*
%TO.N,Board_7-SCL*%
X55397552Y-32249388D03*
%TO.N,Board_7-SDA*%
X53797552Y-29449388D03*
%TO.N,Board_8-+3.3V*%
X73627552Y-28319388D03*
X73597552Y-37999388D03*
X64847552Y-27299388D03*
X70297552Y-38449388D03*
X68547552Y-37599388D03*
%TO.N,Board_8-CLKSEL0*%
X66747552Y-36549388D03*
X63697552Y-29499388D03*
X64397552Y-31399388D03*
%TO.N,Board_8-SCL*%
X73397552Y-32249388D03*
%TO.N,Board_8-SDA*%
X71797552Y-29449388D03*
%TO.N,Board_9-+3.3V*%
X82847552Y-27299388D03*
X91627552Y-28319388D03*
X86547552Y-37599388D03*
X91597552Y-37999388D03*
X88297552Y-38449388D03*
%TO.N,Board_9-CLKSEL0*%
X84747552Y-36549388D03*
X81697552Y-29499388D03*
X82397552Y-31399388D03*
%TO.N,Board_9-SCL*%
X91397552Y-32249388D03*
%TO.N,Board_9-SDA*%
X89797552Y-29449388D03*
%TO.N,Board_10-+3.3V*%
X19627552Y-46319388D03*
X10847552Y-45299388D03*
X16297552Y-56449388D03*
X14547552Y-55599388D03*
X19597552Y-55999388D03*
%TO.N,Board_10-CLKSEL0*%
X9697552Y-47499388D03*
X12747552Y-54549388D03*
X10397552Y-49399388D03*
%TO.N,Board_10-SCL*%
X19397552Y-50249388D03*
%TO.N,Board_10-SDA*%
X17797552Y-47449388D03*
%TO.N,Board_11-+3.3V*%
X28847552Y-45299388D03*
X34297552Y-56449388D03*
X37627552Y-46319388D03*
X37597552Y-55999388D03*
X32547552Y-55599388D03*
%TO.N,Board_11-CLKSEL0*%
X27697552Y-47499388D03*
X30747552Y-54549388D03*
X28397552Y-49399388D03*
%TO.N,Board_11-SCL*%
X37397552Y-50249388D03*
%TO.N,Board_11-SDA*%
X35797552Y-47449388D03*
%TO.N,Board_12-+3.3V*%
X50547552Y-55599388D03*
X52297552Y-56449388D03*
X55627552Y-46319388D03*
X46847552Y-45299388D03*
X55597552Y-55999388D03*
%TO.N,Board_12-CLKSEL0*%
X46397552Y-49399388D03*
X45697552Y-47499388D03*
X48747552Y-54549388D03*
%TO.N,Board_12-SCL*%
X55397552Y-50249388D03*
%TO.N,Board_12-SDA*%
X53797552Y-47449388D03*
%TO.N,Board_13-+3.3V*%
X64847552Y-45299388D03*
X73597552Y-55999388D03*
X68547552Y-55599388D03*
X73627552Y-46319388D03*
X70297552Y-56449388D03*
%TO.N,Board_13-CLKSEL0*%
X64397552Y-49399388D03*
X63697552Y-47499388D03*
X66747552Y-54549388D03*
%TO.N,Board_13-SCL*%
X73397552Y-50249388D03*
%TO.N,Board_13-SDA*%
X71797552Y-47449388D03*
%TO.N,Board_14-+3.3V*%
X91627552Y-46319388D03*
X86547552Y-55599388D03*
X88297552Y-56449388D03*
X82847552Y-45299388D03*
X91597552Y-55999388D03*
%TO.N,Board_14-CLKSEL0*%
X84747552Y-54549388D03*
X82397552Y-49399388D03*
X81697552Y-47499388D03*
%TO.N,Board_14-SCL*%
X91397552Y-50249388D03*
%TO.N,Board_14-SDA*%
X89797552Y-47449388D03*
%TO.N,Board_15-+3.3V*%
X10847552Y-63299388D03*
X19597552Y-73999388D03*
X16297552Y-74449388D03*
X19627552Y-64319388D03*
X14547552Y-73599388D03*
%TO.N,Board_15-CLKSEL0*%
X9697552Y-65499388D03*
X10397552Y-67399388D03*
X12747552Y-72549388D03*
%TO.N,Board_15-SCL*%
X19397552Y-68249388D03*
%TO.N,Board_15-SDA*%
X17797552Y-65449388D03*
%TO.N,Board_16-+3.3V*%
X32547552Y-73599388D03*
X37627552Y-64319388D03*
X37597552Y-73999388D03*
X34297552Y-74449388D03*
X28847552Y-63299388D03*
%TO.N,Board_16-CLKSEL0*%
X30747552Y-72549388D03*
X27697552Y-65499388D03*
X28397552Y-67399388D03*
%TO.N,Board_16-SCL*%
X37397552Y-68249388D03*
%TO.N,Board_16-SDA*%
X35797552Y-65449388D03*
%TO.N,Board_17-+3.3V*%
X55597552Y-73999388D03*
X46847552Y-63299388D03*
X50547552Y-73599388D03*
X52297552Y-74449388D03*
X55627552Y-64319388D03*
%TO.N,Board_17-CLKSEL0*%
X45697552Y-65499388D03*
X48747552Y-72549388D03*
X46397552Y-67399388D03*
%TO.N,Board_17-SCL*%
X55397552Y-68249388D03*
%TO.N,Board_17-SDA*%
X53797552Y-65449388D03*
%TO.N,Board_18-+3.3V*%
X73627552Y-64319388D03*
X70297552Y-74449388D03*
X68547552Y-73599388D03*
X64847552Y-63299388D03*
X73597552Y-73999388D03*
%TO.N,Board_18-CLKSEL0*%
X64397552Y-67399388D03*
X66747552Y-72549388D03*
X63697552Y-65499388D03*
%TO.N,Board_18-SCL*%
X73397552Y-68249388D03*
%TO.N,Board_18-SDA*%
X71797552Y-65449388D03*
%TO.N,Board_19-+3.3V*%
X82847552Y-63299388D03*
X88297552Y-74449388D03*
X91597552Y-73999388D03*
X86547552Y-73599388D03*
X91627552Y-64319388D03*
%TO.N,Board_19-CLKSEL0*%
X82397552Y-67399388D03*
X81697552Y-65499388D03*
X84747552Y-72549388D03*
%TO.N,Board_19-SCL*%
X91397552Y-68249388D03*
%TO.N,Board_19-SDA*%
X89797552Y-65449388D03*
%TO.N,Board_20-+3.3V*%
X14547552Y-91599388D03*
X10847552Y-81299388D03*
X16297552Y-92449388D03*
X19627552Y-82319388D03*
X19597552Y-91999388D03*
%TO.N,Board_20-CLKSEL0*%
X9697552Y-83499388D03*
X10397552Y-85399388D03*
X12747552Y-90549388D03*
%TO.N,Board_20-SCL*%
X19397552Y-86249388D03*
%TO.N,Board_20-SDA*%
X17797552Y-83449388D03*
%TO.N,Board_21-+3.3V*%
X28847552Y-81299388D03*
X37597552Y-91999388D03*
X37627552Y-82319388D03*
X32547552Y-91599388D03*
X34297552Y-92449388D03*
%TO.N,Board_21-CLKSEL0*%
X28397552Y-85399388D03*
X27697552Y-83499388D03*
X30747552Y-90549388D03*
%TO.N,Board_21-SCL*%
X37397552Y-86249388D03*
%TO.N,Board_21-SDA*%
X35797552Y-83449388D03*
%TO.N,Board_22-+3.3V*%
X46847552Y-81299388D03*
X52297552Y-92449388D03*
X50547552Y-91599388D03*
X55597552Y-91999388D03*
X55627552Y-82319388D03*
%TO.N,Board_22-CLKSEL0*%
X45697552Y-83499388D03*
X48747552Y-90549388D03*
X46397552Y-85399388D03*
%TO.N,Board_22-SCL*%
X55397552Y-86249388D03*
%TO.N,Board_22-SDA*%
X53797552Y-83449388D03*
%TO.N,Board_23-+3.3V*%
X73597552Y-91999388D03*
X73627552Y-82319388D03*
X64847552Y-81299388D03*
X70297552Y-92449388D03*
X68547552Y-91599388D03*
%TO.N,Board_23-CLKSEL0*%
X64397552Y-85399388D03*
X63697552Y-83499388D03*
X66747552Y-90549388D03*
%TO.N,Board_23-SCL*%
X73397552Y-86249388D03*
%TO.N,Board_23-SDA*%
X71797552Y-83449388D03*
%TO.N,Board_24-+3.3V*%
X88297552Y-92449388D03*
X86547552Y-91599388D03*
X91627552Y-82319388D03*
X91597552Y-91999388D03*
X82847552Y-81299388D03*
%TO.N,Board_24-CLKSEL0*%
X81697552Y-83499388D03*
X82397552Y-85399388D03*
X84747552Y-90549388D03*
%TO.N,Board_24-SCL*%
X91397552Y-86249388D03*
%TO.N,Board_24-SDA*%
X89797552Y-83449388D03*
%TD*%
D13*
%TO.N,Board_0-+3.3V*%
X19147552Y-20449388D02*
X16297552Y-20449388D01*
X7797552Y-12349388D02*
X7797552Y-14999388D01*
X18607552Y-9299388D02*
X19627552Y-10319388D01*
X12397552Y-19599388D02*
X14547552Y-19599388D01*
X19597552Y-19999388D02*
X19147552Y-20449388D01*
X7797552Y-14999388D02*
X12397552Y-19599388D01*
X10847552Y-9299388D02*
X7797552Y-12349388D01*
X10847552Y-9299388D02*
X18607552Y-9299388D01*
%TO.N,Board_0-CLKSEL0*%
X17772552Y-13524388D02*
X12747552Y-18549388D01*
X10397552Y-12199388D02*
X9697552Y-11499388D01*
X12747552Y-18549388D02*
X10397552Y-16199388D01*
X10397552Y-16199388D02*
X10397552Y-13399388D01*
X10397552Y-13399388D02*
X10397552Y-12199388D01*
X22197552Y-14999388D02*
X20722552Y-13524388D01*
X20722552Y-13524388D02*
X17772552Y-13524388D01*
%TO.N,Board_0-SCL*%
X15547552Y-21649388D02*
X15547552Y-18099388D01*
X15547552Y-18099388D02*
X19397552Y-14249388D01*
X14997552Y-22199388D02*
X15547552Y-21649388D01*
%TO.N,Board_0-SDA*%
X20397552Y-10574693D02*
X20397552Y-9949388D01*
X20397552Y-9949388D02*
X19147552Y-8699388D01*
X19147552Y-8699388D02*
X15897552Y-8699388D01*
X17797552Y-11449388D02*
X19522857Y-11449388D01*
X19522857Y-11449388D02*
X20397552Y-10574693D01*
X15897552Y-8699388D02*
X14997552Y-7799388D01*
%TO.N,Board_1-+3.3V*%
X36607552Y-9299388D02*
X37627552Y-10319388D01*
X28847552Y-9299388D02*
X25797552Y-12349388D01*
X25797552Y-12349388D02*
X25797552Y-14999388D01*
X28847552Y-9299388D02*
X36607552Y-9299388D01*
X30397552Y-19599388D02*
X32547552Y-19599388D01*
X37147552Y-20449388D02*
X34297552Y-20449388D01*
X25797552Y-14999388D02*
X30397552Y-19599388D01*
X37597552Y-19999388D02*
X37147552Y-20449388D01*
%TO.N,Board_1-CLKSEL0*%
X28397552Y-12199388D02*
X27697552Y-11499388D01*
X40197552Y-14999388D02*
X38722552Y-13524388D01*
X28397552Y-13399388D02*
X28397552Y-12199388D01*
X35772552Y-13524388D02*
X30747552Y-18549388D01*
X38722552Y-13524388D02*
X35772552Y-13524388D01*
X30747552Y-18549388D02*
X28397552Y-16199388D01*
X28397552Y-16199388D02*
X28397552Y-13399388D01*
%TO.N,Board_1-SCL*%
X33547552Y-21649388D02*
X33547552Y-18099388D01*
X33547552Y-18099388D02*
X37397552Y-14249388D01*
X32997552Y-22199388D02*
X33547552Y-21649388D01*
%TO.N,Board_1-SDA*%
X37147552Y-8699388D02*
X33897552Y-8699388D01*
X35797552Y-11449388D02*
X37522857Y-11449388D01*
X38397552Y-9949388D02*
X37147552Y-8699388D01*
X38397552Y-10574693D02*
X38397552Y-9949388D01*
X37522857Y-11449388D02*
X38397552Y-10574693D01*
X33897552Y-8699388D02*
X32997552Y-7799388D01*
%TO.N,Board_2-+3.3V*%
X46847552Y-9299388D02*
X54607552Y-9299388D01*
X43797552Y-12349388D02*
X43797552Y-14999388D01*
X55597552Y-19999388D02*
X55147552Y-20449388D01*
X54607552Y-9299388D02*
X55627552Y-10319388D01*
X48397552Y-19599388D02*
X50547552Y-19599388D01*
X55147552Y-20449388D02*
X52297552Y-20449388D01*
X43797552Y-14999388D02*
X48397552Y-19599388D01*
X46847552Y-9299388D02*
X43797552Y-12349388D01*
%TO.N,Board_2-CLKSEL0*%
X48747552Y-18549388D02*
X46397552Y-16199388D01*
X46397552Y-13399388D02*
X46397552Y-12199388D01*
X46397552Y-12199388D02*
X45697552Y-11499388D01*
X56722552Y-13524388D02*
X53772552Y-13524388D01*
X53772552Y-13524388D02*
X48747552Y-18549388D01*
X58197552Y-14999388D02*
X56722552Y-13524388D01*
X46397552Y-16199388D02*
X46397552Y-13399388D01*
%TO.N,Board_2-SCL*%
X51547552Y-21649388D02*
X51547552Y-18099388D01*
X50997552Y-22199388D02*
X51547552Y-21649388D01*
X51547552Y-18099388D02*
X55397552Y-14249388D01*
%TO.N,Board_2-SDA*%
X53797552Y-11449388D02*
X55522857Y-11449388D01*
X55147552Y-8699388D02*
X51897552Y-8699388D01*
X56397552Y-10574693D02*
X56397552Y-9949388D01*
X51897552Y-8699388D02*
X50997552Y-7799388D01*
X55522857Y-11449388D02*
X56397552Y-10574693D01*
X56397552Y-9949388D02*
X55147552Y-8699388D01*
%TO.N,Board_3-+3.3V*%
X72607552Y-9299388D02*
X73627552Y-10319388D01*
X73147552Y-20449388D02*
X70297552Y-20449388D01*
X64847552Y-9299388D02*
X61797552Y-12349388D01*
X73597552Y-19999388D02*
X73147552Y-20449388D01*
X61797552Y-12349388D02*
X61797552Y-14999388D01*
X61797552Y-14999388D02*
X66397552Y-19599388D01*
X66397552Y-19599388D02*
X68547552Y-19599388D01*
X64847552Y-9299388D02*
X72607552Y-9299388D01*
%TO.N,Board_3-CLKSEL0*%
X64397552Y-12199388D02*
X63697552Y-11499388D01*
X66747552Y-18549388D02*
X64397552Y-16199388D01*
X64397552Y-13399388D02*
X64397552Y-12199388D01*
X74722552Y-13524388D02*
X71772552Y-13524388D01*
X76197552Y-14999388D02*
X74722552Y-13524388D01*
X71772552Y-13524388D02*
X66747552Y-18549388D01*
X64397552Y-16199388D02*
X64397552Y-13399388D01*
%TO.N,Board_3-SCL*%
X69547552Y-18099388D02*
X73397552Y-14249388D01*
X69547552Y-21649388D02*
X69547552Y-18099388D01*
X68997552Y-22199388D02*
X69547552Y-21649388D01*
%TO.N,Board_3-SDA*%
X69897552Y-8699388D02*
X68997552Y-7799388D01*
X74397552Y-10574693D02*
X74397552Y-9949388D01*
X74397552Y-9949388D02*
X73147552Y-8699388D01*
X73522857Y-11449388D02*
X74397552Y-10574693D01*
X71797552Y-11449388D02*
X73522857Y-11449388D01*
X73147552Y-8699388D02*
X69897552Y-8699388D01*
%TO.N,Board_4-+3.3V*%
X91147552Y-20449388D02*
X88297552Y-20449388D01*
X82847552Y-9299388D02*
X90607552Y-9299388D01*
X84397552Y-19599388D02*
X86547552Y-19599388D01*
X90607552Y-9299388D02*
X91627552Y-10319388D01*
X79797552Y-12349388D02*
X79797552Y-14999388D01*
X91597552Y-19999388D02*
X91147552Y-20449388D01*
X82847552Y-9299388D02*
X79797552Y-12349388D01*
X79797552Y-14999388D02*
X84397552Y-19599388D01*
%TO.N,Board_4-CLKSEL0*%
X84747552Y-18549388D02*
X82397552Y-16199388D01*
X89772552Y-13524388D02*
X84747552Y-18549388D01*
X82397552Y-16199388D02*
X82397552Y-13399388D01*
X94197552Y-14999388D02*
X92722552Y-13524388D01*
X92722552Y-13524388D02*
X89772552Y-13524388D01*
X82397552Y-12199388D02*
X81697552Y-11499388D01*
X82397552Y-13399388D02*
X82397552Y-12199388D01*
%TO.N,Board_4-SCL*%
X87547552Y-21649388D02*
X87547552Y-18099388D01*
X86997552Y-22199388D02*
X87547552Y-21649388D01*
X87547552Y-18099388D02*
X91397552Y-14249388D01*
%TO.N,Board_4-SDA*%
X92397552Y-9949388D02*
X91147552Y-8699388D01*
X92397552Y-10574693D02*
X92397552Y-9949388D01*
X87897552Y-8699388D02*
X86997552Y-7799388D01*
X91147552Y-8699388D02*
X87897552Y-8699388D01*
X89797552Y-11449388D02*
X91522857Y-11449388D01*
X91522857Y-11449388D02*
X92397552Y-10574693D01*
%TO.N,Board_5-+3.3V*%
X19147552Y-38449388D02*
X16297552Y-38449388D01*
X7797552Y-32999388D02*
X12397552Y-37599388D01*
X19597552Y-37999388D02*
X19147552Y-38449388D01*
X10847552Y-27299388D02*
X18607552Y-27299388D01*
X10847552Y-27299388D02*
X7797552Y-30349388D01*
X7797552Y-30349388D02*
X7797552Y-32999388D01*
X18607552Y-27299388D02*
X19627552Y-28319388D01*
X12397552Y-37599388D02*
X14547552Y-37599388D01*
%TO.N,Board_5-CLKSEL0*%
X22197552Y-32999388D02*
X20722552Y-31524388D01*
X17772552Y-31524388D02*
X12747552Y-36549388D01*
X10397552Y-34199388D02*
X10397552Y-31399388D01*
X20722552Y-31524388D02*
X17772552Y-31524388D01*
X12747552Y-36549388D02*
X10397552Y-34199388D01*
X10397552Y-31399388D02*
X10397552Y-30199388D01*
X10397552Y-30199388D02*
X9697552Y-29499388D01*
%TO.N,Board_5-SCL*%
X15547552Y-39649388D02*
X15547552Y-36099388D01*
X14997552Y-40199388D02*
X15547552Y-39649388D01*
X15547552Y-36099388D02*
X19397552Y-32249388D01*
%TO.N,Board_5-SDA*%
X20397552Y-28574693D02*
X20397552Y-27949388D01*
X20397552Y-27949388D02*
X19147552Y-26699388D01*
X19147552Y-26699388D02*
X15897552Y-26699388D01*
X17797552Y-29449388D02*
X19522857Y-29449388D01*
X19522857Y-29449388D02*
X20397552Y-28574693D01*
X15897552Y-26699388D02*
X14997552Y-25799388D01*
%TO.N,Board_6-+3.3V*%
X37597552Y-37999388D02*
X37147552Y-38449388D01*
X28847552Y-27299388D02*
X25797552Y-30349388D01*
X37147552Y-38449388D02*
X34297552Y-38449388D01*
X30397552Y-37599388D02*
X32547552Y-37599388D01*
X25797552Y-32999388D02*
X30397552Y-37599388D01*
X28847552Y-27299388D02*
X36607552Y-27299388D01*
X36607552Y-27299388D02*
X37627552Y-28319388D01*
X25797552Y-30349388D02*
X25797552Y-32999388D01*
%TO.N,Board_6-CLKSEL0*%
X30747552Y-36549388D02*
X28397552Y-34199388D01*
X35772552Y-31524388D02*
X30747552Y-36549388D01*
X28397552Y-30199388D02*
X27697552Y-29499388D01*
X40197552Y-32999388D02*
X38722552Y-31524388D01*
X28397552Y-34199388D02*
X28397552Y-31399388D01*
X28397552Y-31399388D02*
X28397552Y-30199388D01*
X38722552Y-31524388D02*
X35772552Y-31524388D01*
%TO.N,Board_6-SCL*%
X33547552Y-39649388D02*
X33547552Y-36099388D01*
X32997552Y-40199388D02*
X33547552Y-39649388D01*
X33547552Y-36099388D02*
X37397552Y-32249388D01*
%TO.N,Board_6-SDA*%
X37147552Y-26699388D02*
X33897552Y-26699388D01*
X37522857Y-29449388D02*
X38397552Y-28574693D01*
X35797552Y-29449388D02*
X37522857Y-29449388D01*
X33897552Y-26699388D02*
X32997552Y-25799388D01*
X38397552Y-28574693D02*
X38397552Y-27949388D01*
X38397552Y-27949388D02*
X37147552Y-26699388D01*
%TO.N,Board_7-+3.3V*%
X54607552Y-27299388D02*
X55627552Y-28319388D01*
X55597552Y-37999388D02*
X55147552Y-38449388D01*
X55147552Y-38449388D02*
X52297552Y-38449388D01*
X46847552Y-27299388D02*
X54607552Y-27299388D01*
X43797552Y-32999388D02*
X48397552Y-37599388D01*
X46847552Y-27299388D02*
X43797552Y-30349388D01*
X43797552Y-30349388D02*
X43797552Y-32999388D01*
X48397552Y-37599388D02*
X50547552Y-37599388D01*
%TO.N,Board_7-CLKSEL0*%
X53772552Y-31524388D02*
X48747552Y-36549388D01*
X46397552Y-34199388D02*
X46397552Y-31399388D01*
X46397552Y-30199388D02*
X45697552Y-29499388D01*
X46397552Y-31399388D02*
X46397552Y-30199388D01*
X56722552Y-31524388D02*
X53772552Y-31524388D01*
X48747552Y-36549388D02*
X46397552Y-34199388D01*
X58197552Y-32999388D02*
X56722552Y-31524388D01*
%TO.N,Board_7-SCL*%
X50997552Y-40199388D02*
X51547552Y-39649388D01*
X51547552Y-36099388D02*
X55397552Y-32249388D01*
X51547552Y-39649388D02*
X51547552Y-36099388D01*
%TO.N,Board_7-SDA*%
X55147552Y-26699388D02*
X51897552Y-26699388D01*
X56397552Y-27949388D02*
X55147552Y-26699388D01*
X53797552Y-29449388D02*
X55522857Y-29449388D01*
X56397552Y-28574693D02*
X56397552Y-27949388D01*
X55522857Y-29449388D02*
X56397552Y-28574693D01*
X51897552Y-26699388D02*
X50997552Y-25799388D01*
%TO.N,Board_8-+3.3V*%
X64847552Y-27299388D02*
X61797552Y-30349388D01*
X61797552Y-32999388D02*
X66397552Y-37599388D01*
X61797552Y-30349388D02*
X61797552Y-32999388D01*
X72607552Y-27299388D02*
X73627552Y-28319388D01*
X73147552Y-38449388D02*
X70297552Y-38449388D01*
X66397552Y-37599388D02*
X68547552Y-37599388D01*
X73597552Y-37999388D02*
X73147552Y-38449388D01*
X64847552Y-27299388D02*
X72607552Y-27299388D01*
%TO.N,Board_8-CLKSEL0*%
X64397552Y-30199388D02*
X63697552Y-29499388D01*
X74722552Y-31524388D02*
X71772552Y-31524388D01*
X71772552Y-31524388D02*
X66747552Y-36549388D01*
X64397552Y-31399388D02*
X64397552Y-30199388D01*
X64397552Y-34199388D02*
X64397552Y-31399388D01*
X66747552Y-36549388D02*
X64397552Y-34199388D01*
X76197552Y-32999388D02*
X74722552Y-31524388D01*
%TO.N,Board_8-SCL*%
X69547552Y-36099388D02*
X73397552Y-32249388D01*
X68997552Y-40199388D02*
X69547552Y-39649388D01*
X69547552Y-39649388D02*
X69547552Y-36099388D01*
%TO.N,Board_8-SDA*%
X69897552Y-26699388D02*
X68997552Y-25799388D01*
X74397552Y-28574693D02*
X74397552Y-27949388D01*
X73147552Y-26699388D02*
X69897552Y-26699388D01*
X74397552Y-27949388D02*
X73147552Y-26699388D01*
X73522857Y-29449388D02*
X74397552Y-28574693D01*
X71797552Y-29449388D02*
X73522857Y-29449388D01*
%TO.N,Board_9-+3.3V*%
X79797552Y-32999388D02*
X84397552Y-37599388D01*
X84397552Y-37599388D02*
X86547552Y-37599388D01*
X79797552Y-30349388D02*
X79797552Y-32999388D01*
X82847552Y-27299388D02*
X90607552Y-27299388D01*
X90607552Y-27299388D02*
X91627552Y-28319388D01*
X91147552Y-38449388D02*
X88297552Y-38449388D01*
X91597552Y-37999388D02*
X91147552Y-38449388D01*
X82847552Y-27299388D02*
X79797552Y-30349388D01*
%TO.N,Board_9-CLKSEL0*%
X92722552Y-31524388D02*
X89772552Y-31524388D01*
X82397552Y-34199388D02*
X82397552Y-31399388D01*
X84747552Y-36549388D02*
X82397552Y-34199388D01*
X94197552Y-32999388D02*
X92722552Y-31524388D01*
X82397552Y-31399388D02*
X82397552Y-30199388D01*
X82397552Y-30199388D02*
X81697552Y-29499388D01*
X89772552Y-31524388D02*
X84747552Y-36549388D01*
%TO.N,Board_9-SCL*%
X86997552Y-40199388D02*
X87547552Y-39649388D01*
X87547552Y-39649388D02*
X87547552Y-36099388D01*
X87547552Y-36099388D02*
X91397552Y-32249388D01*
%TO.N,Board_9-SDA*%
X87897552Y-26699388D02*
X86997552Y-25799388D01*
X92397552Y-28574693D02*
X92397552Y-27949388D01*
X91522857Y-29449388D02*
X92397552Y-28574693D01*
X91147552Y-26699388D02*
X87897552Y-26699388D01*
X92397552Y-27949388D02*
X91147552Y-26699388D01*
X89797552Y-29449388D02*
X91522857Y-29449388D01*
%TO.N,Board_10-+3.3V*%
X7797552Y-50999388D02*
X12397552Y-55599388D01*
X19597552Y-55999388D02*
X19147552Y-56449388D01*
X12397552Y-55599388D02*
X14547552Y-55599388D01*
X7797552Y-48349388D02*
X7797552Y-50999388D01*
X19147552Y-56449388D02*
X16297552Y-56449388D01*
X10847552Y-45299388D02*
X18607552Y-45299388D01*
X10847552Y-45299388D02*
X7797552Y-48349388D01*
X18607552Y-45299388D02*
X19627552Y-46319388D01*
%TO.N,Board_10-CLKSEL0*%
X20722552Y-49524388D02*
X17772552Y-49524388D01*
X10397552Y-48199388D02*
X9697552Y-47499388D01*
X10397552Y-52199388D02*
X10397552Y-49399388D01*
X12747552Y-54549388D02*
X10397552Y-52199388D01*
X22197552Y-50999388D02*
X20722552Y-49524388D01*
X17772552Y-49524388D02*
X12747552Y-54549388D01*
X10397552Y-49399388D02*
X10397552Y-48199388D01*
%TO.N,Board_10-SCL*%
X15547552Y-54099388D02*
X19397552Y-50249388D01*
X14997552Y-58199388D02*
X15547552Y-57649388D01*
X15547552Y-57649388D02*
X15547552Y-54099388D01*
%TO.N,Board_10-SDA*%
X15897552Y-44699388D02*
X14997552Y-43799388D01*
X20397552Y-45949388D02*
X19147552Y-44699388D01*
X19522857Y-47449388D02*
X20397552Y-46574693D01*
X20397552Y-46574693D02*
X20397552Y-45949388D01*
X19147552Y-44699388D02*
X15897552Y-44699388D01*
X17797552Y-47449388D02*
X19522857Y-47449388D01*
%TO.N,Board_11-+3.3V*%
X30397552Y-55599388D02*
X32547552Y-55599388D01*
X25797552Y-48349388D02*
X25797552Y-50999388D01*
X28847552Y-45299388D02*
X25797552Y-48349388D01*
X37597552Y-55999388D02*
X37147552Y-56449388D01*
X25797552Y-50999388D02*
X30397552Y-55599388D01*
X37147552Y-56449388D02*
X34297552Y-56449388D01*
X36607552Y-45299388D02*
X37627552Y-46319388D01*
X28847552Y-45299388D02*
X36607552Y-45299388D01*
%TO.N,Board_11-CLKSEL0*%
X40197552Y-50999388D02*
X38722552Y-49524388D01*
X28397552Y-48199388D02*
X27697552Y-47499388D01*
X30747552Y-54549388D02*
X28397552Y-52199388D01*
X28397552Y-49399388D02*
X28397552Y-48199388D01*
X35772552Y-49524388D02*
X30747552Y-54549388D01*
X38722552Y-49524388D02*
X35772552Y-49524388D01*
X28397552Y-52199388D02*
X28397552Y-49399388D01*
%TO.N,Board_11-SCL*%
X33547552Y-54099388D02*
X37397552Y-50249388D01*
X33547552Y-57649388D02*
X33547552Y-54099388D01*
X32997552Y-58199388D02*
X33547552Y-57649388D01*
%TO.N,Board_11-SDA*%
X38397552Y-46574693D02*
X38397552Y-45949388D01*
X35797552Y-47449388D02*
X37522857Y-47449388D01*
X37522857Y-47449388D02*
X38397552Y-46574693D01*
X33897552Y-44699388D02*
X32997552Y-43799388D01*
X37147552Y-44699388D02*
X33897552Y-44699388D01*
X38397552Y-45949388D02*
X37147552Y-44699388D01*
%TO.N,Board_12-+3.3V*%
X43797552Y-50999388D02*
X48397552Y-55599388D01*
X48397552Y-55599388D02*
X50547552Y-55599388D01*
X55147552Y-56449388D02*
X52297552Y-56449388D01*
X54607552Y-45299388D02*
X55627552Y-46319388D01*
X55597552Y-55999388D02*
X55147552Y-56449388D01*
X46847552Y-45299388D02*
X54607552Y-45299388D01*
X46847552Y-45299388D02*
X43797552Y-48349388D01*
X43797552Y-48349388D02*
X43797552Y-50999388D01*
%TO.N,Board_12-CLKSEL0*%
X46397552Y-52199388D02*
X46397552Y-49399388D01*
X53772552Y-49524388D02*
X48747552Y-54549388D01*
X58197552Y-50999388D02*
X56722552Y-49524388D01*
X56722552Y-49524388D02*
X53772552Y-49524388D01*
X46397552Y-49399388D02*
X46397552Y-48199388D01*
X46397552Y-48199388D02*
X45697552Y-47499388D01*
X48747552Y-54549388D02*
X46397552Y-52199388D01*
%TO.N,Board_12-SCL*%
X51547552Y-57649388D02*
X51547552Y-54099388D01*
X50997552Y-58199388D02*
X51547552Y-57649388D01*
X51547552Y-54099388D02*
X55397552Y-50249388D01*
%TO.N,Board_12-SDA*%
X51897552Y-44699388D02*
X50997552Y-43799388D01*
X56397552Y-46574693D02*
X56397552Y-45949388D01*
X55522857Y-47449388D02*
X56397552Y-46574693D01*
X56397552Y-45949388D02*
X55147552Y-44699388D01*
X55147552Y-44699388D02*
X51897552Y-44699388D01*
X53797552Y-47449388D02*
X55522857Y-47449388D01*
%TO.N,Board_13-+3.3V*%
X64847552Y-45299388D02*
X72607552Y-45299388D01*
X61797552Y-48349388D02*
X61797552Y-50999388D01*
X72607552Y-45299388D02*
X73627552Y-46319388D01*
X64847552Y-45299388D02*
X61797552Y-48349388D01*
X73147552Y-56449388D02*
X70297552Y-56449388D01*
X73597552Y-55999388D02*
X73147552Y-56449388D01*
X66397552Y-55599388D02*
X68547552Y-55599388D01*
X61797552Y-50999388D02*
X66397552Y-55599388D01*
%TO.N,Board_13-CLKSEL0*%
X74722552Y-49524388D02*
X71772552Y-49524388D01*
X66747552Y-54549388D02*
X64397552Y-52199388D01*
X76197552Y-50999388D02*
X74722552Y-49524388D01*
X64397552Y-49399388D02*
X64397552Y-48199388D01*
X64397552Y-48199388D02*
X63697552Y-47499388D01*
X71772552Y-49524388D02*
X66747552Y-54549388D01*
X64397552Y-52199388D02*
X64397552Y-49399388D01*
%TO.N,Board_13-SCL*%
X69547552Y-54099388D02*
X73397552Y-50249388D01*
X69547552Y-57649388D02*
X69547552Y-54099388D01*
X68997552Y-58199388D02*
X69547552Y-57649388D01*
%TO.N,Board_13-SDA*%
X74397552Y-45949388D02*
X73147552Y-44699388D01*
X73147552Y-44699388D02*
X69897552Y-44699388D01*
X73522857Y-47449388D02*
X74397552Y-46574693D01*
X69897552Y-44699388D02*
X68997552Y-43799388D01*
X74397552Y-46574693D02*
X74397552Y-45949388D01*
X71797552Y-47449388D02*
X73522857Y-47449388D01*
%TO.N,Board_14-+3.3V*%
X82847552Y-45299388D02*
X90607552Y-45299388D01*
X79797552Y-48349388D02*
X79797552Y-50999388D01*
X91147552Y-56449388D02*
X88297552Y-56449388D01*
X79797552Y-50999388D02*
X84397552Y-55599388D01*
X90607552Y-45299388D02*
X91627552Y-46319388D01*
X82847552Y-45299388D02*
X79797552Y-48349388D01*
X84397552Y-55599388D02*
X86547552Y-55599388D01*
X91597552Y-55999388D02*
X91147552Y-56449388D01*
%TO.N,Board_14-CLKSEL0*%
X82397552Y-49399388D02*
X82397552Y-48199388D01*
X94197552Y-50999388D02*
X92722552Y-49524388D01*
X82397552Y-48199388D02*
X81697552Y-47499388D01*
X92722552Y-49524388D02*
X89772552Y-49524388D01*
X82397552Y-52199388D02*
X82397552Y-49399388D01*
X84747552Y-54549388D02*
X82397552Y-52199388D01*
X89772552Y-49524388D02*
X84747552Y-54549388D01*
%TO.N,Board_14-SCL*%
X87547552Y-57649388D02*
X87547552Y-54099388D01*
X87547552Y-54099388D02*
X91397552Y-50249388D01*
X86997552Y-58199388D02*
X87547552Y-57649388D01*
%TO.N,Board_14-SDA*%
X92397552Y-46574693D02*
X92397552Y-45949388D01*
X89797552Y-47449388D02*
X91522857Y-47449388D01*
X91522857Y-47449388D02*
X92397552Y-46574693D01*
X87897552Y-44699388D02*
X86997552Y-43799388D01*
X92397552Y-45949388D02*
X91147552Y-44699388D01*
X91147552Y-44699388D02*
X87897552Y-44699388D01*
%TO.N,Board_15-+3.3V*%
X12397552Y-73599388D02*
X14547552Y-73599388D01*
X19147552Y-74449388D02*
X16297552Y-74449388D01*
X10847552Y-63299388D02*
X7797552Y-66349388D01*
X10847552Y-63299388D02*
X18607552Y-63299388D01*
X19597552Y-73999388D02*
X19147552Y-74449388D01*
X18607552Y-63299388D02*
X19627552Y-64319388D01*
X7797552Y-68999388D02*
X12397552Y-73599388D01*
X7797552Y-66349388D02*
X7797552Y-68999388D01*
%TO.N,Board_15-CLKSEL0*%
X20722552Y-67524388D02*
X17772552Y-67524388D01*
X22197552Y-68999388D02*
X20722552Y-67524388D01*
X10397552Y-70199388D02*
X10397552Y-67399388D01*
X12747552Y-72549388D02*
X10397552Y-70199388D01*
X17772552Y-67524388D02*
X12747552Y-72549388D01*
X10397552Y-67399388D02*
X10397552Y-66199388D01*
X10397552Y-66199388D02*
X9697552Y-65499388D01*
%TO.N,Board_15-SCL*%
X14997552Y-76199388D02*
X15547552Y-75649388D01*
X15547552Y-72099388D02*
X19397552Y-68249388D01*
X15547552Y-75649388D02*
X15547552Y-72099388D01*
%TO.N,Board_15-SDA*%
X19147552Y-62699388D02*
X15897552Y-62699388D01*
X15897552Y-62699388D02*
X14997552Y-61799388D01*
X17797552Y-65449388D02*
X19522857Y-65449388D01*
X20397552Y-64574693D02*
X20397552Y-63949388D01*
X19522857Y-65449388D02*
X20397552Y-64574693D01*
X20397552Y-63949388D02*
X19147552Y-62699388D01*
%TO.N,Board_16-+3.3V*%
X37147552Y-74449388D02*
X34297552Y-74449388D01*
X25797552Y-68999388D02*
X30397552Y-73599388D01*
X37597552Y-73999388D02*
X37147552Y-74449388D01*
X30397552Y-73599388D02*
X32547552Y-73599388D01*
X36607552Y-63299388D02*
X37627552Y-64319388D01*
X25797552Y-66349388D02*
X25797552Y-68999388D01*
X28847552Y-63299388D02*
X25797552Y-66349388D01*
X28847552Y-63299388D02*
X36607552Y-63299388D01*
%TO.N,Board_16-CLKSEL0*%
X30747552Y-72549388D02*
X28397552Y-70199388D01*
X28397552Y-66199388D02*
X27697552Y-65499388D01*
X38722552Y-67524388D02*
X35772552Y-67524388D01*
X28397552Y-70199388D02*
X28397552Y-67399388D01*
X35772552Y-67524388D02*
X30747552Y-72549388D01*
X40197552Y-68999388D02*
X38722552Y-67524388D01*
X28397552Y-67399388D02*
X28397552Y-66199388D01*
%TO.N,Board_16-SCL*%
X32997552Y-76199388D02*
X33547552Y-75649388D01*
X33547552Y-75649388D02*
X33547552Y-72099388D01*
X33547552Y-72099388D02*
X37397552Y-68249388D01*
%TO.N,Board_16-SDA*%
X38397552Y-64574693D02*
X38397552Y-63949388D01*
X35797552Y-65449388D02*
X37522857Y-65449388D01*
X33897552Y-62699388D02*
X32997552Y-61799388D01*
X37522857Y-65449388D02*
X38397552Y-64574693D01*
X38397552Y-63949388D02*
X37147552Y-62699388D01*
X37147552Y-62699388D02*
X33897552Y-62699388D01*
%TO.N,Board_17-+3.3V*%
X55147552Y-74449388D02*
X52297552Y-74449388D01*
X46847552Y-63299388D02*
X43797552Y-66349388D01*
X43797552Y-68999388D02*
X48397552Y-73599388D01*
X46847552Y-63299388D02*
X54607552Y-63299388D01*
X43797552Y-66349388D02*
X43797552Y-68999388D01*
X48397552Y-73599388D02*
X50547552Y-73599388D01*
X55597552Y-73999388D02*
X55147552Y-74449388D01*
X54607552Y-63299388D02*
X55627552Y-64319388D01*
%TO.N,Board_17-CLKSEL0*%
X53772552Y-67524388D02*
X48747552Y-72549388D01*
X56722552Y-67524388D02*
X53772552Y-67524388D01*
X46397552Y-67399388D02*
X46397552Y-66199388D01*
X48747552Y-72549388D02*
X46397552Y-70199388D01*
X46397552Y-66199388D02*
X45697552Y-65499388D01*
X46397552Y-70199388D02*
X46397552Y-67399388D01*
X58197552Y-68999388D02*
X56722552Y-67524388D01*
%TO.N,Board_17-SCL*%
X50997552Y-76199388D02*
X51547552Y-75649388D01*
X51547552Y-75649388D02*
X51547552Y-72099388D01*
X51547552Y-72099388D02*
X55397552Y-68249388D01*
%TO.N,Board_17-SDA*%
X53797552Y-65449388D02*
X55522857Y-65449388D01*
X55147552Y-62699388D02*
X51897552Y-62699388D01*
X56397552Y-63949388D02*
X55147552Y-62699388D01*
X51897552Y-62699388D02*
X50997552Y-61799388D01*
X56397552Y-64574693D02*
X56397552Y-63949388D01*
X55522857Y-65449388D02*
X56397552Y-64574693D01*
%TO.N,Board_18-+3.3V*%
X61797552Y-66349388D02*
X61797552Y-68999388D01*
X72607552Y-63299388D02*
X73627552Y-64319388D01*
X61797552Y-68999388D02*
X66397552Y-73599388D01*
X66397552Y-73599388D02*
X68547552Y-73599388D01*
X64847552Y-63299388D02*
X61797552Y-66349388D01*
X73147552Y-74449388D02*
X70297552Y-74449388D01*
X73597552Y-73999388D02*
X73147552Y-74449388D01*
X64847552Y-63299388D02*
X72607552Y-63299388D01*
%TO.N,Board_18-CLKSEL0*%
X66747552Y-72549388D02*
X64397552Y-70199388D01*
X64397552Y-67399388D02*
X64397552Y-66199388D01*
X64397552Y-66199388D02*
X63697552Y-65499388D01*
X76197552Y-68999388D02*
X74722552Y-67524388D01*
X64397552Y-70199388D02*
X64397552Y-67399388D01*
X74722552Y-67524388D02*
X71772552Y-67524388D01*
X71772552Y-67524388D02*
X66747552Y-72549388D01*
%TO.N,Board_18-SCL*%
X69547552Y-75649388D02*
X69547552Y-72099388D01*
X68997552Y-76199388D02*
X69547552Y-75649388D01*
X69547552Y-72099388D02*
X73397552Y-68249388D01*
%TO.N,Board_18-SDA*%
X74397552Y-63949388D02*
X73147552Y-62699388D01*
X69897552Y-62699388D02*
X68997552Y-61799388D01*
X71797552Y-65449388D02*
X73522857Y-65449388D01*
X73522857Y-65449388D02*
X74397552Y-64574693D01*
X74397552Y-64574693D02*
X74397552Y-63949388D01*
X73147552Y-62699388D02*
X69897552Y-62699388D01*
%TO.N,Board_19-+3.3V*%
X90607552Y-63299388D02*
X91627552Y-64319388D01*
X82847552Y-63299388D02*
X90607552Y-63299388D01*
X84397552Y-73599388D02*
X86547552Y-73599388D01*
X79797552Y-66349388D02*
X79797552Y-68999388D01*
X82847552Y-63299388D02*
X79797552Y-66349388D01*
X79797552Y-68999388D02*
X84397552Y-73599388D01*
X91597552Y-73999388D02*
X91147552Y-74449388D01*
X91147552Y-74449388D02*
X88297552Y-74449388D01*
%TO.N,Board_19-CLKSEL0*%
X94197552Y-68999388D02*
X92722552Y-67524388D01*
X84747552Y-72549388D02*
X82397552Y-70199388D01*
X82397552Y-70199388D02*
X82397552Y-67399388D01*
X82397552Y-66199388D02*
X81697552Y-65499388D01*
X92722552Y-67524388D02*
X89772552Y-67524388D01*
X89772552Y-67524388D02*
X84747552Y-72549388D01*
X82397552Y-67399388D02*
X82397552Y-66199388D01*
%TO.N,Board_19-SCL*%
X87547552Y-72099388D02*
X91397552Y-68249388D01*
X87547552Y-75649388D02*
X87547552Y-72099388D01*
X86997552Y-76199388D02*
X87547552Y-75649388D01*
%TO.N,Board_19-SDA*%
X92397552Y-63949388D02*
X91147552Y-62699388D01*
X91147552Y-62699388D02*
X87897552Y-62699388D01*
X87897552Y-62699388D02*
X86997552Y-61799388D01*
X89797552Y-65449388D02*
X91522857Y-65449388D01*
X91522857Y-65449388D02*
X92397552Y-64574693D01*
X92397552Y-64574693D02*
X92397552Y-63949388D01*
%TO.N,Board_20-+3.3V*%
X18607552Y-81299388D02*
X19627552Y-82319388D01*
X10847552Y-81299388D02*
X18607552Y-81299388D01*
X19147552Y-92449388D02*
X16297552Y-92449388D01*
X7797552Y-86999388D02*
X12397552Y-91599388D01*
X19597552Y-91999388D02*
X19147552Y-92449388D01*
X12397552Y-91599388D02*
X14547552Y-91599388D01*
X7797552Y-84349388D02*
X7797552Y-86999388D01*
X10847552Y-81299388D02*
X7797552Y-84349388D01*
%TO.N,Board_20-CLKSEL0*%
X22197552Y-86999388D02*
X20722552Y-85524388D01*
X17772552Y-85524388D02*
X12747552Y-90549388D01*
X12747552Y-90549388D02*
X10397552Y-88199388D01*
X10397552Y-84199388D02*
X9697552Y-83499388D01*
X10397552Y-88199388D02*
X10397552Y-85399388D01*
X20722552Y-85524388D02*
X17772552Y-85524388D01*
X10397552Y-85399388D02*
X10397552Y-84199388D01*
%TO.N,Board_20-SCL*%
X15547552Y-93649388D02*
X15547552Y-90099388D01*
X14997552Y-94199388D02*
X15547552Y-93649388D01*
X15547552Y-90099388D02*
X19397552Y-86249388D01*
%TO.N,Board_20-SDA*%
X20397552Y-81949388D02*
X19147552Y-80699388D01*
X20397552Y-82574693D02*
X20397552Y-81949388D01*
X15897552Y-80699388D02*
X14997552Y-79799388D01*
X19147552Y-80699388D02*
X15897552Y-80699388D01*
X19522857Y-83449388D02*
X20397552Y-82574693D01*
X17797552Y-83449388D02*
X19522857Y-83449388D01*
%TO.N,Board_21-+3.3V*%
X37147552Y-92449388D02*
X34297552Y-92449388D01*
X28847552Y-81299388D02*
X25797552Y-84349388D01*
X37597552Y-91999388D02*
X37147552Y-92449388D01*
X25797552Y-84349388D02*
X25797552Y-86999388D01*
X36607552Y-81299388D02*
X37627552Y-82319388D01*
X28847552Y-81299388D02*
X36607552Y-81299388D01*
X25797552Y-86999388D02*
X30397552Y-91599388D01*
X30397552Y-91599388D02*
X32547552Y-91599388D01*
%TO.N,Board_21-CLKSEL0*%
X35772552Y-85524388D02*
X30747552Y-90549388D01*
X30747552Y-90549388D02*
X28397552Y-88199388D01*
X38722552Y-85524388D02*
X35772552Y-85524388D01*
X28397552Y-85399388D02*
X28397552Y-84199388D01*
X40197552Y-86999388D02*
X38722552Y-85524388D01*
X28397552Y-84199388D02*
X27697552Y-83499388D01*
X28397552Y-88199388D02*
X28397552Y-85399388D01*
%TO.N,Board_21-SCL*%
X32997552Y-94199388D02*
X33547552Y-93649388D01*
X33547552Y-90099388D02*
X37397552Y-86249388D01*
X33547552Y-93649388D02*
X33547552Y-90099388D01*
%TO.N,Board_21-SDA*%
X35797552Y-83449388D02*
X37522857Y-83449388D01*
X38397552Y-81949388D02*
X37147552Y-80699388D01*
X38397552Y-82574693D02*
X38397552Y-81949388D01*
X33897552Y-80699388D02*
X32997552Y-79799388D01*
X37522857Y-83449388D02*
X38397552Y-82574693D01*
X37147552Y-80699388D02*
X33897552Y-80699388D01*
%TO.N,Board_22-+3.3V*%
X46847552Y-81299388D02*
X43797552Y-84349388D01*
X54607552Y-81299388D02*
X55627552Y-82319388D01*
X48397552Y-91599388D02*
X50547552Y-91599388D01*
X43797552Y-84349388D02*
X43797552Y-86999388D01*
X55597552Y-91999388D02*
X55147552Y-92449388D01*
X43797552Y-86999388D02*
X48397552Y-91599388D01*
X55147552Y-92449388D02*
X52297552Y-92449388D01*
X46847552Y-81299388D02*
X54607552Y-81299388D01*
%TO.N,Board_22-CLKSEL0*%
X58197552Y-86999388D02*
X56722552Y-85524388D01*
X48747552Y-90549388D02*
X46397552Y-88199388D01*
X46397552Y-85399388D02*
X46397552Y-84199388D01*
X46397552Y-88199388D02*
X46397552Y-85399388D01*
X46397552Y-84199388D02*
X45697552Y-83499388D01*
X53772552Y-85524388D02*
X48747552Y-90549388D01*
X56722552Y-85524388D02*
X53772552Y-85524388D01*
%TO.N,Board_22-SCL*%
X51547552Y-93649388D02*
X51547552Y-90099388D01*
X50997552Y-94199388D02*
X51547552Y-93649388D01*
X51547552Y-90099388D02*
X55397552Y-86249388D01*
%TO.N,Board_22-SDA*%
X55147552Y-80699388D02*
X51897552Y-80699388D01*
X55522857Y-83449388D02*
X56397552Y-82574693D01*
X56397552Y-81949388D02*
X55147552Y-80699388D01*
X56397552Y-82574693D02*
X56397552Y-81949388D01*
X51897552Y-80699388D02*
X50997552Y-79799388D01*
X53797552Y-83449388D02*
X55522857Y-83449388D01*
%TO.N,Board_23-+3.3V*%
X64847552Y-81299388D02*
X61797552Y-84349388D01*
X61797552Y-84349388D02*
X61797552Y-86999388D01*
X72607552Y-81299388D02*
X73627552Y-82319388D01*
X66397552Y-91599388D02*
X68547552Y-91599388D01*
X64847552Y-81299388D02*
X72607552Y-81299388D01*
X73597552Y-91999388D02*
X73147552Y-92449388D01*
X61797552Y-86999388D02*
X66397552Y-91599388D01*
X73147552Y-92449388D02*
X70297552Y-92449388D01*
%TO.N,Board_23-CLKSEL0*%
X64397552Y-84199388D02*
X63697552Y-83499388D01*
X64397552Y-88199388D02*
X64397552Y-85399388D01*
X74722552Y-85524388D02*
X71772552Y-85524388D01*
X66747552Y-90549388D02*
X64397552Y-88199388D01*
X64397552Y-85399388D02*
X64397552Y-84199388D01*
X76197552Y-86999388D02*
X74722552Y-85524388D01*
X71772552Y-85524388D02*
X66747552Y-90549388D01*
%TO.N,Board_23-SCL*%
X69547552Y-93649388D02*
X69547552Y-90099388D01*
X69547552Y-90099388D02*
X73397552Y-86249388D01*
X68997552Y-94199388D02*
X69547552Y-93649388D01*
%TO.N,Board_23-SDA*%
X73522857Y-83449388D02*
X74397552Y-82574693D01*
X71797552Y-83449388D02*
X73522857Y-83449388D01*
X69897552Y-80699388D02*
X68997552Y-79799388D01*
X73147552Y-80699388D02*
X69897552Y-80699388D01*
X74397552Y-82574693D02*
X74397552Y-81949388D01*
X74397552Y-81949388D02*
X73147552Y-80699388D01*
%TO.N,Board_24-+3.3V*%
X91147552Y-92449388D02*
X88297552Y-92449388D01*
X79797552Y-86999388D02*
X84397552Y-91599388D01*
X79797552Y-84349388D02*
X79797552Y-86999388D01*
X90607552Y-81299388D02*
X91627552Y-82319388D01*
X82847552Y-81299388D02*
X90607552Y-81299388D01*
X84397552Y-91599388D02*
X86547552Y-91599388D01*
X91597552Y-91999388D02*
X91147552Y-92449388D01*
X82847552Y-81299388D02*
X79797552Y-84349388D01*
%TO.N,Board_24-CLKSEL0*%
X92722552Y-85524388D02*
X89772552Y-85524388D01*
X82397552Y-85399388D02*
X82397552Y-84199388D01*
X82397552Y-88199388D02*
X82397552Y-85399388D01*
X84747552Y-90549388D02*
X82397552Y-88199388D01*
X82397552Y-84199388D02*
X81697552Y-83499388D01*
X89772552Y-85524388D02*
X84747552Y-90549388D01*
X94197552Y-86999388D02*
X92722552Y-85524388D01*
%TO.N,Board_24-SCL*%
X86997552Y-94199388D02*
X87547552Y-93649388D01*
X87547552Y-93649388D02*
X87547552Y-90099388D01*
X87547552Y-90099388D02*
X91397552Y-86249388D01*
%TO.N,Board_24-SDA*%
X92397552Y-81949388D02*
X91147552Y-80699388D01*
X89797552Y-83449388D02*
X91522857Y-83449388D01*
X91147552Y-80699388D02*
X87897552Y-80699388D01*
X92397552Y-82574693D02*
X92397552Y-81949388D01*
X87897552Y-80699388D02*
X86997552Y-79799388D01*
X91522857Y-83449388D02*
X92397552Y-82574693D01*
%TD*%
M02*
