%TF.GenerationSoftware,KiCad,Pcbnew,7.0.6-1.fc38*%
%TF.CreationDate,2023-07-26T15:00:37-04:00*%
%TF.ProjectId,bno085-i2c-board-v4-panel,626e6f30-3835-42d6-9932-632d626f6172,rev?*%
%TF.SameCoordinates,Original*%
%TF.FileFunction,Soldermask,Bot*%
%TF.FilePolarity,Negative*%
%FSLAX46Y46*%
G04 Gerber Fmt 4.6, Leading zero omitted, Abs format (unit mm)*
G04 Created by KiCad (PCBNEW 7.0.6-1.fc38) date 2023-07-26 15:00:37*
%MOMM*%
%LPD*%
G01*
G04 APERTURE LIST*
%ADD10R,0.850000X0.850000*%
%ADD11C,0.500000*%
%ADD12C,1.000000*%
G04 APERTURE END LIST*
D10*
%TO.C,J3*%
X19749999Y-48000004D03*
%TD*%
%TO.C,J4*%
X40249999Y-12000004D03*
%TD*%
%TO.C,J1*%
X11999999Y-19750004D03*
%TD*%
%TO.C,J2*%
X59999999Y-16250004D03*
%TD*%
%TO.C,J2*%
X11999999Y-28250004D03*
%TD*%
D11*
%TO.C,REF\u002A\u002A*%
X0Y-7000000D03*
%TD*%
%TO.C,REF\u002A\u002A*%
X41124998Y-23250001D03*
%TD*%
D10*
%TO.C,J4*%
X64249999Y-60000004D03*
%TD*%
D11*
%TO.C,REF\u002A\u002A*%
X12749999Y-29125003D03*
%TD*%
%TO.C,REF\u002A\u002A*%
X60749999Y-17125003D03*
%TD*%
%TO.C,REF\u002A\u002A*%
X3333334Y-7000000D03*
%TD*%
D10*
%TO.C,J4*%
X28249999Y-36000004D03*
%TD*%
%TO.C,J3*%
X31749999Y-24000004D03*
%TD*%
D11*
%TO.C,REF\u002A\u002A*%
X64999998Y-1666667D03*
%TD*%
D10*
%TO.C,J2*%
X59999999Y-52250004D03*
%TD*%
%TO.C,J4*%
X16249999Y-36000004D03*
%TD*%
%TO.C,J4*%
X64249999Y-48000004D03*
%TD*%
D11*
%TO.C,REF\u002A\u002A*%
X30874999Y-36750001D03*
%TD*%
%TO.C,REF\u002A\u002A*%
X41124998Y-59250001D03*
%TD*%
%TO.C,REF\u002A\u002A*%
X6875000Y-59250001D03*
%TD*%
%TO.C,REF\u002A\u002A*%
X36749999Y-42875003D03*
%TD*%
D10*
%TO.C,J4*%
X40249999Y-36000004D03*
%TD*%
%TO.C,J2*%
X47999999Y-40250004D03*
%TD*%
%TO.C,J1*%
X35999999Y-19750004D03*
%TD*%
D11*
%TO.C,REF\u002A\u002A*%
X23249999Y-42875000D03*
%TD*%
%TO.C,REF\u002A\u002A*%
X30874999Y-23250001D03*
%TD*%
%TO.C,REF\u002A\u002A*%
X24749999Y-41125003D03*
%TD*%
%TO.C,REF\u002A\u002A*%
X53124998Y-24750001D03*
%TD*%
D10*
%TO.C,J1*%
X59999999Y-31750004D03*
%TD*%
%TO.C,J4*%
X64249999Y-12000004D03*
%TD*%
D11*
%TO.C,REF\u002A\u002A*%
X30874999Y-59250001D03*
%TD*%
%TO.C,REF\u002A\u002A*%
X41124998Y-11250002D03*
%TD*%
D10*
%TO.C,J1*%
X11999999Y-55750004D03*
%TD*%
D11*
%TO.C,REF\u002A\u002A*%
X64999998Y-72000004D03*
%TD*%
%TO.C,REF\u002A\u002A*%
X35249999Y-29125003D03*
%TD*%
%TO.C,REF\u002A\u002A*%
X7000000Y-72000004D03*
%TD*%
%TO.C,REF\u002A\u002A*%
X35249999Y-30875000D03*
%TD*%
%TO.C,REF\u002A\u002A*%
X7000000Y0D03*
%TD*%
%TO.C,REF\u002A\u002A*%
X41124998Y-36750001D03*
%TD*%
%TO.C,REF\u002A\u002A*%
X5000000Y-7000000D03*
%TD*%
%TO.C,REF\u002A\u002A*%
X42874999Y-24750001D03*
%TD*%
%TO.C,REF\u002A\u002A*%
X18874999Y-48750001D03*
%TD*%
D10*
%TO.C,J2*%
X35999999Y-16250004D03*
%TD*%
D11*
%TO.C,REF\u002A\u002A*%
X23249999Y-53125003D03*
%TD*%
D10*
%TO.C,J4*%
X28249999Y-48000004D03*
%TD*%
%TO.C,J2*%
X11999999Y-64250004D03*
%TD*%
D11*
%TO.C,REF\u002A\u002A*%
X41124998Y-60750001D03*
%TD*%
D10*
%TO.C,J2*%
X23999999Y-52250004D03*
%TD*%
D11*
%TO.C,REF\u002A\u002A*%
X12749999Y-6875004D03*
%TD*%
D10*
%TO.C,J2*%
X35999999Y-40250004D03*
%TD*%
%TO.C,J1*%
X35999999Y-7750004D03*
%TD*%
%TO.C,J3*%
X7749999Y-36000004D03*
%TD*%
%TO.C,J4*%
X52249999Y-36000004D03*
%TD*%
D11*
%TO.C,REF\u002A\u002A*%
X65124998Y-24750001D03*
%TD*%
D10*
%TO.C,J1*%
X59999999Y-43750004D03*
%TD*%
D11*
%TO.C,REF\u002A\u002A*%
X41124998Y-47250001D03*
%TD*%
%TO.C,REF\u002A\u002A*%
X60749999Y-29125003D03*
%TD*%
%TO.C,REF\u002A\u002A*%
X23249999Y-6875001D03*
%TD*%
%TO.C,REF\u002A\u002A*%
X48749999Y-29125003D03*
%TD*%
%TO.C,REF\u002A\u002A*%
X54874999Y-24750001D03*
%TD*%
%TO.C,REF\u002A\u002A*%
X18874999Y-60750001D03*
%TD*%
%TO.C,REF\u002A\u002A*%
X53124998Y-12750001D03*
%TD*%
%TO.C,REF\u002A\u002A*%
X7000000Y-67833337D03*
%TD*%
%TO.C,REF\u002A\u002A*%
X67833332Y-7000000D03*
%TD*%
%TO.C,REF\u002A\u002A*%
X70333332Y-7000000D03*
%TD*%
D10*
%TO.C,J1*%
X23999999Y-43750004D03*
%TD*%
%TO.C,J4*%
X52249999Y-60000004D03*
%TD*%
D11*
%TO.C,REF\u002A\u002A*%
X60749999Y-30875003D03*
%TD*%
%TO.C,REF\u002A\u002A*%
X59249999Y-54875000D03*
%TD*%
%TO.C,REF\u002A\u002A*%
X54874999Y-12750001D03*
%TD*%
%TO.C,REF\u002A\u002A*%
X65124998Y-48750001D03*
%TD*%
%TO.C,REF\u002A\u002A*%
X12749999Y-65125003D03*
%TD*%
%TO.C,REF\u002A\u002A*%
X47249999Y-17125003D03*
%TD*%
D10*
%TO.C,J1*%
X59999999Y-7750004D03*
%TD*%
D11*
%TO.C,REF\u002A\u002A*%
X3333334Y-65000003D03*
%TD*%
%TO.C,REF\u002A\u002A*%
X42874999Y-60750001D03*
%TD*%
D10*
%TO.C,J3*%
X43749999Y-24000004D03*
%TD*%
D11*
%TO.C,REF\u002A\u002A*%
X29124998Y-60750001D03*
%TD*%
D10*
%TO.C,J4*%
X40249999Y-24000004D03*
%TD*%
D11*
%TO.C,REF\u002A\u002A*%
X17124998Y-59250001D03*
%TD*%
%TO.C,REF\u002A\u002A*%
X53124998Y-23250001D03*
%TD*%
%TO.C,REF\u002A\u002A*%
X18874999Y-23250001D03*
%TD*%
D10*
%TO.C,J3*%
X19749999Y-60000004D03*
%TD*%
D11*
%TO.C,REF\u002A\u002A*%
X35249999Y-42875000D03*
%TD*%
D10*
%TO.C,J2*%
X11999999Y-52250004D03*
%TD*%
D11*
%TO.C,REF\u002A\u002A*%
X65124998Y-23250001D03*
%TD*%
%TO.C,REF\u002A\u002A*%
X48749999Y-30875003D03*
%TD*%
D10*
%TO.C,J2*%
X35999999Y-28250004D03*
%TD*%
D11*
%TO.C,REF\u002A\u002A*%
X47249999Y-41125003D03*
%TD*%
%TO.C,REF\u002A\u002A*%
X7000000Y-2500000D03*
%TD*%
%TO.C,REF\u002A\u002A*%
X47249999Y-6875001D03*
%TD*%
%TO.C,REF\u002A\u002A*%
X30874999Y-35250001D03*
%TD*%
%TO.C,REF\u002A\u002A*%
X11250000Y-29125003D03*
%TD*%
%TO.C,REF\u002A\u002A*%
X65124998Y-60750001D03*
%TD*%
%TO.C,REF\u002A\u002A*%
X2500000Y-65000003D03*
%TD*%
%TO.C,REF\u002A\u002A*%
X7000000Y-71166670D03*
%TD*%
%TO.C,REF\u002A\u002A*%
X30874999Y-24750001D03*
%TD*%
%TO.C,REF\u002A\u002A*%
X65124998Y-59250001D03*
%TD*%
%TO.C,REF\u002A\u002A*%
X54874999Y-59250001D03*
%TD*%
%TO.C,REF\u002A\u002A*%
X35249999Y-18875000D03*
%TD*%
%TO.C,REF\u002A\u002A*%
X11250000Y-30875000D03*
%TD*%
D10*
%TO.C,J3*%
X19749999Y-36000004D03*
%TD*%
D11*
%TO.C,REF\u002A\u002A*%
X23249999Y-17125003D03*
%TD*%
%TO.C,REF\u002A\u002A*%
X47249999Y-18875000D03*
%TD*%
%TO.C,REF\u002A\u002A*%
X59249999Y-53125003D03*
%TD*%
D10*
%TO.C,J4*%
X16249999Y-60000004D03*
%TD*%
%TO.C,J4*%
X16249999Y-48000004D03*
%TD*%
D11*
%TO.C,REF\u002A\u002A*%
X47249999Y-53125003D03*
%TD*%
%TO.C,REF\u002A\u002A*%
X53124998Y-48750001D03*
%TD*%
%TO.C,REF\u002A\u002A*%
X60749999Y-53125003D03*
%TD*%
%TO.C,REF\u002A\u002A*%
X65124998Y-11250002D03*
%TD*%
D10*
%TO.C,J3*%
X19749999Y-12000004D03*
%TD*%
%TO.C,J2*%
X11999999Y-16250004D03*
%TD*%
D11*
%TO.C,REF\u002A\u002A*%
X36749999Y-29125003D03*
%TD*%
D10*
%TO.C,J4*%
X16249999Y-12000004D03*
%TD*%
D11*
%TO.C,REF\u002A\u002A*%
X11250000Y-65125003D03*
%TD*%
%TO.C,REF\u002A\u002A*%
X41124998Y-12750001D03*
%TD*%
%TO.C,REF\u002A\u002A*%
X11250000Y-53125003D03*
%TD*%
%TO.C,REF\u002A\u002A*%
X36749999Y-53125003D03*
%TD*%
D10*
%TO.C,J2*%
X23999999Y-28250004D03*
%TD*%
D11*
%TO.C,REF\u002A\u002A*%
X71999999Y-65000003D03*
%TD*%
%TO.C,REF\u002A\u002A*%
X60749999Y-18875003D03*
%TD*%
%TO.C,REF\u002A\u002A*%
X17124998Y-24750001D03*
%TD*%
%TO.C,REF\u002A\u002A*%
X6875000Y-36750001D03*
%TD*%
D10*
%TO.C,J1*%
X47999999Y-19750004D03*
%TD*%
D11*
%TO.C,REF\u002A\u002A*%
X68666665Y-65000003D03*
%TD*%
%TO.C,REF\u002A\u002A*%
X59249999Y-41125003D03*
%TD*%
%TO.C,REF\u002A\u002A*%
X30874999Y-47250001D03*
%TD*%
%TO.C,REF\u002A\u002A*%
X59249999Y-17125003D03*
%TD*%
%TO.C,REF\u002A\u002A*%
X64999998Y-69500004D03*
%TD*%
D10*
%TO.C,J3*%
X7749999Y-12000004D03*
%TD*%
D11*
%TO.C,REF\u002A\u002A*%
X65124998Y-35250001D03*
%TD*%
%TO.C,REF\u002A\u002A*%
X60749999Y-65125003D03*
%TD*%
%TO.C,REF\u002A\u002A*%
X42874999Y-35250001D03*
%TD*%
D10*
%TO.C,J4*%
X64249999Y-24000004D03*
%TD*%
D11*
%TO.C,REF\u002A\u002A*%
X65124998Y-36750001D03*
%TD*%
%TO.C,REF\u002A\u002A*%
X18874999Y-35250001D03*
%TD*%
%TO.C,REF\u002A\u002A*%
X17124998Y-60750001D03*
%TD*%
D10*
%TO.C,J2*%
X47999999Y-52250004D03*
%TD*%
D11*
%TO.C,REF\u002A\u002A*%
X42874999Y-36750001D03*
%TD*%
%TO.C,REF\u002A\u002A*%
X42874999Y-11250002D03*
%TD*%
%TO.C,REF\u002A\u002A*%
X6875000Y-60750001D03*
%TD*%
%TO.C,REF\u002A\u002A*%
X23249999Y-41125003D03*
%TD*%
D10*
%TO.C,J2*%
X23999999Y-64250004D03*
%TD*%
D11*
%TO.C,REF\u002A\u002A*%
X47249999Y-30875000D03*
%TD*%
%TO.C,REF\u002A\u002A*%
X42874999Y-23250001D03*
%TD*%
%TO.C,REF\u002A\u002A*%
X17124998Y-23250001D03*
%TD*%
%TO.C,REF\u002A\u002A*%
X6875000Y-11250002D03*
%TD*%
D10*
%TO.C,J1*%
X35999999Y-43750004D03*
%TD*%
D11*
%TO.C,REF\u002A\u002A*%
X36749999Y-65125003D03*
%TD*%
%TO.C,REF\u002A\u002A*%
X17124998Y-36750001D03*
%TD*%
%TO.C,REF\u002A\u002A*%
X42874999Y-59250001D03*
%TD*%
%TO.C,REF\u002A\u002A*%
X53124998Y-47250001D03*
%TD*%
%TO.C,REF\u002A\u002A*%
X69499999Y-65000003D03*
%TD*%
%TO.C,REF\u002A\u002A*%
X17124998Y-35250001D03*
%TD*%
%TO.C,REF\u002A\u002A*%
X47249999Y-42875000D03*
%TD*%
%TO.C,REF\u002A\u002A*%
X54874999Y-36750001D03*
%TD*%
D10*
%TO.C,J4*%
X28249999Y-24000004D03*
%TD*%
D11*
%TO.C,REF\u002A\u002A*%
X12749999Y-53125003D03*
%TD*%
D10*
%TO.C,J4*%
X64249999Y-36000004D03*
%TD*%
%TO.C,J1*%
X59999999Y-55750004D03*
%TD*%
D11*
%TO.C,REF\u002A\u002A*%
X17124998Y-11250002D03*
%TD*%
%TO.C,REF\u002A\u002A*%
X35249999Y-53125003D03*
%TD*%
%TO.C,REF\u002A\u002A*%
X24749999Y-65125003D03*
%TD*%
%TO.C,REF\u002A\u002A*%
X1666667Y-7000000D03*
%TD*%
%TO.C,REF\u002A\u002A*%
X29124998Y-36750001D03*
%TD*%
%TO.C,REF\u002A\u002A*%
X29124998Y-23250001D03*
%TD*%
%TO.C,REF\u002A\u002A*%
X30874999Y-12750001D03*
%TD*%
%TO.C,REF\u002A\u002A*%
X64999998Y-68666670D03*
%TD*%
%TO.C,REF\u002A\u002A*%
X54874999Y-47250001D03*
%TD*%
%TO.C,REF\u002A\u002A*%
X833334Y-7000000D03*
%TD*%
D10*
%TO.C,J2*%
X23999999Y-16250004D03*
%TD*%
D11*
%TO.C,REF\u002A\u002A*%
X53124998Y-60750001D03*
%TD*%
%TO.C,REF\u002A\u002A*%
X67833332Y-65000003D03*
%TD*%
%TO.C,REF\u002A\u002A*%
X4166667Y-65000003D03*
%TD*%
%TO.C,REF\u002A\u002A*%
X64999998Y-67833337D03*
%TD*%
%TO.C,REF\u002A\u002A*%
X24749999Y-6875004D03*
%TD*%
%TO.C,REF\u002A\u002A*%
X48749999Y-18875003D03*
%TD*%
%TO.C,REF\u002A\u002A*%
X42874999Y-12750001D03*
%TD*%
D10*
%TO.C,J1*%
X59999999Y-19750004D03*
%TD*%
D11*
%TO.C,REF\u002A\u002A*%
X35249999Y-54875000D03*
%TD*%
%TO.C,REF\u002A\u002A*%
X64999998Y-833334D03*
%TD*%
%TO.C,REF\u002A\u002A*%
X53124998Y-36750001D03*
%TD*%
%TO.C,REF\u002A\u002A*%
X29124998Y-47250001D03*
%TD*%
%TO.C,REF\u002A\u002A*%
X18874999Y-36750001D03*
%TD*%
%TO.C,REF\u002A\u002A*%
X48749999Y-6875004D03*
%TD*%
%TO.C,REF\u002A\u002A*%
X69499999Y-7000000D03*
%TD*%
%TO.C,REF\u002A\u002A*%
X17124998Y-48750001D03*
%TD*%
D10*
%TO.C,J1*%
X23999999Y-19750004D03*
%TD*%
D11*
%TO.C,REF\u002A\u002A*%
X18874999Y-11250002D03*
%TD*%
%TO.C,REF\u002A\u002A*%
X29124998Y-59250001D03*
%TD*%
%TO.C,REF\u002A\u002A*%
X29124998Y-12750001D03*
%TD*%
D10*
%TO.C,J1*%
X35999999Y-55750004D03*
%TD*%
D11*
%TO.C,REF\u002A\u002A*%
X12749999Y-18875003D03*
%TD*%
%TO.C,REF\u002A\u002A*%
X64999998Y-2500000D03*
%TD*%
%TO.C,REF\u002A\u002A*%
X7000000Y-68666670D03*
%TD*%
D10*
%TO.C,J4*%
X28249999Y-12000004D03*
%TD*%
D11*
%TO.C,REF\u002A\u002A*%
X12749999Y-30875003D03*
%TD*%
%TO.C,REF\u002A\u002A*%
X53124998Y-11250002D03*
%TD*%
%TO.C,REF\u002A\u002A*%
X7000000Y-3333334D03*
%TD*%
%TO.C,REF\u002A\u002A*%
X7000000Y-67000004D03*
%TD*%
%TO.C,REF\u002A\u002A*%
X36749999Y-17125003D03*
%TD*%
%TO.C,REF\u002A\u002A*%
X47249999Y-65125003D03*
%TD*%
%TO.C,REF\u002A\u002A*%
X29124998Y-24750001D03*
%TD*%
%TO.C,REF\u002A\u002A*%
X54874999Y-11250002D03*
%TD*%
%TO.C,REF\u002A\u002A*%
X6875000Y-35250001D03*
%TD*%
D10*
%TO.C,J4*%
X52249999Y-48000004D03*
%TD*%
%TO.C,J3*%
X19749999Y-24000004D03*
%TD*%
D11*
%TO.C,REF\u002A\u002A*%
X11250000Y-6875001D03*
%TD*%
D10*
%TO.C,J1*%
X47999999Y-7750004D03*
%TD*%
%TO.C,J1*%
X35999999Y-31750004D03*
%TD*%
D11*
%TO.C,REF\u002A\u002A*%
X66999999Y-7000000D03*
%TD*%
D10*
%TO.C,J2*%
X59999999Y-64250004D03*
%TD*%
D11*
%TO.C,REF\u002A\u002A*%
X47249999Y-29125003D03*
%TD*%
%TO.C,REF\u002A\u002A*%
X35249999Y-17125003D03*
%TD*%
D10*
%TO.C,J3*%
X7749999Y-60000004D03*
%TD*%
D11*
%TO.C,REF\u002A\u002A*%
X64999998Y0D03*
%TD*%
%TO.C,REF\u002A\u002A*%
X11250000Y-17125003D03*
%TD*%
%TO.C,REF\u002A\u002A*%
X71166665Y-65000003D03*
%TD*%
%TO.C,REF\u002A\u002A*%
X48749999Y-41125003D03*
%TD*%
%TO.C,REF\u002A\u002A*%
X29124998Y-35250001D03*
%TD*%
D10*
%TO.C,J3*%
X43749999Y-60000004D03*
%TD*%
%TO.C,J1*%
X11999999Y-43750004D03*
%TD*%
D11*
%TO.C,REF\u002A\u002A*%
X7000000Y-5000000D03*
%TD*%
D10*
%TO.C,J1*%
X47999999Y-31750004D03*
%TD*%
D11*
%TO.C,REF\u002A\u002A*%
X35249999Y-41125003D03*
%TD*%
%TO.C,REF\u002A\u002A*%
X36749999Y-54875003D03*
%TD*%
%TO.C,REF\u002A\u002A*%
X23249999Y-29125003D03*
%TD*%
%TO.C,REF\u002A\u002A*%
X36749999Y-6875004D03*
%TD*%
%TO.C,REF\u002A\u002A*%
X4166667Y-7000000D03*
%TD*%
D10*
%TO.C,J4*%
X28249999Y-60000004D03*
%TD*%
%TO.C,J1*%
X11999999Y-7750004D03*
%TD*%
%TO.C,J2*%
X47999999Y-64250004D03*
%TD*%
D11*
%TO.C,REF\u002A\u002A*%
X11250000Y-41125003D03*
%TD*%
D10*
%TO.C,J4*%
X52249999Y-24000004D03*
%TD*%
%TO.C,J3*%
X55749999Y-24000004D03*
%TD*%
D11*
%TO.C,REF\u002A\u002A*%
X29124998Y-48750001D03*
%TD*%
%TO.C,REF\u002A\u002A*%
X64999998Y-67000004D03*
%TD*%
%TO.C,REF\u002A\u002A*%
X11250000Y-42875000D03*
%TD*%
D10*
%TO.C,J3*%
X55749999Y-60000004D03*
%TD*%
D11*
%TO.C,REF\u002A\u002A*%
X18874999Y-47250001D03*
%TD*%
%TO.C,REF\u002A\u002A*%
X71999999Y-7000000D03*
%TD*%
%TO.C,REF\u002A\u002A*%
X54874999Y-35250001D03*
%TD*%
%TO.C,REF\u002A\u002A*%
X64999998Y-3333334D03*
%TD*%
%TO.C,REF\u002A\u002A*%
X24749999Y-42875003D03*
%TD*%
%TO.C,REF\u002A\u002A*%
X30874999Y-60750001D03*
%TD*%
%TO.C,REF\u002A\u002A*%
X68666665Y-7000000D03*
%TD*%
%TO.C,REF\u002A\u002A*%
X12749999Y-42875003D03*
%TD*%
%TO.C,REF\u002A\u002A*%
X30874999Y-48750001D03*
%TD*%
D10*
%TO.C,J3*%
X7749999Y-48000004D03*
%TD*%
D11*
%TO.C,REF\u002A\u002A*%
X48749999Y-65125003D03*
%TD*%
%TO.C,REF\u002A\u002A*%
X24749999Y-53125003D03*
%TD*%
D10*
%TO.C,J3*%
X43749999Y-36000004D03*
%TD*%
D11*
%TO.C,REF\u002A\u002A*%
X24749999Y-18875003D03*
%TD*%
D10*
%TO.C,J3*%
X55749999Y-36000004D03*
%TD*%
D11*
%TO.C,REF\u002A\u002A*%
X36749999Y-18875003D03*
%TD*%
%TO.C,REF\u002A\u002A*%
X0Y-65000003D03*
%TD*%
D10*
%TO.C,J3*%
X31749999Y-12000004D03*
%TD*%
%TO.C,J1*%
X47999999Y-43750004D03*
%TD*%
%TO.C,J1*%
X23999999Y-55750004D03*
%TD*%
%TO.C,J4*%
X40249999Y-48000004D03*
%TD*%
D11*
%TO.C,REF\u002A\u002A*%
X5000000Y-65000003D03*
%TD*%
D10*
%TO.C,J4*%
X40249999Y-60000004D03*
%TD*%
D11*
%TO.C,REF\u002A\u002A*%
X65124998Y-47250001D03*
%TD*%
%TO.C,REF\u002A\u002A*%
X7000000Y-69500004D03*
%TD*%
%TO.C,REF\u002A\u002A*%
X24749999Y-17125003D03*
%TD*%
D10*
%TO.C,J1*%
X47999999Y-55750004D03*
%TD*%
D11*
%TO.C,REF\u002A\u002A*%
X6875000Y-47250001D03*
%TD*%
D10*
%TO.C,J2*%
X35999999Y-52250004D03*
%TD*%
D11*
%TO.C,REF\u002A\u002A*%
X11250000Y-54875000D03*
%TD*%
%TO.C,REF\u002A\u002A*%
X23249999Y-18875000D03*
%TD*%
%TO.C,REF\u002A\u002A*%
X7000000Y-1666667D03*
%TD*%
D10*
%TO.C,J3*%
X43749999Y-48000004D03*
%TD*%
D11*
%TO.C,REF\u002A\u002A*%
X41124998Y-35250001D03*
%TD*%
%TO.C,REF\u002A\u002A*%
X23249999Y-65125003D03*
%TD*%
%TO.C,REF\u002A\u002A*%
X53124998Y-59250001D03*
%TD*%
%TO.C,REF\u002A\u002A*%
X47249999Y-54875000D03*
%TD*%
%TO.C,REF\u002A\u002A*%
X17124998Y-12750001D03*
%TD*%
%TO.C,REF\u002A\u002A*%
X64999998Y-70333337D03*
%TD*%
%TO.C,REF\u002A\u002A*%
X18874999Y-12750001D03*
%TD*%
D10*
%TO.C,J3*%
X43749999Y-12000004D03*
%TD*%
D11*
%TO.C,REF\u002A\u002A*%
X48749999Y-42875003D03*
%TD*%
D10*
%TO.C,J2*%
X59999999Y-40250004D03*
%TD*%
%TO.C,J3*%
X31749999Y-48000004D03*
%TD*%
D11*
%TO.C,REF\u002A\u002A*%
X23249999Y-30875000D03*
%TD*%
%TO.C,REF\u002A\u002A*%
X12749999Y-54875003D03*
%TD*%
D10*
%TO.C,J2*%
X47999999Y-16250004D03*
%TD*%
D11*
%TO.C,REF\u002A\u002A*%
X64999998Y-5000000D03*
%TD*%
D10*
%TO.C,J3*%
X7749999Y-24000004D03*
%TD*%
D11*
%TO.C,REF\u002A\u002A*%
X18874999Y-24750001D03*
%TD*%
%TO.C,REF\u002A\u002A*%
X59249999Y-18875000D03*
%TD*%
%TO.C,REF\u002A\u002A*%
X30874999Y-11250002D03*
%TD*%
%TO.C,REF\u002A\u002A*%
X36749999Y-30875003D03*
%TD*%
%TO.C,REF\u002A\u002A*%
X24749999Y-54875003D03*
%TD*%
D10*
%TO.C,J3*%
X55749999Y-12000004D03*
%TD*%
D11*
%TO.C,REF\u002A\u002A*%
X59249999Y-30875000D03*
%TD*%
D10*
%TO.C,J2*%
X35999999Y-64250004D03*
%TD*%
D11*
%TO.C,REF\u002A\u002A*%
X35249999Y-6875001D03*
%TD*%
%TO.C,REF\u002A\u002A*%
X24749999Y-30875003D03*
%TD*%
%TO.C,REF\u002A\u002A*%
X12749999Y-41125003D03*
%TD*%
%TO.C,REF\u002A\u002A*%
X42874999Y-47250001D03*
%TD*%
%TO.C,REF\u002A\u002A*%
X833334Y-65000003D03*
%TD*%
%TO.C,REF\u002A\u002A*%
X6875000Y-48750001D03*
%TD*%
D10*
%TO.C,J2*%
X11999999Y-40250004D03*
%TD*%
D11*
%TO.C,REF\u002A\u002A*%
X64999998Y-71166670D03*
%TD*%
%TO.C,REF\u002A\u002A*%
X2500000Y-7000000D03*
%TD*%
D10*
%TO.C,J3*%
X31749999Y-60000004D03*
%TD*%
D11*
%TO.C,REF\u002A\u002A*%
X60749999Y-42875003D03*
%TD*%
%TO.C,REF\u002A\u002A*%
X65124998Y-12750001D03*
%TD*%
%TO.C,REF\u002A\u002A*%
X59249999Y-65125003D03*
%TD*%
%TO.C,REF\u002A\u002A*%
X18874999Y-59250001D03*
%TD*%
%TO.C,REF\u002A\u002A*%
X23249999Y-54875000D03*
%TD*%
%TO.C,REF\u002A\u002A*%
X11250000Y-18875000D03*
%TD*%
%TO.C,REF\u002A\u002A*%
X59249999Y-42875000D03*
%TD*%
%TO.C,REF\u002A\u002A*%
X60749999Y-54875003D03*
%TD*%
D10*
%TO.C,J2*%
X23999999Y-40250004D03*
%TD*%
%TO.C,J2*%
X47999999Y-28250004D03*
%TD*%
D11*
%TO.C,REF\u002A\u002A*%
X7000000Y-833334D03*
%TD*%
%TO.C,REF\u002A\u002A*%
X64999998Y-4166667D03*
%TD*%
%TO.C,REF\u002A\u002A*%
X17124998Y-47250001D03*
%TD*%
D10*
%TO.C,J3*%
X31749999Y-36000004D03*
%TD*%
D11*
%TO.C,REF\u002A\u002A*%
X29124998Y-11250002D03*
%TD*%
%TO.C,REF\u002A\u002A*%
X60749999Y-41125003D03*
%TD*%
%TO.C,REF\u002A\u002A*%
X41124998Y-48750001D03*
%TD*%
%TO.C,REF\u002A\u002A*%
X48749999Y-53125003D03*
%TD*%
%TO.C,REF\u002A\u002A*%
X59249999Y-29125003D03*
%TD*%
D10*
%TO.C,J1*%
X23999999Y-7750004D03*
%TD*%
D11*
%TO.C,REF\u002A\u002A*%
X71166665Y-7000000D03*
%TD*%
%TO.C,REF\u002A\u002A*%
X48749999Y-54875003D03*
%TD*%
%TO.C,REF\u002A\u002A*%
X6875000Y-23250001D03*
%TD*%
%TO.C,REF\u002A\u002A*%
X60749999Y-6875004D03*
%TD*%
D10*
%TO.C,J1*%
X23999999Y-31750004D03*
%TD*%
D11*
%TO.C,REF\u002A\u002A*%
X6875000Y-24750001D03*
%TD*%
D10*
%TO.C,J3*%
X55749999Y-48000004D03*
%TD*%
D11*
%TO.C,REF\u002A\u002A*%
X12749999Y-17125003D03*
%TD*%
%TO.C,REF\u002A\u002A*%
X36749999Y-41125003D03*
%TD*%
%TO.C,REF\u002A\u002A*%
X54874999Y-48750001D03*
%TD*%
%TO.C,REF\u002A\u002A*%
X1666667Y-65000003D03*
%TD*%
%TO.C,REF\u002A\u002A*%
X42874999Y-48750001D03*
%TD*%
%TO.C,REF\u002A\u002A*%
X66999999Y-65000003D03*
%TD*%
%TO.C,REF\u002A\u002A*%
X70333332Y-65000003D03*
%TD*%
%TO.C,REF\u002A\u002A*%
X59249999Y-6875001D03*
%TD*%
%TO.C,REF\u002A\u002A*%
X41124998Y-24750001D03*
%TD*%
%TO.C,REF\u002A\u002A*%
X48749999Y-17125003D03*
%TD*%
%TO.C,REF\u002A\u002A*%
X54874999Y-23250001D03*
%TD*%
D10*
%TO.C,J4*%
X52249999Y-12000004D03*
%TD*%
D11*
%TO.C,REF\u002A\u002A*%
X7000000Y-70333337D03*
%TD*%
%TO.C,REF\u002A\u002A*%
X6875000Y-12750001D03*
%TD*%
D10*
%TO.C,J2*%
X59999999Y-28250004D03*
%TD*%
D11*
%TO.C,REF\u002A\u002A*%
X7000000Y-4166667D03*
%TD*%
%TO.C,REF\u002A\u002A*%
X24749999Y-29125003D03*
%TD*%
D10*
%TO.C,J4*%
X16249999Y-24000004D03*
%TD*%
%TO.C,J1*%
X11999999Y-31750004D03*
%TD*%
D11*
%TO.C,REF\u002A\u002A*%
X53124998Y-35250001D03*
%TD*%
%TO.C,REF\u002A\u002A*%
X54874999Y-60750001D03*
%TD*%
%TO.C,REF\u002A\u002A*%
X35249999Y-65125003D03*
%TD*%
D12*
%TO.C,REF\u002A\u002A*%
X2500000Y-2500000D03*
%TD*%
%TO.C,REF\u002A\u002A*%
X2500000Y-69500004D03*
%TD*%
%TO.C,REF\u002A\u002A*%
X69499999Y-2500000D03*
%TD*%
M02*
