%TF.GenerationSoftware,KiCad,Pcbnew,7.0.6-1.fc38*%
%TF.CreationDate,2023-07-26T15:00:37-04:00*%
%TF.ProjectId,bno085-i2c-board-v4-panel,626e6f30-3835-42d6-9932-632d626f6172,rev?*%
%TF.SameCoordinates,Original*%
%TF.FileFunction,Copper,L2,Bot*%
%TF.FilePolarity,Positive*%
%FSLAX46Y46*%
G04 Gerber Fmt 4.6, Leading zero omitted, Abs format (unit mm)*
G04 Created by KiCad (PCBNEW 7.0.6-1.fc38) date 2023-07-26 15:00:37*
%MOMM*%
%LPD*%
G01*
G04 APERTURE LIST*
%TA.AperFunction,ComponentPad*%
%ADD10R,0.850000X0.850000*%
%TD*%
%TA.AperFunction,SMDPad,CuDef*%
%ADD11C,4.000000*%
%TD*%
%TA.AperFunction,ViaPad*%
%ADD12C,0.600000*%
%TD*%
%TA.AperFunction,Conductor*%
%ADD13C,0.200000*%
%TD*%
G04 APERTURE END LIST*
D10*
%TO.P,J3,1,Pin_1*%
%TO.N,Board_16-+3.3V*%
X19749999Y-48000004D03*
%TD*%
%TO.P,J4,1,Pin_1*%
%TO.N,Board_2-GND*%
X40249999Y-12000004D03*
%TD*%
%TO.P,J1,1,Pin_1*%
%TO.N,Board_5-Net-(J1-Pin_1)*%
X11999999Y-19750004D03*
%TD*%
%TO.P,J2,1,Pin_1*%
%TO.N,Board_4-Net-(J2-Pin_1)*%
X59999999Y-16250004D03*
%TD*%
%TO.P,J2,1,Pin_1*%
%TO.N,Board_5-Net-(J2-Pin_1)*%
X11999999Y-28250004D03*
%TD*%
%TO.P,J4,1,Pin_1*%
%TO.N,Board_24-GND*%
X64249999Y-60000004D03*
%TD*%
%TO.P,J4,1,Pin_1*%
%TO.N,Board_11-GND*%
X28249999Y-36000004D03*
%TD*%
%TO.P,J3,1,Pin_1*%
%TO.N,Board_7-+3.3V*%
X31749999Y-24000004D03*
%TD*%
%TO.P,J2,1,Pin_1*%
%TO.N,Board_19-Net-(J2-Pin_1)*%
X59999999Y-52250004D03*
%TD*%
%TO.P,J4,1,Pin_1*%
%TO.N,Board_10-GND*%
X16249999Y-36000004D03*
%TD*%
%TO.P,J4,1,Pin_1*%
%TO.N,Board_19-GND*%
X64249999Y-48000004D03*
%TD*%
%TO.P,J4,1,Pin_1*%
%TO.N,Board_12-GND*%
X40249999Y-36000004D03*
%TD*%
%TO.P,J2,1,Pin_1*%
%TO.N,Board_13-Net-(J2-Pin_1)*%
X47999999Y-40250004D03*
%TD*%
%TO.P,J1,1,Pin_1*%
%TO.N,Board_7-Net-(J1-Pin_1)*%
X35999999Y-19750004D03*
%TD*%
%TO.P,J1,1,Pin_1*%
%TO.N,Board_14-Net-(J1-Pin_1)*%
X59999999Y-31750004D03*
%TD*%
%TO.P,J4,1,Pin_1*%
%TO.N,Board_4-GND*%
X64249999Y-12000004D03*
%TD*%
%TO.P,J1,1,Pin_1*%
%TO.N,Board_20-Net-(J1-Pin_1)*%
X11999999Y-55750004D03*
%TD*%
%TO.P,J2,1,Pin_1*%
%TO.N,Board_2-Net-(J2-Pin_1)*%
X35999999Y-16250004D03*
%TD*%
%TO.P,J4,1,Pin_1*%
%TO.N,Board_16-GND*%
X28249999Y-48000004D03*
%TD*%
%TO.P,J2,1,Pin_1*%
%TO.N,Board_20-Net-(J2-Pin_1)*%
X11999999Y-64250004D03*
%TD*%
%TO.P,J2,1,Pin_1*%
%TO.N,Board_16-Net-(J2-Pin_1)*%
X23999999Y-52250004D03*
%TD*%
%TO.P,J2,1,Pin_1*%
%TO.N,Board_12-Net-(J2-Pin_1)*%
X35999999Y-40250004D03*
%TD*%
%TO.P,J1,1,Pin_1*%
%TO.N,Board_2-Net-(J1-Pin_1)*%
X35999999Y-7750004D03*
%TD*%
%TO.P,J3,1,Pin_1*%
%TO.N,Board_10-+3.3V*%
X7749999Y-36000004D03*
%TD*%
%TO.P,J4,1,Pin_1*%
%TO.N,Board_13-GND*%
X52249999Y-36000004D03*
%TD*%
%TO.P,J1,1,Pin_1*%
%TO.N,Board_19-Net-(J1-Pin_1)*%
X59999999Y-43750004D03*
%TD*%
%TO.P,J1,1,Pin_1*%
%TO.N,Board_16-Net-(J1-Pin_1)*%
X23999999Y-43750004D03*
%TD*%
%TO.P,J4,1,Pin_1*%
%TO.N,Board_23-GND*%
X52249999Y-60000004D03*
%TD*%
%TO.P,J1,1,Pin_1*%
%TO.N,Board_4-Net-(J1-Pin_1)*%
X59999999Y-7750004D03*
%TD*%
%TO.P,J3,1,Pin_1*%
%TO.N,Board_8-+3.3V*%
X43749999Y-24000004D03*
%TD*%
%TO.P,J4,1,Pin_1*%
%TO.N,Board_7-GND*%
X40249999Y-24000004D03*
%TD*%
%TO.P,J3,1,Pin_1*%
%TO.N,Board_21-+3.3V*%
X19749999Y-60000004D03*
%TD*%
%TO.P,J2,1,Pin_1*%
%TO.N,Board_15-Net-(J2-Pin_1)*%
X11999999Y-52250004D03*
%TD*%
%TO.P,J2,1,Pin_1*%
%TO.N,Board_7-Net-(J2-Pin_1)*%
X35999999Y-28250004D03*
%TD*%
%TO.P,J3,1,Pin_1*%
%TO.N,Board_11-+3.3V*%
X19749999Y-36000004D03*
%TD*%
%TO.P,J4,1,Pin_1*%
%TO.N,Board_20-GND*%
X16249999Y-60000004D03*
%TD*%
%TO.P,J4,1,Pin_1*%
%TO.N,Board_15-GND*%
X16249999Y-48000004D03*
%TD*%
%TO.P,J3,1,Pin_1*%
%TO.N,Board_1-+3.3V*%
X19749999Y-12000004D03*
%TD*%
%TO.P,J2,1,Pin_1*%
%TO.N,Board_0-Net-(J2-Pin_1)*%
X11999999Y-16250004D03*
%TD*%
%TO.P,J4,1,Pin_1*%
%TO.N,Board_0-GND*%
X16249999Y-12000004D03*
%TD*%
%TO.P,J2,1,Pin_1*%
%TO.N,Board_6-Net-(J2-Pin_1)*%
X23999999Y-28250004D03*
%TD*%
%TO.P,J1,1,Pin_1*%
%TO.N,Board_8-Net-(J1-Pin_1)*%
X47999999Y-19750004D03*
%TD*%
%TO.P,J3,1,Pin_1*%
%TO.N,Board_0-+3.3V*%
X7749999Y-12000004D03*
%TD*%
%TO.P,J4,1,Pin_1*%
%TO.N,Board_9-GND*%
X64249999Y-24000004D03*
%TD*%
%TO.P,J2,1,Pin_1*%
%TO.N,Board_18-Net-(J2-Pin_1)*%
X47999999Y-52250004D03*
%TD*%
%TO.P,J2,1,Pin_1*%
%TO.N,Board_21-Net-(J2-Pin_1)*%
X23999999Y-64250004D03*
%TD*%
%TO.P,J1,1,Pin_1*%
%TO.N,Board_17-Net-(J1-Pin_1)*%
X35999999Y-43750004D03*
%TD*%
%TO.P,J4,1,Pin_1*%
%TO.N,Board_6-GND*%
X28249999Y-24000004D03*
%TD*%
%TO.P,J4,1,Pin_1*%
%TO.N,Board_14-GND*%
X64249999Y-36000004D03*
%TD*%
%TO.P,J1,1,Pin_1*%
%TO.N,Board_24-Net-(J1-Pin_1)*%
X59999999Y-55750004D03*
%TD*%
%TO.P,J2,1,Pin_1*%
%TO.N,Board_1-Net-(J2-Pin_1)*%
X23999999Y-16250004D03*
%TD*%
%TO.P,J1,1,Pin_1*%
%TO.N,Board_9-Net-(J1-Pin_1)*%
X59999999Y-19750004D03*
%TD*%
%TO.P,J1,1,Pin_1*%
%TO.N,Board_6-Net-(J1-Pin_1)*%
X23999999Y-19750004D03*
%TD*%
%TO.P,J1,1,Pin_1*%
%TO.N,Board_22-Net-(J1-Pin_1)*%
X35999999Y-55750004D03*
%TD*%
%TO.P,J4,1,Pin_1*%
%TO.N,Board_1-GND*%
X28249999Y-12000004D03*
%TD*%
%TO.P,J4,1,Pin_1*%
%TO.N,Board_18-GND*%
X52249999Y-48000004D03*
%TD*%
%TO.P,J3,1,Pin_1*%
%TO.N,Board_6-+3.3V*%
X19749999Y-24000004D03*
%TD*%
%TO.P,J1,1,Pin_1*%
%TO.N,Board_3-Net-(J1-Pin_1)*%
X47999999Y-7750004D03*
%TD*%
%TO.P,J1,1,Pin_1*%
%TO.N,Board_12-Net-(J1-Pin_1)*%
X35999999Y-31750004D03*
%TD*%
%TO.P,J2,1,Pin_1*%
%TO.N,Board_24-Net-(J2-Pin_1)*%
X59999999Y-64250004D03*
%TD*%
%TO.P,J3,1,Pin_1*%
%TO.N,Board_20-+3.3V*%
X7749999Y-60000004D03*
%TD*%
%TO.P,J3,1,Pin_1*%
%TO.N,Board_23-+3.3V*%
X43749999Y-60000004D03*
%TD*%
%TO.P,J1,1,Pin_1*%
%TO.N,Board_15-Net-(J1-Pin_1)*%
X11999999Y-43750004D03*
%TD*%
%TO.P,J1,1,Pin_1*%
%TO.N,Board_13-Net-(J1-Pin_1)*%
X47999999Y-31750004D03*
%TD*%
%TO.P,J4,1,Pin_1*%
%TO.N,Board_21-GND*%
X28249999Y-60000004D03*
%TD*%
%TO.P,J1,1,Pin_1*%
%TO.N,Board_0-Net-(J1-Pin_1)*%
X11999999Y-7750004D03*
%TD*%
%TO.P,J2,1,Pin_1*%
%TO.N,Board_23-Net-(J2-Pin_1)*%
X47999999Y-64250004D03*
%TD*%
%TO.P,J4,1,Pin_1*%
%TO.N,Board_8-GND*%
X52249999Y-24000004D03*
%TD*%
%TO.P,J3,1,Pin_1*%
%TO.N,Board_9-+3.3V*%
X55749999Y-24000004D03*
%TD*%
%TO.P,J3,1,Pin_1*%
%TO.N,Board_24-+3.3V*%
X55749999Y-60000004D03*
%TD*%
%TO.P,J3,1,Pin_1*%
%TO.N,Board_15-+3.3V*%
X7749999Y-48000004D03*
%TD*%
%TO.P,J3,1,Pin_1*%
%TO.N,Board_13-+3.3V*%
X43749999Y-36000004D03*
%TD*%
%TO.P,J3,1,Pin_1*%
%TO.N,Board_14-+3.3V*%
X55749999Y-36000004D03*
%TD*%
%TO.P,J3,1,Pin_1*%
%TO.N,Board_2-+3.3V*%
X31749999Y-12000004D03*
%TD*%
%TO.P,J1,1,Pin_1*%
%TO.N,Board_18-Net-(J1-Pin_1)*%
X47999999Y-43750004D03*
%TD*%
%TO.P,J1,1,Pin_1*%
%TO.N,Board_21-Net-(J1-Pin_1)*%
X23999999Y-55750004D03*
%TD*%
%TO.P,J4,1,Pin_1*%
%TO.N,Board_17-GND*%
X40249999Y-48000004D03*
%TD*%
%TO.P,J4,1,Pin_1*%
%TO.N,Board_22-GND*%
X40249999Y-60000004D03*
%TD*%
%TO.P,J1,1,Pin_1*%
%TO.N,Board_23-Net-(J1-Pin_1)*%
X47999999Y-55750004D03*
%TD*%
%TO.P,J2,1,Pin_1*%
%TO.N,Board_17-Net-(J2-Pin_1)*%
X35999999Y-52250004D03*
%TD*%
%TO.P,J3,1,Pin_1*%
%TO.N,Board_18-+3.3V*%
X43749999Y-48000004D03*
%TD*%
%TO.P,J3,1,Pin_1*%
%TO.N,Board_3-+3.3V*%
X43749999Y-12000004D03*
%TD*%
%TO.P,J2,1,Pin_1*%
%TO.N,Board_14-Net-(J2-Pin_1)*%
X59999999Y-40250004D03*
%TD*%
%TO.P,J3,1,Pin_1*%
%TO.N,Board_17-+3.3V*%
X31749999Y-48000004D03*
%TD*%
%TO.P,J2,1,Pin_1*%
%TO.N,Board_3-Net-(J2-Pin_1)*%
X47999999Y-16250004D03*
%TD*%
%TO.P,J3,1,Pin_1*%
%TO.N,Board_5-+3.3V*%
X7749999Y-24000004D03*
%TD*%
%TO.P,J3,1,Pin_1*%
%TO.N,Board_4-+3.3V*%
X55749999Y-12000004D03*
%TD*%
%TO.P,J2,1,Pin_1*%
%TO.N,Board_22-Net-(J2-Pin_1)*%
X35999999Y-64250004D03*
%TD*%
%TO.P,J2,1,Pin_1*%
%TO.N,Board_10-Net-(J2-Pin_1)*%
X11999999Y-40250004D03*
%TD*%
%TO.P,J3,1,Pin_1*%
%TO.N,Board_22-+3.3V*%
X31749999Y-60000004D03*
%TD*%
%TO.P,J2,1,Pin_1*%
%TO.N,Board_11-Net-(J2-Pin_1)*%
X23999999Y-40250004D03*
%TD*%
%TO.P,J2,1,Pin_1*%
%TO.N,Board_8-Net-(J2-Pin_1)*%
X47999999Y-28250004D03*
%TD*%
%TO.P,J3,1,Pin_1*%
%TO.N,Board_12-+3.3V*%
X31749999Y-36000004D03*
%TD*%
%TO.P,J1,1,Pin_1*%
%TO.N,Board_1-Net-(J1-Pin_1)*%
X23999999Y-7750004D03*
%TD*%
%TO.P,J1,1,Pin_1*%
%TO.N,Board_11-Net-(J1-Pin_1)*%
X23999999Y-31750004D03*
%TD*%
%TO.P,J3,1,Pin_1*%
%TO.N,Board_19-+3.3V*%
X55749999Y-48000004D03*
%TD*%
%TO.P,J4,1,Pin_1*%
%TO.N,Board_3-GND*%
X52249999Y-12000004D03*
%TD*%
%TO.P,J2,1,Pin_1*%
%TO.N,Board_9-Net-(J2-Pin_1)*%
X59999999Y-28250004D03*
%TD*%
%TO.P,J4,1,Pin_1*%
%TO.N,Board_5-GND*%
X16249999Y-24000004D03*
%TD*%
%TO.P,J1,1,Pin_1*%
%TO.N,Board_10-Net-(J1-Pin_1)*%
X11999999Y-31750004D03*
%TD*%
D11*
%TO.P,REF\u002A\u002A,*%
%TO.N,*%
X2500000Y-2500000D03*
%TD*%
%TO.P,REF\u002A\u002A,*%
%TO.N,*%
X2500000Y-69500004D03*
%TD*%
%TO.P,REF\u002A\u002A,*%
%TO.N,*%
X69499999Y-2500000D03*
%TD*%
D12*
%TO.N,Board_0-+3.3V*%
X12979999Y-13360004D03*
X10579999Y-9060004D03*
X14534999Y-8805004D03*
%TO.N,Board_0-Net-(J2-Pin_1)*%
X13179999Y-11860004D03*
%TO.N,Board_1-+3.3V*%
X24979999Y-13360004D03*
X26534999Y-8805004D03*
X22579999Y-9060004D03*
%TO.N,Board_1-Net-(J2-Pin_1)*%
X25179999Y-11860004D03*
%TO.N,Board_2-+3.3V*%
X38534999Y-8805004D03*
X36979999Y-13360004D03*
X34579999Y-9060004D03*
%TO.N,Board_2-Net-(J2-Pin_1)*%
X37179999Y-11860004D03*
%TO.N,Board_3-+3.3V*%
X46579999Y-9060004D03*
X48979999Y-13360004D03*
X50534999Y-8805004D03*
%TO.N,Board_3-Net-(J2-Pin_1)*%
X49179999Y-11860004D03*
%TO.N,Board_4-+3.3V*%
X62534999Y-8805004D03*
X58579999Y-9060004D03*
X60979999Y-13360004D03*
%TO.N,Board_4-Net-(J2-Pin_1)*%
X61179999Y-11860004D03*
%TO.N,Board_5-+3.3V*%
X10579999Y-21060004D03*
X14534999Y-20805004D03*
X12979999Y-25360004D03*
%TO.N,Board_5-Net-(J2-Pin_1)*%
X13179999Y-23860004D03*
%TO.N,Board_6-+3.3V*%
X26534999Y-20805004D03*
X24979999Y-25360004D03*
X22579999Y-21060004D03*
%TO.N,Board_6-Net-(J2-Pin_1)*%
X25179999Y-23860004D03*
%TO.N,Board_7-+3.3V*%
X38534999Y-20805004D03*
X34579999Y-21060004D03*
X36979999Y-25360004D03*
%TO.N,Board_7-Net-(J2-Pin_1)*%
X37179999Y-23860004D03*
%TO.N,Board_8-+3.3V*%
X46579999Y-21060004D03*
X50534999Y-20805004D03*
X48979999Y-25360004D03*
%TO.N,Board_8-Net-(J2-Pin_1)*%
X49179999Y-23860004D03*
%TO.N,Board_9-+3.3V*%
X62534999Y-20805004D03*
X60979999Y-25360004D03*
X58579999Y-21060004D03*
%TO.N,Board_9-Net-(J2-Pin_1)*%
X61179999Y-23860004D03*
%TO.N,Board_10-+3.3V*%
X10579999Y-33060004D03*
X12979999Y-37360004D03*
X14534999Y-32805004D03*
%TO.N,Board_10-Net-(J2-Pin_1)*%
X13179999Y-35860004D03*
%TO.N,Board_11-+3.3V*%
X26534999Y-32805004D03*
X22579999Y-33060004D03*
X24979999Y-37360004D03*
%TO.N,Board_11-Net-(J2-Pin_1)*%
X25179999Y-35860004D03*
%TO.N,Board_12-+3.3V*%
X38534999Y-32805004D03*
X36979999Y-37360004D03*
X34579999Y-33060004D03*
%TO.N,Board_12-Net-(J2-Pin_1)*%
X37179999Y-35860004D03*
%TO.N,Board_13-+3.3V*%
X46579999Y-33060004D03*
X50534999Y-32805004D03*
X48979999Y-37360004D03*
%TO.N,Board_13-Net-(J2-Pin_1)*%
X49179999Y-35860004D03*
%TO.N,Board_14-+3.3V*%
X62534999Y-32805004D03*
X58579999Y-33060004D03*
X60979999Y-37360004D03*
%TO.N,Board_14-Net-(J2-Pin_1)*%
X61179999Y-35860004D03*
%TO.N,Board_15-+3.3V*%
X10579999Y-45060004D03*
X12979999Y-49360004D03*
X14534999Y-44805004D03*
%TO.N,Board_15-Net-(J2-Pin_1)*%
X13179999Y-47860004D03*
%TO.N,Board_16-+3.3V*%
X26534999Y-44805004D03*
X24979999Y-49360004D03*
X22579999Y-45060004D03*
%TO.N,Board_16-Net-(J2-Pin_1)*%
X25179999Y-47860004D03*
%TO.N,Board_17-+3.3V*%
X36979999Y-49360004D03*
X34579999Y-45060004D03*
X38534999Y-44805004D03*
%TO.N,Board_17-Net-(J2-Pin_1)*%
X37179999Y-47860004D03*
%TO.N,Board_18-+3.3V*%
X46579999Y-45060004D03*
X48979999Y-49360004D03*
X50534999Y-44805004D03*
%TO.N,Board_18-Net-(J2-Pin_1)*%
X49179999Y-47860004D03*
%TO.N,Board_19-+3.3V*%
X58579999Y-45060004D03*
X60979999Y-49360004D03*
X62534999Y-44805004D03*
%TO.N,Board_19-Net-(J2-Pin_1)*%
X61179999Y-47860004D03*
%TO.N,Board_20-+3.3V*%
X10579999Y-57060004D03*
X14534999Y-56805004D03*
X12979999Y-61360004D03*
%TO.N,Board_20-Net-(J2-Pin_1)*%
X13179999Y-59860004D03*
%TO.N,Board_21-+3.3V*%
X26534999Y-56805004D03*
X24979999Y-61360004D03*
X22579999Y-57060004D03*
%TO.N,Board_21-Net-(J2-Pin_1)*%
X25179999Y-59860004D03*
%TO.N,Board_22-+3.3V*%
X36979999Y-61360004D03*
X38534999Y-56805004D03*
X34579999Y-57060004D03*
%TO.N,Board_22-Net-(J2-Pin_1)*%
X37179999Y-59860004D03*
%TO.N,Board_23-+3.3V*%
X48979999Y-61360004D03*
X46579999Y-57060004D03*
X50534999Y-56805004D03*
%TO.N,Board_23-Net-(J2-Pin_1)*%
X49179999Y-59860004D03*
%TO.N,Board_24-+3.3V*%
X60979999Y-61360004D03*
X62534999Y-56805004D03*
X58579999Y-57060004D03*
%TO.N,Board_24-Net-(J2-Pin_1)*%
X61179999Y-59860004D03*
%TD*%
D13*
%TO.N,Board_0-+3.3V*%
X14279999Y-9060004D02*
X14534999Y-8805004D01*
X7749999Y-11344744D02*
X10034739Y-9060004D01*
X10579999Y-9060004D02*
X14279999Y-9060004D01*
X7749999Y-12000004D02*
X7749999Y-11344744D01*
X11619999Y-12000004D02*
X12979999Y-13360004D01*
X7749999Y-12000004D02*
X11619999Y-12000004D01*
X10034739Y-9060004D02*
X10579999Y-9060004D01*
%TO.N,Board_0-Net-(J2-Pin_1)*%
X11999999Y-16250004D02*
X13688387Y-14561616D01*
X13688387Y-14561616D02*
X13688387Y-12368392D01*
X13688387Y-12368392D02*
X13179999Y-11860004D01*
%TO.N,Board_1-+3.3V*%
X19749999Y-12000004D02*
X23619999Y-12000004D01*
X19749999Y-12000004D02*
X19749999Y-11344744D01*
X22579999Y-9060004D02*
X26279999Y-9060004D01*
X19749999Y-11344744D02*
X22034739Y-9060004D01*
X22034739Y-9060004D02*
X22579999Y-9060004D01*
X23619999Y-12000004D02*
X24979999Y-13360004D01*
X26279999Y-9060004D02*
X26534999Y-8805004D01*
%TO.N,Board_1-Net-(J2-Pin_1)*%
X25688387Y-14561616D02*
X25688387Y-12368392D01*
X25688387Y-12368392D02*
X25179999Y-11860004D01*
X23999999Y-16250004D02*
X25688387Y-14561616D01*
%TO.N,Board_2-+3.3V*%
X38279999Y-9060004D02*
X38534999Y-8805004D01*
X34579999Y-9060004D02*
X38279999Y-9060004D01*
X31749999Y-12000004D02*
X35619999Y-12000004D01*
X34034739Y-9060004D02*
X34579999Y-9060004D01*
X31749999Y-11344744D02*
X34034739Y-9060004D01*
X35619999Y-12000004D02*
X36979999Y-13360004D01*
X31749999Y-12000004D02*
X31749999Y-11344744D01*
%TO.N,Board_2-Net-(J2-Pin_1)*%
X37688387Y-12368392D02*
X37179999Y-11860004D01*
X37688387Y-14561616D02*
X37688387Y-12368392D01*
X35999999Y-16250004D02*
X37688387Y-14561616D01*
%TO.N,Board_3-+3.3V*%
X47619999Y-12000004D02*
X48979999Y-13360004D01*
X43749999Y-12000004D02*
X43749999Y-11344744D01*
X43749999Y-11344744D02*
X46034739Y-9060004D01*
X46034739Y-9060004D02*
X46579999Y-9060004D01*
X46579999Y-9060004D02*
X50279999Y-9060004D01*
X43749999Y-12000004D02*
X47619999Y-12000004D01*
X50279999Y-9060004D02*
X50534999Y-8805004D01*
%TO.N,Board_3-Net-(J2-Pin_1)*%
X47999999Y-16250004D02*
X49688387Y-14561616D01*
X49688387Y-12368392D02*
X49179999Y-11860004D01*
X49688387Y-14561616D02*
X49688387Y-12368392D01*
%TO.N,Board_4-+3.3V*%
X59619999Y-12000004D02*
X60979999Y-13360004D01*
X58579999Y-9060004D02*
X62279999Y-9060004D01*
X55749999Y-12000004D02*
X55749999Y-11344744D01*
X55749999Y-11344744D02*
X58034739Y-9060004D01*
X62279999Y-9060004D02*
X62534999Y-8805004D01*
X58034739Y-9060004D02*
X58579999Y-9060004D01*
X55749999Y-12000004D02*
X59619999Y-12000004D01*
%TO.N,Board_4-Net-(J2-Pin_1)*%
X61688387Y-14561616D02*
X61688387Y-12368392D01*
X59999999Y-16250004D02*
X61688387Y-14561616D01*
X61688387Y-12368392D02*
X61179999Y-11860004D01*
%TO.N,Board_5-+3.3V*%
X7749999Y-24000004D02*
X11619999Y-24000004D01*
X11619999Y-24000004D02*
X12979999Y-25360004D01*
X10034739Y-21060004D02*
X10579999Y-21060004D01*
X10579999Y-21060004D02*
X14279999Y-21060004D01*
X14279999Y-21060004D02*
X14534999Y-20805004D01*
X7749999Y-24000004D02*
X7749999Y-23344744D01*
X7749999Y-23344744D02*
X10034739Y-21060004D01*
%TO.N,Board_5-Net-(J2-Pin_1)*%
X13688387Y-24368392D02*
X13179999Y-23860004D01*
X13688387Y-26561616D02*
X13688387Y-24368392D01*
X11999999Y-28250004D02*
X13688387Y-26561616D01*
%TO.N,Board_6-+3.3V*%
X26279999Y-21060004D02*
X26534999Y-20805004D01*
X19749999Y-23344744D02*
X22034739Y-21060004D01*
X23619999Y-24000004D02*
X24979999Y-25360004D01*
X19749999Y-24000004D02*
X23619999Y-24000004D01*
X19749999Y-24000004D02*
X19749999Y-23344744D01*
X22034739Y-21060004D02*
X22579999Y-21060004D01*
X22579999Y-21060004D02*
X26279999Y-21060004D01*
%TO.N,Board_6-Net-(J2-Pin_1)*%
X25688387Y-26561616D02*
X25688387Y-24368392D01*
X23999999Y-28250004D02*
X25688387Y-26561616D01*
X25688387Y-24368392D02*
X25179999Y-23860004D01*
%TO.N,Board_7-+3.3V*%
X31749999Y-24000004D02*
X35619999Y-24000004D01*
X38279999Y-21060004D02*
X38534999Y-20805004D01*
X34579999Y-21060004D02*
X38279999Y-21060004D01*
X34034739Y-21060004D02*
X34579999Y-21060004D01*
X35619999Y-24000004D02*
X36979999Y-25360004D01*
X31749999Y-23344744D02*
X34034739Y-21060004D01*
X31749999Y-24000004D02*
X31749999Y-23344744D01*
%TO.N,Board_7-Net-(J2-Pin_1)*%
X37688387Y-26561616D02*
X37688387Y-24368392D01*
X35999999Y-28250004D02*
X37688387Y-26561616D01*
X37688387Y-24368392D02*
X37179999Y-23860004D01*
%TO.N,Board_8-+3.3V*%
X46579999Y-21060004D02*
X50279999Y-21060004D01*
X47619999Y-24000004D02*
X48979999Y-25360004D01*
X50279999Y-21060004D02*
X50534999Y-20805004D01*
X43749999Y-24000004D02*
X43749999Y-23344744D01*
X43749999Y-24000004D02*
X47619999Y-24000004D01*
X46034739Y-21060004D02*
X46579999Y-21060004D01*
X43749999Y-23344744D02*
X46034739Y-21060004D01*
%TO.N,Board_8-Net-(J2-Pin_1)*%
X47999999Y-28250004D02*
X49688387Y-26561616D01*
X49688387Y-24368392D02*
X49179999Y-23860004D01*
X49688387Y-26561616D02*
X49688387Y-24368392D01*
%TO.N,Board_9-+3.3V*%
X55749999Y-24000004D02*
X55749999Y-23344744D01*
X55749999Y-23344744D02*
X58034739Y-21060004D01*
X55749999Y-24000004D02*
X59619999Y-24000004D01*
X58034739Y-21060004D02*
X58579999Y-21060004D01*
X62279999Y-21060004D02*
X62534999Y-20805004D01*
X59619999Y-24000004D02*
X60979999Y-25360004D01*
X58579999Y-21060004D02*
X62279999Y-21060004D01*
%TO.N,Board_9-Net-(J2-Pin_1)*%
X61688387Y-26561616D02*
X61688387Y-24368392D01*
X61688387Y-24368392D02*
X61179999Y-23860004D01*
X59999999Y-28250004D02*
X61688387Y-26561616D01*
%TO.N,Board_10-+3.3V*%
X7749999Y-36000004D02*
X11619999Y-36000004D01*
X7749999Y-35344744D02*
X10034739Y-33060004D01*
X7749999Y-36000004D02*
X7749999Y-35344744D01*
X10034739Y-33060004D02*
X10579999Y-33060004D01*
X11619999Y-36000004D02*
X12979999Y-37360004D01*
X14279999Y-33060004D02*
X14534999Y-32805004D01*
X10579999Y-33060004D02*
X14279999Y-33060004D01*
%TO.N,Board_10-Net-(J2-Pin_1)*%
X13688387Y-36368392D02*
X13179999Y-35860004D01*
X11999999Y-40250004D02*
X13688387Y-38561616D01*
X13688387Y-38561616D02*
X13688387Y-36368392D01*
%TO.N,Board_11-+3.3V*%
X19749999Y-35344744D02*
X22034739Y-33060004D01*
X22579999Y-33060004D02*
X26279999Y-33060004D01*
X19749999Y-36000004D02*
X19749999Y-35344744D01*
X22034739Y-33060004D02*
X22579999Y-33060004D01*
X26279999Y-33060004D02*
X26534999Y-32805004D01*
X23619999Y-36000004D02*
X24979999Y-37360004D01*
X19749999Y-36000004D02*
X23619999Y-36000004D01*
%TO.N,Board_11-Net-(J2-Pin_1)*%
X25688387Y-36368392D02*
X25179999Y-35860004D01*
X23999999Y-40250004D02*
X25688387Y-38561616D01*
X25688387Y-38561616D02*
X25688387Y-36368392D01*
%TO.N,Board_12-+3.3V*%
X38279999Y-33060004D02*
X38534999Y-32805004D01*
X35619999Y-36000004D02*
X36979999Y-37360004D01*
X34034739Y-33060004D02*
X34579999Y-33060004D01*
X31749999Y-36000004D02*
X31749999Y-35344744D01*
X34579999Y-33060004D02*
X38279999Y-33060004D01*
X31749999Y-36000004D02*
X35619999Y-36000004D01*
X31749999Y-35344744D02*
X34034739Y-33060004D01*
%TO.N,Board_12-Net-(J2-Pin_1)*%
X37688387Y-38561616D02*
X37688387Y-36368392D01*
X37688387Y-36368392D02*
X37179999Y-35860004D01*
X35999999Y-40250004D02*
X37688387Y-38561616D01*
%TO.N,Board_13-+3.3V*%
X43749999Y-36000004D02*
X47619999Y-36000004D01*
X46579999Y-33060004D02*
X50279999Y-33060004D01*
X47619999Y-36000004D02*
X48979999Y-37360004D01*
X46034739Y-33060004D02*
X46579999Y-33060004D01*
X43749999Y-36000004D02*
X43749999Y-35344744D01*
X50279999Y-33060004D02*
X50534999Y-32805004D01*
X43749999Y-35344744D02*
X46034739Y-33060004D01*
%TO.N,Board_13-Net-(J2-Pin_1)*%
X49688387Y-38561616D02*
X49688387Y-36368392D01*
X47999999Y-40250004D02*
X49688387Y-38561616D01*
X49688387Y-36368392D02*
X49179999Y-35860004D01*
%TO.N,Board_14-+3.3V*%
X55749999Y-36000004D02*
X55749999Y-35344744D01*
X62279999Y-33060004D02*
X62534999Y-32805004D01*
X55749999Y-35344744D02*
X58034739Y-33060004D01*
X59619999Y-36000004D02*
X60979999Y-37360004D01*
X58579999Y-33060004D02*
X62279999Y-33060004D01*
X55749999Y-36000004D02*
X59619999Y-36000004D01*
X58034739Y-33060004D02*
X58579999Y-33060004D01*
%TO.N,Board_14-Net-(J2-Pin_1)*%
X61688387Y-36368392D02*
X61179999Y-35860004D01*
X61688387Y-38561616D02*
X61688387Y-36368392D01*
X59999999Y-40250004D02*
X61688387Y-38561616D01*
%TO.N,Board_15-+3.3V*%
X14279999Y-45060004D02*
X14534999Y-44805004D01*
X7749999Y-47344744D02*
X10034739Y-45060004D01*
X10579999Y-45060004D02*
X14279999Y-45060004D01*
X7749999Y-48000004D02*
X7749999Y-47344744D01*
X7749999Y-48000004D02*
X11619999Y-48000004D01*
X10034739Y-45060004D02*
X10579999Y-45060004D01*
X11619999Y-48000004D02*
X12979999Y-49360004D01*
%TO.N,Board_15-Net-(J2-Pin_1)*%
X11999999Y-52250004D02*
X13688387Y-50561616D01*
X13688387Y-48368392D02*
X13179999Y-47860004D01*
X13688387Y-50561616D02*
X13688387Y-48368392D01*
%TO.N,Board_16-+3.3V*%
X22579999Y-45060004D02*
X26279999Y-45060004D01*
X19749999Y-48000004D02*
X23619999Y-48000004D01*
X23619999Y-48000004D02*
X24979999Y-49360004D01*
X22034739Y-45060004D02*
X22579999Y-45060004D01*
X19749999Y-48000004D02*
X19749999Y-47344744D01*
X19749999Y-47344744D02*
X22034739Y-45060004D01*
X26279999Y-45060004D02*
X26534999Y-44805004D01*
%TO.N,Board_16-Net-(J2-Pin_1)*%
X23999999Y-52250004D02*
X25688387Y-50561616D01*
X25688387Y-50561616D02*
X25688387Y-48368392D01*
X25688387Y-48368392D02*
X25179999Y-47860004D01*
%TO.N,Board_17-+3.3V*%
X34034739Y-45060004D02*
X34579999Y-45060004D01*
X38279999Y-45060004D02*
X38534999Y-44805004D01*
X31749999Y-48000004D02*
X35619999Y-48000004D01*
X35619999Y-48000004D02*
X36979999Y-49360004D01*
X31749999Y-48000004D02*
X31749999Y-47344744D01*
X31749999Y-47344744D02*
X34034739Y-45060004D01*
X34579999Y-45060004D02*
X38279999Y-45060004D01*
%TO.N,Board_17-Net-(J2-Pin_1)*%
X37688387Y-50561616D02*
X37688387Y-48368392D01*
X37688387Y-48368392D02*
X37179999Y-47860004D01*
X35999999Y-52250004D02*
X37688387Y-50561616D01*
%TO.N,Board_18-+3.3V*%
X47619999Y-48000004D02*
X48979999Y-49360004D01*
X43749999Y-47344744D02*
X46034739Y-45060004D01*
X50279999Y-45060004D02*
X50534999Y-44805004D01*
X43749999Y-48000004D02*
X43749999Y-47344744D01*
X43749999Y-48000004D02*
X47619999Y-48000004D01*
X46034739Y-45060004D02*
X46579999Y-45060004D01*
X46579999Y-45060004D02*
X50279999Y-45060004D01*
%TO.N,Board_18-Net-(J2-Pin_1)*%
X49688387Y-48368392D02*
X49179999Y-47860004D01*
X49688387Y-50561616D02*
X49688387Y-48368392D01*
X47999999Y-52250004D02*
X49688387Y-50561616D01*
%TO.N,Board_19-+3.3V*%
X55749999Y-48000004D02*
X59619999Y-48000004D01*
X59619999Y-48000004D02*
X60979999Y-49360004D01*
X55749999Y-48000004D02*
X55749999Y-47344744D01*
X55749999Y-47344744D02*
X58034739Y-45060004D01*
X58579999Y-45060004D02*
X62279999Y-45060004D01*
X62279999Y-45060004D02*
X62534999Y-44805004D01*
X58034739Y-45060004D02*
X58579999Y-45060004D01*
%TO.N,Board_19-Net-(J2-Pin_1)*%
X59999999Y-52250004D02*
X61688387Y-50561616D01*
X61688387Y-50561616D02*
X61688387Y-48368392D01*
X61688387Y-48368392D02*
X61179999Y-47860004D01*
%TO.N,Board_20-+3.3V*%
X10034739Y-57060004D02*
X10579999Y-57060004D01*
X11619999Y-60000004D02*
X12979999Y-61360004D01*
X7749999Y-59344744D02*
X10034739Y-57060004D01*
X14279999Y-57060004D02*
X14534999Y-56805004D01*
X10579999Y-57060004D02*
X14279999Y-57060004D01*
X7749999Y-60000004D02*
X7749999Y-59344744D01*
X7749999Y-60000004D02*
X11619999Y-60000004D01*
%TO.N,Board_20-Net-(J2-Pin_1)*%
X11999999Y-64250004D02*
X13688387Y-62561616D01*
X13688387Y-60368392D02*
X13179999Y-59860004D01*
X13688387Y-62561616D02*
X13688387Y-60368392D01*
%TO.N,Board_21-+3.3V*%
X23619999Y-60000004D02*
X24979999Y-61360004D01*
X22034739Y-57060004D02*
X22579999Y-57060004D01*
X19749999Y-59344744D02*
X22034739Y-57060004D01*
X22579999Y-57060004D02*
X26279999Y-57060004D01*
X26279999Y-57060004D02*
X26534999Y-56805004D01*
X19749999Y-60000004D02*
X23619999Y-60000004D01*
X19749999Y-60000004D02*
X19749999Y-59344744D01*
%TO.N,Board_21-Net-(J2-Pin_1)*%
X25688387Y-62561616D02*
X25688387Y-60368392D01*
X25688387Y-60368392D02*
X25179999Y-59860004D01*
X23999999Y-64250004D02*
X25688387Y-62561616D01*
%TO.N,Board_22-+3.3V*%
X34579999Y-57060004D02*
X38279999Y-57060004D01*
X31749999Y-60000004D02*
X35619999Y-60000004D01*
X38279999Y-57060004D02*
X38534999Y-56805004D01*
X31749999Y-60000004D02*
X31749999Y-59344744D01*
X31749999Y-59344744D02*
X34034739Y-57060004D01*
X35619999Y-60000004D02*
X36979999Y-61360004D01*
X34034739Y-57060004D02*
X34579999Y-57060004D01*
%TO.N,Board_22-Net-(J2-Pin_1)*%
X37688387Y-60368392D02*
X37179999Y-59860004D01*
X37688387Y-62561616D02*
X37688387Y-60368392D01*
X35999999Y-64250004D02*
X37688387Y-62561616D01*
%TO.N,Board_23-+3.3V*%
X43749999Y-60000004D02*
X43749999Y-59344744D01*
X46579999Y-57060004D02*
X50279999Y-57060004D01*
X50279999Y-57060004D02*
X50534999Y-56805004D01*
X47619999Y-60000004D02*
X48979999Y-61360004D01*
X46034739Y-57060004D02*
X46579999Y-57060004D01*
X43749999Y-60000004D02*
X47619999Y-60000004D01*
X43749999Y-59344744D02*
X46034739Y-57060004D01*
%TO.N,Board_23-Net-(J2-Pin_1)*%
X47999999Y-64250004D02*
X49688387Y-62561616D01*
X49688387Y-60368392D02*
X49179999Y-59860004D01*
X49688387Y-62561616D02*
X49688387Y-60368392D01*
%TO.N,Board_24-+3.3V*%
X59619999Y-60000004D02*
X60979999Y-61360004D01*
X58579999Y-57060004D02*
X62279999Y-57060004D01*
X58034739Y-57060004D02*
X58579999Y-57060004D01*
X62279999Y-57060004D02*
X62534999Y-56805004D01*
X55749999Y-59344744D02*
X58034739Y-57060004D01*
X55749999Y-60000004D02*
X55749999Y-59344744D01*
X55749999Y-60000004D02*
X59619999Y-60000004D01*
%TO.N,Board_24-Net-(J2-Pin_1)*%
X61688387Y-60368392D02*
X61179999Y-59860004D01*
X59999999Y-64250004D02*
X61688387Y-62561616D01*
X61688387Y-62561616D02*
X61688387Y-60368392D01*
%TD*%
M02*
