M48
INCH
T1C0.0118
T2C0.0394
%
G90
G05
T1
X0.3543Y-0.5551
X0.3543Y-1.2008
X0.3543Y-1.8465
X0.3543Y-2.4921
X0.3543Y-3.1378
X0.4016Y-0.5512
X0.4016Y-1.1969
X0.4016Y-1.8425
X0.4016Y-2.4882
X0.4016Y-3.1339
X0.6811Y-0.6102
X0.6811Y-1.2559
X0.6811Y-1.9016
X0.6811Y-2.5472
X0.6811Y-3.1929
X0.9291Y-0.5551
X0.9291Y-1.2008
X0.9291Y-1.8465
X0.9291Y-2.4921
X0.9291Y-3.1378
X0.9764Y-0.5512
X0.9764Y-1.1969
X0.9764Y-1.8425
X0.9764Y-2.4882
X0.9764Y-3.1339
X1.2559Y-0.6102
X1.2559Y-1.2559
X1.2559Y-1.9016
X1.2559Y-2.5472
X1.2559Y-3.1929
X1.5039Y-0.5551
X1.5039Y-1.2008
X1.5039Y-1.8465
X1.5039Y-2.4921
X1.5039Y-3.1378
X1.5512Y-0.5512
X1.5512Y-1.1969
X1.5512Y-1.8425
X1.5512Y-2.4882
X1.5512Y-3.1339
X1.8307Y-0.6102
X1.8307Y-1.2559
X1.8307Y-1.9016
X1.8307Y-2.5472
X1.8307Y-3.1929
X2.0787Y-0.5551
X2.0787Y-1.2008
X2.0787Y-1.8465
X2.0787Y-2.4921
X2.0787Y-3.1378
X2.126Y-0.5512
X2.126Y-1.1969
X2.126Y-1.8425
X2.126Y-2.4882
X2.126Y-3.1339
X2.4055Y-0.6102
X2.4055Y-1.2559
X2.4055Y-1.9016
X2.4055Y-2.5472
X2.4055Y-3.1929
X2.6535Y-0.5551
X2.6535Y-1.2008
X2.6535Y-1.8465
X2.6535Y-2.4921
X2.6535Y-3.1378
X2.7008Y-0.5512
X2.7008Y-1.1969
X2.7008Y-1.8425
X2.7008Y-2.4882
X2.7008Y-3.1339
X2.9803Y-0.6102
X2.9803Y-1.2559
X2.9803Y-1.9016
X2.9803Y-2.5472
X2.9803Y-3.1929
T2
X0.374Y-0.3465
X0.374Y-0.9921
X0.374Y-1.6378
X0.374Y-2.2835
X0.374Y-2.9291
X0.474Y-0.3465
X0.474Y-0.9921
X0.474Y-1.6378
X0.474Y-2.2835
X0.474Y-2.9291
X0.574Y-0.3465
X0.574Y-0.9921
X0.574Y-1.6378
X0.574Y-2.2835
X0.574Y-2.9291
X0.674Y-0.3465
X0.674Y-0.9921
X0.674Y-1.6378
X0.674Y-2.2835
X0.674Y-2.9291
X0.9488Y-0.3465
X0.9488Y-0.9921
X0.9488Y-1.6378
X0.9488Y-2.2835
X0.9488Y-2.9291
X1.0488Y-0.3465
X1.0488Y-0.9921
X1.0488Y-1.6378
X1.0488Y-2.2835
X1.0488Y-2.9291
X1.1488Y-0.3465
X1.1488Y-0.9921
X1.1488Y-1.6378
X1.1488Y-2.2835
X1.1488Y-2.9291
X1.2488Y-0.3465
X1.2488Y-0.9921
X1.2488Y-1.6378
X1.2488Y-2.2835
X1.2488Y-2.9291
X1.5236Y-0.3465
X1.5236Y-0.9921
X1.5236Y-1.6378
X1.5236Y-2.2835
X1.5236Y-2.9291
X1.6236Y-0.3465
X1.6236Y-0.9921
X1.6236Y-1.6378
X1.6236Y-2.2835
X1.6236Y-2.9291
X1.7236Y-0.3465
X1.7236Y-0.9921
X1.7236Y-1.6378
X1.7236Y-2.2835
X1.7236Y-2.9291
X1.8236Y-0.3465
X1.8236Y-0.9921
X1.8236Y-1.6378
X1.8236Y-2.2835
X1.8236Y-2.9291
X2.0984Y-0.3465
X2.0984Y-0.9921
X2.0984Y-1.6378
X2.0984Y-2.2835
X2.0984Y-2.9291
X2.1984Y-0.3465
X2.1984Y-0.9921
X2.1984Y-1.6378
X2.1984Y-2.2835
X2.1984Y-2.9291
X2.2984Y-0.3465
X2.2984Y-0.9921
X2.2984Y-1.6378
X2.2984Y-2.2835
X2.2984Y-2.9291
X2.3984Y-0.3465
X2.3984Y-0.9921
X2.3984Y-1.6378
X2.3984Y-2.2835
X2.3984Y-2.9291
X2.6732Y-0.3465
X2.6732Y-0.9921
X2.6732Y-1.6378
X2.6732Y-2.2835
X2.6732Y-2.9291
X2.7732Y-0.3465
X2.7732Y-0.9921
X2.7732Y-1.6378
X2.7732Y-2.2835
X2.7732Y-2.9291
X2.8732Y-0.3465
X2.8732Y-0.9921
X2.8732Y-1.6378
X2.8732Y-2.2835
X2.8732Y-2.9291
X2.9732Y-0.3465
X2.9732Y-0.9921
X2.9732Y-1.6378
X2.9732Y-2.2835
X2.9732Y-2.9291
T0
M30
