%TF.GenerationSoftware,KiCad,Pcbnew,7.0.6-1.fc38*%
%TF.CreationDate,2023-07-31T16:19:08-04:00*%
%TF.ProjectId,bno085-i2c-board-v4-square-panel,626e6f30-3835-42d6-9932-632d626f6172,rev?*%
%TF.SameCoordinates,Original*%
%TF.FileFunction,Soldermask,Top*%
%TF.FilePolarity,Negative*%
%FSLAX46Y46*%
G04 Gerber Fmt 4.6, Leading zero omitted, Abs format (unit mm)*
G04 Created by KiCad (PCBNEW 7.0.6-1.fc38) date 2023-07-31 16:19:08*
%MOMM*%
%LPD*%
G01*
G04 APERTURE LIST*
G04 Aperture macros list*
%AMRoundRect*
0 Rectangle with rounded corners*
0 $1 Rounding radius*
0 $2 $3 $4 $5 $6 $7 $8 $9 X,Y pos of 4 corners*
0 Add a 4 corners polygon primitive as box body*
4,1,4,$2,$3,$4,$5,$6,$7,$8,$9,$2,$3,0*
0 Add four circle primitives for the rounded corners*
1,1,$1+$1,$2,$3*
1,1,$1+$1,$4,$5*
1,1,$1+$1,$6,$7*
1,1,$1+$1,$8,$9*
0 Add four rect primitives between the rounded corners*
20,1,$1+$1,$2,$3,$4,$5,0*
20,1,$1+$1,$4,$5,$6,$7,0*
20,1,$1+$1,$6,$7,$8,$9,0*
20,1,$1+$1,$8,$9,$2,$3,0*%
G04 Aperture macros list end*
%ADD10C,0.500000*%
%ADD11RoundRect,0.135000X0.185000X-0.135000X0.185000X0.135000X-0.185000X0.135000X-0.185000X-0.135000X0*%
%ADD12C,1.000000*%
%ADD13R,1.700000X1.700000*%
%ADD14O,1.700000X1.700000*%
%ADD15RoundRect,0.135000X-0.185000X0.135000X-0.185000X-0.135000X0.185000X-0.135000X0.185000X0.135000X0*%
%ADD16RoundRect,0.135000X-0.135000X-0.185000X0.135000X-0.185000X0.135000X0.185000X-0.135000X0.185000X0*%
%ADD17R,0.254000X1.175000*%
%ADD18R,1.150000X0.254000*%
%ADD19RoundRect,0.140000X0.140000X0.170000X-0.140000X0.170000X-0.140000X-0.170000X0.140000X-0.170000X0*%
G04 APERTURE END LIST*
D10*
%TO.C,REF\u002A\u002A*%
X56350000Y-6875000D03*
%TD*%
D11*
%TO.C,R5*%
X66500000Y-47510000D03*
X66500000Y-46490000D03*
%TD*%
D10*
%TO.C,REF\u002A\u002A*%
X41750000Y-39675000D03*
%TD*%
D12*
%TO.C,REF\u002A\u002A*%
X2500000Y-2500000D03*
%TD*%
D10*
%TO.C,REF\u002A\u002A*%
X63525000Y-13450000D03*
%TD*%
D11*
%TO.C,R3*%
X51900000Y-66610000D03*
X51900000Y-65590000D03*
%TD*%
D13*
%TO.C,J5*%
X9500000Y-74400000D03*
D14*
X12040000Y-74400000D03*
X14580000Y-74400000D03*
X17120000Y-74400000D03*
%TD*%
D15*
%TO.C,R2*%
X62300000Y-16390000D03*
X62300000Y-17410000D03*
%TD*%
D10*
%TO.C,REF\u002A\u002A*%
X21475284Y-79050005D03*
%TD*%
D16*
%TO.C,R1*%
X43290000Y-20300000D03*
X44310000Y-20300000D03*
%TD*%
D13*
%TO.C,J5*%
X24100000Y-8800000D03*
D14*
X26640000Y-8800000D03*
X29180000Y-8800000D03*
X31720000Y-8800000D03*
%TD*%
D10*
%TO.C,REF\u002A\u002A*%
X27150000Y-39675000D03*
%TD*%
D15*
%TO.C,R2*%
X18500000Y-49190000D03*
X18500000Y-50210000D03*
%TD*%
%TO.C,R2*%
X47700000Y-81990000D03*
X47700000Y-83010000D03*
%TD*%
D16*
%TO.C,R1*%
X14090000Y-69500000D03*
X15110000Y-69500000D03*
%TD*%
D10*
%TO.C,REF\u002A\u002A*%
X41750000Y-87125000D03*
%TD*%
D17*
%TO.C,U1*%
X11062500Y-30275000D03*
D18*
X10687500Y-31437500D03*
X10687500Y-31937500D03*
X10687500Y-32437500D03*
X10687500Y-32937500D03*
D17*
X11062500Y-34100000D03*
X12562500Y-34100000D03*
X13062500Y-34100000D03*
X15562500Y-34100000D03*
D18*
X15937500Y-32937500D03*
X15937500Y-32437500D03*
X15937500Y-31437500D03*
D17*
X15562500Y-30275000D03*
X13062500Y-30275000D03*
X12562500Y-30275000D03*
X11562500Y-30275000D03*
%TD*%
D11*
%TO.C,R5*%
X8100000Y-80310000D03*
X8100000Y-79290000D03*
%TD*%
%TO.C,R4*%
X47700000Y-47510000D03*
X47700000Y-46490000D03*
%TD*%
D15*
%TO.C,R2*%
X47700000Y-32790000D03*
X47700000Y-33810000D03*
%TD*%
D10*
%TO.C,REF\u002A\u002A*%
X27150000Y-23275000D03*
%TD*%
%TO.C,REF\u002A\u002A*%
X6875285Y-46250005D03*
%TD*%
D11*
%TO.C,R3*%
X8100000Y-50210000D03*
X8100000Y-49190000D03*
%TD*%
D10*
%TO.C,REF\u002A\u002A*%
X78000000Y-3333334D03*
%TD*%
D11*
%TO.C,R4*%
X18500000Y-63910000D03*
X18500000Y-62890000D03*
%TD*%
%TO.C,R3*%
X66500000Y-17410000D03*
X66500000Y-16390000D03*
%TD*%
D10*
%TO.C,REF\u002A\u002A*%
X80000000Y-7000000D03*
%TD*%
D13*
%TO.C,J5*%
X67900000Y-74400000D03*
D14*
X70440000Y-74400000D03*
X72980000Y-74400000D03*
X75520000Y-74400000D03*
%TD*%
D17*
%TO.C,U1*%
X11062500Y-79475000D03*
D18*
X10687500Y-80637500D03*
X10687500Y-81137500D03*
X10687500Y-81637500D03*
X10687500Y-82137500D03*
D17*
X11062500Y-83300000D03*
X12562500Y-83300000D03*
X13062500Y-83300000D03*
X15562500Y-83300000D03*
D18*
X15937500Y-82137500D03*
X15937500Y-81637500D03*
X15937500Y-80637500D03*
D17*
X15562500Y-79475000D03*
X13062500Y-79475000D03*
X12562500Y-79475000D03*
X11562500Y-79475000D03*
%TD*%
D10*
%TO.C,REF\u002A\u002A*%
X27150000Y-54325000D03*
%TD*%
%TO.C,REF\u002A\u002A*%
X43250000Y-87125000D03*
%TD*%
%TO.C,REF\u002A\u002A*%
X6875357Y-80550005D03*
%TD*%
%TO.C,REF\u002A\u002A*%
X28650000Y-56075000D03*
%TD*%
D17*
%TO.C,U1*%
X40262500Y-79475000D03*
D18*
X39887500Y-80637500D03*
X39887500Y-81137500D03*
X39887500Y-81637500D03*
X39887500Y-82137500D03*
D17*
X40262500Y-83300000D03*
X41762500Y-83300000D03*
X42262500Y-83300000D03*
X44762500Y-83300000D03*
D18*
X45137500Y-82137500D03*
X45137500Y-81637500D03*
X45137500Y-80637500D03*
D17*
X44762500Y-79475000D03*
X42262500Y-79475000D03*
X41762500Y-79475000D03*
X40762500Y-79475000D03*
%TD*%
%TO.C,U1*%
X54862500Y-30275000D03*
D18*
X54487500Y-31437500D03*
X54487500Y-31937500D03*
X54487500Y-32437500D03*
X54487500Y-32937500D03*
D17*
X54862500Y-34100000D03*
X56362500Y-34100000D03*
X56862500Y-34100000D03*
X59362500Y-34100000D03*
D18*
X59737500Y-32937500D03*
X59737500Y-32437500D03*
X59737500Y-31437500D03*
D17*
X59362500Y-30275000D03*
X56862500Y-30275000D03*
X56362500Y-30275000D03*
X55362500Y-30275000D03*
%TD*%
D10*
%TO.C,REF\u002A\u002A*%
X80000000Y-87000000D03*
%TD*%
%TO.C,REF\u002A\u002A*%
X78125000Y-64150000D03*
%TD*%
%TO.C,REF\u002A\u002A*%
X50675356Y-80550005D03*
%TD*%
D11*
%TO.C,R4*%
X62300000Y-31110000D03*
X62300000Y-30090000D03*
%TD*%
D10*
%TO.C,REF\u002A\u002A*%
X14050000Y-6875000D03*
%TD*%
%TO.C,REF\u002A\u002A*%
X0Y-87000000D03*
%TD*%
%TO.C,REF\u002A\u002A*%
X72450000Y-56075000D03*
%TD*%
D11*
%TO.C,R5*%
X66500000Y-14710000D03*
X66500000Y-13690000D03*
%TD*%
D10*
%TO.C,REF\u002A\u002A*%
X14050000Y-72475000D03*
%TD*%
%TO.C,REF\u002A\u002A*%
X12550000Y-6875000D03*
%TD*%
D11*
%TO.C,R4*%
X62300000Y-63910000D03*
X62300000Y-62890000D03*
%TD*%
D10*
%TO.C,REF\u002A\u002A*%
X27150000Y-56075000D03*
%TD*%
%TO.C,REF\u002A\u002A*%
X27150000Y-72475000D03*
%TD*%
D11*
%TO.C,R5*%
X37300000Y-80310000D03*
X37300000Y-79290000D03*
%TD*%
D10*
%TO.C,REF\u002A\u002A*%
X70950000Y-87125000D03*
%TD*%
D11*
%TO.C,R4*%
X18500000Y-31110000D03*
X18500000Y-30090000D03*
%TD*%
D10*
%TO.C,REF\u002A\u002A*%
X43250000Y-56075000D03*
%TD*%
%TO.C,REF\u002A\u002A*%
X80833333Y-7000000D03*
%TD*%
%TO.C,REF\u002A\u002A*%
X63525000Y-29850000D03*
%TD*%
D19*
%TO.C,C1*%
X41580000Y-85900000D03*
X40620000Y-85900000D03*
%TD*%
D11*
%TO.C,R4*%
X76900000Y-31110000D03*
X76900000Y-30090000D03*
%TD*%
D10*
%TO.C,REF\u002A\u002A*%
X28650000Y-39675000D03*
%TD*%
D13*
%TO.C,J5*%
X53300000Y-8800000D03*
D14*
X55840000Y-8800000D03*
X58380000Y-8800000D03*
X60920000Y-8800000D03*
%TD*%
D10*
%TO.C,REF\u002A\u002A*%
X43250000Y-39675000D03*
%TD*%
%TO.C,REF\u002A\u002A*%
X80833333Y-87000000D03*
%TD*%
%TO.C,REF\u002A\u002A*%
X78000000Y-89000000D03*
%TD*%
%TO.C,REF\u002A\u002A*%
X36075356Y-14950005D03*
%TD*%
%TO.C,REF\u002A\u002A*%
X70950000Y-56075000D03*
%TD*%
%TO.C,REF\u002A\u002A*%
X50675284Y-79050005D03*
%TD*%
D11*
%TO.C,R4*%
X47700000Y-80310000D03*
X47700000Y-79290000D03*
%TD*%
D17*
%TO.C,U1*%
X69462500Y-13875000D03*
D18*
X69087500Y-15037500D03*
X69087500Y-15537500D03*
X69087500Y-16037500D03*
X69087500Y-16537500D03*
D17*
X69462500Y-17700000D03*
X70962500Y-17700000D03*
X71462500Y-17700000D03*
X73962500Y-17700000D03*
D18*
X74337500Y-16537500D03*
X74337500Y-16037500D03*
X74337500Y-15037500D03*
D17*
X73962500Y-13875000D03*
X71462500Y-13875000D03*
X70962500Y-13875000D03*
X69962500Y-13875000D03*
%TD*%
D11*
%TO.C,R4*%
X47700000Y-31110000D03*
X47700000Y-30090000D03*
%TD*%
D10*
%TO.C,REF\u002A\u002A*%
X57850000Y-70725000D03*
%TD*%
%TO.C,REF\u002A\u002A*%
X57850000Y-39675000D03*
%TD*%
D15*
%TO.C,R2*%
X76900000Y-81990000D03*
X76900000Y-83010000D03*
%TD*%
D11*
%TO.C,R5*%
X66500000Y-80310000D03*
X66500000Y-79290000D03*
%TD*%
D19*
%TO.C,C1*%
X70780000Y-20300000D03*
X69820000Y-20300000D03*
%TD*%
D10*
%TO.C,REF\u002A\u002A*%
X72450000Y-6875000D03*
%TD*%
D16*
%TO.C,R1*%
X28690000Y-85900000D03*
X29710000Y-85900000D03*
%TD*%
%TO.C,R1*%
X72490000Y-36700000D03*
X73510000Y-36700000D03*
%TD*%
D10*
%TO.C,REF\u002A\u002A*%
X3333334Y-87000000D03*
%TD*%
D16*
%TO.C,R1*%
X72490000Y-69500000D03*
X73510000Y-69500000D03*
%TD*%
D17*
%TO.C,U1*%
X25662500Y-30275000D03*
D18*
X25287500Y-31437500D03*
X25287500Y-31937500D03*
X25287500Y-32437500D03*
X25287500Y-32937500D03*
D17*
X25662500Y-34100000D03*
X27162500Y-34100000D03*
X27662500Y-34100000D03*
X30162500Y-34100000D03*
D18*
X30537500Y-32937500D03*
X30537500Y-32437500D03*
X30537500Y-31437500D03*
D17*
X30162500Y-30275000D03*
X27662500Y-30275000D03*
X27162500Y-30275000D03*
X26162500Y-30275000D03*
%TD*%
D11*
%TO.C,R5*%
X37300000Y-31110000D03*
X37300000Y-30090000D03*
%TD*%
D10*
%TO.C,REF\u002A\u002A*%
X50675284Y-13450006D03*
%TD*%
D13*
%TO.C,J5*%
X53300000Y-25200000D03*
D14*
X55840000Y-25200000D03*
X58380000Y-25200000D03*
X60920000Y-25200000D03*
%TD*%
D10*
%TO.C,REF\u002A\u002A*%
X12550000Y-37925000D03*
%TD*%
%TO.C,REF\u002A\u002A*%
X43250000Y-23275000D03*
%TD*%
%TO.C,REF\u002A\u002A*%
X65275284Y-46250005D03*
%TD*%
D11*
%TO.C,R4*%
X76900000Y-63910000D03*
X76900000Y-62890000D03*
%TD*%
%TO.C,R3*%
X51900000Y-17410000D03*
X51900000Y-16390000D03*
%TD*%
D10*
%TO.C,REF\u002A\u002A*%
X83333333Y-7000000D03*
%TD*%
D16*
%TO.C,R1*%
X28690000Y-69500000D03*
X29710000Y-69500000D03*
%TD*%
D10*
%TO.C,REF\u002A\u002A*%
X4166667Y-87000000D03*
%TD*%
D15*
%TO.C,R2*%
X33100000Y-16390000D03*
X33100000Y-17410000D03*
%TD*%
D17*
%TO.C,U1*%
X40262500Y-13875000D03*
D18*
X39887500Y-15037500D03*
X39887500Y-15537500D03*
X39887500Y-16037500D03*
X39887500Y-16537500D03*
D17*
X40262500Y-17700000D03*
X41762500Y-17700000D03*
X42262500Y-17700000D03*
X44762500Y-17700000D03*
D18*
X45137500Y-16537500D03*
X45137500Y-16037500D03*
X45137500Y-15037500D03*
D17*
X44762500Y-13875000D03*
X42262500Y-13875000D03*
X41762500Y-13875000D03*
X40762500Y-13875000D03*
%TD*%
D10*
%TO.C,REF\u002A\u002A*%
X48925000Y-64150000D03*
%TD*%
D13*
%TO.C,J5*%
X38700000Y-58000000D03*
D14*
X41240000Y-58000000D03*
X43780000Y-58000000D03*
X46320000Y-58000000D03*
%TD*%
D11*
%TO.C,R3*%
X37300000Y-66610000D03*
X37300000Y-65590000D03*
%TD*%
D12*
%TO.C,REF\u002A\u002A*%
X2500000Y-91500000D03*
%TD*%
D11*
%TO.C,R5*%
X37300000Y-14710000D03*
X37300000Y-13690000D03*
%TD*%
D10*
%TO.C,REF\u002A\u002A*%
X57850000Y-72475000D03*
%TD*%
%TO.C,REF\u002A\u002A*%
X72450000Y-72475000D03*
%TD*%
%TO.C,REF\u002A\u002A*%
X21475356Y-80550005D03*
%TD*%
D11*
%TO.C,R3*%
X22700000Y-50210000D03*
X22700000Y-49190000D03*
%TD*%
D13*
%TO.C,J5*%
X67900000Y-25200000D03*
D14*
X70440000Y-25200000D03*
X72980000Y-25200000D03*
X75520000Y-25200000D03*
%TD*%
D19*
%TO.C,C1*%
X26980000Y-69500000D03*
X26020000Y-69500000D03*
%TD*%
D10*
%TO.C,REF\u002A\u002A*%
X27150000Y-6875000D03*
%TD*%
D11*
%TO.C,R4*%
X33100000Y-31110000D03*
X33100000Y-30090000D03*
%TD*%
D10*
%TO.C,REF\u002A\u002A*%
X4166667Y-7000000D03*
%TD*%
%TO.C,REF\u002A\u002A*%
X14050000Y-37925000D03*
%TD*%
%TO.C,REF\u002A\u002A*%
X78000000Y-92333333D03*
%TD*%
%TO.C,REF\u002A\u002A*%
X50675356Y-14950005D03*
%TD*%
%TO.C,REF\u002A\u002A*%
X50675356Y-47750005D03*
%TD*%
D11*
%TO.C,R4*%
X18500000Y-80310000D03*
X18500000Y-79290000D03*
%TD*%
D10*
%TO.C,REF\u002A\u002A*%
X56350000Y-21525000D03*
%TD*%
D13*
%TO.C,J5*%
X53300000Y-58000000D03*
D14*
X55840000Y-58000000D03*
X58380000Y-58000000D03*
X60920000Y-58000000D03*
%TD*%
D15*
%TO.C,R2*%
X76900000Y-49190000D03*
X76900000Y-50210000D03*
%TD*%
D10*
%TO.C,REF\u002A\u002A*%
X82500000Y-7000000D03*
%TD*%
D11*
%TO.C,R5*%
X22700000Y-80310000D03*
X22700000Y-79290000D03*
%TD*%
D10*
%TO.C,REF\u002A\u002A*%
X12550000Y-70725000D03*
%TD*%
%TO.C,REF\u002A\u002A*%
X7000000Y-5000000D03*
%TD*%
%TO.C,REF\u002A\u002A*%
X27150000Y-70725000D03*
%TD*%
%TO.C,REF\u002A\u002A*%
X833334Y-7000000D03*
%TD*%
%TO.C,REF\u002A\u002A*%
X43250000Y-70725000D03*
%TD*%
%TO.C,REF\u002A\u002A*%
X12550000Y-21525000D03*
%TD*%
D16*
%TO.C,R1*%
X28690000Y-53100000D03*
X29710000Y-53100000D03*
%TD*%
D19*
%TO.C,C1*%
X26980000Y-53100000D03*
X26020000Y-53100000D03*
%TD*%
D10*
%TO.C,REF\u002A\u002A*%
X72450000Y-21525000D03*
%TD*%
%TO.C,REF\u002A\u002A*%
X56350000Y-72475000D03*
%TD*%
D13*
%TO.C,J5*%
X24100000Y-74400000D03*
D14*
X26640000Y-74400000D03*
X29180000Y-74400000D03*
X31720000Y-74400000D03*
%TD*%
D15*
%TO.C,R2*%
X47700000Y-65590000D03*
X47700000Y-66610000D03*
%TD*%
D10*
%TO.C,REF\u002A\u002A*%
X57850000Y-54325000D03*
%TD*%
D11*
%TO.C,R3*%
X51900000Y-33810000D03*
X51900000Y-32790000D03*
%TD*%
%TO.C,R5*%
X37300000Y-63910000D03*
X37300000Y-62890000D03*
%TD*%
D15*
%TO.C,R2*%
X18500000Y-65590000D03*
X18500000Y-66610000D03*
%TD*%
D16*
%TO.C,R1*%
X43290000Y-36700000D03*
X44310000Y-36700000D03*
%TD*%
D10*
%TO.C,REF\u002A\u002A*%
X28650000Y-21525000D03*
%TD*%
%TO.C,REF\u002A\u002A*%
X57850000Y-56075000D03*
%TD*%
%TO.C,REF\u002A\u002A*%
X14050000Y-39675000D03*
%TD*%
%TO.C,REF\u002A\u002A*%
X19725000Y-29850000D03*
%TD*%
%TO.C,REF\u002A\u002A*%
X7000000Y-4166667D03*
%TD*%
D15*
%TO.C,R2*%
X62300000Y-49190000D03*
X62300000Y-50210000D03*
%TD*%
D11*
%TO.C,R3*%
X22700000Y-83010000D03*
X22700000Y-81990000D03*
%TD*%
D10*
%TO.C,REF\u002A\u002A*%
X12550000Y-23275000D03*
%TD*%
D17*
%TO.C,U1*%
X69462500Y-30275000D03*
D18*
X69087500Y-31437500D03*
X69087500Y-31937500D03*
X69087500Y-32437500D03*
X69087500Y-32937500D03*
D17*
X69462500Y-34100000D03*
X70962500Y-34100000D03*
X71462500Y-34100000D03*
X73962500Y-34100000D03*
D18*
X74337500Y-32937500D03*
X74337500Y-32437500D03*
X74337500Y-31437500D03*
D17*
X73962500Y-30275000D03*
X71462500Y-30275000D03*
X70962500Y-30275000D03*
X69962500Y-30275000D03*
%TD*%
D10*
%TO.C,REF\u002A\u002A*%
X48925000Y-31350000D03*
%TD*%
D11*
%TO.C,R5*%
X8100000Y-47510000D03*
X8100000Y-46490000D03*
%TD*%
D10*
%TO.C,REF\u002A\u002A*%
X28650000Y-54325000D03*
%TD*%
%TO.C,REF\u002A\u002A*%
X27150000Y-87125000D03*
%TD*%
%TO.C,REF\u002A\u002A*%
X28650000Y-37925000D03*
%TD*%
%TO.C,REF\u002A\u002A*%
X56350000Y-56075000D03*
%TD*%
D17*
%TO.C,U1*%
X25662500Y-79475000D03*
D18*
X25287500Y-80637500D03*
X25287500Y-81137500D03*
X25287500Y-81637500D03*
X25287500Y-82137500D03*
D17*
X25662500Y-83300000D03*
X27162500Y-83300000D03*
X27662500Y-83300000D03*
X30162500Y-83300000D03*
D18*
X30537500Y-82137500D03*
X30537500Y-81637500D03*
X30537500Y-80637500D03*
D17*
X30162500Y-79475000D03*
X27662500Y-79475000D03*
X27162500Y-79475000D03*
X26162500Y-79475000D03*
%TD*%
%TO.C,U1*%
X11062500Y-63075000D03*
D18*
X10687500Y-64237500D03*
X10687500Y-64737500D03*
X10687500Y-65237500D03*
X10687500Y-65737500D03*
D17*
X11062500Y-66900000D03*
X12562500Y-66900000D03*
X13062500Y-66900000D03*
X15562500Y-66900000D03*
D18*
X15937500Y-65737500D03*
X15937500Y-65237500D03*
X15937500Y-64237500D03*
D17*
X15562500Y-63075000D03*
X13062500Y-63075000D03*
X12562500Y-63075000D03*
X11562500Y-63075000D03*
%TD*%
D15*
%TO.C,R2*%
X33100000Y-65590000D03*
X33100000Y-66610000D03*
%TD*%
D10*
%TO.C,REF\u002A\u002A*%
X7000000Y-89833333D03*
%TD*%
D15*
%TO.C,R2*%
X76900000Y-16390000D03*
X76900000Y-17410000D03*
%TD*%
D10*
%TO.C,REF\u002A\u002A*%
X7000000Y-90666666D03*
%TD*%
%TO.C,REF\u002A\u002A*%
X14050000Y-56075000D03*
%TD*%
D11*
%TO.C,R3*%
X66500000Y-66610000D03*
X66500000Y-65590000D03*
%TD*%
%TO.C,R5*%
X51900000Y-14710000D03*
X51900000Y-13690000D03*
%TD*%
D10*
%TO.C,REF\u002A\u002A*%
X43250000Y-37925000D03*
%TD*%
D11*
%TO.C,R3*%
X66500000Y-50210000D03*
X66500000Y-49190000D03*
%TD*%
D10*
%TO.C,REF\u002A\u002A*%
X78000000Y-5000000D03*
%TD*%
%TO.C,REF\u002A\u002A*%
X56350000Y-37925000D03*
%TD*%
%TO.C,REF\u002A\u002A*%
X21475284Y-62650005D03*
%TD*%
%TO.C,REF\u002A\u002A*%
X21475356Y-64150005D03*
%TD*%
D11*
%TO.C,R5*%
X51900000Y-63910000D03*
X51900000Y-62890000D03*
%TD*%
D10*
%TO.C,REF\u002A\u002A*%
X57850000Y-6875000D03*
%TD*%
D19*
%TO.C,C1*%
X12380000Y-20300000D03*
X11420000Y-20300000D03*
%TD*%
D10*
%TO.C,REF\u002A\u002A*%
X78125000Y-14950000D03*
%TD*%
%TO.C,REF\u002A\u002A*%
X48925000Y-14950000D03*
%TD*%
D15*
%TO.C,R2*%
X33100000Y-81990000D03*
X33100000Y-83010000D03*
%TD*%
D16*
%TO.C,R1*%
X28690000Y-20300000D03*
X29710000Y-20300000D03*
%TD*%
D10*
%TO.C,REF\u002A\u002A*%
X78000000Y-4166667D03*
%TD*%
%TO.C,REF\u002A\u002A*%
X21475284Y-29850005D03*
%TD*%
%TO.C,REF\u002A\u002A*%
X7000000Y-89000000D03*
%TD*%
%TO.C,REF\u002A\u002A*%
X78000000Y-89833333D03*
%TD*%
%TO.C,REF\u002A\u002A*%
X12550000Y-56075000D03*
%TD*%
%TO.C,REF\u002A\u002A*%
X48925000Y-80550000D03*
%TD*%
%TO.C,REF\u002A\u002A*%
X27150000Y-21525000D03*
%TD*%
%TO.C,REF\u002A\u002A*%
X57850000Y-37925000D03*
%TD*%
%TO.C,REF\u002A\u002A*%
X28650000Y-87125000D03*
%TD*%
%TO.C,REF\u002A\u002A*%
X65275356Y-31350005D03*
%TD*%
%TO.C,REF\u002A\u002A*%
X70950000Y-70725000D03*
%TD*%
D17*
%TO.C,U1*%
X54862500Y-13875000D03*
D18*
X54487500Y-15037500D03*
X54487500Y-15537500D03*
X54487500Y-16037500D03*
X54487500Y-16537500D03*
D17*
X54862500Y-17700000D03*
X56362500Y-17700000D03*
X56862500Y-17700000D03*
X59362500Y-17700000D03*
D18*
X59737500Y-16537500D03*
X59737500Y-16037500D03*
X59737500Y-15037500D03*
D17*
X59362500Y-13875000D03*
X56862500Y-13875000D03*
X56362500Y-13875000D03*
X55362500Y-13875000D03*
%TD*%
D13*
%TO.C,J5*%
X67900000Y-8800000D03*
D14*
X70440000Y-8800000D03*
X72980000Y-8800000D03*
X75520000Y-8800000D03*
%TD*%
D10*
%TO.C,REF\u002A\u002A*%
X41750000Y-37925000D03*
%TD*%
D11*
%TO.C,R5*%
X22700000Y-31110000D03*
X22700000Y-30090000D03*
%TD*%
D10*
%TO.C,REF\u002A\u002A*%
X34325000Y-47750000D03*
%TD*%
D11*
%TO.C,R3*%
X66500000Y-33810000D03*
X66500000Y-32790000D03*
%TD*%
D10*
%TO.C,REF\u002A\u002A*%
X48925000Y-62650000D03*
%TD*%
%TO.C,REF\u002A\u002A*%
X56350000Y-39675000D03*
%TD*%
D17*
%TO.C,U1*%
X11062500Y-46675000D03*
D18*
X10687500Y-47837500D03*
X10687500Y-48337500D03*
X10687500Y-48837500D03*
X10687500Y-49337500D03*
D17*
X11062500Y-50500000D03*
X12562500Y-50500000D03*
X13062500Y-50500000D03*
X15562500Y-50500000D03*
D18*
X15937500Y-49337500D03*
X15937500Y-48837500D03*
X15937500Y-47837500D03*
D17*
X15562500Y-46675000D03*
X13062500Y-46675000D03*
X12562500Y-46675000D03*
X11562500Y-46675000D03*
%TD*%
D10*
%TO.C,REF\u002A\u002A*%
X6875357Y-47750005D03*
%TD*%
%TO.C,REF\u002A\u002A*%
X43250000Y-72475000D03*
%TD*%
D15*
%TO.C,R2*%
X18500000Y-16390000D03*
X18500000Y-17410000D03*
%TD*%
D11*
%TO.C,R3*%
X51900000Y-50210000D03*
X51900000Y-49190000D03*
%TD*%
D10*
%TO.C,REF\u002A\u002A*%
X3333334Y-7000000D03*
%TD*%
%TO.C,REF\u002A\u002A*%
X50675356Y-64150005D03*
%TD*%
%TO.C,REF\u002A\u002A*%
X82500000Y-87000000D03*
%TD*%
%TO.C,REF\u002A\u002A*%
X41750000Y-23275000D03*
%TD*%
D11*
%TO.C,R4*%
X76900000Y-14710000D03*
X76900000Y-13690000D03*
%TD*%
D10*
%TO.C,REF\u002A\u002A*%
X65275284Y-29850005D03*
%TD*%
D11*
%TO.C,R5*%
X66500000Y-63910000D03*
X66500000Y-62890000D03*
%TD*%
%TO.C,R3*%
X37300000Y-17410000D03*
X37300000Y-16390000D03*
%TD*%
D10*
%TO.C,REF\u002A\u002A*%
X78000000Y-90666666D03*
%TD*%
D16*
%TO.C,R1*%
X72490000Y-20300000D03*
X73510000Y-20300000D03*
%TD*%
D17*
%TO.C,U1*%
X54862500Y-46675000D03*
D18*
X54487500Y-47837500D03*
X54487500Y-48337500D03*
X54487500Y-48837500D03*
X54487500Y-49337500D03*
D17*
X54862500Y-50500000D03*
X56362500Y-50500000D03*
X56862500Y-50500000D03*
X59362500Y-50500000D03*
D18*
X59737500Y-49337500D03*
X59737500Y-48837500D03*
X59737500Y-47837500D03*
D17*
X59362500Y-46675000D03*
X56862500Y-46675000D03*
X56362500Y-46675000D03*
X55362500Y-46675000D03*
%TD*%
D19*
%TO.C,C1*%
X70780000Y-85900000D03*
X69820000Y-85900000D03*
%TD*%
D10*
%TO.C,REF\u002A\u002A*%
X34325000Y-46250000D03*
%TD*%
%TO.C,REF\u002A\u002A*%
X34325000Y-14950000D03*
%TD*%
%TO.C,REF\u002A\u002A*%
X7000000Y-2500000D03*
%TD*%
%TO.C,REF\u002A\u002A*%
X21475356Y-31350005D03*
%TD*%
%TO.C,REF\u002A\u002A*%
X36075284Y-13450006D03*
%TD*%
%TO.C,REF\u002A\u002A*%
X70950000Y-23275000D03*
%TD*%
D19*
%TO.C,C1*%
X12380000Y-69500000D03*
X11420000Y-69500000D03*
%TD*%
D15*
%TO.C,R2*%
X62300000Y-65590000D03*
X62300000Y-66610000D03*
%TD*%
D13*
%TO.C,J5*%
X53300000Y-41600000D03*
D14*
X55840000Y-41600000D03*
X58380000Y-41600000D03*
X60920000Y-41600000D03*
%TD*%
D10*
%TO.C,REF\u002A\u002A*%
X70950000Y-54325000D03*
%TD*%
%TO.C,REF\u002A\u002A*%
X78000000Y-833334D03*
%TD*%
D11*
%TO.C,R3*%
X37300000Y-50210000D03*
X37300000Y-49190000D03*
%TD*%
D10*
%TO.C,REF\u002A\u002A*%
X7000000Y0D03*
%TD*%
%TO.C,REF\u002A\u002A*%
X6875357Y-14950005D03*
%TD*%
D19*
%TO.C,C1*%
X56180000Y-36700000D03*
X55220000Y-36700000D03*
%TD*%
D16*
%TO.C,R1*%
X14090000Y-53100000D03*
X15110000Y-53100000D03*
%TD*%
D17*
%TO.C,U1*%
X11062500Y-13875000D03*
D18*
X10687500Y-15037500D03*
X10687500Y-15537500D03*
X10687500Y-16037500D03*
X10687500Y-16537500D03*
D17*
X11062500Y-17700000D03*
X12562500Y-17700000D03*
X13062500Y-17700000D03*
X15562500Y-17700000D03*
D18*
X15937500Y-16537500D03*
X15937500Y-16037500D03*
X15937500Y-15037500D03*
D17*
X15562500Y-13875000D03*
X13062500Y-13875000D03*
X12562500Y-13875000D03*
X11562500Y-13875000D03*
%TD*%
D10*
%TO.C,REF\u002A\u002A*%
X43250000Y-6875000D03*
%TD*%
%TO.C,REF\u002A\u002A*%
X19725000Y-79050000D03*
%TD*%
%TO.C,REF\u002A\u002A*%
X1666667Y-7000000D03*
%TD*%
%TO.C,REF\u002A\u002A*%
X36075356Y-64150005D03*
%TD*%
D17*
%TO.C,U1*%
X54862500Y-79475000D03*
D18*
X54487500Y-80637500D03*
X54487500Y-81137500D03*
X54487500Y-81637500D03*
X54487500Y-82137500D03*
D17*
X54862500Y-83300000D03*
X56362500Y-83300000D03*
X56862500Y-83300000D03*
X59362500Y-83300000D03*
D18*
X59737500Y-82137500D03*
X59737500Y-81637500D03*
X59737500Y-80637500D03*
D17*
X59362500Y-79475000D03*
X56862500Y-79475000D03*
X56362500Y-79475000D03*
X55362500Y-79475000D03*
%TD*%
%TO.C,U1*%
X25662500Y-46675000D03*
D18*
X25287500Y-47837500D03*
X25287500Y-48337500D03*
X25287500Y-48837500D03*
X25287500Y-49337500D03*
D17*
X25662500Y-50500000D03*
X27162500Y-50500000D03*
X27662500Y-50500000D03*
X30162500Y-50500000D03*
D18*
X30537500Y-49337500D03*
X30537500Y-48837500D03*
X30537500Y-47837500D03*
D17*
X30162500Y-46675000D03*
X27662500Y-46675000D03*
X27162500Y-46675000D03*
X26162500Y-46675000D03*
%TD*%
D16*
%TO.C,R1*%
X57890000Y-85900000D03*
X58910000Y-85900000D03*
%TD*%
D10*
%TO.C,REF\u002A\u002A*%
X65275356Y-64150005D03*
%TD*%
D11*
%TO.C,R4*%
X33100000Y-63910000D03*
X33100000Y-62890000D03*
%TD*%
D15*
%TO.C,R2*%
X47700000Y-16390000D03*
X47700000Y-17410000D03*
%TD*%
D10*
%TO.C,REF\u002A\u002A*%
X14050000Y-87125000D03*
%TD*%
D11*
%TO.C,R5*%
X8100000Y-31110000D03*
X8100000Y-30090000D03*
%TD*%
%TO.C,R5*%
X51900000Y-47510000D03*
X51900000Y-46490000D03*
%TD*%
D10*
%TO.C,REF\u002A\u002A*%
X65275356Y-47750005D03*
%TD*%
%TO.C,REF\u002A\u002A*%
X63525000Y-64150000D03*
%TD*%
D15*
%TO.C,R2*%
X18500000Y-32790000D03*
X18500000Y-33810000D03*
%TD*%
D16*
%TO.C,R1*%
X14090000Y-20300000D03*
X15110000Y-20300000D03*
%TD*%
D13*
%TO.C,J5*%
X24100000Y-25200000D03*
D14*
X26640000Y-25200000D03*
X29180000Y-25200000D03*
X31720000Y-25200000D03*
%TD*%
D10*
%TO.C,REF\u002A\u002A*%
X84166666Y-7000000D03*
%TD*%
D16*
%TO.C,R1*%
X57890000Y-36700000D03*
X58910000Y-36700000D03*
%TD*%
D11*
%TO.C,R4*%
X62300000Y-14710000D03*
X62300000Y-13690000D03*
%TD*%
D10*
%TO.C,REF\u002A\u002A*%
X14050000Y-70725000D03*
%TD*%
%TO.C,REF\u002A\u002A*%
X12550000Y-72475000D03*
%TD*%
%TO.C,REF\u002A\u002A*%
X70950000Y-6875000D03*
%TD*%
%TO.C,REF\u002A\u002A*%
X57850000Y-21525000D03*
%TD*%
%TO.C,REF\u002A\u002A*%
X34325000Y-79050000D03*
%TD*%
%TO.C,REF\u002A\u002A*%
X48925000Y-13450000D03*
%TD*%
D11*
%TO.C,R3*%
X37300000Y-33810000D03*
X37300000Y-32790000D03*
%TD*%
D10*
%TO.C,REF\u002A\u002A*%
X5000000Y-7000000D03*
%TD*%
%TO.C,REF\u002A\u002A*%
X36075284Y-46250005D03*
%TD*%
D17*
%TO.C,U1*%
X25662500Y-13875000D03*
D18*
X25287500Y-15037500D03*
X25287500Y-15537500D03*
X25287500Y-16037500D03*
X25287500Y-16537500D03*
D17*
X25662500Y-17700000D03*
X27162500Y-17700000D03*
X27662500Y-17700000D03*
X30162500Y-17700000D03*
D18*
X30537500Y-16537500D03*
X30537500Y-16037500D03*
X30537500Y-15037500D03*
D17*
X30162500Y-13875000D03*
X27662500Y-13875000D03*
X27162500Y-13875000D03*
X26162500Y-13875000D03*
%TD*%
D16*
%TO.C,R1*%
X14090000Y-36700000D03*
X15110000Y-36700000D03*
%TD*%
D10*
%TO.C,REF\u002A\u002A*%
X56350000Y-87125000D03*
%TD*%
D11*
%TO.C,R3*%
X37300000Y-83010000D03*
X37300000Y-81990000D03*
%TD*%
D10*
%TO.C,REF\u002A\u002A*%
X63525000Y-14950000D03*
%TD*%
D15*
%TO.C,R2*%
X33100000Y-49190000D03*
X33100000Y-50210000D03*
%TD*%
D10*
%TO.C,REF\u002A\u002A*%
X50675284Y-29850005D03*
%TD*%
%TO.C,REF\u002A\u002A*%
X7000000Y-3333334D03*
%TD*%
%TO.C,REF\u002A\u002A*%
X78000000Y-2500000D03*
%TD*%
%TO.C,REF\u002A\u002A*%
X21475356Y-47750005D03*
%TD*%
D11*
%TO.C,R5*%
X37300000Y-47510000D03*
X37300000Y-46490000D03*
%TD*%
D10*
%TO.C,REF\u002A\u002A*%
X7000000Y-833334D03*
%TD*%
%TO.C,REF\u002A\u002A*%
X83333333Y-87000000D03*
%TD*%
%TO.C,REF\u002A\u002A*%
X50675284Y-62650005D03*
%TD*%
%TO.C,REF\u002A\u002A*%
X43250000Y-21525000D03*
%TD*%
%TO.C,REF\u002A\u002A*%
X36075356Y-31350005D03*
%TD*%
%TO.C,REF\u002A\u002A*%
X19725000Y-62650000D03*
%TD*%
%TO.C,REF\u002A\u002A*%
X65275284Y-13450006D03*
%TD*%
%TO.C,REF\u002A\u002A*%
X72450000Y-87125000D03*
%TD*%
%TO.C,REF\u002A\u002A*%
X56350000Y-54325000D03*
%TD*%
D13*
%TO.C,J5*%
X67900000Y-41600000D03*
D14*
X70440000Y-41600000D03*
X72980000Y-41600000D03*
X75520000Y-41600000D03*
%TD*%
D15*
%TO.C,R2*%
X62300000Y-32790000D03*
X62300000Y-33810000D03*
%TD*%
D10*
%TO.C,REF\u002A\u002A*%
X34325000Y-64150000D03*
%TD*%
%TO.C,REF\u002A\u002A*%
X57850000Y-87125000D03*
%TD*%
%TO.C,REF\u002A\u002A*%
X78000000Y-1666667D03*
%TD*%
D19*
%TO.C,C1*%
X56180000Y-85900000D03*
X55220000Y-85900000D03*
%TD*%
D10*
%TO.C,REF\u002A\u002A*%
X41750000Y-54325000D03*
%TD*%
D13*
%TO.C,J5*%
X9500000Y-58000000D03*
D14*
X12040000Y-58000000D03*
X14580000Y-58000000D03*
X17120000Y-58000000D03*
%TD*%
D11*
%TO.C,R3*%
X66500000Y-83010000D03*
X66500000Y-81990000D03*
%TD*%
D19*
%TO.C,C1*%
X41580000Y-69500000D03*
X40620000Y-69500000D03*
%TD*%
D13*
%TO.C,J5*%
X67900000Y-58000000D03*
D14*
X70440000Y-58000000D03*
X72980000Y-58000000D03*
X75520000Y-58000000D03*
%TD*%
D13*
%TO.C,J5*%
X38700000Y-8800000D03*
D14*
X41240000Y-8800000D03*
X43780000Y-8800000D03*
X46320000Y-8800000D03*
%TD*%
D11*
%TO.C,R4*%
X33100000Y-14710000D03*
X33100000Y-13690000D03*
%TD*%
D10*
%TO.C,REF\u002A\u002A*%
X41750000Y-72475000D03*
%TD*%
%TO.C,REF\u002A\u002A*%
X72450000Y-39675000D03*
%TD*%
D13*
%TO.C,J5*%
X24100000Y-41600000D03*
D14*
X26640000Y-41600000D03*
X29180000Y-41600000D03*
X31720000Y-41600000D03*
%TD*%
D10*
%TO.C,REF\u002A\u002A*%
X78125000Y-29850000D03*
%TD*%
%TO.C,REF\u002A\u002A*%
X34325000Y-31350000D03*
%TD*%
D19*
%TO.C,C1*%
X12380000Y-85900000D03*
X11420000Y-85900000D03*
%TD*%
D10*
%TO.C,REF\u002A\u002A*%
X12550000Y-54325000D03*
%TD*%
D11*
%TO.C,R4*%
X76900000Y-80310000D03*
X76900000Y-79290000D03*
%TD*%
D10*
%TO.C,REF\u002A\u002A*%
X7000000Y-1666667D03*
%TD*%
%TO.C,REF\u002A\u002A*%
X14050000Y-21525000D03*
%TD*%
%TO.C,REF\u002A\u002A*%
X28650000Y-72475000D03*
%TD*%
%TO.C,REF\u002A\u002A*%
X78000000Y0D03*
%TD*%
%TO.C,REF\u002A\u002A*%
X78125000Y-13450000D03*
%TD*%
%TO.C,REF\u002A\u002A*%
X78125000Y-79050000D03*
%TD*%
D15*
%TO.C,R2*%
X62300000Y-81990000D03*
X62300000Y-83010000D03*
%TD*%
D13*
%TO.C,J5*%
X38700000Y-41600000D03*
D14*
X41240000Y-41600000D03*
X43780000Y-41600000D03*
X46320000Y-41600000D03*
%TD*%
D10*
%TO.C,REF\u002A\u002A*%
X70950000Y-39675000D03*
%TD*%
%TO.C,REF\u002A\u002A*%
X19725000Y-31350000D03*
%TD*%
%TO.C,REF\u002A\u002A*%
X78000000Y-91500000D03*
%TD*%
%TO.C,REF\u002A\u002A*%
X57850000Y-23275000D03*
%TD*%
%TO.C,REF\u002A\u002A*%
X70950000Y-21525000D03*
%TD*%
D17*
%TO.C,U1*%
X54862500Y-63075000D03*
D18*
X54487500Y-64237500D03*
X54487500Y-64737500D03*
X54487500Y-65237500D03*
X54487500Y-65737500D03*
D17*
X54862500Y-66900000D03*
X56362500Y-66900000D03*
X56862500Y-66900000D03*
X59362500Y-66900000D03*
D18*
X59737500Y-65737500D03*
X59737500Y-65237500D03*
X59737500Y-64237500D03*
D17*
X59362500Y-63075000D03*
X56862500Y-63075000D03*
X56362500Y-63075000D03*
X55362500Y-63075000D03*
%TD*%
D11*
%TO.C,R5*%
X66500000Y-31110000D03*
X66500000Y-30090000D03*
%TD*%
D10*
%TO.C,REF\u002A\u002A*%
X41750000Y-21525000D03*
%TD*%
D19*
%TO.C,C1*%
X70780000Y-69500000D03*
X69820000Y-69500000D03*
%TD*%
D10*
%TO.C,REF\u002A\u002A*%
X2500000Y-7000000D03*
%TD*%
D11*
%TO.C,R4*%
X33100000Y-47510000D03*
X33100000Y-46490000D03*
%TD*%
%TO.C,R3*%
X51900000Y-83010000D03*
X51900000Y-81990000D03*
%TD*%
D10*
%TO.C,REF\u002A\u002A*%
X48925000Y-29850000D03*
%TD*%
D16*
%TO.C,R1*%
X43290000Y-85900000D03*
X44310000Y-85900000D03*
%TD*%
D11*
%TO.C,R3*%
X22700000Y-66610000D03*
X22700000Y-65590000D03*
%TD*%
D13*
%TO.C,J5*%
X9500000Y-8800000D03*
D14*
X12040000Y-8800000D03*
X14580000Y-8800000D03*
X17120000Y-8800000D03*
%TD*%
D13*
%TO.C,J5*%
X24100000Y-58000000D03*
D14*
X26640000Y-58000000D03*
X29180000Y-58000000D03*
X31720000Y-58000000D03*
%TD*%
D11*
%TO.C,R5*%
X8100000Y-63910000D03*
X8100000Y-62890000D03*
%TD*%
%TO.C,R3*%
X8100000Y-66610000D03*
X8100000Y-65590000D03*
%TD*%
D13*
%TO.C,J5*%
X38700000Y-74400000D03*
D14*
X41240000Y-74400000D03*
X43780000Y-74400000D03*
X46320000Y-74400000D03*
%TD*%
D19*
%TO.C,C1*%
X26980000Y-36700000D03*
X26020000Y-36700000D03*
%TD*%
D10*
%TO.C,REF\u002A\u002A*%
X85000000Y-87000000D03*
%TD*%
%TO.C,REF\u002A\u002A*%
X48925000Y-79050000D03*
%TD*%
%TO.C,REF\u002A\u002A*%
X41750000Y-56075000D03*
%TD*%
D17*
%TO.C,U1*%
X40262500Y-46675000D03*
D18*
X39887500Y-47837500D03*
X39887500Y-48337500D03*
X39887500Y-48837500D03*
X39887500Y-49337500D03*
D17*
X40262500Y-50500000D03*
X41762500Y-50500000D03*
X42262500Y-50500000D03*
X44762500Y-50500000D03*
D18*
X45137500Y-49337500D03*
X45137500Y-48837500D03*
X45137500Y-47837500D03*
D17*
X44762500Y-46675000D03*
X42262500Y-46675000D03*
X41762500Y-46675000D03*
X40762500Y-46675000D03*
%TD*%
%TO.C,U1*%
X25662500Y-63075000D03*
D18*
X25287500Y-64237500D03*
X25287500Y-64737500D03*
X25287500Y-65237500D03*
X25287500Y-65737500D03*
D17*
X25662500Y-66900000D03*
X27162500Y-66900000D03*
X27662500Y-66900000D03*
X30162500Y-66900000D03*
D18*
X30537500Y-65737500D03*
X30537500Y-65237500D03*
X30537500Y-64237500D03*
D17*
X30162500Y-63075000D03*
X27662500Y-63075000D03*
X27162500Y-63075000D03*
X26162500Y-63075000D03*
%TD*%
D10*
%TO.C,REF\u002A\u002A*%
X36075284Y-79050005D03*
%TD*%
D11*
%TO.C,R5*%
X51900000Y-31110000D03*
X51900000Y-30090000D03*
%TD*%
D10*
%TO.C,REF\u002A\u002A*%
X65275284Y-62650005D03*
%TD*%
%TO.C,REF\u002A\u002A*%
X85000000Y-7000000D03*
%TD*%
%TO.C,REF\u002A\u002A*%
X12550000Y-87125000D03*
%TD*%
%TO.C,REF\u002A\u002A*%
X7000000Y-92333333D03*
%TD*%
%TO.C,REF\u002A\u002A*%
X63525000Y-80550000D03*
%TD*%
%TO.C,REF\u002A\u002A*%
X19725000Y-47750000D03*
%TD*%
D19*
%TO.C,C1*%
X41580000Y-20300000D03*
X40620000Y-20300000D03*
%TD*%
D10*
%TO.C,REF\u002A\u002A*%
X63525000Y-46250000D03*
%TD*%
%TO.C,REF\u002A\u002A*%
X65275356Y-14950005D03*
%TD*%
D11*
%TO.C,R4*%
X47700000Y-14710000D03*
X47700000Y-13690000D03*
%TD*%
%TO.C,R3*%
X8100000Y-83010000D03*
X8100000Y-81990000D03*
%TD*%
D10*
%TO.C,REF\u002A\u002A*%
X19725000Y-14950000D03*
%TD*%
D16*
%TO.C,R1*%
X72490000Y-53100000D03*
X73510000Y-53100000D03*
%TD*%
D10*
%TO.C,REF\u002A\u002A*%
X34325000Y-80550000D03*
%TD*%
D11*
%TO.C,R5*%
X22700000Y-63910000D03*
X22700000Y-62890000D03*
%TD*%
%TO.C,R3*%
X8100000Y-17410000D03*
X8100000Y-16390000D03*
%TD*%
D15*
%TO.C,R2*%
X18500000Y-81990000D03*
X18500000Y-83010000D03*
%TD*%
D10*
%TO.C,REF\u002A\u002A*%
X19725000Y-13450000D03*
%TD*%
%TO.C,REF\u002A\u002A*%
X63525000Y-62650000D03*
%TD*%
%TO.C,REF\u002A\u002A*%
X81666666Y-87000000D03*
%TD*%
%TO.C,REF\u002A\u002A*%
X28650000Y-70725000D03*
%TD*%
D15*
%TO.C,R2*%
X76900000Y-32790000D03*
X76900000Y-33810000D03*
%TD*%
D11*
%TO.C,R4*%
X47700000Y-63910000D03*
X47700000Y-62890000D03*
%TD*%
D10*
%TO.C,REF\u002A\u002A*%
X50675356Y-31350005D03*
%TD*%
%TO.C,REF\u002A\u002A*%
X21475284Y-13450006D03*
%TD*%
D17*
%TO.C,U1*%
X40262500Y-30275000D03*
D18*
X39887500Y-31437500D03*
X39887500Y-31937500D03*
X39887500Y-32437500D03*
X39887500Y-32937500D03*
D17*
X40262500Y-34100000D03*
X41762500Y-34100000D03*
X42262500Y-34100000D03*
X44762500Y-34100000D03*
D18*
X45137500Y-32937500D03*
X45137500Y-32437500D03*
X45137500Y-31437500D03*
D17*
X44762500Y-30275000D03*
X42262500Y-30275000D03*
X41762500Y-30275000D03*
X40762500Y-30275000D03*
%TD*%
D16*
%TO.C,R1*%
X43290000Y-53100000D03*
X44310000Y-53100000D03*
%TD*%
D10*
%TO.C,REF\u002A\u002A*%
X63525000Y-79050000D03*
%TD*%
D16*
%TO.C,R1*%
X14090000Y-85900000D03*
X15110000Y-85900000D03*
%TD*%
D10*
%TO.C,REF\u002A\u002A*%
X72450000Y-70725000D03*
%TD*%
%TO.C,REF\u002A\u002A*%
X6875357Y-64150005D03*
%TD*%
D11*
%TO.C,R5*%
X8100000Y-14710000D03*
X8100000Y-13690000D03*
%TD*%
D10*
%TO.C,REF\u002A\u002A*%
X72450000Y-37925000D03*
%TD*%
%TO.C,REF\u002A\u002A*%
X28650000Y-6875000D03*
%TD*%
D19*
%TO.C,C1*%
X26980000Y-20300000D03*
X26020000Y-20300000D03*
%TD*%
D10*
%TO.C,REF\u002A\u002A*%
X36075356Y-47750005D03*
%TD*%
%TO.C,REF\u002A\u002A*%
X19725000Y-64150000D03*
%TD*%
%TO.C,REF\u002A\u002A*%
X6875357Y-31350005D03*
%TD*%
D13*
%TO.C,J5*%
X53300000Y-74400000D03*
D14*
X55840000Y-74400000D03*
X58380000Y-74400000D03*
X60920000Y-74400000D03*
%TD*%
D17*
%TO.C,U1*%
X69462500Y-79475000D03*
D18*
X69087500Y-80637500D03*
X69087500Y-81137500D03*
X69087500Y-81637500D03*
X69087500Y-82137500D03*
D17*
X69462500Y-83300000D03*
X70962500Y-83300000D03*
X71462500Y-83300000D03*
X73962500Y-83300000D03*
D18*
X74337500Y-82137500D03*
X74337500Y-81637500D03*
X74337500Y-80637500D03*
D17*
X73962500Y-79475000D03*
X71462500Y-79475000D03*
X70962500Y-79475000D03*
X69962500Y-79475000D03*
%TD*%
D10*
%TO.C,REF\u002A\u002A*%
X12550000Y-39675000D03*
%TD*%
D11*
%TO.C,R4*%
X18500000Y-14710000D03*
X18500000Y-13690000D03*
%TD*%
D10*
%TO.C,REF\u002A\u002A*%
X2500000Y-87000000D03*
%TD*%
%TO.C,REF\u002A\u002A*%
X833334Y-87000000D03*
%TD*%
%TO.C,REF\u002A\u002A*%
X7000000Y-94000000D03*
%TD*%
D19*
%TO.C,C1*%
X41580000Y-36700000D03*
X40620000Y-36700000D03*
%TD*%
D10*
%TO.C,REF\u002A\u002A*%
X78125000Y-46250000D03*
%TD*%
%TO.C,REF\u002A\u002A*%
X36075284Y-62650005D03*
%TD*%
D19*
%TO.C,C1*%
X70780000Y-36700000D03*
X69820000Y-36700000D03*
%TD*%
D10*
%TO.C,REF\u002A\u002A*%
X7000000Y-91500000D03*
%TD*%
%TO.C,REF\u002A\u002A*%
X48925000Y-46250000D03*
%TD*%
%TO.C,REF\u002A\u002A*%
X14050000Y-54325000D03*
%TD*%
D17*
%TO.C,U1*%
X69462500Y-46675000D03*
D18*
X69087500Y-47837500D03*
X69087500Y-48337500D03*
X69087500Y-48837500D03*
X69087500Y-49337500D03*
D17*
X69462500Y-50500000D03*
X70962500Y-50500000D03*
X71462500Y-50500000D03*
X73962500Y-50500000D03*
D18*
X74337500Y-49337500D03*
X74337500Y-48837500D03*
X74337500Y-47837500D03*
D17*
X73962500Y-46675000D03*
X71462500Y-46675000D03*
X70962500Y-46675000D03*
X69962500Y-46675000D03*
%TD*%
D11*
%TO.C,R4*%
X62300000Y-80310000D03*
X62300000Y-79290000D03*
%TD*%
D10*
%TO.C,REF\u002A\u002A*%
X34325000Y-62650000D03*
%TD*%
%TO.C,REF\u002A\u002A*%
X0Y-7000000D03*
%TD*%
D11*
%TO.C,R4*%
X62300000Y-47510000D03*
X62300000Y-46490000D03*
%TD*%
D19*
%TO.C,C1*%
X12380000Y-36700000D03*
X11420000Y-36700000D03*
%TD*%
%TO.C,C1*%
X12380000Y-53100000D03*
X11420000Y-53100000D03*
%TD*%
D11*
%TO.C,R5*%
X51900000Y-80310000D03*
X51900000Y-79290000D03*
%TD*%
D10*
%TO.C,REF\u002A\u002A*%
X65275356Y-80550005D03*
%TD*%
%TO.C,REF\u002A\u002A*%
X70950000Y-72475000D03*
%TD*%
%TO.C,REF\u002A\u002A*%
X41750000Y-6875000D03*
%TD*%
%TO.C,REF\u002A\u002A*%
X78125000Y-80550000D03*
%TD*%
D15*
%TO.C,R2*%
X33100000Y-32790000D03*
X33100000Y-33810000D03*
%TD*%
D19*
%TO.C,C1*%
X41580000Y-53100000D03*
X40620000Y-53100000D03*
%TD*%
D15*
%TO.C,R2*%
X47700000Y-49190000D03*
X47700000Y-50210000D03*
%TD*%
D10*
%TO.C,REF\u002A\u002A*%
X43250000Y-54325000D03*
%TD*%
D11*
%TO.C,R3*%
X8100000Y-33810000D03*
X8100000Y-32790000D03*
%TD*%
D17*
%TO.C,U1*%
X69462500Y-63075000D03*
D18*
X69087500Y-64237500D03*
X69087500Y-64737500D03*
X69087500Y-65237500D03*
X69087500Y-65737500D03*
D17*
X69462500Y-66900000D03*
X70962500Y-66900000D03*
X71462500Y-66900000D03*
X73962500Y-66900000D03*
D18*
X74337500Y-65737500D03*
X74337500Y-65237500D03*
X74337500Y-64237500D03*
D17*
X73962500Y-63075000D03*
X71462500Y-63075000D03*
X70962500Y-63075000D03*
X69962500Y-63075000D03*
%TD*%
D10*
%TO.C,REF\u002A\u002A*%
X78125000Y-62650000D03*
%TD*%
D11*
%TO.C,R5*%
X22700000Y-14710000D03*
X22700000Y-13690000D03*
%TD*%
D10*
%TO.C,REF\u002A\u002A*%
X6875285Y-13450006D03*
%TD*%
%TO.C,REF\u002A\u002A*%
X78125000Y-47750000D03*
%TD*%
D16*
%TO.C,R1*%
X72490000Y-85900000D03*
X73510000Y-85900000D03*
%TD*%
D15*
%TO.C,R2*%
X76900000Y-65590000D03*
X76900000Y-66610000D03*
%TD*%
D19*
%TO.C,C1*%
X56180000Y-69500000D03*
X55220000Y-69500000D03*
%TD*%
D10*
%TO.C,REF\u002A\u002A*%
X56350000Y-70725000D03*
%TD*%
D19*
%TO.C,C1*%
X56180000Y-53100000D03*
X55220000Y-53100000D03*
%TD*%
D10*
%TO.C,REF\u002A\u002A*%
X48925000Y-47750000D03*
%TD*%
%TO.C,REF\u002A\u002A*%
X50675284Y-46250005D03*
%TD*%
%TO.C,REF\u002A\u002A*%
X41750000Y-70725000D03*
%TD*%
%TO.C,REF\u002A\u002A*%
X84166666Y-87000000D03*
%TD*%
D11*
%TO.C,R4*%
X33100000Y-80310000D03*
X33100000Y-79290000D03*
%TD*%
D19*
%TO.C,C1*%
X56180000Y-20300000D03*
X55220000Y-20300000D03*
%TD*%
D13*
%TO.C,J5*%
X9500000Y-41600000D03*
D14*
X12040000Y-41600000D03*
X14580000Y-41600000D03*
X17120000Y-41600000D03*
%TD*%
D10*
%TO.C,REF\u002A\u002A*%
X28650000Y-23275000D03*
%TD*%
%TO.C,REF\u002A\u002A*%
X34325000Y-13450000D03*
%TD*%
D11*
%TO.C,R3*%
X22700000Y-33810000D03*
X22700000Y-32790000D03*
%TD*%
D10*
%TO.C,REF\u002A\u002A*%
X5000000Y-87000000D03*
%TD*%
%TO.C,REF\u002A\u002A*%
X14050000Y-23275000D03*
%TD*%
%TO.C,REF\u002A\u002A*%
X78125000Y-31350000D03*
%TD*%
%TO.C,REF\u002A\u002A*%
X6875285Y-62650005D03*
%TD*%
D11*
%TO.C,R4*%
X76900000Y-47510000D03*
X76900000Y-46490000D03*
%TD*%
D10*
%TO.C,REF\u002A\u002A*%
X6875285Y-29850005D03*
%TD*%
D16*
%TO.C,R1*%
X57890000Y-69500000D03*
X58910000Y-69500000D03*
%TD*%
D10*
%TO.C,REF\u002A\u002A*%
X78000000Y-93166666D03*
%TD*%
%TO.C,REF\u002A\u002A*%
X70950000Y-37925000D03*
%TD*%
%TO.C,REF\u002A\u002A*%
X34325000Y-29850000D03*
%TD*%
D16*
%TO.C,R1*%
X57890000Y-53100000D03*
X58910000Y-53100000D03*
%TD*%
D10*
%TO.C,REF\u002A\u002A*%
X27150000Y-37925000D03*
%TD*%
%TO.C,REF\u002A\u002A*%
X36075284Y-29850005D03*
%TD*%
%TO.C,REF\u002A\u002A*%
X7000000Y-93166666D03*
%TD*%
D11*
%TO.C,R3*%
X22700000Y-17410000D03*
X22700000Y-16390000D03*
%TD*%
D10*
%TO.C,REF\u002A\u002A*%
X78000000Y-94000000D03*
%TD*%
D12*
%TO.C,REF\u002A\u002A*%
X82500000Y-2500000D03*
%TD*%
D10*
%TO.C,REF\u002A\u002A*%
X21475284Y-46250005D03*
%TD*%
%TO.C,REF\u002A\u002A*%
X63525000Y-47750000D03*
%TD*%
%TO.C,REF\u002A\u002A*%
X19725000Y-80550000D03*
%TD*%
D13*
%TO.C,J5*%
X9500000Y-25200000D03*
D14*
X12040000Y-25200000D03*
X14580000Y-25200000D03*
X17120000Y-25200000D03*
%TD*%
D10*
%TO.C,REF\u002A\u002A*%
X19725000Y-46250000D03*
%TD*%
%TO.C,REF\u002A\u002A*%
X36075356Y-80550005D03*
%TD*%
%TO.C,REF\u002A\u002A*%
X1666667Y-87000000D03*
%TD*%
%TO.C,REF\u002A\u002A*%
X6875285Y-79050005D03*
%TD*%
%TO.C,REF\u002A\u002A*%
X72450000Y-23275000D03*
%TD*%
%TO.C,REF\u002A\u002A*%
X72450000Y-54325000D03*
%TD*%
%TO.C,REF\u002A\u002A*%
X21475356Y-14950005D03*
%TD*%
D16*
%TO.C,R1*%
X43290000Y-69500000D03*
X44310000Y-69500000D03*
%TD*%
D11*
%TO.C,R4*%
X18500000Y-47510000D03*
X18500000Y-46490000D03*
%TD*%
D10*
%TO.C,REF\u002A\u002A*%
X65275284Y-79050005D03*
%TD*%
%TO.C,REF\u002A\u002A*%
X81666666Y-7000000D03*
%TD*%
D19*
%TO.C,C1*%
X70780000Y-53100000D03*
X69820000Y-53100000D03*
%TD*%
%TO.C,C1*%
X26980000Y-85900000D03*
X26020000Y-85900000D03*
%TD*%
D16*
%TO.C,R1*%
X57890000Y-20300000D03*
X58910000Y-20300000D03*
%TD*%
%TO.C,R1*%
X28690000Y-36700000D03*
X29710000Y-36700000D03*
%TD*%
D10*
%TO.C,REF\u002A\u002A*%
X63525000Y-31350000D03*
%TD*%
D11*
%TO.C,R5*%
X22700000Y-47510000D03*
X22700000Y-46490000D03*
%TD*%
D13*
%TO.C,J5*%
X38700000Y-25200000D03*
D14*
X41240000Y-25200000D03*
X43780000Y-25200000D03*
X46320000Y-25200000D03*
%TD*%
D17*
%TO.C,U1*%
X40262500Y-63075000D03*
D18*
X39887500Y-64237500D03*
X39887500Y-64737500D03*
X39887500Y-65237500D03*
X39887500Y-65737500D03*
D17*
X40262500Y-66900000D03*
X41762500Y-66900000D03*
X42262500Y-66900000D03*
X44762500Y-66900000D03*
D18*
X45137500Y-65737500D03*
X45137500Y-65237500D03*
X45137500Y-64237500D03*
D17*
X44762500Y-63075000D03*
X42262500Y-63075000D03*
X41762500Y-63075000D03*
X40762500Y-63075000D03*
%TD*%
D10*
%TO.C,REF\u002A\u002A*%
X56350000Y-23275000D03*
%TD*%
M02*
