%TF.GenerationSoftware,KiCad,Pcbnew,7.0.6-1.fc38*%
%TF.CreationDate,2023-07-31T16:19:08-04:00*%
%TF.ProjectId,bno085-i2c-board-v4-square-panel,626e6f30-3835-42d6-9932-632d626f6172,rev?*%
%TF.SameCoordinates,Original*%
%TF.FileFunction,Profile,NP*%
%FSLAX46Y46*%
G04 Gerber Fmt 4.6, Leading zero omitted, Abs format (unit mm)*
G04 Created by KiCad (PCBNEW 7.0.6-1.fc38) date 2023-07-31 16:19:08*
%MOMM*%
%LPD*%
G01*
G04 APERTURE LIST*
%TA.AperFunction,Profile*%
%ADD10C,0.100000*%
%TD*%
G04 APERTURE END LIST*
D10*
X51249415Y-86997434D02*
X51300000Y-87000000D01*
X41750000Y-21400000D02*
X41750000Y-22400000D01*
X19548902Y-23679802D02*
X19524322Y-23635517D01*
X77977069Y-86649681D02*
X77989764Y-86600649D01*
X33897177Y-56240521D02*
X33873652Y-56231123D01*
X5000000Y-46250000D02*
X5000000Y-31350000D01*
X48606052Y-70495387D02*
X48644483Y-70462396D01*
X19589764Y-86600649D02*
X19597434Y-86550584D01*
X19425686Y-72720620D02*
X19385634Y-72689618D01*
X77720197Y-39851097D02*
X77673652Y-39831123D01*
X77989764Y-23799350D02*
X77977069Y-23750318D01*
X7075677Y-70364482D02*
X7089618Y-70385634D01*
X19510381Y-70385634D02*
X19524322Y-70364482D01*
X63389764Y-56599350D02*
X63377069Y-56550318D01*
X36200641Y-86525324D02*
X36205765Y-86575713D01*
X21902822Y-86959478D02*
X21950318Y-86977069D01*
X65504612Y-72793947D02*
X65475677Y-72835517D01*
X48473652Y-7031123D02*
X48425326Y-7015961D01*
X48473652Y-37768876D02*
X48520197Y-37748902D01*
X48625686Y-56320620D02*
X48606052Y-56304612D01*
X48606052Y-54095387D02*
X48644483Y-54062396D01*
X77500000Y-54200000D02*
X77550584Y-54197434D01*
X21651097Y-7279802D02*
X21631123Y-7326347D01*
X65702822Y-86959478D02*
X65750318Y-86977069D01*
X48797434Y-37350584D02*
X48800000Y-37300000D01*
X50875677Y-53964482D02*
X50904612Y-54006052D01*
X21602565Y-40249415D02*
X21600000Y-40300000D01*
X34006052Y-86895387D02*
X34044483Y-86862396D01*
X65400356Y-47750000D02*
X65400641Y-53725324D01*
X65555516Y-70462396D02*
X65593947Y-70495387D01*
X36304612Y-54006052D02*
X36320620Y-54025686D01*
X21879802Y-72651097D02*
X21835517Y-72675677D01*
X7235517Y-21324322D02*
X7279802Y-21348902D01*
X48797434Y-86550584D02*
X48800000Y-86500000D01*
X51300000Y-7000000D02*
X51249415Y-7002565D01*
X51035517Y-54124322D02*
X51079802Y-54148902D01*
X48520197Y-86948902D02*
X48564482Y-86924322D01*
X48800000Y-47750000D02*
X49800000Y-47750000D01*
X21631123Y-21073652D02*
X21651097Y-21120197D01*
X36200641Y-53725324D02*
X36205765Y-53775713D01*
X7193947Y-39904612D02*
X7155516Y-39937603D01*
X63400000Y-64150000D02*
X64400000Y-64150000D01*
X65410235Y-7399350D02*
X65402565Y-7449415D01*
X65900000Y-39800000D02*
X65849415Y-39802565D01*
X51126347Y-7031123D02*
X51079802Y-7051097D01*
X41750000Y-87000000D02*
X41750000Y-89000000D01*
X33873652Y-56231123D02*
X33849681Y-56222930D01*
X36251097Y-70320197D02*
X36275677Y-70364482D01*
X63389764Y-21000649D02*
X63397434Y-20950584D01*
X19600000Y-7500000D02*
X19597434Y-7449415D01*
X77600649Y-54189764D02*
X77649681Y-54177069D01*
X48350584Y-21397434D02*
X48375713Y-21394234D01*
X7302822Y-86959478D02*
X7350318Y-86977069D01*
X72450000Y-55200000D02*
X72450000Y-54200000D01*
X34197434Y-23849415D02*
X34194234Y-23824286D01*
X36700000Y-39800000D02*
X36649415Y-39802565D01*
X7155516Y-7137603D02*
X7120620Y-7174313D01*
X43250000Y-72600000D02*
X43250000Y-71600000D01*
X48662396Y-72755516D02*
X48625686Y-72720620D01*
X48400649Y-56210235D02*
X48350584Y-56202565D01*
X48797434Y-20950584D02*
X48800000Y-20900000D01*
X7374673Y-21384038D02*
X7424286Y-21394234D01*
X50800641Y-20925324D02*
X50805765Y-20975713D01*
X7062826Y-37542650D02*
X7089618Y-37585634D01*
X48724322Y-53964482D02*
X48748902Y-53920197D01*
X77600649Y-86989764D02*
X77649681Y-86977069D01*
X63164482Y-7075677D02*
X63120197Y-7051097D01*
X65900000Y-87000000D02*
X70950000Y-87000000D01*
X36200000Y-56700000D02*
X36200284Y-62650000D01*
X34110381Y-21185634D02*
X34137173Y-21142650D01*
X33700000Y-72600000D02*
X28650000Y-72600000D01*
X48797434Y-23849415D02*
X48789764Y-23799350D01*
X7000641Y-86525324D02*
X7002565Y-86550584D01*
X62900000Y-7000000D02*
X57850000Y-7000000D01*
X77500000Y-56200000D02*
X72450000Y-56200000D01*
X19594234Y-20975713D02*
X19599358Y-20925324D01*
X19200649Y-72610235D02*
X19150584Y-72602565D01*
X63400000Y-23900000D02*
X63397434Y-23849415D01*
X36231123Y-40126347D02*
X36215961Y-40174673D01*
X48350584Y-70597434D02*
X48400649Y-70589764D01*
X77910381Y-21185634D02*
X77937173Y-21142650D01*
X5000000Y-89000000D02*
X5000000Y-80550000D01*
X65400356Y-64150000D02*
X65400641Y-70125324D01*
X65422930Y-40150318D02*
X65410235Y-40199350D01*
X36502822Y-86959478D02*
X36550318Y-86977069D01*
X63348902Y-53920197D02*
X63368876Y-53873652D01*
X77977069Y-70249681D02*
X77989764Y-70200649D01*
X77997434Y-23849415D02*
X77989764Y-23799350D01*
X12550000Y-38800000D02*
X12550000Y-39800000D01*
X48789764Y-37400649D02*
X48797434Y-37350584D01*
X65702822Y-72640521D02*
X65679802Y-72651097D01*
X50822930Y-23750318D02*
X50810235Y-23799350D01*
X34194234Y-73024286D02*
X34184038Y-72974673D01*
X19320197Y-23451097D02*
X19273652Y-23431123D01*
X50955516Y-37662396D02*
X50993947Y-37695387D01*
X28650000Y-55200000D02*
X28650000Y-54200000D01*
X65900000Y-70600000D02*
X70950000Y-70600000D01*
X65635517Y-21324322D02*
X65679802Y-21348902D01*
X63279379Y-70425686D02*
X63295387Y-70406052D01*
X48777069Y-70249681D02*
X48789764Y-70200649D01*
X50815961Y-21025326D02*
X50831123Y-21073652D01*
X7500000Y-56200000D02*
X7449415Y-56202565D01*
X19200649Y-86989764D02*
X19249681Y-86977069D01*
X7002565Y-73049415D02*
X7000000Y-73100000D01*
X21835517Y-23475677D02*
X21793947Y-23504612D01*
X19597434Y-73049415D02*
X19594234Y-73024286D01*
X21651097Y-72879802D02*
X21631123Y-72926347D01*
X77997434Y-86550584D02*
X78000000Y-86500000D01*
X33942650Y-39862826D02*
X33920197Y-39851097D01*
X7279802Y-7051097D02*
X7235517Y-7075677D01*
X51150318Y-54177069D02*
X51199350Y-54189764D01*
X72450000Y-87000000D02*
X72450000Y-87000000D01*
X48644483Y-21262396D02*
X48679379Y-21225686D01*
X63377069Y-37449681D02*
X63389764Y-37400649D01*
X33750584Y-70597434D02*
X33800649Y-70589764D01*
X48662396Y-56355516D02*
X48625686Y-56320620D01*
X64400000Y-46250000D02*
X63400000Y-46250000D01*
X21974673Y-7015961D02*
X21926347Y-7031123D01*
X36320620Y-86825686D02*
X36355516Y-86862396D01*
X7015961Y-23774673D02*
X7005765Y-23824286D01*
X7089618Y-21185634D02*
X7120620Y-21225686D01*
X63000649Y-54189764D02*
X63049681Y-54177069D01*
X34194234Y-40224286D02*
X34184038Y-40174673D01*
X19524322Y-23635517D02*
X19495387Y-23593947D01*
X7424286Y-7005765D02*
X7374673Y-7015961D01*
X21675677Y-53964482D02*
X21689618Y-53985634D01*
X48768876Y-37473652D02*
X48777069Y-37449681D01*
X36700000Y-72600000D02*
X36649415Y-72602565D01*
X51150318Y-70577069D02*
X51199350Y-70589764D01*
X78000000Y-14950000D02*
X80000000Y-14950000D01*
X65415961Y-37425326D02*
X65431123Y-37473652D01*
X50875677Y-21164482D02*
X50904612Y-21206052D01*
X7002565Y-86550584D02*
X7010235Y-86600649D01*
X48759478Y-23702822D02*
X48748902Y-23679802D01*
X36200284Y-13450000D02*
X35200000Y-13450000D01*
X14050000Y-56200000D02*
X14050000Y-55200000D01*
X36202565Y-23849415D02*
X36200000Y-23900000D01*
X63225686Y-72720620D02*
X63206052Y-72704612D01*
X36502822Y-54159478D02*
X36550318Y-54177069D01*
X57850000Y-87000000D02*
X57850000Y-87000000D01*
X77550584Y-39802565D02*
X77500000Y-39800000D01*
X19594234Y-23824286D02*
X19584038Y-23774673D01*
X50920620Y-7174313D02*
X50889618Y-7214365D01*
X21793947Y-37695387D02*
X21835517Y-37724322D01*
X34200000Y-37300000D02*
X34200000Y-31350000D01*
X19600000Y-62650000D02*
X19600000Y-56700000D01*
X50862826Y-40057349D02*
X50840521Y-40102822D01*
X65489618Y-23614365D02*
X65462826Y-23657349D01*
X19594234Y-56624286D02*
X19584038Y-56574673D01*
X77879379Y-21225686D02*
X77910381Y-21185634D01*
X41750000Y-7000000D02*
X36700000Y-7000000D01*
X12550000Y-71600000D02*
X12550000Y-72600000D01*
X48425326Y-21384038D02*
X48473652Y-21368876D01*
X19600000Y-31350000D02*
X20600000Y-31350000D01*
X62900000Y-23400000D02*
X57850000Y-23400000D01*
X22100000Y-7000000D02*
X22049415Y-7002565D01*
X77550584Y-86997434D02*
X77600649Y-86989764D01*
X36304612Y-37606052D02*
X36337603Y-37644483D01*
X12550000Y-55200000D02*
X12550000Y-56200000D01*
X12550000Y-22400000D02*
X12550000Y-23400000D01*
X34200000Y-80550000D02*
X35200000Y-80550000D01*
X70950000Y-56200000D02*
X65900000Y-56200000D01*
X65750318Y-86977069D02*
X65799350Y-86989764D01*
X33897177Y-23440521D02*
X33873652Y-23431123D01*
X7193947Y-21295387D02*
X7235517Y-21324322D01*
X48625686Y-23520620D02*
X48585634Y-23489618D01*
X21814365Y-54110381D02*
X21857349Y-54137173D01*
X77550584Y-54197434D02*
X77600649Y-54189764D01*
X36355516Y-37662396D02*
X36393947Y-37695387D01*
X7089618Y-56414365D02*
X7075677Y-56435517D01*
X77959478Y-23702822D02*
X77948902Y-23679802D01*
X48520197Y-39851097D02*
X48473652Y-39831123D01*
X19200649Y-23410235D02*
X19150584Y-23402565D01*
X36200356Y-80550000D02*
X36200641Y-86525324D01*
X77825686Y-39920620D02*
X77806052Y-39904612D01*
X63206052Y-72704612D02*
X63164482Y-72675677D01*
X65849415Y-86997434D02*
X65900000Y-87000000D01*
X19568876Y-7326347D02*
X19548902Y-7279802D01*
X78000000Y-20900000D02*
X78000000Y-14950000D01*
X19320197Y-37748902D02*
X19364482Y-37724322D01*
X77600649Y-56210235D02*
X77550584Y-56202565D01*
X22100000Y-37800000D02*
X27150000Y-37800000D01*
X19320197Y-54148902D02*
X19364482Y-54124322D01*
X28650000Y-38800000D02*
X28650000Y-37800000D01*
X19548902Y-53920197D02*
X19568876Y-53873652D01*
X77989764Y-70200649D02*
X77997434Y-70150584D01*
X48564482Y-56275677D02*
X48520197Y-56251097D01*
X19462396Y-23555516D02*
X19425686Y-23520620D01*
X65475677Y-56435517D02*
X65451097Y-56479802D01*
X50955516Y-70462396D02*
X50993947Y-70495387D01*
X48768876Y-70273652D02*
X48777069Y-70249681D01*
X77948902Y-53920197D02*
X77968876Y-53873652D01*
X19594234Y-7424286D02*
X19584038Y-7374673D01*
X36231123Y-23726347D02*
X36215961Y-23774673D01*
X62900000Y-70600000D02*
X62900000Y-70600000D01*
X33942650Y-72662826D02*
X33897177Y-72640521D01*
X63359478Y-56502822D02*
X63348902Y-56479802D01*
X7010235Y-86600649D02*
X7022930Y-86649681D01*
X62900000Y-56200000D02*
X57850000Y-56200000D01*
X19600000Y-56700000D02*
X19597434Y-56649415D01*
X21689618Y-86785634D02*
X21720620Y-86825686D01*
X63262396Y-56355516D02*
X63225686Y-56320620D01*
X19600000Y-37300000D02*
X19600000Y-31350000D01*
X65702822Y-56240521D02*
X65679802Y-56251097D01*
X12550000Y-37800000D02*
X12550000Y-38800000D01*
X19600000Y-79050000D02*
X19600000Y-73100000D01*
X21774313Y-86879379D02*
X21814365Y-86910381D01*
X65431123Y-72926347D02*
X65422930Y-72950318D01*
X33873652Y-72631123D02*
X33849681Y-72622930D01*
X62950584Y-23402565D02*
X62900000Y-23400000D01*
X34095387Y-56393947D02*
X34062396Y-56355516D01*
X7257349Y-54137173D02*
X7302822Y-54159478D01*
X49800000Y-79050000D02*
X48800000Y-79050000D01*
X21950318Y-72622930D02*
X21902822Y-72640521D01*
X50840521Y-23702822D02*
X50831123Y-23726347D01*
X65635517Y-37724322D02*
X65679802Y-37748902D01*
X34079379Y-54025686D02*
X34095387Y-54006052D01*
X19568876Y-23726347D02*
X19548902Y-23679802D01*
X77968876Y-70273652D02*
X77977069Y-70249681D01*
X50800641Y-70125324D02*
X50805765Y-70175713D01*
X19568876Y-72926347D02*
X19548902Y-72879802D01*
X48777069Y-56550318D02*
X48759478Y-56502822D01*
X19273652Y-23431123D02*
X19225326Y-23415961D01*
X19597434Y-56649415D02*
X19594234Y-56624286D01*
X21814365Y-86910381D02*
X21857349Y-86937173D01*
X14050000Y-39800000D02*
X14050000Y-38800000D01*
X65555516Y-39937603D02*
X65520620Y-39974313D01*
X80000000Y-89000000D02*
X72450000Y-89000000D01*
X65679802Y-56251097D02*
X65635517Y-56275677D01*
X19200649Y-70589764D02*
X19249681Y-70577069D01*
X19600000Y-80550000D02*
X20600000Y-80550000D01*
X34200000Y-70100000D02*
X34200000Y-64150000D01*
X21950318Y-70577069D02*
X21999350Y-70589764D01*
X65440521Y-7302822D02*
X65431123Y-7326347D01*
X36457349Y-23462826D02*
X36435517Y-23475677D01*
X34200000Y-23900000D02*
X34197434Y-23849415D01*
X51249415Y-56202565D02*
X51199350Y-56210235D01*
X65774673Y-37784038D02*
X65824286Y-37794234D01*
X51249415Y-23402565D02*
X51199350Y-23410235D01*
X70950000Y-22400000D02*
X70950000Y-23400000D01*
X21999350Y-56210235D02*
X21950318Y-56222930D01*
X19510381Y-21185634D02*
X19524322Y-21164482D01*
X28650000Y-70600000D02*
X33700000Y-70600000D01*
X63295387Y-23593947D02*
X63262396Y-23555516D01*
X48724322Y-23635517D02*
X48695387Y-23593947D01*
X5000000Y-31350000D02*
X7000356Y-31350000D01*
X65400641Y-53725324D02*
X65405765Y-53775713D01*
X19548902Y-21120197D02*
X19568876Y-21073652D01*
X12550000Y-5000000D02*
X12550000Y-7000000D01*
X41750000Y-71600000D02*
X41750000Y-72600000D01*
X65410235Y-23799350D02*
X65402565Y-23849415D01*
X34079379Y-86825686D02*
X34110381Y-86785634D01*
X65635517Y-39875677D02*
X65593947Y-39904612D01*
X21835517Y-7075677D02*
X21793947Y-7104612D01*
X48497177Y-54159478D02*
X48520197Y-54148902D01*
X63397434Y-86550584D02*
X63400000Y-86500000D01*
X77989764Y-56599350D02*
X77977069Y-56550318D01*
X48473652Y-72631123D02*
X48449681Y-72622930D01*
X43250000Y-54200000D02*
X48300000Y-54200000D01*
X21689618Y-23614365D02*
X21662826Y-23657349D01*
X77844483Y-54062396D02*
X77879379Y-54025686D01*
X70950000Y-39800000D02*
X65900000Y-39800000D01*
X48797434Y-7449415D02*
X48789764Y-7399350D01*
X21631123Y-70273652D02*
X21651097Y-70320197D01*
X48797434Y-56649415D02*
X48789764Y-56599350D01*
X19273652Y-21368876D02*
X19320197Y-21348902D01*
X48425326Y-37784038D02*
X48473652Y-37768876D01*
X65405765Y-53775713D02*
X65415961Y-53825326D01*
X7000356Y-80550000D02*
X7000641Y-86525324D01*
X7399350Y-54189764D02*
X7449415Y-54197434D01*
X63244483Y-86862396D02*
X63279379Y-86825686D01*
X50805765Y-20975713D02*
X50815961Y-21025326D01*
X65520620Y-23574313D02*
X65489618Y-23614365D01*
X34124322Y-70364482D02*
X34148902Y-70320197D01*
X19100000Y-56200000D02*
X14050000Y-56200000D01*
X21999350Y-23410235D02*
X21950318Y-23422930D01*
X48748902Y-53920197D02*
X48768876Y-53873652D01*
X48564482Y-54124322D02*
X48606052Y-54095387D01*
X63389764Y-37400649D02*
X63397434Y-37350584D01*
X19600000Y-47750000D02*
X20600000Y-47750000D01*
X65402565Y-40249415D02*
X65400000Y-40300000D01*
X63025326Y-39815961D02*
X62975713Y-39805765D01*
X7062826Y-23657349D02*
X7051097Y-23679802D01*
X77764482Y-23475677D02*
X77720197Y-23451097D01*
X65635517Y-70524322D02*
X65679802Y-70548902D01*
X34194234Y-37375713D02*
X34197434Y-37350584D01*
X27150000Y-7000000D02*
X27150000Y-7000000D01*
X77649681Y-54177069D02*
X77697177Y-54159478D01*
X65799350Y-72610235D02*
X65750318Y-72622930D01*
X48300000Y-37800000D02*
X48350584Y-37797434D01*
X7015961Y-7374673D02*
X7005765Y-7424286D01*
X77862396Y-56355516D02*
X77825686Y-56320620D01*
X22100000Y-39800000D02*
X22049415Y-39802565D01*
X19495387Y-23593947D02*
X19462396Y-23555516D01*
X65405765Y-37375713D02*
X65415961Y-37425326D01*
X63295387Y-54006052D02*
X63324322Y-53964482D01*
X78000000Y-7500000D02*
X77997434Y-7449415D01*
X77968876Y-21073652D02*
X77977069Y-21049681D01*
X21662826Y-37542650D02*
X21689618Y-37585634D01*
X36304612Y-21206052D02*
X36320620Y-21225686D01*
X41750000Y-39800000D02*
X36700000Y-39800000D01*
X48350584Y-54197434D02*
X48400649Y-54189764D01*
X65451097Y-21120197D02*
X65475677Y-21164482D01*
X43250000Y-71600000D02*
X43250000Y-70600000D01*
X33985634Y-7089618D02*
X33942650Y-7062826D01*
X36251097Y-72879802D02*
X36231123Y-72926347D01*
X65422930Y-72950318D02*
X65410235Y-72999350D01*
X7089618Y-23614365D02*
X7062826Y-23657349D01*
X21902822Y-54159478D02*
X21950318Y-54177069D01*
X65451097Y-72879802D02*
X65431123Y-72926347D01*
X63000649Y-56210235D02*
X62950584Y-56202565D01*
X77959478Y-86697177D02*
X77968876Y-86673652D01*
X19320197Y-21348902D02*
X19364482Y-21324322D01*
X7000641Y-20925324D02*
X7005765Y-20975713D01*
X21999350Y-70589764D02*
X22049415Y-70597434D01*
X7449415Y-23402565D02*
X7399350Y-23410235D01*
X64400000Y-14950000D02*
X65400356Y-14950000D01*
X65555516Y-7137603D02*
X65520620Y-7174313D01*
X19150584Y-56202565D02*
X19100000Y-56200000D01*
X51300000Y-23400000D02*
X51249415Y-23402565D01*
X19510381Y-37585634D02*
X19537173Y-37542650D01*
X63225686Y-56320620D02*
X63206052Y-56304612D01*
X36275677Y-37564482D02*
X36304612Y-37606052D01*
X36275677Y-70364482D02*
X36304612Y-70406052D01*
X28650000Y-5000000D02*
X41750000Y-5000000D01*
X19225326Y-39815961D02*
X19175713Y-39805765D01*
X63164482Y-23475677D02*
X63120197Y-23451097D01*
X36320620Y-56374313D02*
X36304612Y-56393947D01*
X36526347Y-37768876D02*
X36574673Y-37784038D01*
X33942650Y-56262826D02*
X33897177Y-56240521D01*
X19150584Y-70597434D02*
X19200649Y-70589764D01*
X21602565Y-73049415D02*
X21600000Y-73100000D01*
X27150000Y-87000000D02*
X27150000Y-89000000D01*
X22100000Y-56200000D02*
X22049415Y-56202565D01*
X77764482Y-37724322D02*
X77806052Y-37695387D01*
X56350000Y-55200000D02*
X56350000Y-56200000D01*
X7000356Y-80550000D02*
X7000356Y-80550000D01*
X64400000Y-64150000D02*
X65400356Y-64150000D01*
X63025326Y-21384038D02*
X63073652Y-21368876D01*
X28650000Y-70600000D02*
X28650000Y-70600000D01*
X36550318Y-54177069D02*
X36599350Y-54189764D01*
X7040521Y-86697177D02*
X7062826Y-86742650D01*
X19364482Y-70524322D02*
X19406052Y-70495387D01*
X65400284Y-13450000D02*
X64400000Y-13450000D01*
X77825686Y-56320620D02*
X77806052Y-56304612D01*
X33985634Y-72689618D02*
X33942650Y-72662826D01*
X7000356Y-47750000D02*
X7000356Y-47750000D01*
X48449681Y-56222930D02*
X48400649Y-56210235D01*
X63400000Y-70100000D02*
X63400000Y-64150000D01*
X65415961Y-53825326D02*
X65431123Y-53873652D01*
X72450000Y-72600000D02*
X72450000Y-71600000D01*
X65555516Y-86862396D02*
X65574313Y-86879379D01*
X63368876Y-21073652D02*
X63377069Y-21049681D01*
X0Y-94000000D02*
X0Y-94000000D01*
X48520197Y-56251097D02*
X48473652Y-56231123D01*
X14050000Y-54200000D02*
X19100000Y-54200000D01*
X14050000Y-70600000D02*
X19100000Y-70600000D01*
X36355516Y-70462396D02*
X36393947Y-70495387D01*
X20600000Y-31350000D02*
X21600356Y-31350000D01*
X7089618Y-37585634D02*
X7120620Y-37625686D01*
X48400649Y-70589764D02*
X48449681Y-70577069D01*
X48497177Y-70559478D02*
X48520197Y-70548902D01*
X34168876Y-40126347D02*
X34148902Y-40079802D01*
X77879379Y-70425686D02*
X77895387Y-70406052D01*
X36200641Y-70125324D02*
X36205765Y-70175713D01*
X63377069Y-56550318D02*
X63359478Y-56502822D01*
X63397434Y-7449415D02*
X63389764Y-7399350D01*
X21902822Y-72640521D02*
X21879802Y-72651097D01*
X48695387Y-54006052D02*
X48724322Y-53964482D01*
X50802565Y-23849415D02*
X50800000Y-23900000D01*
X77924322Y-72835517D02*
X77895387Y-72793947D01*
X19597434Y-40249415D02*
X19589764Y-40199350D01*
X21631123Y-56526347D02*
X21615961Y-56574673D01*
X19584038Y-53825326D02*
X19594234Y-53775713D01*
X51079802Y-37748902D02*
X51126347Y-37768876D01*
X7326347Y-39831123D02*
X7279802Y-39851097D01*
X36393947Y-7104612D02*
X36355516Y-7137603D01*
X21755516Y-56337603D02*
X21720620Y-56374313D01*
X34184038Y-72974673D02*
X34168876Y-72926347D01*
X51150318Y-56222930D02*
X51102822Y-56240521D01*
X36205765Y-7424286D02*
X36202565Y-7449415D01*
X5000000Y-79050000D02*
X5000000Y-64150000D01*
X50955516Y-86862396D02*
X50974313Y-86879379D01*
X51035517Y-72675677D02*
X50993947Y-72704612D01*
X19249681Y-54177069D02*
X19297177Y-54159478D01*
X12550000Y-70600000D02*
X12550000Y-71600000D01*
X56350000Y-5000000D02*
X56350000Y-7000000D01*
X65774673Y-23415961D02*
X65726347Y-23431123D01*
X63324322Y-23635517D02*
X63295387Y-23593947D01*
X21600641Y-53725324D02*
X21605765Y-53775713D01*
X51035517Y-39875677D02*
X50993947Y-39904612D01*
X65440521Y-40102822D02*
X65431123Y-40126347D01*
X36355516Y-21262396D02*
X36374313Y-21279379D01*
X77895387Y-7193947D02*
X77862396Y-7155516D01*
X36649415Y-70597434D02*
X36700000Y-70600000D01*
X50889618Y-23614365D02*
X50862826Y-23657349D01*
X34184038Y-21025326D02*
X34194234Y-20975713D01*
X7193947Y-54095387D02*
X7214365Y-54110381D01*
X48564482Y-21324322D02*
X48606052Y-21295387D01*
X63262396Y-39955516D02*
X63225686Y-39920620D01*
X56350000Y-89000000D02*
X43250000Y-89000000D01*
X34062396Y-39955516D02*
X34025686Y-39920620D01*
X65799350Y-86989764D02*
X65849415Y-86997434D01*
X48585634Y-23489618D02*
X48564482Y-23475677D01*
X65400284Y-79050000D02*
X64400000Y-79050000D01*
X78000000Y-53700000D02*
X78000000Y-47750000D01*
X77806052Y-56304612D02*
X77764482Y-56275677D01*
X48644483Y-54062396D02*
X48679379Y-54025686D01*
X7000284Y-13450000D02*
X5000000Y-13450000D01*
X36320620Y-72774313D02*
X36304612Y-72793947D01*
X63225686Y-7120620D02*
X63185634Y-7089618D01*
X77968876Y-86673652D02*
X77977069Y-86649681D01*
X65849415Y-37797434D02*
X65900000Y-37800000D01*
X19568876Y-56526347D02*
X19548902Y-56479802D01*
X36457349Y-86937173D02*
X36502822Y-86959478D01*
X7005765Y-53775713D02*
X7015961Y-53825326D01*
X51079802Y-70548902D02*
X51102822Y-70559478D01*
X78000000Y-37300000D02*
X78000000Y-31350000D01*
X56350000Y-7000000D02*
X51300000Y-7000000D01*
X21600000Y-73100000D02*
X21600284Y-79050000D01*
X63262396Y-7155516D02*
X63225686Y-7120620D01*
X51249415Y-72602565D02*
X51199350Y-72610235D01*
X56350000Y-72600000D02*
X51300000Y-72600000D01*
X7000000Y-40300000D02*
X7000284Y-46250000D01*
X50955516Y-39937603D02*
X50920620Y-39974313D01*
X48789764Y-72999350D02*
X48777069Y-72950318D01*
X36393947Y-54095387D02*
X36414365Y-54110381D01*
X43250000Y-5000000D02*
X56350000Y-5000000D01*
X57850000Y-22400000D02*
X57850000Y-21400000D01*
X77825686Y-7120620D02*
X77785634Y-7089618D01*
X65400000Y-73100000D02*
X65400284Y-79050000D01*
X51126347Y-21368876D02*
X51174673Y-21384038D01*
X36251097Y-23679802D02*
X36231123Y-23726347D01*
X33849681Y-56222930D02*
X33800649Y-56210235D01*
X77895387Y-54006052D02*
X77924322Y-53964482D01*
X51150318Y-72622930D02*
X51102822Y-72640521D01*
X33920197Y-54148902D02*
X33964482Y-54124322D01*
X14050000Y-23400000D02*
X14050000Y-22400000D01*
X63295387Y-72793947D02*
X63262396Y-72755516D01*
X36599350Y-86989764D02*
X36649415Y-86997434D01*
X28650000Y-87000000D02*
X33700000Y-87000000D01*
X33800649Y-23410235D02*
X33750584Y-23402565D01*
X65451097Y-70320197D02*
X65475677Y-70364482D01*
X34184038Y-53825326D02*
X34194234Y-53775713D01*
X77862396Y-23555516D02*
X77825686Y-23520620D01*
X51014365Y-86910381D02*
X51057349Y-86937173D01*
X7120620Y-7174313D02*
X7089618Y-7214365D01*
X63400000Y-80550000D02*
X64400000Y-80550000D01*
X19297177Y-56240521D02*
X19273652Y-56231123D01*
X50805765Y-53775713D02*
X50815961Y-53825326D01*
X70950000Y-54200000D02*
X70950000Y-55200000D01*
X19568876Y-53873652D02*
X19584038Y-53825326D01*
X65799350Y-54189764D02*
X65849415Y-54197434D01*
X63295387Y-70406052D02*
X63324322Y-70364482D01*
X50805765Y-37375713D02*
X50815961Y-37425326D01*
X19584038Y-21025326D02*
X19594234Y-20975713D01*
X63164482Y-70524322D02*
X63206052Y-70495387D01*
X33750584Y-56202565D02*
X33700000Y-56200000D01*
X7000641Y-53725324D02*
X7005765Y-53775713D01*
X34025686Y-7120620D02*
X33985634Y-7089618D01*
X77948902Y-40079802D02*
X77924322Y-40035517D01*
X77600649Y-72610235D02*
X77550584Y-72602565D01*
X21675677Y-7235517D02*
X21651097Y-7279802D01*
X7040521Y-37497177D02*
X7062826Y-37542650D01*
X63049681Y-86977069D02*
X63097177Y-86959478D01*
X21879802Y-37748902D02*
X21926347Y-37768876D01*
X33750584Y-72602565D02*
X33700000Y-72600000D01*
X62950584Y-86997434D02*
X63000649Y-86989764D01*
X7193947Y-72704612D02*
X7155516Y-72737603D01*
X27150000Y-56200000D02*
X22100000Y-56200000D01*
X65679802Y-54148902D02*
X65702822Y-54159478D01*
X19479379Y-86825686D02*
X19510381Y-86785634D01*
X36649415Y-54197434D02*
X36700000Y-54200000D01*
X51057349Y-86937173D02*
X51102822Y-86959478D01*
X72450000Y-5000000D02*
X80000000Y-5000000D01*
X36700000Y-7000000D02*
X36649415Y-7002565D01*
X36502822Y-72640521D02*
X36479802Y-72651097D01*
X50822930Y-86649681D02*
X50840521Y-86697177D01*
X33897177Y-72640521D02*
X33873652Y-72631123D01*
X50851097Y-70320197D02*
X50875677Y-70364482D01*
X51126347Y-23431123D02*
X51079802Y-23451097D01*
X34148902Y-23679802D02*
X34124322Y-23635517D01*
X50800000Y-7500000D02*
X50800284Y-13450000D01*
X78000000Y-13450000D02*
X78000000Y-13450000D01*
X77550584Y-7002565D02*
X77500000Y-7000000D01*
X7062826Y-86742650D02*
X7089618Y-86785634D01*
X34148902Y-7279802D02*
X34124322Y-7235517D01*
X65635517Y-56275677D02*
X65593947Y-56304612D01*
X48520197Y-54148902D02*
X48564482Y-54124322D01*
X77550584Y-37797434D02*
X77575713Y-37794234D01*
X70950000Y-21400000D02*
X70950000Y-22400000D01*
X48777069Y-86649681D02*
X48789764Y-86600649D01*
X19597434Y-37350584D02*
X19600000Y-37300000D01*
X48606052Y-21295387D02*
X48644483Y-21262396D01*
X63397434Y-70150584D02*
X63400000Y-70100000D01*
X48350584Y-7002565D02*
X48300000Y-7000000D01*
X19600000Y-73100000D02*
X19597434Y-73049415D01*
X65774673Y-7015961D02*
X65726347Y-7031123D01*
X48300000Y-87000000D02*
X48350584Y-86997434D01*
X19342650Y-39862826D02*
X19320197Y-39851097D01*
X36275677Y-56435517D02*
X36251097Y-56479802D01*
X77600649Y-70589764D02*
X77649681Y-70577069D01*
X19495387Y-72793947D02*
X19462396Y-72755516D01*
X34148902Y-37520197D02*
X34168876Y-37473652D01*
X72450000Y-56200000D02*
X72450000Y-55200000D01*
X19600000Y-40300000D02*
X19597434Y-40249415D01*
X50993947Y-7104612D02*
X50955516Y-7137603D01*
X51224286Y-7005765D02*
X51174673Y-7015961D01*
X36320620Y-54025686D02*
X36355516Y-54062396D01*
X33985634Y-21310381D02*
X34006052Y-21295387D01*
X19600000Y-13450000D02*
X19600000Y-7500000D01*
X7174313Y-86879379D02*
X7214365Y-86910381D01*
X7500000Y-7000000D02*
X7449415Y-7002565D01*
X80000000Y-64150000D02*
X80000000Y-79050000D01*
X77697177Y-54159478D02*
X77720197Y-54148902D01*
X27150000Y-5000000D02*
X27150000Y-7000000D01*
X34200000Y-46250000D02*
X34200000Y-40300000D01*
X51174673Y-7015961D02*
X51126347Y-7031123D01*
X33964482Y-86924322D02*
X34006052Y-86895387D01*
X34200000Y-53700000D02*
X34200000Y-47750000D01*
X21631123Y-40126347D02*
X21615961Y-40174673D01*
X34168876Y-21073652D02*
X34184038Y-21025326D01*
X63025326Y-23415961D02*
X63000649Y-23410235D01*
X7214365Y-70510381D02*
X7257349Y-70537173D01*
X27150000Y-70600000D02*
X27150000Y-71600000D01*
X65726347Y-21368876D02*
X65774673Y-21384038D01*
X36215961Y-53825326D02*
X36231123Y-53873652D01*
X12550000Y-21400000D02*
X12550000Y-22400000D01*
X21857349Y-86937173D02*
X21902822Y-86959478D01*
X56350000Y-54200000D02*
X56350000Y-55200000D01*
X12550000Y-72600000D02*
X7500000Y-72600000D01*
X41750000Y-22400000D02*
X41750000Y-23400000D01*
X65593947Y-23504612D02*
X65555516Y-23537603D01*
X63279379Y-86825686D02*
X63310381Y-86785634D01*
X50800284Y-62650000D02*
X49800000Y-62650000D01*
X0Y0D02*
X0Y-94000000D01*
X48748902Y-23679802D02*
X48724322Y-23635517D01*
X63389764Y-56599350D02*
X63389764Y-56599350D01*
X65900000Y-23400000D02*
X65849415Y-23402565D01*
X7449415Y-86997434D02*
X7500000Y-87000000D01*
X49800000Y-62650000D02*
X48800000Y-62650000D01*
X21689618Y-70385634D02*
X21720620Y-70425686D01*
X63397434Y-40249415D02*
X63389764Y-40199350D01*
X65555516Y-54062396D02*
X65593947Y-54095387D01*
X63324322Y-72835517D02*
X63295387Y-72793947D01*
X19600000Y-86500000D02*
X19600000Y-80550000D01*
X36599350Y-23410235D02*
X36550318Y-23422930D01*
X7500000Y-72600000D02*
X7449415Y-72602565D01*
X51300000Y-37800000D02*
X56350000Y-37800000D01*
X36304612Y-72793947D02*
X36275677Y-72835517D01*
X7449415Y-54197434D02*
X7500000Y-54200000D01*
X7326347Y-21368876D02*
X7374673Y-21384038D01*
X78000000Y-80550000D02*
X80000000Y-80550000D01*
X50875677Y-70364482D02*
X50904612Y-70406052D01*
X7235517Y-37724322D02*
X7279802Y-37748902D01*
X48797434Y-40249415D02*
X48789764Y-40199350D01*
X63164482Y-21324322D02*
X63206052Y-21295387D01*
X21835517Y-21324322D02*
X21879802Y-21348902D01*
X48564482Y-70524322D02*
X48606052Y-70495387D01*
X63397434Y-37350584D02*
X63400000Y-37300000D01*
X43250000Y-37800000D02*
X48300000Y-37800000D01*
X34124322Y-23635517D02*
X34095387Y-23593947D01*
X34184038Y-86625326D02*
X34189764Y-86600649D01*
X50993947Y-21295387D02*
X51035517Y-21324322D01*
X50800284Y-79050000D02*
X49800000Y-79050000D01*
X19320197Y-86948902D02*
X19364482Y-86924322D01*
X65431123Y-23726347D02*
X65422930Y-23750318D01*
X34194234Y-20975713D02*
X34197434Y-20950584D01*
X77977069Y-7350318D02*
X77959478Y-7302822D01*
X19444483Y-37662396D02*
X19479379Y-37625686D01*
X7031123Y-70273652D02*
X7051097Y-70320197D01*
X19444483Y-70462396D02*
X19479379Y-70425686D01*
X43250000Y-87000000D02*
X48300000Y-87000000D01*
X77924322Y-7235517D02*
X77895387Y-7193947D01*
X63000649Y-72610235D02*
X62950584Y-72602565D01*
X48564482Y-37724322D02*
X48606052Y-37695387D01*
X7005765Y-23824286D02*
X7000641Y-23874675D01*
X63185634Y-7089618D02*
X63164482Y-7075677D01*
X28650000Y-89000000D02*
X28650000Y-87000000D01*
X63295387Y-7193947D02*
X63262396Y-7155516D01*
X36414365Y-7089618D02*
X36393947Y-7104612D01*
X48724322Y-40035517D02*
X48695387Y-39993947D01*
X7089618Y-40014365D02*
X7062826Y-40057349D01*
X21605765Y-7424286D02*
X21600641Y-7474675D01*
X65555516Y-37662396D02*
X65593947Y-37695387D01*
X65440521Y-86697177D02*
X65462826Y-86742650D01*
X63359478Y-40102822D02*
X63348902Y-40079802D01*
X50800356Y-80550000D02*
X50800641Y-86525324D01*
X51300000Y-39800000D02*
X51249415Y-39802565D01*
X7374673Y-37784038D02*
X7424286Y-37794234D01*
X7015961Y-72974673D02*
X7005765Y-73024286D01*
X43250000Y-55200000D02*
X43250000Y-54200000D01*
X50851097Y-72879802D02*
X50831123Y-72926347D01*
X48625686Y-7120620D02*
X48585634Y-7089618D01*
X36320620Y-21225686D02*
X36355516Y-21262396D01*
X14050000Y-87000000D02*
X14050000Y-87000000D01*
X19225326Y-7015961D02*
X19175713Y-7005765D01*
X36599350Y-7010235D02*
X36550318Y-7022930D01*
X36457349Y-7062826D02*
X36414365Y-7089618D01*
X20600000Y-64150000D02*
X21600356Y-64150000D01*
X65849415Y-21397434D02*
X65900000Y-21400000D01*
X65635517Y-54124322D02*
X65679802Y-54148902D01*
X19597434Y-86550584D02*
X19600000Y-86500000D01*
X50862826Y-86742650D02*
X50889618Y-86785634D01*
X77550584Y-23402565D02*
X77500000Y-23400000D01*
X50920620Y-86825686D02*
X50955516Y-86862396D01*
X19594234Y-70175713D02*
X19597434Y-70150584D01*
X65402565Y-23849415D02*
X65400000Y-23900000D01*
X50831123Y-56526347D02*
X50822930Y-56550318D01*
X7089618Y-86785634D02*
X7120620Y-86825686D01*
X48400649Y-54189764D02*
X48449681Y-54177069D01*
X7031123Y-40126347D02*
X7015961Y-40174673D01*
X22100000Y-23400000D02*
X22049415Y-23402565D01*
X33825326Y-7015961D02*
X33775713Y-7005765D01*
X72450000Y-87000000D02*
X77500000Y-87000000D01*
X50875677Y-72835517D02*
X50851097Y-72879802D01*
X34184038Y-37425326D02*
X34194234Y-37375713D01*
X14050000Y-87000000D02*
X19100000Y-87000000D01*
X63206052Y-54095387D02*
X63244483Y-54062396D01*
X7257349Y-23462826D02*
X7235517Y-23475677D01*
X19548902Y-70320197D02*
X19568876Y-70273652D01*
X19524322Y-53964482D02*
X19548902Y-53920197D01*
X50904612Y-37606052D02*
X50937603Y-37644483D01*
X19600000Y-56700000D02*
X19600000Y-56700000D01*
X77825686Y-23520620D02*
X77785634Y-23489618D01*
X57850000Y-56200000D02*
X57850000Y-55200000D01*
X21631123Y-7326347D02*
X21615961Y-7374673D01*
X33849681Y-70577069D02*
X33897177Y-70559478D01*
X27150000Y-39800000D02*
X22100000Y-39800000D01*
X33849681Y-23422930D02*
X33800649Y-23410235D01*
X7015961Y-40174673D02*
X7005765Y-40224286D01*
X77895387Y-70406052D02*
X77924322Y-70364482D01*
X51300000Y-70600000D02*
X56350000Y-70600000D01*
X22049415Y-37797434D02*
X22100000Y-37800000D01*
X41750000Y-23400000D02*
X36700000Y-23400000D01*
X48800000Y-37300000D02*
X48800000Y-31350000D01*
X77997434Y-73049415D02*
X77989764Y-72999350D01*
X34124322Y-40035517D02*
X34095387Y-39993947D01*
X19594234Y-53775713D02*
X19597434Y-53750584D01*
X7000356Y-31350000D02*
X7000641Y-37325324D01*
X36502822Y-70559478D02*
X36550318Y-70577069D01*
X19495387Y-7193947D02*
X19462396Y-7155516D01*
X65400356Y-14950000D02*
X65400641Y-20925324D01*
X78000000Y-46250000D02*
X78000000Y-46250000D01*
X48644483Y-37662396D02*
X48679379Y-37625686D01*
X36393947Y-39904612D02*
X36355516Y-39937603D01*
X50800356Y-14950000D02*
X50800641Y-20925324D01*
X21974673Y-39815961D02*
X21926347Y-39831123D01*
X43250000Y-56200000D02*
X43250000Y-55200000D01*
X65475677Y-53964482D02*
X65504612Y-54006052D01*
X50831123Y-40126347D02*
X50822930Y-40150318D01*
X7155516Y-86862396D02*
X7174313Y-86879379D01*
X50920620Y-39974313D02*
X50889618Y-40014365D01*
X7424286Y-37794234D02*
X7449415Y-37797434D01*
X36320620Y-23574313D02*
X36289618Y-23614365D01*
X63164482Y-54124322D02*
X63206052Y-54095387D01*
X48695387Y-70406052D02*
X48724322Y-70364482D01*
X51150318Y-86977069D02*
X51199350Y-86989764D01*
X48564482Y-72675677D02*
X48520197Y-72651097D01*
X50920620Y-70425686D02*
X50955516Y-70462396D01*
X34110381Y-86785634D02*
X34137173Y-86742650D01*
X21720620Y-70425686D02*
X21755516Y-70462396D01*
X48777069Y-23750318D02*
X48759478Y-23702822D01*
X80000000Y-62650000D02*
X78000000Y-62650000D01*
X21793947Y-54095387D02*
X21814365Y-54110381D01*
X65410235Y-56599350D02*
X65402565Y-56649415D01*
X19510381Y-40014365D02*
X19495387Y-39993947D01*
X21662826Y-86742650D02*
X21689618Y-86785634D01*
X36374313Y-86879379D02*
X36414365Y-86910381D01*
X19559478Y-86697177D02*
X19568876Y-86673652D01*
X77989764Y-86600649D02*
X77997434Y-86550584D01*
X34194234Y-23824286D02*
X34184038Y-23774673D01*
X65824286Y-21394234D02*
X65849415Y-21397434D01*
X19297177Y-70559478D02*
X19320197Y-70548902D01*
X5000000Y-13450000D02*
X5000000Y-5000000D01*
X21615961Y-40174673D02*
X21605765Y-40224286D01*
X36202565Y-40249415D02*
X36200000Y-40300000D01*
X65402565Y-86550584D02*
X65410235Y-86600649D01*
X34062396Y-7155516D02*
X34025686Y-7120620D01*
X85000000Y0D02*
X0Y0D01*
X36200284Y-62650000D02*
X35200000Y-62650000D01*
X57850000Y-55200000D02*
X57850000Y-54200000D01*
X65849415Y-23402565D02*
X65799350Y-23410235D01*
X19100000Y-39800000D02*
X14050000Y-39800000D01*
X19364482Y-86924322D02*
X19406052Y-86895387D01*
X63400000Y-73100000D02*
X63397434Y-73049415D01*
X77959478Y-72902822D02*
X77948902Y-72879802D01*
X63120197Y-70548902D02*
X63164482Y-70524322D01*
X57850000Y-38800000D02*
X57850000Y-37800000D01*
X77764482Y-21324322D02*
X77806052Y-21295387D01*
X34062396Y-23555516D02*
X34025686Y-23520620D01*
X56350000Y-22400000D02*
X56350000Y-23400000D01*
X21926347Y-37768876D02*
X21974673Y-37784038D01*
X33849681Y-86977069D02*
X33897177Y-86959478D01*
X51249415Y-70597434D02*
X51300000Y-70600000D01*
X22024286Y-39805765D02*
X21974673Y-39815961D01*
X65431123Y-7326347D02*
X65422930Y-7350318D01*
X36200356Y-64150000D02*
X36200641Y-70125324D01*
X36393947Y-56304612D02*
X36355516Y-56337603D01*
X51102822Y-86959478D02*
X51150318Y-86977069D01*
X7000356Y-64150000D02*
X7000641Y-70125324D01*
X77764482Y-54124322D02*
X77806052Y-54095387D01*
X36289618Y-7214365D02*
X36262826Y-7257349D01*
X19589764Y-40199350D02*
X19577069Y-40150318D01*
X19524322Y-21164482D02*
X19548902Y-21120197D01*
X48679379Y-21225686D02*
X48710381Y-21185634D01*
X65410235Y-86600649D02*
X65422930Y-86649681D01*
X7005765Y-37375713D02*
X7015961Y-37425326D01*
X48300000Y-56200000D02*
X43250000Y-56200000D01*
X50810235Y-23799350D02*
X50802565Y-23849415D01*
X49800000Y-14950000D02*
X50800356Y-14950000D01*
X21600641Y-23874675D02*
X21600000Y-23900000D01*
X7350318Y-56222930D02*
X7302822Y-56240521D01*
X48800000Y-40300000D02*
X48797434Y-40249415D01*
X77764482Y-72675677D02*
X77720197Y-72651097D01*
X65726347Y-37768876D02*
X65774673Y-37784038D01*
X48789764Y-56599350D02*
X48777069Y-56550318D01*
X7075677Y-7235517D02*
X7051097Y-7279802D01*
X21615961Y-70225326D02*
X21631123Y-70273652D01*
X77806052Y-37695387D02*
X77844483Y-37662396D01*
X7040521Y-40102822D02*
X7031123Y-40126347D01*
X5000000Y-64150000D02*
X7000356Y-64150000D01*
X34044483Y-37662396D02*
X34079379Y-37625686D01*
X34194234Y-53775713D02*
X34197434Y-53750584D01*
X21755516Y-86862396D02*
X21774313Y-86879379D01*
X36304612Y-56393947D02*
X36275677Y-56435517D01*
X36479802Y-39851097D02*
X36435517Y-39875677D01*
X7350318Y-72622930D02*
X7302822Y-72640521D01*
X33800649Y-21389764D02*
X33849681Y-21377069D01*
X19273652Y-56231123D02*
X19249681Y-56222930D01*
X50800641Y-53725324D02*
X50805765Y-53775713D01*
X19462396Y-56355516D02*
X19425686Y-56320620D01*
X36414365Y-21310381D02*
X36457349Y-21337173D01*
X21902822Y-56240521D02*
X21879802Y-56251097D01*
X36374313Y-21279379D02*
X36414365Y-21310381D01*
X62950584Y-70597434D02*
X63000649Y-70589764D01*
X33750584Y-54197434D02*
X33750584Y-54197434D01*
X36205765Y-20975713D02*
X36215961Y-21025326D01*
X50810235Y-86600649D02*
X50822930Y-86649681D01*
X63368876Y-53873652D02*
X63377069Y-53849681D01*
X50800356Y-64150000D02*
X50800641Y-70125324D01*
X77937173Y-21142650D02*
X77959478Y-21097177D01*
X51249415Y-37797434D02*
X51300000Y-37800000D01*
X22049415Y-23402565D02*
X21999350Y-23410235D01*
X36550318Y-21377069D02*
X36599350Y-21389764D01*
X51079802Y-72651097D02*
X51035517Y-72675677D01*
X36550318Y-72622930D02*
X36502822Y-72640521D01*
X19444483Y-54062396D02*
X19479379Y-54025686D01*
X49800000Y-64150000D02*
X50800356Y-64150000D01*
X77989764Y-40199350D02*
X77977069Y-40150318D01*
X63324322Y-70364482D02*
X63348902Y-70320197D01*
X48425326Y-23415961D02*
X48400649Y-23410235D01*
X19600000Y-23900000D02*
X19600000Y-23900000D01*
X34197434Y-40249415D02*
X34194234Y-40224286D01*
X48759478Y-72902822D02*
X48748902Y-72879802D01*
X21974673Y-37784038D02*
X22024286Y-37794234D01*
X65475677Y-21164482D02*
X65504612Y-21206052D01*
X62950584Y-54197434D02*
X63000649Y-54189764D01*
X27150000Y-21400000D02*
X27150000Y-22400000D01*
X80000000Y-5000000D02*
X80000000Y-13450000D01*
X34148902Y-53920197D02*
X34168876Y-53873652D01*
X19225326Y-37784038D02*
X19273652Y-37768876D01*
X7000641Y-70125324D02*
X7005765Y-70175713D01*
X63400000Y-47750000D02*
X64400000Y-47750000D01*
X14050000Y-5000000D02*
X27150000Y-5000000D01*
X77697177Y-86959478D02*
X77720197Y-86948902D01*
X65799350Y-23410235D02*
X65774673Y-23415961D01*
X48473652Y-23431123D02*
X48425326Y-23415961D01*
X21720620Y-7174313D02*
X21704612Y-7193947D01*
X65900000Y-56200000D02*
X65849415Y-56202565D01*
X63000649Y-86989764D02*
X63049681Y-86977069D01*
X50920620Y-56374313D02*
X50904612Y-56393947D01*
X34168876Y-23726347D02*
X34148902Y-23679802D01*
X34200000Y-29850000D02*
X34200000Y-23900000D01*
X7000284Y-79050000D02*
X5000000Y-79050000D01*
X34168876Y-56526347D02*
X34148902Y-56479802D01*
X7302822Y-70559478D02*
X7350318Y-70577069D01*
X19524322Y-56435517D02*
X19495387Y-56393947D01*
X70950000Y-5000000D02*
X70950000Y-7000000D01*
X77879379Y-37625686D02*
X77910381Y-37585634D01*
X14050000Y-71600000D02*
X14050000Y-70600000D01*
X7031123Y-23726347D02*
X7015961Y-23774673D01*
X21631123Y-23726347D02*
X21615961Y-23774673D01*
X65520620Y-56374313D02*
X65504612Y-56393947D01*
X50955516Y-56337603D02*
X50920620Y-56374313D01*
X34062396Y-56355516D02*
X34025686Y-56320620D01*
X77977069Y-37449681D02*
X77989764Y-37400649D01*
X63120197Y-39851097D02*
X63073652Y-39831123D01*
X7302822Y-54159478D02*
X7350318Y-54177069D01*
X33800649Y-86989764D02*
X33849681Y-86977069D01*
X7399350Y-86989764D02*
X7449415Y-86997434D01*
X34200000Y-56700000D02*
X34197434Y-56649415D01*
X36200284Y-46250000D02*
X35200000Y-46250000D01*
X7500000Y-23400000D02*
X7449415Y-23402565D01*
X49800000Y-47750000D02*
X50800356Y-47750000D01*
X78000000Y-40300000D02*
X77997434Y-40249415D01*
X33750584Y-21397434D02*
X33800649Y-21389764D01*
X48520197Y-23451097D02*
X48473652Y-23431123D01*
X65849415Y-54197434D02*
X65900000Y-54200000D01*
X65489618Y-86785634D02*
X65520620Y-86825686D01*
X63400000Y-13450000D02*
X63400000Y-7500000D01*
X77989764Y-72999350D02*
X77977069Y-72950318D01*
X63120197Y-7051097D02*
X63073652Y-7031123D01*
X36240521Y-86697177D02*
X36262826Y-86742650D01*
X48679379Y-37625686D02*
X48710381Y-37585634D01*
X19559478Y-40102822D02*
X19537173Y-40057349D01*
X33873652Y-39831123D02*
X33825326Y-39815961D01*
X41750000Y-7000000D02*
X41750000Y-7000000D01*
X77806052Y-70495387D02*
X77844483Y-70462396D01*
X34124322Y-56435517D02*
X34095387Y-56393947D01*
X51199350Y-23410235D02*
X51174673Y-23415961D01*
X57850000Y-54200000D02*
X62900000Y-54200000D01*
X48449681Y-72622930D02*
X48400649Y-72610235D01*
X77720197Y-86948902D02*
X77764482Y-86924322D01*
X7005765Y-20975713D02*
X7015961Y-21025326D01*
X21640521Y-86697177D02*
X21662826Y-86742650D01*
X33942650Y-7062826D02*
X33897177Y-7040521D01*
X65679802Y-39851097D02*
X65635517Y-39875677D01*
X21755516Y-7137603D02*
X21720620Y-7174313D01*
X33700000Y-70600000D02*
X33750584Y-70597434D01*
X36200356Y-31350000D02*
X36200641Y-37325324D01*
X63400000Y-7500000D02*
X63397434Y-7449415D01*
X34044483Y-70462396D02*
X34079379Y-70425686D01*
X65726347Y-39831123D02*
X65679802Y-39851097D01*
X19594234Y-37375713D02*
X19597434Y-37350584D01*
X50800641Y-37325324D02*
X50805765Y-37375713D01*
X77948902Y-56479802D02*
X77924322Y-56435517D01*
X77977069Y-53849681D02*
X77989764Y-53800649D01*
X28650000Y-37800000D02*
X33700000Y-37800000D01*
X34095387Y-23593947D02*
X34062396Y-23555516D01*
X34184038Y-70225326D02*
X34194234Y-70175713D01*
X19537173Y-37542650D02*
X19559478Y-37497177D01*
X77959478Y-37497177D02*
X77968876Y-37473652D01*
X51249415Y-39802565D02*
X51224286Y-39805765D01*
X19175713Y-7005765D02*
X19125324Y-7000641D01*
X36355516Y-72737603D02*
X36320620Y-72774313D01*
X34200000Y-13450000D02*
X34200000Y-7500000D01*
X21615961Y-7374673D02*
X21605765Y-7424286D01*
X65504612Y-70406052D02*
X65520620Y-70425686D01*
X21600000Y-40300000D02*
X21600284Y-46250000D01*
X21605765Y-56624286D02*
X21602565Y-56649415D01*
X21793947Y-70495387D02*
X21814365Y-70510381D01*
X21602565Y-56649415D02*
X21600000Y-56700000D01*
X21640521Y-37497177D02*
X21662826Y-37542650D01*
X43250000Y-22400000D02*
X43250000Y-21400000D01*
X48800000Y-70100000D02*
X48800000Y-64150000D01*
X7193947Y-70495387D02*
X7214365Y-70510381D01*
X65400000Y-40300000D02*
X65400284Y-46250000D01*
X36231123Y-72926347D02*
X36215961Y-72974673D01*
X7257349Y-70537173D02*
X7302822Y-70559478D01*
X7350318Y-70577069D02*
X7399350Y-70589764D01*
X65520620Y-70425686D02*
X65555516Y-70462396D01*
X7235517Y-72675677D02*
X7193947Y-72704612D01*
X65635517Y-23475677D02*
X65593947Y-23504612D01*
X65504612Y-56393947D02*
X65475677Y-56435517D01*
X27150000Y-54200000D02*
X27150000Y-55200000D01*
X77806052Y-39904612D02*
X77764482Y-39875677D01*
X21689618Y-56414365D02*
X21675677Y-56435517D01*
X63164482Y-72675677D02*
X63120197Y-72651097D01*
X21926347Y-7031123D02*
X21879802Y-7051097D01*
X50800284Y-13450000D02*
X49800000Y-13450000D01*
X7500000Y-37800000D02*
X12550000Y-37800000D01*
X21720620Y-54025686D02*
X21755516Y-54062396D01*
X63120197Y-54148902D02*
X63164482Y-54124322D01*
X28650000Y-23400000D02*
X28650000Y-22400000D01*
X50800000Y-40300000D02*
X50800284Y-46250000D01*
X63348902Y-72879802D02*
X63324322Y-72835517D01*
X36210235Y-86600649D02*
X36222930Y-86649681D01*
X51126347Y-37768876D02*
X51174673Y-37784038D01*
X36200284Y-79050000D02*
X35200000Y-79050000D01*
X7155516Y-39937603D02*
X7120620Y-39974313D01*
X19150584Y-21397434D02*
X19175713Y-21394234D01*
X65614365Y-86910381D02*
X65657349Y-86937173D01*
X77600649Y-23410235D02*
X77550584Y-23402565D01*
X21600356Y-64150000D02*
X21600641Y-70125324D01*
X36200000Y-40300000D02*
X36200284Y-46250000D01*
X63073652Y-37768876D02*
X63120197Y-37748902D01*
X34044483Y-54062396D02*
X34079379Y-54025686D01*
X34200000Y-14950000D02*
X35200000Y-14950000D01*
X50805765Y-70175713D02*
X50815961Y-70225326D01*
X7374673Y-7015961D02*
X7326347Y-7031123D01*
X65504612Y-54006052D02*
X65520620Y-54025686D01*
X48759478Y-56502822D02*
X48748902Y-56479802D01*
X65400284Y-46250000D02*
X64400000Y-46250000D01*
X63049681Y-54177069D02*
X63097177Y-54159478D01*
X36599350Y-54189764D02*
X36649415Y-54197434D01*
X21926347Y-39831123D02*
X21879802Y-39851097D01*
X77806052Y-86895387D02*
X77844483Y-86862396D01*
X64400000Y-31350000D02*
X65400356Y-31350000D01*
X21605765Y-23824286D02*
X21600641Y-23874675D01*
X63359478Y-86697177D02*
X63368876Y-86673652D01*
X63120197Y-23451097D02*
X63073652Y-23431123D01*
X19597434Y-53750584D02*
X19600000Y-53700000D01*
X72450000Y-7000000D02*
X72450000Y-5000000D01*
X7015961Y-37425326D02*
X7022930Y-37449681D01*
X50810235Y-7399350D02*
X50802565Y-7449415D01*
X7005765Y-70175713D02*
X7015961Y-70225326D01*
X57850000Y-23400000D02*
X57850000Y-22400000D01*
X48300000Y-72600000D02*
X43250000Y-72600000D01*
X51199350Y-54189764D02*
X51249415Y-54197434D01*
X63397434Y-40249415D02*
X63397434Y-40249415D01*
X21720620Y-39974313D02*
X21689618Y-40014365D01*
X34006052Y-54095387D02*
X34044483Y-54062396D01*
X33873652Y-7031123D02*
X33825326Y-7015961D01*
X77977069Y-23750318D02*
X77959478Y-23702822D01*
X65774673Y-39815961D02*
X65726347Y-39831123D01*
X36251097Y-37520197D02*
X36275677Y-37564482D01*
X62900000Y-54200000D02*
X62950584Y-54197434D01*
X48662396Y-23555516D02*
X48625686Y-23520620D01*
X34025686Y-72720620D02*
X33985634Y-72689618D01*
X48695387Y-56393947D02*
X48662396Y-56355516D01*
X48800000Y-73100000D02*
X48797434Y-73049415D01*
X27150000Y-7000000D02*
X22100000Y-7000000D01*
X51224286Y-37794234D02*
X51249415Y-37797434D01*
X77977069Y-56550318D02*
X77959478Y-56502822D01*
X72450000Y-23400000D02*
X72450000Y-22400000D01*
X14050000Y-21400000D02*
X19100000Y-21400000D01*
X21755516Y-37662396D02*
X21793947Y-37695387D01*
X63279379Y-21225686D02*
X63310381Y-21185634D01*
X36337603Y-37644483D02*
X36355516Y-37662396D01*
X7000000Y-73100000D02*
X7000284Y-79050000D01*
X48300000Y-23400000D02*
X43250000Y-23400000D01*
X51102822Y-54159478D02*
X51150318Y-54177069D01*
X7449415Y-37797434D02*
X7500000Y-37800000D01*
X36251097Y-21120197D02*
X36275677Y-21164482D01*
X48737173Y-37542650D02*
X48759478Y-37497177D01*
X63185634Y-23489618D02*
X63164482Y-23475677D01*
X22024286Y-21394234D02*
X22074675Y-21399358D01*
X12550000Y-54200000D02*
X12550000Y-55200000D01*
X21950318Y-54177069D02*
X21999350Y-54189764D01*
X35200000Y-46250000D02*
X34200000Y-46250000D01*
X62900000Y-70600000D02*
X62950584Y-70597434D01*
X21600356Y-80550000D02*
X21600641Y-86525324D01*
X7374673Y-39815961D02*
X7326347Y-39831123D01*
X36414365Y-70510381D02*
X36457349Y-70537173D01*
X36205765Y-70175713D02*
X36215961Y-70225326D01*
X63400000Y-56700000D02*
X63397434Y-56649415D01*
X21793947Y-21295387D02*
X21835517Y-21324322D01*
X7399350Y-56210235D02*
X7350318Y-56222930D01*
X7449415Y-70597434D02*
X7500000Y-70600000D01*
X20600000Y-46250000D02*
X19600000Y-46250000D01*
X33849681Y-54177069D02*
X33897177Y-54159478D01*
X19577069Y-40150318D02*
X19559478Y-40102822D01*
X22100000Y-21400000D02*
X27150000Y-21400000D01*
X7000000Y-7500000D02*
X7000284Y-13450000D01*
X36649415Y-56202565D02*
X36599350Y-56210235D01*
X33750584Y-54197434D02*
X33800649Y-54189764D01*
X36200284Y-29850000D02*
X35200000Y-29850000D01*
X48449681Y-70577069D02*
X48497177Y-70559478D01*
X48695387Y-39993947D02*
X48662396Y-39955516D01*
X63348902Y-23679802D02*
X63324322Y-23635517D01*
X48797434Y-70150584D02*
X48800000Y-70100000D01*
X7214365Y-54110381D02*
X7257349Y-54137173D01*
X41750000Y-38800000D02*
X41750000Y-39800000D01*
X12550000Y-23400000D02*
X7500000Y-23400000D01*
X48520197Y-7051097D02*
X48473652Y-7031123D01*
X19150584Y-72602565D02*
X19100000Y-72600000D01*
X33800649Y-72610235D02*
X33750584Y-72602565D01*
X62900000Y-39800000D02*
X57850000Y-39800000D01*
X21755516Y-39937603D02*
X21720620Y-39974313D01*
X48606052Y-37695387D02*
X48644483Y-37662396D01*
X77764482Y-86924322D02*
X77806052Y-86895387D01*
X19495387Y-56393947D02*
X19462396Y-56355516D01*
X77550584Y-70597434D02*
X77600649Y-70589764D01*
X48300000Y-7000000D02*
X43250000Y-7000000D01*
X50831123Y-37473652D02*
X50851097Y-37520197D01*
X48789764Y-23799350D02*
X48777069Y-23750318D01*
X65402565Y-56649415D02*
X65400000Y-56700000D01*
X34200000Y-79050000D02*
X34200000Y-73100000D01*
X36215961Y-72974673D02*
X36205765Y-73024286D01*
X77673652Y-72631123D02*
X77649681Y-72622930D01*
X77924322Y-56435517D02*
X77895387Y-56393947D01*
X7120620Y-37625686D02*
X7155516Y-37662396D01*
X65400000Y-7500000D02*
X65400284Y-13450000D01*
X64400000Y-79050000D02*
X63400000Y-79050000D01*
X48606052Y-39904612D02*
X48564482Y-39875677D01*
X33700000Y-23400000D02*
X28650000Y-23400000D01*
X48777069Y-53849681D02*
X48789764Y-53800649D01*
X19100000Y-37800000D02*
X19150584Y-37797434D01*
X19600000Y-40300000D02*
X19600000Y-40300000D01*
X27150000Y-72600000D02*
X22100000Y-72600000D01*
X7000641Y-23874675D02*
X7000000Y-23900000D01*
X77697177Y-70559478D02*
X77720197Y-70548902D01*
X50840521Y-7302822D02*
X50831123Y-7326347D01*
X21974673Y-21384038D02*
X22024286Y-21394234D01*
X21600000Y-23900000D02*
X21600284Y-29850000D01*
X5000000Y-80550000D02*
X7000356Y-80550000D01*
X28650000Y-71600000D02*
X28650000Y-70600000D01*
X48710381Y-21185634D02*
X48737173Y-21142650D01*
X36599350Y-70589764D02*
X36649415Y-70597434D01*
X77785634Y-23489618D02*
X77764482Y-23475677D01*
X77673652Y-37768876D02*
X77720197Y-37748902D01*
X65520620Y-72774313D02*
X65504612Y-72793947D01*
X36215961Y-7374673D02*
X36205765Y-7424286D01*
X19364482Y-37724322D02*
X19406052Y-37695387D01*
X19249681Y-56222930D02*
X19200649Y-56210235D01*
X21600356Y-31350000D02*
X21600641Y-37325324D01*
X51224286Y-39805765D02*
X51174673Y-39815961D01*
X14050000Y-7000000D02*
X14050000Y-5000000D01*
X65504612Y-37606052D02*
X65537603Y-37644483D01*
X21689618Y-53985634D02*
X21720620Y-54025686D01*
X21605765Y-40224286D02*
X21602565Y-40249415D01*
X65402565Y-7449415D02*
X65400000Y-7500000D01*
X7120620Y-56374313D02*
X7089618Y-56414365D01*
X36599350Y-72610235D02*
X36550318Y-72622930D01*
X7015961Y-56574673D02*
X7005765Y-56624286D01*
X27150000Y-23400000D02*
X22100000Y-23400000D01*
X65431123Y-40126347D02*
X65422930Y-40150318D01*
X50904612Y-72793947D02*
X50875677Y-72835517D01*
X21720620Y-56374313D02*
X21689618Y-56414365D01*
X21755516Y-23537603D02*
X21720620Y-23574313D01*
X77959478Y-21097177D02*
X77968876Y-21073652D01*
X36262826Y-86742650D02*
X36289618Y-86785634D01*
X65900000Y-54200000D02*
X70950000Y-54200000D01*
X70950000Y-55200000D02*
X70950000Y-56200000D01*
X34095387Y-54006052D02*
X34124322Y-53964482D01*
X33964482Y-70524322D02*
X34006052Y-70495387D01*
X78000000Y-62650000D02*
X78000000Y-62650000D01*
X63049681Y-72622930D02*
X63000649Y-72610235D01*
X63400000Y-29850000D02*
X63400000Y-23900000D01*
X19364482Y-54124322D02*
X19406052Y-54095387D01*
X21600000Y-7500000D02*
X21600284Y-13450000D01*
X62900000Y-87000000D02*
X62950584Y-86997434D01*
X36200000Y-73100000D02*
X36200284Y-79050000D01*
X57850000Y-70600000D02*
X62900000Y-70600000D01*
X19594234Y-73024286D02*
X19584038Y-72974673D01*
X21755516Y-70462396D02*
X21793947Y-70495387D01*
X62900000Y-37800000D02*
X62950584Y-37797434D01*
X43250000Y-23400000D02*
X43250000Y-22400000D01*
X48759478Y-86697177D02*
X48768876Y-86673652D01*
X77895387Y-23593947D02*
X77862396Y-23555516D01*
X51224286Y-21394234D02*
X51249415Y-21397434D01*
X50904612Y-56393947D02*
X50875677Y-56435517D01*
X7155516Y-21262396D02*
X7193947Y-21295387D01*
X72450000Y-21400000D02*
X77500000Y-21400000D01*
X77625326Y-21384038D02*
X77673652Y-21368876D01*
X65593947Y-54095387D02*
X65635517Y-54124322D01*
X77968876Y-37473652D02*
X77977069Y-37449681D01*
X21631123Y-53873652D02*
X21651097Y-53920197D01*
X21950318Y-56222930D02*
X21902822Y-56240521D01*
X36355516Y-54062396D02*
X36393947Y-54095387D01*
X36479802Y-72651097D02*
X36435517Y-72675677D01*
X34124322Y-53964482D02*
X34148902Y-53920197D01*
X48662396Y-7155516D02*
X48625686Y-7120620D01*
X63397434Y-23849415D02*
X63389764Y-23799350D01*
X50800000Y-73100000D02*
X50800284Y-79050000D01*
X65400641Y-70125324D02*
X65405765Y-70175713D01*
X62950584Y-37797434D02*
X62975713Y-37794234D01*
X27150000Y-89000000D02*
X14050000Y-89000000D01*
X21720620Y-23574313D02*
X21689618Y-23614365D01*
X14050000Y-89000000D02*
X14050000Y-87000000D01*
X21902822Y-23440521D02*
X21857349Y-23462826D01*
X77500000Y-39800000D02*
X72450000Y-39800000D01*
X21950318Y-86977069D02*
X21999350Y-86989764D01*
X19444483Y-86862396D02*
X19479379Y-86825686D01*
X77924322Y-23635517D02*
X77895387Y-23593947D01*
X21720620Y-37625686D02*
X21755516Y-37662396D01*
X77625326Y-39815961D02*
X77575713Y-39805765D01*
X77959478Y-40102822D02*
X77948902Y-40079802D01*
X77720197Y-7051097D02*
X77673652Y-7031123D01*
X19385634Y-7089618D02*
X19364482Y-7075677D01*
X36222930Y-86649681D02*
X36240521Y-86697177D01*
X35200000Y-14950000D02*
X36200356Y-14950000D01*
X50831123Y-72926347D02*
X50822930Y-72950318D01*
X77500000Y-72600000D02*
X72450000Y-72600000D01*
X7279802Y-39851097D02*
X7235517Y-39875677D01*
X7000356Y-31350000D02*
X7000356Y-31350000D01*
X21615961Y-37425326D02*
X21622930Y-37449681D01*
X77785634Y-7089618D02*
X77764482Y-7075677D01*
X21793947Y-72704612D02*
X21755516Y-72737603D01*
X21600284Y-13450000D02*
X20600000Y-13450000D01*
X7193947Y-23504612D02*
X7155516Y-23537603D01*
X48768876Y-53873652D02*
X48777069Y-53849681D01*
X48724322Y-72835517D02*
X48695387Y-72793947D01*
X21651097Y-53920197D02*
X21675677Y-53964482D01*
X50802565Y-40249415D02*
X50800000Y-40300000D01*
X33985634Y-39889618D02*
X33942650Y-39862826D01*
X72450000Y-54200000D02*
X77500000Y-54200000D01*
X65900000Y-37800000D02*
X70950000Y-37800000D01*
X33775713Y-37794234D02*
X33825326Y-37784038D01*
X77948902Y-70320197D02*
X77968876Y-70273652D01*
X63120197Y-37748902D02*
X63164482Y-37724322D01*
X7015961Y-21025326D02*
X7031123Y-21073652D01*
X34184038Y-23774673D02*
X34168876Y-23726347D01*
X21675677Y-21164482D02*
X21704612Y-21206052D01*
X63206052Y-39904612D02*
X63164482Y-39875677D01*
X28650000Y-22400000D02*
X28650000Y-21400000D01*
X36215961Y-23774673D02*
X36205765Y-23824286D01*
X36355516Y-86862396D02*
X36374313Y-86879379D01*
X50937603Y-37644483D02*
X50955516Y-37662396D01*
X77673652Y-23431123D02*
X77625326Y-23415961D01*
X50993947Y-54095387D02*
X51035517Y-54124322D01*
X77764482Y-70524322D02*
X77806052Y-70495387D01*
X21879802Y-39851097D02*
X21835517Y-39875677D01*
X64400000Y-47750000D02*
X65400356Y-47750000D01*
X19524322Y-70364482D02*
X19548902Y-70320197D01*
X51102822Y-70559478D02*
X51150318Y-70577069D01*
X77806052Y-54095387D02*
X77844483Y-54062396D01*
X34137173Y-21142650D02*
X34148902Y-21120197D01*
X7000641Y-37325324D02*
X7005765Y-37375713D01*
X48350584Y-23402565D02*
X48300000Y-23400000D01*
X12550000Y-87000000D02*
X12550000Y-89000000D01*
X65462826Y-86742650D02*
X65489618Y-86785634D01*
X63400000Y-20900000D02*
X63400000Y-14950000D01*
X22049415Y-86997434D02*
X22100000Y-87000000D01*
X49800000Y-80550000D02*
X50800356Y-80550000D01*
X78000000Y-31350000D02*
X80000000Y-31350000D01*
X70950000Y-23400000D02*
X65900000Y-23400000D01*
X50822930Y-7350318D02*
X50810235Y-7399350D01*
X36574673Y-39815961D02*
X36526347Y-39831123D01*
X34148902Y-72879802D02*
X34124322Y-72835517D01*
X7005765Y-56624286D02*
X7002565Y-56649415D01*
X27150000Y-71600000D02*
X27150000Y-72600000D01*
X63377069Y-53849681D02*
X63389764Y-53800649D01*
X63279379Y-37625686D02*
X63310381Y-37585634D01*
X77649681Y-70577069D02*
X77697177Y-70559478D01*
X7193947Y-37695387D02*
X7235517Y-37724322D01*
X19524322Y-7235517D02*
X19495387Y-7193947D01*
X65431123Y-37473652D02*
X65451097Y-37520197D01*
X33800649Y-56210235D02*
X33750584Y-56202565D01*
X50955516Y-23537603D02*
X50920620Y-23574313D01*
X51079802Y-7051097D02*
X51035517Y-7075677D01*
X65849415Y-72602565D02*
X65799350Y-72610235D01*
X65799350Y-70589764D02*
X65849415Y-70597434D01*
X21600356Y-47750000D02*
X21600641Y-53725324D01*
X50800356Y-31350000D02*
X50800641Y-37325324D01*
X65849415Y-39802565D02*
X65824286Y-39805765D01*
X19406052Y-37695387D02*
X19444483Y-37662396D01*
X65824286Y-39805765D02*
X65774673Y-39815961D01*
X21879802Y-7051097D02*
X21835517Y-7075677D01*
X21755516Y-54062396D02*
X21793947Y-54095387D01*
X62950584Y-21397434D02*
X62975713Y-21394234D01*
X77500000Y-70600000D02*
X77550584Y-70597434D01*
X36550318Y-7022930D02*
X36502822Y-7040521D01*
X34168876Y-72926347D02*
X34148902Y-72879802D01*
X34148902Y-21120197D02*
X34168876Y-21073652D01*
X77997434Y-53750584D02*
X78000000Y-53700000D01*
X21622930Y-37449681D02*
X21640521Y-37497177D01*
X7214365Y-86910381D02*
X7257349Y-86937173D01*
X51035517Y-23475677D02*
X50993947Y-23504612D01*
X34168876Y-53873652D02*
X34184038Y-53825326D01*
X7000356Y-14950000D02*
X7000641Y-20925324D01*
X19342650Y-72662826D02*
X19297177Y-72640521D01*
X77977069Y-40150318D02*
X77959478Y-40102822D01*
X63368876Y-70273652D02*
X63377069Y-70249681D01*
X36200000Y-7500000D02*
X36200284Y-13450000D01*
X19364482Y-7075677D02*
X19320197Y-7051097D01*
X36550318Y-70577069D02*
X36599350Y-70589764D01*
X21793947Y-23504612D02*
X21755516Y-23537603D01*
X77924322Y-53964482D02*
X77948902Y-53920197D01*
X49800000Y-29850000D02*
X48800000Y-29850000D01*
X63073652Y-56231123D02*
X63049681Y-56222930D01*
X65520620Y-21225686D02*
X65555516Y-21262396D01*
X77844483Y-70462396D02*
X77879379Y-70425686D01*
X63397434Y-20950584D02*
X63400000Y-20900000D01*
X65537603Y-37644483D02*
X65555516Y-37662396D01*
X70950000Y-71600000D02*
X70950000Y-72600000D01*
X21755516Y-21262396D02*
X21793947Y-21295387D01*
X33920197Y-70548902D02*
X33964482Y-70524322D01*
X77977069Y-72950318D02*
X77959478Y-72902822D01*
X78000000Y-79050000D02*
X78000000Y-79050000D01*
X77500000Y-21400000D02*
X77550584Y-21397434D01*
X51174673Y-23415961D02*
X51126347Y-23431123D01*
X36289618Y-40014365D02*
X36262826Y-40057349D01*
X48748902Y-40079802D02*
X48724322Y-40035517D01*
X50822930Y-72950318D02*
X50810235Y-72999350D01*
X19548902Y-56479802D02*
X19524322Y-56435517D01*
X34148902Y-70320197D02*
X34168876Y-70273652D01*
X5000000Y-47750000D02*
X7000356Y-47750000D01*
X7449415Y-72602565D02*
X7399350Y-72610235D01*
X77720197Y-54148902D02*
X77764482Y-54124322D01*
X7075677Y-53964482D02*
X7089618Y-53985634D01*
X57850000Y-39800000D02*
X57850000Y-38800000D01*
X19600000Y-53700000D02*
X19600000Y-47750000D01*
X62900000Y-72600000D02*
X57850000Y-72600000D01*
X63164482Y-86924322D02*
X63206052Y-86895387D01*
X36393947Y-70495387D02*
X36414365Y-70510381D01*
X33825326Y-39815961D02*
X33775713Y-39805765D01*
X65402565Y-73049415D02*
X65400000Y-73100000D01*
X21999350Y-72610235D02*
X21950318Y-72622930D01*
X65451097Y-56479802D02*
X65431123Y-56526347D01*
X19568876Y-37473652D02*
X19584038Y-37425326D01*
X50831123Y-23726347D02*
X50822930Y-23750318D01*
X72450000Y-39800000D02*
X72450000Y-38800000D01*
X34197434Y-53750584D02*
X34200000Y-53700000D01*
X50831123Y-21073652D02*
X50851097Y-21120197D01*
X50800284Y-46250000D02*
X49800000Y-46250000D01*
X19600000Y-79050000D02*
X19600000Y-79050000D01*
X78000000Y-46250000D02*
X78000000Y-40300000D01*
X36200641Y-37325324D02*
X36205765Y-37375713D01*
X48800000Y-13450000D02*
X48800000Y-7500000D01*
X7350318Y-54177069D02*
X7399350Y-54189764D01*
X21605765Y-73024286D02*
X21602565Y-73049415D01*
X36393947Y-37695387D02*
X36435517Y-37724322D01*
X7051097Y-72879802D02*
X7031123Y-72926347D01*
X19200649Y-54189764D02*
X19249681Y-54177069D01*
X51249415Y-7002565D02*
X51224286Y-7005765D01*
X33897177Y-21359478D02*
X33942650Y-21337173D01*
X19600000Y-29850000D02*
X19600000Y-23900000D01*
X80000000Y-31350000D02*
X80000000Y-46250000D01*
X7279802Y-37748902D02*
X7326347Y-37768876D01*
X63400000Y-31350000D02*
X64400000Y-31350000D01*
X77500000Y-37800000D02*
X77550584Y-37797434D01*
X36205765Y-23824286D02*
X36202565Y-23849415D01*
X5000000Y-14950000D02*
X7000356Y-14950000D01*
X21720620Y-86825686D02*
X21755516Y-86862396D01*
X34044483Y-86862396D02*
X34079379Y-86825686D01*
X63397434Y-56649415D02*
X63389764Y-56599350D01*
X77948902Y-72879802D02*
X77924322Y-72835517D01*
X77720197Y-72651097D02*
X77673652Y-72631123D01*
X48759478Y-37497177D02*
X48768876Y-37473652D01*
X36700000Y-54200000D02*
X41750000Y-54200000D01*
X48768876Y-86673652D02*
X48777069Y-86649681D01*
X19568876Y-70273652D02*
X19584038Y-70225326D01*
X19548902Y-72879802D02*
X19524322Y-72835517D01*
X19462396Y-7155516D02*
X19425686Y-7120620D01*
X63337173Y-37542650D02*
X63359478Y-37497177D01*
X7449415Y-7002565D02*
X7424286Y-7005765D01*
X19175713Y-21394234D02*
X19225326Y-21384038D01*
X7120620Y-23574313D02*
X7089618Y-23614365D01*
X7120620Y-86825686D02*
X7155516Y-86862396D01*
X48473652Y-56231123D02*
X48449681Y-56222930D01*
X65422930Y-7350318D02*
X65410235Y-7399350D01*
X19425686Y-23520620D02*
X19406052Y-23504612D01*
X77844483Y-86862396D02*
X77879379Y-86825686D01*
X50993947Y-23504612D02*
X50955516Y-23537603D01*
X65422930Y-56550318D02*
X65410235Y-56599350D01*
X50889618Y-7214365D02*
X50862826Y-7257349D01*
X34006052Y-37695387D02*
X34044483Y-37662396D01*
X21640521Y-40102822D02*
X21631123Y-40126347D01*
X48768876Y-21073652D02*
X48777069Y-21049681D01*
X77989764Y-53800649D02*
X77997434Y-53750584D01*
X21600641Y-70125324D02*
X21605765Y-70175713D01*
X27150000Y-37800000D02*
X27150000Y-38800000D01*
X35200000Y-31350000D02*
X36200356Y-31350000D01*
X65475677Y-72835517D02*
X65451097Y-72879802D01*
X36599350Y-56210235D02*
X36550318Y-56222930D01*
X33800649Y-54189764D02*
X33849681Y-54177069D01*
X77550584Y-21397434D02*
X77575713Y-21394234D01*
X12550000Y-39800000D02*
X7500000Y-39800000D01*
X36231123Y-70273652D02*
X36251097Y-70320197D01*
X51079802Y-39851097D02*
X51035517Y-39875677D01*
X77720197Y-56251097D02*
X77673652Y-56231123D01*
X7000000Y-23900000D02*
X7000284Y-29850000D01*
X65593947Y-39904612D02*
X65555516Y-39937603D01*
X19597434Y-7449415D02*
X19594234Y-7424286D01*
X63164482Y-56275677D02*
X63120197Y-56251097D01*
X34124322Y-7235517D02*
X34095387Y-7193947D01*
X7155516Y-56337603D02*
X7120620Y-56374313D01*
X19600000Y-14950000D02*
X20600000Y-14950000D01*
X56350000Y-23400000D02*
X51300000Y-23400000D01*
X7075677Y-56435517D02*
X7051097Y-56479802D01*
X7120620Y-72774313D02*
X7089618Y-72814365D01*
X33964482Y-37724322D02*
X34006052Y-37695387D01*
X51035517Y-7075677D02*
X50993947Y-7104612D01*
X77862396Y-39955516D02*
X77825686Y-39920620D01*
X50815961Y-53825326D02*
X50831123Y-53873652D01*
X51199350Y-70589764D02*
X51249415Y-70597434D01*
X19584038Y-72974673D02*
X19568876Y-72926347D01*
X77997434Y-7449415D02*
X77989764Y-7399350D01*
X77720197Y-21348902D02*
X77764482Y-21324322D01*
X62975713Y-7005765D02*
X62950584Y-7002565D01*
X48777069Y-21049681D02*
X48789764Y-21000649D01*
X19406052Y-54095387D02*
X19444483Y-54062396D01*
X78000000Y-79050000D02*
X78000000Y-73100000D01*
X65451097Y-53920197D02*
X65475677Y-53964482D01*
X7089618Y-70385634D02*
X7120620Y-70425686D01*
X34194234Y-7424286D02*
X34184038Y-7374673D01*
X77649681Y-56222930D02*
X77600649Y-56210235D01*
X36435517Y-37724322D02*
X36479802Y-37748902D01*
X77575713Y-39805765D02*
X77550584Y-39802565D01*
X34095387Y-72793947D02*
X34062396Y-72755516D01*
X7000356Y-14950000D02*
X7000356Y-14950000D01*
X19462396Y-72755516D02*
X19425686Y-72720620D01*
X34079379Y-37625686D02*
X34110381Y-37585634D01*
X48797434Y-73049415D02*
X48789764Y-72999350D01*
X21926347Y-21368876D02*
X21974673Y-21384038D01*
X21600284Y-46250000D02*
X20600000Y-46250000D01*
X36700000Y-70600000D02*
X41750000Y-70600000D01*
X77862396Y-72755516D02*
X77825686Y-72720620D01*
X19100000Y-70600000D02*
X19150584Y-70597434D01*
X63389764Y-72999350D02*
X63377069Y-72950318D01*
X43250000Y-89000000D02*
X43250000Y-87000000D01*
X14050000Y-38800000D02*
X14050000Y-37800000D01*
X34025686Y-56320620D02*
X33985634Y-56289618D01*
X33775713Y-7005765D02*
X33750584Y-7002565D01*
X50810235Y-56599350D02*
X50802565Y-56649415D01*
X48800000Y-14950000D02*
X49800000Y-14950000D01*
X19297177Y-86959478D02*
X19320197Y-86948902D01*
X48789764Y-7399350D02*
X48777069Y-7350318D01*
X48695387Y-72793947D02*
X48662396Y-72755516D01*
X63389764Y-40199350D02*
X63377069Y-40150318D01*
X22049415Y-39802565D02*
X22024286Y-39805765D01*
X19510381Y-86785634D02*
X19537173Y-86742650D01*
X77959478Y-7302822D02*
X77948902Y-7279802D01*
X51079802Y-54148902D02*
X51102822Y-54159478D01*
X35200000Y-29850000D02*
X34200000Y-29850000D01*
X21600284Y-62650000D02*
X20600000Y-62650000D01*
X22100000Y-54200000D02*
X27150000Y-54200000D01*
X48375713Y-37794234D02*
X48425326Y-37784038D01*
X48789764Y-40199350D02*
X48777069Y-40150318D01*
X48800000Y-79050000D02*
X48800000Y-73100000D01*
X48350584Y-72602565D02*
X48300000Y-72600000D01*
X7193947Y-56304612D02*
X7155516Y-56337603D01*
X65555516Y-72737603D02*
X65520620Y-72774313D01*
X48520197Y-72651097D02*
X48473652Y-72631123D01*
X19297177Y-72640521D02*
X19273652Y-72631123D01*
X7051097Y-21120197D02*
X7075677Y-21164482D01*
X5000000Y-62650000D02*
X5000000Y-47750000D01*
X50955516Y-7137603D02*
X50920620Y-7174313D01*
X34197434Y-20950584D02*
X34200000Y-20900000D01*
X48789764Y-86600649D02*
X48797434Y-86550584D01*
X19462396Y-39955516D02*
X19425686Y-39920620D01*
X65574313Y-86879379D02*
X65614365Y-86910381D01*
X21622930Y-86649681D02*
X21640521Y-86697177D01*
X48800000Y-80550000D02*
X49800000Y-80550000D01*
X19524322Y-72835517D02*
X19495387Y-72793947D01*
X65555516Y-21262396D02*
X65593947Y-21295387D01*
X51300000Y-54200000D02*
X56350000Y-54200000D01*
X70950000Y-38800000D02*
X70950000Y-39800000D01*
X48800000Y-23900000D02*
X48797434Y-23849415D01*
X41750000Y-70600000D02*
X41750000Y-71600000D01*
X48759478Y-7302822D02*
X48748902Y-7279802D01*
X48644483Y-70462396D02*
X48679379Y-70425686D01*
X56350000Y-71600000D02*
X56350000Y-72600000D01*
X19150584Y-54197434D02*
X19200649Y-54189764D01*
X36414365Y-86910381D02*
X36457349Y-86937173D01*
X7424286Y-7005765D02*
X7424286Y-7005765D01*
X77575713Y-21394234D02*
X77625326Y-21384038D01*
X72450000Y-22400000D02*
X72450000Y-21400000D01*
X7051097Y-23679802D02*
X7031123Y-23726347D01*
X19406052Y-86895387D02*
X19444483Y-86862396D01*
X33897177Y-70559478D02*
X33920197Y-70548902D01*
X65431123Y-21073652D02*
X65451097Y-21120197D01*
X48425326Y-39815961D02*
X48375713Y-39805765D01*
X50840521Y-86697177D02*
X50862826Y-86742650D01*
X21814365Y-70510381D02*
X21857349Y-70537173D01*
X36355516Y-7137603D02*
X36320620Y-7174313D01*
X65405765Y-20975713D02*
X65415961Y-21025326D01*
X36231123Y-37473652D02*
X36251097Y-37520197D01*
X7279802Y-56251097D02*
X7235517Y-56275677D01*
X77575713Y-7005765D02*
X77550584Y-7002565D01*
X48777069Y-40150318D02*
X48759478Y-40102822D01*
X78000000Y-56700000D02*
X77997434Y-56649415D01*
X36205765Y-40224286D02*
X36202565Y-40249415D01*
X7120620Y-54025686D02*
X7155516Y-54062396D01*
X35200000Y-80550000D02*
X36200356Y-80550000D01*
X19249681Y-70577069D02*
X19297177Y-70559478D01*
X22049415Y-54197434D02*
X22100000Y-54200000D01*
X7155516Y-23537603D02*
X7120620Y-23574313D01*
X50802565Y-86550584D02*
X50810235Y-86600649D01*
X65726347Y-7031123D02*
X65679802Y-7051097D01*
X48497177Y-86959478D02*
X48520197Y-86948902D01*
X56350000Y-39800000D02*
X51300000Y-39800000D01*
X36200356Y-47750000D02*
X36200641Y-53725324D01*
X63025326Y-37784038D02*
X63073652Y-37768876D01*
X51079802Y-23451097D02*
X51035517Y-23475677D01*
X7279802Y-72651097D02*
X7235517Y-72675677D01*
X19600000Y-46250000D02*
X19600000Y-40300000D01*
X48679379Y-86825686D02*
X48710381Y-86785634D01*
X33700000Y-21400000D02*
X33750584Y-21397434D01*
X34159478Y-86697177D02*
X34168876Y-86673652D01*
X20600000Y-79050000D02*
X19600000Y-79050000D01*
X7120620Y-70425686D02*
X7155516Y-70462396D01*
X51300000Y-21400000D02*
X56350000Y-21400000D01*
X36526347Y-39831123D02*
X36479802Y-39851097D01*
X50920620Y-72774313D02*
X50904612Y-72793947D01*
X63348902Y-70320197D02*
X63368876Y-70273652D01*
X36205765Y-37375713D02*
X36215961Y-37425326D01*
X50851097Y-53920197D02*
X50875677Y-53964482D01*
X50993947Y-72704612D02*
X50955516Y-72737603D01*
X19225326Y-21384038D02*
X19273652Y-21368876D01*
X65462826Y-40057349D02*
X65440521Y-40102822D01*
X50851097Y-56479802D02*
X50831123Y-56526347D01*
X65679802Y-23451097D02*
X65635517Y-23475677D01*
X77997434Y-56649415D02*
X77989764Y-56599350D01*
X36231123Y-53873652D02*
X36251097Y-53920197D01*
X65520620Y-86825686D02*
X65555516Y-86862396D01*
X51035517Y-21324322D02*
X51079802Y-21348902D01*
X51300000Y-72600000D02*
X51249415Y-72602565D01*
X48789764Y-21000649D02*
X48797434Y-20950584D01*
X48797434Y-73049415D02*
X48797434Y-73049415D01*
X36435517Y-72675677D02*
X36393947Y-72704612D01*
X65555516Y-56337603D02*
X65520620Y-56374313D01*
X34194234Y-56624286D02*
X34184038Y-56574673D01*
X48300000Y-54200000D02*
X48350584Y-54197434D01*
X63337173Y-21142650D02*
X63359478Y-21097177D01*
X7235517Y-23475677D02*
X7193947Y-23504612D01*
X36275677Y-72835517D02*
X36251097Y-72879802D01*
X62950584Y-56202565D02*
X62900000Y-56200000D01*
X48350584Y-86997434D02*
X48400649Y-86989764D01*
X65679802Y-37748902D02*
X65726347Y-37768876D01*
X77997434Y-70150584D02*
X78000000Y-70100000D01*
X36550318Y-86977069D02*
X36599350Y-86989764D01*
X63206052Y-37695387D02*
X63244483Y-37662396D01*
X41750000Y-56200000D02*
X36700000Y-56200000D01*
X77844483Y-21262396D02*
X77879379Y-21225686D01*
X36393947Y-23504612D02*
X36355516Y-23537603D01*
X63377069Y-40150318D02*
X63359478Y-40102822D01*
X80000000Y-79050000D02*
X78000000Y-79050000D01*
X65462826Y-7257349D02*
X65440521Y-7302822D01*
X19175713Y-39805765D02*
X19150584Y-39802565D01*
X7022930Y-86649681D02*
X7040521Y-86697177D01*
X33800649Y-70589764D02*
X33849681Y-70577069D01*
X65400641Y-37325324D02*
X65405765Y-37375713D01*
X65900000Y-7000000D02*
X65849415Y-7002565D01*
X21615961Y-53825326D02*
X21631123Y-53873652D01*
X50800284Y-29850000D02*
X49800000Y-29850000D01*
X65900000Y-21400000D02*
X70950000Y-21400000D01*
X50920620Y-21225686D02*
X50955516Y-21262396D01*
X21835517Y-72675677D02*
X21793947Y-72704612D01*
X56350000Y-87000000D02*
X56350000Y-89000000D01*
X50800356Y-47750000D02*
X50800641Y-53725324D01*
X56350000Y-37800000D02*
X56350000Y-38800000D01*
X19100000Y-21400000D02*
X19150584Y-21397434D01*
X65555516Y-23537603D02*
X65520620Y-23574313D01*
X49800000Y-46250000D02*
X48800000Y-46250000D01*
X62975713Y-39805765D02*
X62950584Y-39802565D01*
X7500000Y-21400000D02*
X12550000Y-21400000D01*
X22049415Y-7002565D02*
X22024286Y-7005765D01*
X48724322Y-70364482D02*
X48748902Y-70320197D01*
X57850000Y-37800000D02*
X62900000Y-37800000D01*
X77968876Y-53873652D02*
X77977069Y-53849681D01*
X34006052Y-21295387D02*
X34044483Y-21262396D01*
X65400000Y-23900000D02*
X65400284Y-29850000D01*
X34197434Y-73049415D02*
X34194234Y-73024286D01*
X65489618Y-40014365D02*
X65462826Y-40057349D01*
X48564482Y-23475677D02*
X48520197Y-23451097D01*
X48375713Y-21394234D02*
X48425326Y-21384038D01*
X34197434Y-70150584D02*
X34200000Y-70100000D01*
X50800641Y-86525324D02*
X50802565Y-86550584D01*
X21793947Y-39904612D02*
X21755516Y-39937603D01*
X77862396Y-7155516D02*
X77825686Y-7120620D01*
X21610235Y-86600649D02*
X21622930Y-86649681D01*
X34168876Y-70273652D02*
X34184038Y-70225326D01*
X63049681Y-56222930D02*
X63000649Y-56210235D01*
X63400000Y-86500000D02*
X63400000Y-80550000D01*
X65475677Y-37564482D02*
X65504612Y-37606052D01*
X48737173Y-86742650D02*
X48759478Y-86697177D01*
X36649415Y-37797434D02*
X36700000Y-37800000D01*
X65750318Y-54177069D02*
X65799350Y-54189764D01*
X36435517Y-56275677D02*
X36393947Y-56304612D01*
X7326347Y-37768876D02*
X7374673Y-37784038D01*
X63377069Y-86649681D02*
X63389764Y-86600649D01*
X36502822Y-21359478D02*
X36550318Y-21377069D01*
X33942650Y-21337173D02*
X33985634Y-21310381D01*
X36262826Y-7257349D02*
X36251097Y-7279802D01*
X77937173Y-37542650D02*
X77959478Y-37497177D01*
X19320197Y-70548902D02*
X19364482Y-70524322D01*
X63359478Y-21097177D02*
X63368876Y-21073652D01*
X41750000Y-5000000D02*
X41750000Y-7000000D01*
X36457349Y-21337173D02*
X36502822Y-21359478D01*
X57850000Y-71600000D02*
X57850000Y-70600000D01*
X57850000Y-87000000D02*
X62900000Y-87000000D01*
X36231123Y-56526347D02*
X36215961Y-56574673D01*
X19479379Y-54025686D02*
X19510381Y-53985634D01*
X50889618Y-40014365D02*
X50862826Y-40057349D01*
X65415961Y-21025326D02*
X65431123Y-21073652D01*
X78000000Y-64150000D02*
X80000000Y-64150000D01*
X63348902Y-40079802D02*
X63324322Y-40035517D01*
X65504612Y-21206052D02*
X65520620Y-21225686D01*
X7000284Y-29850000D02*
X5000000Y-29850000D01*
X65750318Y-56222930D02*
X65702822Y-56240521D01*
X65422930Y-86649681D02*
X65440521Y-86697177D01*
X77959478Y-56502822D02*
X77948902Y-56479802D01*
X48748902Y-70320197D02*
X48768876Y-70273652D01*
X41750000Y-54200000D02*
X41750000Y-55200000D01*
X7155516Y-70462396D02*
X7193947Y-70495387D01*
X63120197Y-86948902D02*
X63164482Y-86924322D01*
X70950000Y-70600000D02*
X70950000Y-71600000D01*
X7424286Y-21394234D02*
X7474675Y-21399358D01*
X33873652Y-23431123D02*
X33849681Y-23422930D01*
X21600641Y-37325324D02*
X21605765Y-37375713D01*
X36200000Y-23900000D02*
X36200284Y-29850000D01*
X51102822Y-72640521D02*
X51079802Y-72651097D01*
X77997434Y-37350584D02*
X78000000Y-37300000D01*
X65593947Y-72704612D02*
X65555516Y-72737603D01*
X21675677Y-70364482D02*
X21689618Y-70385634D01*
X36649415Y-23402565D02*
X36599350Y-23410235D01*
X63359478Y-72902822D02*
X63348902Y-72879802D01*
X41750000Y-37800000D02*
X41750000Y-38800000D01*
X63377069Y-21049681D02*
X63389764Y-21000649D01*
X64400000Y-13450000D02*
X63400000Y-13450000D01*
X63244483Y-21262396D02*
X63279379Y-21225686D01*
X57850000Y-89000000D02*
X57850000Y-87000000D01*
X21600284Y-29850000D02*
X20600000Y-29850000D01*
X77997434Y-20950584D02*
X78000000Y-20900000D01*
X80000000Y-14950000D02*
X80000000Y-29850000D01*
X20600000Y-14950000D02*
X21600356Y-14950000D01*
X33700000Y-87000000D02*
X33750584Y-86997434D01*
X21689618Y-37585634D02*
X21720620Y-37625686D01*
X63120197Y-72651097D02*
X63073652Y-72631123D01*
X7302822Y-72640521D02*
X7279802Y-72651097D01*
X35200000Y-79050000D02*
X34200000Y-79050000D01*
X20600000Y-13450000D02*
X19600000Y-13450000D01*
X19600000Y-23900000D02*
X19597434Y-23849415D01*
X48625686Y-72720620D02*
X48606052Y-72704612D01*
X28650000Y-72600000D02*
X28650000Y-71600000D01*
X34025686Y-23520620D02*
X33985634Y-23489618D01*
X50993947Y-56304612D02*
X50955516Y-56337603D01*
X50920620Y-23574313D02*
X50889618Y-23614365D01*
X7031123Y-56526347D02*
X7015961Y-56574673D01*
X12550000Y-56200000D02*
X7500000Y-56200000D01*
X36200641Y-20925324D02*
X36205765Y-20975713D01*
X77910381Y-86785634D02*
X77937173Y-86742650D01*
X63244483Y-54062396D02*
X63279379Y-54025686D01*
X19249681Y-72622930D02*
X19200649Y-72610235D01*
X19425686Y-56320620D02*
X19385634Y-56289618D01*
X36414365Y-54110381D02*
X36457349Y-54137173D01*
X36649415Y-21397434D02*
X36700000Y-21400000D01*
X28650000Y-21400000D02*
X33700000Y-21400000D01*
X48606052Y-72704612D02*
X48564482Y-72675677D01*
X22049415Y-56202565D02*
X21999350Y-56210235D01*
X7500000Y-70600000D02*
X12550000Y-70600000D01*
X77764482Y-7075677D02*
X77720197Y-7051097D01*
X36700000Y-39800000D02*
X36700000Y-39800000D01*
X50993947Y-39904612D02*
X50955516Y-39937603D01*
X65593947Y-37695387D02*
X65635517Y-37724322D01*
X21675677Y-72835517D02*
X21651097Y-72879802D01*
X33897177Y-54159478D02*
X33920197Y-54148902D01*
X48800000Y-46250000D02*
X48800000Y-40300000D01*
X34148902Y-40079802D02*
X34124322Y-40035517D01*
X77764482Y-56275677D02*
X77720197Y-56251097D01*
X21662826Y-23657349D02*
X21651097Y-23679802D01*
X63400000Y-40300000D02*
X63397434Y-40249415D01*
X78000000Y-86500000D02*
X78000000Y-80550000D01*
X21857349Y-54137173D02*
X21902822Y-54159478D01*
X77844483Y-37662396D02*
X77879379Y-37625686D01*
X36262826Y-40057349D02*
X36251097Y-40079802D01*
X56350000Y-38800000D02*
X56350000Y-39800000D01*
X65489618Y-7214365D02*
X65462826Y-7257349D01*
X36479802Y-37748902D02*
X36526347Y-37768876D01*
X65702822Y-70559478D02*
X65750318Y-70577069D01*
X36649415Y-86997434D02*
X36700000Y-87000000D01*
X48606052Y-56304612D02*
X48564482Y-56275677D01*
X48759478Y-21097177D02*
X48768876Y-21073652D01*
X7002565Y-40249415D02*
X7000000Y-40300000D01*
X63359478Y-23702822D02*
X63348902Y-23679802D01*
X7000000Y-56700000D02*
X7000284Y-62650000D01*
X28650000Y-7000000D02*
X28650000Y-5000000D01*
X34095387Y-7193947D02*
X34062396Y-7155516D01*
X77625326Y-37784038D02*
X77673652Y-37768876D01*
X63295387Y-39993947D02*
X63262396Y-39955516D01*
X51174673Y-39815961D02*
X51126347Y-39831123D01*
X33942650Y-23462826D02*
X33897177Y-23440521D01*
X63400000Y-79050000D02*
X63400000Y-73100000D01*
X48564482Y-7075677D02*
X48520197Y-7051097D01*
X36574673Y-37784038D02*
X36624286Y-37794234D01*
X56350000Y-70600000D02*
X56350000Y-71600000D01*
X34200000Y-7500000D02*
X34197434Y-7449415D01*
X64400000Y-62650000D02*
X63400000Y-62650000D01*
X21793947Y-56304612D02*
X21755516Y-56337603D01*
X35200000Y-13450000D02*
X34200000Y-13450000D01*
X50802565Y-73049415D02*
X50800000Y-73100000D01*
X65679802Y-70548902D02*
X65702822Y-70559478D01*
X36550318Y-23422930D02*
X36502822Y-23440521D01*
X7000284Y-46250000D02*
X5000000Y-46250000D01*
X63359478Y-37497177D02*
X63368876Y-37473652D01*
X50904612Y-21206052D02*
X50920620Y-21225686D01*
X50840521Y-40102822D02*
X50831123Y-40126347D01*
X51035517Y-37724322D02*
X51079802Y-37748902D01*
X63400000Y-62650000D02*
X63400000Y-56700000D01*
X41750000Y-55200000D02*
X41750000Y-56200000D01*
X65849415Y-70597434D02*
X65900000Y-70600000D01*
X63206052Y-70495387D02*
X63244483Y-70462396D01*
X48350584Y-37797434D02*
X48375713Y-37794234D01*
X48800000Y-86500000D02*
X48800000Y-80550000D01*
X21879802Y-56251097D02*
X21835517Y-56275677D01*
X21600284Y-79050000D02*
X20600000Y-79050000D01*
X28650000Y-87000000D02*
X28650000Y-87000000D01*
X50875677Y-37564482D02*
X50904612Y-37606052D01*
X19342650Y-56262826D02*
X19297177Y-56240521D01*
X7000284Y-62650000D02*
X5000000Y-62650000D01*
X77895387Y-56393947D02*
X77862396Y-56355516D01*
X7500000Y-54200000D02*
X12550000Y-54200000D01*
X50831123Y-53873652D02*
X50851097Y-53920197D01*
X7031123Y-72926347D02*
X7015961Y-72974673D01*
X85000000Y-94000000D02*
X85000000Y0D01*
X7302822Y-56240521D02*
X7279802Y-56251097D01*
X65679802Y-7051097D02*
X65635517Y-7075677D01*
X7155516Y-37662396D02*
X7193947Y-37695387D01*
X48710381Y-86785634D02*
X48737173Y-86742650D01*
X33750584Y-23402565D02*
X33700000Y-23400000D01*
X22049415Y-72602565D02*
X21999350Y-72610235D01*
X77625326Y-23415961D02*
X77600649Y-23410235D01*
X63377069Y-7350318D02*
X63359478Y-7302822D01*
X51249415Y-21397434D02*
X51300000Y-21400000D01*
X78000000Y-62650000D02*
X78000000Y-56700000D01*
X7350318Y-86977069D02*
X7399350Y-86989764D01*
X7500000Y-39800000D02*
X7449415Y-39802565D01*
X48400649Y-72610235D02*
X48350584Y-72602565D01*
X43250000Y-38800000D02*
X43250000Y-37800000D01*
X48797434Y-56649415D02*
X48797434Y-56649415D01*
X77989764Y-37400649D02*
X77997434Y-37350584D01*
X51035517Y-70524322D02*
X51079802Y-70548902D01*
X19150584Y-37797434D02*
X19175713Y-37794234D01*
X63377069Y-23750318D02*
X63359478Y-23702822D01*
X36215961Y-40174673D02*
X36205765Y-40224286D01*
X63310381Y-86785634D02*
X63337173Y-86742650D01*
X14050000Y-37800000D02*
X19100000Y-37800000D01*
X36355516Y-23537603D02*
X36320620Y-23574313D01*
X21651097Y-21120197D02*
X21675677Y-21164482D01*
X36202565Y-73049415D02*
X36200000Y-73100000D01*
X34184038Y-40174673D02*
X34168876Y-40126347D01*
X34137173Y-37542650D02*
X34148902Y-37520197D01*
X33700000Y-37800000D02*
X33750584Y-37797434D01*
X7000356Y-64150000D02*
X7000356Y-64150000D01*
X63279379Y-54025686D02*
X63295387Y-54006052D01*
X36700000Y-56200000D02*
X36649415Y-56202565D01*
X21689618Y-40014365D02*
X21662826Y-40057349D01*
X70950000Y-7000000D02*
X70950000Y-7000000D01*
X65593947Y-21295387D02*
X65635517Y-21324322D01*
X7051097Y-70320197D02*
X7075677Y-70364482D01*
X48300000Y-39800000D02*
X43250000Y-39800000D01*
X63000649Y-70589764D02*
X63049681Y-70577069D01*
X63400000Y-37300000D02*
X63400000Y-31350000D01*
X21615961Y-56574673D02*
X21605765Y-56624286D01*
X77673652Y-39831123D02*
X77625326Y-39815961D01*
X80000000Y-13450000D02*
X78000000Y-13450000D01*
X48800000Y-64150000D02*
X49800000Y-64150000D01*
X63368876Y-37473652D02*
X63377069Y-37449681D01*
X7120620Y-21225686D02*
X7155516Y-21262396D01*
X22024286Y-37794234D02*
X22049415Y-37797434D01*
X21857349Y-23462826D02*
X21835517Y-23475677D01*
X77649681Y-86977069D02*
X77697177Y-86959478D01*
X77895387Y-39993947D02*
X77862396Y-39955516D01*
X7235517Y-7075677D02*
X7193947Y-7104612D01*
X50904612Y-54006052D02*
X50920620Y-54025686D01*
X19125324Y-7000641D02*
X19100000Y-7000000D01*
X21835517Y-39875677D02*
X21793947Y-39904612D01*
X63073652Y-7031123D02*
X63025326Y-7015961D01*
X34197434Y-37350584D02*
X34200000Y-37300000D01*
X65400284Y-29850000D02*
X64400000Y-29850000D01*
X65520620Y-7174313D02*
X65489618Y-7214365D01*
X7089618Y-72814365D02*
X7075677Y-72835517D01*
X63206052Y-21295387D02*
X63244483Y-21262396D01*
X7075677Y-21164482D02*
X7089618Y-21185634D01*
X19597434Y-70150584D02*
X19600000Y-70100000D01*
X48679379Y-54025686D02*
X48695387Y-54006052D01*
X35200000Y-64150000D02*
X36200356Y-64150000D01*
X63397434Y-73049415D02*
X63389764Y-72999350D01*
X48679379Y-70425686D02*
X48695387Y-70406052D01*
X36502822Y-23440521D02*
X36457349Y-23462826D01*
X50862826Y-7257349D02*
X50840521Y-7302822D01*
X65824286Y-7005765D02*
X65774673Y-7015961D01*
X48800000Y-7500000D02*
X48797434Y-7449415D01*
X77924322Y-40035517D02*
X77895387Y-39993947D01*
X48564482Y-39875677D02*
X48520197Y-39851097D01*
X50875677Y-56435517D02*
X50851097Y-56479802D01*
X36200356Y-14950000D02*
X36200641Y-20925324D01*
X7000356Y-47750000D02*
X7000641Y-53725324D01*
X48759478Y-40102822D02*
X48748902Y-40079802D01*
X19444483Y-21262396D02*
X19479379Y-21225686D01*
X7326347Y-7031123D02*
X7279802Y-7051097D01*
X65774673Y-21384038D02*
X65824286Y-21394234D01*
X65440521Y-23702822D02*
X65431123Y-23726347D01*
X77948902Y-7279802D02*
X77924322Y-7235517D01*
X63359478Y-7302822D02*
X63348902Y-7279802D01*
X19568876Y-21073652D02*
X19584038Y-21025326D01*
X34168876Y-86673652D02*
X34184038Y-86625326D01*
X63397434Y-53750584D02*
X63400000Y-53700000D01*
X21600000Y-56700000D02*
X21600284Y-62650000D01*
X34168876Y-7326347D02*
X34148902Y-7279802D01*
X21662826Y-40057349D02*
X21640521Y-40102822D01*
X63389764Y-23799350D02*
X63377069Y-23750318D01*
X19406052Y-21295387D02*
X19444483Y-21262396D01*
X51035517Y-56275677D02*
X50993947Y-56304612D01*
X62975713Y-37794234D02*
X63025326Y-37784038D01*
X50822930Y-40150318D02*
X50810235Y-40199350D01*
X19100000Y-87000000D02*
X19150584Y-86997434D01*
X36649415Y-72602565D02*
X36599350Y-72610235D01*
X51300000Y-56200000D02*
X51249415Y-56202565D01*
X19364482Y-23475677D02*
X19320197Y-23451097D01*
X34079379Y-21225686D02*
X34110381Y-21185634D01*
X21857349Y-70537173D02*
X21902822Y-70559478D01*
X65400641Y-86525324D02*
X65402565Y-86550584D01*
X63073652Y-21368876D02*
X63120197Y-21348902D01*
X63262396Y-23555516D02*
X63225686Y-23520620D01*
X56350000Y-56200000D02*
X51300000Y-56200000D01*
X63262396Y-72755516D02*
X63225686Y-72720620D01*
X48520197Y-21348902D02*
X48564482Y-21324322D01*
X48300000Y-70600000D02*
X48350584Y-70597434D01*
X7005765Y-7424286D02*
X7000641Y-7474675D01*
X56350000Y-21400000D02*
X56350000Y-22400000D01*
X34110381Y-37585634D02*
X34137173Y-37542650D01*
X7155516Y-72737603D02*
X7120620Y-72774313D01*
X14050000Y-22400000D02*
X14050000Y-21400000D01*
X51174673Y-21384038D02*
X51224286Y-21394234D01*
X63368876Y-86673652D02*
X63377069Y-86649681D01*
X36251097Y-53920197D02*
X36275677Y-53964482D01*
X34200000Y-20900000D02*
X34200000Y-14950000D01*
X57850000Y-72600000D02*
X57850000Y-71600000D01*
X33873652Y-37768876D02*
X33920197Y-37748902D01*
X36231123Y-21073652D02*
X36251097Y-21120197D01*
X62975713Y-21394234D02*
X63025326Y-21384038D01*
X80000000Y-46250000D02*
X78000000Y-46250000D01*
X21600641Y-20925324D02*
X21605765Y-20975713D01*
X21600356Y-14950000D02*
X21600641Y-20925324D01*
X48748902Y-56479802D02*
X48724322Y-56435517D01*
X19584038Y-23774673D02*
X19568876Y-23726347D01*
X51199350Y-56210235D02*
X51150318Y-56222930D01*
X63073652Y-72631123D02*
X63049681Y-72622930D01*
X48748902Y-72879802D02*
X48724322Y-72835517D01*
X7257349Y-86937173D02*
X7302822Y-86959478D01*
X21631123Y-72926347D02*
X21615961Y-72974673D01*
X65400356Y-80550000D02*
X65400641Y-86525324D01*
X36435517Y-23475677D02*
X36393947Y-23504612D01*
X77575713Y-37794234D02*
X77625326Y-37784038D01*
X65593947Y-56304612D02*
X65555516Y-56337603D01*
X34200000Y-29850000D02*
X34200000Y-29850000D01*
X22049415Y-70597434D02*
X22100000Y-70600000D01*
X63244483Y-70462396D02*
X63279379Y-70425686D01*
X33849681Y-21377069D02*
X33897177Y-21359478D01*
X33750584Y-37797434D02*
X33775713Y-37794234D01*
X28650000Y-39800000D02*
X28650000Y-38800000D01*
X63310381Y-21185634D02*
X63337173Y-21142650D01*
X51174673Y-37784038D02*
X51224286Y-37794234D01*
X48662396Y-39955516D02*
X48625686Y-39920620D01*
X33700000Y-54200000D02*
X33750584Y-54197434D01*
X5000000Y-29850000D02*
X5000000Y-14950000D01*
X78000000Y-13450000D02*
X78000000Y-7500000D01*
X7500000Y-87000000D02*
X12550000Y-87000000D01*
X48473652Y-21368876D02*
X48520197Y-21348902D01*
X7449415Y-39802565D02*
X7424286Y-39805765D01*
X7399350Y-23410235D02*
X7350318Y-23422930D01*
X21600641Y-86525324D02*
X21602565Y-86550584D01*
X50831123Y-70273652D02*
X50851097Y-70320197D01*
X65520620Y-54025686D02*
X65555516Y-54062396D01*
X65400356Y-31350000D02*
X65400641Y-37325324D01*
X27150000Y-22400000D02*
X27150000Y-23400000D01*
X65635517Y-7075677D02*
X65593947Y-7104612D01*
X48789764Y-70200649D02*
X48797434Y-70150584D01*
X19273652Y-7031123D02*
X19225326Y-7015961D01*
X48375713Y-7005765D02*
X48350584Y-7002565D01*
X63324322Y-7235517D02*
X63295387Y-7193947D01*
X63120197Y-56251097D02*
X63073652Y-56231123D01*
X19385634Y-72689618D02*
X19342650Y-72662826D01*
X36355516Y-39937603D02*
X36320620Y-39974313D01*
X7474675Y-21399358D02*
X7500000Y-21400000D01*
X21793947Y-7104612D02*
X21755516Y-7137603D01*
X78000000Y-47750000D02*
X80000000Y-47750000D01*
X63389764Y-23799350D02*
X63389764Y-23799350D01*
X50955516Y-54062396D02*
X50993947Y-54095387D01*
X50889618Y-86785634D02*
X50920620Y-86825686D01*
X34148902Y-56479802D02*
X34124322Y-56435517D01*
X57850000Y-7000000D02*
X57850000Y-5000000D01*
X77500000Y-23400000D02*
X72450000Y-23400000D01*
X34200000Y-64150000D02*
X35200000Y-64150000D01*
X51126347Y-39831123D02*
X51079802Y-39851097D01*
X19249681Y-86977069D02*
X19297177Y-86959478D01*
X50800000Y-56700000D02*
X50800284Y-62650000D01*
X48625686Y-39920620D02*
X48606052Y-39904612D01*
X80000000Y-29850000D02*
X78000000Y-29850000D01*
X65405765Y-70175713D02*
X65415961Y-70225326D01*
X77948902Y-23679802D02*
X77924322Y-23635517D01*
X48400649Y-86989764D02*
X48449681Y-86977069D01*
X77720197Y-70548902D02*
X77764482Y-70524322D01*
X19150584Y-39802565D02*
X19100000Y-39800000D01*
X34184038Y-7374673D02*
X34168876Y-7326347D01*
X50815961Y-37425326D02*
X50831123Y-37473652D01*
X48350584Y-56202565D02*
X48300000Y-56200000D01*
X57850000Y-5000000D02*
X70950000Y-5000000D01*
X34168876Y-37473652D02*
X34184038Y-37425326D01*
X77500000Y-7000000D02*
X72450000Y-7000000D01*
X7089618Y-53985634D02*
X7120620Y-54025686D01*
X36251097Y-7279802D02*
X36231123Y-7326347D01*
X36355516Y-56337603D02*
X36320620Y-56374313D01*
X36304612Y-70406052D02*
X36320620Y-70425686D01*
X19273652Y-72631123D02*
X19249681Y-72622930D01*
X5000000Y-5000000D02*
X12550000Y-5000000D01*
X33985634Y-23489618D02*
X33942650Y-23462826D01*
X36202565Y-56649415D02*
X36200000Y-56700000D01*
X19406052Y-70495387D02*
X19444483Y-70462396D01*
X50802565Y-56649415D02*
X50800000Y-56700000D01*
X70950000Y-87000000D02*
X70950000Y-89000000D01*
X63073652Y-39831123D02*
X63025326Y-39815961D01*
X77500000Y-87000000D02*
X77550584Y-86997434D01*
X27150000Y-55200000D02*
X27150000Y-56200000D01*
X51199350Y-86989764D02*
X51249415Y-86997434D01*
X35200000Y-47750000D02*
X36200356Y-47750000D01*
X65475677Y-70364482D02*
X65504612Y-70406052D01*
X65799350Y-56210235D02*
X65750318Y-56222930D01*
X41750000Y-89000000D02*
X28650000Y-89000000D01*
X36700000Y-23400000D02*
X36649415Y-23402565D01*
X33920197Y-39851097D02*
X33873652Y-39831123D01*
X77910381Y-37585634D02*
X77937173Y-37542650D01*
X19548902Y-7279802D02*
X19524322Y-7235517D01*
X33985634Y-56289618D02*
X33942650Y-56262826D01*
X63164482Y-37724322D02*
X63206052Y-37695387D01*
X77989764Y-21000649D02*
X77997434Y-20950584D01*
X34194234Y-70175713D02*
X34197434Y-70150584D01*
X7120620Y-39974313D02*
X7089618Y-40014365D01*
X21675677Y-56435517D02*
X21651097Y-56479802D01*
X34184038Y-56574673D02*
X34168876Y-56526347D01*
X21999350Y-54189764D02*
X22049415Y-54197434D01*
X19510381Y-53985634D02*
X19524322Y-53964482D01*
X19584038Y-37425326D02*
X19594234Y-37375713D01*
X77937173Y-86742650D02*
X77959478Y-86697177D01*
X19584038Y-86625326D02*
X19589764Y-86600649D01*
X77825686Y-72720620D02*
X77806052Y-72704612D01*
X63225686Y-39920620D02*
X63206052Y-39904612D01*
X65702822Y-54159478D02*
X65750318Y-54177069D01*
X33700000Y-39800000D02*
X28650000Y-39800000D01*
X63348902Y-7279802D02*
X63324322Y-7235517D01*
X72450000Y-37800000D02*
X77500000Y-37800000D01*
X62900000Y-21400000D02*
X62950584Y-21397434D01*
X77879379Y-86825686D02*
X77910381Y-86785634D01*
X48606052Y-86895387D02*
X48644483Y-86862396D01*
X7015961Y-70225326D02*
X7031123Y-70273652D01*
X70950000Y-72600000D02*
X65900000Y-72600000D01*
X7155516Y-54062396D02*
X7193947Y-54095387D01*
X48449681Y-54177069D02*
X48497177Y-54159478D01*
X33825326Y-37784038D02*
X33873652Y-37768876D01*
X43250000Y-21400000D02*
X48300000Y-21400000D01*
X33849681Y-72622930D02*
X33800649Y-72610235D01*
X77550584Y-56202565D02*
X77500000Y-56200000D01*
X34062396Y-72755516D02*
X34025686Y-72720620D01*
X36205765Y-86575713D02*
X36210235Y-86600649D01*
X63295387Y-56393947D02*
X63262396Y-56355516D01*
X34197434Y-56649415D02*
X34194234Y-56624286D01*
X19150584Y-86997434D02*
X19200649Y-86989764D01*
X7000641Y-7474675D02*
X7000000Y-7500000D01*
X43250000Y-39800000D02*
X43250000Y-38800000D01*
X77924322Y-70364482D02*
X77948902Y-70320197D01*
X50822930Y-56550318D02*
X50810235Y-56599350D01*
X62950584Y-7002565D02*
X62900000Y-7000000D01*
X65520620Y-39974313D02*
X65489618Y-40014365D01*
X63377069Y-70249681D02*
X63389764Y-70200649D01*
X65410235Y-40199350D02*
X65402565Y-40249415D01*
X77673652Y-7031123D02*
X77625326Y-7015961D01*
X77720197Y-23451097D02*
X77673652Y-23431123D01*
X63000649Y-23410235D02*
X62950584Y-23402565D01*
X19100000Y-7000000D02*
X14050000Y-7000000D01*
X51199350Y-72610235D02*
X51150318Y-72622930D01*
X12550000Y-89000000D02*
X5000000Y-89000000D01*
X7235517Y-56275677D02*
X7193947Y-56304612D01*
X77625326Y-7015961D02*
X77575713Y-7005765D01*
X65657349Y-86937173D02*
X65702822Y-86959478D01*
X20600000Y-29850000D02*
X19600000Y-29850000D01*
X36649415Y-39802565D02*
X36624286Y-39805765D01*
X19584038Y-70225326D02*
X19594234Y-70175713D01*
X36262826Y-23657349D02*
X36251097Y-23679802D01*
X48400649Y-23410235D02*
X48350584Y-23402565D01*
X50955516Y-21262396D02*
X50993947Y-21295387D01*
X65400641Y-20925324D02*
X65405765Y-20975713D01*
X63348902Y-56479802D02*
X63324322Y-56435517D01*
X72450000Y-38800000D02*
X72450000Y-37800000D01*
X48797434Y-53750584D02*
X48800000Y-53700000D01*
X21737603Y-21244483D02*
X21755516Y-21262396D01*
X21605765Y-53775713D02*
X21615961Y-53825326D01*
X65750318Y-72622930D02*
X65702822Y-72640521D01*
X36215961Y-37425326D02*
X36231123Y-37473652D01*
X22074675Y-21399358D02*
X22100000Y-21400000D01*
X7399350Y-70589764D02*
X7449415Y-70597434D01*
X63400000Y-14950000D02*
X64400000Y-14950000D01*
X36435517Y-39875677D02*
X36393947Y-39904612D01*
X77977069Y-21049681D02*
X77989764Y-21000649D01*
X36215961Y-56574673D02*
X36205765Y-56624286D01*
X63164482Y-39875677D02*
X63120197Y-39851097D01*
X63310381Y-37585634D02*
X63337173Y-37542650D01*
X34137173Y-86742650D02*
X34159478Y-86697177D01*
X7051097Y-7279802D02*
X7031123Y-7326347D01*
X65679802Y-21348902D02*
X65726347Y-21368876D01*
X34044483Y-21262396D02*
X34079379Y-21225686D01*
X14050000Y-55200000D02*
X14050000Y-54200000D01*
X48800000Y-29850000D02*
X48800000Y-23900000D01*
X36649415Y-7002565D02*
X36599350Y-7010235D01*
X48520197Y-37748902D02*
X48564482Y-37724322D01*
X36700000Y-87000000D02*
X41750000Y-87000000D01*
X7062826Y-40057349D02*
X7040521Y-40102822D01*
X50955516Y-72737603D02*
X50920620Y-72774313D01*
X50904612Y-70406052D02*
X50920620Y-70425686D01*
X48789764Y-53800649D02*
X48797434Y-53750584D01*
X21615961Y-21025326D02*
X21631123Y-21073652D01*
X34200000Y-73100000D02*
X34197434Y-73049415D01*
X19537173Y-40057349D02*
X19510381Y-40014365D01*
X48724322Y-7235517D02*
X48695387Y-7193947D01*
X64400000Y-29850000D02*
X63400000Y-29850000D01*
X21879802Y-21348902D02*
X21926347Y-21368876D01*
X65726347Y-23431123D02*
X65679802Y-23451097D01*
X33750584Y-86997434D02*
X33800649Y-86989764D01*
X21950318Y-23422930D02*
X21902822Y-23440521D01*
X36205765Y-73024286D02*
X36202565Y-73049415D01*
X49800000Y-13450000D02*
X48800000Y-13450000D01*
X65824286Y-37794234D02*
X65849415Y-37797434D01*
X7193947Y-7104612D02*
X7155516Y-7137603D01*
X65593947Y-7104612D02*
X65555516Y-7137603D01*
X50802565Y-7449415D02*
X50800000Y-7500000D01*
X7005765Y-73024286D02*
X7002565Y-73049415D01*
X20600000Y-62650000D02*
X19600000Y-62650000D01*
X21835517Y-56275677D02*
X21793947Y-56304612D01*
X63389764Y-86600649D02*
X63397434Y-86550584D01*
X34200000Y-31350000D02*
X35200000Y-31350000D01*
X48585634Y-7089618D02*
X48564482Y-7075677D01*
X19273652Y-39831123D02*
X19225326Y-39815961D01*
X63025326Y-7015961D02*
X62975713Y-7005765D01*
X19225326Y-23415961D02*
X19200649Y-23410235D01*
X36320620Y-39974313D02*
X36289618Y-40014365D01*
X21615961Y-72974673D02*
X21605765Y-73024286D01*
X65400284Y-62650000D02*
X64400000Y-62650000D01*
X21651097Y-70320197D02*
X21675677Y-70364482D01*
X36215961Y-70225326D02*
X36231123Y-70273652D01*
X62950584Y-72602565D02*
X62900000Y-72600000D01*
X7424286Y-39805765D02*
X7374673Y-39815961D01*
X36215961Y-21025326D02*
X36231123Y-21073652D01*
X21902822Y-70559478D02*
X21950318Y-70577069D01*
X77673652Y-21368876D02*
X77720197Y-21348902D01*
X63389764Y-53800649D02*
X63397434Y-53750584D01*
X19297177Y-54159478D02*
X19320197Y-54148902D01*
X77806052Y-72704612D02*
X77764482Y-72675677D01*
X36275677Y-53964482D02*
X36304612Y-54006052D01*
X36502822Y-7040521D02*
X36457349Y-7062826D01*
X43250000Y-7000000D02*
X43250000Y-5000000D01*
X19406052Y-23504612D02*
X19364482Y-23475677D01*
X48800000Y-56700000D02*
X48797434Y-56649415D01*
X36320620Y-70425686D02*
X36355516Y-70462396D01*
X51300000Y-87000000D02*
X56350000Y-87000000D01*
X48350584Y-39802565D02*
X48300000Y-39800000D01*
X19425686Y-39920620D02*
X19385634Y-39889618D01*
X63206052Y-86895387D02*
X63244483Y-86862396D01*
X21835517Y-37724322D02*
X21879802Y-37748902D01*
X21605765Y-37375713D02*
X21615961Y-37425326D01*
X19600000Y-64150000D02*
X20600000Y-64150000D01*
X65593947Y-70495387D02*
X65635517Y-70524322D01*
X19568876Y-86673652D02*
X19584038Y-86625326D01*
X7022930Y-37449681D02*
X7040521Y-37497177D01*
X21605765Y-70175713D02*
X21615961Y-70225326D01*
X63097177Y-70559478D02*
X63120197Y-70548902D01*
X63244483Y-37662396D02*
X63279379Y-37625686D01*
X34006052Y-70495387D02*
X34044483Y-70462396D01*
X50810235Y-40199350D02*
X50802565Y-40249415D01*
X50851097Y-21120197D02*
X50875677Y-21164482D01*
X78000000Y-73100000D02*
X77997434Y-73049415D01*
X19385634Y-56289618D02*
X19342650Y-56262826D01*
X43250000Y-70600000D02*
X48300000Y-70600000D01*
X7075677Y-72835517D02*
X7051097Y-72879802D01*
X21720620Y-72774313D02*
X21689618Y-72814365D01*
X48748902Y-7279802D02*
X48724322Y-7235517D01*
X19175713Y-37794234D02*
X19225326Y-37784038D01*
X21651097Y-23679802D02*
X21631123Y-23726347D01*
X36275677Y-21164482D02*
X36304612Y-21206052D01*
X48300000Y-21400000D02*
X48350584Y-21397434D01*
X36251097Y-56479802D02*
X36231123Y-56526347D01*
X22100000Y-72600000D02*
X22049415Y-72602565D01*
X50815961Y-70225326D02*
X50831123Y-70273652D01*
X51102822Y-56240521D02*
X51079802Y-56251097D01*
X21689618Y-72814365D02*
X21675677Y-72835517D01*
X22100000Y-87000000D02*
X27150000Y-87000000D01*
X36289618Y-23614365D02*
X36262826Y-23657349D01*
X48737173Y-21142650D02*
X48759478Y-21097177D01*
X0Y-94000000D02*
X85000000Y-94000000D01*
X65462826Y-23657349D02*
X65440521Y-23702822D01*
X36205765Y-53775713D02*
X36215961Y-53825326D01*
X19364482Y-21324322D02*
X19406052Y-21295387D01*
X21704612Y-21206052D02*
X21737603Y-21244483D01*
X80000000Y-80550000D02*
X80000000Y-89000000D01*
X36320620Y-7174313D02*
X36289618Y-7214365D01*
X7235517Y-39875677D02*
X7193947Y-39904612D01*
X72450000Y-70600000D02*
X77500000Y-70600000D01*
X19273652Y-37768876D02*
X19320197Y-37748902D01*
X36231123Y-7326347D02*
X36215961Y-7374673D01*
X77673652Y-56231123D02*
X77649681Y-56222930D01*
X48797434Y-40249415D02*
X48797434Y-40249415D01*
X49800000Y-31350000D02*
X50800356Y-31350000D01*
X7031123Y-7326347D02*
X7015961Y-7374673D01*
X21615961Y-23774673D02*
X21605765Y-23824286D01*
X51079802Y-56251097D02*
X51035517Y-56275677D01*
X36624286Y-37794234D02*
X36649415Y-37797434D01*
X65422930Y-23750318D02*
X65410235Y-23799350D01*
X48449681Y-86977069D02*
X48497177Y-86959478D01*
X19100000Y-72600000D02*
X14050000Y-72600000D01*
X65451097Y-37520197D02*
X65475677Y-37564482D01*
X63389764Y-70200649D02*
X63397434Y-70150584D01*
X48800000Y-53700000D02*
X48800000Y-47750000D01*
X36393947Y-72704612D02*
X36355516Y-72737603D01*
X63324322Y-56435517D02*
X63295387Y-56393947D01*
X33750584Y-39802565D02*
X33700000Y-39800000D01*
X48800000Y-62650000D02*
X48800000Y-56700000D01*
X28650000Y-54200000D02*
X33700000Y-54200000D01*
X50862826Y-23657349D02*
X50840521Y-23702822D01*
X50920620Y-54025686D02*
X50955516Y-54062396D01*
X28650000Y-56200000D02*
X28650000Y-55200000D01*
X48425326Y-7015961D02*
X48375713Y-7005765D01*
X19479379Y-21225686D02*
X19510381Y-21185634D01*
X63400000Y-53700000D02*
X63400000Y-47750000D01*
X33700000Y-7000000D02*
X28650000Y-7000000D01*
X21600641Y-7474675D02*
X21600000Y-7500000D01*
X65750318Y-70577069D02*
X65799350Y-70589764D01*
X19479379Y-37625686D02*
X19510381Y-37585634D01*
X65431123Y-56526347D02*
X65422930Y-56550318D01*
X57850000Y-21400000D02*
X62900000Y-21400000D01*
X63206052Y-56304612D02*
X63164482Y-56275677D01*
X33897177Y-7040521D02*
X33873652Y-7031123D01*
X65849415Y-7002565D02*
X65824286Y-7005765D01*
X63400000Y-46250000D02*
X63400000Y-40300000D01*
X48520197Y-70548902D02*
X48564482Y-70524322D01*
X21999350Y-86989764D02*
X22049415Y-86997434D01*
X50810235Y-72999350D02*
X50802565Y-73049415D01*
X22100000Y-70600000D02*
X27150000Y-70600000D01*
X19600000Y-20900000D02*
X19600000Y-14950000D01*
X7350318Y-23422930D02*
X7302822Y-23440521D01*
X33897177Y-86959478D02*
X33920197Y-86948902D01*
X50974313Y-86879379D02*
X51014365Y-86910381D01*
X21651097Y-56479802D02*
X21631123Y-56526347D01*
X19537173Y-86742650D02*
X19559478Y-86697177D01*
X19479379Y-70425686D02*
X19510381Y-70385634D01*
X48800000Y-20900000D02*
X48800000Y-14950000D01*
X21602565Y-86550584D02*
X21610235Y-86600649D01*
X51079802Y-21348902D02*
X51126347Y-21368876D01*
X48777069Y-72950318D02*
X48759478Y-72902822D01*
X12550000Y-7000000D02*
X7500000Y-7000000D01*
X36202565Y-7449415D02*
X36200000Y-7500000D01*
X19385634Y-39889618D02*
X19342650Y-39862826D01*
X34124322Y-72835517D02*
X34095387Y-72793947D01*
X77997434Y-40249415D02*
X77989764Y-40199350D01*
X78000000Y-23900000D02*
X77997434Y-23849415D01*
X33700000Y-56200000D02*
X28650000Y-56200000D01*
X70950000Y-89000000D02*
X57850000Y-89000000D01*
X41750000Y-72600000D02*
X36700000Y-72600000D01*
X21704612Y-7193947D02*
X21675677Y-7235517D01*
X77720197Y-37748902D02*
X77764482Y-37724322D01*
X34095387Y-39993947D02*
X34062396Y-39955516D01*
X80000000Y-47750000D02*
X80000000Y-62650000D01*
X48710381Y-37585634D02*
X48737173Y-37542650D01*
X48695387Y-23593947D02*
X48662396Y-23555516D01*
X65900000Y-72600000D02*
X65849415Y-72602565D01*
X34025686Y-39920620D02*
X33985634Y-39889618D01*
X63225686Y-23520620D02*
X63185634Y-23489618D01*
X19584038Y-56574673D02*
X19568876Y-56526347D01*
X72450000Y-71600000D02*
X72450000Y-70600000D01*
X36289618Y-86785634D02*
X36320620Y-86825686D01*
X36251097Y-40079802D02*
X36231123Y-40126347D01*
X56350000Y-7000000D02*
X56350000Y-7000000D01*
X65849415Y-56202565D02*
X65799350Y-56210235D01*
X50993947Y-37695387D02*
X51035517Y-37724322D01*
X35200000Y-62650000D02*
X34200000Y-62650000D01*
X27150000Y-38800000D02*
X27150000Y-39800000D01*
X48724322Y-56435517D02*
X48695387Y-56393947D01*
X34200000Y-62650000D02*
X34200000Y-56700000D01*
X33750584Y-7002565D02*
X33700000Y-7000000D01*
X51249415Y-54197434D02*
X51300000Y-54200000D01*
X19600000Y-70100000D02*
X19600000Y-64150000D01*
X7015961Y-53825326D02*
X7031123Y-53873652D01*
X77806052Y-21295387D02*
X77844483Y-21262396D01*
X7089618Y-7214365D02*
X7075677Y-7235517D01*
X50800000Y-23900000D02*
X50800284Y-29850000D01*
X34197434Y-86550584D02*
X34200000Y-86500000D01*
X63337173Y-86742650D02*
X63359478Y-86697177D01*
X21605765Y-20975713D02*
X21615961Y-21025326D01*
X50851097Y-37520197D02*
X50875677Y-37564482D01*
X63120197Y-21348902D02*
X63164482Y-21324322D01*
X34200000Y-86500000D02*
X34200000Y-80550000D01*
X63324322Y-40035517D02*
X63295387Y-39993947D01*
X7031123Y-21073652D02*
X7051097Y-21120197D01*
X48375713Y-39805765D02*
X48350584Y-39802565D01*
X33920197Y-37748902D02*
X33964482Y-37724322D01*
X48800000Y-31350000D02*
X49800000Y-31350000D01*
X19100000Y-23400000D02*
X14050000Y-23400000D01*
X20600000Y-80550000D02*
X21600356Y-80550000D01*
X34079379Y-70425686D02*
X34095387Y-70406052D01*
X19495387Y-39993947D02*
X19462396Y-39955516D01*
X36700000Y-21400000D02*
X41750000Y-21400000D01*
X19320197Y-7051097D02*
X19273652Y-7031123D01*
X77989764Y-7399350D02*
X77977069Y-7350318D01*
X19559478Y-37497177D02*
X19568876Y-37473652D01*
X63097177Y-86959478D02*
X63120197Y-86948902D01*
X62950584Y-39802565D02*
X62900000Y-39800000D01*
X78000000Y-70100000D02*
X78000000Y-64150000D01*
X7449415Y-56202565D02*
X7399350Y-56210235D01*
X34200000Y-40300000D02*
X34197434Y-40249415D01*
X65415961Y-70225326D02*
X65431123Y-70273652D01*
X7005765Y-40224286D02*
X7002565Y-40249415D01*
X22024286Y-7005765D02*
X21974673Y-7015961D01*
X36700000Y-37800000D02*
X41750000Y-37800000D01*
X64400000Y-80550000D02*
X65400356Y-80550000D01*
X78000000Y-29850000D02*
X78000000Y-29850000D01*
X70950000Y-7000000D02*
X65900000Y-7000000D01*
X33964482Y-54124322D02*
X34006052Y-54095387D01*
X7302822Y-23440521D02*
X7257349Y-23462826D01*
X14050000Y-72600000D02*
X14050000Y-71600000D01*
X21755516Y-72737603D02*
X21720620Y-72774313D01*
X33920197Y-86948902D02*
X33964482Y-86924322D01*
X7002565Y-56649415D02*
X7000000Y-56700000D01*
X36457349Y-70537173D02*
X36502822Y-70559478D01*
X77764482Y-39875677D02*
X77720197Y-39851097D01*
X36205765Y-56624286D02*
X36202565Y-56649415D01*
X34189764Y-86600649D02*
X34197434Y-86550584D01*
X19425686Y-7120620D02*
X19385634Y-7089618D01*
X19599358Y-20925324D02*
X19600000Y-20900000D01*
X50993947Y-70495387D02*
X51035517Y-70524322D01*
X19200649Y-56210235D02*
X19150584Y-56202565D01*
X65400000Y-56700000D02*
X65400284Y-62650000D01*
X19597434Y-23849415D02*
X19594234Y-23824286D01*
X7051097Y-53920197D02*
X7075677Y-53964482D01*
X36479802Y-56251097D02*
X36435517Y-56275677D01*
X48777069Y-37449681D02*
X48789764Y-37400649D01*
X48777069Y-7350318D02*
X48759478Y-7302822D01*
X19320197Y-39851097D02*
X19273652Y-39831123D01*
X48644483Y-86862396D02*
X48679379Y-86825686D01*
X48564482Y-86924322D02*
X48606052Y-86895387D01*
X20600000Y-47750000D02*
X21600356Y-47750000D01*
X63097177Y-54159478D02*
X63120197Y-54148902D01*
X77649681Y-72622930D02*
X77600649Y-72610235D01*
X19150584Y-23402565D02*
X19100000Y-23400000D01*
X65431123Y-53873652D02*
X65451097Y-53920197D01*
X63073652Y-23431123D02*
X63025326Y-23415961D01*
X36550318Y-56222930D02*
X36502822Y-56240521D01*
X36502822Y-56240521D02*
X36479802Y-56251097D01*
X36599350Y-21389764D02*
X36649415Y-21397434D01*
X77879379Y-54025686D02*
X77895387Y-54006052D01*
X43250000Y-87000000D02*
X43250000Y-87000000D01*
X65635517Y-72675677D02*
X65593947Y-72704612D01*
X19584038Y-7374673D02*
X19568876Y-7326347D01*
X63324322Y-53964482D02*
X63348902Y-53920197D01*
X63377069Y-72950318D02*
X63359478Y-72902822D01*
X33775713Y-39805765D02*
X33750584Y-39802565D01*
X36457349Y-54137173D02*
X36502822Y-54159478D01*
X77550584Y-72602565D02*
X77500000Y-72600000D01*
X7031123Y-53873652D02*
X7051097Y-53920197D01*
X7399350Y-72610235D02*
X7350318Y-72622930D01*
X63049681Y-70577069D02*
X63097177Y-70559478D01*
X48473652Y-39831123D02*
X48425326Y-39815961D01*
X34095387Y-70406052D02*
X34124322Y-70364482D01*
X34200000Y-47750000D02*
X35200000Y-47750000D01*
X63389764Y-7399350D02*
X63377069Y-7350318D01*
X72450000Y-89000000D02*
X72450000Y-87000000D01*
X65679802Y-72651097D02*
X65635517Y-72675677D01*
X78000000Y-29850000D02*
X78000000Y-23900000D01*
X65431123Y-70273652D02*
X65451097Y-70320197D01*
X65410235Y-72999350D02*
X65402565Y-73049415D01*
X19100000Y-54200000D02*
X19150584Y-54197434D01*
X77895387Y-72793947D02*
X77862396Y-72755516D01*
X34197434Y-7449415D02*
X34194234Y-7424286D01*
X48695387Y-7193947D02*
X48662396Y-7155516D01*
X36624286Y-39805765D02*
X36574673Y-39815961D01*
X70950000Y-37800000D02*
X70950000Y-38800000D01*
X7279802Y-21348902D02*
X7326347Y-21368876D01*
X50831123Y-7326347D02*
X50822930Y-7350318D01*
X7051097Y-56479802D02*
X7031123Y-56526347D01*
X48350584Y-21397434D02*
X48350584Y-21397434D01*
M02*
