M48
; DRILL file {KiCad 7.0.5-1.fc38} date Fri 07 Jul 2023 14:18:20 EDT
; FORMAT={-:-/ absolute / metric / decimal}
; #@! TF.CreationDate,2023-07-07T14:18:20-04:00
; #@! TF.GenerationSoftware,Kicad,Pcbnew,7.0.5-1.fc38
; #@! TF.FileFunction,NonPlated,1,2,NPTH
FMAT,2
METRIC
; #@! TA.AperFunction,NonPlated,NPTH,ComponentDrill
T1C0.500
%
G90
G05
T1
X117.5Y-27.0
X117.5Y-91.5
X118.125Y-27.0
X118.125Y-91.5
X118.75Y-27.0
X118.75Y-91.5
X119.375Y-27.0
X119.375Y-91.5
X120.0Y-27.0
X120.0Y-91.5
X120.625Y-27.0
X120.625Y-91.5
X121.25Y-27.0
X121.25Y-91.5
X121.875Y-27.0
X121.875Y-91.5
X122.5Y-27.0
X122.5Y-91.5
X124.375Y-31.4
X124.375Y-32.025
X124.375Y-32.65
X124.375Y-33.275
X124.375Y-33.9
X124.375Y-44.7
X124.375Y-45.325
X124.375Y-45.95
X124.375Y-46.575
X124.375Y-47.2
X124.375Y-58.0
X124.375Y-58.625
X124.375Y-59.25
X124.375Y-59.875
X124.375Y-60.5
X124.375Y-71.3
X124.375Y-71.925
X124.375Y-72.55
X124.375Y-73.175
X124.375Y-73.8
X124.375Y-84.6
X124.375Y-85.225
X124.375Y-85.85
X124.375Y-86.475
X124.375Y-87.1
X124.5Y-20.0
X124.5Y-20.625
X124.5Y-21.25
X124.5Y-21.875
X124.5Y-22.5
X124.5Y-23.125
X124.5Y-23.75
X124.5Y-24.375
X124.5Y-25.0
X124.5Y-93.5
X124.5Y-94.125
X124.5Y-94.75
X124.5Y-95.375
X124.5Y-96.0
X124.5Y-96.625
X124.5Y-97.25
X124.5Y-97.875
X124.5Y-98.5
X127.25Y-26.875
X127.25Y-38.425
X127.25Y-40.175
X127.25Y-51.725
X127.25Y-53.475
X127.25Y-65.025
X127.25Y-66.775
X127.25Y-78.325
X127.25Y-80.075
X127.25Y-91.625
X127.875Y-26.875
X127.875Y-38.425
X127.875Y-40.175
X127.875Y-51.725
X127.875Y-53.475
X127.875Y-65.025
X127.875Y-66.775
X127.875Y-78.325
X127.875Y-80.075
X127.875Y-91.625
X128.5Y-26.875
X128.5Y-38.425
X128.5Y-40.175
X128.5Y-51.725
X128.5Y-53.475
X128.5Y-65.025
X128.5Y-66.775
X128.5Y-78.325
X128.5Y-80.075
X128.5Y-91.625
X129.125Y-26.875
X129.125Y-38.425
X129.125Y-40.175
X129.125Y-51.725
X129.125Y-53.475
X129.125Y-65.025
X129.125Y-66.775
X129.125Y-78.325
X129.125Y-80.075
X129.125Y-91.625
X129.75Y-26.875
X129.75Y-38.425
X129.75Y-40.175
X129.75Y-51.725
X129.75Y-53.475
X129.75Y-65.025
X129.75Y-66.775
X129.75Y-78.325
X129.75Y-80.075
X129.75Y-91.625
X132.625Y-31.4
X132.625Y-32.025
X132.625Y-32.65
X132.625Y-33.275
X132.625Y-33.9
X132.625Y-44.7
X132.625Y-45.325
X132.625Y-45.95
X132.625Y-46.575
X132.625Y-47.2
X132.625Y-58.0
X132.625Y-58.625
X132.625Y-59.25
X132.625Y-59.875
X132.625Y-60.5
X132.625Y-71.3
X132.625Y-71.925
X132.625Y-72.55
X132.625Y-73.175
X132.625Y-73.8
X132.625Y-84.6
X132.625Y-85.225
X132.625Y-85.85
X132.625Y-86.475
X132.625Y-87.1
X134.375Y-31.4
X134.375Y-32.025
X134.375Y-32.65
X134.375Y-33.275
X134.375Y-33.9
X134.375Y-44.7
X134.375Y-45.325
X134.375Y-45.95
X134.375Y-46.575
X134.375Y-47.2
X134.375Y-58.0
X134.375Y-58.625
X134.375Y-59.25
X134.375Y-59.875
X134.375Y-60.5
X134.375Y-71.3
X134.375Y-71.925
X134.375Y-72.55
X134.375Y-73.175
X134.375Y-73.8
X134.375Y-84.6
X134.375Y-85.225
X134.375Y-85.85
X134.375Y-86.475
X134.375Y-87.1
X137.25Y-26.875
X137.25Y-38.425
X137.25Y-40.175
X137.25Y-51.725
X137.25Y-53.475
X137.25Y-65.025
X137.25Y-66.775
X137.25Y-78.325
X137.25Y-80.075
X137.25Y-91.625
X137.875Y-26.875
X137.875Y-38.425
X137.875Y-40.175
X137.875Y-51.725
X137.875Y-53.475
X137.875Y-65.025
X137.875Y-66.775
X137.875Y-78.325
X137.875Y-80.075
X137.875Y-91.625
X138.5Y-26.875
X138.5Y-38.425
X138.5Y-40.175
X138.5Y-51.725
X138.5Y-53.475
X138.5Y-65.025
X138.5Y-66.775
X138.5Y-78.325
X138.5Y-80.075
X138.5Y-91.625
X139.125Y-26.875
X139.125Y-38.425
X139.125Y-40.175
X139.125Y-51.725
X139.125Y-53.475
X139.125Y-65.025
X139.125Y-66.775
X139.125Y-78.325
X139.125Y-80.075
X139.125Y-91.625
X139.75Y-26.875
X139.75Y-38.425
X139.75Y-40.175
X139.75Y-51.725
X139.75Y-53.475
X139.75Y-65.025
X139.75Y-66.775
X139.75Y-78.325
X139.75Y-80.075
X139.75Y-91.625
X142.625Y-31.4
X142.625Y-32.025
X142.625Y-32.65
X142.625Y-33.275
X142.625Y-33.9
X142.625Y-44.7
X142.625Y-45.325
X142.625Y-45.95
X142.625Y-46.575
X142.625Y-47.2
X142.625Y-58.0
X142.625Y-58.625
X142.625Y-59.25
X142.625Y-59.875
X142.625Y-60.5
X142.625Y-71.3
X142.625Y-71.925
X142.625Y-72.55
X142.625Y-73.175
X142.625Y-73.8
X142.625Y-84.6
X142.625Y-85.225
X142.625Y-85.85
X142.625Y-86.475
X142.625Y-87.1
X144.375Y-31.4
X144.375Y-32.025
X144.375Y-32.65
X144.375Y-33.275
X144.375Y-33.9
X144.375Y-44.7
X144.375Y-45.325
X144.375Y-45.95
X144.375Y-46.575
X144.375Y-47.2
X144.375Y-58.0
X144.375Y-58.625
X144.375Y-59.25
X144.375Y-59.875
X144.375Y-60.5
X144.375Y-71.3
X144.375Y-71.925
X144.375Y-72.55
X144.375Y-73.175
X144.375Y-73.8
X144.375Y-84.6
X144.375Y-85.225
X144.375Y-85.85
X144.375Y-86.475
X144.375Y-87.1
X147.25Y-26.875
X147.25Y-38.425
X147.25Y-40.175
X147.25Y-51.725
X147.25Y-53.475
X147.25Y-65.025
X147.25Y-66.775
X147.25Y-78.325
X147.25Y-80.075
X147.25Y-91.625
X147.875Y-26.875
X147.875Y-38.425
X147.875Y-40.175
X147.875Y-51.725
X147.875Y-53.475
X147.875Y-65.025
X147.875Y-66.775
X147.875Y-78.325
X147.875Y-80.075
X147.875Y-91.625
X148.5Y-26.875
X148.5Y-38.425
X148.5Y-40.175
X148.5Y-51.725
X148.5Y-53.475
X148.5Y-65.025
X148.5Y-66.775
X148.5Y-78.325
X148.5Y-80.075
X148.5Y-91.625
X149.125Y-26.875
X149.125Y-38.425
X149.125Y-40.175
X149.125Y-51.725
X149.125Y-53.475
X149.125Y-65.025
X149.125Y-66.775
X149.125Y-78.325
X149.125Y-80.075
X149.125Y-91.625
X149.75Y-26.875
X149.75Y-38.425
X149.75Y-40.175
X149.75Y-51.725
X149.75Y-53.475
X149.75Y-65.025
X149.75Y-66.775
X149.75Y-78.325
X149.75Y-80.075
X149.75Y-91.625
X152.625Y-31.4
X152.625Y-32.025
X152.625Y-32.65
X152.625Y-33.275
X152.625Y-33.9
X152.625Y-44.7
X152.625Y-45.325
X152.625Y-45.95
X152.625Y-46.575
X152.625Y-47.2
X152.625Y-58.0
X152.625Y-58.625
X152.625Y-59.25
X152.625Y-59.875
X152.625Y-60.5
X152.625Y-71.3
X152.625Y-71.925
X152.625Y-72.55
X152.625Y-73.175
X152.625Y-73.8
X152.625Y-84.6
X152.625Y-85.225
X152.625Y-85.85
X152.625Y-86.475
X152.625Y-87.1
X154.375Y-31.4
X154.375Y-32.025
X154.375Y-32.65
X154.375Y-33.275
X154.375Y-33.9
X154.375Y-44.7
X154.375Y-45.325
X154.375Y-45.95
X154.375Y-46.575
X154.375Y-47.2
X154.375Y-58.0
X154.375Y-58.625
X154.375Y-59.25
X154.375Y-59.875
X154.375Y-60.5
X154.375Y-71.3
X154.375Y-71.925
X154.375Y-72.55
X154.375Y-73.175
X154.375Y-73.8
X154.375Y-84.6
X154.375Y-85.225
X154.375Y-85.85
X154.375Y-86.475
X154.375Y-87.1
X157.25Y-26.875
X157.25Y-38.425
X157.25Y-40.175
X157.25Y-51.725
X157.25Y-53.475
X157.25Y-65.025
X157.25Y-66.775
X157.25Y-78.325
X157.25Y-80.075
X157.25Y-91.625
X157.875Y-26.875
X157.875Y-38.425
X157.875Y-40.175
X157.875Y-51.725
X157.875Y-53.475
X157.875Y-65.025
X157.875Y-66.775
X157.875Y-78.325
X157.875Y-80.075
X157.875Y-91.625
X158.5Y-26.875
X158.5Y-38.425
X158.5Y-40.175
X158.5Y-51.725
X158.5Y-53.475
X158.5Y-65.025
X158.5Y-66.775
X158.5Y-78.325
X158.5Y-80.075
X158.5Y-91.625
X159.125Y-26.875
X159.125Y-38.425
X159.125Y-40.175
X159.125Y-51.725
X159.125Y-53.475
X159.125Y-65.025
X159.125Y-66.775
X159.125Y-78.325
X159.125Y-80.075
X159.125Y-91.625
X159.75Y-26.875
X159.75Y-38.425
X159.75Y-40.175
X159.75Y-51.725
X159.75Y-53.475
X159.75Y-65.025
X159.75Y-66.775
X159.75Y-78.325
X159.75Y-80.075
X159.75Y-91.625
X162.625Y-31.4
X162.625Y-32.025
X162.625Y-32.65
X162.625Y-33.275
X162.625Y-33.9
X162.625Y-44.7
X162.625Y-45.325
X162.625Y-45.95
X162.625Y-46.575
X162.625Y-47.2
X162.625Y-58.0
X162.625Y-58.625
X162.625Y-59.25
X162.625Y-59.875
X162.625Y-60.5
X162.625Y-71.3
X162.625Y-71.925
X162.625Y-72.55
X162.625Y-73.175
X162.625Y-73.8
X162.625Y-84.6
X162.625Y-85.225
X162.625Y-85.85
X162.625Y-86.475
X162.625Y-87.1
X164.375Y-31.4
X164.375Y-32.025
X164.375Y-32.65
X164.375Y-33.275
X164.375Y-33.9
X164.375Y-44.7
X164.375Y-45.325
X164.375Y-45.95
X164.375Y-46.575
X164.375Y-47.2
X164.375Y-58.0
X164.375Y-58.625
X164.375Y-59.25
X164.375Y-59.875
X164.375Y-60.5
X164.375Y-71.3
X164.375Y-71.925
X164.375Y-72.55
X164.375Y-73.175
X164.375Y-73.8
X164.375Y-84.6
X164.375Y-85.225
X164.375Y-85.85
X164.375Y-86.475
X164.375Y-87.1
X167.25Y-26.875
X167.25Y-38.425
X167.25Y-40.175
X167.25Y-51.725
X167.25Y-53.475
X167.25Y-65.025
X167.25Y-66.775
X167.25Y-78.325
X167.25Y-80.075
X167.25Y-91.625
X167.875Y-26.875
X167.875Y-38.425
X167.875Y-40.175
X167.875Y-51.725
X167.875Y-53.475
X167.875Y-65.025
X167.875Y-66.775
X167.875Y-78.325
X167.875Y-80.075
X167.875Y-91.625
X168.5Y-26.875
X168.5Y-38.425
X168.5Y-40.175
X168.5Y-51.725
X168.5Y-53.475
X168.5Y-65.025
X168.5Y-66.775
X168.5Y-78.325
X168.5Y-80.075
X168.5Y-91.625
X169.125Y-26.875
X169.125Y-38.425
X169.125Y-40.175
X169.125Y-51.725
X169.125Y-53.475
X169.125Y-65.025
X169.125Y-66.775
X169.125Y-78.325
X169.125Y-80.075
X169.125Y-91.625
X169.75Y-26.875
X169.75Y-38.425
X169.75Y-40.175
X169.75Y-51.725
X169.75Y-53.475
X169.75Y-65.025
X169.75Y-66.775
X169.75Y-78.325
X169.75Y-80.075
X169.75Y-91.625
X172.5Y-20.0
X172.5Y-20.625
X172.5Y-21.25
X172.5Y-21.875
X172.5Y-22.5
X172.5Y-23.125
X172.5Y-23.75
X172.5Y-24.375
X172.5Y-25.0
X172.5Y-93.5
X172.5Y-94.125
X172.5Y-94.75
X172.5Y-95.375
X172.5Y-96.0
X172.5Y-96.625
X172.5Y-97.25
X172.5Y-97.875
X172.5Y-98.5
X172.625Y-31.4
X172.625Y-32.025
X172.625Y-32.65
X172.625Y-33.275
X172.625Y-33.9
X172.625Y-44.7
X172.625Y-45.325
X172.625Y-45.95
X172.625Y-46.575
X172.625Y-47.2
X172.625Y-58.0
X172.625Y-58.625
X172.625Y-59.25
X172.625Y-59.875
X172.625Y-60.5
X172.625Y-71.3
X172.625Y-71.925
X172.625Y-72.55
X172.625Y-73.175
X172.625Y-73.8
X172.625Y-84.6
X172.625Y-85.225
X172.625Y-85.85
X172.625Y-86.475
X172.625Y-87.1
X174.5Y-27.0
X174.5Y-91.5
X175.125Y-27.0
X175.125Y-91.5
X175.75Y-27.0
X175.75Y-91.5
X176.375Y-27.0
X176.375Y-91.5
X177.0Y-27.0
X177.0Y-91.5
X177.625Y-27.0
X177.625Y-91.5
X178.25Y-27.0
X178.25Y-91.5
X178.875Y-27.0
X178.875Y-91.5
X179.5Y-27.0
X179.5Y-91.5
T0
M30
