%TF.GenerationSoftware,KiCad,Pcbnew,7.0.5-1.fc38*%
%TF.CreationDate,2023-07-07T14:18:13-04:00*%
%TF.ProjectId,bno085-i2c-board-v3-square-panel,626e6f30-3835-42d6-9932-632d626f6172,rev?*%
%TF.SameCoordinates,Original*%
%TF.FileFunction,Paste,Top*%
%TF.FilePolarity,Positive*%
%FSLAX46Y46*%
G04 Gerber Fmt 4.6, Leading zero omitted, Abs format (unit mm)*
G04 Created by KiCad (PCBNEW 7.0.5-1.fc38) date 2023-07-07 14:18:13*
%MOMM*%
%LPD*%
G01*
G04 APERTURE LIST*
G04 Aperture macros list*
%AMRoundRect*
0 Rectangle with rounded corners*
0 $1 Rounding radius*
0 $2 $3 $4 $5 $6 $7 $8 $9 X,Y pos of 4 corners*
0 Add a 4 corners polygon primitive as box body*
4,1,4,$2,$3,$4,$5,$6,$7,$8,$9,$2,$3,0*
0 Add four circle primitives for the rounded corners*
1,1,$1+$1,$2,$3*
1,1,$1+$1,$4,$5*
1,1,$1+$1,$6,$7*
1,1,$1+$1,$8,$9*
0 Add four rect primitives between the rounded corners*
20,1,$1+$1,$2,$3,$4,$5,0*
20,1,$1+$1,$4,$5,$6,$7,0*
20,1,$1+$1,$6,$7,$8,$9,0*
20,1,$1+$1,$8,$9,$2,$3,0*%
G04 Aperture macros list end*
%ADD10RoundRect,0.135000X-0.185000X0.135000X-0.185000X-0.135000X0.185000X-0.135000X0.185000X0.135000X0*%
%ADD11RoundRect,0.140000X0.140000X0.170000X-0.140000X0.170000X-0.140000X-0.170000X0.140000X-0.170000X0*%
%ADD12RoundRect,0.135000X0.185000X-0.135000X0.185000X0.135000X-0.185000X0.135000X-0.185000X-0.135000X0*%
%ADD13R,0.254000X0.675000*%
%ADD14R,0.675000X0.254000*%
G04 APERTURE END LIST*
D10*
%TO.C,R4*%
X131379924Y-56390678D03*
X131379924Y-57410678D03*
%TD*%
D11*
%TO.C,C1*%
X126822887Y-49506451D03*
X125862887Y-49506451D03*
%TD*%
%TO.C,C1*%
X126822887Y-36206451D03*
X125862887Y-36206451D03*
%TD*%
D10*
%TO.C,R1*%
X150925001Y-36169619D03*
X150925001Y-37189619D03*
%TD*%
D12*
%TO.C,R2*%
X169950850Y-90414177D03*
X169950850Y-89394177D03*
%TD*%
%TO.C,R5*%
X155415173Y-30787101D03*
X155415173Y-29767101D03*
%TD*%
D13*
%TO.C,U1*%
X156150000Y-71725000D03*
D14*
X156012500Y-72637500D03*
X156012500Y-73137500D03*
X156012500Y-73637500D03*
X156012500Y-74137500D03*
D13*
X156150000Y-75050000D03*
X156650000Y-75050000D03*
X157150000Y-75050000D03*
X157650000Y-75050000D03*
X158150000Y-75050000D03*
X158650000Y-75050000D03*
X159150000Y-75050000D03*
X159650000Y-75050000D03*
X160150000Y-75050000D03*
X160650000Y-75050000D03*
D14*
X160787500Y-74137500D03*
X160787500Y-73637500D03*
X160787500Y-73137500D03*
X160787500Y-72637500D03*
D13*
X160650000Y-71725000D03*
X160150000Y-71725000D03*
X159650000Y-71725000D03*
X159150000Y-71725000D03*
X158650000Y-71725000D03*
X158150000Y-71725000D03*
X157650000Y-71725000D03*
X157150000Y-71725000D03*
X156650000Y-71725000D03*
%TD*%
D11*
%TO.C,C1*%
X136822887Y-76106451D03*
X135862887Y-76106451D03*
%TD*%
D10*
%TO.C,R1*%
X170925001Y-76069619D03*
X170925001Y-77089619D03*
%TD*%
D12*
%TO.C,R5*%
X145415173Y-83987101D03*
X145415173Y-82967101D03*
%TD*%
D10*
%TO.C,R4*%
X131379924Y-29790678D03*
X131379924Y-30810678D03*
%TD*%
D13*
%TO.C,U1*%
X136150000Y-45125000D03*
D14*
X136012500Y-46037500D03*
X136012500Y-46537500D03*
X136012500Y-47037500D03*
X136012500Y-47537500D03*
D13*
X136150000Y-48450000D03*
X136650000Y-48450000D03*
X137150000Y-48450000D03*
X137650000Y-48450000D03*
X138150000Y-48450000D03*
X138650000Y-48450000D03*
X139150000Y-48450000D03*
X139650000Y-48450000D03*
X140150000Y-48450000D03*
X140650000Y-48450000D03*
D14*
X140787500Y-47537500D03*
X140787500Y-47037500D03*
X140787500Y-46537500D03*
X140787500Y-46037500D03*
D13*
X140650000Y-45125000D03*
X140150000Y-45125000D03*
X139650000Y-45125000D03*
X139150000Y-45125000D03*
X138650000Y-45125000D03*
X138150000Y-45125000D03*
X137650000Y-45125000D03*
X137150000Y-45125000D03*
X136650000Y-45125000D03*
%TD*%
D11*
%TO.C,C1*%
X166822887Y-36206451D03*
X165862887Y-36206451D03*
%TD*%
%TO.C,C1*%
X136822887Y-89406451D03*
X135862887Y-89406451D03*
%TD*%
D13*
%TO.C,U1*%
X136150000Y-31825000D03*
D14*
X136012500Y-32737500D03*
X136012500Y-33237500D03*
X136012500Y-33737500D03*
X136012500Y-34237500D03*
D13*
X136150000Y-35150000D03*
X136650000Y-35150000D03*
X137150000Y-35150000D03*
X137650000Y-35150000D03*
X138150000Y-35150000D03*
X138650000Y-35150000D03*
X139150000Y-35150000D03*
X139650000Y-35150000D03*
X140150000Y-35150000D03*
X140650000Y-35150000D03*
D14*
X140787500Y-34237500D03*
X140787500Y-33737500D03*
X140787500Y-33237500D03*
X140787500Y-32737500D03*
D13*
X140650000Y-31825000D03*
X140150000Y-31825000D03*
X139650000Y-31825000D03*
X139150000Y-31825000D03*
X138650000Y-31825000D03*
X138150000Y-31825000D03*
X137650000Y-31825000D03*
X137150000Y-31825000D03*
X136650000Y-31825000D03*
%TD*%
D10*
%TO.C,R1*%
X170925001Y-49469619D03*
X170925001Y-50489619D03*
%TD*%
D12*
%TO.C,R3*%
X158984885Y-77105991D03*
X158984885Y-76085991D03*
%TD*%
%TO.C,R5*%
X125415173Y-70687101D03*
X125415173Y-69667101D03*
%TD*%
D11*
%TO.C,C1*%
X166822887Y-76106451D03*
X165862887Y-76106451D03*
%TD*%
D13*
%TO.C,U1*%
X146150000Y-31825000D03*
D14*
X146012500Y-32737500D03*
X146012500Y-33237500D03*
X146012500Y-33737500D03*
X146012500Y-34237500D03*
D13*
X146150000Y-35150000D03*
X146650000Y-35150000D03*
X147150000Y-35150000D03*
X147650000Y-35150000D03*
X148150000Y-35150000D03*
X148650000Y-35150000D03*
X149150000Y-35150000D03*
X149650000Y-35150000D03*
X150150000Y-35150000D03*
X150650000Y-35150000D03*
D14*
X150787500Y-34237500D03*
X150787500Y-33737500D03*
X150787500Y-33237500D03*
X150787500Y-32737500D03*
D13*
X150650000Y-31825000D03*
X150150000Y-31825000D03*
X149650000Y-31825000D03*
X149150000Y-31825000D03*
X148650000Y-31825000D03*
X148150000Y-31825000D03*
X147650000Y-31825000D03*
X147150000Y-31825000D03*
X146650000Y-31825000D03*
%TD*%
D10*
%TO.C,R1*%
X130925001Y-36169619D03*
X130925001Y-37189619D03*
%TD*%
D12*
%TO.C,R2*%
X129950850Y-50514177D03*
X129950850Y-49494177D03*
%TD*%
%TO.C,R5*%
X145415173Y-57387101D03*
X145415173Y-56367101D03*
%TD*%
D10*
%TO.C,R1*%
X150925001Y-62769619D03*
X150925001Y-63789619D03*
%TD*%
D11*
%TO.C,C1*%
X146822887Y-36206451D03*
X145862887Y-36206451D03*
%TD*%
D12*
%TO.C,R2*%
X169950850Y-50514177D03*
X169950850Y-49494177D03*
%TD*%
D13*
%TO.C,U1*%
X126150000Y-71725000D03*
D14*
X126012500Y-72637500D03*
X126012500Y-73137500D03*
X126012500Y-73637500D03*
X126012500Y-74137500D03*
D13*
X126150000Y-75050000D03*
X126650000Y-75050000D03*
X127150000Y-75050000D03*
X127650000Y-75050000D03*
X128150000Y-75050000D03*
X128650000Y-75050000D03*
X129150000Y-75050000D03*
X129650000Y-75050000D03*
X130150000Y-75050000D03*
X130650000Y-75050000D03*
D14*
X130787500Y-74137500D03*
X130787500Y-73637500D03*
X130787500Y-73137500D03*
X130787500Y-72637500D03*
D13*
X130650000Y-71725000D03*
X130150000Y-71725000D03*
X129650000Y-71725000D03*
X129150000Y-71725000D03*
X128650000Y-71725000D03*
X128150000Y-71725000D03*
X127650000Y-71725000D03*
X127150000Y-71725000D03*
X126650000Y-71725000D03*
%TD*%
D12*
%TO.C,R2*%
X169950850Y-63814177D03*
X169950850Y-62794177D03*
%TD*%
D11*
%TO.C,C1*%
X146822887Y-49506451D03*
X145862887Y-49506451D03*
%TD*%
D10*
%TO.C,R4*%
X131379924Y-82990678D03*
X131379924Y-84010678D03*
%TD*%
D12*
%TO.C,R3*%
X148984885Y-50505991D03*
X148984885Y-49485991D03*
%TD*%
D10*
%TO.C,R1*%
X150925001Y-49469619D03*
X150925001Y-50489619D03*
%TD*%
D12*
%TO.C,R3*%
X168984885Y-63805991D03*
X168984885Y-62785991D03*
%TD*%
%TO.C,R3*%
X158984885Y-50505991D03*
X158984885Y-49485991D03*
%TD*%
D10*
%TO.C,R1*%
X150925001Y-89369619D03*
X150925001Y-90389619D03*
%TD*%
D12*
%TO.C,R2*%
X139950850Y-90414177D03*
X139950850Y-89394177D03*
%TD*%
D13*
%TO.C,U1*%
X146150000Y-85025000D03*
D14*
X146012500Y-85937500D03*
X146012500Y-86437500D03*
X146012500Y-86937500D03*
X146012500Y-87437500D03*
D13*
X146150000Y-88350000D03*
X146650000Y-88350000D03*
X147150000Y-88350000D03*
X147650000Y-88350000D03*
X148150000Y-88350000D03*
X148650000Y-88350000D03*
X149150000Y-88350000D03*
X149650000Y-88350000D03*
X150150000Y-88350000D03*
X150650000Y-88350000D03*
D14*
X150787500Y-87437500D03*
X150787500Y-86937500D03*
X150787500Y-86437500D03*
X150787500Y-85937500D03*
D13*
X150650000Y-85025000D03*
X150150000Y-85025000D03*
X149650000Y-85025000D03*
X149150000Y-85025000D03*
X148650000Y-85025000D03*
X148150000Y-85025000D03*
X147650000Y-85025000D03*
X147150000Y-85025000D03*
X146650000Y-85025000D03*
%TD*%
D10*
%TO.C,R4*%
X151379924Y-82990678D03*
X151379924Y-84010678D03*
%TD*%
D12*
%TO.C,R2*%
X139950850Y-50514177D03*
X139950850Y-49494177D03*
%TD*%
D10*
%TO.C,R1*%
X130925001Y-89369619D03*
X130925001Y-90389619D03*
%TD*%
D12*
%TO.C,R5*%
X145415173Y-70687101D03*
X145415173Y-69667101D03*
%TD*%
D10*
%TO.C,R4*%
X161379924Y-56390678D03*
X161379924Y-57410678D03*
%TD*%
D12*
%TO.C,R3*%
X168984885Y-50505991D03*
X168984885Y-49485991D03*
%TD*%
D11*
%TO.C,C1*%
X166822887Y-49506451D03*
X165862887Y-49506451D03*
%TD*%
D10*
%TO.C,R4*%
X141379924Y-69690678D03*
X141379924Y-70710678D03*
%TD*%
D12*
%TO.C,R3*%
X128984885Y-50505991D03*
X128984885Y-49485991D03*
%TD*%
%TO.C,R5*%
X155415173Y-44087101D03*
X155415173Y-43067101D03*
%TD*%
%TO.C,R2*%
X169950850Y-77114177D03*
X169950850Y-76094177D03*
%TD*%
%TO.C,R3*%
X138984885Y-63805991D03*
X138984885Y-62785991D03*
%TD*%
%TO.C,R3*%
X138984885Y-90405991D03*
X138984885Y-89385991D03*
%TD*%
%TO.C,R5*%
X135415173Y-57387101D03*
X135415173Y-56367101D03*
%TD*%
%TO.C,R5*%
X135415173Y-83987101D03*
X135415173Y-82967101D03*
%TD*%
D10*
%TO.C,R1*%
X170925001Y-89369619D03*
X170925001Y-90389619D03*
%TD*%
D12*
%TO.C,R2*%
X169950850Y-37214177D03*
X169950850Y-36194177D03*
%TD*%
D10*
%TO.C,R4*%
X151379924Y-56390678D03*
X151379924Y-57410678D03*
%TD*%
D13*
%TO.C,U1*%
X156150000Y-85025000D03*
D14*
X156012500Y-85937500D03*
X156012500Y-86437500D03*
X156012500Y-86937500D03*
X156012500Y-87437500D03*
D13*
X156150000Y-88350000D03*
X156650000Y-88350000D03*
X157150000Y-88350000D03*
X157650000Y-88350000D03*
X158150000Y-88350000D03*
X158650000Y-88350000D03*
X159150000Y-88350000D03*
X159650000Y-88350000D03*
X160150000Y-88350000D03*
X160650000Y-88350000D03*
D14*
X160787500Y-87437500D03*
X160787500Y-86937500D03*
X160787500Y-86437500D03*
X160787500Y-85937500D03*
D13*
X160650000Y-85025000D03*
X160150000Y-85025000D03*
X159650000Y-85025000D03*
X159150000Y-85025000D03*
X158650000Y-85025000D03*
X158150000Y-85025000D03*
X157650000Y-85025000D03*
X157150000Y-85025000D03*
X156650000Y-85025000D03*
%TD*%
D12*
%TO.C,R2*%
X159950850Y-90414177D03*
X159950850Y-89394177D03*
%TD*%
D10*
%TO.C,R1*%
X160925001Y-36169619D03*
X160925001Y-37189619D03*
%TD*%
D12*
%TO.C,R5*%
X165415173Y-57387101D03*
X165415173Y-56367101D03*
%TD*%
D10*
%TO.C,R4*%
X151379924Y-69690678D03*
X151379924Y-70710678D03*
%TD*%
D13*
%TO.C,U1*%
X146150000Y-58425000D03*
D14*
X146012500Y-59337500D03*
X146012500Y-59837500D03*
X146012500Y-60337500D03*
X146012500Y-60837500D03*
D13*
X146150000Y-61750000D03*
X146650000Y-61750000D03*
X147150000Y-61750000D03*
X147650000Y-61750000D03*
X148150000Y-61750000D03*
X148650000Y-61750000D03*
X149150000Y-61750000D03*
X149650000Y-61750000D03*
X150150000Y-61750000D03*
X150650000Y-61750000D03*
D14*
X150787500Y-60837500D03*
X150787500Y-60337500D03*
X150787500Y-59837500D03*
X150787500Y-59337500D03*
D13*
X150650000Y-58425000D03*
X150150000Y-58425000D03*
X149650000Y-58425000D03*
X149150000Y-58425000D03*
X148650000Y-58425000D03*
X148150000Y-58425000D03*
X147650000Y-58425000D03*
X147150000Y-58425000D03*
X146650000Y-58425000D03*
%TD*%
D11*
%TO.C,C1*%
X126822887Y-62806451D03*
X125862887Y-62806451D03*
%TD*%
D10*
%TO.C,R1*%
X160925001Y-49469619D03*
X160925001Y-50489619D03*
%TD*%
D11*
%TO.C,C1*%
X166822887Y-89406451D03*
X165862887Y-89406451D03*
%TD*%
D10*
%TO.C,R1*%
X130925001Y-49469619D03*
X130925001Y-50489619D03*
%TD*%
%TO.C,R4*%
X171379924Y-29790678D03*
X171379924Y-30810678D03*
%TD*%
D12*
%TO.C,R2*%
X129950850Y-77114177D03*
X129950850Y-76094177D03*
%TD*%
%TO.C,R5*%
X155415173Y-70687101D03*
X155415173Y-69667101D03*
%TD*%
%TO.C,R3*%
X148984885Y-77105991D03*
X148984885Y-76085991D03*
%TD*%
%TO.C,R5*%
X125415173Y-44087101D03*
X125415173Y-43067101D03*
%TD*%
D13*
%TO.C,U1*%
X136150000Y-58425000D03*
D14*
X136012500Y-59337500D03*
X136012500Y-59837500D03*
X136012500Y-60337500D03*
X136012500Y-60837500D03*
D13*
X136150000Y-61750000D03*
X136650000Y-61750000D03*
X137150000Y-61750000D03*
X137650000Y-61750000D03*
X138150000Y-61750000D03*
X138650000Y-61750000D03*
X139150000Y-61750000D03*
X139650000Y-61750000D03*
X140150000Y-61750000D03*
X140650000Y-61750000D03*
D14*
X140787500Y-60837500D03*
X140787500Y-60337500D03*
X140787500Y-59837500D03*
X140787500Y-59337500D03*
D13*
X140650000Y-58425000D03*
X140150000Y-58425000D03*
X139650000Y-58425000D03*
X139150000Y-58425000D03*
X138650000Y-58425000D03*
X138150000Y-58425000D03*
X137650000Y-58425000D03*
X137150000Y-58425000D03*
X136650000Y-58425000D03*
%TD*%
D10*
%TO.C,R4*%
X151379924Y-29790678D03*
X151379924Y-30810678D03*
%TD*%
%TO.C,R4*%
X171379924Y-43090678D03*
X171379924Y-44110678D03*
%TD*%
%TO.C,R4*%
X171379924Y-56390678D03*
X171379924Y-57410678D03*
%TD*%
D12*
%TO.C,R3*%
X168984885Y-90405991D03*
X168984885Y-89385991D03*
%TD*%
D10*
%TO.C,R4*%
X131379924Y-69690678D03*
X131379924Y-70710678D03*
%TD*%
%TO.C,R4*%
X161379924Y-43090678D03*
X161379924Y-44110678D03*
%TD*%
%TO.C,R4*%
X161379924Y-69690678D03*
X161379924Y-70710678D03*
%TD*%
%TO.C,R1*%
X130925001Y-62769619D03*
X130925001Y-63789619D03*
%TD*%
D13*
%TO.C,U1*%
X136150000Y-71725000D03*
D14*
X136012500Y-72637500D03*
X136012500Y-73137500D03*
X136012500Y-73637500D03*
X136012500Y-74137500D03*
D13*
X136150000Y-75050000D03*
X136650000Y-75050000D03*
X137150000Y-75050000D03*
X137650000Y-75050000D03*
X138150000Y-75050000D03*
X138650000Y-75050000D03*
X139150000Y-75050000D03*
X139650000Y-75050000D03*
X140150000Y-75050000D03*
X140650000Y-75050000D03*
D14*
X140787500Y-74137500D03*
X140787500Y-73637500D03*
X140787500Y-73137500D03*
X140787500Y-72637500D03*
D13*
X140650000Y-71725000D03*
X140150000Y-71725000D03*
X139650000Y-71725000D03*
X139150000Y-71725000D03*
X138650000Y-71725000D03*
X138150000Y-71725000D03*
X137650000Y-71725000D03*
X137150000Y-71725000D03*
X136650000Y-71725000D03*
%TD*%
D12*
%TO.C,R5*%
X155415173Y-83987101D03*
X155415173Y-82967101D03*
%TD*%
D10*
%TO.C,R1*%
X140925001Y-89369619D03*
X140925001Y-90389619D03*
%TD*%
D12*
%TO.C,R5*%
X135415173Y-30787101D03*
X135415173Y-29767101D03*
%TD*%
D11*
%TO.C,C1*%
X146822887Y-89406451D03*
X145862887Y-89406451D03*
%TD*%
D12*
%TO.C,R2*%
X149950850Y-63814177D03*
X149950850Y-62794177D03*
%TD*%
D10*
%TO.C,R4*%
X161379924Y-82990678D03*
X161379924Y-84010678D03*
%TD*%
D13*
%TO.C,U1*%
X166150000Y-85025000D03*
D14*
X166012500Y-85937500D03*
X166012500Y-86437500D03*
X166012500Y-86937500D03*
X166012500Y-87437500D03*
D13*
X166150000Y-88350000D03*
X166650000Y-88350000D03*
X167150000Y-88350000D03*
X167650000Y-88350000D03*
X168150000Y-88350000D03*
X168650000Y-88350000D03*
X169150000Y-88350000D03*
X169650000Y-88350000D03*
X170150000Y-88350000D03*
X170650000Y-88350000D03*
D14*
X170787500Y-87437500D03*
X170787500Y-86937500D03*
X170787500Y-86437500D03*
X170787500Y-85937500D03*
D13*
X170650000Y-85025000D03*
X170150000Y-85025000D03*
X169650000Y-85025000D03*
X169150000Y-85025000D03*
X168650000Y-85025000D03*
X168150000Y-85025000D03*
X167650000Y-85025000D03*
X167150000Y-85025000D03*
X166650000Y-85025000D03*
%TD*%
D12*
%TO.C,R2*%
X159950850Y-77114177D03*
X159950850Y-76094177D03*
%TD*%
D13*
%TO.C,U1*%
X156150000Y-45125000D03*
D14*
X156012500Y-46037500D03*
X156012500Y-46537500D03*
X156012500Y-47037500D03*
X156012500Y-47537500D03*
D13*
X156150000Y-48450000D03*
X156650000Y-48450000D03*
X157150000Y-48450000D03*
X157650000Y-48450000D03*
X158150000Y-48450000D03*
X158650000Y-48450000D03*
X159150000Y-48450000D03*
X159650000Y-48450000D03*
X160150000Y-48450000D03*
X160650000Y-48450000D03*
D14*
X160787500Y-47537500D03*
X160787500Y-47037500D03*
X160787500Y-46537500D03*
X160787500Y-46037500D03*
D13*
X160650000Y-45125000D03*
X160150000Y-45125000D03*
X159650000Y-45125000D03*
X159150000Y-45125000D03*
X158650000Y-45125000D03*
X158150000Y-45125000D03*
X157650000Y-45125000D03*
X157150000Y-45125000D03*
X156650000Y-45125000D03*
%TD*%
D12*
%TO.C,R2*%
X159950850Y-37214177D03*
X159950850Y-36194177D03*
%TD*%
D13*
%TO.C,U1*%
X126150000Y-85025000D03*
D14*
X126012500Y-85937500D03*
X126012500Y-86437500D03*
X126012500Y-86937500D03*
X126012500Y-87437500D03*
D13*
X126150000Y-88350000D03*
X126650000Y-88350000D03*
X127150000Y-88350000D03*
X127650000Y-88350000D03*
X128150000Y-88350000D03*
X128650000Y-88350000D03*
X129150000Y-88350000D03*
X129650000Y-88350000D03*
X130150000Y-88350000D03*
X130650000Y-88350000D03*
D14*
X130787500Y-87437500D03*
X130787500Y-86937500D03*
X130787500Y-86437500D03*
X130787500Y-85937500D03*
D13*
X130650000Y-85025000D03*
X130150000Y-85025000D03*
X129650000Y-85025000D03*
X129150000Y-85025000D03*
X128650000Y-85025000D03*
X128150000Y-85025000D03*
X127650000Y-85025000D03*
X127150000Y-85025000D03*
X126650000Y-85025000D03*
%TD*%
D12*
%TO.C,R2*%
X149950850Y-90414177D03*
X149950850Y-89394177D03*
%TD*%
%TO.C,R5*%
X165415173Y-44087101D03*
X165415173Y-43067101D03*
%TD*%
D13*
%TO.C,U1*%
X166150000Y-31825000D03*
D14*
X166012500Y-32737500D03*
X166012500Y-33237500D03*
X166012500Y-33737500D03*
X166012500Y-34237500D03*
D13*
X166150000Y-35150000D03*
X166650000Y-35150000D03*
X167150000Y-35150000D03*
X167650000Y-35150000D03*
X168150000Y-35150000D03*
X168650000Y-35150000D03*
X169150000Y-35150000D03*
X169650000Y-35150000D03*
X170150000Y-35150000D03*
X170650000Y-35150000D03*
D14*
X170787500Y-34237500D03*
X170787500Y-33737500D03*
X170787500Y-33237500D03*
X170787500Y-32737500D03*
D13*
X170650000Y-31825000D03*
X170150000Y-31825000D03*
X169650000Y-31825000D03*
X169150000Y-31825000D03*
X168650000Y-31825000D03*
X168150000Y-31825000D03*
X167650000Y-31825000D03*
X167150000Y-31825000D03*
X166650000Y-31825000D03*
%TD*%
D12*
%TO.C,R2*%
X149950850Y-37214177D03*
X149950850Y-36194177D03*
%TD*%
%TO.C,R5*%
X145415173Y-44087101D03*
X145415173Y-43067101D03*
%TD*%
D11*
%TO.C,C1*%
X156822887Y-62806451D03*
X155862887Y-62806451D03*
%TD*%
D12*
%TO.C,R3*%
X148984885Y-37205991D03*
X148984885Y-36185991D03*
%TD*%
%TO.C,R3*%
X128984885Y-37205991D03*
X128984885Y-36185991D03*
%TD*%
%TO.C,R5*%
X135415173Y-44087101D03*
X135415173Y-43067101D03*
%TD*%
D13*
%TO.C,U1*%
X166150000Y-71725000D03*
D14*
X166012500Y-72637500D03*
X166012500Y-73137500D03*
X166012500Y-73637500D03*
X166012500Y-74137500D03*
D13*
X166150000Y-75050000D03*
X166650000Y-75050000D03*
X167150000Y-75050000D03*
X167650000Y-75050000D03*
X168150000Y-75050000D03*
X168650000Y-75050000D03*
X169150000Y-75050000D03*
X169650000Y-75050000D03*
X170150000Y-75050000D03*
X170650000Y-75050000D03*
D14*
X170787500Y-74137500D03*
X170787500Y-73637500D03*
X170787500Y-73137500D03*
X170787500Y-72637500D03*
D13*
X170650000Y-71725000D03*
X170150000Y-71725000D03*
X169650000Y-71725000D03*
X169150000Y-71725000D03*
X168650000Y-71725000D03*
X168150000Y-71725000D03*
X167650000Y-71725000D03*
X167150000Y-71725000D03*
X166650000Y-71725000D03*
%TD*%
D10*
%TO.C,R1*%
X170925001Y-62769619D03*
X170925001Y-63789619D03*
%TD*%
D11*
%TO.C,C1*%
X136822887Y-36206451D03*
X135862887Y-36206451D03*
%TD*%
D10*
%TO.C,R1*%
X160925001Y-76069619D03*
X160925001Y-77089619D03*
%TD*%
D12*
%TO.C,R2*%
X139950850Y-37214177D03*
X139950850Y-36194177D03*
%TD*%
D13*
%TO.C,U1*%
X136150000Y-85025000D03*
D14*
X136012500Y-85937500D03*
X136012500Y-86437500D03*
X136012500Y-86937500D03*
X136012500Y-87437500D03*
D13*
X136150000Y-88350000D03*
X136650000Y-88350000D03*
X137150000Y-88350000D03*
X137650000Y-88350000D03*
X138150000Y-88350000D03*
X138650000Y-88350000D03*
X139150000Y-88350000D03*
X139650000Y-88350000D03*
X140150000Y-88350000D03*
X140650000Y-88350000D03*
D14*
X140787500Y-87437500D03*
X140787500Y-86937500D03*
X140787500Y-86437500D03*
X140787500Y-85937500D03*
D13*
X140650000Y-85025000D03*
X140150000Y-85025000D03*
X139650000Y-85025000D03*
X139150000Y-85025000D03*
X138650000Y-85025000D03*
X138150000Y-85025000D03*
X137650000Y-85025000D03*
X137150000Y-85025000D03*
X136650000Y-85025000D03*
%TD*%
D10*
%TO.C,R1*%
X140925001Y-49469619D03*
X140925001Y-50489619D03*
%TD*%
D12*
%TO.C,R2*%
X149950850Y-50514177D03*
X149950850Y-49494177D03*
%TD*%
D11*
%TO.C,C1*%
X156822887Y-36206451D03*
X155862887Y-36206451D03*
%TD*%
D12*
%TO.C,R2*%
X159950850Y-50514177D03*
X159950850Y-49494177D03*
%TD*%
%TO.C,R3*%
X168984885Y-77105991D03*
X168984885Y-76085991D03*
%TD*%
D13*
%TO.C,U1*%
X156150000Y-31825000D03*
D14*
X156012500Y-32737500D03*
X156012500Y-33237500D03*
X156012500Y-33737500D03*
X156012500Y-34237500D03*
D13*
X156150000Y-35150000D03*
X156650000Y-35150000D03*
X157150000Y-35150000D03*
X157650000Y-35150000D03*
X158150000Y-35150000D03*
X158650000Y-35150000D03*
X159150000Y-35150000D03*
X159650000Y-35150000D03*
X160150000Y-35150000D03*
X160650000Y-35150000D03*
D14*
X160787500Y-34237500D03*
X160787500Y-33737500D03*
X160787500Y-33237500D03*
X160787500Y-32737500D03*
D13*
X160650000Y-31825000D03*
X160150000Y-31825000D03*
X159650000Y-31825000D03*
X159150000Y-31825000D03*
X158650000Y-31825000D03*
X158150000Y-31825000D03*
X157650000Y-31825000D03*
X157150000Y-31825000D03*
X156650000Y-31825000D03*
%TD*%
D10*
%TO.C,R4*%
X161379924Y-29790678D03*
X161379924Y-30810678D03*
%TD*%
D12*
%TO.C,R2*%
X159950850Y-63814177D03*
X159950850Y-62794177D03*
%TD*%
D10*
%TO.C,R1*%
X160925001Y-62769619D03*
X160925001Y-63789619D03*
%TD*%
%TO.C,R1*%
X140925001Y-62769619D03*
X140925001Y-63789619D03*
%TD*%
D12*
%TO.C,R2*%
X149950850Y-77114177D03*
X149950850Y-76094177D03*
%TD*%
D11*
%TO.C,C1*%
X126822887Y-89406451D03*
X125862887Y-89406451D03*
%TD*%
D12*
%TO.C,R2*%
X129950850Y-37214177D03*
X129950850Y-36194177D03*
%TD*%
D10*
%TO.C,R1*%
X160925001Y-89369619D03*
X160925001Y-90389619D03*
%TD*%
%TO.C,R1*%
X130925001Y-76069619D03*
X130925001Y-77089619D03*
%TD*%
%TO.C,R1*%
X140925001Y-36169619D03*
X140925001Y-37189619D03*
%TD*%
%TO.C,R4*%
X141379924Y-56390678D03*
X141379924Y-57410678D03*
%TD*%
D12*
%TO.C,R5*%
X155415173Y-57387101D03*
X155415173Y-56367101D03*
%TD*%
%TO.C,R3*%
X128984885Y-90405991D03*
X128984885Y-89385991D03*
%TD*%
%TO.C,R2*%
X139950850Y-63814177D03*
X139950850Y-62794177D03*
%TD*%
D13*
%TO.C,U1*%
X126150000Y-31825000D03*
D14*
X126012500Y-32737500D03*
X126012500Y-33237500D03*
X126012500Y-33737500D03*
X126012500Y-34237500D03*
D13*
X126150000Y-35150000D03*
X126650000Y-35150000D03*
X127150000Y-35150000D03*
X127650000Y-35150000D03*
X128150000Y-35150000D03*
X128650000Y-35150000D03*
X129150000Y-35150000D03*
X129650000Y-35150000D03*
X130150000Y-35150000D03*
X130650000Y-35150000D03*
D14*
X130787500Y-34237500D03*
X130787500Y-33737500D03*
X130787500Y-33237500D03*
X130787500Y-32737500D03*
D13*
X130650000Y-31825000D03*
X130150000Y-31825000D03*
X129650000Y-31825000D03*
X129150000Y-31825000D03*
X128650000Y-31825000D03*
X128150000Y-31825000D03*
X127650000Y-31825000D03*
X127150000Y-31825000D03*
X126650000Y-31825000D03*
%TD*%
D12*
%TO.C,R5*%
X125415173Y-57387101D03*
X125415173Y-56367101D03*
%TD*%
%TO.C,R2*%
X129950850Y-63814177D03*
X129950850Y-62794177D03*
%TD*%
%TO.C,R3*%
X168984885Y-37205991D03*
X168984885Y-36185991D03*
%TD*%
D10*
%TO.C,R1*%
X140925001Y-76069619D03*
X140925001Y-77089619D03*
%TD*%
D13*
%TO.C,U1*%
X126150000Y-58425000D03*
D14*
X126012500Y-59337500D03*
X126012500Y-59837500D03*
X126012500Y-60337500D03*
X126012500Y-60837500D03*
D13*
X126150000Y-61750000D03*
X126650000Y-61750000D03*
X127150000Y-61750000D03*
X127650000Y-61750000D03*
X128150000Y-61750000D03*
X128650000Y-61750000D03*
X129150000Y-61750000D03*
X129650000Y-61750000D03*
X130150000Y-61750000D03*
X130650000Y-61750000D03*
D14*
X130787500Y-60837500D03*
X130787500Y-60337500D03*
X130787500Y-59837500D03*
X130787500Y-59337500D03*
D13*
X130650000Y-58425000D03*
X130150000Y-58425000D03*
X129650000Y-58425000D03*
X129150000Y-58425000D03*
X128650000Y-58425000D03*
X128150000Y-58425000D03*
X127650000Y-58425000D03*
X127150000Y-58425000D03*
X126650000Y-58425000D03*
%TD*%
D11*
%TO.C,C1*%
X136822887Y-49506451D03*
X135862887Y-49506451D03*
%TD*%
D12*
%TO.C,R3*%
X138984885Y-50505991D03*
X138984885Y-49485991D03*
%TD*%
D10*
%TO.C,R4*%
X141379924Y-43090678D03*
X141379924Y-44110678D03*
%TD*%
D11*
%TO.C,C1*%
X156822887Y-76106451D03*
X155862887Y-76106451D03*
%TD*%
%TO.C,C1*%
X126822887Y-76106451D03*
X125862887Y-76106451D03*
%TD*%
D12*
%TO.C,R5*%
X165415173Y-83987101D03*
X165415173Y-82967101D03*
%TD*%
D13*
%TO.C,U1*%
X166150000Y-45125000D03*
D14*
X166012500Y-46037500D03*
X166012500Y-46537500D03*
X166012500Y-47037500D03*
X166012500Y-47537500D03*
D13*
X166150000Y-48450000D03*
X166650000Y-48450000D03*
X167150000Y-48450000D03*
X167650000Y-48450000D03*
X168150000Y-48450000D03*
X168650000Y-48450000D03*
X169150000Y-48450000D03*
X169650000Y-48450000D03*
X170150000Y-48450000D03*
X170650000Y-48450000D03*
D14*
X170787500Y-47537500D03*
X170787500Y-47037500D03*
X170787500Y-46537500D03*
X170787500Y-46037500D03*
D13*
X170650000Y-45125000D03*
X170150000Y-45125000D03*
X169650000Y-45125000D03*
X169150000Y-45125000D03*
X168650000Y-45125000D03*
X168150000Y-45125000D03*
X167650000Y-45125000D03*
X167150000Y-45125000D03*
X166650000Y-45125000D03*
%TD*%
D12*
%TO.C,R3*%
X138984885Y-77105991D03*
X138984885Y-76085991D03*
%TD*%
D13*
%TO.C,U1*%
X146150000Y-71725000D03*
D14*
X146012500Y-72637500D03*
X146012500Y-73137500D03*
X146012500Y-73637500D03*
X146012500Y-74137500D03*
D13*
X146150000Y-75050000D03*
X146650000Y-75050000D03*
X147150000Y-75050000D03*
X147650000Y-75050000D03*
X148150000Y-75050000D03*
X148650000Y-75050000D03*
X149150000Y-75050000D03*
X149650000Y-75050000D03*
X150150000Y-75050000D03*
X150650000Y-75050000D03*
D14*
X150787500Y-74137500D03*
X150787500Y-73637500D03*
X150787500Y-73137500D03*
X150787500Y-72637500D03*
D13*
X150650000Y-71725000D03*
X150150000Y-71725000D03*
X149650000Y-71725000D03*
X149150000Y-71725000D03*
X148650000Y-71725000D03*
X148150000Y-71725000D03*
X147650000Y-71725000D03*
X147150000Y-71725000D03*
X146650000Y-71725000D03*
%TD*%
D12*
%TO.C,R3*%
X158984885Y-37205991D03*
X158984885Y-36185991D03*
%TD*%
%TO.C,R3*%
X148984885Y-63805991D03*
X148984885Y-62785991D03*
%TD*%
%TO.C,R3*%
X128984885Y-77105991D03*
X128984885Y-76085991D03*
%TD*%
D10*
%TO.C,R1*%
X170925001Y-36169619D03*
X170925001Y-37189619D03*
%TD*%
%TO.C,R4*%
X171379924Y-69690678D03*
X171379924Y-70710678D03*
%TD*%
D12*
%TO.C,R3*%
X138984885Y-37205991D03*
X138984885Y-36185991D03*
%TD*%
%TO.C,R5*%
X125415173Y-30787101D03*
X125415173Y-29767101D03*
%TD*%
D10*
%TO.C,R4*%
X141379924Y-82990678D03*
X141379924Y-84010678D03*
%TD*%
D12*
%TO.C,R5*%
X165415173Y-70687101D03*
X165415173Y-69667101D03*
%TD*%
D13*
%TO.C,U1*%
X126150000Y-45125000D03*
D14*
X126012500Y-46037500D03*
X126012500Y-46537500D03*
X126012500Y-47037500D03*
X126012500Y-47537500D03*
D13*
X126150000Y-48450000D03*
X126650000Y-48450000D03*
X127150000Y-48450000D03*
X127650000Y-48450000D03*
X128150000Y-48450000D03*
X128650000Y-48450000D03*
X129150000Y-48450000D03*
X129650000Y-48450000D03*
X130150000Y-48450000D03*
X130650000Y-48450000D03*
D14*
X130787500Y-47537500D03*
X130787500Y-47037500D03*
X130787500Y-46537500D03*
X130787500Y-46037500D03*
D13*
X130650000Y-45125000D03*
X130150000Y-45125000D03*
X129650000Y-45125000D03*
X129150000Y-45125000D03*
X128650000Y-45125000D03*
X128150000Y-45125000D03*
X127650000Y-45125000D03*
X127150000Y-45125000D03*
X126650000Y-45125000D03*
%TD*%
%TO.C,U1*%
X166150000Y-58425000D03*
D14*
X166012500Y-59337500D03*
X166012500Y-59837500D03*
X166012500Y-60337500D03*
X166012500Y-60837500D03*
D13*
X166150000Y-61750000D03*
X166650000Y-61750000D03*
X167150000Y-61750000D03*
X167650000Y-61750000D03*
X168150000Y-61750000D03*
X168650000Y-61750000D03*
X169150000Y-61750000D03*
X169650000Y-61750000D03*
X170150000Y-61750000D03*
X170650000Y-61750000D03*
D14*
X170787500Y-60837500D03*
X170787500Y-60337500D03*
X170787500Y-59837500D03*
X170787500Y-59337500D03*
D13*
X170650000Y-58425000D03*
X170150000Y-58425000D03*
X169650000Y-58425000D03*
X169150000Y-58425000D03*
X168650000Y-58425000D03*
X168150000Y-58425000D03*
X167650000Y-58425000D03*
X167150000Y-58425000D03*
X166650000Y-58425000D03*
%TD*%
D10*
%TO.C,R4*%
X151379924Y-43090678D03*
X151379924Y-44110678D03*
%TD*%
%TO.C,R4*%
X141379924Y-29790678D03*
X141379924Y-30810678D03*
%TD*%
D11*
%TO.C,C1*%
X166822887Y-62806451D03*
X165862887Y-62806451D03*
%TD*%
D10*
%TO.C,R4*%
X131379924Y-43090678D03*
X131379924Y-44110678D03*
%TD*%
D13*
%TO.C,U1*%
X146150000Y-45125000D03*
D14*
X146012500Y-46037500D03*
X146012500Y-46537500D03*
X146012500Y-47037500D03*
X146012500Y-47537500D03*
D13*
X146150000Y-48450000D03*
X146650000Y-48450000D03*
X147150000Y-48450000D03*
X147650000Y-48450000D03*
X148150000Y-48450000D03*
X148650000Y-48450000D03*
X149150000Y-48450000D03*
X149650000Y-48450000D03*
X150150000Y-48450000D03*
X150650000Y-48450000D03*
D14*
X150787500Y-47537500D03*
X150787500Y-47037500D03*
X150787500Y-46537500D03*
X150787500Y-46037500D03*
D13*
X150650000Y-45125000D03*
X150150000Y-45125000D03*
X149650000Y-45125000D03*
X149150000Y-45125000D03*
X148650000Y-45125000D03*
X148150000Y-45125000D03*
X147650000Y-45125000D03*
X147150000Y-45125000D03*
X146650000Y-45125000D03*
%TD*%
D11*
%TO.C,C1*%
X136822887Y-62806451D03*
X135862887Y-62806451D03*
%TD*%
D12*
%TO.C,R2*%
X129950850Y-90414177D03*
X129950850Y-89394177D03*
%TD*%
D11*
%TO.C,C1*%
X146822887Y-76106451D03*
X145862887Y-76106451D03*
%TD*%
D10*
%TO.C,R1*%
X150925001Y-76069619D03*
X150925001Y-77089619D03*
%TD*%
D12*
%TO.C,R3*%
X128984885Y-63805991D03*
X128984885Y-62785991D03*
%TD*%
D10*
%TO.C,R4*%
X171379924Y-82990678D03*
X171379924Y-84010678D03*
%TD*%
D12*
%TO.C,R3*%
X158984885Y-63805991D03*
X158984885Y-62785991D03*
%TD*%
D11*
%TO.C,C1*%
X156822887Y-49506451D03*
X155862887Y-49506451D03*
%TD*%
%TO.C,C1*%
X156822887Y-89406451D03*
X155862887Y-89406451D03*
%TD*%
D12*
%TO.C,R3*%
X148984885Y-90405991D03*
X148984885Y-89385991D03*
%TD*%
%TO.C,R5*%
X135415173Y-70687101D03*
X135415173Y-69667101D03*
%TD*%
%TO.C,R5*%
X165415173Y-30787101D03*
X165415173Y-29767101D03*
%TD*%
D11*
%TO.C,C1*%
X146822887Y-62806451D03*
X145862887Y-62806451D03*
%TD*%
D13*
%TO.C,U1*%
X156150000Y-58425000D03*
D14*
X156012500Y-59337500D03*
X156012500Y-59837500D03*
X156012500Y-60337500D03*
X156012500Y-60837500D03*
D13*
X156150000Y-61750000D03*
X156650000Y-61750000D03*
X157150000Y-61750000D03*
X157650000Y-61750000D03*
X158150000Y-61750000D03*
X158650000Y-61750000D03*
X159150000Y-61750000D03*
X159650000Y-61750000D03*
X160150000Y-61750000D03*
X160650000Y-61750000D03*
D14*
X160787500Y-60837500D03*
X160787500Y-60337500D03*
X160787500Y-59837500D03*
X160787500Y-59337500D03*
D13*
X160650000Y-58425000D03*
X160150000Y-58425000D03*
X159650000Y-58425000D03*
X159150000Y-58425000D03*
X158650000Y-58425000D03*
X158150000Y-58425000D03*
X157650000Y-58425000D03*
X157150000Y-58425000D03*
X156650000Y-58425000D03*
%TD*%
D12*
%TO.C,R2*%
X139950850Y-77114177D03*
X139950850Y-76094177D03*
%TD*%
%TO.C,R5*%
X125415173Y-83987101D03*
X125415173Y-82967101D03*
%TD*%
%TO.C,R5*%
X145415173Y-30787101D03*
X145415173Y-29767101D03*
%TD*%
%TO.C,R3*%
X158984885Y-90405991D03*
X158984885Y-89385991D03*
%TD*%
M02*
