%TF.GenerationSoftware,KiCad,Pcbnew,7.0.5-1.fc38*%
%TF.CreationDate,2023-07-07T14:21:35-04:00*%
%TF.ProjectId,bno085-i2c-board-v3-square,626e6f30-3835-42d6-9932-632d626f6172,rev?*%
%TF.SameCoordinates,Original*%
%TF.FileFunction,Legend,Top*%
%TF.FilePolarity,Positive*%
%FSLAX46Y46*%
G04 Gerber Fmt 4.6, Leading zero omitted, Abs format (unit mm)*
G04 Created by KiCad (PCBNEW 7.0.5-1.fc38) date 2023-07-07 14:21:35*
%MOMM*%
%LPD*%
G01*
G04 APERTURE LIST*
G04 Aperture macros list*
%AMRoundRect*
0 Rectangle with rounded corners*
0 $1 Rounding radius*
0 $2 $3 $4 $5 $6 $7 $8 $9 X,Y pos of 4 corners*
0 Add a 4 corners polygon primitive as box body*
4,1,4,$2,$3,$4,$5,$6,$7,$8,$9,$2,$3,0*
0 Add four circle primitives for the rounded corners*
1,1,$1+$1,$2,$3*
1,1,$1+$1,$4,$5*
1,1,$1+$1,$6,$7*
1,1,$1+$1,$8,$9*
0 Add four rect primitives between the rounded corners*
20,1,$1+$1,$2,$3,$4,$5,0*
20,1,$1+$1,$4,$5,$6,$7,0*
20,1,$1+$1,$6,$7,$8,$9,0*
20,1,$1+$1,$8,$9,$2,$3,0*%
G04 Aperture macros list end*
%ADD10C,0.100000*%
%ADD11C,0.150000*%
%ADD12C,0.120000*%
%ADD13RoundRect,0.140000X0.140000X0.170000X-0.140000X0.170000X-0.140000X-0.170000X0.140000X-0.170000X0*%
%ADD14RoundRect,0.135000X-0.185000X0.135000X-0.185000X-0.135000X0.185000X-0.135000X0.185000X0.135000X0*%
%ADD15RoundRect,0.135000X0.185000X-0.135000X0.185000X0.135000X-0.185000X0.135000X-0.185000X-0.135000X0*%
%ADD16R,0.254000X0.675000*%
%ADD17R,0.675000X0.254000*%
%ADD18R,0.850000X0.850000*%
%ADD19O,0.850000X0.850000*%
G04 APERTURE END LIST*
D10*
X70411660Y-67525695D02*
X70449755Y-67411409D01*
X70449755Y-67411409D02*
X70449755Y-67220933D01*
X70449755Y-67220933D02*
X70411660Y-67144742D01*
X70411660Y-67144742D02*
X70373564Y-67106647D01*
X70373564Y-67106647D02*
X70297374Y-67068552D01*
X70297374Y-67068552D02*
X70221183Y-67068552D01*
X70221183Y-67068552D02*
X70144993Y-67106647D01*
X70144993Y-67106647D02*
X70106898Y-67144742D01*
X70106898Y-67144742D02*
X70068802Y-67220933D01*
X70068802Y-67220933D02*
X70030707Y-67373314D01*
X70030707Y-67373314D02*
X69992612Y-67449504D01*
X69992612Y-67449504D02*
X69954517Y-67487599D01*
X69954517Y-67487599D02*
X69878326Y-67525695D01*
X69878326Y-67525695D02*
X69802136Y-67525695D01*
X69802136Y-67525695D02*
X69725945Y-67487599D01*
X69725945Y-67487599D02*
X69687850Y-67449504D01*
X69687850Y-67449504D02*
X69649755Y-67373314D01*
X69649755Y-67373314D02*
X69649755Y-67182837D01*
X69649755Y-67182837D02*
X69687850Y-67068552D01*
X70449755Y-66725694D02*
X69649755Y-66725694D01*
X69649755Y-66725694D02*
X69649755Y-66535218D01*
X69649755Y-66535218D02*
X69687850Y-66420932D01*
X69687850Y-66420932D02*
X69764040Y-66344742D01*
X69764040Y-66344742D02*
X69840231Y-66306647D01*
X69840231Y-66306647D02*
X69992612Y-66268551D01*
X69992612Y-66268551D02*
X70106898Y-66268551D01*
X70106898Y-66268551D02*
X70259279Y-66306647D01*
X70259279Y-66306647D02*
X70335469Y-66344742D01*
X70335469Y-66344742D02*
X70411660Y-66420932D01*
X70411660Y-66420932D02*
X70449755Y-66535218D01*
X70449755Y-66535218D02*
X70449755Y-66725694D01*
X70221183Y-65963790D02*
X70221183Y-65582837D01*
X70449755Y-66039980D02*
X69649755Y-65773313D01*
X69649755Y-65773313D02*
X70449755Y-65506647D01*
X66601674Y-67207717D02*
X66563579Y-67283907D01*
X66563579Y-67283907D02*
X66563579Y-67398193D01*
X66563579Y-67398193D02*
X66601674Y-67512479D01*
X66601674Y-67512479D02*
X66677864Y-67588669D01*
X66677864Y-67588669D02*
X66754055Y-67626764D01*
X66754055Y-67626764D02*
X66906436Y-67664860D01*
X66906436Y-67664860D02*
X67020722Y-67664860D01*
X67020722Y-67664860D02*
X67173103Y-67626764D01*
X67173103Y-67626764D02*
X67249293Y-67588669D01*
X67249293Y-67588669D02*
X67325484Y-67512479D01*
X67325484Y-67512479D02*
X67363579Y-67398193D01*
X67363579Y-67398193D02*
X67363579Y-67322002D01*
X67363579Y-67322002D02*
X67325484Y-67207717D01*
X67325484Y-67207717D02*
X67287388Y-67169621D01*
X67287388Y-67169621D02*
X67020722Y-67169621D01*
X67020722Y-67169621D02*
X67020722Y-67322002D01*
X67363579Y-66826764D02*
X66563579Y-66826764D01*
X66563579Y-66826764D02*
X67363579Y-66369621D01*
X67363579Y-66369621D02*
X66563579Y-66369621D01*
X67363579Y-65988669D02*
X66563579Y-65988669D01*
X66563579Y-65988669D02*
X66563579Y-65798193D01*
X66563579Y-65798193D02*
X66601674Y-65683907D01*
X66601674Y-65683907D02*
X66677864Y-65607717D01*
X66677864Y-65607717D02*
X66754055Y-65569622D01*
X66754055Y-65569622D02*
X66906436Y-65531526D01*
X66906436Y-65531526D02*
X67020722Y-65531526D01*
X67020722Y-65531526D02*
X67173103Y-65569622D01*
X67173103Y-65569622D02*
X67249293Y-65607717D01*
X67249293Y-65607717D02*
X67325484Y-65683907D01*
X67325484Y-65683907D02*
X67363579Y-65798193D01*
X67363579Y-65798193D02*
X67363579Y-65988669D01*
X67603219Y-67555604D02*
X67603219Y-67060366D01*
X67603219Y-67060366D02*
X67907981Y-67327032D01*
X67907981Y-67327032D02*
X67907981Y-67212747D01*
X67907981Y-67212747D02*
X67946076Y-67136556D01*
X67946076Y-67136556D02*
X67984171Y-67098461D01*
X67984171Y-67098461D02*
X68060362Y-67060366D01*
X68060362Y-67060366D02*
X68250838Y-67060366D01*
X68250838Y-67060366D02*
X68327028Y-67098461D01*
X68327028Y-67098461D02*
X68365124Y-67136556D01*
X68365124Y-67136556D02*
X68403219Y-67212747D01*
X68403219Y-67212747D02*
X68403219Y-67441318D01*
X68403219Y-67441318D02*
X68365124Y-67517509D01*
X68365124Y-67517509D02*
X68327028Y-67555604D01*
X67603219Y-66831794D02*
X68403219Y-66565127D01*
X68403219Y-66565127D02*
X67603219Y-66298461D01*
X67603219Y-66107985D02*
X67603219Y-65612747D01*
X67603219Y-65612747D02*
X67907981Y-65879413D01*
X67907981Y-65879413D02*
X67907981Y-65765128D01*
X67907981Y-65765128D02*
X67946076Y-65688937D01*
X67946076Y-65688937D02*
X67984171Y-65650842D01*
X67984171Y-65650842D02*
X68060362Y-65612747D01*
X68060362Y-65612747D02*
X68250838Y-65612747D01*
X68250838Y-65612747D02*
X68327028Y-65650842D01*
X68327028Y-65650842D02*
X68365124Y-65688937D01*
X68365124Y-65688937D02*
X68403219Y-65765128D01*
X68403219Y-65765128D02*
X68403219Y-65993699D01*
X68403219Y-65993699D02*
X68365124Y-66069890D01*
X68365124Y-66069890D02*
X68327028Y-66107985D01*
X69388392Y-67509323D02*
X69426487Y-67395037D01*
X69426487Y-67395037D02*
X69426487Y-67204561D01*
X69426487Y-67204561D02*
X69388392Y-67128370D01*
X69388392Y-67128370D02*
X69350296Y-67090275D01*
X69350296Y-67090275D02*
X69274106Y-67052180D01*
X69274106Y-67052180D02*
X69197915Y-67052180D01*
X69197915Y-67052180D02*
X69121725Y-67090275D01*
X69121725Y-67090275D02*
X69083630Y-67128370D01*
X69083630Y-67128370D02*
X69045534Y-67204561D01*
X69045534Y-67204561D02*
X69007439Y-67356942D01*
X69007439Y-67356942D02*
X68969344Y-67433132D01*
X68969344Y-67433132D02*
X68931249Y-67471227D01*
X68931249Y-67471227D02*
X68855058Y-67509323D01*
X68855058Y-67509323D02*
X68778868Y-67509323D01*
X68778868Y-67509323D02*
X68702677Y-67471227D01*
X68702677Y-67471227D02*
X68664582Y-67433132D01*
X68664582Y-67433132D02*
X68626487Y-67356942D01*
X68626487Y-67356942D02*
X68626487Y-67166465D01*
X68626487Y-67166465D02*
X68664582Y-67052180D01*
X69350296Y-66252179D02*
X69388392Y-66290275D01*
X69388392Y-66290275D02*
X69426487Y-66404560D01*
X69426487Y-66404560D02*
X69426487Y-66480751D01*
X69426487Y-66480751D02*
X69388392Y-66595037D01*
X69388392Y-66595037D02*
X69312201Y-66671227D01*
X69312201Y-66671227D02*
X69236011Y-66709322D01*
X69236011Y-66709322D02*
X69083630Y-66747418D01*
X69083630Y-66747418D02*
X68969344Y-66747418D01*
X68969344Y-66747418D02*
X68816963Y-66709322D01*
X68816963Y-66709322D02*
X68740772Y-66671227D01*
X68740772Y-66671227D02*
X68664582Y-66595037D01*
X68664582Y-66595037D02*
X68626487Y-66480751D01*
X68626487Y-66480751D02*
X68626487Y-66404560D01*
X68626487Y-66404560D02*
X68664582Y-66290275D01*
X68664582Y-66290275D02*
X68702677Y-66252179D01*
X69426487Y-65528370D02*
X69426487Y-65909322D01*
X69426487Y-65909322D02*
X68626487Y-65909322D01*
%TO.C,C1*%
X66342887Y-73915228D02*
X66314315Y-73943800D01*
X66314315Y-73943800D02*
X66228601Y-73972371D01*
X66228601Y-73972371D02*
X66171458Y-73972371D01*
X66171458Y-73972371D02*
X66085744Y-73943800D01*
X66085744Y-73943800D02*
X66028601Y-73886657D01*
X66028601Y-73886657D02*
X66000030Y-73829514D01*
X66000030Y-73829514D02*
X65971458Y-73715228D01*
X65971458Y-73715228D02*
X65971458Y-73629514D01*
X65971458Y-73629514D02*
X66000030Y-73515228D01*
X66000030Y-73515228D02*
X66028601Y-73458085D01*
X66028601Y-73458085D02*
X66085744Y-73400942D01*
X66085744Y-73400942D02*
X66171458Y-73372371D01*
X66171458Y-73372371D02*
X66228601Y-73372371D01*
X66228601Y-73372371D02*
X66314315Y-73400942D01*
X66314315Y-73400942D02*
X66342887Y-73429514D01*
X66914315Y-73972371D02*
X66571458Y-73972371D01*
X66742887Y-73972371D02*
X66742887Y-73372371D01*
X66742887Y-73372371D02*
X66685744Y-73458085D01*
X66685744Y-73458085D02*
X66628601Y-73515228D01*
X66628601Y-73515228D02*
X66571458Y-73543800D01*
%TO.C,R4*%
X71772371Y-65499999D02*
X71486657Y-65699999D01*
X71772371Y-65842856D02*
X71172371Y-65842856D01*
X71172371Y-65842856D02*
X71172371Y-65614285D01*
X71172371Y-65614285D02*
X71200942Y-65557142D01*
X71200942Y-65557142D02*
X71229514Y-65528571D01*
X71229514Y-65528571D02*
X71286657Y-65499999D01*
X71286657Y-65499999D02*
X71372371Y-65499999D01*
X71372371Y-65499999D02*
X71429514Y-65528571D01*
X71429514Y-65528571D02*
X71458085Y-65557142D01*
X71458085Y-65557142D02*
X71486657Y-65614285D01*
X71486657Y-65614285D02*
X71486657Y-65842856D01*
X71372371Y-64985714D02*
X71772371Y-64985714D01*
X71143800Y-65128571D02*
X71572371Y-65271428D01*
X71572371Y-65271428D02*
X71572371Y-64899999D01*
%TO.C,R3*%
X68472371Y-73399999D02*
X68186657Y-73599999D01*
X68472371Y-73742856D02*
X67872371Y-73742856D01*
X67872371Y-73742856D02*
X67872371Y-73514285D01*
X67872371Y-73514285D02*
X67900942Y-73457142D01*
X67900942Y-73457142D02*
X67929514Y-73428571D01*
X67929514Y-73428571D02*
X67986657Y-73399999D01*
X67986657Y-73399999D02*
X68072371Y-73399999D01*
X68072371Y-73399999D02*
X68129514Y-73428571D01*
X68129514Y-73428571D02*
X68158085Y-73457142D01*
X68158085Y-73457142D02*
X68186657Y-73514285D01*
X68186657Y-73514285D02*
X68186657Y-73742856D01*
X67872371Y-73199999D02*
X67872371Y-72828571D01*
X67872371Y-72828571D02*
X68100942Y-73028571D01*
X68100942Y-73028571D02*
X68100942Y-72942856D01*
X68100942Y-72942856D02*
X68129514Y-72885714D01*
X68129514Y-72885714D02*
X68158085Y-72857142D01*
X68158085Y-72857142D02*
X68215228Y-72828571D01*
X68215228Y-72828571D02*
X68358085Y-72828571D01*
X68358085Y-72828571D02*
X68415228Y-72857142D01*
X68415228Y-72857142D02*
X68443800Y-72885714D01*
X68443800Y-72885714D02*
X68472371Y-72942856D01*
X68472371Y-72942856D02*
X68472371Y-73114285D01*
X68472371Y-73114285D02*
X68443800Y-73171428D01*
X68443800Y-73171428D02*
X68415228Y-73199999D01*
%TO.C,R1*%
X72172371Y-73399999D02*
X71886657Y-73599999D01*
X72172371Y-73742856D02*
X71572371Y-73742856D01*
X71572371Y-73742856D02*
X71572371Y-73514285D01*
X71572371Y-73514285D02*
X71600942Y-73457142D01*
X71600942Y-73457142D02*
X71629514Y-73428571D01*
X71629514Y-73428571D02*
X71686657Y-73399999D01*
X71686657Y-73399999D02*
X71772371Y-73399999D01*
X71772371Y-73399999D02*
X71829514Y-73428571D01*
X71829514Y-73428571D02*
X71858085Y-73457142D01*
X71858085Y-73457142D02*
X71886657Y-73514285D01*
X71886657Y-73514285D02*
X71886657Y-73742856D01*
X72172371Y-72828571D02*
X72172371Y-73171428D01*
X72172371Y-72999999D02*
X71572371Y-72999999D01*
X71572371Y-72999999D02*
X71658085Y-73057142D01*
X71658085Y-73057142D02*
X71715228Y-73114285D01*
X71715228Y-73114285D02*
X71743800Y-73171428D01*
D11*
%TO.C,U1*%
X67738095Y-69704819D02*
X67738095Y-70514342D01*
X67738095Y-70514342D02*
X67785714Y-70609580D01*
X67785714Y-70609580D02*
X67833333Y-70657200D01*
X67833333Y-70657200D02*
X67928571Y-70704819D01*
X67928571Y-70704819D02*
X68119047Y-70704819D01*
X68119047Y-70704819D02*
X68214285Y-70657200D01*
X68214285Y-70657200D02*
X68261904Y-70609580D01*
X68261904Y-70609580D02*
X68309523Y-70514342D01*
X68309523Y-70514342D02*
X68309523Y-69704819D01*
X69309523Y-70704819D02*
X68738095Y-70704819D01*
X69023809Y-70704819D02*
X69023809Y-69704819D01*
X69023809Y-69704819D02*
X68928571Y-69847676D01*
X68928571Y-69847676D02*
X68833333Y-69942914D01*
X68833333Y-69942914D02*
X68738095Y-69990533D01*
D10*
%TO.C,R5*%
X65772371Y-65499999D02*
X65486657Y-65699999D01*
X65772371Y-65842856D02*
X65172371Y-65842856D01*
X65172371Y-65842856D02*
X65172371Y-65614285D01*
X65172371Y-65614285D02*
X65200942Y-65557142D01*
X65200942Y-65557142D02*
X65229514Y-65528571D01*
X65229514Y-65528571D02*
X65286657Y-65499999D01*
X65286657Y-65499999D02*
X65372371Y-65499999D01*
X65372371Y-65499999D02*
X65429514Y-65528571D01*
X65429514Y-65528571D02*
X65458085Y-65557142D01*
X65458085Y-65557142D02*
X65486657Y-65614285D01*
X65486657Y-65614285D02*
X65486657Y-65842856D01*
X65172371Y-64957142D02*
X65172371Y-65242856D01*
X65172371Y-65242856D02*
X65458085Y-65271428D01*
X65458085Y-65271428D02*
X65429514Y-65242856D01*
X65429514Y-65242856D02*
X65400942Y-65185714D01*
X65400942Y-65185714D02*
X65400942Y-65042856D01*
X65400942Y-65042856D02*
X65429514Y-64985714D01*
X65429514Y-64985714D02*
X65458085Y-64957142D01*
X65458085Y-64957142D02*
X65515228Y-64928571D01*
X65515228Y-64928571D02*
X65658085Y-64928571D01*
X65658085Y-64928571D02*
X65715228Y-64957142D01*
X65715228Y-64957142D02*
X65743800Y-64985714D01*
X65743800Y-64985714D02*
X65772371Y-65042856D01*
X65772371Y-65042856D02*
X65772371Y-65185714D01*
X65772371Y-65185714D02*
X65743800Y-65242856D01*
X65743800Y-65242856D02*
X65715228Y-65271428D01*
%TO.C,R2*%
X69955536Y-74764830D02*
X69755536Y-74479116D01*
X69612679Y-74764830D02*
X69612679Y-74164830D01*
X69612679Y-74164830D02*
X69841250Y-74164830D01*
X69841250Y-74164830D02*
X69898393Y-74193401D01*
X69898393Y-74193401D02*
X69926964Y-74221973D01*
X69926964Y-74221973D02*
X69955536Y-74279116D01*
X69955536Y-74279116D02*
X69955536Y-74364830D01*
X69955536Y-74364830D02*
X69926964Y-74421973D01*
X69926964Y-74421973D02*
X69898393Y-74450544D01*
X69898393Y-74450544D02*
X69841250Y-74479116D01*
X69841250Y-74479116D02*
X69612679Y-74479116D01*
X70184107Y-74221973D02*
X70212679Y-74193401D01*
X70212679Y-74193401D02*
X70269822Y-74164830D01*
X70269822Y-74164830D02*
X70412679Y-74164830D01*
X70412679Y-74164830D02*
X70469822Y-74193401D01*
X70469822Y-74193401D02*
X70498393Y-74221973D01*
X70498393Y-74221973D02*
X70526964Y-74279116D01*
X70526964Y-74279116D02*
X70526964Y-74336259D01*
X70526964Y-74336259D02*
X70498393Y-74421973D01*
X70498393Y-74421973D02*
X70155536Y-74764830D01*
X70155536Y-74764830D02*
X70526964Y-74764830D01*
D12*
%TO.C,C1*%
X66550723Y-73166451D02*
X66335051Y-73166451D01*
X66550723Y-72446451D02*
X66335051Y-72446451D01*
%TO.C,R4*%
X71859924Y-66747037D02*
X71859924Y-67054319D01*
X71099924Y-66747037D02*
X71099924Y-67054319D01*
%TO.C,R3*%
X68704885Y-73449632D02*
X68704885Y-73142350D01*
X69464885Y-73449632D02*
X69464885Y-73142350D01*
%TO.C,R1*%
X71405001Y-73125978D02*
X71405001Y-73433260D01*
X70645001Y-73125978D02*
X70645001Y-73433260D01*
%TO.C,U1*%
X65790000Y-68077500D02*
X66050000Y-68077500D01*
X65790000Y-72097500D02*
X65790000Y-71837500D01*
X65790000Y-72097500D02*
X66050000Y-72097500D01*
X71210000Y-68077500D02*
X70950000Y-68077500D01*
X71210000Y-68077500D02*
X71210000Y-68337500D01*
X71210000Y-72097500D02*
X70950000Y-72097500D01*
X71210000Y-72097500D02*
X71210000Y-71837500D01*
%TO.C,R5*%
X65135173Y-67030742D02*
X65135173Y-66723460D01*
X65895173Y-67030742D02*
X65895173Y-66723460D01*
%TO.C,R2*%
X69670850Y-73457818D02*
X69670850Y-73150536D01*
X70430850Y-73457818D02*
X70430850Y-73150536D01*
%TD*%
%LPC*%
D13*
%TO.C,C1*%
X66922887Y-72806451D03*
X65962887Y-72806451D03*
%TD*%
D14*
%TO.C,R4*%
X71479924Y-66390678D03*
X71479924Y-67410678D03*
%TD*%
D15*
%TO.C,R3*%
X69084885Y-73805991D03*
X69084885Y-72785991D03*
%TD*%
D14*
%TO.C,R1*%
X71025001Y-72769619D03*
X71025001Y-73789619D03*
%TD*%
D16*
%TO.C,U1*%
X66250000Y-68425000D03*
D17*
X66112500Y-69337500D03*
X66112500Y-69837500D03*
X66112500Y-70337500D03*
X66112500Y-70837500D03*
D16*
X66250000Y-71750000D03*
X66750000Y-71750000D03*
X67250000Y-71750000D03*
X67750000Y-71750000D03*
X68250000Y-71750000D03*
X68750000Y-71750000D03*
X69250000Y-71750000D03*
X69750000Y-71750000D03*
X70250000Y-71750000D03*
X70750000Y-71750000D03*
D17*
X70887500Y-70837500D03*
X70887500Y-70337500D03*
X70887500Y-69837500D03*
X70887500Y-69337500D03*
D16*
X70750000Y-68425000D03*
X70250000Y-68425000D03*
X69750000Y-68425000D03*
X69250000Y-68425000D03*
X68750000Y-68425000D03*
X68250000Y-68425000D03*
X67750000Y-68425000D03*
X67250000Y-68425000D03*
X66750000Y-68425000D03*
%TD*%
D15*
%TO.C,R5*%
X65515173Y-67387101D03*
X65515173Y-66367101D03*
%TD*%
D18*
%TO.C,J5*%
X67009337Y-64770000D03*
D19*
X68009337Y-64770000D03*
X69009337Y-64770000D03*
X70009337Y-64770000D03*
%TD*%
D15*
%TO.C,R2*%
X70050850Y-73814177D03*
X70050850Y-72794177D03*
%TD*%
%LPD*%
M02*
