M48
INCH
T1C0.0118
T2C0.0197
%
G90
G05
T1
X0.4165Y-0.3567
X0.4165Y-0.8291
X0.4165Y-1.3016
X0.4165Y-1.774
X0.4165Y-2.2465
X0.511Y-0.526
X0.511Y-0.9984
X0.511Y-1.4709
X0.511Y-1.9433
X0.511Y-2.4157
X0.5189Y-0.4669
X0.5189Y-0.9394
X0.5189Y-1.4118
X0.5189Y-1.8843
X0.5189Y-2.3567
X0.5722Y-0.3467
X0.5722Y-0.8191
X0.5722Y-1.2915
X0.5722Y-1.764
X0.5722Y-2.2364
X0.889Y-0.3567
X0.889Y-0.8291
X0.889Y-1.3016
X0.889Y-1.774
X0.889Y-2.2465
X0.9835Y-0.526
X0.9835Y-0.9984
X0.9835Y-1.4709
X0.9835Y-1.9433
X0.9835Y-2.4157
X0.9913Y-0.4669
X0.9913Y-0.9394
X0.9913Y-1.4118
X0.9913Y-1.8843
X0.9913Y-2.3567
X1.0447Y-0.3467
X1.0447Y-0.8191
X1.0447Y-1.2915
X1.0447Y-1.764
X1.0447Y-2.2364
X1.3614Y-0.3567
X1.3614Y-0.8291
X1.3614Y-1.3016
X1.3614Y-1.774
X1.3614Y-2.2465
X1.4559Y-0.526
X1.4559Y-0.9984
X1.4559Y-1.4709
X1.4559Y-1.9433
X1.4559Y-2.4157
X1.4638Y-0.4669
X1.4638Y-0.9394
X1.4638Y-1.4118
X1.4638Y-1.8843
X1.4638Y-2.3567
X1.5171Y-0.3467
X1.5171Y-0.8191
X1.5171Y-1.2915
X1.5171Y-1.764
X1.5171Y-2.2364
X1.8339Y-0.3567
X1.8339Y-0.8291
X1.8339Y-1.3016
X1.8339Y-1.774
X1.8339Y-2.2465
X1.9283Y-0.526
X1.9283Y-0.9984
X1.9283Y-1.4709
X1.9283Y-1.9433
X1.9283Y-2.4157
X1.9362Y-0.4669
X1.9362Y-0.9394
X1.9362Y-1.4118
X1.9362Y-1.8843
X1.9362Y-2.3567
X1.9896Y-0.3467
X1.9896Y-0.8191
X1.9896Y-1.2915
X1.9896Y-1.764
X1.9896Y-2.2364
X2.3063Y-0.3567
X2.3063Y-0.8291
X2.3063Y-1.3016
X2.3063Y-1.774
X2.3063Y-2.2465
X2.4008Y-0.526
X2.4008Y-0.9984
X2.4008Y-1.4709
X2.4008Y-1.9433
X2.4008Y-2.4157
X2.4087Y-0.4669
X2.4087Y-0.9394
X2.4087Y-1.4118
X2.4087Y-1.8843
X2.4087Y-2.3567
X2.462Y-0.3467
X2.462Y-0.8191
X2.462Y-1.2915
X2.462Y-1.764
X2.462Y-2.2364
T2
X0.3051Y-0.4724
X0.3051Y-0.9449
X0.3051Y-1.4173
X0.3051Y-1.8898
X0.3051Y-2.3622
X0.4724Y-0.3051
X0.4724Y-0.6398
X0.4724Y-0.7776
X0.4724Y-1.1122
X0.4724Y-1.25
X0.4724Y-1.5846
X0.4724Y-1.7224
X0.4724Y-2.0571
X0.4724Y-2.1949
X0.4724Y-2.5295
X0.6398Y-0.4724
X0.6398Y-0.9449
X0.6398Y-1.4173
X0.6398Y-1.8898
X0.6398Y-2.3622
X0.7776Y-0.4724
X0.7776Y-0.9449
X0.7776Y-1.4173
X0.7776Y-1.8898
X0.7776Y-2.3622
X0.9449Y-0.3051
X0.9449Y-0.6398
X0.9449Y-0.7776
X0.9449Y-1.1122
X0.9449Y-1.25
X0.9449Y-1.5846
X0.9449Y-1.7224
X0.9449Y-2.0571
X0.9449Y-2.1949
X0.9449Y-2.5295
X1.1122Y-0.4724
X1.1122Y-0.9449
X1.1122Y-1.4173
X1.1122Y-1.8898
X1.1122Y-2.3622
X1.25Y-0.4724
X1.25Y-0.9449
X1.25Y-1.4173
X1.25Y-1.8898
X1.25Y-2.3622
X1.4173Y-0.3051
X1.4173Y-0.6398
X1.4173Y-0.7776
X1.4173Y-1.1122
X1.4173Y-1.25
X1.4173Y-1.5846
X1.4173Y-1.7224
X1.4173Y-2.0571
X1.4173Y-2.1949
X1.4173Y-2.5295
X1.5846Y-0.4724
X1.5846Y-0.9449
X1.5846Y-1.4173
X1.5846Y-1.8898
X1.5846Y-2.3622
X1.7224Y-0.4724
X1.7224Y-0.9449
X1.7224Y-1.4173
X1.7224Y-1.8898
X1.7224Y-2.3622
X1.8898Y-0.3051
X1.8898Y-0.6398
X1.8898Y-0.7776
X1.8898Y-1.1122
X1.8898Y-1.25
X1.8898Y-1.5846
X1.8898Y-1.7224
X1.8898Y-2.0571
X1.8898Y-2.1949
X1.8898Y-2.5295
X2.0571Y-0.4724
X2.0571Y-0.9449
X2.0571Y-1.4173
X2.0571Y-1.8898
X2.0571Y-2.3622
X2.1949Y-0.4724
X2.1949Y-0.9449
X2.1949Y-1.4173
X2.1949Y-1.8898
X2.1949Y-2.3622
X2.3622Y-0.3051
X2.3622Y-0.6398
X2.3622Y-0.7776
X2.3622Y-1.1122
X2.3622Y-1.25
X2.3622Y-1.5846
X2.3622Y-1.7224
X2.3622Y-2.0571
X2.3622Y-2.1949
X2.3622Y-2.5295
X2.5295Y-0.4724
X2.5295Y-0.9449
X2.5295Y-1.4173
X2.5295Y-1.8898
X2.5295Y-2.3622
T0
M30
