%TF.GenerationSoftware,KiCad,Pcbnew,7.0.6-1.fc38*%
%TF.CreationDate,2023-07-26T15:00:37-04:00*%
%TF.ProjectId,bno085-i2c-board-v4-panel,626e6f30-3835-42d6-9932-632d626f6172,rev?*%
%TF.SameCoordinates,Original*%
%TF.FileFunction,Paste,Top*%
%TF.FilePolarity,Positive*%
%FSLAX46Y46*%
G04 Gerber Fmt 4.6, Leading zero omitted, Abs format (unit mm)*
G04 Created by KiCad (PCBNEW 7.0.6-1.fc38) date 2023-07-26 15:00:37*
%MOMM*%
%LPD*%
G01*
G04 APERTURE LIST*
G04 Aperture macros list*
%AMRoundRect*
0 Rectangle with rounded corners*
0 $1 Rounding radius*
0 $2 $3 $4 $5 $6 $7 $8 $9 X,Y pos of 4 corners*
0 Add a 4 corners polygon primitive as box body*
4,1,4,$2,$3,$4,$5,$6,$7,$8,$9,$2,$3,0*
0 Add four circle primitives for the rounded corners*
1,1,$1+$1,$2,$3*
1,1,$1+$1,$4,$5*
1,1,$1+$1,$6,$7*
1,1,$1+$1,$8,$9*
0 Add four rect primitives between the rounded corners*
20,1,$1+$1,$2,$3,$4,$5,0*
20,1,$1+$1,$4,$5,$6,$7,0*
20,1,$1+$1,$6,$7,$8,$9,0*
20,1,$1+$1,$8,$9,$2,$3,0*%
G04 Aperture macros list end*
%ADD10RoundRect,0.135000X-0.185000X0.135000X-0.185000X-0.135000X0.185000X-0.135000X0.185000X0.135000X0*%
%ADD11R,0.254000X0.975000*%
%ADD12R,0.950000X0.254000*%
%ADD13RoundRect,0.140000X0.140000X0.170000X-0.140000X0.170000X-0.140000X-0.170000X0.140000X-0.170000X0*%
%ADD14RoundRect,0.135000X0.185000X-0.135000X0.185000X0.135000X-0.185000X0.135000X-0.185000X-0.135000X0*%
%ADD15C,4.000000*%
G04 APERTURE END LIST*
D10*
%TO.C,R5*%
X63579999Y-33450004D03*
X63579999Y-34470004D03*
%TD*%
D11*
%TO.C,U1*%
X21749999Y-46187504D03*
D12*
X21474999Y-47250004D03*
X21474999Y-47750004D03*
X21474999Y-48250004D03*
X21474999Y-48750004D03*
D11*
X21749999Y-49812504D03*
X23249999Y-49812504D03*
X23749999Y-49812504D03*
X26249999Y-49812504D03*
D12*
X26524999Y-48750004D03*
X26524999Y-48250004D03*
X26524999Y-47250004D03*
D11*
X26249999Y-46187504D03*
X23749999Y-46187504D03*
X23249999Y-46187504D03*
X22249999Y-46187504D03*
%TD*%
D10*
%TO.C,R3*%
X20479999Y-61502707D03*
X20479999Y-62522707D03*
%TD*%
%TO.C,R5*%
X15579999Y-45450004D03*
X15579999Y-46470004D03*
%TD*%
D11*
%TO.C,U1*%
X45749999Y-34187504D03*
D12*
X45474999Y-35250004D03*
X45474999Y-35750004D03*
X45474999Y-36250004D03*
X45474999Y-36750004D03*
D11*
X45749999Y-37812504D03*
X47249999Y-37812504D03*
X47749999Y-37812504D03*
X50249999Y-37812504D03*
D12*
X50524999Y-36750004D03*
X50524999Y-36250004D03*
X50524999Y-35250004D03*
D11*
X50249999Y-34187504D03*
X47749999Y-34187504D03*
X47249999Y-34187504D03*
X46249999Y-34187504D03*
%TD*%
D10*
%TO.C,R3*%
X20479999Y-13502707D03*
X20479999Y-14522707D03*
%TD*%
%TO.C,R5*%
X63579999Y-9450004D03*
X63579999Y-10470004D03*
%TD*%
D13*
%TO.C,C1*%
X46259999Y-39460004D03*
X45299999Y-39460004D03*
%TD*%
D10*
%TO.C,R3*%
X44479999Y-61502707D03*
X44479999Y-62522707D03*
%TD*%
D14*
%TO.C,R1*%
X25779999Y-39970004D03*
X25779999Y-38950004D03*
%TD*%
%TO.C,R4*%
X25679999Y-8970004D03*
X25679999Y-7950004D03*
%TD*%
D10*
%TO.C,R2*%
X27579999Y-37450004D03*
X27579999Y-38470004D03*
%TD*%
%TO.C,R2*%
X27579999Y-49450004D03*
X27579999Y-50470004D03*
%TD*%
D11*
%TO.C,U1*%
X21749999Y-22187504D03*
D12*
X21474999Y-23250004D03*
X21474999Y-23750004D03*
X21474999Y-24250004D03*
X21474999Y-24750004D03*
D11*
X21749999Y-25812504D03*
X23249999Y-25812504D03*
X23749999Y-25812504D03*
X26249999Y-25812504D03*
D12*
X26524999Y-24750004D03*
X26524999Y-24250004D03*
X26524999Y-23250004D03*
D11*
X26249999Y-22187504D03*
X23749999Y-22187504D03*
X23249999Y-22187504D03*
X22249999Y-22187504D03*
%TD*%
D14*
%TO.C,R1*%
X61779999Y-27970004D03*
X61779999Y-26950004D03*
%TD*%
D13*
%TO.C,C1*%
X58259999Y-63460004D03*
X57299999Y-63460004D03*
%TD*%
D11*
%TO.C,U1*%
X45749999Y-22187504D03*
D12*
X45474999Y-23250004D03*
X45474999Y-23750004D03*
X45474999Y-24250004D03*
X45474999Y-24750004D03*
D11*
X45749999Y-25812504D03*
X47249999Y-25812504D03*
X47749999Y-25812504D03*
X50249999Y-25812504D03*
D12*
X50524999Y-24750004D03*
X50524999Y-24250004D03*
X50524999Y-23250004D03*
D11*
X50249999Y-22187504D03*
X47749999Y-22187504D03*
X47249999Y-22187504D03*
X46249999Y-22187504D03*
%TD*%
D10*
%TO.C,R3*%
X56479999Y-37502707D03*
X56479999Y-38522707D03*
%TD*%
D13*
%TO.C,C1*%
X22259999Y-15460004D03*
X21299999Y-15460004D03*
%TD*%
D10*
%TO.C,R3*%
X32479999Y-49502707D03*
X32479999Y-50522707D03*
%TD*%
D13*
%TO.C,C1*%
X10259999Y-39460004D03*
X9299999Y-39460004D03*
%TD*%
D11*
%TO.C,U1*%
X9749999Y-46187504D03*
D12*
X9474999Y-47250004D03*
X9474999Y-47750004D03*
X9474999Y-48250004D03*
X9474999Y-48750004D03*
D11*
X9749999Y-49812504D03*
X11249999Y-49812504D03*
X11749999Y-49812504D03*
X14249999Y-49812504D03*
D12*
X14524999Y-48750004D03*
X14524999Y-48250004D03*
X14524999Y-47250004D03*
D11*
X14249999Y-46187504D03*
X11749999Y-46187504D03*
X11249999Y-46187504D03*
X10249999Y-46187504D03*
%TD*%
D14*
%TO.C,R4*%
X49679999Y-20970004D03*
X49679999Y-19950004D03*
%TD*%
D10*
%TO.C,R5*%
X39579999Y-45450004D03*
X39579999Y-46470004D03*
%TD*%
D15*
%TO.C,REF\u002A\u002A*%
X69499999Y-2500000D03*
%TD*%
D11*
%TO.C,U1*%
X9749999Y-10187504D03*
D12*
X9474999Y-11250004D03*
X9474999Y-11750004D03*
X9474999Y-12250004D03*
X9474999Y-12750004D03*
D11*
X9749999Y-13812504D03*
X11249999Y-13812504D03*
X11749999Y-13812504D03*
X14249999Y-13812504D03*
D12*
X14524999Y-12750004D03*
X14524999Y-12250004D03*
X14524999Y-11250004D03*
D11*
X14249999Y-10187504D03*
X11749999Y-10187504D03*
X11249999Y-10187504D03*
X10249999Y-10187504D03*
%TD*%
D13*
%TO.C,C1*%
X22259999Y-39460004D03*
X21299999Y-39460004D03*
%TD*%
D10*
%TO.C,R5*%
X27579999Y-45450004D03*
X27579999Y-46470004D03*
%TD*%
D14*
%TO.C,R4*%
X13679999Y-44970004D03*
X13679999Y-43950004D03*
%TD*%
%TO.C,R1*%
X49779999Y-63970004D03*
X49779999Y-62950004D03*
%TD*%
D11*
%TO.C,U1*%
X33749999Y-22187504D03*
D12*
X33474999Y-23250004D03*
X33474999Y-23750004D03*
X33474999Y-24250004D03*
X33474999Y-24750004D03*
D11*
X33749999Y-25812504D03*
X35249999Y-25812504D03*
X35749999Y-25812504D03*
X38249999Y-25812504D03*
D12*
X38524999Y-24750004D03*
X38524999Y-24250004D03*
X38524999Y-23250004D03*
D11*
X38249999Y-22187504D03*
X35749999Y-22187504D03*
X35249999Y-22187504D03*
X34249999Y-22187504D03*
%TD*%
D10*
%TO.C,R2*%
X27579999Y-61450004D03*
X27579999Y-62470004D03*
%TD*%
%TO.C,R5*%
X15579999Y-21450004D03*
X15579999Y-22470004D03*
%TD*%
D14*
%TO.C,R1*%
X37779999Y-39970004D03*
X37779999Y-38950004D03*
%TD*%
D13*
%TO.C,C1*%
X22259999Y-51460004D03*
X21299999Y-51460004D03*
%TD*%
D10*
%TO.C,R5*%
X39579999Y-21450004D03*
X39579999Y-22470004D03*
%TD*%
%TO.C,R5*%
X51579999Y-33450004D03*
X51579999Y-34470004D03*
%TD*%
%TO.C,R5*%
X63579999Y-21450004D03*
X63579999Y-22470004D03*
%TD*%
%TO.C,R2*%
X39579999Y-49450004D03*
X39579999Y-50470004D03*
%TD*%
D13*
%TO.C,C1*%
X34259999Y-27460004D03*
X33299999Y-27460004D03*
%TD*%
D10*
%TO.C,R3*%
X20479999Y-25502707D03*
X20479999Y-26522707D03*
%TD*%
%TO.C,R3*%
X56479999Y-25502707D03*
X56479999Y-26522707D03*
%TD*%
%TO.C,R5*%
X51579999Y-21450004D03*
X51579999Y-22470004D03*
%TD*%
D11*
%TO.C,U1*%
X57749999Y-22187504D03*
D12*
X57474999Y-23250004D03*
X57474999Y-23750004D03*
X57474999Y-24250004D03*
X57474999Y-24750004D03*
D11*
X57749999Y-25812504D03*
X59249999Y-25812504D03*
X59749999Y-25812504D03*
X62249999Y-25812504D03*
D12*
X62524999Y-24750004D03*
X62524999Y-24250004D03*
X62524999Y-23250004D03*
D11*
X62249999Y-22187504D03*
X59749999Y-22187504D03*
X59249999Y-22187504D03*
X58249999Y-22187504D03*
%TD*%
D10*
%TO.C,R2*%
X51579999Y-25450004D03*
X51579999Y-26470004D03*
%TD*%
%TO.C,R2*%
X15579999Y-25450004D03*
X15579999Y-26470004D03*
%TD*%
D14*
%TO.C,R1*%
X13779999Y-63970004D03*
X13779999Y-62950004D03*
%TD*%
D10*
%TO.C,R2*%
X15579999Y-61450004D03*
X15579999Y-62470004D03*
%TD*%
D14*
%TO.C,R4*%
X37679999Y-8970004D03*
X37679999Y-7950004D03*
%TD*%
D15*
%TO.C,REF\u002A\u002A*%
X2500000Y-2500000D03*
%TD*%
D10*
%TO.C,R2*%
X39579999Y-61450004D03*
X39579999Y-62470004D03*
%TD*%
D13*
%TO.C,C1*%
X10259999Y-27460004D03*
X9299999Y-27460004D03*
%TD*%
D10*
%TO.C,R2*%
X63579999Y-61450004D03*
X63579999Y-62470004D03*
%TD*%
%TO.C,R2*%
X27579999Y-13450004D03*
X27579999Y-14470004D03*
%TD*%
D11*
%TO.C,U1*%
X45749999Y-58187504D03*
D12*
X45474999Y-59250004D03*
X45474999Y-59750004D03*
X45474999Y-60250004D03*
X45474999Y-60750004D03*
D11*
X45749999Y-61812504D03*
X47249999Y-61812504D03*
X47749999Y-61812504D03*
X50249999Y-61812504D03*
D12*
X50524999Y-60750004D03*
X50524999Y-60250004D03*
X50524999Y-59250004D03*
D11*
X50249999Y-58187504D03*
X47749999Y-58187504D03*
X47249999Y-58187504D03*
X46249999Y-58187504D03*
%TD*%
D10*
%TO.C,R3*%
X44479999Y-37502707D03*
X44479999Y-38522707D03*
%TD*%
D13*
%TO.C,C1*%
X58259999Y-15460004D03*
X57299999Y-15460004D03*
%TD*%
D14*
%TO.C,R1*%
X49779999Y-39970004D03*
X49779999Y-38950004D03*
%TD*%
%TO.C,R4*%
X61679999Y-20970004D03*
X61679999Y-19950004D03*
%TD*%
D10*
%TO.C,R3*%
X32479999Y-25502707D03*
X32479999Y-26522707D03*
%TD*%
D14*
%TO.C,R4*%
X13679999Y-32970004D03*
X13679999Y-31950004D03*
%TD*%
%TO.C,R1*%
X37779999Y-63970004D03*
X37779999Y-62950004D03*
%TD*%
D10*
%TO.C,R5*%
X27579999Y-21450004D03*
X27579999Y-22470004D03*
%TD*%
D14*
%TO.C,R4*%
X49679999Y-8970004D03*
X49679999Y-7950004D03*
%TD*%
D10*
%TO.C,R3*%
X32479999Y-37502707D03*
X32479999Y-38522707D03*
%TD*%
D14*
%TO.C,R1*%
X13779999Y-39970004D03*
X13779999Y-38950004D03*
%TD*%
%TO.C,R1*%
X25779999Y-63970004D03*
X25779999Y-62950004D03*
%TD*%
D13*
%TO.C,C1*%
X34259999Y-63460004D03*
X33299999Y-63460004D03*
%TD*%
D10*
%TO.C,R2*%
X63579999Y-49450004D03*
X63579999Y-50470004D03*
%TD*%
D11*
%TO.C,U1*%
X9749999Y-34187504D03*
D12*
X9474999Y-35250004D03*
X9474999Y-35750004D03*
X9474999Y-36250004D03*
X9474999Y-36750004D03*
D11*
X9749999Y-37812504D03*
X11249999Y-37812504D03*
X11749999Y-37812504D03*
X14249999Y-37812504D03*
D12*
X14524999Y-36750004D03*
X14524999Y-36250004D03*
X14524999Y-35250004D03*
D11*
X14249999Y-34187504D03*
X11749999Y-34187504D03*
X11249999Y-34187504D03*
X10249999Y-34187504D03*
%TD*%
D14*
%TO.C,R1*%
X25779999Y-51970004D03*
X25779999Y-50950004D03*
%TD*%
D10*
%TO.C,R3*%
X44479999Y-25502707D03*
X44479999Y-26522707D03*
%TD*%
D11*
%TO.C,U1*%
X21749999Y-58187504D03*
D12*
X21474999Y-59250004D03*
X21474999Y-59750004D03*
X21474999Y-60250004D03*
X21474999Y-60750004D03*
D11*
X21749999Y-61812504D03*
X23249999Y-61812504D03*
X23749999Y-61812504D03*
X26249999Y-61812504D03*
D12*
X26524999Y-60750004D03*
X26524999Y-60250004D03*
X26524999Y-59250004D03*
D11*
X26249999Y-58187504D03*
X23749999Y-58187504D03*
X23249999Y-58187504D03*
X22249999Y-58187504D03*
%TD*%
D10*
%TO.C,R3*%
X8479999Y-13502707D03*
X8479999Y-14522707D03*
%TD*%
D13*
%TO.C,C1*%
X10259999Y-51460004D03*
X9299999Y-51460004D03*
%TD*%
D10*
%TO.C,R2*%
X51579999Y-61450004D03*
X51579999Y-62470004D03*
%TD*%
D14*
%TO.C,R4*%
X37679999Y-20970004D03*
X37679999Y-19950004D03*
%TD*%
D10*
%TO.C,R2*%
X63579999Y-25450004D03*
X63579999Y-26470004D03*
%TD*%
D15*
%TO.C,REF\u002A\u002A*%
X2500000Y-69500004D03*
%TD*%
D14*
%TO.C,R4*%
X13679999Y-56970004D03*
X13679999Y-55950004D03*
%TD*%
%TO.C,R4*%
X25679999Y-32970004D03*
X25679999Y-31950004D03*
%TD*%
%TO.C,R1*%
X25779999Y-27970004D03*
X25779999Y-26950004D03*
%TD*%
D13*
%TO.C,C1*%
X46259999Y-51460004D03*
X45299999Y-51460004D03*
%TD*%
D10*
%TO.C,R5*%
X15579999Y-57450004D03*
X15579999Y-58470004D03*
%TD*%
D14*
%TO.C,R1*%
X13779999Y-51970004D03*
X13779999Y-50950004D03*
%TD*%
%TO.C,R4*%
X25679999Y-56970004D03*
X25679999Y-55950004D03*
%TD*%
D10*
%TO.C,R3*%
X56479999Y-13502707D03*
X56479999Y-14522707D03*
%TD*%
%TO.C,R2*%
X39579999Y-25450004D03*
X39579999Y-26470004D03*
%TD*%
D11*
%TO.C,U1*%
X33749999Y-10187504D03*
D12*
X33474999Y-11250004D03*
X33474999Y-11750004D03*
X33474999Y-12250004D03*
X33474999Y-12750004D03*
D11*
X33749999Y-13812504D03*
X35249999Y-13812504D03*
X35749999Y-13812504D03*
X38249999Y-13812504D03*
D12*
X38524999Y-12750004D03*
X38524999Y-12250004D03*
X38524999Y-11250004D03*
D11*
X38249999Y-10187504D03*
X35749999Y-10187504D03*
X35249999Y-10187504D03*
X34249999Y-10187504D03*
%TD*%
D10*
%TO.C,R3*%
X8479999Y-25502707D03*
X8479999Y-26522707D03*
%TD*%
D13*
%TO.C,C1*%
X58259999Y-39460004D03*
X57299999Y-39460004D03*
%TD*%
D10*
%TO.C,R5*%
X63579999Y-45450004D03*
X63579999Y-46470004D03*
%TD*%
D14*
%TO.C,R4*%
X25679999Y-20970004D03*
X25679999Y-19950004D03*
%TD*%
%TO.C,R1*%
X49779999Y-27970004D03*
X49779999Y-26950004D03*
%TD*%
D10*
%TO.C,R5*%
X27579999Y-33450004D03*
X27579999Y-34470004D03*
%TD*%
D14*
%TO.C,R1*%
X61779999Y-15970004D03*
X61779999Y-14950004D03*
%TD*%
%TO.C,R4*%
X13679999Y-8970004D03*
X13679999Y-7950004D03*
%TD*%
D10*
%TO.C,R5*%
X15579999Y-33450004D03*
X15579999Y-34470004D03*
%TD*%
D11*
%TO.C,U1*%
X45749999Y-10187504D03*
D12*
X45474999Y-11250004D03*
X45474999Y-11750004D03*
X45474999Y-12250004D03*
X45474999Y-12750004D03*
D11*
X45749999Y-13812504D03*
X47249999Y-13812504D03*
X47749999Y-13812504D03*
X50249999Y-13812504D03*
D12*
X50524999Y-12750004D03*
X50524999Y-12250004D03*
X50524999Y-11250004D03*
D11*
X50249999Y-10187504D03*
X47749999Y-10187504D03*
X47249999Y-10187504D03*
X46249999Y-10187504D03*
%TD*%
D10*
%TO.C,R5*%
X51579999Y-9450004D03*
X51579999Y-10470004D03*
%TD*%
%TO.C,R2*%
X51579999Y-49450004D03*
X51579999Y-50470004D03*
%TD*%
%TO.C,R3*%
X56479999Y-61502707D03*
X56479999Y-62522707D03*
%TD*%
%TO.C,R3*%
X8479999Y-49502707D03*
X8479999Y-50522707D03*
%TD*%
D14*
%TO.C,R4*%
X37679999Y-56970004D03*
X37679999Y-55950004D03*
%TD*%
D13*
%TO.C,C1*%
X22259999Y-63460004D03*
X21299999Y-63460004D03*
%TD*%
D10*
%TO.C,R5*%
X51579999Y-45450004D03*
X51579999Y-46470004D03*
%TD*%
D13*
%TO.C,C1*%
X34259999Y-39460004D03*
X33299999Y-39460004D03*
%TD*%
D10*
%TO.C,R2*%
X51579999Y-37450004D03*
X51579999Y-38470004D03*
%TD*%
%TO.C,R2*%
X39579999Y-13450004D03*
X39579999Y-14470004D03*
%TD*%
D14*
%TO.C,R4*%
X37679999Y-44970004D03*
X37679999Y-43950004D03*
%TD*%
D10*
%TO.C,R3*%
X44479999Y-49502707D03*
X44479999Y-50522707D03*
%TD*%
D13*
%TO.C,C1*%
X46259999Y-15460004D03*
X45299999Y-15460004D03*
%TD*%
D14*
%TO.C,R1*%
X49779999Y-15970004D03*
X49779999Y-14950004D03*
%TD*%
D10*
%TO.C,R2*%
X63579999Y-13450004D03*
X63579999Y-14470004D03*
%TD*%
D14*
%TO.C,R1*%
X13779999Y-27970004D03*
X13779999Y-26950004D03*
%TD*%
D13*
%TO.C,C1*%
X10259999Y-15460004D03*
X9299999Y-15460004D03*
%TD*%
%TO.C,C1*%
X58259999Y-27460004D03*
X57299999Y-27460004D03*
%TD*%
D10*
%TO.C,R5*%
X15579999Y-9450004D03*
X15579999Y-10470004D03*
%TD*%
D11*
%TO.C,U1*%
X9749999Y-58187504D03*
D12*
X9474999Y-59250004D03*
X9474999Y-59750004D03*
X9474999Y-60250004D03*
X9474999Y-60750004D03*
D11*
X9749999Y-61812504D03*
X11249999Y-61812504D03*
X11749999Y-61812504D03*
X14249999Y-61812504D03*
D12*
X14524999Y-60750004D03*
X14524999Y-60250004D03*
X14524999Y-59250004D03*
D11*
X14249999Y-58187504D03*
X11749999Y-58187504D03*
X11249999Y-58187504D03*
X10249999Y-58187504D03*
%TD*%
%TO.C,U1*%
X33749999Y-58187504D03*
D12*
X33474999Y-59250004D03*
X33474999Y-59750004D03*
X33474999Y-60250004D03*
X33474999Y-60750004D03*
D11*
X33749999Y-61812504D03*
X35249999Y-61812504D03*
X35749999Y-61812504D03*
X38249999Y-61812504D03*
D12*
X38524999Y-60750004D03*
X38524999Y-60250004D03*
X38524999Y-59250004D03*
D11*
X38249999Y-58187504D03*
X35749999Y-58187504D03*
X35249999Y-58187504D03*
X34249999Y-58187504D03*
%TD*%
D10*
%TO.C,R3*%
X20479999Y-37502707D03*
X20479999Y-38522707D03*
%TD*%
D14*
%TO.C,R4*%
X13679999Y-20970004D03*
X13679999Y-19950004D03*
%TD*%
%TO.C,R4*%
X37679999Y-32970004D03*
X37679999Y-31950004D03*
%TD*%
D13*
%TO.C,C1*%
X34259999Y-15460004D03*
X33299999Y-15460004D03*
%TD*%
%TO.C,C1*%
X46259999Y-27460004D03*
X45299999Y-27460004D03*
%TD*%
D10*
%TO.C,R2*%
X63579999Y-37450004D03*
X63579999Y-38470004D03*
%TD*%
D14*
%TO.C,R1*%
X37779999Y-27970004D03*
X37779999Y-26950004D03*
%TD*%
D10*
%TO.C,R2*%
X51579999Y-13450004D03*
X51579999Y-14470004D03*
%TD*%
D11*
%TO.C,U1*%
X45749999Y-46187504D03*
D12*
X45474999Y-47250004D03*
X45474999Y-47750004D03*
X45474999Y-48250004D03*
X45474999Y-48750004D03*
D11*
X45749999Y-49812504D03*
X47249999Y-49812504D03*
X47749999Y-49812504D03*
X50249999Y-49812504D03*
D12*
X50524999Y-48750004D03*
X50524999Y-48250004D03*
X50524999Y-47250004D03*
D11*
X50249999Y-46187504D03*
X47749999Y-46187504D03*
X47249999Y-46187504D03*
X46249999Y-46187504D03*
%TD*%
D14*
%TO.C,R4*%
X49679999Y-32970004D03*
X49679999Y-31950004D03*
%TD*%
D11*
%TO.C,U1*%
X21749999Y-10187504D03*
D12*
X21474999Y-11250004D03*
X21474999Y-11750004D03*
X21474999Y-12250004D03*
X21474999Y-12750004D03*
D11*
X21749999Y-13812504D03*
X23249999Y-13812504D03*
X23749999Y-13812504D03*
X26249999Y-13812504D03*
D12*
X26524999Y-12750004D03*
X26524999Y-12250004D03*
X26524999Y-11250004D03*
D11*
X26249999Y-10187504D03*
X23749999Y-10187504D03*
X23249999Y-10187504D03*
X22249999Y-10187504D03*
%TD*%
D10*
%TO.C,R2*%
X15579999Y-49450004D03*
X15579999Y-50470004D03*
%TD*%
%TO.C,R3*%
X32479999Y-13502707D03*
X32479999Y-14522707D03*
%TD*%
D11*
%TO.C,U1*%
X57749999Y-46187504D03*
D12*
X57474999Y-47250004D03*
X57474999Y-47750004D03*
X57474999Y-48250004D03*
X57474999Y-48750004D03*
D11*
X57749999Y-49812504D03*
X59249999Y-49812504D03*
X59749999Y-49812504D03*
X62249999Y-49812504D03*
D12*
X62524999Y-48750004D03*
X62524999Y-48250004D03*
X62524999Y-47250004D03*
D11*
X62249999Y-46187504D03*
X59749999Y-46187504D03*
X59249999Y-46187504D03*
X58249999Y-46187504D03*
%TD*%
D13*
%TO.C,C1*%
X58259999Y-51460004D03*
X57299999Y-51460004D03*
%TD*%
%TO.C,C1*%
X22259999Y-27460004D03*
X21299999Y-27460004D03*
%TD*%
D10*
%TO.C,R5*%
X51579999Y-57450004D03*
X51579999Y-58470004D03*
%TD*%
D14*
%TO.C,R1*%
X61779999Y-39970004D03*
X61779999Y-38950004D03*
%TD*%
D10*
%TO.C,R2*%
X27579999Y-25450004D03*
X27579999Y-26470004D03*
%TD*%
%TO.C,R3*%
X20479999Y-49502707D03*
X20479999Y-50522707D03*
%TD*%
D14*
%TO.C,R1*%
X61779999Y-51970004D03*
X61779999Y-50950004D03*
%TD*%
%TO.C,R4*%
X61679999Y-32970004D03*
X61679999Y-31950004D03*
%TD*%
%TO.C,R4*%
X49679999Y-56970004D03*
X49679999Y-55950004D03*
%TD*%
%TO.C,R1*%
X37779999Y-51970004D03*
X37779999Y-50950004D03*
%TD*%
D10*
%TO.C,R5*%
X63579999Y-57450004D03*
X63579999Y-58470004D03*
%TD*%
%TO.C,R2*%
X39579999Y-37450004D03*
X39579999Y-38470004D03*
%TD*%
D14*
%TO.C,R1*%
X61779999Y-63970004D03*
X61779999Y-62950004D03*
%TD*%
%TO.C,R1*%
X49779999Y-51970004D03*
X49779999Y-50950004D03*
%TD*%
%TO.C,R1*%
X25779999Y-15970004D03*
X25779999Y-14950004D03*
%TD*%
%TO.C,R1*%
X37779999Y-15970004D03*
X37779999Y-14950004D03*
%TD*%
D10*
%TO.C,R2*%
X15579999Y-37450004D03*
X15579999Y-38470004D03*
%TD*%
D11*
%TO.C,U1*%
X57749999Y-34187504D03*
D12*
X57474999Y-35250004D03*
X57474999Y-35750004D03*
X57474999Y-36250004D03*
X57474999Y-36750004D03*
D11*
X57749999Y-37812504D03*
X59249999Y-37812504D03*
X59749999Y-37812504D03*
X62249999Y-37812504D03*
D12*
X62524999Y-36750004D03*
X62524999Y-36250004D03*
X62524999Y-35250004D03*
D11*
X62249999Y-34187504D03*
X59749999Y-34187504D03*
X59249999Y-34187504D03*
X58249999Y-34187504D03*
%TD*%
D10*
%TO.C,R3*%
X8479999Y-61502707D03*
X8479999Y-62522707D03*
%TD*%
D13*
%TO.C,C1*%
X46259999Y-63460004D03*
X45299999Y-63460004D03*
%TD*%
D14*
%TO.C,R4*%
X25679999Y-44970004D03*
X25679999Y-43950004D03*
%TD*%
D13*
%TO.C,C1*%
X10259999Y-63460004D03*
X9299999Y-63460004D03*
%TD*%
D14*
%TO.C,R4*%
X61679999Y-56970004D03*
X61679999Y-55950004D03*
%TD*%
D10*
%TO.C,R5*%
X39579999Y-9450004D03*
X39579999Y-10470004D03*
%TD*%
D14*
%TO.C,R4*%
X49679999Y-44970004D03*
X49679999Y-43950004D03*
%TD*%
%TO.C,R4*%
X61679999Y-44970004D03*
X61679999Y-43950004D03*
%TD*%
D10*
%TO.C,R3*%
X56479999Y-49502707D03*
X56479999Y-50522707D03*
%TD*%
D11*
%TO.C,U1*%
X57749999Y-58187504D03*
D12*
X57474999Y-59250004D03*
X57474999Y-59750004D03*
X57474999Y-60250004D03*
X57474999Y-60750004D03*
D11*
X57749999Y-61812504D03*
X59249999Y-61812504D03*
X59749999Y-61812504D03*
X62249999Y-61812504D03*
D12*
X62524999Y-60750004D03*
X62524999Y-60250004D03*
X62524999Y-59250004D03*
D11*
X62249999Y-58187504D03*
X59749999Y-58187504D03*
X59249999Y-58187504D03*
X58249999Y-58187504D03*
%TD*%
%TO.C,U1*%
X33749999Y-46187504D03*
D12*
X33474999Y-47250004D03*
X33474999Y-47750004D03*
X33474999Y-48250004D03*
X33474999Y-48750004D03*
D11*
X33749999Y-49812504D03*
X35249999Y-49812504D03*
X35749999Y-49812504D03*
X38249999Y-49812504D03*
D12*
X38524999Y-48750004D03*
X38524999Y-48250004D03*
X38524999Y-47250004D03*
D11*
X38249999Y-46187504D03*
X35749999Y-46187504D03*
X35249999Y-46187504D03*
X34249999Y-46187504D03*
%TD*%
%TO.C,U1*%
X33749999Y-34187504D03*
D12*
X33474999Y-35250004D03*
X33474999Y-35750004D03*
X33474999Y-36250004D03*
X33474999Y-36750004D03*
D11*
X33749999Y-37812504D03*
X35249999Y-37812504D03*
X35749999Y-37812504D03*
X38249999Y-37812504D03*
D12*
X38524999Y-36750004D03*
X38524999Y-36250004D03*
X38524999Y-35250004D03*
D11*
X38249999Y-34187504D03*
X35749999Y-34187504D03*
X35249999Y-34187504D03*
X34249999Y-34187504D03*
%TD*%
D10*
%TO.C,R5*%
X27579999Y-57450004D03*
X27579999Y-58470004D03*
%TD*%
D14*
%TO.C,R4*%
X61679999Y-8970004D03*
X61679999Y-7950004D03*
%TD*%
D10*
%TO.C,R3*%
X8479999Y-37502707D03*
X8479999Y-38522707D03*
%TD*%
D13*
%TO.C,C1*%
X34259999Y-51460004D03*
X33299999Y-51460004D03*
%TD*%
D10*
%TO.C,R3*%
X44479999Y-13502707D03*
X44479999Y-14522707D03*
%TD*%
%TO.C,R5*%
X27579999Y-9450004D03*
X27579999Y-10470004D03*
%TD*%
%TO.C,R2*%
X15579999Y-13450004D03*
X15579999Y-14470004D03*
%TD*%
D11*
%TO.C,U1*%
X9749999Y-22187504D03*
D12*
X9474999Y-23250004D03*
X9474999Y-23750004D03*
X9474999Y-24250004D03*
X9474999Y-24750004D03*
D11*
X9749999Y-25812504D03*
X11249999Y-25812504D03*
X11749999Y-25812504D03*
X14249999Y-25812504D03*
D12*
X14524999Y-24750004D03*
X14524999Y-24250004D03*
X14524999Y-23250004D03*
D11*
X14249999Y-22187504D03*
X11749999Y-22187504D03*
X11249999Y-22187504D03*
X10249999Y-22187504D03*
%TD*%
D10*
%TO.C,R3*%
X32479999Y-61502707D03*
X32479999Y-62522707D03*
%TD*%
D11*
%TO.C,U1*%
X21749999Y-34187504D03*
D12*
X21474999Y-35250004D03*
X21474999Y-35750004D03*
X21474999Y-36250004D03*
X21474999Y-36750004D03*
D11*
X21749999Y-37812504D03*
X23249999Y-37812504D03*
X23749999Y-37812504D03*
X26249999Y-37812504D03*
D12*
X26524999Y-36750004D03*
X26524999Y-36250004D03*
X26524999Y-35250004D03*
D11*
X26249999Y-34187504D03*
X23749999Y-34187504D03*
X23249999Y-34187504D03*
X22249999Y-34187504D03*
%TD*%
D10*
%TO.C,R5*%
X39579999Y-33450004D03*
X39579999Y-34470004D03*
%TD*%
D11*
%TO.C,U1*%
X57749999Y-10187504D03*
D12*
X57474999Y-11250004D03*
X57474999Y-11750004D03*
X57474999Y-12250004D03*
X57474999Y-12750004D03*
D11*
X57749999Y-13812504D03*
X59249999Y-13812504D03*
X59749999Y-13812504D03*
X62249999Y-13812504D03*
D12*
X62524999Y-12750004D03*
X62524999Y-12250004D03*
X62524999Y-11250004D03*
D11*
X62249999Y-10187504D03*
X59749999Y-10187504D03*
X59249999Y-10187504D03*
X58249999Y-10187504D03*
%TD*%
D14*
%TO.C,R1*%
X13779999Y-15970004D03*
X13779999Y-14950004D03*
%TD*%
D10*
%TO.C,R5*%
X39579999Y-57450004D03*
X39579999Y-58470004D03*
%TD*%
M02*
