M48
INCH
T1C0.0197
%
G90
G05
T1
X0.0Y-0.2756
X0.0Y-2.5591
X0.0328Y-0.2756
X0.0328Y-2.5591
X0.0656Y-0.2756
X0.0656Y-2.5591
X0.0984Y-0.2756
X0.0984Y-2.5591
X0.1312Y-0.2756
X0.1312Y-2.5591
X0.164Y-0.2756
X0.164Y-2.5591
X0.1969Y-0.2756
X0.1969Y-2.5591
X0.2707Y-0.4429
X0.2707Y-0.502
X0.2707Y-0.9154
X0.2707Y-0.9744
X0.2707Y-1.3878
X0.2707Y-1.4469
X0.2707Y-1.8602
X0.2707Y-1.9193
X0.2707Y-2.3327
X0.2707Y-2.3917
X0.2756Y0.0
X0.2756Y-0.0328
X0.2756Y-0.0656
X0.2756Y-0.0984
X0.2756Y-0.1312
X0.2756Y-0.164
X0.2756Y-0.1969
X0.2756Y-2.6378
X0.2756Y-2.6706
X0.2756Y-2.7034
X0.2756Y-2.7362
X0.2756Y-2.769
X0.2756Y-2.8018
X0.2756Y-2.8346
X0.4429Y-0.2707
X0.4429Y-0.6742
X0.4429Y-0.7431
X0.4429Y-1.1467
X0.4429Y-1.2156
X0.4429Y-1.6191
X0.4429Y-1.688
X0.4429Y-2.0915
X0.4429Y-2.1604
X0.4429Y-2.564
X0.502Y-0.2707
X0.502Y-0.6742
X0.502Y-0.7431
X0.502Y-1.1467
X0.502Y-1.2156
X0.502Y-1.6191
X0.502Y-1.688
X0.502Y-2.0915
X0.502Y-2.1604
X0.502Y-2.564
X0.6742Y-0.4429
X0.6742Y-0.502
X0.6742Y-0.9154
X0.6742Y-0.9744
X0.6742Y-1.3878
X0.6742Y-1.4469
X0.6742Y-1.8602
X0.6742Y-1.9193
X0.6742Y-2.3327
X0.6742Y-2.3917
X0.7431Y-0.4429
X0.7431Y-0.502
X0.7431Y-0.9154
X0.7431Y-0.9744
X0.7431Y-1.3878
X0.7431Y-1.4469
X0.7431Y-1.8602
X0.7431Y-1.9193
X0.7431Y-2.3327
X0.7431Y-2.3917
X0.9154Y-0.2707
X0.9154Y-0.6742
X0.9154Y-0.7431
X0.9154Y-1.1467
X0.9154Y-1.2156
X0.9154Y-1.6191
X0.9154Y-1.688
X0.9154Y-2.0915
X0.9154Y-2.1604
X0.9154Y-2.564
X0.9744Y-0.2707
X0.9744Y-0.6742
X0.9744Y-0.7431
X0.9744Y-1.1467
X0.9744Y-1.2156
X0.9744Y-1.6191
X0.9744Y-1.688
X0.9744Y-2.0915
X0.9744Y-2.1604
X0.9744Y-2.564
X1.1467Y-0.4429
X1.1467Y-0.502
X1.1467Y-0.9154
X1.1467Y-0.9744
X1.1467Y-1.3878
X1.1467Y-1.4469
X1.1467Y-1.8602
X1.1467Y-1.9193
X1.1467Y-2.3327
X1.1467Y-2.3917
X1.2156Y-0.4429
X1.2156Y-0.502
X1.2156Y-0.9154
X1.2156Y-0.9744
X1.2156Y-1.3878
X1.2156Y-1.4469
X1.2156Y-1.8602
X1.2156Y-1.9193
X1.2156Y-2.3327
X1.2156Y-2.3917
X1.3878Y-0.2707
X1.3878Y-0.6742
X1.3878Y-0.7431
X1.3878Y-1.1467
X1.3878Y-1.2156
X1.3878Y-1.6191
X1.3878Y-1.688
X1.3878Y-2.0915
X1.3878Y-2.1604
X1.3878Y-2.564
X1.4469Y-0.2707
X1.4469Y-0.6742
X1.4469Y-0.7431
X1.4469Y-1.1467
X1.4469Y-1.2156
X1.4469Y-1.6191
X1.4469Y-1.688
X1.4469Y-2.0915
X1.4469Y-2.1604
X1.4469Y-2.564
X1.6191Y-0.4429
X1.6191Y-0.502
X1.6191Y-0.9154
X1.6191Y-0.9744
X1.6191Y-1.3878
X1.6191Y-1.4469
X1.6191Y-1.8602
X1.6191Y-1.9193
X1.6191Y-2.3327
X1.6191Y-2.3917
X1.688Y-0.4429
X1.688Y-0.502
X1.688Y-0.9154
X1.688Y-0.9744
X1.688Y-1.3878
X1.688Y-1.4469
X1.688Y-1.8602
X1.688Y-1.9193
X1.688Y-2.3327
X1.688Y-2.3917
X1.8602Y-0.2707
X1.8602Y-0.6742
X1.8602Y-0.7431
X1.8602Y-1.1467
X1.8602Y-1.2156
X1.8602Y-1.6191
X1.8602Y-1.688
X1.8602Y-2.0915
X1.8602Y-2.1604
X1.8602Y-2.564
X1.9193Y-0.2707
X1.9193Y-0.6742
X1.9193Y-0.7431
X1.9193Y-1.1467
X1.9193Y-1.2156
X1.9193Y-1.6191
X1.9193Y-1.688
X1.9193Y-2.0915
X1.9193Y-2.1604
X1.9193Y-2.564
X2.0915Y-0.4429
X2.0915Y-0.502
X2.0915Y-0.9154
X2.0915Y-0.9744
X2.0915Y-1.3878
X2.0915Y-1.4469
X2.0915Y-1.8602
X2.0915Y-1.9193
X2.0915Y-2.3327
X2.0915Y-2.3917
X2.1604Y-0.4429
X2.1604Y-0.502
X2.1604Y-0.9154
X2.1604Y-0.9744
X2.1604Y-1.3878
X2.1604Y-1.4469
X2.1604Y-1.8602
X2.1604Y-1.9193
X2.1604Y-2.3327
X2.1604Y-2.3917
X2.3327Y-0.2707
X2.3327Y-0.6742
X2.3327Y-0.7431
X2.3327Y-1.1467
X2.3327Y-1.2156
X2.3327Y-1.6191
X2.3327Y-1.688
X2.3327Y-2.0915
X2.3327Y-2.1604
X2.3327Y-2.564
X2.3917Y-0.2707
X2.3917Y-0.6742
X2.3917Y-0.7431
X2.3917Y-1.1467
X2.3917Y-1.2156
X2.3917Y-1.6191
X2.3917Y-1.688
X2.3917Y-2.0915
X2.3917Y-2.1604
X2.3917Y-2.564
X2.5591Y0.0
X2.5591Y-0.0328
X2.5591Y-0.0656
X2.5591Y-0.0984
X2.5591Y-0.1312
X2.5591Y-0.164
X2.5591Y-0.1969
X2.5591Y-2.6378
X2.5591Y-2.6706
X2.5591Y-2.7034
X2.5591Y-2.7362
X2.5591Y-2.769
X2.5591Y-2.8018
X2.5591Y-2.8346
X2.564Y-0.4429
X2.564Y-0.502
X2.564Y-0.9154
X2.564Y-0.9744
X2.564Y-1.3878
X2.564Y-1.4469
X2.564Y-1.8602
X2.564Y-1.9193
X2.564Y-2.3327
X2.564Y-2.3917
X2.6378Y-0.2756
X2.6378Y-2.5591
X2.6706Y-0.2756
X2.6706Y-2.5591
X2.7034Y-0.2756
X2.7034Y-2.5591
X2.7362Y-0.2756
X2.7362Y-2.5591
X2.769Y-0.2756
X2.769Y-2.5591
X2.8018Y-0.2756
X2.8018Y-2.5591
X2.8346Y-0.2756
X2.8346Y-2.5591
T0
M30
