%TF.GenerationSoftware,KiCad,Pcbnew,7.0.5-1.fc38*%
%TF.CreationDate,2023-07-07T14:21:35-04:00*%
%TF.ProjectId,bno085-i2c-board-v3-square,626e6f30-3835-42d6-9932-632d626f6172,rev?*%
%TF.SameCoordinates,Original*%
%TF.FileFunction,Copper,L1,Top*%
%TF.FilePolarity,Positive*%
%FSLAX46Y46*%
G04 Gerber Fmt 4.6, Leading zero omitted, Abs format (unit mm)*
G04 Created by KiCad (PCBNEW 7.0.5-1.fc38) date 2023-07-07 14:21:35*
%MOMM*%
%LPD*%
G01*
G04 APERTURE LIST*
G04 Aperture macros list*
%AMRoundRect*
0 Rectangle with rounded corners*
0 $1 Rounding radius*
0 $2 $3 $4 $5 $6 $7 $8 $9 X,Y pos of 4 corners*
0 Add a 4 corners polygon primitive as box body*
4,1,4,$2,$3,$4,$5,$6,$7,$8,$9,$2,$3,0*
0 Add four circle primitives for the rounded corners*
1,1,$1+$1,$2,$3*
1,1,$1+$1,$4,$5*
1,1,$1+$1,$6,$7*
1,1,$1+$1,$8,$9*
0 Add four rect primitives between the rounded corners*
20,1,$1+$1,$2,$3,$4,$5,0*
20,1,$1+$1,$4,$5,$6,$7,0*
20,1,$1+$1,$6,$7,$8,$9,0*
20,1,$1+$1,$8,$9,$2,$3,0*%
G04 Aperture macros list end*
%TA.AperFunction,SMDPad,CuDef*%
%ADD10RoundRect,0.140000X0.140000X0.170000X-0.140000X0.170000X-0.140000X-0.170000X0.140000X-0.170000X0*%
%TD*%
%TA.AperFunction,SMDPad,CuDef*%
%ADD11RoundRect,0.135000X-0.185000X0.135000X-0.185000X-0.135000X0.185000X-0.135000X0.185000X0.135000X0*%
%TD*%
%TA.AperFunction,SMDPad,CuDef*%
%ADD12RoundRect,0.135000X0.185000X-0.135000X0.185000X0.135000X-0.185000X0.135000X-0.185000X-0.135000X0*%
%TD*%
%TA.AperFunction,SMDPad,CuDef*%
%ADD13R,0.254000X0.675000*%
%TD*%
%TA.AperFunction,SMDPad,CuDef*%
%ADD14R,0.675000X0.254000*%
%TD*%
%TA.AperFunction,ComponentPad*%
%ADD15R,0.850000X0.850000*%
%TD*%
%TA.AperFunction,ComponentPad*%
%ADD16O,0.850000X0.850000*%
%TD*%
%TA.AperFunction,ViaPad*%
%ADD17C,0.800000*%
%TD*%
%TA.AperFunction,Conductor*%
%ADD18C,0.250000*%
%TD*%
G04 APERTURE END LIST*
D10*
%TO.P,C1,1*%
%TO.N,Net-(U1-CAP)*%
X66922887Y-72806451D03*
%TO.P,C1,2*%
%TO.N,GND*%
X65962887Y-72806451D03*
%TD*%
D11*
%TO.P,R4,1*%
%TO.N,Net-(J5-Pin_4)*%
X71479924Y-66390678D03*
%TO.P,R4,2*%
%TO.N,+3.3V*%
X71479924Y-67410678D03*
%TD*%
D12*
%TO.P,R3,1*%
%TO.N,Net-(U1-BOOTN)*%
X69084885Y-73805991D03*
%TO.P,R3,2*%
%TO.N,+3.3V*%
X69084885Y-72785991D03*
%TD*%
D11*
%TO.P,R1,1*%
%TO.N,+3.3V*%
X71025001Y-72769619D03*
%TO.P,R1,2*%
%TO.N,Net-(U1-ENV_SCL)*%
X71025001Y-73789619D03*
%TD*%
D13*
%TO.P,U1,1,RESV_NC*%
%TO.N,unconnected-(U1-RESV_NC-Pad1)*%
X66250000Y-68425000D03*
D14*
%TO.P,U1,2,GND*%
%TO.N,GND*%
X66112500Y-69337500D03*
%TO.P,U1,3,VDD*%
%TO.N,+3.3V*%
X66112500Y-69837500D03*
%TO.P,U1,4,BOOTN*%
%TO.N,Net-(U1-BOOTN)*%
X66112500Y-70337500D03*
%TO.P,U1,5,PS1*%
%TO.N,GND*%
X66112500Y-70837500D03*
D13*
%TO.P,U1,6,PS0/WAKE*%
X66250000Y-71750000D03*
%TO.P,U1,7,RESV_NC*%
%TO.N,unconnected-(U1-RESV_NC-Pad7)*%
X66750000Y-71750000D03*
%TO.P,U1,8,RESV_NC*%
%TO.N,unconnected-(U1-RESV_NC-Pad8)*%
X67250000Y-71750000D03*
%TO.P,U1,9,CAP*%
%TO.N,Net-(U1-CAP)*%
X67750000Y-71750000D03*
%TO.P,U1,10,CLKSEL0*%
%TO.N,+3.3V*%
X68250000Y-71750000D03*
%TO.P,U1,11,NRST*%
%TO.N,unconnected-(U1-NRST-Pad11)*%
X68750000Y-71750000D03*
%TO.P,U1,12,RESV_NC*%
%TO.N,unconnected-(U1-RESV_NC-Pad12)*%
X69250000Y-71750000D03*
%TO.P,U1,13,RESV_NC*%
%TO.N,unconnected-(U1-RESV_NC-Pad13)*%
X69750000Y-71750000D03*
%TO.P,U1,14,H_INTN*%
%TO.N,unconnected-(U1-H_INTN-Pad14)*%
X70250000Y-71750000D03*
%TO.P,U1,15,ENV_SCL*%
%TO.N,Net-(U1-ENV_SCL)*%
X70750000Y-71750000D03*
D14*
%TO.P,U1,16,ENV_SDA*%
%TO.N,Net-(U1-ENV_SDA)*%
X70887500Y-70837500D03*
%TO.P,U1,17,SA0/H_MOSI*%
%TO.N,GND*%
X70887500Y-70337500D03*
%TO.P,U1,18,H_CSN*%
%TO.N,unconnected-(U1-H_CSN-Pad18)*%
X70887500Y-69837500D03*
%TO.P,U1,19,H_SCL/SCK/RX*%
%TO.N,Net-(J5-Pin_3)*%
X70887500Y-69337500D03*
D13*
%TO.P,U1,20,H_SDA/H_MISO/TX*%
%TO.N,Net-(J5-Pin_4)*%
X70750000Y-68425000D03*
%TO.P,U1,21,RESV_NC*%
%TO.N,unconnected-(U1-RESV_NC-Pad21)*%
X70250000Y-68425000D03*
%TO.P,U1,22,RESV_NC*%
%TO.N,unconnected-(U1-RESV_NC-Pad22)*%
X69750000Y-68425000D03*
%TO.P,U1,23,RESV_NC*%
%TO.N,unconnected-(U1-RESV_NC-Pad23)*%
X69250000Y-68425000D03*
%TO.P,U1,24,RESV_NC*%
%TO.N,unconnected-(U1-RESV_NC-Pad24)*%
X68750000Y-68425000D03*
%TO.P,U1,25,GNDIO*%
%TO.N,GND*%
X68250000Y-68425000D03*
%TO.P,U1,26,XOUT32/CLKSEL1*%
X67750000Y-68425000D03*
%TO.P,U1,27,XIN32*%
%TO.N,unconnected-(U1-XIN32-Pad27)*%
X67250000Y-68425000D03*
%TO.P,U1,28,VDDIO*%
%TO.N,+3.3V*%
X66750000Y-68425000D03*
%TD*%
D12*
%TO.P,R5,1*%
%TO.N,+3.3V*%
X65515173Y-67387101D03*
%TO.P,R5,2*%
%TO.N,Net-(J5-Pin_3)*%
X65515173Y-66367101D03*
%TD*%
D15*
%TO.P,J5,1,Pin_1*%
%TO.N,GND*%
X67009337Y-64770000D03*
D16*
%TO.P,J5,2,Pin_2*%
%TO.N,+3.3V*%
X68009337Y-64770000D03*
%TO.P,J5,3,Pin_3*%
%TO.N,Net-(J5-Pin_3)*%
X69009337Y-64770000D03*
%TO.P,J5,4,Pin_4*%
%TO.N,Net-(J5-Pin_4)*%
X70009337Y-64770000D03*
%TD*%
D12*
%TO.P,R2,1*%
%TO.N,Net-(U1-ENV_SDA)*%
X70050850Y-73814177D03*
%TO.P,R2,2*%
%TO.N,+3.3V*%
X70050850Y-72794177D03*
%TD*%
D17*
%TO.N,GND*%
X69250000Y-70750000D03*
X67250000Y-70562000D03*
%TO.N,+3.3V*%
X65250000Y-68500000D03*
%TO.N,Net-(J5-Pin_3)*%
X69325867Y-69664872D03*
%TD*%
D18*
%TO.N,Net-(U1-CAP)*%
X67308049Y-72806451D02*
X67750000Y-72364500D01*
X66922887Y-72806451D02*
X67308049Y-72806451D01*
X67750000Y-72364500D02*
X67750000Y-71750000D01*
%TO.N,GND*%
X68250000Y-69613604D02*
X68250000Y-68425000D01*
X69662500Y-70337500D02*
X70887500Y-70337500D01*
X65962887Y-72037113D02*
X66250000Y-71750000D01*
X65962887Y-72806451D02*
X65962887Y-72037113D01*
X67750000Y-69039500D02*
X67452000Y-69337500D01*
X67750000Y-68425000D02*
X67750000Y-69039500D01*
X68250000Y-68310500D02*
X68250000Y-68425000D01*
X67750000Y-67810500D02*
X68250000Y-68310500D01*
X69250000Y-70750000D02*
X69250000Y-70613604D01*
X66250000Y-70975000D02*
X66112500Y-70837500D01*
X69250000Y-70750000D02*
X69662500Y-70337500D01*
X67452000Y-69337500D02*
X66112500Y-69337500D01*
X66250000Y-71750000D02*
X66250000Y-70975000D01*
X69250000Y-70613604D02*
X68250000Y-69613604D01*
X66112500Y-70837500D02*
X66974500Y-70837500D01*
X67750000Y-67810500D02*
X67750000Y-68425000D01*
X66974500Y-70837500D02*
X67250000Y-70562000D01*
X67009337Y-67069837D02*
X67750000Y-67810500D01*
X67009337Y-64770000D02*
X67009337Y-67069837D01*
%TO.N,+3.3V*%
X70050850Y-72794177D02*
X71000443Y-72794177D01*
X71000443Y-72794177D02*
X71025001Y-72769619D01*
X66750000Y-67750000D02*
X66500000Y-67500000D01*
X65250000Y-69589500D02*
X65498000Y-69837500D01*
X66250000Y-67500000D02*
X65250000Y-68500000D01*
X68250000Y-70250000D02*
X68250000Y-71750000D01*
X68671491Y-72785991D02*
X68250000Y-72364500D01*
X68250000Y-72364500D02*
X68250000Y-71750000D01*
X70042664Y-72785991D02*
X70050850Y-72794177D01*
X69084885Y-72785991D02*
X68671491Y-72785991D01*
X65250000Y-68500000D02*
X65250000Y-69589500D01*
X65250000Y-68500000D02*
X65250000Y-67652274D01*
X66500000Y-67500000D02*
X66250000Y-67500000D01*
X69084885Y-72785991D02*
X70042664Y-72785991D01*
X71479924Y-67410678D02*
X70048975Y-67410678D01*
X67837500Y-69837500D02*
X68250000Y-70250000D01*
X66112500Y-69837500D02*
X67837500Y-69837500D01*
X70048975Y-67410678D02*
X68009337Y-65371040D01*
X66750000Y-68425000D02*
X66750000Y-67750000D01*
X65498000Y-69837500D02*
X66112500Y-69837500D01*
X65250000Y-67652274D02*
X65515173Y-67387101D01*
X68009337Y-65371040D02*
X68009337Y-64770000D01*
%TO.N,Net-(U1-ENV_SCL)*%
X70975920Y-71750000D02*
X70750000Y-71750000D01*
X71750000Y-72524080D02*
X70975920Y-71750000D01*
X71025001Y-73789619D02*
X71242691Y-73789619D01*
X71242691Y-73789619D02*
X71750000Y-73282310D01*
X71750000Y-73282310D02*
X71750000Y-72524080D01*
%TO.N,Net-(U1-ENV_SDA)*%
X70621292Y-74384619D02*
X71615381Y-74384619D01*
X72200000Y-73800000D02*
X72200000Y-72150000D01*
X72200000Y-72150000D02*
X70887500Y-70837500D01*
X71615381Y-74384619D02*
X72200000Y-73800000D01*
X70050850Y-73814177D02*
X70621292Y-74384619D01*
%TO.N,Net-(U1-BOOTN)*%
X65250000Y-70585500D02*
X65250000Y-73061173D01*
X65994818Y-73805991D02*
X69084885Y-73805991D01*
X66112500Y-70337500D02*
X65498000Y-70337500D01*
X65498000Y-70337500D02*
X65250000Y-70585500D01*
X65250000Y-73061173D02*
X65994818Y-73805991D01*
%TO.N,Net-(J5-Pin_3)*%
X65515173Y-64764164D02*
X66259337Y-64020000D01*
X68319998Y-64020000D02*
X69009337Y-64709339D01*
X66259337Y-64020000D02*
X68319998Y-64020000D01*
X69653239Y-69337500D02*
X69325867Y-69664872D01*
X70887500Y-69337500D02*
X69653239Y-69337500D01*
X65515173Y-66367101D02*
X65515173Y-64764164D01*
X69009337Y-64709339D02*
X69009337Y-64770000D01*
%TO.N,Net-(J5-Pin_4)*%
X70009337Y-64920091D02*
X71124623Y-66035377D01*
X72124924Y-67035678D02*
X72124924Y-67875076D01*
X71124623Y-66035377D02*
X71479924Y-66390678D01*
X72124924Y-67875076D02*
X71575000Y-68425000D01*
X71124623Y-66035377D02*
X72124924Y-67035678D01*
X70009337Y-64770000D02*
X70009337Y-64920091D01*
X71575000Y-68425000D02*
X70750000Y-68425000D01*
%TD*%
M02*
