%TF.GenerationSoftware,KiCad,Pcbnew,7.0.5-1.fc38*%
%TF.CreationDate,2023-07-07T14:29:09-04:00*%
%TF.ProjectId,bno085-i2c-board-v3-square,626e6f30-3835-42d6-9932-632d626f6172,rev?*%
%TF.SameCoordinates,Original*%
%TF.FileFunction,Drillmap*%
%TF.FilePolarity,Positive*%
%FSLAX45Y45*%
G04 Gerber Fmt 4.5, Leading zero omitted, Abs format (unit mm)*
G04 Created by KiCad (PCBNEW 7.0.5-1.fc38) date 2023-07-07 14:29:09*
%MOMM*%
%LPD*%
G01*
G04 APERTURE LIST*
%ADD10C,0.100000*%
%ADD11C,0.200000*%
G04 APERTURE END LIST*
D10*
X7240000Y-7490000D02*
G75*
G03*
X7260000Y-7470000I0J20000D01*
G01*
X7240000Y-6360000D02*
X6480000Y-6360000D01*
X6460000Y-7470000D02*
X6460000Y-6380000D01*
X7260000Y-6380000D02*
G75*
G03*
X7240000Y-6360000I-20000J0D01*
G01*
X7240000Y-7490000D02*
X6480000Y-7490000D01*
X6480000Y-6360000D02*
G75*
G03*
X6460000Y-6380000I0J-20000D01*
G01*
X6460000Y-7470000D02*
G75*
G03*
X6480000Y-7490000I20000J0D01*
G01*
X7260000Y-7470000D02*
X7260000Y-6380000D01*
D11*
X6715777Y-7806484D02*
X6715777Y-7606484D01*
X6715777Y-7606484D02*
X6763396Y-7606484D01*
X6763396Y-7606484D02*
X6791967Y-7616008D01*
X6791967Y-7616008D02*
X6811015Y-7635055D01*
X6811015Y-7635055D02*
X6820539Y-7654103D01*
X6820539Y-7654103D02*
X6830062Y-7692198D01*
X6830062Y-7692198D02*
X6830062Y-7720769D01*
X6830062Y-7720769D02*
X6820539Y-7758865D01*
X6820539Y-7758865D02*
X6811015Y-7777912D01*
X6811015Y-7777912D02*
X6791967Y-7796960D01*
X6791967Y-7796960D02*
X6763396Y-7806484D01*
X6763396Y-7806484D02*
X6715777Y-7806484D01*
X6915777Y-7806484D02*
X6915777Y-7673150D01*
X6915777Y-7711246D02*
X6925301Y-7692198D01*
X6925301Y-7692198D02*
X6934824Y-7682674D01*
X6934824Y-7682674D02*
X6953872Y-7673150D01*
X6953872Y-7673150D02*
X6972920Y-7673150D01*
X7039586Y-7806484D02*
X7039586Y-7673150D01*
X7039586Y-7606484D02*
X7030062Y-7616008D01*
X7030062Y-7616008D02*
X7039586Y-7625531D01*
X7039586Y-7625531D02*
X7049110Y-7616008D01*
X7049110Y-7616008D02*
X7039586Y-7606484D01*
X7039586Y-7606484D02*
X7039586Y-7625531D01*
X7163396Y-7806484D02*
X7144348Y-7796960D01*
X7144348Y-7796960D02*
X7134824Y-7777912D01*
X7134824Y-7777912D02*
X7134824Y-7606484D01*
X7268158Y-7806484D02*
X7249110Y-7796960D01*
X7249110Y-7796960D02*
X7239586Y-7777912D01*
X7239586Y-7777912D02*
X7239586Y-7606484D01*
X7496729Y-7806484D02*
X7496729Y-7606484D01*
X7496729Y-7606484D02*
X7563396Y-7749341D01*
X7563396Y-7749341D02*
X7630062Y-7606484D01*
X7630062Y-7606484D02*
X7630062Y-7806484D01*
X7811015Y-7806484D02*
X7811015Y-7701722D01*
X7811015Y-7701722D02*
X7801491Y-7682674D01*
X7801491Y-7682674D02*
X7782443Y-7673150D01*
X7782443Y-7673150D02*
X7744348Y-7673150D01*
X7744348Y-7673150D02*
X7725301Y-7682674D01*
X7811015Y-7796960D02*
X7791967Y-7806484D01*
X7791967Y-7806484D02*
X7744348Y-7806484D01*
X7744348Y-7806484D02*
X7725301Y-7796960D01*
X7725301Y-7796960D02*
X7715777Y-7777912D01*
X7715777Y-7777912D02*
X7715777Y-7758865D01*
X7715777Y-7758865D02*
X7725301Y-7739817D01*
X7725301Y-7739817D02*
X7744348Y-7730293D01*
X7744348Y-7730293D02*
X7791967Y-7730293D01*
X7791967Y-7730293D02*
X7811015Y-7720769D01*
X7906253Y-7673150D02*
X7906253Y-7873150D01*
X7906253Y-7682674D02*
X7925301Y-7673150D01*
X7925301Y-7673150D02*
X7963396Y-7673150D01*
X7963396Y-7673150D02*
X7982443Y-7682674D01*
X7982443Y-7682674D02*
X7991967Y-7692198D01*
X7991967Y-7692198D02*
X8001491Y-7711246D01*
X8001491Y-7711246D02*
X8001491Y-7768388D01*
X8001491Y-7768388D02*
X7991967Y-7787436D01*
X7991967Y-7787436D02*
X7982443Y-7796960D01*
X7982443Y-7796960D02*
X7963396Y-7806484D01*
X7963396Y-7806484D02*
X7925301Y-7806484D01*
X7925301Y-7806484D02*
X7906253Y-7796960D01*
X8087205Y-7787436D02*
X8096729Y-7796960D01*
X8096729Y-7796960D02*
X8087205Y-7806484D01*
X8087205Y-7806484D02*
X8077682Y-7796960D01*
X8077682Y-7796960D02*
X8087205Y-7787436D01*
X8087205Y-7787436D02*
X8087205Y-7806484D01*
X8087205Y-7682674D02*
X8096729Y-7692198D01*
X8096729Y-7692198D02*
X8087205Y-7701722D01*
X8087205Y-7701722D02*
X8077682Y-7692198D01*
X8077682Y-7692198D02*
X8087205Y-7682674D01*
X8087205Y-7682674D02*
X8087205Y-7701722D01*
M02*
