%TF.GenerationSoftware,KiCad,Pcbnew,7.0.5-1.fc38*%
%TF.CreationDate,2023-07-07T14:28:51-04:00*%
%TF.ProjectId,bno085-i2c-board-v3-panel-base,626e6f30-3835-42d6-9932-632d626f6172,rev?*%
%TF.SameCoordinates,Original*%
%TF.FileFunction,Drillmap*%
%TF.FilePolarity,Positive*%
%FSLAX45Y45*%
G04 Gerber Fmt 4.5, Leading zero omitted, Abs format (unit mm)*
G04 Created by KiCad (PCBNEW 7.0.5-1.fc38) date 2023-07-07 14:28:51*
%MOMM*%
%LPD*%
G01*
G04 APERTURE LIST*
%ADD10C,0.050000*%
%ADD11C,0.200000*%
%ADD12C,0.040000*%
G04 APERTURE END LIST*
D10*
X8325457Y-6423918D02*
G75*
G03*
X8300000Y-6500000I474553J-201082D01*
G01*
X8300000Y-6750000D02*
X8300000Y-6500000D01*
X8675000Y-6125000D02*
G75*
G03*
X8598918Y-6150457I125000J-500010D01*
G01*
X8325457Y-6423918D02*
G75*
G03*
X8598918Y-6150457I-25457J298918D01*
G01*
X8925000Y-7125000D02*
G75*
G03*
X9300000Y-6750000I-125000J500000D01*
G01*
X8300000Y-6750000D02*
G75*
G03*
X8675000Y-7125000I500000J125000D01*
G01*
X8925000Y-6125000D02*
X8675000Y-6125000D01*
X8925000Y-7125000D02*
X8675000Y-7125000D01*
X9300000Y-6500000D02*
G75*
G03*
X8925000Y-6125000I-500000J-125000D01*
G01*
X9300000Y-6750000D02*
X9300000Y-6500000D01*
D11*
D12*
X8480686Y-6940340D02*
X8520686Y-6980340D01*
X8520686Y-6940340D02*
X8480686Y-6980340D01*
X8637845Y-6665305D02*
X8677845Y-6705305D01*
X8677845Y-6665305D02*
X8637845Y-6705305D01*
X8730000Y-6530000D02*
X8770000Y-6570000D01*
X8770000Y-6530000D02*
X8730000Y-6570000D01*
X8881230Y-6553770D02*
X8921230Y-6593770D01*
X8921230Y-6553770D02*
X8881230Y-6593770D01*
X9055000Y-6255000D02*
X9095000Y-6295000D01*
X9095000Y-6255000D02*
X9055000Y-6295000D01*
X9080000Y-6930000D02*
X9120000Y-6970000D01*
X9120000Y-6930000D02*
X9080000Y-6970000D01*
D10*
X8400000Y-6625000D02*
G75*
G03*
X8400000Y-6625000I-25000J0D01*
G01*
X8825000Y-6200000D02*
G75*
G03*
X8825000Y-6200000I-25000J0D01*
G01*
X8825000Y-7050000D02*
G75*
G03*
X8825000Y-7050000I-25000J0D01*
G01*
X9250000Y-6625000D02*
G75*
G03*
X9250000Y-6625000I-25000J0D01*
G01*
D11*
X8558277Y-7438984D02*
X8558277Y-7238984D01*
X8558277Y-7238984D02*
X8605896Y-7238984D01*
X8605896Y-7238984D02*
X8634467Y-7248508D01*
X8634467Y-7248508D02*
X8653515Y-7267555D01*
X8653515Y-7267555D02*
X8663039Y-7286603D01*
X8663039Y-7286603D02*
X8672563Y-7324698D01*
X8672563Y-7324698D02*
X8672563Y-7353269D01*
X8672563Y-7353269D02*
X8663039Y-7391365D01*
X8663039Y-7391365D02*
X8653515Y-7410412D01*
X8653515Y-7410412D02*
X8634467Y-7429460D01*
X8634467Y-7429460D02*
X8605896Y-7438984D01*
X8605896Y-7438984D02*
X8558277Y-7438984D01*
X8758277Y-7438984D02*
X8758277Y-7305650D01*
X8758277Y-7343746D02*
X8767801Y-7324698D01*
X8767801Y-7324698D02*
X8777324Y-7315174D01*
X8777324Y-7315174D02*
X8796372Y-7305650D01*
X8796372Y-7305650D02*
X8815420Y-7305650D01*
X8882086Y-7438984D02*
X8882086Y-7305650D01*
X8882086Y-7238984D02*
X8872563Y-7248508D01*
X8872563Y-7248508D02*
X8882086Y-7258031D01*
X8882086Y-7258031D02*
X8891610Y-7248508D01*
X8891610Y-7248508D02*
X8882086Y-7238984D01*
X8882086Y-7238984D02*
X8882086Y-7258031D01*
X9005896Y-7438984D02*
X8986848Y-7429460D01*
X8986848Y-7429460D02*
X8977324Y-7410412D01*
X8977324Y-7410412D02*
X8977324Y-7238984D01*
X9110658Y-7438984D02*
X9091610Y-7429460D01*
X9091610Y-7429460D02*
X9082086Y-7410412D01*
X9082086Y-7410412D02*
X9082086Y-7238984D01*
X9339229Y-7438984D02*
X9339229Y-7238984D01*
X9339229Y-7238984D02*
X9405896Y-7381841D01*
X9405896Y-7381841D02*
X9472563Y-7238984D01*
X9472563Y-7238984D02*
X9472563Y-7438984D01*
X9653515Y-7438984D02*
X9653515Y-7334222D01*
X9653515Y-7334222D02*
X9643991Y-7315174D01*
X9643991Y-7315174D02*
X9624944Y-7305650D01*
X9624944Y-7305650D02*
X9586848Y-7305650D01*
X9586848Y-7305650D02*
X9567801Y-7315174D01*
X9653515Y-7429460D02*
X9634467Y-7438984D01*
X9634467Y-7438984D02*
X9586848Y-7438984D01*
X9586848Y-7438984D02*
X9567801Y-7429460D01*
X9567801Y-7429460D02*
X9558277Y-7410412D01*
X9558277Y-7410412D02*
X9558277Y-7391365D01*
X9558277Y-7391365D02*
X9567801Y-7372317D01*
X9567801Y-7372317D02*
X9586848Y-7362793D01*
X9586848Y-7362793D02*
X9634467Y-7362793D01*
X9634467Y-7362793D02*
X9653515Y-7353269D01*
X9748753Y-7305650D02*
X9748753Y-7505650D01*
X9748753Y-7315174D02*
X9767801Y-7305650D01*
X9767801Y-7305650D02*
X9805896Y-7305650D01*
X9805896Y-7305650D02*
X9824944Y-7315174D01*
X9824944Y-7315174D02*
X9834467Y-7324698D01*
X9834467Y-7324698D02*
X9843991Y-7343746D01*
X9843991Y-7343746D02*
X9843991Y-7400888D01*
X9843991Y-7400888D02*
X9834467Y-7419936D01*
X9834467Y-7419936D02*
X9824944Y-7429460D01*
X9824944Y-7429460D02*
X9805896Y-7438984D01*
X9805896Y-7438984D02*
X9767801Y-7438984D01*
X9767801Y-7438984D02*
X9748753Y-7429460D01*
X9929705Y-7419936D02*
X9939229Y-7429460D01*
X9939229Y-7429460D02*
X9929705Y-7438984D01*
X9929705Y-7438984D02*
X9920182Y-7429460D01*
X9920182Y-7429460D02*
X9929705Y-7419936D01*
X9929705Y-7419936D02*
X9929705Y-7438984D01*
X9929705Y-7315174D02*
X9939229Y-7324698D01*
X9939229Y-7324698D02*
X9929705Y-7334222D01*
X9929705Y-7334222D02*
X9920182Y-7324698D01*
X9920182Y-7324698D02*
X9929705Y-7315174D01*
X9929705Y-7315174D02*
X9929705Y-7334222D01*
D12*
X8257500Y-7747500D02*
X8297500Y-7787500D01*
X8297500Y-7747500D02*
X8257500Y-7787500D01*
D11*
X8596372Y-7658984D02*
X8615420Y-7658984D01*
X8615420Y-7658984D02*
X8634467Y-7668508D01*
X8634467Y-7668508D02*
X8643991Y-7678031D01*
X8643991Y-7678031D02*
X8653515Y-7697079D01*
X8653515Y-7697079D02*
X8663039Y-7735174D01*
X8663039Y-7735174D02*
X8663039Y-7782793D01*
X8663039Y-7782793D02*
X8653515Y-7820888D01*
X8653515Y-7820888D02*
X8643991Y-7839936D01*
X8643991Y-7839936D02*
X8634467Y-7849460D01*
X8634467Y-7849460D02*
X8615420Y-7858984D01*
X8615420Y-7858984D02*
X8596372Y-7858984D01*
X8596372Y-7858984D02*
X8577324Y-7849460D01*
X8577324Y-7849460D02*
X8567801Y-7839936D01*
X8567801Y-7839936D02*
X8558277Y-7820888D01*
X8558277Y-7820888D02*
X8548753Y-7782793D01*
X8548753Y-7782793D02*
X8548753Y-7735174D01*
X8548753Y-7735174D02*
X8558277Y-7697079D01*
X8558277Y-7697079D02*
X8567801Y-7678031D01*
X8567801Y-7678031D02*
X8577324Y-7668508D01*
X8577324Y-7668508D02*
X8596372Y-7658984D01*
X8748753Y-7839936D02*
X8758277Y-7849460D01*
X8758277Y-7849460D02*
X8748753Y-7858984D01*
X8748753Y-7858984D02*
X8739229Y-7849460D01*
X8739229Y-7849460D02*
X8748753Y-7839936D01*
X8748753Y-7839936D02*
X8748753Y-7858984D01*
X8929705Y-7725650D02*
X8929705Y-7858984D01*
X8882086Y-7649460D02*
X8834467Y-7792317D01*
X8834467Y-7792317D02*
X8958277Y-7792317D01*
X9072563Y-7658984D02*
X9091610Y-7658984D01*
X9091610Y-7658984D02*
X9110658Y-7668508D01*
X9110658Y-7668508D02*
X9120182Y-7678031D01*
X9120182Y-7678031D02*
X9129705Y-7697079D01*
X9129705Y-7697079D02*
X9139229Y-7735174D01*
X9139229Y-7735174D02*
X9139229Y-7782793D01*
X9139229Y-7782793D02*
X9129705Y-7820888D01*
X9129705Y-7820888D02*
X9120182Y-7839936D01*
X9120182Y-7839936D02*
X9110658Y-7849460D01*
X9110658Y-7849460D02*
X9091610Y-7858984D01*
X9091610Y-7858984D02*
X9072563Y-7858984D01*
X9072563Y-7858984D02*
X9053515Y-7849460D01*
X9053515Y-7849460D02*
X9043991Y-7839936D01*
X9043991Y-7839936D02*
X9034467Y-7820888D01*
X9034467Y-7820888D02*
X9024944Y-7782793D01*
X9024944Y-7782793D02*
X9024944Y-7735174D01*
X9024944Y-7735174D02*
X9034467Y-7697079D01*
X9034467Y-7697079D02*
X9043991Y-7678031D01*
X9043991Y-7678031D02*
X9053515Y-7668508D01*
X9053515Y-7668508D02*
X9072563Y-7658984D01*
X9263039Y-7658984D02*
X9282086Y-7658984D01*
X9282086Y-7658984D02*
X9301134Y-7668508D01*
X9301134Y-7668508D02*
X9310658Y-7678031D01*
X9310658Y-7678031D02*
X9320182Y-7697079D01*
X9320182Y-7697079D02*
X9329705Y-7735174D01*
X9329705Y-7735174D02*
X9329705Y-7782793D01*
X9329705Y-7782793D02*
X9320182Y-7820888D01*
X9320182Y-7820888D02*
X9310658Y-7839936D01*
X9310658Y-7839936D02*
X9301134Y-7849460D01*
X9301134Y-7849460D02*
X9282086Y-7858984D01*
X9282086Y-7858984D02*
X9263039Y-7858984D01*
X9263039Y-7858984D02*
X9243991Y-7849460D01*
X9243991Y-7849460D02*
X9234467Y-7839936D01*
X9234467Y-7839936D02*
X9224944Y-7820888D01*
X9224944Y-7820888D02*
X9215420Y-7782793D01*
X9215420Y-7782793D02*
X9215420Y-7735174D01*
X9215420Y-7735174D02*
X9224944Y-7697079D01*
X9224944Y-7697079D02*
X9234467Y-7678031D01*
X9234467Y-7678031D02*
X9243991Y-7668508D01*
X9243991Y-7668508D02*
X9263039Y-7658984D01*
X9415420Y-7858984D02*
X9415420Y-7725650D01*
X9415420Y-7744698D02*
X9424944Y-7735174D01*
X9424944Y-7735174D02*
X9443991Y-7725650D01*
X9443991Y-7725650D02*
X9472563Y-7725650D01*
X9472563Y-7725650D02*
X9491610Y-7735174D01*
X9491610Y-7735174D02*
X9501134Y-7754222D01*
X9501134Y-7754222D02*
X9501134Y-7858984D01*
X9501134Y-7754222D02*
X9510658Y-7735174D01*
X9510658Y-7735174D02*
X9529705Y-7725650D01*
X9529705Y-7725650D02*
X9558277Y-7725650D01*
X9558277Y-7725650D02*
X9577325Y-7735174D01*
X9577325Y-7735174D02*
X9586848Y-7754222D01*
X9586848Y-7754222D02*
X9586848Y-7858984D01*
X9682086Y-7858984D02*
X9682086Y-7725650D01*
X9682086Y-7744698D02*
X9691610Y-7735174D01*
X9691610Y-7735174D02*
X9710658Y-7725650D01*
X9710658Y-7725650D02*
X9739229Y-7725650D01*
X9739229Y-7725650D02*
X9758277Y-7735174D01*
X9758277Y-7735174D02*
X9767801Y-7754222D01*
X9767801Y-7754222D02*
X9767801Y-7858984D01*
X9767801Y-7754222D02*
X9777325Y-7735174D01*
X9777325Y-7735174D02*
X9796372Y-7725650D01*
X9796372Y-7725650D02*
X9824944Y-7725650D01*
X9824944Y-7725650D02*
X9843991Y-7735174D01*
X9843991Y-7735174D02*
X9853515Y-7754222D01*
X9853515Y-7754222D02*
X9853515Y-7858984D01*
X10243991Y-7649460D02*
X10072563Y-7906603D01*
X10501134Y-7658984D02*
X10520182Y-7658984D01*
X10520182Y-7658984D02*
X10539229Y-7668508D01*
X10539229Y-7668508D02*
X10548753Y-7678031D01*
X10548753Y-7678031D02*
X10558277Y-7697079D01*
X10558277Y-7697079D02*
X10567801Y-7735174D01*
X10567801Y-7735174D02*
X10567801Y-7782793D01*
X10567801Y-7782793D02*
X10558277Y-7820888D01*
X10558277Y-7820888D02*
X10548753Y-7839936D01*
X10548753Y-7839936D02*
X10539229Y-7849460D01*
X10539229Y-7849460D02*
X10520182Y-7858984D01*
X10520182Y-7858984D02*
X10501134Y-7858984D01*
X10501134Y-7858984D02*
X10482087Y-7849460D01*
X10482087Y-7849460D02*
X10472563Y-7839936D01*
X10472563Y-7839936D02*
X10463039Y-7820888D01*
X10463039Y-7820888D02*
X10453515Y-7782793D01*
X10453515Y-7782793D02*
X10453515Y-7735174D01*
X10453515Y-7735174D02*
X10463039Y-7697079D01*
X10463039Y-7697079D02*
X10472563Y-7678031D01*
X10472563Y-7678031D02*
X10482087Y-7668508D01*
X10482087Y-7668508D02*
X10501134Y-7658984D01*
X10653515Y-7839936D02*
X10663039Y-7849460D01*
X10663039Y-7849460D02*
X10653515Y-7858984D01*
X10653515Y-7858984D02*
X10643991Y-7849460D01*
X10643991Y-7849460D02*
X10653515Y-7839936D01*
X10653515Y-7839936D02*
X10653515Y-7858984D01*
X10786848Y-7658984D02*
X10805896Y-7658984D01*
X10805896Y-7658984D02*
X10824944Y-7668508D01*
X10824944Y-7668508D02*
X10834468Y-7678031D01*
X10834468Y-7678031D02*
X10843991Y-7697079D01*
X10843991Y-7697079D02*
X10853515Y-7735174D01*
X10853515Y-7735174D02*
X10853515Y-7782793D01*
X10853515Y-7782793D02*
X10843991Y-7820888D01*
X10843991Y-7820888D02*
X10834468Y-7839936D01*
X10834468Y-7839936D02*
X10824944Y-7849460D01*
X10824944Y-7849460D02*
X10805896Y-7858984D01*
X10805896Y-7858984D02*
X10786848Y-7858984D01*
X10786848Y-7858984D02*
X10767801Y-7849460D01*
X10767801Y-7849460D02*
X10758277Y-7839936D01*
X10758277Y-7839936D02*
X10748753Y-7820888D01*
X10748753Y-7820888D02*
X10739229Y-7782793D01*
X10739229Y-7782793D02*
X10739229Y-7735174D01*
X10739229Y-7735174D02*
X10748753Y-7697079D01*
X10748753Y-7697079D02*
X10758277Y-7678031D01*
X10758277Y-7678031D02*
X10767801Y-7668508D01*
X10767801Y-7668508D02*
X10786848Y-7658984D01*
X11043991Y-7858984D02*
X10929706Y-7858984D01*
X10986848Y-7858984D02*
X10986848Y-7658984D01*
X10986848Y-7658984D02*
X10967801Y-7687555D01*
X10967801Y-7687555D02*
X10948753Y-7706603D01*
X10948753Y-7706603D02*
X10929706Y-7716127D01*
X11224944Y-7658984D02*
X11129706Y-7658984D01*
X11129706Y-7658984D02*
X11120182Y-7754222D01*
X11120182Y-7754222D02*
X11129706Y-7744698D01*
X11129706Y-7744698D02*
X11148753Y-7735174D01*
X11148753Y-7735174D02*
X11196372Y-7735174D01*
X11196372Y-7735174D02*
X11215420Y-7744698D01*
X11215420Y-7744698D02*
X11224944Y-7754222D01*
X11224944Y-7754222D02*
X11234467Y-7773269D01*
X11234467Y-7773269D02*
X11234467Y-7820888D01*
X11234467Y-7820888D02*
X11224944Y-7839936D01*
X11224944Y-7839936D02*
X11215420Y-7849460D01*
X11215420Y-7849460D02*
X11196372Y-7858984D01*
X11196372Y-7858984D02*
X11148753Y-7858984D01*
X11148753Y-7858984D02*
X11129706Y-7849460D01*
X11129706Y-7849460D02*
X11120182Y-7839936D01*
X11301134Y-7658984D02*
X11434467Y-7658984D01*
X11434467Y-7658984D02*
X11348753Y-7858984D01*
X11501134Y-7658984D02*
X11501134Y-7697079D01*
X11577325Y-7658984D02*
X11577325Y-7697079D01*
X11872563Y-7935174D02*
X11863039Y-7925650D01*
X11863039Y-7925650D02*
X11843991Y-7897079D01*
X11843991Y-7897079D02*
X11834468Y-7878031D01*
X11834468Y-7878031D02*
X11824944Y-7849460D01*
X11824944Y-7849460D02*
X11815420Y-7801841D01*
X11815420Y-7801841D02*
X11815420Y-7763746D01*
X11815420Y-7763746D02*
X11824944Y-7716127D01*
X11824944Y-7716127D02*
X11834468Y-7687555D01*
X11834468Y-7687555D02*
X11843991Y-7668508D01*
X11843991Y-7668508D02*
X11863039Y-7639936D01*
X11863039Y-7639936D02*
X11872563Y-7630412D01*
X12034468Y-7658984D02*
X11996372Y-7658984D01*
X11996372Y-7658984D02*
X11977325Y-7668508D01*
X11977325Y-7668508D02*
X11967801Y-7678031D01*
X11967801Y-7678031D02*
X11948753Y-7706603D01*
X11948753Y-7706603D02*
X11939229Y-7744698D01*
X11939229Y-7744698D02*
X11939229Y-7820888D01*
X11939229Y-7820888D02*
X11948753Y-7839936D01*
X11948753Y-7839936D02*
X11958277Y-7849460D01*
X11958277Y-7849460D02*
X11977325Y-7858984D01*
X11977325Y-7858984D02*
X12015420Y-7858984D01*
X12015420Y-7858984D02*
X12034468Y-7849460D01*
X12034468Y-7849460D02*
X12043991Y-7839936D01*
X12043991Y-7839936D02*
X12053515Y-7820888D01*
X12053515Y-7820888D02*
X12053515Y-7773269D01*
X12053515Y-7773269D02*
X12043991Y-7754222D01*
X12043991Y-7754222D02*
X12034468Y-7744698D01*
X12034468Y-7744698D02*
X12015420Y-7735174D01*
X12015420Y-7735174D02*
X11977325Y-7735174D01*
X11977325Y-7735174D02*
X11958277Y-7744698D01*
X11958277Y-7744698D02*
X11948753Y-7754222D01*
X11948753Y-7754222D02*
X11939229Y-7773269D01*
X12291610Y-7858984D02*
X12291610Y-7658984D01*
X12377325Y-7858984D02*
X12377325Y-7754222D01*
X12377325Y-7754222D02*
X12367801Y-7735174D01*
X12367801Y-7735174D02*
X12348753Y-7725650D01*
X12348753Y-7725650D02*
X12320182Y-7725650D01*
X12320182Y-7725650D02*
X12301134Y-7735174D01*
X12301134Y-7735174D02*
X12291610Y-7744698D01*
X12501134Y-7858984D02*
X12482087Y-7849460D01*
X12482087Y-7849460D02*
X12472563Y-7839936D01*
X12472563Y-7839936D02*
X12463039Y-7820888D01*
X12463039Y-7820888D02*
X12463039Y-7763746D01*
X12463039Y-7763746D02*
X12472563Y-7744698D01*
X12472563Y-7744698D02*
X12482087Y-7735174D01*
X12482087Y-7735174D02*
X12501134Y-7725650D01*
X12501134Y-7725650D02*
X12529706Y-7725650D01*
X12529706Y-7725650D02*
X12548753Y-7735174D01*
X12548753Y-7735174D02*
X12558277Y-7744698D01*
X12558277Y-7744698D02*
X12567801Y-7763746D01*
X12567801Y-7763746D02*
X12567801Y-7820888D01*
X12567801Y-7820888D02*
X12558277Y-7839936D01*
X12558277Y-7839936D02*
X12548753Y-7849460D01*
X12548753Y-7849460D02*
X12529706Y-7858984D01*
X12529706Y-7858984D02*
X12501134Y-7858984D01*
X12682087Y-7858984D02*
X12663039Y-7849460D01*
X12663039Y-7849460D02*
X12653515Y-7830412D01*
X12653515Y-7830412D02*
X12653515Y-7658984D01*
X12834468Y-7849460D02*
X12815420Y-7858984D01*
X12815420Y-7858984D02*
X12777325Y-7858984D01*
X12777325Y-7858984D02*
X12758277Y-7849460D01*
X12758277Y-7849460D02*
X12748753Y-7830412D01*
X12748753Y-7830412D02*
X12748753Y-7754222D01*
X12748753Y-7754222D02*
X12758277Y-7735174D01*
X12758277Y-7735174D02*
X12777325Y-7725650D01*
X12777325Y-7725650D02*
X12815420Y-7725650D01*
X12815420Y-7725650D02*
X12834468Y-7735174D01*
X12834468Y-7735174D02*
X12843991Y-7754222D01*
X12843991Y-7754222D02*
X12843991Y-7773269D01*
X12843991Y-7773269D02*
X12748753Y-7792317D01*
X12920182Y-7849460D02*
X12939230Y-7858984D01*
X12939230Y-7858984D02*
X12977325Y-7858984D01*
X12977325Y-7858984D02*
X12996372Y-7849460D01*
X12996372Y-7849460D02*
X13005896Y-7830412D01*
X13005896Y-7830412D02*
X13005896Y-7820888D01*
X13005896Y-7820888D02*
X12996372Y-7801841D01*
X12996372Y-7801841D02*
X12977325Y-7792317D01*
X12977325Y-7792317D02*
X12948753Y-7792317D01*
X12948753Y-7792317D02*
X12929706Y-7782793D01*
X12929706Y-7782793D02*
X12920182Y-7763746D01*
X12920182Y-7763746D02*
X12920182Y-7754222D01*
X12920182Y-7754222D02*
X12929706Y-7735174D01*
X12929706Y-7735174D02*
X12948753Y-7725650D01*
X12948753Y-7725650D02*
X12977325Y-7725650D01*
X12977325Y-7725650D02*
X12996372Y-7735174D01*
X13072563Y-7935174D02*
X13082087Y-7925650D01*
X13082087Y-7925650D02*
X13101134Y-7897079D01*
X13101134Y-7897079D02*
X13110658Y-7878031D01*
X13110658Y-7878031D02*
X13120182Y-7849460D01*
X13120182Y-7849460D02*
X13129706Y-7801841D01*
X13129706Y-7801841D02*
X13129706Y-7763746D01*
X13129706Y-7763746D02*
X13120182Y-7716127D01*
X13120182Y-7716127D02*
X13110658Y-7687555D01*
X13110658Y-7687555D02*
X13101134Y-7668508D01*
X13101134Y-7668508D02*
X13082087Y-7639936D01*
X13082087Y-7639936D02*
X13072563Y-7630412D01*
D10*
X8297500Y-8031500D02*
G75*
G03*
X8297500Y-8031500I-25000J0D01*
G01*
D11*
X8596372Y-7922984D02*
X8615420Y-7922984D01*
X8615420Y-7922984D02*
X8634467Y-7932508D01*
X8634467Y-7932508D02*
X8643991Y-7942031D01*
X8643991Y-7942031D02*
X8653515Y-7961079D01*
X8653515Y-7961079D02*
X8663039Y-7999174D01*
X8663039Y-7999174D02*
X8663039Y-8046793D01*
X8663039Y-8046793D02*
X8653515Y-8084888D01*
X8653515Y-8084888D02*
X8643991Y-8103936D01*
X8643991Y-8103936D02*
X8634467Y-8113460D01*
X8634467Y-8113460D02*
X8615420Y-8122984D01*
X8615420Y-8122984D02*
X8596372Y-8122984D01*
X8596372Y-8122984D02*
X8577324Y-8113460D01*
X8577324Y-8113460D02*
X8567801Y-8103936D01*
X8567801Y-8103936D02*
X8558277Y-8084888D01*
X8558277Y-8084888D02*
X8548753Y-8046793D01*
X8548753Y-8046793D02*
X8548753Y-7999174D01*
X8548753Y-7999174D02*
X8558277Y-7961079D01*
X8558277Y-7961079D02*
X8567801Y-7942031D01*
X8567801Y-7942031D02*
X8577324Y-7932508D01*
X8577324Y-7932508D02*
X8596372Y-7922984D01*
X8748753Y-8103936D02*
X8758277Y-8113460D01*
X8758277Y-8113460D02*
X8748753Y-8122984D01*
X8748753Y-8122984D02*
X8739229Y-8113460D01*
X8739229Y-8113460D02*
X8748753Y-8103936D01*
X8748753Y-8103936D02*
X8748753Y-8122984D01*
X8939229Y-7922984D02*
X8843991Y-7922984D01*
X8843991Y-7922984D02*
X8834467Y-8018222D01*
X8834467Y-8018222D02*
X8843991Y-8008698D01*
X8843991Y-8008698D02*
X8863039Y-7999174D01*
X8863039Y-7999174D02*
X8910658Y-7999174D01*
X8910658Y-7999174D02*
X8929705Y-8008698D01*
X8929705Y-8008698D02*
X8939229Y-8018222D01*
X8939229Y-8018222D02*
X8948753Y-8037269D01*
X8948753Y-8037269D02*
X8948753Y-8084888D01*
X8948753Y-8084888D02*
X8939229Y-8103936D01*
X8939229Y-8103936D02*
X8929705Y-8113460D01*
X8929705Y-8113460D02*
X8910658Y-8122984D01*
X8910658Y-8122984D02*
X8863039Y-8122984D01*
X8863039Y-8122984D02*
X8843991Y-8113460D01*
X8843991Y-8113460D02*
X8834467Y-8103936D01*
X9072563Y-7922984D02*
X9091610Y-7922984D01*
X9091610Y-7922984D02*
X9110658Y-7932508D01*
X9110658Y-7932508D02*
X9120182Y-7942031D01*
X9120182Y-7942031D02*
X9129705Y-7961079D01*
X9129705Y-7961079D02*
X9139229Y-7999174D01*
X9139229Y-7999174D02*
X9139229Y-8046793D01*
X9139229Y-8046793D02*
X9129705Y-8084888D01*
X9129705Y-8084888D02*
X9120182Y-8103936D01*
X9120182Y-8103936D02*
X9110658Y-8113460D01*
X9110658Y-8113460D02*
X9091610Y-8122984D01*
X9091610Y-8122984D02*
X9072563Y-8122984D01*
X9072563Y-8122984D02*
X9053515Y-8113460D01*
X9053515Y-8113460D02*
X9043991Y-8103936D01*
X9043991Y-8103936D02*
X9034467Y-8084888D01*
X9034467Y-8084888D02*
X9024944Y-8046793D01*
X9024944Y-8046793D02*
X9024944Y-7999174D01*
X9024944Y-7999174D02*
X9034467Y-7961079D01*
X9034467Y-7961079D02*
X9043991Y-7942031D01*
X9043991Y-7942031D02*
X9053515Y-7932508D01*
X9053515Y-7932508D02*
X9072563Y-7922984D01*
X9263039Y-7922984D02*
X9282086Y-7922984D01*
X9282086Y-7922984D02*
X9301134Y-7932508D01*
X9301134Y-7932508D02*
X9310658Y-7942031D01*
X9310658Y-7942031D02*
X9320182Y-7961079D01*
X9320182Y-7961079D02*
X9329705Y-7999174D01*
X9329705Y-7999174D02*
X9329705Y-8046793D01*
X9329705Y-8046793D02*
X9320182Y-8084888D01*
X9320182Y-8084888D02*
X9310658Y-8103936D01*
X9310658Y-8103936D02*
X9301134Y-8113460D01*
X9301134Y-8113460D02*
X9282086Y-8122984D01*
X9282086Y-8122984D02*
X9263039Y-8122984D01*
X9263039Y-8122984D02*
X9243991Y-8113460D01*
X9243991Y-8113460D02*
X9234467Y-8103936D01*
X9234467Y-8103936D02*
X9224944Y-8084888D01*
X9224944Y-8084888D02*
X9215420Y-8046793D01*
X9215420Y-8046793D02*
X9215420Y-7999174D01*
X9215420Y-7999174D02*
X9224944Y-7961079D01*
X9224944Y-7961079D02*
X9234467Y-7942031D01*
X9234467Y-7942031D02*
X9243991Y-7932508D01*
X9243991Y-7932508D02*
X9263039Y-7922984D01*
X9415420Y-8122984D02*
X9415420Y-7989650D01*
X9415420Y-8008698D02*
X9424944Y-7999174D01*
X9424944Y-7999174D02*
X9443991Y-7989650D01*
X9443991Y-7989650D02*
X9472563Y-7989650D01*
X9472563Y-7989650D02*
X9491610Y-7999174D01*
X9491610Y-7999174D02*
X9501134Y-8018222D01*
X9501134Y-8018222D02*
X9501134Y-8122984D01*
X9501134Y-8018222D02*
X9510658Y-7999174D01*
X9510658Y-7999174D02*
X9529705Y-7989650D01*
X9529705Y-7989650D02*
X9558277Y-7989650D01*
X9558277Y-7989650D02*
X9577325Y-7999174D01*
X9577325Y-7999174D02*
X9586848Y-8018222D01*
X9586848Y-8018222D02*
X9586848Y-8122984D01*
X9682086Y-8122984D02*
X9682086Y-7989650D01*
X9682086Y-8008698D02*
X9691610Y-7999174D01*
X9691610Y-7999174D02*
X9710658Y-7989650D01*
X9710658Y-7989650D02*
X9739229Y-7989650D01*
X9739229Y-7989650D02*
X9758277Y-7999174D01*
X9758277Y-7999174D02*
X9767801Y-8018222D01*
X9767801Y-8018222D02*
X9767801Y-8122984D01*
X9767801Y-8018222D02*
X9777325Y-7999174D01*
X9777325Y-7999174D02*
X9796372Y-7989650D01*
X9796372Y-7989650D02*
X9824944Y-7989650D01*
X9824944Y-7989650D02*
X9843991Y-7999174D01*
X9843991Y-7999174D02*
X9853515Y-8018222D01*
X9853515Y-8018222D02*
X9853515Y-8122984D01*
X10243991Y-7913460D02*
X10072563Y-8170603D01*
X10501134Y-7922984D02*
X10520182Y-7922984D01*
X10520182Y-7922984D02*
X10539229Y-7932508D01*
X10539229Y-7932508D02*
X10548753Y-7942031D01*
X10548753Y-7942031D02*
X10558277Y-7961079D01*
X10558277Y-7961079D02*
X10567801Y-7999174D01*
X10567801Y-7999174D02*
X10567801Y-8046793D01*
X10567801Y-8046793D02*
X10558277Y-8084888D01*
X10558277Y-8084888D02*
X10548753Y-8103936D01*
X10548753Y-8103936D02*
X10539229Y-8113460D01*
X10539229Y-8113460D02*
X10520182Y-8122984D01*
X10520182Y-8122984D02*
X10501134Y-8122984D01*
X10501134Y-8122984D02*
X10482087Y-8113460D01*
X10482087Y-8113460D02*
X10472563Y-8103936D01*
X10472563Y-8103936D02*
X10463039Y-8084888D01*
X10463039Y-8084888D02*
X10453515Y-8046793D01*
X10453515Y-8046793D02*
X10453515Y-7999174D01*
X10453515Y-7999174D02*
X10463039Y-7961079D01*
X10463039Y-7961079D02*
X10472563Y-7942031D01*
X10472563Y-7942031D02*
X10482087Y-7932508D01*
X10482087Y-7932508D02*
X10501134Y-7922984D01*
X10653515Y-8103936D02*
X10663039Y-8113460D01*
X10663039Y-8113460D02*
X10653515Y-8122984D01*
X10653515Y-8122984D02*
X10643991Y-8113460D01*
X10643991Y-8113460D02*
X10653515Y-8103936D01*
X10653515Y-8103936D02*
X10653515Y-8122984D01*
X10786848Y-7922984D02*
X10805896Y-7922984D01*
X10805896Y-7922984D02*
X10824944Y-7932508D01*
X10824944Y-7932508D02*
X10834468Y-7942031D01*
X10834468Y-7942031D02*
X10843991Y-7961079D01*
X10843991Y-7961079D02*
X10853515Y-7999174D01*
X10853515Y-7999174D02*
X10853515Y-8046793D01*
X10853515Y-8046793D02*
X10843991Y-8084888D01*
X10843991Y-8084888D02*
X10834468Y-8103936D01*
X10834468Y-8103936D02*
X10824944Y-8113460D01*
X10824944Y-8113460D02*
X10805896Y-8122984D01*
X10805896Y-8122984D02*
X10786848Y-8122984D01*
X10786848Y-8122984D02*
X10767801Y-8113460D01*
X10767801Y-8113460D02*
X10758277Y-8103936D01*
X10758277Y-8103936D02*
X10748753Y-8084888D01*
X10748753Y-8084888D02*
X10739229Y-8046793D01*
X10739229Y-8046793D02*
X10739229Y-7999174D01*
X10739229Y-7999174D02*
X10748753Y-7961079D01*
X10748753Y-7961079D02*
X10758277Y-7942031D01*
X10758277Y-7942031D02*
X10767801Y-7932508D01*
X10767801Y-7932508D02*
X10786848Y-7922984D01*
X11043991Y-8122984D02*
X10929706Y-8122984D01*
X10986848Y-8122984D02*
X10986848Y-7922984D01*
X10986848Y-7922984D02*
X10967801Y-7951555D01*
X10967801Y-7951555D02*
X10948753Y-7970603D01*
X10948753Y-7970603D02*
X10929706Y-7980127D01*
X11139229Y-8122984D02*
X11177325Y-8122984D01*
X11177325Y-8122984D02*
X11196372Y-8113460D01*
X11196372Y-8113460D02*
X11205896Y-8103936D01*
X11205896Y-8103936D02*
X11224944Y-8075365D01*
X11224944Y-8075365D02*
X11234467Y-8037269D01*
X11234467Y-8037269D02*
X11234467Y-7961079D01*
X11234467Y-7961079D02*
X11224944Y-7942031D01*
X11224944Y-7942031D02*
X11215420Y-7932508D01*
X11215420Y-7932508D02*
X11196372Y-7922984D01*
X11196372Y-7922984D02*
X11158277Y-7922984D01*
X11158277Y-7922984D02*
X11139229Y-7932508D01*
X11139229Y-7932508D02*
X11129706Y-7942031D01*
X11129706Y-7942031D02*
X11120182Y-7961079D01*
X11120182Y-7961079D02*
X11120182Y-8008698D01*
X11120182Y-8008698D02*
X11129706Y-8027746D01*
X11129706Y-8027746D02*
X11139229Y-8037269D01*
X11139229Y-8037269D02*
X11158277Y-8046793D01*
X11158277Y-8046793D02*
X11196372Y-8046793D01*
X11196372Y-8046793D02*
X11215420Y-8037269D01*
X11215420Y-8037269D02*
X11224944Y-8027746D01*
X11224944Y-8027746D02*
X11234467Y-8008698D01*
X11301134Y-7922984D02*
X11434467Y-7922984D01*
X11434467Y-7922984D02*
X11348753Y-8122984D01*
X11501134Y-7922984D02*
X11501134Y-7961079D01*
X11577325Y-7922984D02*
X11577325Y-7961079D01*
X11872563Y-8199174D02*
X11863039Y-8189650D01*
X11863039Y-8189650D02*
X11843991Y-8161079D01*
X11843991Y-8161079D02*
X11834468Y-8142031D01*
X11834468Y-8142031D02*
X11824944Y-8113460D01*
X11824944Y-8113460D02*
X11815420Y-8065841D01*
X11815420Y-8065841D02*
X11815420Y-8027746D01*
X11815420Y-8027746D02*
X11824944Y-7980127D01*
X11824944Y-7980127D02*
X11834468Y-7951555D01*
X11834468Y-7951555D02*
X11843991Y-7932508D01*
X11843991Y-7932508D02*
X11863039Y-7903936D01*
X11863039Y-7903936D02*
X11872563Y-7894412D01*
X12034468Y-7989650D02*
X12034468Y-8122984D01*
X11986848Y-7913460D02*
X11939229Y-8056317D01*
X11939229Y-8056317D02*
X12063039Y-8056317D01*
X12291610Y-8122984D02*
X12291610Y-7922984D01*
X12377325Y-8122984D02*
X12377325Y-8018222D01*
X12377325Y-8018222D02*
X12367801Y-7999174D01*
X12367801Y-7999174D02*
X12348753Y-7989650D01*
X12348753Y-7989650D02*
X12320182Y-7989650D01*
X12320182Y-7989650D02*
X12301134Y-7999174D01*
X12301134Y-7999174D02*
X12291610Y-8008698D01*
X12501134Y-8122984D02*
X12482087Y-8113460D01*
X12482087Y-8113460D02*
X12472563Y-8103936D01*
X12472563Y-8103936D02*
X12463039Y-8084888D01*
X12463039Y-8084888D02*
X12463039Y-8027746D01*
X12463039Y-8027746D02*
X12472563Y-8008698D01*
X12472563Y-8008698D02*
X12482087Y-7999174D01*
X12482087Y-7999174D02*
X12501134Y-7989650D01*
X12501134Y-7989650D02*
X12529706Y-7989650D01*
X12529706Y-7989650D02*
X12548753Y-7999174D01*
X12548753Y-7999174D02*
X12558277Y-8008698D01*
X12558277Y-8008698D02*
X12567801Y-8027746D01*
X12567801Y-8027746D02*
X12567801Y-8084888D01*
X12567801Y-8084888D02*
X12558277Y-8103936D01*
X12558277Y-8103936D02*
X12548753Y-8113460D01*
X12548753Y-8113460D02*
X12529706Y-8122984D01*
X12529706Y-8122984D02*
X12501134Y-8122984D01*
X12682087Y-8122984D02*
X12663039Y-8113460D01*
X12663039Y-8113460D02*
X12653515Y-8094412D01*
X12653515Y-8094412D02*
X12653515Y-7922984D01*
X12834468Y-8113460D02*
X12815420Y-8122984D01*
X12815420Y-8122984D02*
X12777325Y-8122984D01*
X12777325Y-8122984D02*
X12758277Y-8113460D01*
X12758277Y-8113460D02*
X12748753Y-8094412D01*
X12748753Y-8094412D02*
X12748753Y-8018222D01*
X12748753Y-8018222D02*
X12758277Y-7999174D01*
X12758277Y-7999174D02*
X12777325Y-7989650D01*
X12777325Y-7989650D02*
X12815420Y-7989650D01*
X12815420Y-7989650D02*
X12834468Y-7999174D01*
X12834468Y-7999174D02*
X12843991Y-8018222D01*
X12843991Y-8018222D02*
X12843991Y-8037269D01*
X12843991Y-8037269D02*
X12748753Y-8056317D01*
X12920182Y-8113460D02*
X12939230Y-8122984D01*
X12939230Y-8122984D02*
X12977325Y-8122984D01*
X12977325Y-8122984D02*
X12996372Y-8113460D01*
X12996372Y-8113460D02*
X13005896Y-8094412D01*
X13005896Y-8094412D02*
X13005896Y-8084888D01*
X13005896Y-8084888D02*
X12996372Y-8065841D01*
X12996372Y-8065841D02*
X12977325Y-8056317D01*
X12977325Y-8056317D02*
X12948753Y-8056317D01*
X12948753Y-8056317D02*
X12929706Y-8046793D01*
X12929706Y-8046793D02*
X12920182Y-8027746D01*
X12920182Y-8027746D02*
X12920182Y-8018222D01*
X12920182Y-8018222D02*
X12929706Y-7999174D01*
X12929706Y-7999174D02*
X12948753Y-7989650D01*
X12948753Y-7989650D02*
X12977325Y-7989650D01*
X12977325Y-7989650D02*
X12996372Y-7999174D01*
X13072563Y-8199174D02*
X13082087Y-8189650D01*
X13082087Y-8189650D02*
X13101134Y-8161079D01*
X13101134Y-8161079D02*
X13110658Y-8142031D01*
X13110658Y-8142031D02*
X13120182Y-8113460D01*
X13120182Y-8113460D02*
X13129706Y-8065841D01*
X13129706Y-8065841D02*
X13129706Y-8027746D01*
X13129706Y-8027746D02*
X13120182Y-7980127D01*
X13120182Y-7980127D02*
X13110658Y-7951555D01*
X13110658Y-7951555D02*
X13101134Y-7932508D01*
X13101134Y-7932508D02*
X13082087Y-7903936D01*
X13082087Y-7903936D02*
X13072563Y-7894412D01*
M02*
