%TF.GenerationSoftware,KiCad,Pcbnew,7.0.5-1.fc38*%
%TF.CreationDate,2023-07-07T14:18:13-04:00*%
%TF.ProjectId,bno085-i2c-board-v3-square-panel,626e6f30-3835-42d6-9932-632d626f6172,rev?*%
%TF.SameCoordinates,Original*%
%TF.FileFunction,Copper,L1,Top*%
%TF.FilePolarity,Positive*%
%FSLAX46Y46*%
G04 Gerber Fmt 4.6, Leading zero omitted, Abs format (unit mm)*
G04 Created by KiCad (PCBNEW 7.0.5-1.fc38) date 2023-07-07 14:18:13*
%MOMM*%
%LPD*%
G01*
G04 APERTURE LIST*
G04 Aperture macros list*
%AMRoundRect*
0 Rectangle with rounded corners*
0 $1 Rounding radius*
0 $2 $3 $4 $5 $6 $7 $8 $9 X,Y pos of 4 corners*
0 Add a 4 corners polygon primitive as box body*
4,1,4,$2,$3,$4,$5,$6,$7,$8,$9,$2,$3,0*
0 Add four circle primitives for the rounded corners*
1,1,$1+$1,$2,$3*
1,1,$1+$1,$4,$5*
1,1,$1+$1,$6,$7*
1,1,$1+$1,$8,$9*
0 Add four rect primitives between the rounded corners*
20,1,$1+$1,$2,$3,$4,$5,0*
20,1,$1+$1,$4,$5,$6,$7,0*
20,1,$1+$1,$6,$7,$8,$9,0*
20,1,$1+$1,$8,$9,$2,$3,0*%
G04 Aperture macros list end*
%TA.AperFunction,SMDPad,CuDef*%
%ADD10RoundRect,0.135000X-0.185000X0.135000X-0.185000X-0.135000X0.185000X-0.135000X0.185000X0.135000X0*%
%TD*%
%TA.AperFunction,SMDPad,CuDef*%
%ADD11RoundRect,0.140000X0.140000X0.170000X-0.140000X0.170000X-0.140000X-0.170000X0.140000X-0.170000X0*%
%TD*%
%TA.AperFunction,ComponentPad*%
%ADD12R,0.850000X0.850000*%
%TD*%
%TA.AperFunction,ComponentPad*%
%ADD13O,0.850000X0.850000*%
%TD*%
%TA.AperFunction,SMDPad,CuDef*%
%ADD14RoundRect,0.135000X0.185000X-0.135000X0.185000X0.135000X-0.185000X0.135000X-0.185000X-0.135000X0*%
%TD*%
%TA.AperFunction,SMDPad,CuDef*%
%ADD15R,0.254000X0.675000*%
%TD*%
%TA.AperFunction,SMDPad,CuDef*%
%ADD16R,0.675000X0.254000*%
%TD*%
%TA.AperFunction,ViaPad*%
%ADD17C,0.800000*%
%TD*%
%TA.AperFunction,Conductor*%
%ADD18C,0.250000*%
%TD*%
G04 APERTURE END LIST*
D10*
%TO.P,R4,1*%
%TO.N,Board_10-Net-(J5-Pin_4)*%
X131379924Y-56390678D03*
%TO.P,R4,2*%
%TO.N,Board_10-+3.3V*%
X131379924Y-57410678D03*
%TD*%
D11*
%TO.P,C1,1*%
%TO.N,Board_5-Net-(U1-CAP)*%
X126822887Y-49506451D03*
%TO.P,C1,2*%
%TO.N,Board_5-GND*%
X125862887Y-49506451D03*
%TD*%
%TO.P,C1,1*%
%TO.N,Board_0-Net-(U1-CAP)*%
X126822887Y-36206451D03*
%TO.P,C1,2*%
%TO.N,Board_0-GND*%
X125862887Y-36206451D03*
%TD*%
D10*
%TO.P,R1,1*%
%TO.N,Board_2-+3.3V*%
X150925001Y-36169619D03*
%TO.P,R1,2*%
%TO.N,Board_2-Net-(U1-ENV_SCL)*%
X150925001Y-37189619D03*
%TD*%
D12*
%TO.P,J5,1,Pin_1*%
%TO.N,Board_6-GND*%
X136909337Y-41470000D03*
D13*
%TO.P,J5,2,Pin_2*%
%TO.N,Board_6-+3.3V*%
X137909337Y-41470000D03*
%TO.P,J5,3,Pin_3*%
%TO.N,Board_6-Net-(J5-Pin_3)*%
X138909337Y-41470000D03*
%TO.P,J5,4,Pin_4*%
%TO.N,Board_6-Net-(J5-Pin_4)*%
X139909337Y-41470000D03*
%TD*%
D14*
%TO.P,R2,1*%
%TO.N,Board_24-Net-(U1-ENV_SDA)*%
X169950850Y-90414177D03*
%TO.P,R2,2*%
%TO.N,Board_24-+3.3V*%
X169950850Y-89394177D03*
%TD*%
%TO.P,R5,1*%
%TO.N,Board_3-+3.3V*%
X155415173Y-30787101D03*
%TO.P,R5,2*%
%TO.N,Board_3-Net-(J5-Pin_3)*%
X155415173Y-29767101D03*
%TD*%
D15*
%TO.P,U1,1,RESV_NC*%
%TO.N,Board_18-unconnected-(U1-RESV_NC-Pad1)*%
X156150000Y-71725000D03*
D16*
%TO.P,U1,2,GND*%
%TO.N,Board_18-GND*%
X156012500Y-72637500D03*
%TO.P,U1,3,VDD*%
%TO.N,Board_18-+3.3V*%
X156012500Y-73137500D03*
%TO.P,U1,4,BOOTN*%
%TO.N,Board_18-Net-(U1-BOOTN)*%
X156012500Y-73637500D03*
%TO.P,U1,5,PS1*%
%TO.N,Board_18-GND*%
X156012500Y-74137500D03*
D15*
%TO.P,U1,6,PS0/WAKE*%
X156150000Y-75050000D03*
%TO.P,U1,7,RESV_NC*%
%TO.N,Board_18-unconnected-(U1-RESV_NC-Pad7)*%
X156650000Y-75050000D03*
%TO.P,U1,8,RESV_NC*%
%TO.N,Board_18-unconnected-(U1-RESV_NC-Pad8)*%
X157150000Y-75050000D03*
%TO.P,U1,9,CAP*%
%TO.N,Board_18-Net-(U1-CAP)*%
X157650000Y-75050000D03*
%TO.P,U1,10,CLKSEL0*%
%TO.N,Board_18-+3.3V*%
X158150000Y-75050000D03*
%TO.P,U1,11,NRST*%
%TO.N,Board_18-unconnected-(U1-NRST-Pad11)*%
X158650000Y-75050000D03*
%TO.P,U1,12,RESV_NC*%
%TO.N,Board_18-unconnected-(U1-RESV_NC-Pad12)*%
X159150000Y-75050000D03*
%TO.P,U1,13,RESV_NC*%
%TO.N,Board_18-unconnected-(U1-RESV_NC-Pad13)*%
X159650000Y-75050000D03*
%TO.P,U1,14,H_INTN*%
%TO.N,Board_18-unconnected-(U1-H_INTN-Pad14)*%
X160150000Y-75050000D03*
%TO.P,U1,15,ENV_SCL*%
%TO.N,Board_18-Net-(U1-ENV_SCL)*%
X160650000Y-75050000D03*
D16*
%TO.P,U1,16,ENV_SDA*%
%TO.N,Board_18-Net-(U1-ENV_SDA)*%
X160787500Y-74137500D03*
%TO.P,U1,17,SA0/H_MOSI*%
%TO.N,Board_18-GND*%
X160787500Y-73637500D03*
%TO.P,U1,18,H_CSN*%
%TO.N,Board_18-unconnected-(U1-H_CSN-Pad18)*%
X160787500Y-73137500D03*
%TO.P,U1,19,H_SCL/SCK/RX*%
%TO.N,Board_18-Net-(J5-Pin_3)*%
X160787500Y-72637500D03*
D15*
%TO.P,U1,20,H_SDA/H_MISO/TX*%
%TO.N,Board_18-Net-(J5-Pin_4)*%
X160650000Y-71725000D03*
%TO.P,U1,21,RESV_NC*%
%TO.N,Board_18-unconnected-(U1-RESV_NC-Pad21)*%
X160150000Y-71725000D03*
%TO.P,U1,22,RESV_NC*%
%TO.N,Board_18-unconnected-(U1-RESV_NC-Pad22)*%
X159650000Y-71725000D03*
%TO.P,U1,23,RESV_NC*%
%TO.N,Board_18-unconnected-(U1-RESV_NC-Pad23)*%
X159150000Y-71725000D03*
%TO.P,U1,24,RESV_NC*%
%TO.N,Board_18-unconnected-(U1-RESV_NC-Pad24)*%
X158650000Y-71725000D03*
%TO.P,U1,25,GNDIO*%
%TO.N,Board_18-GND*%
X158150000Y-71725000D03*
%TO.P,U1,26,XOUT32/CLKSEL1*%
X157650000Y-71725000D03*
%TO.P,U1,27,XIN32*%
%TO.N,Board_18-unconnected-(U1-XIN32-Pad27)*%
X157150000Y-71725000D03*
%TO.P,U1,28,VDDIO*%
%TO.N,Board_18-+3.3V*%
X156650000Y-71725000D03*
%TD*%
D11*
%TO.P,C1,1*%
%TO.N,Board_16-Net-(U1-CAP)*%
X136822887Y-76106451D03*
%TO.P,C1,2*%
%TO.N,Board_16-GND*%
X135862887Y-76106451D03*
%TD*%
D10*
%TO.P,R1,1*%
%TO.N,Board_19-+3.3V*%
X170925001Y-76069619D03*
%TO.P,R1,2*%
%TO.N,Board_19-Net-(U1-ENV_SCL)*%
X170925001Y-77089619D03*
%TD*%
D14*
%TO.P,R5,1*%
%TO.N,Board_22-+3.3V*%
X145415173Y-83987101D03*
%TO.P,R5,2*%
%TO.N,Board_22-Net-(J5-Pin_3)*%
X145415173Y-82967101D03*
%TD*%
D10*
%TO.P,R4,1*%
%TO.N,Board_0-Net-(J5-Pin_4)*%
X131379924Y-29790678D03*
%TO.P,R4,2*%
%TO.N,Board_0-+3.3V*%
X131379924Y-30810678D03*
%TD*%
D15*
%TO.P,U1,1,RESV_NC*%
%TO.N,Board_6-unconnected-(U1-RESV_NC-Pad1)*%
X136150000Y-45125000D03*
D16*
%TO.P,U1,2,GND*%
%TO.N,Board_6-GND*%
X136012500Y-46037500D03*
%TO.P,U1,3,VDD*%
%TO.N,Board_6-+3.3V*%
X136012500Y-46537500D03*
%TO.P,U1,4,BOOTN*%
%TO.N,Board_6-Net-(U1-BOOTN)*%
X136012500Y-47037500D03*
%TO.P,U1,5,PS1*%
%TO.N,Board_6-GND*%
X136012500Y-47537500D03*
D15*
%TO.P,U1,6,PS0/WAKE*%
X136150000Y-48450000D03*
%TO.P,U1,7,RESV_NC*%
%TO.N,Board_6-unconnected-(U1-RESV_NC-Pad7)*%
X136650000Y-48450000D03*
%TO.P,U1,8,RESV_NC*%
%TO.N,Board_6-unconnected-(U1-RESV_NC-Pad8)*%
X137150000Y-48450000D03*
%TO.P,U1,9,CAP*%
%TO.N,Board_6-Net-(U1-CAP)*%
X137650000Y-48450000D03*
%TO.P,U1,10,CLKSEL0*%
%TO.N,Board_6-+3.3V*%
X138150000Y-48450000D03*
%TO.P,U1,11,NRST*%
%TO.N,Board_6-unconnected-(U1-NRST-Pad11)*%
X138650000Y-48450000D03*
%TO.P,U1,12,RESV_NC*%
%TO.N,Board_6-unconnected-(U1-RESV_NC-Pad12)*%
X139150000Y-48450000D03*
%TO.P,U1,13,RESV_NC*%
%TO.N,Board_6-unconnected-(U1-RESV_NC-Pad13)*%
X139650000Y-48450000D03*
%TO.P,U1,14,H_INTN*%
%TO.N,Board_6-unconnected-(U1-H_INTN-Pad14)*%
X140150000Y-48450000D03*
%TO.P,U1,15,ENV_SCL*%
%TO.N,Board_6-Net-(U1-ENV_SCL)*%
X140650000Y-48450000D03*
D16*
%TO.P,U1,16,ENV_SDA*%
%TO.N,Board_6-Net-(U1-ENV_SDA)*%
X140787500Y-47537500D03*
%TO.P,U1,17,SA0/H_MOSI*%
%TO.N,Board_6-GND*%
X140787500Y-47037500D03*
%TO.P,U1,18,H_CSN*%
%TO.N,Board_6-unconnected-(U1-H_CSN-Pad18)*%
X140787500Y-46537500D03*
%TO.P,U1,19,H_SCL/SCK/RX*%
%TO.N,Board_6-Net-(J5-Pin_3)*%
X140787500Y-46037500D03*
D15*
%TO.P,U1,20,H_SDA/H_MISO/TX*%
%TO.N,Board_6-Net-(J5-Pin_4)*%
X140650000Y-45125000D03*
%TO.P,U1,21,RESV_NC*%
%TO.N,Board_6-unconnected-(U1-RESV_NC-Pad21)*%
X140150000Y-45125000D03*
%TO.P,U1,22,RESV_NC*%
%TO.N,Board_6-unconnected-(U1-RESV_NC-Pad22)*%
X139650000Y-45125000D03*
%TO.P,U1,23,RESV_NC*%
%TO.N,Board_6-unconnected-(U1-RESV_NC-Pad23)*%
X139150000Y-45125000D03*
%TO.P,U1,24,RESV_NC*%
%TO.N,Board_6-unconnected-(U1-RESV_NC-Pad24)*%
X138650000Y-45125000D03*
%TO.P,U1,25,GNDIO*%
%TO.N,Board_6-GND*%
X138150000Y-45125000D03*
%TO.P,U1,26,XOUT32/CLKSEL1*%
X137650000Y-45125000D03*
%TO.P,U1,27,XIN32*%
%TO.N,Board_6-unconnected-(U1-XIN32-Pad27)*%
X137150000Y-45125000D03*
%TO.P,U1,28,VDDIO*%
%TO.N,Board_6-+3.3V*%
X136650000Y-45125000D03*
%TD*%
D11*
%TO.P,C1,1*%
%TO.N,Board_4-Net-(U1-CAP)*%
X166822887Y-36206451D03*
%TO.P,C1,2*%
%TO.N,Board_4-GND*%
X165862887Y-36206451D03*
%TD*%
%TO.P,C1,1*%
%TO.N,Board_21-Net-(U1-CAP)*%
X136822887Y-89406451D03*
%TO.P,C1,2*%
%TO.N,Board_21-GND*%
X135862887Y-89406451D03*
%TD*%
D15*
%TO.P,U1,1,RESV_NC*%
%TO.N,Board_1-unconnected-(U1-RESV_NC-Pad1)*%
X136150000Y-31825000D03*
D16*
%TO.P,U1,2,GND*%
%TO.N,Board_1-GND*%
X136012500Y-32737500D03*
%TO.P,U1,3,VDD*%
%TO.N,Board_1-+3.3V*%
X136012500Y-33237500D03*
%TO.P,U1,4,BOOTN*%
%TO.N,Board_1-Net-(U1-BOOTN)*%
X136012500Y-33737500D03*
%TO.P,U1,5,PS1*%
%TO.N,Board_1-GND*%
X136012500Y-34237500D03*
D15*
%TO.P,U1,6,PS0/WAKE*%
X136150000Y-35150000D03*
%TO.P,U1,7,RESV_NC*%
%TO.N,Board_1-unconnected-(U1-RESV_NC-Pad7)*%
X136650000Y-35150000D03*
%TO.P,U1,8,RESV_NC*%
%TO.N,Board_1-unconnected-(U1-RESV_NC-Pad8)*%
X137150000Y-35150000D03*
%TO.P,U1,9,CAP*%
%TO.N,Board_1-Net-(U1-CAP)*%
X137650000Y-35150000D03*
%TO.P,U1,10,CLKSEL0*%
%TO.N,Board_1-+3.3V*%
X138150000Y-35150000D03*
%TO.P,U1,11,NRST*%
%TO.N,Board_1-unconnected-(U1-NRST-Pad11)*%
X138650000Y-35150000D03*
%TO.P,U1,12,RESV_NC*%
%TO.N,Board_1-unconnected-(U1-RESV_NC-Pad12)*%
X139150000Y-35150000D03*
%TO.P,U1,13,RESV_NC*%
%TO.N,Board_1-unconnected-(U1-RESV_NC-Pad13)*%
X139650000Y-35150000D03*
%TO.P,U1,14,H_INTN*%
%TO.N,Board_1-unconnected-(U1-H_INTN-Pad14)*%
X140150000Y-35150000D03*
%TO.P,U1,15,ENV_SCL*%
%TO.N,Board_1-Net-(U1-ENV_SCL)*%
X140650000Y-35150000D03*
D16*
%TO.P,U1,16,ENV_SDA*%
%TO.N,Board_1-Net-(U1-ENV_SDA)*%
X140787500Y-34237500D03*
%TO.P,U1,17,SA0/H_MOSI*%
%TO.N,Board_1-GND*%
X140787500Y-33737500D03*
%TO.P,U1,18,H_CSN*%
%TO.N,Board_1-unconnected-(U1-H_CSN-Pad18)*%
X140787500Y-33237500D03*
%TO.P,U1,19,H_SCL/SCK/RX*%
%TO.N,Board_1-Net-(J5-Pin_3)*%
X140787500Y-32737500D03*
D15*
%TO.P,U1,20,H_SDA/H_MISO/TX*%
%TO.N,Board_1-Net-(J5-Pin_4)*%
X140650000Y-31825000D03*
%TO.P,U1,21,RESV_NC*%
%TO.N,Board_1-unconnected-(U1-RESV_NC-Pad21)*%
X140150000Y-31825000D03*
%TO.P,U1,22,RESV_NC*%
%TO.N,Board_1-unconnected-(U1-RESV_NC-Pad22)*%
X139650000Y-31825000D03*
%TO.P,U1,23,RESV_NC*%
%TO.N,Board_1-unconnected-(U1-RESV_NC-Pad23)*%
X139150000Y-31825000D03*
%TO.P,U1,24,RESV_NC*%
%TO.N,Board_1-unconnected-(U1-RESV_NC-Pad24)*%
X138650000Y-31825000D03*
%TO.P,U1,25,GNDIO*%
%TO.N,Board_1-GND*%
X138150000Y-31825000D03*
%TO.P,U1,26,XOUT32/CLKSEL1*%
X137650000Y-31825000D03*
%TO.P,U1,27,XIN32*%
%TO.N,Board_1-unconnected-(U1-XIN32-Pad27)*%
X137150000Y-31825000D03*
%TO.P,U1,28,VDDIO*%
%TO.N,Board_1-+3.3V*%
X136650000Y-31825000D03*
%TD*%
D10*
%TO.P,R1,1*%
%TO.N,Board_9-+3.3V*%
X170925001Y-49469619D03*
%TO.P,R1,2*%
%TO.N,Board_9-Net-(U1-ENV_SCL)*%
X170925001Y-50489619D03*
%TD*%
D14*
%TO.P,R3,1*%
%TO.N,Board_18-Net-(U1-BOOTN)*%
X158984885Y-77105991D03*
%TO.P,R3,2*%
%TO.N,Board_18-+3.3V*%
X158984885Y-76085991D03*
%TD*%
%TO.P,R5,1*%
%TO.N,Board_15-+3.3V*%
X125415173Y-70687101D03*
%TO.P,R5,2*%
%TO.N,Board_15-Net-(J5-Pin_3)*%
X125415173Y-69667101D03*
%TD*%
D12*
%TO.P,J5,1,Pin_1*%
%TO.N,Board_10-GND*%
X126909337Y-54770000D03*
D13*
%TO.P,J5,2,Pin_2*%
%TO.N,Board_10-+3.3V*%
X127909337Y-54770000D03*
%TO.P,J5,3,Pin_3*%
%TO.N,Board_10-Net-(J5-Pin_3)*%
X128909337Y-54770000D03*
%TO.P,J5,4,Pin_4*%
%TO.N,Board_10-Net-(J5-Pin_4)*%
X129909337Y-54770000D03*
%TD*%
D11*
%TO.P,C1,1*%
%TO.N,Board_19-Net-(U1-CAP)*%
X166822887Y-76106451D03*
%TO.P,C1,2*%
%TO.N,Board_19-GND*%
X165862887Y-76106451D03*
%TD*%
D15*
%TO.P,U1,1,RESV_NC*%
%TO.N,Board_2-unconnected-(U1-RESV_NC-Pad1)*%
X146150000Y-31825000D03*
D16*
%TO.P,U1,2,GND*%
%TO.N,Board_2-GND*%
X146012500Y-32737500D03*
%TO.P,U1,3,VDD*%
%TO.N,Board_2-+3.3V*%
X146012500Y-33237500D03*
%TO.P,U1,4,BOOTN*%
%TO.N,Board_2-Net-(U1-BOOTN)*%
X146012500Y-33737500D03*
%TO.P,U1,5,PS1*%
%TO.N,Board_2-GND*%
X146012500Y-34237500D03*
D15*
%TO.P,U1,6,PS0/WAKE*%
X146150000Y-35150000D03*
%TO.P,U1,7,RESV_NC*%
%TO.N,Board_2-unconnected-(U1-RESV_NC-Pad7)*%
X146650000Y-35150000D03*
%TO.P,U1,8,RESV_NC*%
%TO.N,Board_2-unconnected-(U1-RESV_NC-Pad8)*%
X147150000Y-35150000D03*
%TO.P,U1,9,CAP*%
%TO.N,Board_2-Net-(U1-CAP)*%
X147650000Y-35150000D03*
%TO.P,U1,10,CLKSEL0*%
%TO.N,Board_2-+3.3V*%
X148150000Y-35150000D03*
%TO.P,U1,11,NRST*%
%TO.N,Board_2-unconnected-(U1-NRST-Pad11)*%
X148650000Y-35150000D03*
%TO.P,U1,12,RESV_NC*%
%TO.N,Board_2-unconnected-(U1-RESV_NC-Pad12)*%
X149150000Y-35150000D03*
%TO.P,U1,13,RESV_NC*%
%TO.N,Board_2-unconnected-(U1-RESV_NC-Pad13)*%
X149650000Y-35150000D03*
%TO.P,U1,14,H_INTN*%
%TO.N,Board_2-unconnected-(U1-H_INTN-Pad14)*%
X150150000Y-35150000D03*
%TO.P,U1,15,ENV_SCL*%
%TO.N,Board_2-Net-(U1-ENV_SCL)*%
X150650000Y-35150000D03*
D16*
%TO.P,U1,16,ENV_SDA*%
%TO.N,Board_2-Net-(U1-ENV_SDA)*%
X150787500Y-34237500D03*
%TO.P,U1,17,SA0/H_MOSI*%
%TO.N,Board_2-GND*%
X150787500Y-33737500D03*
%TO.P,U1,18,H_CSN*%
%TO.N,Board_2-unconnected-(U1-H_CSN-Pad18)*%
X150787500Y-33237500D03*
%TO.P,U1,19,H_SCL/SCK/RX*%
%TO.N,Board_2-Net-(J5-Pin_3)*%
X150787500Y-32737500D03*
D15*
%TO.P,U1,20,H_SDA/H_MISO/TX*%
%TO.N,Board_2-Net-(J5-Pin_4)*%
X150650000Y-31825000D03*
%TO.P,U1,21,RESV_NC*%
%TO.N,Board_2-unconnected-(U1-RESV_NC-Pad21)*%
X150150000Y-31825000D03*
%TO.P,U1,22,RESV_NC*%
%TO.N,Board_2-unconnected-(U1-RESV_NC-Pad22)*%
X149650000Y-31825000D03*
%TO.P,U1,23,RESV_NC*%
%TO.N,Board_2-unconnected-(U1-RESV_NC-Pad23)*%
X149150000Y-31825000D03*
%TO.P,U1,24,RESV_NC*%
%TO.N,Board_2-unconnected-(U1-RESV_NC-Pad24)*%
X148650000Y-31825000D03*
%TO.P,U1,25,GNDIO*%
%TO.N,Board_2-GND*%
X148150000Y-31825000D03*
%TO.P,U1,26,XOUT32/CLKSEL1*%
X147650000Y-31825000D03*
%TO.P,U1,27,XIN32*%
%TO.N,Board_2-unconnected-(U1-XIN32-Pad27)*%
X147150000Y-31825000D03*
%TO.P,U1,28,VDDIO*%
%TO.N,Board_2-+3.3V*%
X146650000Y-31825000D03*
%TD*%
D10*
%TO.P,R1,1*%
%TO.N,Board_0-+3.3V*%
X130925001Y-36169619D03*
%TO.P,R1,2*%
%TO.N,Board_0-Net-(U1-ENV_SCL)*%
X130925001Y-37189619D03*
%TD*%
D14*
%TO.P,R2,1*%
%TO.N,Board_5-Net-(U1-ENV_SDA)*%
X129950850Y-50514177D03*
%TO.P,R2,2*%
%TO.N,Board_5-+3.3V*%
X129950850Y-49494177D03*
%TD*%
D12*
%TO.P,J5,1,Pin_1*%
%TO.N,Board_1-GND*%
X136909337Y-28170000D03*
D13*
%TO.P,J5,2,Pin_2*%
%TO.N,Board_1-+3.3V*%
X137909337Y-28170000D03*
%TO.P,J5,3,Pin_3*%
%TO.N,Board_1-Net-(J5-Pin_3)*%
X138909337Y-28170000D03*
%TO.P,J5,4,Pin_4*%
%TO.N,Board_1-Net-(J5-Pin_4)*%
X139909337Y-28170000D03*
%TD*%
D14*
%TO.P,R5,1*%
%TO.N,Board_12-+3.3V*%
X145415173Y-57387101D03*
%TO.P,R5,2*%
%TO.N,Board_12-Net-(J5-Pin_3)*%
X145415173Y-56367101D03*
%TD*%
D10*
%TO.P,R1,1*%
%TO.N,Board_12-+3.3V*%
X150925001Y-62769619D03*
%TO.P,R1,2*%
%TO.N,Board_12-Net-(U1-ENV_SCL)*%
X150925001Y-63789619D03*
%TD*%
D11*
%TO.P,C1,1*%
%TO.N,Board_2-Net-(U1-CAP)*%
X146822887Y-36206451D03*
%TO.P,C1,2*%
%TO.N,Board_2-GND*%
X145862887Y-36206451D03*
%TD*%
D14*
%TO.P,R2,1*%
%TO.N,Board_9-Net-(U1-ENV_SDA)*%
X169950850Y-50514177D03*
%TO.P,R2,2*%
%TO.N,Board_9-+3.3V*%
X169950850Y-49494177D03*
%TD*%
D15*
%TO.P,U1,1,RESV_NC*%
%TO.N,Board_15-unconnected-(U1-RESV_NC-Pad1)*%
X126150000Y-71725000D03*
D16*
%TO.P,U1,2,GND*%
%TO.N,Board_15-GND*%
X126012500Y-72637500D03*
%TO.P,U1,3,VDD*%
%TO.N,Board_15-+3.3V*%
X126012500Y-73137500D03*
%TO.P,U1,4,BOOTN*%
%TO.N,Board_15-Net-(U1-BOOTN)*%
X126012500Y-73637500D03*
%TO.P,U1,5,PS1*%
%TO.N,Board_15-GND*%
X126012500Y-74137500D03*
D15*
%TO.P,U1,6,PS0/WAKE*%
X126150000Y-75050000D03*
%TO.P,U1,7,RESV_NC*%
%TO.N,Board_15-unconnected-(U1-RESV_NC-Pad7)*%
X126650000Y-75050000D03*
%TO.P,U1,8,RESV_NC*%
%TO.N,Board_15-unconnected-(U1-RESV_NC-Pad8)*%
X127150000Y-75050000D03*
%TO.P,U1,9,CAP*%
%TO.N,Board_15-Net-(U1-CAP)*%
X127650000Y-75050000D03*
%TO.P,U1,10,CLKSEL0*%
%TO.N,Board_15-+3.3V*%
X128150000Y-75050000D03*
%TO.P,U1,11,NRST*%
%TO.N,Board_15-unconnected-(U1-NRST-Pad11)*%
X128650000Y-75050000D03*
%TO.P,U1,12,RESV_NC*%
%TO.N,Board_15-unconnected-(U1-RESV_NC-Pad12)*%
X129150000Y-75050000D03*
%TO.P,U1,13,RESV_NC*%
%TO.N,Board_15-unconnected-(U1-RESV_NC-Pad13)*%
X129650000Y-75050000D03*
%TO.P,U1,14,H_INTN*%
%TO.N,Board_15-unconnected-(U1-H_INTN-Pad14)*%
X130150000Y-75050000D03*
%TO.P,U1,15,ENV_SCL*%
%TO.N,Board_15-Net-(U1-ENV_SCL)*%
X130650000Y-75050000D03*
D16*
%TO.P,U1,16,ENV_SDA*%
%TO.N,Board_15-Net-(U1-ENV_SDA)*%
X130787500Y-74137500D03*
%TO.P,U1,17,SA0/H_MOSI*%
%TO.N,Board_15-GND*%
X130787500Y-73637500D03*
%TO.P,U1,18,H_CSN*%
%TO.N,Board_15-unconnected-(U1-H_CSN-Pad18)*%
X130787500Y-73137500D03*
%TO.P,U1,19,H_SCL/SCK/RX*%
%TO.N,Board_15-Net-(J5-Pin_3)*%
X130787500Y-72637500D03*
D15*
%TO.P,U1,20,H_SDA/H_MISO/TX*%
%TO.N,Board_15-Net-(J5-Pin_4)*%
X130650000Y-71725000D03*
%TO.P,U1,21,RESV_NC*%
%TO.N,Board_15-unconnected-(U1-RESV_NC-Pad21)*%
X130150000Y-71725000D03*
%TO.P,U1,22,RESV_NC*%
%TO.N,Board_15-unconnected-(U1-RESV_NC-Pad22)*%
X129650000Y-71725000D03*
%TO.P,U1,23,RESV_NC*%
%TO.N,Board_15-unconnected-(U1-RESV_NC-Pad23)*%
X129150000Y-71725000D03*
%TO.P,U1,24,RESV_NC*%
%TO.N,Board_15-unconnected-(U1-RESV_NC-Pad24)*%
X128650000Y-71725000D03*
%TO.P,U1,25,GNDIO*%
%TO.N,Board_15-GND*%
X128150000Y-71725000D03*
%TO.P,U1,26,XOUT32/CLKSEL1*%
X127650000Y-71725000D03*
%TO.P,U1,27,XIN32*%
%TO.N,Board_15-unconnected-(U1-XIN32-Pad27)*%
X127150000Y-71725000D03*
%TO.P,U1,28,VDDIO*%
%TO.N,Board_15-+3.3V*%
X126650000Y-71725000D03*
%TD*%
D14*
%TO.P,R2,1*%
%TO.N,Board_14-Net-(U1-ENV_SDA)*%
X169950850Y-63814177D03*
%TO.P,R2,2*%
%TO.N,Board_14-+3.3V*%
X169950850Y-62794177D03*
%TD*%
D11*
%TO.P,C1,1*%
%TO.N,Board_7-Net-(U1-CAP)*%
X146822887Y-49506451D03*
%TO.P,C1,2*%
%TO.N,Board_7-GND*%
X145862887Y-49506451D03*
%TD*%
D10*
%TO.P,R4,1*%
%TO.N,Board_20-Net-(J5-Pin_4)*%
X131379924Y-82990678D03*
%TO.P,R4,2*%
%TO.N,Board_20-+3.3V*%
X131379924Y-84010678D03*
%TD*%
D14*
%TO.P,R3,1*%
%TO.N,Board_7-Net-(U1-BOOTN)*%
X148984885Y-50505991D03*
%TO.P,R3,2*%
%TO.N,Board_7-+3.3V*%
X148984885Y-49485991D03*
%TD*%
D10*
%TO.P,R1,1*%
%TO.N,Board_7-+3.3V*%
X150925001Y-49469619D03*
%TO.P,R1,2*%
%TO.N,Board_7-Net-(U1-ENV_SCL)*%
X150925001Y-50489619D03*
%TD*%
D14*
%TO.P,R3,1*%
%TO.N,Board_14-Net-(U1-BOOTN)*%
X168984885Y-63805991D03*
%TO.P,R3,2*%
%TO.N,Board_14-+3.3V*%
X168984885Y-62785991D03*
%TD*%
%TO.P,R3,1*%
%TO.N,Board_8-Net-(U1-BOOTN)*%
X158984885Y-50505991D03*
%TO.P,R3,2*%
%TO.N,Board_8-+3.3V*%
X158984885Y-49485991D03*
%TD*%
D10*
%TO.P,R1,1*%
%TO.N,Board_22-+3.3V*%
X150925001Y-89369619D03*
%TO.P,R1,2*%
%TO.N,Board_22-Net-(U1-ENV_SCL)*%
X150925001Y-90389619D03*
%TD*%
D14*
%TO.P,R2,1*%
%TO.N,Board_21-Net-(U1-ENV_SDA)*%
X139950850Y-90414177D03*
%TO.P,R2,2*%
%TO.N,Board_21-+3.3V*%
X139950850Y-89394177D03*
%TD*%
D15*
%TO.P,U1,1,RESV_NC*%
%TO.N,Board_22-unconnected-(U1-RESV_NC-Pad1)*%
X146150000Y-85025000D03*
D16*
%TO.P,U1,2,GND*%
%TO.N,Board_22-GND*%
X146012500Y-85937500D03*
%TO.P,U1,3,VDD*%
%TO.N,Board_22-+3.3V*%
X146012500Y-86437500D03*
%TO.P,U1,4,BOOTN*%
%TO.N,Board_22-Net-(U1-BOOTN)*%
X146012500Y-86937500D03*
%TO.P,U1,5,PS1*%
%TO.N,Board_22-GND*%
X146012500Y-87437500D03*
D15*
%TO.P,U1,6,PS0/WAKE*%
X146150000Y-88350000D03*
%TO.P,U1,7,RESV_NC*%
%TO.N,Board_22-unconnected-(U1-RESV_NC-Pad7)*%
X146650000Y-88350000D03*
%TO.P,U1,8,RESV_NC*%
%TO.N,Board_22-unconnected-(U1-RESV_NC-Pad8)*%
X147150000Y-88350000D03*
%TO.P,U1,9,CAP*%
%TO.N,Board_22-Net-(U1-CAP)*%
X147650000Y-88350000D03*
%TO.P,U1,10,CLKSEL0*%
%TO.N,Board_22-+3.3V*%
X148150000Y-88350000D03*
%TO.P,U1,11,NRST*%
%TO.N,Board_22-unconnected-(U1-NRST-Pad11)*%
X148650000Y-88350000D03*
%TO.P,U1,12,RESV_NC*%
%TO.N,Board_22-unconnected-(U1-RESV_NC-Pad12)*%
X149150000Y-88350000D03*
%TO.P,U1,13,RESV_NC*%
%TO.N,Board_22-unconnected-(U1-RESV_NC-Pad13)*%
X149650000Y-88350000D03*
%TO.P,U1,14,H_INTN*%
%TO.N,Board_22-unconnected-(U1-H_INTN-Pad14)*%
X150150000Y-88350000D03*
%TO.P,U1,15,ENV_SCL*%
%TO.N,Board_22-Net-(U1-ENV_SCL)*%
X150650000Y-88350000D03*
D16*
%TO.P,U1,16,ENV_SDA*%
%TO.N,Board_22-Net-(U1-ENV_SDA)*%
X150787500Y-87437500D03*
%TO.P,U1,17,SA0/H_MOSI*%
%TO.N,Board_22-GND*%
X150787500Y-86937500D03*
%TO.P,U1,18,H_CSN*%
%TO.N,Board_22-unconnected-(U1-H_CSN-Pad18)*%
X150787500Y-86437500D03*
%TO.P,U1,19,H_SCL/SCK/RX*%
%TO.N,Board_22-Net-(J5-Pin_3)*%
X150787500Y-85937500D03*
D15*
%TO.P,U1,20,H_SDA/H_MISO/TX*%
%TO.N,Board_22-Net-(J5-Pin_4)*%
X150650000Y-85025000D03*
%TO.P,U1,21,RESV_NC*%
%TO.N,Board_22-unconnected-(U1-RESV_NC-Pad21)*%
X150150000Y-85025000D03*
%TO.P,U1,22,RESV_NC*%
%TO.N,Board_22-unconnected-(U1-RESV_NC-Pad22)*%
X149650000Y-85025000D03*
%TO.P,U1,23,RESV_NC*%
%TO.N,Board_22-unconnected-(U1-RESV_NC-Pad23)*%
X149150000Y-85025000D03*
%TO.P,U1,24,RESV_NC*%
%TO.N,Board_22-unconnected-(U1-RESV_NC-Pad24)*%
X148650000Y-85025000D03*
%TO.P,U1,25,GNDIO*%
%TO.N,Board_22-GND*%
X148150000Y-85025000D03*
%TO.P,U1,26,XOUT32/CLKSEL1*%
X147650000Y-85025000D03*
%TO.P,U1,27,XIN32*%
%TO.N,Board_22-unconnected-(U1-XIN32-Pad27)*%
X147150000Y-85025000D03*
%TO.P,U1,28,VDDIO*%
%TO.N,Board_22-+3.3V*%
X146650000Y-85025000D03*
%TD*%
D10*
%TO.P,R4,1*%
%TO.N,Board_22-Net-(J5-Pin_4)*%
X151379924Y-82990678D03*
%TO.P,R4,2*%
%TO.N,Board_22-+3.3V*%
X151379924Y-84010678D03*
%TD*%
D12*
%TO.P,J5,1,Pin_1*%
%TO.N,Board_21-GND*%
X136909337Y-81370000D03*
D13*
%TO.P,J5,2,Pin_2*%
%TO.N,Board_21-+3.3V*%
X137909337Y-81370000D03*
%TO.P,J5,3,Pin_3*%
%TO.N,Board_21-Net-(J5-Pin_3)*%
X138909337Y-81370000D03*
%TO.P,J5,4,Pin_4*%
%TO.N,Board_21-Net-(J5-Pin_4)*%
X139909337Y-81370000D03*
%TD*%
D14*
%TO.P,R2,1*%
%TO.N,Board_6-Net-(U1-ENV_SDA)*%
X139950850Y-50514177D03*
%TO.P,R2,2*%
%TO.N,Board_6-+3.3V*%
X139950850Y-49494177D03*
%TD*%
D10*
%TO.P,R1,1*%
%TO.N,Board_20-+3.3V*%
X130925001Y-89369619D03*
%TO.P,R1,2*%
%TO.N,Board_20-Net-(U1-ENV_SCL)*%
X130925001Y-90389619D03*
%TD*%
D14*
%TO.P,R5,1*%
%TO.N,Board_17-+3.3V*%
X145415173Y-70687101D03*
%TO.P,R5,2*%
%TO.N,Board_17-Net-(J5-Pin_3)*%
X145415173Y-69667101D03*
%TD*%
D10*
%TO.P,R4,1*%
%TO.N,Board_13-Net-(J5-Pin_4)*%
X161379924Y-56390678D03*
%TO.P,R4,2*%
%TO.N,Board_13-+3.3V*%
X161379924Y-57410678D03*
%TD*%
D14*
%TO.P,R3,1*%
%TO.N,Board_9-Net-(U1-BOOTN)*%
X168984885Y-50505991D03*
%TO.P,R3,2*%
%TO.N,Board_9-+3.3V*%
X168984885Y-49485991D03*
%TD*%
D12*
%TO.P,J5,1,Pin_1*%
%TO.N,Board_19-GND*%
X166909337Y-68070000D03*
D13*
%TO.P,J5,2,Pin_2*%
%TO.N,Board_19-+3.3V*%
X167909337Y-68070000D03*
%TO.P,J5,3,Pin_3*%
%TO.N,Board_19-Net-(J5-Pin_3)*%
X168909337Y-68070000D03*
%TO.P,J5,4,Pin_4*%
%TO.N,Board_19-Net-(J5-Pin_4)*%
X169909337Y-68070000D03*
%TD*%
D11*
%TO.P,C1,1*%
%TO.N,Board_9-Net-(U1-CAP)*%
X166822887Y-49506451D03*
%TO.P,C1,2*%
%TO.N,Board_9-GND*%
X165862887Y-49506451D03*
%TD*%
D12*
%TO.P,J5,1,Pin_1*%
%TO.N,Board_20-GND*%
X126909337Y-81370000D03*
D13*
%TO.P,J5,2,Pin_2*%
%TO.N,Board_20-+3.3V*%
X127909337Y-81370000D03*
%TO.P,J5,3,Pin_3*%
%TO.N,Board_20-Net-(J5-Pin_3)*%
X128909337Y-81370000D03*
%TO.P,J5,4,Pin_4*%
%TO.N,Board_20-Net-(J5-Pin_4)*%
X129909337Y-81370000D03*
%TD*%
D10*
%TO.P,R4,1*%
%TO.N,Board_16-Net-(J5-Pin_4)*%
X141379924Y-69690678D03*
%TO.P,R4,2*%
%TO.N,Board_16-+3.3V*%
X141379924Y-70710678D03*
%TD*%
D14*
%TO.P,R3,1*%
%TO.N,Board_5-Net-(U1-BOOTN)*%
X128984885Y-50505991D03*
%TO.P,R3,2*%
%TO.N,Board_5-+3.3V*%
X128984885Y-49485991D03*
%TD*%
%TO.P,R5,1*%
%TO.N,Board_8-+3.3V*%
X155415173Y-44087101D03*
%TO.P,R5,2*%
%TO.N,Board_8-Net-(J5-Pin_3)*%
X155415173Y-43067101D03*
%TD*%
%TO.P,R2,1*%
%TO.N,Board_19-Net-(U1-ENV_SDA)*%
X169950850Y-77114177D03*
%TO.P,R2,2*%
%TO.N,Board_19-+3.3V*%
X169950850Y-76094177D03*
%TD*%
D12*
%TO.P,J5,1,Pin_1*%
%TO.N,Board_11-GND*%
X136909337Y-54770000D03*
D13*
%TO.P,J5,2,Pin_2*%
%TO.N,Board_11-+3.3V*%
X137909337Y-54770000D03*
%TO.P,J5,3,Pin_3*%
%TO.N,Board_11-Net-(J5-Pin_3)*%
X138909337Y-54770000D03*
%TO.P,J5,4,Pin_4*%
%TO.N,Board_11-Net-(J5-Pin_4)*%
X139909337Y-54770000D03*
%TD*%
D14*
%TO.P,R3,1*%
%TO.N,Board_11-Net-(U1-BOOTN)*%
X138984885Y-63805991D03*
%TO.P,R3,2*%
%TO.N,Board_11-+3.3V*%
X138984885Y-62785991D03*
%TD*%
%TO.P,R3,1*%
%TO.N,Board_21-Net-(U1-BOOTN)*%
X138984885Y-90405991D03*
%TO.P,R3,2*%
%TO.N,Board_21-+3.3V*%
X138984885Y-89385991D03*
%TD*%
%TO.P,R5,1*%
%TO.N,Board_11-+3.3V*%
X135415173Y-57387101D03*
%TO.P,R5,2*%
%TO.N,Board_11-Net-(J5-Pin_3)*%
X135415173Y-56367101D03*
%TD*%
%TO.P,R5,1*%
%TO.N,Board_21-+3.3V*%
X135415173Y-83987101D03*
%TO.P,R5,2*%
%TO.N,Board_21-Net-(J5-Pin_3)*%
X135415173Y-82967101D03*
%TD*%
D10*
%TO.P,R1,1*%
%TO.N,Board_24-+3.3V*%
X170925001Y-89369619D03*
%TO.P,R1,2*%
%TO.N,Board_24-Net-(U1-ENV_SCL)*%
X170925001Y-90389619D03*
%TD*%
D14*
%TO.P,R2,1*%
%TO.N,Board_4-Net-(U1-ENV_SDA)*%
X169950850Y-37214177D03*
%TO.P,R2,2*%
%TO.N,Board_4-+3.3V*%
X169950850Y-36194177D03*
%TD*%
D10*
%TO.P,R4,1*%
%TO.N,Board_12-Net-(J5-Pin_4)*%
X151379924Y-56390678D03*
%TO.P,R4,2*%
%TO.N,Board_12-+3.3V*%
X151379924Y-57410678D03*
%TD*%
D15*
%TO.P,U1,1,RESV_NC*%
%TO.N,Board_23-unconnected-(U1-RESV_NC-Pad1)*%
X156150000Y-85025000D03*
D16*
%TO.P,U1,2,GND*%
%TO.N,Board_23-GND*%
X156012500Y-85937500D03*
%TO.P,U1,3,VDD*%
%TO.N,Board_23-+3.3V*%
X156012500Y-86437500D03*
%TO.P,U1,4,BOOTN*%
%TO.N,Board_23-Net-(U1-BOOTN)*%
X156012500Y-86937500D03*
%TO.P,U1,5,PS1*%
%TO.N,Board_23-GND*%
X156012500Y-87437500D03*
D15*
%TO.P,U1,6,PS0/WAKE*%
X156150000Y-88350000D03*
%TO.P,U1,7,RESV_NC*%
%TO.N,Board_23-unconnected-(U1-RESV_NC-Pad7)*%
X156650000Y-88350000D03*
%TO.P,U1,8,RESV_NC*%
%TO.N,Board_23-unconnected-(U1-RESV_NC-Pad8)*%
X157150000Y-88350000D03*
%TO.P,U1,9,CAP*%
%TO.N,Board_23-Net-(U1-CAP)*%
X157650000Y-88350000D03*
%TO.P,U1,10,CLKSEL0*%
%TO.N,Board_23-+3.3V*%
X158150000Y-88350000D03*
%TO.P,U1,11,NRST*%
%TO.N,Board_23-unconnected-(U1-NRST-Pad11)*%
X158650000Y-88350000D03*
%TO.P,U1,12,RESV_NC*%
%TO.N,Board_23-unconnected-(U1-RESV_NC-Pad12)*%
X159150000Y-88350000D03*
%TO.P,U1,13,RESV_NC*%
%TO.N,Board_23-unconnected-(U1-RESV_NC-Pad13)*%
X159650000Y-88350000D03*
%TO.P,U1,14,H_INTN*%
%TO.N,Board_23-unconnected-(U1-H_INTN-Pad14)*%
X160150000Y-88350000D03*
%TO.P,U1,15,ENV_SCL*%
%TO.N,Board_23-Net-(U1-ENV_SCL)*%
X160650000Y-88350000D03*
D16*
%TO.P,U1,16,ENV_SDA*%
%TO.N,Board_23-Net-(U1-ENV_SDA)*%
X160787500Y-87437500D03*
%TO.P,U1,17,SA0/H_MOSI*%
%TO.N,Board_23-GND*%
X160787500Y-86937500D03*
%TO.P,U1,18,H_CSN*%
%TO.N,Board_23-unconnected-(U1-H_CSN-Pad18)*%
X160787500Y-86437500D03*
%TO.P,U1,19,H_SCL/SCK/RX*%
%TO.N,Board_23-Net-(J5-Pin_3)*%
X160787500Y-85937500D03*
D15*
%TO.P,U1,20,H_SDA/H_MISO/TX*%
%TO.N,Board_23-Net-(J5-Pin_4)*%
X160650000Y-85025000D03*
%TO.P,U1,21,RESV_NC*%
%TO.N,Board_23-unconnected-(U1-RESV_NC-Pad21)*%
X160150000Y-85025000D03*
%TO.P,U1,22,RESV_NC*%
%TO.N,Board_23-unconnected-(U1-RESV_NC-Pad22)*%
X159650000Y-85025000D03*
%TO.P,U1,23,RESV_NC*%
%TO.N,Board_23-unconnected-(U1-RESV_NC-Pad23)*%
X159150000Y-85025000D03*
%TO.P,U1,24,RESV_NC*%
%TO.N,Board_23-unconnected-(U1-RESV_NC-Pad24)*%
X158650000Y-85025000D03*
%TO.P,U1,25,GNDIO*%
%TO.N,Board_23-GND*%
X158150000Y-85025000D03*
%TO.P,U1,26,XOUT32/CLKSEL1*%
X157650000Y-85025000D03*
%TO.P,U1,27,XIN32*%
%TO.N,Board_23-unconnected-(U1-XIN32-Pad27)*%
X157150000Y-85025000D03*
%TO.P,U1,28,VDDIO*%
%TO.N,Board_23-+3.3V*%
X156650000Y-85025000D03*
%TD*%
D14*
%TO.P,R2,1*%
%TO.N,Board_23-Net-(U1-ENV_SDA)*%
X159950850Y-90414177D03*
%TO.P,R2,2*%
%TO.N,Board_23-+3.3V*%
X159950850Y-89394177D03*
%TD*%
D12*
%TO.P,J5,1,Pin_1*%
%TO.N,Board_5-GND*%
X126909337Y-41470000D03*
D13*
%TO.P,J5,2,Pin_2*%
%TO.N,Board_5-+3.3V*%
X127909337Y-41470000D03*
%TO.P,J5,3,Pin_3*%
%TO.N,Board_5-Net-(J5-Pin_3)*%
X128909337Y-41470000D03*
%TO.P,J5,4,Pin_4*%
%TO.N,Board_5-Net-(J5-Pin_4)*%
X129909337Y-41470000D03*
%TD*%
D10*
%TO.P,R1,1*%
%TO.N,Board_3-+3.3V*%
X160925001Y-36169619D03*
%TO.P,R1,2*%
%TO.N,Board_3-Net-(U1-ENV_SCL)*%
X160925001Y-37189619D03*
%TD*%
D14*
%TO.P,R5,1*%
%TO.N,Board_14-+3.3V*%
X165415173Y-57387101D03*
%TO.P,R5,2*%
%TO.N,Board_14-Net-(J5-Pin_3)*%
X165415173Y-56367101D03*
%TD*%
D10*
%TO.P,R4,1*%
%TO.N,Board_17-Net-(J5-Pin_4)*%
X151379924Y-69690678D03*
%TO.P,R4,2*%
%TO.N,Board_17-+3.3V*%
X151379924Y-70710678D03*
%TD*%
D15*
%TO.P,U1,1,RESV_NC*%
%TO.N,Board_12-unconnected-(U1-RESV_NC-Pad1)*%
X146150000Y-58425000D03*
D16*
%TO.P,U1,2,GND*%
%TO.N,Board_12-GND*%
X146012500Y-59337500D03*
%TO.P,U1,3,VDD*%
%TO.N,Board_12-+3.3V*%
X146012500Y-59837500D03*
%TO.P,U1,4,BOOTN*%
%TO.N,Board_12-Net-(U1-BOOTN)*%
X146012500Y-60337500D03*
%TO.P,U1,5,PS1*%
%TO.N,Board_12-GND*%
X146012500Y-60837500D03*
D15*
%TO.P,U1,6,PS0/WAKE*%
X146150000Y-61750000D03*
%TO.P,U1,7,RESV_NC*%
%TO.N,Board_12-unconnected-(U1-RESV_NC-Pad7)*%
X146650000Y-61750000D03*
%TO.P,U1,8,RESV_NC*%
%TO.N,Board_12-unconnected-(U1-RESV_NC-Pad8)*%
X147150000Y-61750000D03*
%TO.P,U1,9,CAP*%
%TO.N,Board_12-Net-(U1-CAP)*%
X147650000Y-61750000D03*
%TO.P,U1,10,CLKSEL0*%
%TO.N,Board_12-+3.3V*%
X148150000Y-61750000D03*
%TO.P,U1,11,NRST*%
%TO.N,Board_12-unconnected-(U1-NRST-Pad11)*%
X148650000Y-61750000D03*
%TO.P,U1,12,RESV_NC*%
%TO.N,Board_12-unconnected-(U1-RESV_NC-Pad12)*%
X149150000Y-61750000D03*
%TO.P,U1,13,RESV_NC*%
%TO.N,Board_12-unconnected-(U1-RESV_NC-Pad13)*%
X149650000Y-61750000D03*
%TO.P,U1,14,H_INTN*%
%TO.N,Board_12-unconnected-(U1-H_INTN-Pad14)*%
X150150000Y-61750000D03*
%TO.P,U1,15,ENV_SCL*%
%TO.N,Board_12-Net-(U1-ENV_SCL)*%
X150650000Y-61750000D03*
D16*
%TO.P,U1,16,ENV_SDA*%
%TO.N,Board_12-Net-(U1-ENV_SDA)*%
X150787500Y-60837500D03*
%TO.P,U1,17,SA0/H_MOSI*%
%TO.N,Board_12-GND*%
X150787500Y-60337500D03*
%TO.P,U1,18,H_CSN*%
%TO.N,Board_12-unconnected-(U1-H_CSN-Pad18)*%
X150787500Y-59837500D03*
%TO.P,U1,19,H_SCL/SCK/RX*%
%TO.N,Board_12-Net-(J5-Pin_3)*%
X150787500Y-59337500D03*
D15*
%TO.P,U1,20,H_SDA/H_MISO/TX*%
%TO.N,Board_12-Net-(J5-Pin_4)*%
X150650000Y-58425000D03*
%TO.P,U1,21,RESV_NC*%
%TO.N,Board_12-unconnected-(U1-RESV_NC-Pad21)*%
X150150000Y-58425000D03*
%TO.P,U1,22,RESV_NC*%
%TO.N,Board_12-unconnected-(U1-RESV_NC-Pad22)*%
X149650000Y-58425000D03*
%TO.P,U1,23,RESV_NC*%
%TO.N,Board_12-unconnected-(U1-RESV_NC-Pad23)*%
X149150000Y-58425000D03*
%TO.P,U1,24,RESV_NC*%
%TO.N,Board_12-unconnected-(U1-RESV_NC-Pad24)*%
X148650000Y-58425000D03*
%TO.P,U1,25,GNDIO*%
%TO.N,Board_12-GND*%
X148150000Y-58425000D03*
%TO.P,U1,26,XOUT32/CLKSEL1*%
X147650000Y-58425000D03*
%TO.P,U1,27,XIN32*%
%TO.N,Board_12-unconnected-(U1-XIN32-Pad27)*%
X147150000Y-58425000D03*
%TO.P,U1,28,VDDIO*%
%TO.N,Board_12-+3.3V*%
X146650000Y-58425000D03*
%TD*%
D11*
%TO.P,C1,1*%
%TO.N,Board_10-Net-(U1-CAP)*%
X126822887Y-62806451D03*
%TO.P,C1,2*%
%TO.N,Board_10-GND*%
X125862887Y-62806451D03*
%TD*%
D10*
%TO.P,R1,1*%
%TO.N,Board_8-+3.3V*%
X160925001Y-49469619D03*
%TO.P,R1,2*%
%TO.N,Board_8-Net-(U1-ENV_SCL)*%
X160925001Y-50489619D03*
%TD*%
D11*
%TO.P,C1,1*%
%TO.N,Board_24-Net-(U1-CAP)*%
X166822887Y-89406451D03*
%TO.P,C1,2*%
%TO.N,Board_24-GND*%
X165862887Y-89406451D03*
%TD*%
D12*
%TO.P,J5,1,Pin_1*%
%TO.N,Board_14-GND*%
X166909337Y-54770000D03*
D13*
%TO.P,J5,2,Pin_2*%
%TO.N,Board_14-+3.3V*%
X167909337Y-54770000D03*
%TO.P,J5,3,Pin_3*%
%TO.N,Board_14-Net-(J5-Pin_3)*%
X168909337Y-54770000D03*
%TO.P,J5,4,Pin_4*%
%TO.N,Board_14-Net-(J5-Pin_4)*%
X169909337Y-54770000D03*
%TD*%
D10*
%TO.P,R1,1*%
%TO.N,Board_5-+3.3V*%
X130925001Y-49469619D03*
%TO.P,R1,2*%
%TO.N,Board_5-Net-(U1-ENV_SCL)*%
X130925001Y-50489619D03*
%TD*%
%TO.P,R4,1*%
%TO.N,Board_4-Net-(J5-Pin_4)*%
X171379924Y-29790678D03*
%TO.P,R4,2*%
%TO.N,Board_4-+3.3V*%
X171379924Y-30810678D03*
%TD*%
D14*
%TO.P,R2,1*%
%TO.N,Board_15-Net-(U1-ENV_SDA)*%
X129950850Y-77114177D03*
%TO.P,R2,2*%
%TO.N,Board_15-+3.3V*%
X129950850Y-76094177D03*
%TD*%
%TO.P,R5,1*%
%TO.N,Board_18-+3.3V*%
X155415173Y-70687101D03*
%TO.P,R5,2*%
%TO.N,Board_18-Net-(J5-Pin_3)*%
X155415173Y-69667101D03*
%TD*%
%TO.P,R3,1*%
%TO.N,Board_17-Net-(U1-BOOTN)*%
X148984885Y-77105991D03*
%TO.P,R3,2*%
%TO.N,Board_17-+3.3V*%
X148984885Y-76085991D03*
%TD*%
%TO.P,R5,1*%
%TO.N,Board_5-+3.3V*%
X125415173Y-44087101D03*
%TO.P,R5,2*%
%TO.N,Board_5-Net-(J5-Pin_3)*%
X125415173Y-43067101D03*
%TD*%
D12*
%TO.P,J5,1,Pin_1*%
%TO.N,Board_2-GND*%
X146909337Y-28170000D03*
D13*
%TO.P,J5,2,Pin_2*%
%TO.N,Board_2-+3.3V*%
X147909337Y-28170000D03*
%TO.P,J5,3,Pin_3*%
%TO.N,Board_2-Net-(J5-Pin_3)*%
X148909337Y-28170000D03*
%TO.P,J5,4,Pin_4*%
%TO.N,Board_2-Net-(J5-Pin_4)*%
X149909337Y-28170000D03*
%TD*%
D15*
%TO.P,U1,1,RESV_NC*%
%TO.N,Board_11-unconnected-(U1-RESV_NC-Pad1)*%
X136150000Y-58425000D03*
D16*
%TO.P,U1,2,GND*%
%TO.N,Board_11-GND*%
X136012500Y-59337500D03*
%TO.P,U1,3,VDD*%
%TO.N,Board_11-+3.3V*%
X136012500Y-59837500D03*
%TO.P,U1,4,BOOTN*%
%TO.N,Board_11-Net-(U1-BOOTN)*%
X136012500Y-60337500D03*
%TO.P,U1,5,PS1*%
%TO.N,Board_11-GND*%
X136012500Y-60837500D03*
D15*
%TO.P,U1,6,PS0/WAKE*%
X136150000Y-61750000D03*
%TO.P,U1,7,RESV_NC*%
%TO.N,Board_11-unconnected-(U1-RESV_NC-Pad7)*%
X136650000Y-61750000D03*
%TO.P,U1,8,RESV_NC*%
%TO.N,Board_11-unconnected-(U1-RESV_NC-Pad8)*%
X137150000Y-61750000D03*
%TO.P,U1,9,CAP*%
%TO.N,Board_11-Net-(U1-CAP)*%
X137650000Y-61750000D03*
%TO.P,U1,10,CLKSEL0*%
%TO.N,Board_11-+3.3V*%
X138150000Y-61750000D03*
%TO.P,U1,11,NRST*%
%TO.N,Board_11-unconnected-(U1-NRST-Pad11)*%
X138650000Y-61750000D03*
%TO.P,U1,12,RESV_NC*%
%TO.N,Board_11-unconnected-(U1-RESV_NC-Pad12)*%
X139150000Y-61750000D03*
%TO.P,U1,13,RESV_NC*%
%TO.N,Board_11-unconnected-(U1-RESV_NC-Pad13)*%
X139650000Y-61750000D03*
%TO.P,U1,14,H_INTN*%
%TO.N,Board_11-unconnected-(U1-H_INTN-Pad14)*%
X140150000Y-61750000D03*
%TO.P,U1,15,ENV_SCL*%
%TO.N,Board_11-Net-(U1-ENV_SCL)*%
X140650000Y-61750000D03*
D16*
%TO.P,U1,16,ENV_SDA*%
%TO.N,Board_11-Net-(U1-ENV_SDA)*%
X140787500Y-60837500D03*
%TO.P,U1,17,SA0/H_MOSI*%
%TO.N,Board_11-GND*%
X140787500Y-60337500D03*
%TO.P,U1,18,H_CSN*%
%TO.N,Board_11-unconnected-(U1-H_CSN-Pad18)*%
X140787500Y-59837500D03*
%TO.P,U1,19,H_SCL/SCK/RX*%
%TO.N,Board_11-Net-(J5-Pin_3)*%
X140787500Y-59337500D03*
D15*
%TO.P,U1,20,H_SDA/H_MISO/TX*%
%TO.N,Board_11-Net-(J5-Pin_4)*%
X140650000Y-58425000D03*
%TO.P,U1,21,RESV_NC*%
%TO.N,Board_11-unconnected-(U1-RESV_NC-Pad21)*%
X140150000Y-58425000D03*
%TO.P,U1,22,RESV_NC*%
%TO.N,Board_11-unconnected-(U1-RESV_NC-Pad22)*%
X139650000Y-58425000D03*
%TO.P,U1,23,RESV_NC*%
%TO.N,Board_11-unconnected-(U1-RESV_NC-Pad23)*%
X139150000Y-58425000D03*
%TO.P,U1,24,RESV_NC*%
%TO.N,Board_11-unconnected-(U1-RESV_NC-Pad24)*%
X138650000Y-58425000D03*
%TO.P,U1,25,GNDIO*%
%TO.N,Board_11-GND*%
X138150000Y-58425000D03*
%TO.P,U1,26,XOUT32/CLKSEL1*%
X137650000Y-58425000D03*
%TO.P,U1,27,XIN32*%
%TO.N,Board_11-unconnected-(U1-XIN32-Pad27)*%
X137150000Y-58425000D03*
%TO.P,U1,28,VDDIO*%
%TO.N,Board_11-+3.3V*%
X136650000Y-58425000D03*
%TD*%
D10*
%TO.P,R4,1*%
%TO.N,Board_2-Net-(J5-Pin_4)*%
X151379924Y-29790678D03*
%TO.P,R4,2*%
%TO.N,Board_2-+3.3V*%
X151379924Y-30810678D03*
%TD*%
%TO.P,R4,1*%
%TO.N,Board_9-Net-(J5-Pin_4)*%
X171379924Y-43090678D03*
%TO.P,R4,2*%
%TO.N,Board_9-+3.3V*%
X171379924Y-44110678D03*
%TD*%
%TO.P,R4,1*%
%TO.N,Board_14-Net-(J5-Pin_4)*%
X171379924Y-56390678D03*
%TO.P,R4,2*%
%TO.N,Board_14-+3.3V*%
X171379924Y-57410678D03*
%TD*%
D14*
%TO.P,R3,1*%
%TO.N,Board_24-Net-(U1-BOOTN)*%
X168984885Y-90405991D03*
%TO.P,R3,2*%
%TO.N,Board_24-+3.3V*%
X168984885Y-89385991D03*
%TD*%
D10*
%TO.P,R4,1*%
%TO.N,Board_15-Net-(J5-Pin_4)*%
X131379924Y-69690678D03*
%TO.P,R4,2*%
%TO.N,Board_15-+3.3V*%
X131379924Y-70710678D03*
%TD*%
%TO.P,R4,1*%
%TO.N,Board_8-Net-(J5-Pin_4)*%
X161379924Y-43090678D03*
%TO.P,R4,2*%
%TO.N,Board_8-+3.3V*%
X161379924Y-44110678D03*
%TD*%
%TO.P,R4,1*%
%TO.N,Board_18-Net-(J5-Pin_4)*%
X161379924Y-69690678D03*
%TO.P,R4,2*%
%TO.N,Board_18-+3.3V*%
X161379924Y-70710678D03*
%TD*%
%TO.P,R1,1*%
%TO.N,Board_10-+3.3V*%
X130925001Y-62769619D03*
%TO.P,R1,2*%
%TO.N,Board_10-Net-(U1-ENV_SCL)*%
X130925001Y-63789619D03*
%TD*%
D15*
%TO.P,U1,1,RESV_NC*%
%TO.N,Board_16-unconnected-(U1-RESV_NC-Pad1)*%
X136150000Y-71725000D03*
D16*
%TO.P,U1,2,GND*%
%TO.N,Board_16-GND*%
X136012500Y-72637500D03*
%TO.P,U1,3,VDD*%
%TO.N,Board_16-+3.3V*%
X136012500Y-73137500D03*
%TO.P,U1,4,BOOTN*%
%TO.N,Board_16-Net-(U1-BOOTN)*%
X136012500Y-73637500D03*
%TO.P,U1,5,PS1*%
%TO.N,Board_16-GND*%
X136012500Y-74137500D03*
D15*
%TO.P,U1,6,PS0/WAKE*%
X136150000Y-75050000D03*
%TO.P,U1,7,RESV_NC*%
%TO.N,Board_16-unconnected-(U1-RESV_NC-Pad7)*%
X136650000Y-75050000D03*
%TO.P,U1,8,RESV_NC*%
%TO.N,Board_16-unconnected-(U1-RESV_NC-Pad8)*%
X137150000Y-75050000D03*
%TO.P,U1,9,CAP*%
%TO.N,Board_16-Net-(U1-CAP)*%
X137650000Y-75050000D03*
%TO.P,U1,10,CLKSEL0*%
%TO.N,Board_16-+3.3V*%
X138150000Y-75050000D03*
%TO.P,U1,11,NRST*%
%TO.N,Board_16-unconnected-(U1-NRST-Pad11)*%
X138650000Y-75050000D03*
%TO.P,U1,12,RESV_NC*%
%TO.N,Board_16-unconnected-(U1-RESV_NC-Pad12)*%
X139150000Y-75050000D03*
%TO.P,U1,13,RESV_NC*%
%TO.N,Board_16-unconnected-(U1-RESV_NC-Pad13)*%
X139650000Y-75050000D03*
%TO.P,U1,14,H_INTN*%
%TO.N,Board_16-unconnected-(U1-H_INTN-Pad14)*%
X140150000Y-75050000D03*
%TO.P,U1,15,ENV_SCL*%
%TO.N,Board_16-Net-(U1-ENV_SCL)*%
X140650000Y-75050000D03*
D16*
%TO.P,U1,16,ENV_SDA*%
%TO.N,Board_16-Net-(U1-ENV_SDA)*%
X140787500Y-74137500D03*
%TO.P,U1,17,SA0/H_MOSI*%
%TO.N,Board_16-GND*%
X140787500Y-73637500D03*
%TO.P,U1,18,H_CSN*%
%TO.N,Board_16-unconnected-(U1-H_CSN-Pad18)*%
X140787500Y-73137500D03*
%TO.P,U1,19,H_SCL/SCK/RX*%
%TO.N,Board_16-Net-(J5-Pin_3)*%
X140787500Y-72637500D03*
D15*
%TO.P,U1,20,H_SDA/H_MISO/TX*%
%TO.N,Board_16-Net-(J5-Pin_4)*%
X140650000Y-71725000D03*
%TO.P,U1,21,RESV_NC*%
%TO.N,Board_16-unconnected-(U1-RESV_NC-Pad21)*%
X140150000Y-71725000D03*
%TO.P,U1,22,RESV_NC*%
%TO.N,Board_16-unconnected-(U1-RESV_NC-Pad22)*%
X139650000Y-71725000D03*
%TO.P,U1,23,RESV_NC*%
%TO.N,Board_16-unconnected-(U1-RESV_NC-Pad23)*%
X139150000Y-71725000D03*
%TO.P,U1,24,RESV_NC*%
%TO.N,Board_16-unconnected-(U1-RESV_NC-Pad24)*%
X138650000Y-71725000D03*
%TO.P,U1,25,GNDIO*%
%TO.N,Board_16-GND*%
X138150000Y-71725000D03*
%TO.P,U1,26,XOUT32/CLKSEL1*%
X137650000Y-71725000D03*
%TO.P,U1,27,XIN32*%
%TO.N,Board_16-unconnected-(U1-XIN32-Pad27)*%
X137150000Y-71725000D03*
%TO.P,U1,28,VDDIO*%
%TO.N,Board_16-+3.3V*%
X136650000Y-71725000D03*
%TD*%
D14*
%TO.P,R5,1*%
%TO.N,Board_23-+3.3V*%
X155415173Y-83987101D03*
%TO.P,R5,2*%
%TO.N,Board_23-Net-(J5-Pin_3)*%
X155415173Y-82967101D03*
%TD*%
D10*
%TO.P,R1,1*%
%TO.N,Board_21-+3.3V*%
X140925001Y-89369619D03*
%TO.P,R1,2*%
%TO.N,Board_21-Net-(U1-ENV_SCL)*%
X140925001Y-90389619D03*
%TD*%
D14*
%TO.P,R5,1*%
%TO.N,Board_1-+3.3V*%
X135415173Y-30787101D03*
%TO.P,R5,2*%
%TO.N,Board_1-Net-(J5-Pin_3)*%
X135415173Y-29767101D03*
%TD*%
D11*
%TO.P,C1,1*%
%TO.N,Board_22-Net-(U1-CAP)*%
X146822887Y-89406451D03*
%TO.P,C1,2*%
%TO.N,Board_22-GND*%
X145862887Y-89406451D03*
%TD*%
D14*
%TO.P,R2,1*%
%TO.N,Board_12-Net-(U1-ENV_SDA)*%
X149950850Y-63814177D03*
%TO.P,R2,2*%
%TO.N,Board_12-+3.3V*%
X149950850Y-62794177D03*
%TD*%
D10*
%TO.P,R4,1*%
%TO.N,Board_23-Net-(J5-Pin_4)*%
X161379924Y-82990678D03*
%TO.P,R4,2*%
%TO.N,Board_23-+3.3V*%
X161379924Y-84010678D03*
%TD*%
D15*
%TO.P,U1,1,RESV_NC*%
%TO.N,Board_24-unconnected-(U1-RESV_NC-Pad1)*%
X166150000Y-85025000D03*
D16*
%TO.P,U1,2,GND*%
%TO.N,Board_24-GND*%
X166012500Y-85937500D03*
%TO.P,U1,3,VDD*%
%TO.N,Board_24-+3.3V*%
X166012500Y-86437500D03*
%TO.P,U1,4,BOOTN*%
%TO.N,Board_24-Net-(U1-BOOTN)*%
X166012500Y-86937500D03*
%TO.P,U1,5,PS1*%
%TO.N,Board_24-GND*%
X166012500Y-87437500D03*
D15*
%TO.P,U1,6,PS0/WAKE*%
X166150000Y-88350000D03*
%TO.P,U1,7,RESV_NC*%
%TO.N,Board_24-unconnected-(U1-RESV_NC-Pad7)*%
X166650000Y-88350000D03*
%TO.P,U1,8,RESV_NC*%
%TO.N,Board_24-unconnected-(U1-RESV_NC-Pad8)*%
X167150000Y-88350000D03*
%TO.P,U1,9,CAP*%
%TO.N,Board_24-Net-(U1-CAP)*%
X167650000Y-88350000D03*
%TO.P,U1,10,CLKSEL0*%
%TO.N,Board_24-+3.3V*%
X168150000Y-88350000D03*
%TO.P,U1,11,NRST*%
%TO.N,Board_24-unconnected-(U1-NRST-Pad11)*%
X168650000Y-88350000D03*
%TO.P,U1,12,RESV_NC*%
%TO.N,Board_24-unconnected-(U1-RESV_NC-Pad12)*%
X169150000Y-88350000D03*
%TO.P,U1,13,RESV_NC*%
%TO.N,Board_24-unconnected-(U1-RESV_NC-Pad13)*%
X169650000Y-88350000D03*
%TO.P,U1,14,H_INTN*%
%TO.N,Board_24-unconnected-(U1-H_INTN-Pad14)*%
X170150000Y-88350000D03*
%TO.P,U1,15,ENV_SCL*%
%TO.N,Board_24-Net-(U1-ENV_SCL)*%
X170650000Y-88350000D03*
D16*
%TO.P,U1,16,ENV_SDA*%
%TO.N,Board_24-Net-(U1-ENV_SDA)*%
X170787500Y-87437500D03*
%TO.P,U1,17,SA0/H_MOSI*%
%TO.N,Board_24-GND*%
X170787500Y-86937500D03*
%TO.P,U1,18,H_CSN*%
%TO.N,Board_24-unconnected-(U1-H_CSN-Pad18)*%
X170787500Y-86437500D03*
%TO.P,U1,19,H_SCL/SCK/RX*%
%TO.N,Board_24-Net-(J5-Pin_3)*%
X170787500Y-85937500D03*
D15*
%TO.P,U1,20,H_SDA/H_MISO/TX*%
%TO.N,Board_24-Net-(J5-Pin_4)*%
X170650000Y-85025000D03*
%TO.P,U1,21,RESV_NC*%
%TO.N,Board_24-unconnected-(U1-RESV_NC-Pad21)*%
X170150000Y-85025000D03*
%TO.P,U1,22,RESV_NC*%
%TO.N,Board_24-unconnected-(U1-RESV_NC-Pad22)*%
X169650000Y-85025000D03*
%TO.P,U1,23,RESV_NC*%
%TO.N,Board_24-unconnected-(U1-RESV_NC-Pad23)*%
X169150000Y-85025000D03*
%TO.P,U1,24,RESV_NC*%
%TO.N,Board_24-unconnected-(U1-RESV_NC-Pad24)*%
X168650000Y-85025000D03*
%TO.P,U1,25,GNDIO*%
%TO.N,Board_24-GND*%
X168150000Y-85025000D03*
%TO.P,U1,26,XOUT32/CLKSEL1*%
X167650000Y-85025000D03*
%TO.P,U1,27,XIN32*%
%TO.N,Board_24-unconnected-(U1-XIN32-Pad27)*%
X167150000Y-85025000D03*
%TO.P,U1,28,VDDIO*%
%TO.N,Board_24-+3.3V*%
X166650000Y-85025000D03*
%TD*%
D12*
%TO.P,J5,1,Pin_1*%
%TO.N,Board_16-GND*%
X136909337Y-68070000D03*
D13*
%TO.P,J5,2,Pin_2*%
%TO.N,Board_16-+3.3V*%
X137909337Y-68070000D03*
%TO.P,J5,3,Pin_3*%
%TO.N,Board_16-Net-(J5-Pin_3)*%
X138909337Y-68070000D03*
%TO.P,J5,4,Pin_4*%
%TO.N,Board_16-Net-(J5-Pin_4)*%
X139909337Y-68070000D03*
%TD*%
D14*
%TO.P,R2,1*%
%TO.N,Board_18-Net-(U1-ENV_SDA)*%
X159950850Y-77114177D03*
%TO.P,R2,2*%
%TO.N,Board_18-+3.3V*%
X159950850Y-76094177D03*
%TD*%
D15*
%TO.P,U1,1,RESV_NC*%
%TO.N,Board_8-unconnected-(U1-RESV_NC-Pad1)*%
X156150000Y-45125000D03*
D16*
%TO.P,U1,2,GND*%
%TO.N,Board_8-GND*%
X156012500Y-46037500D03*
%TO.P,U1,3,VDD*%
%TO.N,Board_8-+3.3V*%
X156012500Y-46537500D03*
%TO.P,U1,4,BOOTN*%
%TO.N,Board_8-Net-(U1-BOOTN)*%
X156012500Y-47037500D03*
%TO.P,U1,5,PS1*%
%TO.N,Board_8-GND*%
X156012500Y-47537500D03*
D15*
%TO.P,U1,6,PS0/WAKE*%
X156150000Y-48450000D03*
%TO.P,U1,7,RESV_NC*%
%TO.N,Board_8-unconnected-(U1-RESV_NC-Pad7)*%
X156650000Y-48450000D03*
%TO.P,U1,8,RESV_NC*%
%TO.N,Board_8-unconnected-(U1-RESV_NC-Pad8)*%
X157150000Y-48450000D03*
%TO.P,U1,9,CAP*%
%TO.N,Board_8-Net-(U1-CAP)*%
X157650000Y-48450000D03*
%TO.P,U1,10,CLKSEL0*%
%TO.N,Board_8-+3.3V*%
X158150000Y-48450000D03*
%TO.P,U1,11,NRST*%
%TO.N,Board_8-unconnected-(U1-NRST-Pad11)*%
X158650000Y-48450000D03*
%TO.P,U1,12,RESV_NC*%
%TO.N,Board_8-unconnected-(U1-RESV_NC-Pad12)*%
X159150000Y-48450000D03*
%TO.P,U1,13,RESV_NC*%
%TO.N,Board_8-unconnected-(U1-RESV_NC-Pad13)*%
X159650000Y-48450000D03*
%TO.P,U1,14,H_INTN*%
%TO.N,Board_8-unconnected-(U1-H_INTN-Pad14)*%
X160150000Y-48450000D03*
%TO.P,U1,15,ENV_SCL*%
%TO.N,Board_8-Net-(U1-ENV_SCL)*%
X160650000Y-48450000D03*
D16*
%TO.P,U1,16,ENV_SDA*%
%TO.N,Board_8-Net-(U1-ENV_SDA)*%
X160787500Y-47537500D03*
%TO.P,U1,17,SA0/H_MOSI*%
%TO.N,Board_8-GND*%
X160787500Y-47037500D03*
%TO.P,U1,18,H_CSN*%
%TO.N,Board_8-unconnected-(U1-H_CSN-Pad18)*%
X160787500Y-46537500D03*
%TO.P,U1,19,H_SCL/SCK/RX*%
%TO.N,Board_8-Net-(J5-Pin_3)*%
X160787500Y-46037500D03*
D15*
%TO.P,U1,20,H_SDA/H_MISO/TX*%
%TO.N,Board_8-Net-(J5-Pin_4)*%
X160650000Y-45125000D03*
%TO.P,U1,21,RESV_NC*%
%TO.N,Board_8-unconnected-(U1-RESV_NC-Pad21)*%
X160150000Y-45125000D03*
%TO.P,U1,22,RESV_NC*%
%TO.N,Board_8-unconnected-(U1-RESV_NC-Pad22)*%
X159650000Y-45125000D03*
%TO.P,U1,23,RESV_NC*%
%TO.N,Board_8-unconnected-(U1-RESV_NC-Pad23)*%
X159150000Y-45125000D03*
%TO.P,U1,24,RESV_NC*%
%TO.N,Board_8-unconnected-(U1-RESV_NC-Pad24)*%
X158650000Y-45125000D03*
%TO.P,U1,25,GNDIO*%
%TO.N,Board_8-GND*%
X158150000Y-45125000D03*
%TO.P,U1,26,XOUT32/CLKSEL1*%
X157650000Y-45125000D03*
%TO.P,U1,27,XIN32*%
%TO.N,Board_8-unconnected-(U1-XIN32-Pad27)*%
X157150000Y-45125000D03*
%TO.P,U1,28,VDDIO*%
%TO.N,Board_8-+3.3V*%
X156650000Y-45125000D03*
%TD*%
D14*
%TO.P,R2,1*%
%TO.N,Board_3-Net-(U1-ENV_SDA)*%
X159950850Y-37214177D03*
%TO.P,R2,2*%
%TO.N,Board_3-+3.3V*%
X159950850Y-36194177D03*
%TD*%
D15*
%TO.P,U1,1,RESV_NC*%
%TO.N,Board_20-unconnected-(U1-RESV_NC-Pad1)*%
X126150000Y-85025000D03*
D16*
%TO.P,U1,2,GND*%
%TO.N,Board_20-GND*%
X126012500Y-85937500D03*
%TO.P,U1,3,VDD*%
%TO.N,Board_20-+3.3V*%
X126012500Y-86437500D03*
%TO.P,U1,4,BOOTN*%
%TO.N,Board_20-Net-(U1-BOOTN)*%
X126012500Y-86937500D03*
%TO.P,U1,5,PS1*%
%TO.N,Board_20-GND*%
X126012500Y-87437500D03*
D15*
%TO.P,U1,6,PS0/WAKE*%
X126150000Y-88350000D03*
%TO.P,U1,7,RESV_NC*%
%TO.N,Board_20-unconnected-(U1-RESV_NC-Pad7)*%
X126650000Y-88350000D03*
%TO.P,U1,8,RESV_NC*%
%TO.N,Board_20-unconnected-(U1-RESV_NC-Pad8)*%
X127150000Y-88350000D03*
%TO.P,U1,9,CAP*%
%TO.N,Board_20-Net-(U1-CAP)*%
X127650000Y-88350000D03*
%TO.P,U1,10,CLKSEL0*%
%TO.N,Board_20-+3.3V*%
X128150000Y-88350000D03*
%TO.P,U1,11,NRST*%
%TO.N,Board_20-unconnected-(U1-NRST-Pad11)*%
X128650000Y-88350000D03*
%TO.P,U1,12,RESV_NC*%
%TO.N,Board_20-unconnected-(U1-RESV_NC-Pad12)*%
X129150000Y-88350000D03*
%TO.P,U1,13,RESV_NC*%
%TO.N,Board_20-unconnected-(U1-RESV_NC-Pad13)*%
X129650000Y-88350000D03*
%TO.P,U1,14,H_INTN*%
%TO.N,Board_20-unconnected-(U1-H_INTN-Pad14)*%
X130150000Y-88350000D03*
%TO.P,U1,15,ENV_SCL*%
%TO.N,Board_20-Net-(U1-ENV_SCL)*%
X130650000Y-88350000D03*
D16*
%TO.P,U1,16,ENV_SDA*%
%TO.N,Board_20-Net-(U1-ENV_SDA)*%
X130787500Y-87437500D03*
%TO.P,U1,17,SA0/H_MOSI*%
%TO.N,Board_20-GND*%
X130787500Y-86937500D03*
%TO.P,U1,18,H_CSN*%
%TO.N,Board_20-unconnected-(U1-H_CSN-Pad18)*%
X130787500Y-86437500D03*
%TO.P,U1,19,H_SCL/SCK/RX*%
%TO.N,Board_20-Net-(J5-Pin_3)*%
X130787500Y-85937500D03*
D15*
%TO.P,U1,20,H_SDA/H_MISO/TX*%
%TO.N,Board_20-Net-(J5-Pin_4)*%
X130650000Y-85025000D03*
%TO.P,U1,21,RESV_NC*%
%TO.N,Board_20-unconnected-(U1-RESV_NC-Pad21)*%
X130150000Y-85025000D03*
%TO.P,U1,22,RESV_NC*%
%TO.N,Board_20-unconnected-(U1-RESV_NC-Pad22)*%
X129650000Y-85025000D03*
%TO.P,U1,23,RESV_NC*%
%TO.N,Board_20-unconnected-(U1-RESV_NC-Pad23)*%
X129150000Y-85025000D03*
%TO.P,U1,24,RESV_NC*%
%TO.N,Board_20-unconnected-(U1-RESV_NC-Pad24)*%
X128650000Y-85025000D03*
%TO.P,U1,25,GNDIO*%
%TO.N,Board_20-GND*%
X128150000Y-85025000D03*
%TO.P,U1,26,XOUT32/CLKSEL1*%
X127650000Y-85025000D03*
%TO.P,U1,27,XIN32*%
%TO.N,Board_20-unconnected-(U1-XIN32-Pad27)*%
X127150000Y-85025000D03*
%TO.P,U1,28,VDDIO*%
%TO.N,Board_20-+3.3V*%
X126650000Y-85025000D03*
%TD*%
D12*
%TO.P,J5,1,Pin_1*%
%TO.N,Board_3-GND*%
X156909337Y-28170000D03*
D13*
%TO.P,J5,2,Pin_2*%
%TO.N,Board_3-+3.3V*%
X157909337Y-28170000D03*
%TO.P,J5,3,Pin_3*%
%TO.N,Board_3-Net-(J5-Pin_3)*%
X158909337Y-28170000D03*
%TO.P,J5,4,Pin_4*%
%TO.N,Board_3-Net-(J5-Pin_4)*%
X159909337Y-28170000D03*
%TD*%
D14*
%TO.P,R2,1*%
%TO.N,Board_22-Net-(U1-ENV_SDA)*%
X149950850Y-90414177D03*
%TO.P,R2,2*%
%TO.N,Board_22-+3.3V*%
X149950850Y-89394177D03*
%TD*%
%TO.P,R5,1*%
%TO.N,Board_9-+3.3V*%
X165415173Y-44087101D03*
%TO.P,R5,2*%
%TO.N,Board_9-Net-(J5-Pin_3)*%
X165415173Y-43067101D03*
%TD*%
D15*
%TO.P,U1,1,RESV_NC*%
%TO.N,Board_4-unconnected-(U1-RESV_NC-Pad1)*%
X166150000Y-31825000D03*
D16*
%TO.P,U1,2,GND*%
%TO.N,Board_4-GND*%
X166012500Y-32737500D03*
%TO.P,U1,3,VDD*%
%TO.N,Board_4-+3.3V*%
X166012500Y-33237500D03*
%TO.P,U1,4,BOOTN*%
%TO.N,Board_4-Net-(U1-BOOTN)*%
X166012500Y-33737500D03*
%TO.P,U1,5,PS1*%
%TO.N,Board_4-GND*%
X166012500Y-34237500D03*
D15*
%TO.P,U1,6,PS0/WAKE*%
X166150000Y-35150000D03*
%TO.P,U1,7,RESV_NC*%
%TO.N,Board_4-unconnected-(U1-RESV_NC-Pad7)*%
X166650000Y-35150000D03*
%TO.P,U1,8,RESV_NC*%
%TO.N,Board_4-unconnected-(U1-RESV_NC-Pad8)*%
X167150000Y-35150000D03*
%TO.P,U1,9,CAP*%
%TO.N,Board_4-Net-(U1-CAP)*%
X167650000Y-35150000D03*
%TO.P,U1,10,CLKSEL0*%
%TO.N,Board_4-+3.3V*%
X168150000Y-35150000D03*
%TO.P,U1,11,NRST*%
%TO.N,Board_4-unconnected-(U1-NRST-Pad11)*%
X168650000Y-35150000D03*
%TO.P,U1,12,RESV_NC*%
%TO.N,Board_4-unconnected-(U1-RESV_NC-Pad12)*%
X169150000Y-35150000D03*
%TO.P,U1,13,RESV_NC*%
%TO.N,Board_4-unconnected-(U1-RESV_NC-Pad13)*%
X169650000Y-35150000D03*
%TO.P,U1,14,H_INTN*%
%TO.N,Board_4-unconnected-(U1-H_INTN-Pad14)*%
X170150000Y-35150000D03*
%TO.P,U1,15,ENV_SCL*%
%TO.N,Board_4-Net-(U1-ENV_SCL)*%
X170650000Y-35150000D03*
D16*
%TO.P,U1,16,ENV_SDA*%
%TO.N,Board_4-Net-(U1-ENV_SDA)*%
X170787500Y-34237500D03*
%TO.P,U1,17,SA0/H_MOSI*%
%TO.N,Board_4-GND*%
X170787500Y-33737500D03*
%TO.P,U1,18,H_CSN*%
%TO.N,Board_4-unconnected-(U1-H_CSN-Pad18)*%
X170787500Y-33237500D03*
%TO.P,U1,19,H_SCL/SCK/RX*%
%TO.N,Board_4-Net-(J5-Pin_3)*%
X170787500Y-32737500D03*
D15*
%TO.P,U1,20,H_SDA/H_MISO/TX*%
%TO.N,Board_4-Net-(J5-Pin_4)*%
X170650000Y-31825000D03*
%TO.P,U1,21,RESV_NC*%
%TO.N,Board_4-unconnected-(U1-RESV_NC-Pad21)*%
X170150000Y-31825000D03*
%TO.P,U1,22,RESV_NC*%
%TO.N,Board_4-unconnected-(U1-RESV_NC-Pad22)*%
X169650000Y-31825000D03*
%TO.P,U1,23,RESV_NC*%
%TO.N,Board_4-unconnected-(U1-RESV_NC-Pad23)*%
X169150000Y-31825000D03*
%TO.P,U1,24,RESV_NC*%
%TO.N,Board_4-unconnected-(U1-RESV_NC-Pad24)*%
X168650000Y-31825000D03*
%TO.P,U1,25,GNDIO*%
%TO.N,Board_4-GND*%
X168150000Y-31825000D03*
%TO.P,U1,26,XOUT32/CLKSEL1*%
X167650000Y-31825000D03*
%TO.P,U1,27,XIN32*%
%TO.N,Board_4-unconnected-(U1-XIN32-Pad27)*%
X167150000Y-31825000D03*
%TO.P,U1,28,VDDIO*%
%TO.N,Board_4-+3.3V*%
X166650000Y-31825000D03*
%TD*%
D14*
%TO.P,R2,1*%
%TO.N,Board_2-Net-(U1-ENV_SDA)*%
X149950850Y-37214177D03*
%TO.P,R2,2*%
%TO.N,Board_2-+3.3V*%
X149950850Y-36194177D03*
%TD*%
%TO.P,R5,1*%
%TO.N,Board_7-+3.3V*%
X145415173Y-44087101D03*
%TO.P,R5,2*%
%TO.N,Board_7-Net-(J5-Pin_3)*%
X145415173Y-43067101D03*
%TD*%
D11*
%TO.P,C1,1*%
%TO.N,Board_13-Net-(U1-CAP)*%
X156822887Y-62806451D03*
%TO.P,C1,2*%
%TO.N,Board_13-GND*%
X155862887Y-62806451D03*
%TD*%
D14*
%TO.P,R3,1*%
%TO.N,Board_2-Net-(U1-BOOTN)*%
X148984885Y-37205991D03*
%TO.P,R3,2*%
%TO.N,Board_2-+3.3V*%
X148984885Y-36185991D03*
%TD*%
%TO.P,R3,1*%
%TO.N,Board_0-Net-(U1-BOOTN)*%
X128984885Y-37205991D03*
%TO.P,R3,2*%
%TO.N,Board_0-+3.3V*%
X128984885Y-36185991D03*
%TD*%
D12*
%TO.P,J5,1,Pin_1*%
%TO.N,Board_23-GND*%
X156909337Y-81370000D03*
D13*
%TO.P,J5,2,Pin_2*%
%TO.N,Board_23-+3.3V*%
X157909337Y-81370000D03*
%TO.P,J5,3,Pin_3*%
%TO.N,Board_23-Net-(J5-Pin_3)*%
X158909337Y-81370000D03*
%TO.P,J5,4,Pin_4*%
%TO.N,Board_23-Net-(J5-Pin_4)*%
X159909337Y-81370000D03*
%TD*%
D14*
%TO.P,R5,1*%
%TO.N,Board_6-+3.3V*%
X135415173Y-44087101D03*
%TO.P,R5,2*%
%TO.N,Board_6-Net-(J5-Pin_3)*%
X135415173Y-43067101D03*
%TD*%
D15*
%TO.P,U1,1,RESV_NC*%
%TO.N,Board_19-unconnected-(U1-RESV_NC-Pad1)*%
X166150000Y-71725000D03*
D16*
%TO.P,U1,2,GND*%
%TO.N,Board_19-GND*%
X166012500Y-72637500D03*
%TO.P,U1,3,VDD*%
%TO.N,Board_19-+3.3V*%
X166012500Y-73137500D03*
%TO.P,U1,4,BOOTN*%
%TO.N,Board_19-Net-(U1-BOOTN)*%
X166012500Y-73637500D03*
%TO.P,U1,5,PS1*%
%TO.N,Board_19-GND*%
X166012500Y-74137500D03*
D15*
%TO.P,U1,6,PS0/WAKE*%
X166150000Y-75050000D03*
%TO.P,U1,7,RESV_NC*%
%TO.N,Board_19-unconnected-(U1-RESV_NC-Pad7)*%
X166650000Y-75050000D03*
%TO.P,U1,8,RESV_NC*%
%TO.N,Board_19-unconnected-(U1-RESV_NC-Pad8)*%
X167150000Y-75050000D03*
%TO.P,U1,9,CAP*%
%TO.N,Board_19-Net-(U1-CAP)*%
X167650000Y-75050000D03*
%TO.P,U1,10,CLKSEL0*%
%TO.N,Board_19-+3.3V*%
X168150000Y-75050000D03*
%TO.P,U1,11,NRST*%
%TO.N,Board_19-unconnected-(U1-NRST-Pad11)*%
X168650000Y-75050000D03*
%TO.P,U1,12,RESV_NC*%
%TO.N,Board_19-unconnected-(U1-RESV_NC-Pad12)*%
X169150000Y-75050000D03*
%TO.P,U1,13,RESV_NC*%
%TO.N,Board_19-unconnected-(U1-RESV_NC-Pad13)*%
X169650000Y-75050000D03*
%TO.P,U1,14,H_INTN*%
%TO.N,Board_19-unconnected-(U1-H_INTN-Pad14)*%
X170150000Y-75050000D03*
%TO.P,U1,15,ENV_SCL*%
%TO.N,Board_19-Net-(U1-ENV_SCL)*%
X170650000Y-75050000D03*
D16*
%TO.P,U1,16,ENV_SDA*%
%TO.N,Board_19-Net-(U1-ENV_SDA)*%
X170787500Y-74137500D03*
%TO.P,U1,17,SA0/H_MOSI*%
%TO.N,Board_19-GND*%
X170787500Y-73637500D03*
%TO.P,U1,18,H_CSN*%
%TO.N,Board_19-unconnected-(U1-H_CSN-Pad18)*%
X170787500Y-73137500D03*
%TO.P,U1,19,H_SCL/SCK/RX*%
%TO.N,Board_19-Net-(J5-Pin_3)*%
X170787500Y-72637500D03*
D15*
%TO.P,U1,20,H_SDA/H_MISO/TX*%
%TO.N,Board_19-Net-(J5-Pin_4)*%
X170650000Y-71725000D03*
%TO.P,U1,21,RESV_NC*%
%TO.N,Board_19-unconnected-(U1-RESV_NC-Pad21)*%
X170150000Y-71725000D03*
%TO.P,U1,22,RESV_NC*%
%TO.N,Board_19-unconnected-(U1-RESV_NC-Pad22)*%
X169650000Y-71725000D03*
%TO.P,U1,23,RESV_NC*%
%TO.N,Board_19-unconnected-(U1-RESV_NC-Pad23)*%
X169150000Y-71725000D03*
%TO.P,U1,24,RESV_NC*%
%TO.N,Board_19-unconnected-(U1-RESV_NC-Pad24)*%
X168650000Y-71725000D03*
%TO.P,U1,25,GNDIO*%
%TO.N,Board_19-GND*%
X168150000Y-71725000D03*
%TO.P,U1,26,XOUT32/CLKSEL1*%
X167650000Y-71725000D03*
%TO.P,U1,27,XIN32*%
%TO.N,Board_19-unconnected-(U1-XIN32-Pad27)*%
X167150000Y-71725000D03*
%TO.P,U1,28,VDDIO*%
%TO.N,Board_19-+3.3V*%
X166650000Y-71725000D03*
%TD*%
D10*
%TO.P,R1,1*%
%TO.N,Board_14-+3.3V*%
X170925001Y-62769619D03*
%TO.P,R1,2*%
%TO.N,Board_14-Net-(U1-ENV_SCL)*%
X170925001Y-63789619D03*
%TD*%
D11*
%TO.P,C1,1*%
%TO.N,Board_1-Net-(U1-CAP)*%
X136822887Y-36206451D03*
%TO.P,C1,2*%
%TO.N,Board_1-GND*%
X135862887Y-36206451D03*
%TD*%
D10*
%TO.P,R1,1*%
%TO.N,Board_18-+3.3V*%
X160925001Y-76069619D03*
%TO.P,R1,2*%
%TO.N,Board_18-Net-(U1-ENV_SCL)*%
X160925001Y-77089619D03*
%TD*%
D14*
%TO.P,R2,1*%
%TO.N,Board_1-Net-(U1-ENV_SDA)*%
X139950850Y-37214177D03*
%TO.P,R2,2*%
%TO.N,Board_1-+3.3V*%
X139950850Y-36194177D03*
%TD*%
D15*
%TO.P,U1,1,RESV_NC*%
%TO.N,Board_21-unconnected-(U1-RESV_NC-Pad1)*%
X136150000Y-85025000D03*
D16*
%TO.P,U1,2,GND*%
%TO.N,Board_21-GND*%
X136012500Y-85937500D03*
%TO.P,U1,3,VDD*%
%TO.N,Board_21-+3.3V*%
X136012500Y-86437500D03*
%TO.P,U1,4,BOOTN*%
%TO.N,Board_21-Net-(U1-BOOTN)*%
X136012500Y-86937500D03*
%TO.P,U1,5,PS1*%
%TO.N,Board_21-GND*%
X136012500Y-87437500D03*
D15*
%TO.P,U1,6,PS0/WAKE*%
X136150000Y-88350000D03*
%TO.P,U1,7,RESV_NC*%
%TO.N,Board_21-unconnected-(U1-RESV_NC-Pad7)*%
X136650000Y-88350000D03*
%TO.P,U1,8,RESV_NC*%
%TO.N,Board_21-unconnected-(U1-RESV_NC-Pad8)*%
X137150000Y-88350000D03*
%TO.P,U1,9,CAP*%
%TO.N,Board_21-Net-(U1-CAP)*%
X137650000Y-88350000D03*
%TO.P,U1,10,CLKSEL0*%
%TO.N,Board_21-+3.3V*%
X138150000Y-88350000D03*
%TO.P,U1,11,NRST*%
%TO.N,Board_21-unconnected-(U1-NRST-Pad11)*%
X138650000Y-88350000D03*
%TO.P,U1,12,RESV_NC*%
%TO.N,Board_21-unconnected-(U1-RESV_NC-Pad12)*%
X139150000Y-88350000D03*
%TO.P,U1,13,RESV_NC*%
%TO.N,Board_21-unconnected-(U1-RESV_NC-Pad13)*%
X139650000Y-88350000D03*
%TO.P,U1,14,H_INTN*%
%TO.N,Board_21-unconnected-(U1-H_INTN-Pad14)*%
X140150000Y-88350000D03*
%TO.P,U1,15,ENV_SCL*%
%TO.N,Board_21-Net-(U1-ENV_SCL)*%
X140650000Y-88350000D03*
D16*
%TO.P,U1,16,ENV_SDA*%
%TO.N,Board_21-Net-(U1-ENV_SDA)*%
X140787500Y-87437500D03*
%TO.P,U1,17,SA0/H_MOSI*%
%TO.N,Board_21-GND*%
X140787500Y-86937500D03*
%TO.P,U1,18,H_CSN*%
%TO.N,Board_21-unconnected-(U1-H_CSN-Pad18)*%
X140787500Y-86437500D03*
%TO.P,U1,19,H_SCL/SCK/RX*%
%TO.N,Board_21-Net-(J5-Pin_3)*%
X140787500Y-85937500D03*
D15*
%TO.P,U1,20,H_SDA/H_MISO/TX*%
%TO.N,Board_21-Net-(J5-Pin_4)*%
X140650000Y-85025000D03*
%TO.P,U1,21,RESV_NC*%
%TO.N,Board_21-unconnected-(U1-RESV_NC-Pad21)*%
X140150000Y-85025000D03*
%TO.P,U1,22,RESV_NC*%
%TO.N,Board_21-unconnected-(U1-RESV_NC-Pad22)*%
X139650000Y-85025000D03*
%TO.P,U1,23,RESV_NC*%
%TO.N,Board_21-unconnected-(U1-RESV_NC-Pad23)*%
X139150000Y-85025000D03*
%TO.P,U1,24,RESV_NC*%
%TO.N,Board_21-unconnected-(U1-RESV_NC-Pad24)*%
X138650000Y-85025000D03*
%TO.P,U1,25,GNDIO*%
%TO.N,Board_21-GND*%
X138150000Y-85025000D03*
%TO.P,U1,26,XOUT32/CLKSEL1*%
X137650000Y-85025000D03*
%TO.P,U1,27,XIN32*%
%TO.N,Board_21-unconnected-(U1-XIN32-Pad27)*%
X137150000Y-85025000D03*
%TO.P,U1,28,VDDIO*%
%TO.N,Board_21-+3.3V*%
X136650000Y-85025000D03*
%TD*%
D10*
%TO.P,R1,1*%
%TO.N,Board_6-+3.3V*%
X140925001Y-49469619D03*
%TO.P,R1,2*%
%TO.N,Board_6-Net-(U1-ENV_SCL)*%
X140925001Y-50489619D03*
%TD*%
D14*
%TO.P,R2,1*%
%TO.N,Board_7-Net-(U1-ENV_SDA)*%
X149950850Y-50514177D03*
%TO.P,R2,2*%
%TO.N,Board_7-+3.3V*%
X149950850Y-49494177D03*
%TD*%
D11*
%TO.P,C1,1*%
%TO.N,Board_3-Net-(U1-CAP)*%
X156822887Y-36206451D03*
%TO.P,C1,2*%
%TO.N,Board_3-GND*%
X155862887Y-36206451D03*
%TD*%
D14*
%TO.P,R2,1*%
%TO.N,Board_8-Net-(U1-ENV_SDA)*%
X159950850Y-50514177D03*
%TO.P,R2,2*%
%TO.N,Board_8-+3.3V*%
X159950850Y-49494177D03*
%TD*%
%TO.P,R3,1*%
%TO.N,Board_19-Net-(U1-BOOTN)*%
X168984885Y-77105991D03*
%TO.P,R3,2*%
%TO.N,Board_19-+3.3V*%
X168984885Y-76085991D03*
%TD*%
D15*
%TO.P,U1,1,RESV_NC*%
%TO.N,Board_3-unconnected-(U1-RESV_NC-Pad1)*%
X156150000Y-31825000D03*
D16*
%TO.P,U1,2,GND*%
%TO.N,Board_3-GND*%
X156012500Y-32737500D03*
%TO.P,U1,3,VDD*%
%TO.N,Board_3-+3.3V*%
X156012500Y-33237500D03*
%TO.P,U1,4,BOOTN*%
%TO.N,Board_3-Net-(U1-BOOTN)*%
X156012500Y-33737500D03*
%TO.P,U1,5,PS1*%
%TO.N,Board_3-GND*%
X156012500Y-34237500D03*
D15*
%TO.P,U1,6,PS0/WAKE*%
X156150000Y-35150000D03*
%TO.P,U1,7,RESV_NC*%
%TO.N,Board_3-unconnected-(U1-RESV_NC-Pad7)*%
X156650000Y-35150000D03*
%TO.P,U1,8,RESV_NC*%
%TO.N,Board_3-unconnected-(U1-RESV_NC-Pad8)*%
X157150000Y-35150000D03*
%TO.P,U1,9,CAP*%
%TO.N,Board_3-Net-(U1-CAP)*%
X157650000Y-35150000D03*
%TO.P,U1,10,CLKSEL0*%
%TO.N,Board_3-+3.3V*%
X158150000Y-35150000D03*
%TO.P,U1,11,NRST*%
%TO.N,Board_3-unconnected-(U1-NRST-Pad11)*%
X158650000Y-35150000D03*
%TO.P,U1,12,RESV_NC*%
%TO.N,Board_3-unconnected-(U1-RESV_NC-Pad12)*%
X159150000Y-35150000D03*
%TO.P,U1,13,RESV_NC*%
%TO.N,Board_3-unconnected-(U1-RESV_NC-Pad13)*%
X159650000Y-35150000D03*
%TO.P,U1,14,H_INTN*%
%TO.N,Board_3-unconnected-(U1-H_INTN-Pad14)*%
X160150000Y-35150000D03*
%TO.P,U1,15,ENV_SCL*%
%TO.N,Board_3-Net-(U1-ENV_SCL)*%
X160650000Y-35150000D03*
D16*
%TO.P,U1,16,ENV_SDA*%
%TO.N,Board_3-Net-(U1-ENV_SDA)*%
X160787500Y-34237500D03*
%TO.P,U1,17,SA0/H_MOSI*%
%TO.N,Board_3-GND*%
X160787500Y-33737500D03*
%TO.P,U1,18,H_CSN*%
%TO.N,Board_3-unconnected-(U1-H_CSN-Pad18)*%
X160787500Y-33237500D03*
%TO.P,U1,19,H_SCL/SCK/RX*%
%TO.N,Board_3-Net-(J5-Pin_3)*%
X160787500Y-32737500D03*
D15*
%TO.P,U1,20,H_SDA/H_MISO/TX*%
%TO.N,Board_3-Net-(J5-Pin_4)*%
X160650000Y-31825000D03*
%TO.P,U1,21,RESV_NC*%
%TO.N,Board_3-unconnected-(U1-RESV_NC-Pad21)*%
X160150000Y-31825000D03*
%TO.P,U1,22,RESV_NC*%
%TO.N,Board_3-unconnected-(U1-RESV_NC-Pad22)*%
X159650000Y-31825000D03*
%TO.P,U1,23,RESV_NC*%
%TO.N,Board_3-unconnected-(U1-RESV_NC-Pad23)*%
X159150000Y-31825000D03*
%TO.P,U1,24,RESV_NC*%
%TO.N,Board_3-unconnected-(U1-RESV_NC-Pad24)*%
X158650000Y-31825000D03*
%TO.P,U1,25,GNDIO*%
%TO.N,Board_3-GND*%
X158150000Y-31825000D03*
%TO.P,U1,26,XOUT32/CLKSEL1*%
X157650000Y-31825000D03*
%TO.P,U1,27,XIN32*%
%TO.N,Board_3-unconnected-(U1-XIN32-Pad27)*%
X157150000Y-31825000D03*
%TO.P,U1,28,VDDIO*%
%TO.N,Board_3-+3.3V*%
X156650000Y-31825000D03*
%TD*%
D10*
%TO.P,R4,1*%
%TO.N,Board_3-Net-(J5-Pin_4)*%
X161379924Y-29790678D03*
%TO.P,R4,2*%
%TO.N,Board_3-+3.3V*%
X161379924Y-30810678D03*
%TD*%
D14*
%TO.P,R2,1*%
%TO.N,Board_13-Net-(U1-ENV_SDA)*%
X159950850Y-63814177D03*
%TO.P,R2,2*%
%TO.N,Board_13-+3.3V*%
X159950850Y-62794177D03*
%TD*%
D10*
%TO.P,R1,1*%
%TO.N,Board_13-+3.3V*%
X160925001Y-62769619D03*
%TO.P,R1,2*%
%TO.N,Board_13-Net-(U1-ENV_SCL)*%
X160925001Y-63789619D03*
%TD*%
%TO.P,R1,1*%
%TO.N,Board_11-+3.3V*%
X140925001Y-62769619D03*
%TO.P,R1,2*%
%TO.N,Board_11-Net-(U1-ENV_SCL)*%
X140925001Y-63789619D03*
%TD*%
D12*
%TO.P,J5,1,Pin_1*%
%TO.N,Board_4-GND*%
X166909337Y-28170000D03*
D13*
%TO.P,J5,2,Pin_2*%
%TO.N,Board_4-+3.3V*%
X167909337Y-28170000D03*
%TO.P,J5,3,Pin_3*%
%TO.N,Board_4-Net-(J5-Pin_3)*%
X168909337Y-28170000D03*
%TO.P,J5,4,Pin_4*%
%TO.N,Board_4-Net-(J5-Pin_4)*%
X169909337Y-28170000D03*
%TD*%
D14*
%TO.P,R2,1*%
%TO.N,Board_17-Net-(U1-ENV_SDA)*%
X149950850Y-77114177D03*
%TO.P,R2,2*%
%TO.N,Board_17-+3.3V*%
X149950850Y-76094177D03*
%TD*%
D11*
%TO.P,C1,1*%
%TO.N,Board_20-Net-(U1-CAP)*%
X126822887Y-89406451D03*
%TO.P,C1,2*%
%TO.N,Board_20-GND*%
X125862887Y-89406451D03*
%TD*%
D14*
%TO.P,R2,1*%
%TO.N,Board_0-Net-(U1-ENV_SDA)*%
X129950850Y-37214177D03*
%TO.P,R2,2*%
%TO.N,Board_0-+3.3V*%
X129950850Y-36194177D03*
%TD*%
D10*
%TO.P,R1,1*%
%TO.N,Board_23-+3.3V*%
X160925001Y-89369619D03*
%TO.P,R1,2*%
%TO.N,Board_23-Net-(U1-ENV_SCL)*%
X160925001Y-90389619D03*
%TD*%
%TO.P,R1,1*%
%TO.N,Board_15-+3.3V*%
X130925001Y-76069619D03*
%TO.P,R1,2*%
%TO.N,Board_15-Net-(U1-ENV_SCL)*%
X130925001Y-77089619D03*
%TD*%
%TO.P,R1,1*%
%TO.N,Board_1-+3.3V*%
X140925001Y-36169619D03*
%TO.P,R1,2*%
%TO.N,Board_1-Net-(U1-ENV_SCL)*%
X140925001Y-37189619D03*
%TD*%
%TO.P,R4,1*%
%TO.N,Board_11-Net-(J5-Pin_4)*%
X141379924Y-56390678D03*
%TO.P,R4,2*%
%TO.N,Board_11-+3.3V*%
X141379924Y-57410678D03*
%TD*%
D14*
%TO.P,R5,1*%
%TO.N,Board_13-+3.3V*%
X155415173Y-57387101D03*
%TO.P,R5,2*%
%TO.N,Board_13-Net-(J5-Pin_3)*%
X155415173Y-56367101D03*
%TD*%
%TO.P,R3,1*%
%TO.N,Board_20-Net-(U1-BOOTN)*%
X128984885Y-90405991D03*
%TO.P,R3,2*%
%TO.N,Board_20-+3.3V*%
X128984885Y-89385991D03*
%TD*%
%TO.P,R2,1*%
%TO.N,Board_11-Net-(U1-ENV_SDA)*%
X139950850Y-63814177D03*
%TO.P,R2,2*%
%TO.N,Board_11-+3.3V*%
X139950850Y-62794177D03*
%TD*%
D15*
%TO.P,U1,1,RESV_NC*%
%TO.N,Board_0-unconnected-(U1-RESV_NC-Pad1)*%
X126150000Y-31825000D03*
D16*
%TO.P,U1,2,GND*%
%TO.N,Board_0-GND*%
X126012500Y-32737500D03*
%TO.P,U1,3,VDD*%
%TO.N,Board_0-+3.3V*%
X126012500Y-33237500D03*
%TO.P,U1,4,BOOTN*%
%TO.N,Board_0-Net-(U1-BOOTN)*%
X126012500Y-33737500D03*
%TO.P,U1,5,PS1*%
%TO.N,Board_0-GND*%
X126012500Y-34237500D03*
D15*
%TO.P,U1,6,PS0/WAKE*%
X126150000Y-35150000D03*
%TO.P,U1,7,RESV_NC*%
%TO.N,Board_0-unconnected-(U1-RESV_NC-Pad7)*%
X126650000Y-35150000D03*
%TO.P,U1,8,RESV_NC*%
%TO.N,Board_0-unconnected-(U1-RESV_NC-Pad8)*%
X127150000Y-35150000D03*
%TO.P,U1,9,CAP*%
%TO.N,Board_0-Net-(U1-CAP)*%
X127650000Y-35150000D03*
%TO.P,U1,10,CLKSEL0*%
%TO.N,Board_0-+3.3V*%
X128150000Y-35150000D03*
%TO.P,U1,11,NRST*%
%TO.N,Board_0-unconnected-(U1-NRST-Pad11)*%
X128650000Y-35150000D03*
%TO.P,U1,12,RESV_NC*%
%TO.N,Board_0-unconnected-(U1-RESV_NC-Pad12)*%
X129150000Y-35150000D03*
%TO.P,U1,13,RESV_NC*%
%TO.N,Board_0-unconnected-(U1-RESV_NC-Pad13)*%
X129650000Y-35150000D03*
%TO.P,U1,14,H_INTN*%
%TO.N,Board_0-unconnected-(U1-H_INTN-Pad14)*%
X130150000Y-35150000D03*
%TO.P,U1,15,ENV_SCL*%
%TO.N,Board_0-Net-(U1-ENV_SCL)*%
X130650000Y-35150000D03*
D16*
%TO.P,U1,16,ENV_SDA*%
%TO.N,Board_0-Net-(U1-ENV_SDA)*%
X130787500Y-34237500D03*
%TO.P,U1,17,SA0/H_MOSI*%
%TO.N,Board_0-GND*%
X130787500Y-33737500D03*
%TO.P,U1,18,H_CSN*%
%TO.N,Board_0-unconnected-(U1-H_CSN-Pad18)*%
X130787500Y-33237500D03*
%TO.P,U1,19,H_SCL/SCK/RX*%
%TO.N,Board_0-Net-(J5-Pin_3)*%
X130787500Y-32737500D03*
D15*
%TO.P,U1,20,H_SDA/H_MISO/TX*%
%TO.N,Board_0-Net-(J5-Pin_4)*%
X130650000Y-31825000D03*
%TO.P,U1,21,RESV_NC*%
%TO.N,Board_0-unconnected-(U1-RESV_NC-Pad21)*%
X130150000Y-31825000D03*
%TO.P,U1,22,RESV_NC*%
%TO.N,Board_0-unconnected-(U1-RESV_NC-Pad22)*%
X129650000Y-31825000D03*
%TO.P,U1,23,RESV_NC*%
%TO.N,Board_0-unconnected-(U1-RESV_NC-Pad23)*%
X129150000Y-31825000D03*
%TO.P,U1,24,RESV_NC*%
%TO.N,Board_0-unconnected-(U1-RESV_NC-Pad24)*%
X128650000Y-31825000D03*
%TO.P,U1,25,GNDIO*%
%TO.N,Board_0-GND*%
X128150000Y-31825000D03*
%TO.P,U1,26,XOUT32/CLKSEL1*%
X127650000Y-31825000D03*
%TO.P,U1,27,XIN32*%
%TO.N,Board_0-unconnected-(U1-XIN32-Pad27)*%
X127150000Y-31825000D03*
%TO.P,U1,28,VDDIO*%
%TO.N,Board_0-+3.3V*%
X126650000Y-31825000D03*
%TD*%
D12*
%TO.P,J5,1,Pin_1*%
%TO.N,Board_15-GND*%
X126909337Y-68070000D03*
D13*
%TO.P,J5,2,Pin_2*%
%TO.N,Board_15-+3.3V*%
X127909337Y-68070000D03*
%TO.P,J5,3,Pin_3*%
%TO.N,Board_15-Net-(J5-Pin_3)*%
X128909337Y-68070000D03*
%TO.P,J5,4,Pin_4*%
%TO.N,Board_15-Net-(J5-Pin_4)*%
X129909337Y-68070000D03*
%TD*%
D14*
%TO.P,R5,1*%
%TO.N,Board_10-+3.3V*%
X125415173Y-57387101D03*
%TO.P,R5,2*%
%TO.N,Board_10-Net-(J5-Pin_3)*%
X125415173Y-56367101D03*
%TD*%
%TO.P,R2,1*%
%TO.N,Board_10-Net-(U1-ENV_SDA)*%
X129950850Y-63814177D03*
%TO.P,R2,2*%
%TO.N,Board_10-+3.3V*%
X129950850Y-62794177D03*
%TD*%
D12*
%TO.P,J5,1,Pin_1*%
%TO.N,Board_18-GND*%
X156909337Y-68070000D03*
D13*
%TO.P,J5,2,Pin_2*%
%TO.N,Board_18-+3.3V*%
X157909337Y-68070000D03*
%TO.P,J5,3,Pin_3*%
%TO.N,Board_18-Net-(J5-Pin_3)*%
X158909337Y-68070000D03*
%TO.P,J5,4,Pin_4*%
%TO.N,Board_18-Net-(J5-Pin_4)*%
X159909337Y-68070000D03*
%TD*%
D14*
%TO.P,R3,1*%
%TO.N,Board_4-Net-(U1-BOOTN)*%
X168984885Y-37205991D03*
%TO.P,R3,2*%
%TO.N,Board_4-+3.3V*%
X168984885Y-36185991D03*
%TD*%
D10*
%TO.P,R1,1*%
%TO.N,Board_16-+3.3V*%
X140925001Y-76069619D03*
%TO.P,R1,2*%
%TO.N,Board_16-Net-(U1-ENV_SCL)*%
X140925001Y-77089619D03*
%TD*%
D15*
%TO.P,U1,1,RESV_NC*%
%TO.N,Board_10-unconnected-(U1-RESV_NC-Pad1)*%
X126150000Y-58425000D03*
D16*
%TO.P,U1,2,GND*%
%TO.N,Board_10-GND*%
X126012500Y-59337500D03*
%TO.P,U1,3,VDD*%
%TO.N,Board_10-+3.3V*%
X126012500Y-59837500D03*
%TO.P,U1,4,BOOTN*%
%TO.N,Board_10-Net-(U1-BOOTN)*%
X126012500Y-60337500D03*
%TO.P,U1,5,PS1*%
%TO.N,Board_10-GND*%
X126012500Y-60837500D03*
D15*
%TO.P,U1,6,PS0/WAKE*%
X126150000Y-61750000D03*
%TO.P,U1,7,RESV_NC*%
%TO.N,Board_10-unconnected-(U1-RESV_NC-Pad7)*%
X126650000Y-61750000D03*
%TO.P,U1,8,RESV_NC*%
%TO.N,Board_10-unconnected-(U1-RESV_NC-Pad8)*%
X127150000Y-61750000D03*
%TO.P,U1,9,CAP*%
%TO.N,Board_10-Net-(U1-CAP)*%
X127650000Y-61750000D03*
%TO.P,U1,10,CLKSEL0*%
%TO.N,Board_10-+3.3V*%
X128150000Y-61750000D03*
%TO.P,U1,11,NRST*%
%TO.N,Board_10-unconnected-(U1-NRST-Pad11)*%
X128650000Y-61750000D03*
%TO.P,U1,12,RESV_NC*%
%TO.N,Board_10-unconnected-(U1-RESV_NC-Pad12)*%
X129150000Y-61750000D03*
%TO.P,U1,13,RESV_NC*%
%TO.N,Board_10-unconnected-(U1-RESV_NC-Pad13)*%
X129650000Y-61750000D03*
%TO.P,U1,14,H_INTN*%
%TO.N,Board_10-unconnected-(U1-H_INTN-Pad14)*%
X130150000Y-61750000D03*
%TO.P,U1,15,ENV_SCL*%
%TO.N,Board_10-Net-(U1-ENV_SCL)*%
X130650000Y-61750000D03*
D16*
%TO.P,U1,16,ENV_SDA*%
%TO.N,Board_10-Net-(U1-ENV_SDA)*%
X130787500Y-60837500D03*
%TO.P,U1,17,SA0/H_MOSI*%
%TO.N,Board_10-GND*%
X130787500Y-60337500D03*
%TO.P,U1,18,H_CSN*%
%TO.N,Board_10-unconnected-(U1-H_CSN-Pad18)*%
X130787500Y-59837500D03*
%TO.P,U1,19,H_SCL/SCK/RX*%
%TO.N,Board_10-Net-(J5-Pin_3)*%
X130787500Y-59337500D03*
D15*
%TO.P,U1,20,H_SDA/H_MISO/TX*%
%TO.N,Board_10-Net-(J5-Pin_4)*%
X130650000Y-58425000D03*
%TO.P,U1,21,RESV_NC*%
%TO.N,Board_10-unconnected-(U1-RESV_NC-Pad21)*%
X130150000Y-58425000D03*
%TO.P,U1,22,RESV_NC*%
%TO.N,Board_10-unconnected-(U1-RESV_NC-Pad22)*%
X129650000Y-58425000D03*
%TO.P,U1,23,RESV_NC*%
%TO.N,Board_10-unconnected-(U1-RESV_NC-Pad23)*%
X129150000Y-58425000D03*
%TO.P,U1,24,RESV_NC*%
%TO.N,Board_10-unconnected-(U1-RESV_NC-Pad24)*%
X128650000Y-58425000D03*
%TO.P,U1,25,GNDIO*%
%TO.N,Board_10-GND*%
X128150000Y-58425000D03*
%TO.P,U1,26,XOUT32/CLKSEL1*%
X127650000Y-58425000D03*
%TO.P,U1,27,XIN32*%
%TO.N,Board_10-unconnected-(U1-XIN32-Pad27)*%
X127150000Y-58425000D03*
%TO.P,U1,28,VDDIO*%
%TO.N,Board_10-+3.3V*%
X126650000Y-58425000D03*
%TD*%
D11*
%TO.P,C1,1*%
%TO.N,Board_6-Net-(U1-CAP)*%
X136822887Y-49506451D03*
%TO.P,C1,2*%
%TO.N,Board_6-GND*%
X135862887Y-49506451D03*
%TD*%
D14*
%TO.P,R3,1*%
%TO.N,Board_6-Net-(U1-BOOTN)*%
X138984885Y-50505991D03*
%TO.P,R3,2*%
%TO.N,Board_6-+3.3V*%
X138984885Y-49485991D03*
%TD*%
D12*
%TO.P,J5,1,Pin_1*%
%TO.N,Board_13-GND*%
X156909337Y-54770000D03*
D13*
%TO.P,J5,2,Pin_2*%
%TO.N,Board_13-+3.3V*%
X157909337Y-54770000D03*
%TO.P,J5,3,Pin_3*%
%TO.N,Board_13-Net-(J5-Pin_3)*%
X158909337Y-54770000D03*
%TO.P,J5,4,Pin_4*%
%TO.N,Board_13-Net-(J5-Pin_4)*%
X159909337Y-54770000D03*
%TD*%
D10*
%TO.P,R4,1*%
%TO.N,Board_6-Net-(J5-Pin_4)*%
X141379924Y-43090678D03*
%TO.P,R4,2*%
%TO.N,Board_6-+3.3V*%
X141379924Y-44110678D03*
%TD*%
D11*
%TO.P,C1,1*%
%TO.N,Board_18-Net-(U1-CAP)*%
X156822887Y-76106451D03*
%TO.P,C1,2*%
%TO.N,Board_18-GND*%
X155862887Y-76106451D03*
%TD*%
%TO.P,C1,1*%
%TO.N,Board_15-Net-(U1-CAP)*%
X126822887Y-76106451D03*
%TO.P,C1,2*%
%TO.N,Board_15-GND*%
X125862887Y-76106451D03*
%TD*%
D14*
%TO.P,R5,1*%
%TO.N,Board_24-+3.3V*%
X165415173Y-83987101D03*
%TO.P,R5,2*%
%TO.N,Board_24-Net-(J5-Pin_3)*%
X165415173Y-82967101D03*
%TD*%
D15*
%TO.P,U1,1,RESV_NC*%
%TO.N,Board_9-unconnected-(U1-RESV_NC-Pad1)*%
X166150000Y-45125000D03*
D16*
%TO.P,U1,2,GND*%
%TO.N,Board_9-GND*%
X166012500Y-46037500D03*
%TO.P,U1,3,VDD*%
%TO.N,Board_9-+3.3V*%
X166012500Y-46537500D03*
%TO.P,U1,4,BOOTN*%
%TO.N,Board_9-Net-(U1-BOOTN)*%
X166012500Y-47037500D03*
%TO.P,U1,5,PS1*%
%TO.N,Board_9-GND*%
X166012500Y-47537500D03*
D15*
%TO.P,U1,6,PS0/WAKE*%
X166150000Y-48450000D03*
%TO.P,U1,7,RESV_NC*%
%TO.N,Board_9-unconnected-(U1-RESV_NC-Pad7)*%
X166650000Y-48450000D03*
%TO.P,U1,8,RESV_NC*%
%TO.N,Board_9-unconnected-(U1-RESV_NC-Pad8)*%
X167150000Y-48450000D03*
%TO.P,U1,9,CAP*%
%TO.N,Board_9-Net-(U1-CAP)*%
X167650000Y-48450000D03*
%TO.P,U1,10,CLKSEL0*%
%TO.N,Board_9-+3.3V*%
X168150000Y-48450000D03*
%TO.P,U1,11,NRST*%
%TO.N,Board_9-unconnected-(U1-NRST-Pad11)*%
X168650000Y-48450000D03*
%TO.P,U1,12,RESV_NC*%
%TO.N,Board_9-unconnected-(U1-RESV_NC-Pad12)*%
X169150000Y-48450000D03*
%TO.P,U1,13,RESV_NC*%
%TO.N,Board_9-unconnected-(U1-RESV_NC-Pad13)*%
X169650000Y-48450000D03*
%TO.P,U1,14,H_INTN*%
%TO.N,Board_9-unconnected-(U1-H_INTN-Pad14)*%
X170150000Y-48450000D03*
%TO.P,U1,15,ENV_SCL*%
%TO.N,Board_9-Net-(U1-ENV_SCL)*%
X170650000Y-48450000D03*
D16*
%TO.P,U1,16,ENV_SDA*%
%TO.N,Board_9-Net-(U1-ENV_SDA)*%
X170787500Y-47537500D03*
%TO.P,U1,17,SA0/H_MOSI*%
%TO.N,Board_9-GND*%
X170787500Y-47037500D03*
%TO.P,U1,18,H_CSN*%
%TO.N,Board_9-unconnected-(U1-H_CSN-Pad18)*%
X170787500Y-46537500D03*
%TO.P,U1,19,H_SCL/SCK/RX*%
%TO.N,Board_9-Net-(J5-Pin_3)*%
X170787500Y-46037500D03*
D15*
%TO.P,U1,20,H_SDA/H_MISO/TX*%
%TO.N,Board_9-Net-(J5-Pin_4)*%
X170650000Y-45125000D03*
%TO.P,U1,21,RESV_NC*%
%TO.N,Board_9-unconnected-(U1-RESV_NC-Pad21)*%
X170150000Y-45125000D03*
%TO.P,U1,22,RESV_NC*%
%TO.N,Board_9-unconnected-(U1-RESV_NC-Pad22)*%
X169650000Y-45125000D03*
%TO.P,U1,23,RESV_NC*%
%TO.N,Board_9-unconnected-(U1-RESV_NC-Pad23)*%
X169150000Y-45125000D03*
%TO.P,U1,24,RESV_NC*%
%TO.N,Board_9-unconnected-(U1-RESV_NC-Pad24)*%
X168650000Y-45125000D03*
%TO.P,U1,25,GNDIO*%
%TO.N,Board_9-GND*%
X168150000Y-45125000D03*
%TO.P,U1,26,XOUT32/CLKSEL1*%
X167650000Y-45125000D03*
%TO.P,U1,27,XIN32*%
%TO.N,Board_9-unconnected-(U1-XIN32-Pad27)*%
X167150000Y-45125000D03*
%TO.P,U1,28,VDDIO*%
%TO.N,Board_9-+3.3V*%
X166650000Y-45125000D03*
%TD*%
D14*
%TO.P,R3,1*%
%TO.N,Board_16-Net-(U1-BOOTN)*%
X138984885Y-77105991D03*
%TO.P,R3,2*%
%TO.N,Board_16-+3.3V*%
X138984885Y-76085991D03*
%TD*%
D15*
%TO.P,U1,1,RESV_NC*%
%TO.N,Board_17-unconnected-(U1-RESV_NC-Pad1)*%
X146150000Y-71725000D03*
D16*
%TO.P,U1,2,GND*%
%TO.N,Board_17-GND*%
X146012500Y-72637500D03*
%TO.P,U1,3,VDD*%
%TO.N,Board_17-+3.3V*%
X146012500Y-73137500D03*
%TO.P,U1,4,BOOTN*%
%TO.N,Board_17-Net-(U1-BOOTN)*%
X146012500Y-73637500D03*
%TO.P,U1,5,PS1*%
%TO.N,Board_17-GND*%
X146012500Y-74137500D03*
D15*
%TO.P,U1,6,PS0/WAKE*%
X146150000Y-75050000D03*
%TO.P,U1,7,RESV_NC*%
%TO.N,Board_17-unconnected-(U1-RESV_NC-Pad7)*%
X146650000Y-75050000D03*
%TO.P,U1,8,RESV_NC*%
%TO.N,Board_17-unconnected-(U1-RESV_NC-Pad8)*%
X147150000Y-75050000D03*
%TO.P,U1,9,CAP*%
%TO.N,Board_17-Net-(U1-CAP)*%
X147650000Y-75050000D03*
%TO.P,U1,10,CLKSEL0*%
%TO.N,Board_17-+3.3V*%
X148150000Y-75050000D03*
%TO.P,U1,11,NRST*%
%TO.N,Board_17-unconnected-(U1-NRST-Pad11)*%
X148650000Y-75050000D03*
%TO.P,U1,12,RESV_NC*%
%TO.N,Board_17-unconnected-(U1-RESV_NC-Pad12)*%
X149150000Y-75050000D03*
%TO.P,U1,13,RESV_NC*%
%TO.N,Board_17-unconnected-(U1-RESV_NC-Pad13)*%
X149650000Y-75050000D03*
%TO.P,U1,14,H_INTN*%
%TO.N,Board_17-unconnected-(U1-H_INTN-Pad14)*%
X150150000Y-75050000D03*
%TO.P,U1,15,ENV_SCL*%
%TO.N,Board_17-Net-(U1-ENV_SCL)*%
X150650000Y-75050000D03*
D16*
%TO.P,U1,16,ENV_SDA*%
%TO.N,Board_17-Net-(U1-ENV_SDA)*%
X150787500Y-74137500D03*
%TO.P,U1,17,SA0/H_MOSI*%
%TO.N,Board_17-GND*%
X150787500Y-73637500D03*
%TO.P,U1,18,H_CSN*%
%TO.N,Board_17-unconnected-(U1-H_CSN-Pad18)*%
X150787500Y-73137500D03*
%TO.P,U1,19,H_SCL/SCK/RX*%
%TO.N,Board_17-Net-(J5-Pin_3)*%
X150787500Y-72637500D03*
D15*
%TO.P,U1,20,H_SDA/H_MISO/TX*%
%TO.N,Board_17-Net-(J5-Pin_4)*%
X150650000Y-71725000D03*
%TO.P,U1,21,RESV_NC*%
%TO.N,Board_17-unconnected-(U1-RESV_NC-Pad21)*%
X150150000Y-71725000D03*
%TO.P,U1,22,RESV_NC*%
%TO.N,Board_17-unconnected-(U1-RESV_NC-Pad22)*%
X149650000Y-71725000D03*
%TO.P,U1,23,RESV_NC*%
%TO.N,Board_17-unconnected-(U1-RESV_NC-Pad23)*%
X149150000Y-71725000D03*
%TO.P,U1,24,RESV_NC*%
%TO.N,Board_17-unconnected-(U1-RESV_NC-Pad24)*%
X148650000Y-71725000D03*
%TO.P,U1,25,GNDIO*%
%TO.N,Board_17-GND*%
X148150000Y-71725000D03*
%TO.P,U1,26,XOUT32/CLKSEL1*%
X147650000Y-71725000D03*
%TO.P,U1,27,XIN32*%
%TO.N,Board_17-unconnected-(U1-XIN32-Pad27)*%
X147150000Y-71725000D03*
%TO.P,U1,28,VDDIO*%
%TO.N,Board_17-+3.3V*%
X146650000Y-71725000D03*
%TD*%
D14*
%TO.P,R3,1*%
%TO.N,Board_3-Net-(U1-BOOTN)*%
X158984885Y-37205991D03*
%TO.P,R3,2*%
%TO.N,Board_3-+3.3V*%
X158984885Y-36185991D03*
%TD*%
%TO.P,R3,1*%
%TO.N,Board_12-Net-(U1-BOOTN)*%
X148984885Y-63805991D03*
%TO.P,R3,2*%
%TO.N,Board_12-+3.3V*%
X148984885Y-62785991D03*
%TD*%
%TO.P,R3,1*%
%TO.N,Board_15-Net-(U1-BOOTN)*%
X128984885Y-77105991D03*
%TO.P,R3,2*%
%TO.N,Board_15-+3.3V*%
X128984885Y-76085991D03*
%TD*%
D12*
%TO.P,J5,1,Pin_1*%
%TO.N,Board_8-GND*%
X156909337Y-41470000D03*
D13*
%TO.P,J5,2,Pin_2*%
%TO.N,Board_8-+3.3V*%
X157909337Y-41470000D03*
%TO.P,J5,3,Pin_3*%
%TO.N,Board_8-Net-(J5-Pin_3)*%
X158909337Y-41470000D03*
%TO.P,J5,4,Pin_4*%
%TO.N,Board_8-Net-(J5-Pin_4)*%
X159909337Y-41470000D03*
%TD*%
D10*
%TO.P,R1,1*%
%TO.N,Board_4-+3.3V*%
X170925001Y-36169619D03*
%TO.P,R1,2*%
%TO.N,Board_4-Net-(U1-ENV_SCL)*%
X170925001Y-37189619D03*
%TD*%
%TO.P,R4,1*%
%TO.N,Board_19-Net-(J5-Pin_4)*%
X171379924Y-69690678D03*
%TO.P,R4,2*%
%TO.N,Board_19-+3.3V*%
X171379924Y-70710678D03*
%TD*%
D14*
%TO.P,R3,1*%
%TO.N,Board_1-Net-(U1-BOOTN)*%
X138984885Y-37205991D03*
%TO.P,R3,2*%
%TO.N,Board_1-+3.3V*%
X138984885Y-36185991D03*
%TD*%
%TO.P,R5,1*%
%TO.N,Board_0-+3.3V*%
X125415173Y-30787101D03*
%TO.P,R5,2*%
%TO.N,Board_0-Net-(J5-Pin_3)*%
X125415173Y-29767101D03*
%TD*%
D10*
%TO.P,R4,1*%
%TO.N,Board_21-Net-(J5-Pin_4)*%
X141379924Y-82990678D03*
%TO.P,R4,2*%
%TO.N,Board_21-+3.3V*%
X141379924Y-84010678D03*
%TD*%
D14*
%TO.P,R5,1*%
%TO.N,Board_19-+3.3V*%
X165415173Y-70687101D03*
%TO.P,R5,2*%
%TO.N,Board_19-Net-(J5-Pin_3)*%
X165415173Y-69667101D03*
%TD*%
D15*
%TO.P,U1,1,RESV_NC*%
%TO.N,Board_5-unconnected-(U1-RESV_NC-Pad1)*%
X126150000Y-45125000D03*
D16*
%TO.P,U1,2,GND*%
%TO.N,Board_5-GND*%
X126012500Y-46037500D03*
%TO.P,U1,3,VDD*%
%TO.N,Board_5-+3.3V*%
X126012500Y-46537500D03*
%TO.P,U1,4,BOOTN*%
%TO.N,Board_5-Net-(U1-BOOTN)*%
X126012500Y-47037500D03*
%TO.P,U1,5,PS1*%
%TO.N,Board_5-GND*%
X126012500Y-47537500D03*
D15*
%TO.P,U1,6,PS0/WAKE*%
X126150000Y-48450000D03*
%TO.P,U1,7,RESV_NC*%
%TO.N,Board_5-unconnected-(U1-RESV_NC-Pad7)*%
X126650000Y-48450000D03*
%TO.P,U1,8,RESV_NC*%
%TO.N,Board_5-unconnected-(U1-RESV_NC-Pad8)*%
X127150000Y-48450000D03*
%TO.P,U1,9,CAP*%
%TO.N,Board_5-Net-(U1-CAP)*%
X127650000Y-48450000D03*
%TO.P,U1,10,CLKSEL0*%
%TO.N,Board_5-+3.3V*%
X128150000Y-48450000D03*
%TO.P,U1,11,NRST*%
%TO.N,Board_5-unconnected-(U1-NRST-Pad11)*%
X128650000Y-48450000D03*
%TO.P,U1,12,RESV_NC*%
%TO.N,Board_5-unconnected-(U1-RESV_NC-Pad12)*%
X129150000Y-48450000D03*
%TO.P,U1,13,RESV_NC*%
%TO.N,Board_5-unconnected-(U1-RESV_NC-Pad13)*%
X129650000Y-48450000D03*
%TO.P,U1,14,H_INTN*%
%TO.N,Board_5-unconnected-(U1-H_INTN-Pad14)*%
X130150000Y-48450000D03*
%TO.P,U1,15,ENV_SCL*%
%TO.N,Board_5-Net-(U1-ENV_SCL)*%
X130650000Y-48450000D03*
D16*
%TO.P,U1,16,ENV_SDA*%
%TO.N,Board_5-Net-(U1-ENV_SDA)*%
X130787500Y-47537500D03*
%TO.P,U1,17,SA0/H_MOSI*%
%TO.N,Board_5-GND*%
X130787500Y-47037500D03*
%TO.P,U1,18,H_CSN*%
%TO.N,Board_5-unconnected-(U1-H_CSN-Pad18)*%
X130787500Y-46537500D03*
%TO.P,U1,19,H_SCL/SCK/RX*%
%TO.N,Board_5-Net-(J5-Pin_3)*%
X130787500Y-46037500D03*
D15*
%TO.P,U1,20,H_SDA/H_MISO/TX*%
%TO.N,Board_5-Net-(J5-Pin_4)*%
X130650000Y-45125000D03*
%TO.P,U1,21,RESV_NC*%
%TO.N,Board_5-unconnected-(U1-RESV_NC-Pad21)*%
X130150000Y-45125000D03*
%TO.P,U1,22,RESV_NC*%
%TO.N,Board_5-unconnected-(U1-RESV_NC-Pad22)*%
X129650000Y-45125000D03*
%TO.P,U1,23,RESV_NC*%
%TO.N,Board_5-unconnected-(U1-RESV_NC-Pad23)*%
X129150000Y-45125000D03*
%TO.P,U1,24,RESV_NC*%
%TO.N,Board_5-unconnected-(U1-RESV_NC-Pad24)*%
X128650000Y-45125000D03*
%TO.P,U1,25,GNDIO*%
%TO.N,Board_5-GND*%
X128150000Y-45125000D03*
%TO.P,U1,26,XOUT32/CLKSEL1*%
X127650000Y-45125000D03*
%TO.P,U1,27,XIN32*%
%TO.N,Board_5-unconnected-(U1-XIN32-Pad27)*%
X127150000Y-45125000D03*
%TO.P,U1,28,VDDIO*%
%TO.N,Board_5-+3.3V*%
X126650000Y-45125000D03*
%TD*%
%TO.P,U1,1,RESV_NC*%
%TO.N,Board_14-unconnected-(U1-RESV_NC-Pad1)*%
X166150000Y-58425000D03*
D16*
%TO.P,U1,2,GND*%
%TO.N,Board_14-GND*%
X166012500Y-59337500D03*
%TO.P,U1,3,VDD*%
%TO.N,Board_14-+3.3V*%
X166012500Y-59837500D03*
%TO.P,U1,4,BOOTN*%
%TO.N,Board_14-Net-(U1-BOOTN)*%
X166012500Y-60337500D03*
%TO.P,U1,5,PS1*%
%TO.N,Board_14-GND*%
X166012500Y-60837500D03*
D15*
%TO.P,U1,6,PS0/WAKE*%
X166150000Y-61750000D03*
%TO.P,U1,7,RESV_NC*%
%TO.N,Board_14-unconnected-(U1-RESV_NC-Pad7)*%
X166650000Y-61750000D03*
%TO.P,U1,8,RESV_NC*%
%TO.N,Board_14-unconnected-(U1-RESV_NC-Pad8)*%
X167150000Y-61750000D03*
%TO.P,U1,9,CAP*%
%TO.N,Board_14-Net-(U1-CAP)*%
X167650000Y-61750000D03*
%TO.P,U1,10,CLKSEL0*%
%TO.N,Board_14-+3.3V*%
X168150000Y-61750000D03*
%TO.P,U1,11,NRST*%
%TO.N,Board_14-unconnected-(U1-NRST-Pad11)*%
X168650000Y-61750000D03*
%TO.P,U1,12,RESV_NC*%
%TO.N,Board_14-unconnected-(U1-RESV_NC-Pad12)*%
X169150000Y-61750000D03*
%TO.P,U1,13,RESV_NC*%
%TO.N,Board_14-unconnected-(U1-RESV_NC-Pad13)*%
X169650000Y-61750000D03*
%TO.P,U1,14,H_INTN*%
%TO.N,Board_14-unconnected-(U1-H_INTN-Pad14)*%
X170150000Y-61750000D03*
%TO.P,U1,15,ENV_SCL*%
%TO.N,Board_14-Net-(U1-ENV_SCL)*%
X170650000Y-61750000D03*
D16*
%TO.P,U1,16,ENV_SDA*%
%TO.N,Board_14-Net-(U1-ENV_SDA)*%
X170787500Y-60837500D03*
%TO.P,U1,17,SA0/H_MOSI*%
%TO.N,Board_14-GND*%
X170787500Y-60337500D03*
%TO.P,U1,18,H_CSN*%
%TO.N,Board_14-unconnected-(U1-H_CSN-Pad18)*%
X170787500Y-59837500D03*
%TO.P,U1,19,H_SCL/SCK/RX*%
%TO.N,Board_14-Net-(J5-Pin_3)*%
X170787500Y-59337500D03*
D15*
%TO.P,U1,20,H_SDA/H_MISO/TX*%
%TO.N,Board_14-Net-(J5-Pin_4)*%
X170650000Y-58425000D03*
%TO.P,U1,21,RESV_NC*%
%TO.N,Board_14-unconnected-(U1-RESV_NC-Pad21)*%
X170150000Y-58425000D03*
%TO.P,U1,22,RESV_NC*%
%TO.N,Board_14-unconnected-(U1-RESV_NC-Pad22)*%
X169650000Y-58425000D03*
%TO.P,U1,23,RESV_NC*%
%TO.N,Board_14-unconnected-(U1-RESV_NC-Pad23)*%
X169150000Y-58425000D03*
%TO.P,U1,24,RESV_NC*%
%TO.N,Board_14-unconnected-(U1-RESV_NC-Pad24)*%
X168650000Y-58425000D03*
%TO.P,U1,25,GNDIO*%
%TO.N,Board_14-GND*%
X168150000Y-58425000D03*
%TO.P,U1,26,XOUT32/CLKSEL1*%
X167650000Y-58425000D03*
%TO.P,U1,27,XIN32*%
%TO.N,Board_14-unconnected-(U1-XIN32-Pad27)*%
X167150000Y-58425000D03*
%TO.P,U1,28,VDDIO*%
%TO.N,Board_14-+3.3V*%
X166650000Y-58425000D03*
%TD*%
D10*
%TO.P,R4,1*%
%TO.N,Board_7-Net-(J5-Pin_4)*%
X151379924Y-43090678D03*
%TO.P,R4,2*%
%TO.N,Board_7-+3.3V*%
X151379924Y-44110678D03*
%TD*%
%TO.P,R4,1*%
%TO.N,Board_1-Net-(J5-Pin_4)*%
X141379924Y-29790678D03*
%TO.P,R4,2*%
%TO.N,Board_1-+3.3V*%
X141379924Y-30810678D03*
%TD*%
D12*
%TO.P,J5,1,Pin_1*%
%TO.N,Board_12-GND*%
X146909337Y-54770000D03*
D13*
%TO.P,J5,2,Pin_2*%
%TO.N,Board_12-+3.3V*%
X147909337Y-54770000D03*
%TO.P,J5,3,Pin_3*%
%TO.N,Board_12-Net-(J5-Pin_3)*%
X148909337Y-54770000D03*
%TO.P,J5,4,Pin_4*%
%TO.N,Board_12-Net-(J5-Pin_4)*%
X149909337Y-54770000D03*
%TD*%
D11*
%TO.P,C1,1*%
%TO.N,Board_14-Net-(U1-CAP)*%
X166822887Y-62806451D03*
%TO.P,C1,2*%
%TO.N,Board_14-GND*%
X165862887Y-62806451D03*
%TD*%
D10*
%TO.P,R4,1*%
%TO.N,Board_5-Net-(J5-Pin_4)*%
X131379924Y-43090678D03*
%TO.P,R4,2*%
%TO.N,Board_5-+3.3V*%
X131379924Y-44110678D03*
%TD*%
D15*
%TO.P,U1,1,RESV_NC*%
%TO.N,Board_7-unconnected-(U1-RESV_NC-Pad1)*%
X146150000Y-45125000D03*
D16*
%TO.P,U1,2,GND*%
%TO.N,Board_7-GND*%
X146012500Y-46037500D03*
%TO.P,U1,3,VDD*%
%TO.N,Board_7-+3.3V*%
X146012500Y-46537500D03*
%TO.P,U1,4,BOOTN*%
%TO.N,Board_7-Net-(U1-BOOTN)*%
X146012500Y-47037500D03*
%TO.P,U1,5,PS1*%
%TO.N,Board_7-GND*%
X146012500Y-47537500D03*
D15*
%TO.P,U1,6,PS0/WAKE*%
X146150000Y-48450000D03*
%TO.P,U1,7,RESV_NC*%
%TO.N,Board_7-unconnected-(U1-RESV_NC-Pad7)*%
X146650000Y-48450000D03*
%TO.P,U1,8,RESV_NC*%
%TO.N,Board_7-unconnected-(U1-RESV_NC-Pad8)*%
X147150000Y-48450000D03*
%TO.P,U1,9,CAP*%
%TO.N,Board_7-Net-(U1-CAP)*%
X147650000Y-48450000D03*
%TO.P,U1,10,CLKSEL0*%
%TO.N,Board_7-+3.3V*%
X148150000Y-48450000D03*
%TO.P,U1,11,NRST*%
%TO.N,Board_7-unconnected-(U1-NRST-Pad11)*%
X148650000Y-48450000D03*
%TO.P,U1,12,RESV_NC*%
%TO.N,Board_7-unconnected-(U1-RESV_NC-Pad12)*%
X149150000Y-48450000D03*
%TO.P,U1,13,RESV_NC*%
%TO.N,Board_7-unconnected-(U1-RESV_NC-Pad13)*%
X149650000Y-48450000D03*
%TO.P,U1,14,H_INTN*%
%TO.N,Board_7-unconnected-(U1-H_INTN-Pad14)*%
X150150000Y-48450000D03*
%TO.P,U1,15,ENV_SCL*%
%TO.N,Board_7-Net-(U1-ENV_SCL)*%
X150650000Y-48450000D03*
D16*
%TO.P,U1,16,ENV_SDA*%
%TO.N,Board_7-Net-(U1-ENV_SDA)*%
X150787500Y-47537500D03*
%TO.P,U1,17,SA0/H_MOSI*%
%TO.N,Board_7-GND*%
X150787500Y-47037500D03*
%TO.P,U1,18,H_CSN*%
%TO.N,Board_7-unconnected-(U1-H_CSN-Pad18)*%
X150787500Y-46537500D03*
%TO.P,U1,19,H_SCL/SCK/RX*%
%TO.N,Board_7-Net-(J5-Pin_3)*%
X150787500Y-46037500D03*
D15*
%TO.P,U1,20,H_SDA/H_MISO/TX*%
%TO.N,Board_7-Net-(J5-Pin_4)*%
X150650000Y-45125000D03*
%TO.P,U1,21,RESV_NC*%
%TO.N,Board_7-unconnected-(U1-RESV_NC-Pad21)*%
X150150000Y-45125000D03*
%TO.P,U1,22,RESV_NC*%
%TO.N,Board_7-unconnected-(U1-RESV_NC-Pad22)*%
X149650000Y-45125000D03*
%TO.P,U1,23,RESV_NC*%
%TO.N,Board_7-unconnected-(U1-RESV_NC-Pad23)*%
X149150000Y-45125000D03*
%TO.P,U1,24,RESV_NC*%
%TO.N,Board_7-unconnected-(U1-RESV_NC-Pad24)*%
X148650000Y-45125000D03*
%TO.P,U1,25,GNDIO*%
%TO.N,Board_7-GND*%
X148150000Y-45125000D03*
%TO.P,U1,26,XOUT32/CLKSEL1*%
X147650000Y-45125000D03*
%TO.P,U1,27,XIN32*%
%TO.N,Board_7-unconnected-(U1-XIN32-Pad27)*%
X147150000Y-45125000D03*
%TO.P,U1,28,VDDIO*%
%TO.N,Board_7-+3.3V*%
X146650000Y-45125000D03*
%TD*%
D11*
%TO.P,C1,1*%
%TO.N,Board_11-Net-(U1-CAP)*%
X136822887Y-62806451D03*
%TO.P,C1,2*%
%TO.N,Board_11-GND*%
X135862887Y-62806451D03*
%TD*%
D14*
%TO.P,R2,1*%
%TO.N,Board_20-Net-(U1-ENV_SDA)*%
X129950850Y-90414177D03*
%TO.P,R2,2*%
%TO.N,Board_20-+3.3V*%
X129950850Y-89394177D03*
%TD*%
D11*
%TO.P,C1,1*%
%TO.N,Board_17-Net-(U1-CAP)*%
X146822887Y-76106451D03*
%TO.P,C1,2*%
%TO.N,Board_17-GND*%
X145862887Y-76106451D03*
%TD*%
D10*
%TO.P,R1,1*%
%TO.N,Board_17-+3.3V*%
X150925001Y-76069619D03*
%TO.P,R1,2*%
%TO.N,Board_17-Net-(U1-ENV_SCL)*%
X150925001Y-77089619D03*
%TD*%
D14*
%TO.P,R3,1*%
%TO.N,Board_10-Net-(U1-BOOTN)*%
X128984885Y-63805991D03*
%TO.P,R3,2*%
%TO.N,Board_10-+3.3V*%
X128984885Y-62785991D03*
%TD*%
D12*
%TO.P,J5,1,Pin_1*%
%TO.N,Board_7-GND*%
X146909337Y-41470000D03*
D13*
%TO.P,J5,2,Pin_2*%
%TO.N,Board_7-+3.3V*%
X147909337Y-41470000D03*
%TO.P,J5,3,Pin_3*%
%TO.N,Board_7-Net-(J5-Pin_3)*%
X148909337Y-41470000D03*
%TO.P,J5,4,Pin_4*%
%TO.N,Board_7-Net-(J5-Pin_4)*%
X149909337Y-41470000D03*
%TD*%
D10*
%TO.P,R4,1*%
%TO.N,Board_24-Net-(J5-Pin_4)*%
X171379924Y-82990678D03*
%TO.P,R4,2*%
%TO.N,Board_24-+3.3V*%
X171379924Y-84010678D03*
%TD*%
D14*
%TO.P,R3,1*%
%TO.N,Board_13-Net-(U1-BOOTN)*%
X158984885Y-63805991D03*
%TO.P,R3,2*%
%TO.N,Board_13-+3.3V*%
X158984885Y-62785991D03*
%TD*%
D12*
%TO.P,J5,1,Pin_1*%
%TO.N,Board_22-GND*%
X146909337Y-81370000D03*
D13*
%TO.P,J5,2,Pin_2*%
%TO.N,Board_22-+3.3V*%
X147909337Y-81370000D03*
%TO.P,J5,3,Pin_3*%
%TO.N,Board_22-Net-(J5-Pin_3)*%
X148909337Y-81370000D03*
%TO.P,J5,4,Pin_4*%
%TO.N,Board_22-Net-(J5-Pin_4)*%
X149909337Y-81370000D03*
%TD*%
D11*
%TO.P,C1,1*%
%TO.N,Board_8-Net-(U1-CAP)*%
X156822887Y-49506451D03*
%TO.P,C1,2*%
%TO.N,Board_8-GND*%
X155862887Y-49506451D03*
%TD*%
D12*
%TO.P,J5,1,Pin_1*%
%TO.N,Board_0-GND*%
X126909337Y-28170000D03*
D13*
%TO.P,J5,2,Pin_2*%
%TO.N,Board_0-+3.3V*%
X127909337Y-28170000D03*
%TO.P,J5,3,Pin_3*%
%TO.N,Board_0-Net-(J5-Pin_3)*%
X128909337Y-28170000D03*
%TO.P,J5,4,Pin_4*%
%TO.N,Board_0-Net-(J5-Pin_4)*%
X129909337Y-28170000D03*
%TD*%
D11*
%TO.P,C1,1*%
%TO.N,Board_23-Net-(U1-CAP)*%
X156822887Y-89406451D03*
%TO.P,C1,2*%
%TO.N,Board_23-GND*%
X155862887Y-89406451D03*
%TD*%
D14*
%TO.P,R3,1*%
%TO.N,Board_22-Net-(U1-BOOTN)*%
X148984885Y-90405991D03*
%TO.P,R3,2*%
%TO.N,Board_22-+3.3V*%
X148984885Y-89385991D03*
%TD*%
D12*
%TO.P,J5,1,Pin_1*%
%TO.N,Board_17-GND*%
X146909337Y-68070000D03*
D13*
%TO.P,J5,2,Pin_2*%
%TO.N,Board_17-+3.3V*%
X147909337Y-68070000D03*
%TO.P,J5,3,Pin_3*%
%TO.N,Board_17-Net-(J5-Pin_3)*%
X148909337Y-68070000D03*
%TO.P,J5,4,Pin_4*%
%TO.N,Board_17-Net-(J5-Pin_4)*%
X149909337Y-68070000D03*
%TD*%
D12*
%TO.P,J5,1,Pin_1*%
%TO.N,Board_9-GND*%
X166909337Y-41470000D03*
D13*
%TO.P,J5,2,Pin_2*%
%TO.N,Board_9-+3.3V*%
X167909337Y-41470000D03*
%TO.P,J5,3,Pin_3*%
%TO.N,Board_9-Net-(J5-Pin_3)*%
X168909337Y-41470000D03*
%TO.P,J5,4,Pin_4*%
%TO.N,Board_9-Net-(J5-Pin_4)*%
X169909337Y-41470000D03*
%TD*%
D14*
%TO.P,R5,1*%
%TO.N,Board_16-+3.3V*%
X135415173Y-70687101D03*
%TO.P,R5,2*%
%TO.N,Board_16-Net-(J5-Pin_3)*%
X135415173Y-69667101D03*
%TD*%
%TO.P,R5,1*%
%TO.N,Board_4-+3.3V*%
X165415173Y-30787101D03*
%TO.P,R5,2*%
%TO.N,Board_4-Net-(J5-Pin_3)*%
X165415173Y-29767101D03*
%TD*%
D11*
%TO.P,C1,1*%
%TO.N,Board_12-Net-(U1-CAP)*%
X146822887Y-62806451D03*
%TO.P,C1,2*%
%TO.N,Board_12-GND*%
X145862887Y-62806451D03*
%TD*%
D12*
%TO.P,J5,1,Pin_1*%
%TO.N,Board_24-GND*%
X166909337Y-81370000D03*
D13*
%TO.P,J5,2,Pin_2*%
%TO.N,Board_24-+3.3V*%
X167909337Y-81370000D03*
%TO.P,J5,3,Pin_3*%
%TO.N,Board_24-Net-(J5-Pin_3)*%
X168909337Y-81370000D03*
%TO.P,J5,4,Pin_4*%
%TO.N,Board_24-Net-(J5-Pin_4)*%
X169909337Y-81370000D03*
%TD*%
D15*
%TO.P,U1,1,RESV_NC*%
%TO.N,Board_13-unconnected-(U1-RESV_NC-Pad1)*%
X156150000Y-58425000D03*
D16*
%TO.P,U1,2,GND*%
%TO.N,Board_13-GND*%
X156012500Y-59337500D03*
%TO.P,U1,3,VDD*%
%TO.N,Board_13-+3.3V*%
X156012500Y-59837500D03*
%TO.P,U1,4,BOOTN*%
%TO.N,Board_13-Net-(U1-BOOTN)*%
X156012500Y-60337500D03*
%TO.P,U1,5,PS1*%
%TO.N,Board_13-GND*%
X156012500Y-60837500D03*
D15*
%TO.P,U1,6,PS0/WAKE*%
X156150000Y-61750000D03*
%TO.P,U1,7,RESV_NC*%
%TO.N,Board_13-unconnected-(U1-RESV_NC-Pad7)*%
X156650000Y-61750000D03*
%TO.P,U1,8,RESV_NC*%
%TO.N,Board_13-unconnected-(U1-RESV_NC-Pad8)*%
X157150000Y-61750000D03*
%TO.P,U1,9,CAP*%
%TO.N,Board_13-Net-(U1-CAP)*%
X157650000Y-61750000D03*
%TO.P,U1,10,CLKSEL0*%
%TO.N,Board_13-+3.3V*%
X158150000Y-61750000D03*
%TO.P,U1,11,NRST*%
%TO.N,Board_13-unconnected-(U1-NRST-Pad11)*%
X158650000Y-61750000D03*
%TO.P,U1,12,RESV_NC*%
%TO.N,Board_13-unconnected-(U1-RESV_NC-Pad12)*%
X159150000Y-61750000D03*
%TO.P,U1,13,RESV_NC*%
%TO.N,Board_13-unconnected-(U1-RESV_NC-Pad13)*%
X159650000Y-61750000D03*
%TO.P,U1,14,H_INTN*%
%TO.N,Board_13-unconnected-(U1-H_INTN-Pad14)*%
X160150000Y-61750000D03*
%TO.P,U1,15,ENV_SCL*%
%TO.N,Board_13-Net-(U1-ENV_SCL)*%
X160650000Y-61750000D03*
D16*
%TO.P,U1,16,ENV_SDA*%
%TO.N,Board_13-Net-(U1-ENV_SDA)*%
X160787500Y-60837500D03*
%TO.P,U1,17,SA0/H_MOSI*%
%TO.N,Board_13-GND*%
X160787500Y-60337500D03*
%TO.P,U1,18,H_CSN*%
%TO.N,Board_13-unconnected-(U1-H_CSN-Pad18)*%
X160787500Y-59837500D03*
%TO.P,U1,19,H_SCL/SCK/RX*%
%TO.N,Board_13-Net-(J5-Pin_3)*%
X160787500Y-59337500D03*
D15*
%TO.P,U1,20,H_SDA/H_MISO/TX*%
%TO.N,Board_13-Net-(J5-Pin_4)*%
X160650000Y-58425000D03*
%TO.P,U1,21,RESV_NC*%
%TO.N,Board_13-unconnected-(U1-RESV_NC-Pad21)*%
X160150000Y-58425000D03*
%TO.P,U1,22,RESV_NC*%
%TO.N,Board_13-unconnected-(U1-RESV_NC-Pad22)*%
X159650000Y-58425000D03*
%TO.P,U1,23,RESV_NC*%
%TO.N,Board_13-unconnected-(U1-RESV_NC-Pad23)*%
X159150000Y-58425000D03*
%TO.P,U1,24,RESV_NC*%
%TO.N,Board_13-unconnected-(U1-RESV_NC-Pad24)*%
X158650000Y-58425000D03*
%TO.P,U1,25,GNDIO*%
%TO.N,Board_13-GND*%
X158150000Y-58425000D03*
%TO.P,U1,26,XOUT32/CLKSEL1*%
X157650000Y-58425000D03*
%TO.P,U1,27,XIN32*%
%TO.N,Board_13-unconnected-(U1-XIN32-Pad27)*%
X157150000Y-58425000D03*
%TO.P,U1,28,VDDIO*%
%TO.N,Board_13-+3.3V*%
X156650000Y-58425000D03*
%TD*%
D14*
%TO.P,R2,1*%
%TO.N,Board_16-Net-(U1-ENV_SDA)*%
X139950850Y-77114177D03*
%TO.P,R2,2*%
%TO.N,Board_16-+3.3V*%
X139950850Y-76094177D03*
%TD*%
%TO.P,R5,1*%
%TO.N,Board_20-+3.3V*%
X125415173Y-83987101D03*
%TO.P,R5,2*%
%TO.N,Board_20-Net-(J5-Pin_3)*%
X125415173Y-82967101D03*
%TD*%
%TO.P,R5,1*%
%TO.N,Board_2-+3.3V*%
X145415173Y-30787101D03*
%TO.P,R5,2*%
%TO.N,Board_2-Net-(J5-Pin_3)*%
X145415173Y-29767101D03*
%TD*%
%TO.P,R3,1*%
%TO.N,Board_23-Net-(U1-BOOTN)*%
X158984885Y-90405991D03*
%TO.P,R3,2*%
%TO.N,Board_23-+3.3V*%
X158984885Y-89385991D03*
%TD*%
D17*
%TO.N,Board_0-+3.3V*%
X125150000Y-31900000D03*
%TO.N,Board_0-GND*%
X129150000Y-34150000D03*
X127150000Y-33962000D03*
%TO.N,Board_0-Net-(J5-Pin_3)*%
X129225867Y-33064872D03*
%TO.N,Board_1-+3.3V*%
X135150000Y-31900000D03*
%TO.N,Board_1-GND*%
X139150000Y-34150000D03*
X137150000Y-33962000D03*
%TO.N,Board_1-Net-(J5-Pin_3)*%
X139225867Y-33064872D03*
%TO.N,Board_2-+3.3V*%
X145150000Y-31900000D03*
%TO.N,Board_2-GND*%
X147150000Y-33962000D03*
X149150000Y-34150000D03*
%TO.N,Board_2-Net-(J5-Pin_3)*%
X149225867Y-33064872D03*
%TO.N,Board_3-+3.3V*%
X155150000Y-31900000D03*
%TO.N,Board_3-GND*%
X157150000Y-33962000D03*
X159150000Y-34150000D03*
%TO.N,Board_3-Net-(J5-Pin_3)*%
X159225867Y-33064872D03*
%TO.N,Board_4-+3.3V*%
X165150000Y-31900000D03*
%TO.N,Board_4-GND*%
X167150000Y-33962000D03*
X169150000Y-34150000D03*
%TO.N,Board_4-Net-(J5-Pin_3)*%
X169225867Y-33064872D03*
%TO.N,Board_5-+3.3V*%
X125150000Y-45200000D03*
%TO.N,Board_5-GND*%
X129150000Y-47450000D03*
X127150000Y-47262000D03*
%TO.N,Board_5-Net-(J5-Pin_3)*%
X129225867Y-46364872D03*
%TO.N,Board_6-+3.3V*%
X135150000Y-45200000D03*
%TO.N,Board_6-GND*%
X139150000Y-47450000D03*
X137150000Y-47262000D03*
%TO.N,Board_6-Net-(J5-Pin_3)*%
X139225867Y-46364872D03*
%TO.N,Board_7-+3.3V*%
X145150000Y-45200000D03*
%TO.N,Board_7-GND*%
X147150000Y-47262000D03*
X149150000Y-47450000D03*
%TO.N,Board_7-Net-(J5-Pin_3)*%
X149225867Y-46364872D03*
%TO.N,Board_8-+3.3V*%
X155150000Y-45200000D03*
%TO.N,Board_8-GND*%
X157150000Y-47262000D03*
X159150000Y-47450000D03*
%TO.N,Board_8-Net-(J5-Pin_3)*%
X159225867Y-46364872D03*
%TO.N,Board_9-+3.3V*%
X165150000Y-45200000D03*
%TO.N,Board_9-GND*%
X167150000Y-47262000D03*
X169150000Y-47450000D03*
%TO.N,Board_9-Net-(J5-Pin_3)*%
X169225867Y-46364872D03*
%TO.N,Board_10-+3.3V*%
X125150000Y-58500000D03*
%TO.N,Board_10-GND*%
X129150000Y-60750000D03*
X127150000Y-60562000D03*
%TO.N,Board_10-Net-(J5-Pin_3)*%
X129225867Y-59664872D03*
%TO.N,Board_11-+3.3V*%
X135150000Y-58500000D03*
%TO.N,Board_11-GND*%
X139150000Y-60750000D03*
X137150000Y-60562000D03*
%TO.N,Board_11-Net-(J5-Pin_3)*%
X139225867Y-59664872D03*
%TO.N,Board_12-+3.3V*%
X145150000Y-58500000D03*
%TO.N,Board_12-GND*%
X149150000Y-60750000D03*
X147150000Y-60562000D03*
%TO.N,Board_12-Net-(J5-Pin_3)*%
X149225867Y-59664872D03*
%TO.N,Board_13-+3.3V*%
X155150000Y-58500000D03*
%TO.N,Board_13-GND*%
X157150000Y-60562000D03*
X159150000Y-60750000D03*
%TO.N,Board_13-Net-(J5-Pin_3)*%
X159225867Y-59664872D03*
%TO.N,Board_14-+3.3V*%
X165150000Y-58500000D03*
%TO.N,Board_14-GND*%
X169150000Y-60750000D03*
X167150000Y-60562000D03*
%TO.N,Board_14-Net-(J5-Pin_3)*%
X169225867Y-59664872D03*
%TO.N,Board_15-+3.3V*%
X125150000Y-71800000D03*
%TO.N,Board_15-GND*%
X127150000Y-73862000D03*
X129150000Y-74050000D03*
%TO.N,Board_15-Net-(J5-Pin_3)*%
X129225867Y-72964872D03*
%TO.N,Board_16-+3.3V*%
X135150000Y-71800000D03*
%TO.N,Board_16-GND*%
X137150000Y-73862000D03*
X139150000Y-74050000D03*
%TO.N,Board_16-Net-(J5-Pin_3)*%
X139225867Y-72964872D03*
%TO.N,Board_17-+3.3V*%
X145150000Y-71800000D03*
%TO.N,Board_17-GND*%
X149150000Y-74050000D03*
X147150000Y-73862000D03*
%TO.N,Board_17-Net-(J5-Pin_3)*%
X149225867Y-72964872D03*
%TO.N,Board_18-+3.3V*%
X155150000Y-71800000D03*
%TO.N,Board_18-GND*%
X157150000Y-73862000D03*
X159150000Y-74050000D03*
%TO.N,Board_18-Net-(J5-Pin_3)*%
X159225867Y-72964872D03*
%TO.N,Board_19-+3.3V*%
X165150000Y-71800000D03*
%TO.N,Board_19-GND*%
X169150000Y-74050000D03*
X167150000Y-73862000D03*
%TO.N,Board_19-Net-(J5-Pin_3)*%
X169225867Y-72964872D03*
%TO.N,Board_20-+3.3V*%
X125150000Y-85100000D03*
%TO.N,Board_20-GND*%
X129150000Y-87350000D03*
X127150000Y-87162000D03*
%TO.N,Board_20-Net-(J5-Pin_3)*%
X129225867Y-86264872D03*
%TO.N,Board_21-+3.3V*%
X135150000Y-85100000D03*
%TO.N,Board_21-GND*%
X137150000Y-87162000D03*
X139150000Y-87350000D03*
%TO.N,Board_21-Net-(J5-Pin_3)*%
X139225867Y-86264872D03*
%TO.N,Board_22-+3.3V*%
X145150000Y-85100000D03*
%TO.N,Board_22-GND*%
X147150000Y-87162000D03*
X149150000Y-87350000D03*
%TO.N,Board_22-Net-(J5-Pin_3)*%
X149225867Y-86264872D03*
%TO.N,Board_23-+3.3V*%
X155150000Y-85100000D03*
%TO.N,Board_23-GND*%
X157150000Y-87162000D03*
X159150000Y-87350000D03*
%TO.N,Board_23-Net-(J5-Pin_3)*%
X159225867Y-86264872D03*
%TO.N,Board_24-+3.3V*%
X165150000Y-85100000D03*
%TO.N,Board_24-GND*%
X169150000Y-87350000D03*
X167150000Y-87162000D03*
%TO.N,Board_24-Net-(J5-Pin_3)*%
X169225867Y-86264872D03*
%TD*%
D18*
%TO.N,Board_0-+3.3V*%
X130900443Y-36194177D02*
X130925001Y-36169619D01*
X125150000Y-31900000D02*
X125150000Y-32989500D01*
X128150000Y-33650000D02*
X128150000Y-35150000D01*
X128984885Y-36185991D02*
X129942664Y-36185991D01*
X125398000Y-33237500D02*
X126012500Y-33237500D01*
X129950850Y-36194177D02*
X130900443Y-36194177D01*
X125150000Y-31900000D02*
X125150000Y-31052274D01*
X128150000Y-35764500D02*
X128150000Y-35150000D01*
X126012500Y-33237500D02*
X127737500Y-33237500D01*
X127737500Y-33237500D02*
X128150000Y-33650000D01*
X129942664Y-36185991D02*
X129950850Y-36194177D01*
X128984885Y-36185991D02*
X128571491Y-36185991D01*
X128571491Y-36185991D02*
X128150000Y-35764500D01*
X127909337Y-28771040D02*
X127909337Y-28170000D01*
X126400000Y-30900000D02*
X126150000Y-30900000D01*
X126650000Y-31150000D02*
X126400000Y-30900000D01*
X125150000Y-31052274D02*
X125415173Y-30787101D01*
X131379924Y-30810678D02*
X129948975Y-30810678D01*
X125150000Y-32989500D02*
X125398000Y-33237500D01*
X126650000Y-31825000D02*
X126650000Y-31150000D01*
X126150000Y-30900000D02*
X125150000Y-31900000D01*
X129948975Y-30810678D02*
X127909337Y-28771040D01*
%TO.N,Board_0-GND*%
X129150000Y-34150000D02*
X129562500Y-33737500D01*
X127650000Y-31210500D02*
X127650000Y-31825000D01*
X126909337Y-28170000D02*
X126909337Y-30469837D01*
X129150000Y-34150000D02*
X129150000Y-34013604D01*
X126150000Y-34375000D02*
X126012500Y-34237500D01*
X126874500Y-34237500D02*
X127150000Y-33962000D01*
X128150000Y-33013604D02*
X128150000Y-31825000D01*
X127650000Y-31825000D02*
X127650000Y-32439500D01*
X127650000Y-32439500D02*
X127352000Y-32737500D01*
X128150000Y-31710500D02*
X128150000Y-31825000D01*
X127650000Y-31210500D02*
X128150000Y-31710500D01*
X129562500Y-33737500D02*
X130787500Y-33737500D01*
X126012500Y-34237500D02*
X126874500Y-34237500D01*
X126150000Y-35150000D02*
X126150000Y-34375000D01*
X125862887Y-36206451D02*
X125862887Y-35437113D01*
X127352000Y-32737500D02*
X126012500Y-32737500D01*
X129150000Y-34013604D02*
X128150000Y-33013604D01*
X125862887Y-35437113D02*
X126150000Y-35150000D01*
X126909337Y-30469837D02*
X127650000Y-31210500D01*
%TO.N,Board_0-Net-(J5-Pin_3)*%
X129553239Y-32737500D02*
X129225867Y-33064872D01*
X125415173Y-29767101D02*
X125415173Y-28164164D01*
X125415173Y-28164164D02*
X126159337Y-27420000D01*
X130787500Y-32737500D02*
X129553239Y-32737500D01*
X128219998Y-27420000D02*
X128909337Y-28109339D01*
X126159337Y-27420000D02*
X128219998Y-27420000D01*
X128909337Y-28109339D02*
X128909337Y-28170000D01*
%TO.N,Board_0-Net-(J5-Pin_4)*%
X129909337Y-28170000D02*
X129909337Y-28320091D01*
X131024623Y-29435377D02*
X131379924Y-29790678D01*
X132024924Y-30435678D02*
X132024924Y-31275076D01*
X131024623Y-29435377D02*
X132024924Y-30435678D01*
X132024924Y-31275076D02*
X131475000Y-31825000D01*
X131475000Y-31825000D02*
X130650000Y-31825000D01*
X129909337Y-28320091D02*
X131024623Y-29435377D01*
%TO.N,Board_0-Net-(U1-BOOTN)*%
X125398000Y-33737500D02*
X125150000Y-33985500D01*
X125150000Y-33985500D02*
X125150000Y-36461173D01*
X125150000Y-36461173D02*
X125894818Y-37205991D01*
X125894818Y-37205991D02*
X128984885Y-37205991D01*
X126012500Y-33737500D02*
X125398000Y-33737500D01*
%TO.N,Board_0-Net-(U1-CAP)*%
X126822887Y-36206451D02*
X127208049Y-36206451D01*
X127650000Y-35764500D02*
X127650000Y-35150000D01*
X127208049Y-36206451D02*
X127650000Y-35764500D01*
%TO.N,Board_0-Net-(U1-ENV_SCL)*%
X130925001Y-37189619D02*
X131142691Y-37189619D01*
X131650000Y-35924080D02*
X130875920Y-35150000D01*
X131650000Y-36682310D02*
X131650000Y-35924080D01*
X130875920Y-35150000D02*
X130650000Y-35150000D01*
X131142691Y-37189619D02*
X131650000Y-36682310D01*
%TO.N,Board_0-Net-(U1-ENV_SDA)*%
X129950850Y-37214177D02*
X130521292Y-37784619D01*
X131515381Y-37784619D02*
X132100000Y-37200000D01*
X132100000Y-37200000D02*
X132100000Y-35550000D01*
X130521292Y-37784619D02*
X131515381Y-37784619D01*
X132100000Y-35550000D02*
X130787500Y-34237500D01*
%TO.N,Board_1-+3.3V*%
X139950850Y-36194177D02*
X140900443Y-36194177D01*
X137909337Y-28771040D02*
X137909337Y-28170000D01*
X139948975Y-30810678D02*
X137909337Y-28771040D01*
X138150000Y-33650000D02*
X138150000Y-35150000D01*
X136150000Y-30900000D02*
X135150000Y-31900000D01*
X136650000Y-31150000D02*
X136400000Y-30900000D01*
X135150000Y-32989500D02*
X135398000Y-33237500D01*
X141379924Y-30810678D02*
X139948975Y-30810678D01*
X136400000Y-30900000D02*
X136150000Y-30900000D01*
X138571491Y-36185991D02*
X138150000Y-35764500D01*
X135150000Y-31900000D02*
X135150000Y-32989500D01*
X139942664Y-36185991D02*
X139950850Y-36194177D01*
X136650000Y-31825000D02*
X136650000Y-31150000D01*
X140900443Y-36194177D02*
X140925001Y-36169619D01*
X138150000Y-35764500D02*
X138150000Y-35150000D01*
X135398000Y-33237500D02*
X136012500Y-33237500D01*
X137737500Y-33237500D02*
X138150000Y-33650000D01*
X138984885Y-36185991D02*
X138571491Y-36185991D01*
X135150000Y-31052274D02*
X135415173Y-30787101D01*
X135150000Y-31900000D02*
X135150000Y-31052274D01*
X138984885Y-36185991D02*
X139942664Y-36185991D01*
X136012500Y-33237500D02*
X137737500Y-33237500D01*
%TO.N,Board_1-GND*%
X139150000Y-34150000D02*
X139562500Y-33737500D01*
X136150000Y-35150000D02*
X136150000Y-34375000D01*
X139150000Y-34013604D02*
X138150000Y-33013604D01*
X137650000Y-31825000D02*
X137650000Y-32439500D01*
X137650000Y-32439500D02*
X137352000Y-32737500D01*
X138150000Y-33013604D02*
X138150000Y-31825000D01*
X139562500Y-33737500D02*
X140787500Y-33737500D01*
X136874500Y-34237500D02*
X137150000Y-33962000D01*
X136909337Y-30469837D02*
X137650000Y-31210500D01*
X136012500Y-34237500D02*
X136874500Y-34237500D01*
X138150000Y-31710500D02*
X138150000Y-31825000D01*
X137352000Y-32737500D02*
X136012500Y-32737500D01*
X135862887Y-35437113D02*
X136150000Y-35150000D01*
X136909337Y-28170000D02*
X136909337Y-30469837D01*
X137650000Y-31210500D02*
X138150000Y-31710500D01*
X136150000Y-34375000D02*
X136012500Y-34237500D01*
X137650000Y-31210500D02*
X137650000Y-31825000D01*
X135862887Y-36206451D02*
X135862887Y-35437113D01*
X139150000Y-34150000D02*
X139150000Y-34013604D01*
%TO.N,Board_1-Net-(J5-Pin_3)*%
X138219998Y-27420000D02*
X138909337Y-28109339D01*
X135415173Y-28164164D02*
X136159337Y-27420000D01*
X138909337Y-28109339D02*
X138909337Y-28170000D01*
X136159337Y-27420000D02*
X138219998Y-27420000D01*
X135415173Y-29767101D02*
X135415173Y-28164164D01*
X139553239Y-32737500D02*
X139225867Y-33064872D01*
X140787500Y-32737500D02*
X139553239Y-32737500D01*
%TO.N,Board_1-Net-(J5-Pin_4)*%
X141475000Y-31825000D02*
X140650000Y-31825000D01*
X139909337Y-28170000D02*
X139909337Y-28320091D01*
X141024623Y-29435377D02*
X141379924Y-29790678D01*
X142024924Y-31275076D02*
X141475000Y-31825000D01*
X142024924Y-30435678D02*
X142024924Y-31275076D01*
X139909337Y-28320091D02*
X141024623Y-29435377D01*
X141024623Y-29435377D02*
X142024924Y-30435678D01*
%TO.N,Board_1-Net-(U1-BOOTN)*%
X135894818Y-37205991D02*
X138984885Y-37205991D01*
X135150000Y-33985500D02*
X135150000Y-36461173D01*
X136012500Y-33737500D02*
X135398000Y-33737500D01*
X135398000Y-33737500D02*
X135150000Y-33985500D01*
X135150000Y-36461173D02*
X135894818Y-37205991D01*
%TO.N,Board_1-Net-(U1-CAP)*%
X137650000Y-35764500D02*
X137650000Y-35150000D01*
X137208049Y-36206451D02*
X137650000Y-35764500D01*
X136822887Y-36206451D02*
X137208049Y-36206451D01*
%TO.N,Board_1-Net-(U1-ENV_SCL)*%
X140875920Y-35150000D02*
X140650000Y-35150000D01*
X141650000Y-36682310D02*
X141650000Y-35924080D01*
X141142691Y-37189619D02*
X141650000Y-36682310D01*
X140925001Y-37189619D02*
X141142691Y-37189619D01*
X141650000Y-35924080D02*
X140875920Y-35150000D01*
%TO.N,Board_1-Net-(U1-ENV_SDA)*%
X142100000Y-37200000D02*
X142100000Y-35550000D01*
X141515381Y-37784619D02*
X142100000Y-37200000D01*
X139950850Y-37214177D02*
X140521292Y-37784619D01*
X142100000Y-35550000D02*
X140787500Y-34237500D01*
X140521292Y-37784619D02*
X141515381Y-37784619D01*
%TO.N,Board_2-+3.3V*%
X145150000Y-31900000D02*
X145150000Y-31052274D01*
X148150000Y-35764500D02*
X148150000Y-35150000D01*
X149950850Y-36194177D02*
X150900443Y-36194177D01*
X147737500Y-33237500D02*
X148150000Y-33650000D01*
X145150000Y-31900000D02*
X145150000Y-32989500D01*
X148150000Y-33650000D02*
X148150000Y-35150000D01*
X146012500Y-33237500D02*
X147737500Y-33237500D01*
X151379924Y-30810678D02*
X149948975Y-30810678D01*
X145150000Y-31052274D02*
X145415173Y-30787101D01*
X148984885Y-36185991D02*
X149942664Y-36185991D01*
X149948975Y-30810678D02*
X147909337Y-28771040D01*
X146650000Y-31825000D02*
X146650000Y-31150000D01*
X147909337Y-28771040D02*
X147909337Y-28170000D01*
X146400000Y-30900000D02*
X146150000Y-30900000D01*
X146150000Y-30900000D02*
X145150000Y-31900000D01*
X150900443Y-36194177D02*
X150925001Y-36169619D01*
X145398000Y-33237500D02*
X146012500Y-33237500D01*
X148571491Y-36185991D02*
X148150000Y-35764500D01*
X148984885Y-36185991D02*
X148571491Y-36185991D01*
X146650000Y-31150000D02*
X146400000Y-30900000D01*
X149942664Y-36185991D02*
X149950850Y-36194177D01*
X145150000Y-32989500D02*
X145398000Y-33237500D01*
%TO.N,Board_2-GND*%
X147650000Y-31210500D02*
X147650000Y-31825000D01*
X146012500Y-34237500D02*
X146874500Y-34237500D01*
X149562500Y-33737500D02*
X150787500Y-33737500D01*
X146909337Y-30469837D02*
X147650000Y-31210500D01*
X147650000Y-31825000D02*
X147650000Y-32439500D01*
X145862887Y-36206451D02*
X145862887Y-35437113D01*
X146150000Y-34375000D02*
X146012500Y-34237500D01*
X148150000Y-33013604D02*
X148150000Y-31825000D01*
X149150000Y-34150000D02*
X149150000Y-34013604D01*
X147352000Y-32737500D02*
X146012500Y-32737500D01*
X146874500Y-34237500D02*
X147150000Y-33962000D01*
X148150000Y-31710500D02*
X148150000Y-31825000D01*
X145862887Y-35437113D02*
X146150000Y-35150000D01*
X146909337Y-28170000D02*
X146909337Y-30469837D01*
X147650000Y-31210500D02*
X148150000Y-31710500D01*
X146150000Y-35150000D02*
X146150000Y-34375000D01*
X149150000Y-34013604D02*
X148150000Y-33013604D01*
X147650000Y-32439500D02*
X147352000Y-32737500D01*
X149150000Y-34150000D02*
X149562500Y-33737500D01*
%TO.N,Board_2-Net-(J5-Pin_3)*%
X148219998Y-27420000D02*
X148909337Y-28109339D01*
X148909337Y-28109339D02*
X148909337Y-28170000D01*
X150787500Y-32737500D02*
X149553239Y-32737500D01*
X146159337Y-27420000D02*
X148219998Y-27420000D01*
X149553239Y-32737500D02*
X149225867Y-33064872D01*
X145415173Y-29767101D02*
X145415173Y-28164164D01*
X145415173Y-28164164D02*
X146159337Y-27420000D01*
%TO.N,Board_2-Net-(J5-Pin_4)*%
X152024924Y-31275076D02*
X151475000Y-31825000D01*
X152024924Y-30435678D02*
X152024924Y-31275076D01*
X151024623Y-29435377D02*
X151379924Y-29790678D01*
X151475000Y-31825000D02*
X150650000Y-31825000D01*
X149909337Y-28320091D02*
X151024623Y-29435377D01*
X149909337Y-28170000D02*
X149909337Y-28320091D01*
X151024623Y-29435377D02*
X152024924Y-30435678D01*
%TO.N,Board_2-Net-(U1-BOOTN)*%
X145398000Y-33737500D02*
X145150000Y-33985500D01*
X145150000Y-33985500D02*
X145150000Y-36461173D01*
X145894818Y-37205991D02*
X148984885Y-37205991D01*
X145150000Y-36461173D02*
X145894818Y-37205991D01*
X146012500Y-33737500D02*
X145398000Y-33737500D01*
%TO.N,Board_2-Net-(U1-CAP)*%
X147208049Y-36206451D02*
X147650000Y-35764500D01*
X146822887Y-36206451D02*
X147208049Y-36206451D01*
X147650000Y-35764500D02*
X147650000Y-35150000D01*
%TO.N,Board_2-Net-(U1-ENV_SCL)*%
X150875920Y-35150000D02*
X150650000Y-35150000D01*
X150925001Y-37189619D02*
X151142691Y-37189619D01*
X151650000Y-36682310D02*
X151650000Y-35924080D01*
X151650000Y-35924080D02*
X150875920Y-35150000D01*
X151142691Y-37189619D02*
X151650000Y-36682310D01*
%TO.N,Board_2-Net-(U1-ENV_SDA)*%
X152100000Y-37200000D02*
X152100000Y-35550000D01*
X151515381Y-37784619D02*
X152100000Y-37200000D01*
X152100000Y-35550000D02*
X150787500Y-34237500D01*
X149950850Y-37214177D02*
X150521292Y-37784619D01*
X150521292Y-37784619D02*
X151515381Y-37784619D01*
%TO.N,Board_3-+3.3V*%
X155150000Y-31900000D02*
X155150000Y-32989500D01*
X156012500Y-33237500D02*
X157737500Y-33237500D01*
X157737500Y-33237500D02*
X158150000Y-33650000D01*
X158150000Y-33650000D02*
X158150000Y-35150000D01*
X158984885Y-36185991D02*
X159942664Y-36185991D01*
X155150000Y-31052274D02*
X155415173Y-30787101D01*
X156650000Y-31150000D02*
X156400000Y-30900000D01*
X155398000Y-33237500D02*
X156012500Y-33237500D01*
X158984885Y-36185991D02*
X158571491Y-36185991D01*
X159950850Y-36194177D02*
X160900443Y-36194177D01*
X160900443Y-36194177D02*
X160925001Y-36169619D01*
X158150000Y-35764500D02*
X158150000Y-35150000D01*
X156150000Y-30900000D02*
X155150000Y-31900000D01*
X158571491Y-36185991D02*
X158150000Y-35764500D01*
X156400000Y-30900000D02*
X156150000Y-30900000D01*
X155150000Y-31900000D02*
X155150000Y-31052274D01*
X159942664Y-36185991D02*
X159950850Y-36194177D01*
X159948975Y-30810678D02*
X157909337Y-28771040D01*
X155150000Y-32989500D02*
X155398000Y-33237500D01*
X156650000Y-31825000D02*
X156650000Y-31150000D01*
X161379924Y-30810678D02*
X159948975Y-30810678D01*
X157909337Y-28771040D02*
X157909337Y-28170000D01*
%TO.N,Board_3-GND*%
X159150000Y-34013604D02*
X158150000Y-33013604D01*
X157650000Y-31210500D02*
X157650000Y-31825000D01*
X159150000Y-34150000D02*
X159562500Y-33737500D01*
X155862887Y-35437113D02*
X156150000Y-35150000D01*
X156012500Y-34237500D02*
X156874500Y-34237500D01*
X156150000Y-35150000D02*
X156150000Y-34375000D01*
X159562500Y-33737500D02*
X160787500Y-33737500D01*
X158150000Y-31710500D02*
X158150000Y-31825000D01*
X156909337Y-30469837D02*
X157650000Y-31210500D01*
X157650000Y-32439500D02*
X157352000Y-32737500D01*
X157352000Y-32737500D02*
X156012500Y-32737500D01*
X157650000Y-31210500D02*
X158150000Y-31710500D01*
X158150000Y-33013604D02*
X158150000Y-31825000D01*
X156874500Y-34237500D02*
X157150000Y-33962000D01*
X155862887Y-36206451D02*
X155862887Y-35437113D01*
X157650000Y-31825000D02*
X157650000Y-32439500D01*
X156909337Y-28170000D02*
X156909337Y-30469837D01*
X159150000Y-34150000D02*
X159150000Y-34013604D01*
X156150000Y-34375000D02*
X156012500Y-34237500D01*
%TO.N,Board_3-Net-(J5-Pin_3)*%
X158219998Y-27420000D02*
X158909337Y-28109339D01*
X156159337Y-27420000D02*
X158219998Y-27420000D01*
X158909337Y-28109339D02*
X158909337Y-28170000D01*
X160787500Y-32737500D02*
X159553239Y-32737500D01*
X155415173Y-28164164D02*
X156159337Y-27420000D01*
X155415173Y-29767101D02*
X155415173Y-28164164D01*
X159553239Y-32737500D02*
X159225867Y-33064872D01*
%TO.N,Board_3-Net-(J5-Pin_4)*%
X162024924Y-31275076D02*
X161475000Y-31825000D01*
X159909337Y-28320091D02*
X161024623Y-29435377D01*
X159909337Y-28170000D02*
X159909337Y-28320091D01*
X161024623Y-29435377D02*
X162024924Y-30435678D01*
X161024623Y-29435377D02*
X161379924Y-29790678D01*
X162024924Y-30435678D02*
X162024924Y-31275076D01*
X161475000Y-31825000D02*
X160650000Y-31825000D01*
%TO.N,Board_3-Net-(U1-BOOTN)*%
X155150000Y-36461173D02*
X155894818Y-37205991D01*
X155894818Y-37205991D02*
X158984885Y-37205991D01*
X155398000Y-33737500D02*
X155150000Y-33985500D01*
X155150000Y-33985500D02*
X155150000Y-36461173D01*
X156012500Y-33737500D02*
X155398000Y-33737500D01*
%TO.N,Board_3-Net-(U1-CAP)*%
X157208049Y-36206451D02*
X157650000Y-35764500D01*
X156822887Y-36206451D02*
X157208049Y-36206451D01*
X157650000Y-35764500D02*
X157650000Y-35150000D01*
%TO.N,Board_3-Net-(U1-ENV_SCL)*%
X161142691Y-37189619D02*
X161650000Y-36682310D01*
X160875920Y-35150000D02*
X160650000Y-35150000D01*
X160925001Y-37189619D02*
X161142691Y-37189619D01*
X161650000Y-35924080D02*
X160875920Y-35150000D01*
X161650000Y-36682310D02*
X161650000Y-35924080D01*
%TO.N,Board_3-Net-(U1-ENV_SDA)*%
X159950850Y-37214177D02*
X160521292Y-37784619D01*
X160521292Y-37784619D02*
X161515381Y-37784619D01*
X161515381Y-37784619D02*
X162100000Y-37200000D01*
X162100000Y-35550000D02*
X160787500Y-34237500D01*
X162100000Y-37200000D02*
X162100000Y-35550000D01*
%TO.N,Board_4-+3.3V*%
X167737500Y-33237500D02*
X168150000Y-33650000D01*
X165150000Y-31052274D02*
X165415173Y-30787101D01*
X168571491Y-36185991D02*
X168150000Y-35764500D01*
X168984885Y-36185991D02*
X169942664Y-36185991D01*
X166400000Y-30900000D02*
X166150000Y-30900000D01*
X169942664Y-36185991D02*
X169950850Y-36194177D01*
X168150000Y-35764500D02*
X168150000Y-35150000D01*
X169948975Y-30810678D02*
X167909337Y-28771040D01*
X167909337Y-28771040D02*
X167909337Y-28170000D01*
X170900443Y-36194177D02*
X170925001Y-36169619D01*
X166650000Y-31825000D02*
X166650000Y-31150000D01*
X165150000Y-32989500D02*
X165398000Y-33237500D01*
X165398000Y-33237500D02*
X166012500Y-33237500D01*
X168984885Y-36185991D02*
X168571491Y-36185991D01*
X166012500Y-33237500D02*
X167737500Y-33237500D01*
X169950850Y-36194177D02*
X170900443Y-36194177D01*
X165150000Y-31900000D02*
X165150000Y-32989500D01*
X166650000Y-31150000D02*
X166400000Y-30900000D01*
X171379924Y-30810678D02*
X169948975Y-30810678D01*
X168150000Y-33650000D02*
X168150000Y-35150000D01*
X165150000Y-31900000D02*
X165150000Y-31052274D01*
X166150000Y-30900000D02*
X165150000Y-31900000D01*
%TO.N,Board_4-GND*%
X169150000Y-34150000D02*
X169562500Y-33737500D01*
X167650000Y-31210500D02*
X167650000Y-31825000D01*
X168150000Y-31710500D02*
X168150000Y-31825000D01*
X167650000Y-31210500D02*
X168150000Y-31710500D01*
X169150000Y-34150000D02*
X169150000Y-34013604D01*
X169150000Y-34013604D02*
X168150000Y-33013604D01*
X166012500Y-34237500D02*
X166874500Y-34237500D01*
X166150000Y-35150000D02*
X166150000Y-34375000D01*
X167352000Y-32737500D02*
X166012500Y-32737500D01*
X167650000Y-32439500D02*
X167352000Y-32737500D01*
X165862887Y-36206451D02*
X165862887Y-35437113D01*
X167650000Y-31825000D02*
X167650000Y-32439500D01*
X169562500Y-33737500D02*
X170787500Y-33737500D01*
X166874500Y-34237500D02*
X167150000Y-33962000D01*
X166909337Y-30469837D02*
X167650000Y-31210500D01*
X165862887Y-35437113D02*
X166150000Y-35150000D01*
X168150000Y-33013604D02*
X168150000Y-31825000D01*
X166150000Y-34375000D02*
X166012500Y-34237500D01*
X166909337Y-28170000D02*
X166909337Y-30469837D01*
%TO.N,Board_4-Net-(J5-Pin_3)*%
X168219998Y-27420000D02*
X168909337Y-28109339D01*
X168909337Y-28109339D02*
X168909337Y-28170000D01*
X166159337Y-27420000D02*
X168219998Y-27420000D01*
X170787500Y-32737500D02*
X169553239Y-32737500D01*
X165415173Y-28164164D02*
X166159337Y-27420000D01*
X169553239Y-32737500D02*
X169225867Y-33064872D01*
X165415173Y-29767101D02*
X165415173Y-28164164D01*
%TO.N,Board_4-Net-(J5-Pin_4)*%
X171024623Y-29435377D02*
X171379924Y-29790678D01*
X171475000Y-31825000D02*
X170650000Y-31825000D01*
X169909337Y-28320091D02*
X171024623Y-29435377D01*
X171024623Y-29435377D02*
X172024924Y-30435678D01*
X172024924Y-31275076D02*
X171475000Y-31825000D01*
X169909337Y-28170000D02*
X169909337Y-28320091D01*
X172024924Y-30435678D02*
X172024924Y-31275076D01*
%TO.N,Board_4-Net-(U1-BOOTN)*%
X165150000Y-36461173D02*
X165894818Y-37205991D01*
X165894818Y-37205991D02*
X168984885Y-37205991D01*
X165398000Y-33737500D02*
X165150000Y-33985500D01*
X165150000Y-33985500D02*
X165150000Y-36461173D01*
X166012500Y-33737500D02*
X165398000Y-33737500D01*
%TO.N,Board_4-Net-(U1-CAP)*%
X167650000Y-35764500D02*
X167650000Y-35150000D01*
X166822887Y-36206451D02*
X167208049Y-36206451D01*
X167208049Y-36206451D02*
X167650000Y-35764500D01*
%TO.N,Board_4-Net-(U1-ENV_SCL)*%
X171650000Y-36682310D02*
X171650000Y-35924080D01*
X171142691Y-37189619D02*
X171650000Y-36682310D01*
X170925001Y-37189619D02*
X171142691Y-37189619D01*
X171650000Y-35924080D02*
X170875920Y-35150000D01*
X170875920Y-35150000D02*
X170650000Y-35150000D01*
%TO.N,Board_4-Net-(U1-ENV_SDA)*%
X172100000Y-37200000D02*
X172100000Y-35550000D01*
X169950850Y-37214177D02*
X170521292Y-37784619D01*
X170521292Y-37784619D02*
X171515381Y-37784619D01*
X172100000Y-35550000D02*
X170787500Y-34237500D01*
X171515381Y-37784619D02*
X172100000Y-37200000D01*
%TO.N,Board_5-+3.3V*%
X126012500Y-46537500D02*
X127737500Y-46537500D01*
X125150000Y-45200000D02*
X125150000Y-44352274D01*
X126650000Y-44450000D02*
X126400000Y-44200000D01*
X127737500Y-46537500D02*
X128150000Y-46950000D01*
X128571491Y-49485991D02*
X128150000Y-49064500D01*
X125150000Y-46289500D02*
X125398000Y-46537500D01*
X126400000Y-44200000D02*
X126150000Y-44200000D01*
X125150000Y-45200000D02*
X125150000Y-46289500D01*
X128984885Y-49485991D02*
X129942664Y-49485991D01*
X129950850Y-49494177D02*
X130900443Y-49494177D01*
X125150000Y-44352274D02*
X125415173Y-44087101D01*
X130900443Y-49494177D02*
X130925001Y-49469619D01*
X129942664Y-49485991D02*
X129950850Y-49494177D01*
X127909337Y-42071040D02*
X127909337Y-41470000D01*
X131379924Y-44110678D02*
X129948975Y-44110678D01*
X125398000Y-46537500D02*
X126012500Y-46537500D01*
X128150000Y-49064500D02*
X128150000Y-48450000D01*
X128150000Y-46950000D02*
X128150000Y-48450000D01*
X126150000Y-44200000D02*
X125150000Y-45200000D01*
X128984885Y-49485991D02*
X128571491Y-49485991D01*
X129948975Y-44110678D02*
X127909337Y-42071040D01*
X126650000Y-45125000D02*
X126650000Y-44450000D01*
%TO.N,Board_5-GND*%
X126012500Y-47537500D02*
X126874500Y-47537500D01*
X126909337Y-41470000D02*
X126909337Y-43769837D01*
X126909337Y-43769837D02*
X127650000Y-44510500D01*
X129150000Y-47450000D02*
X129562500Y-47037500D01*
X128150000Y-45010500D02*
X128150000Y-45125000D01*
X129150000Y-47313604D02*
X128150000Y-46313604D01*
X129150000Y-47450000D02*
X129150000Y-47313604D01*
X127650000Y-44510500D02*
X127650000Y-45125000D01*
X127650000Y-44510500D02*
X128150000Y-45010500D01*
X125862887Y-48737113D02*
X126150000Y-48450000D01*
X127650000Y-45739500D02*
X127352000Y-46037500D01*
X127650000Y-45125000D02*
X127650000Y-45739500D01*
X126150000Y-47675000D02*
X126012500Y-47537500D01*
X127352000Y-46037500D02*
X126012500Y-46037500D01*
X129562500Y-47037500D02*
X130787500Y-47037500D01*
X126874500Y-47537500D02*
X127150000Y-47262000D01*
X126150000Y-48450000D02*
X126150000Y-47675000D01*
X128150000Y-46313604D02*
X128150000Y-45125000D01*
X125862887Y-49506451D02*
X125862887Y-48737113D01*
%TO.N,Board_5-Net-(J5-Pin_3)*%
X129553239Y-46037500D02*
X129225867Y-46364872D01*
X128909337Y-41409339D02*
X128909337Y-41470000D01*
X130787500Y-46037500D02*
X129553239Y-46037500D01*
X126159337Y-40720000D02*
X128219998Y-40720000D01*
X125415173Y-41464164D02*
X126159337Y-40720000D01*
X125415173Y-43067101D02*
X125415173Y-41464164D01*
X128219998Y-40720000D02*
X128909337Y-41409339D01*
%TO.N,Board_5-Net-(J5-Pin_4)*%
X129909337Y-41470000D02*
X129909337Y-41620091D01*
X131024623Y-42735377D02*
X132024924Y-43735678D01*
X131024623Y-42735377D02*
X131379924Y-43090678D01*
X132024924Y-43735678D02*
X132024924Y-44575076D01*
X131475000Y-45125000D02*
X130650000Y-45125000D01*
X132024924Y-44575076D02*
X131475000Y-45125000D01*
X129909337Y-41620091D02*
X131024623Y-42735377D01*
%TO.N,Board_5-Net-(U1-BOOTN)*%
X125894818Y-50505991D02*
X128984885Y-50505991D01*
X125398000Y-47037500D02*
X125150000Y-47285500D01*
X125150000Y-47285500D02*
X125150000Y-49761173D01*
X125150000Y-49761173D02*
X125894818Y-50505991D01*
X126012500Y-47037500D02*
X125398000Y-47037500D01*
%TO.N,Board_5-Net-(U1-CAP)*%
X127208049Y-49506451D02*
X127650000Y-49064500D01*
X127650000Y-49064500D02*
X127650000Y-48450000D01*
X126822887Y-49506451D02*
X127208049Y-49506451D01*
%TO.N,Board_5-Net-(U1-ENV_SCL)*%
X131142691Y-50489619D02*
X131650000Y-49982310D01*
X131650000Y-49224080D02*
X130875920Y-48450000D01*
X131650000Y-49982310D02*
X131650000Y-49224080D01*
X130925001Y-50489619D02*
X131142691Y-50489619D01*
X130875920Y-48450000D02*
X130650000Y-48450000D01*
%TO.N,Board_5-Net-(U1-ENV_SDA)*%
X132100000Y-50500000D02*
X132100000Y-48850000D01*
X132100000Y-48850000D02*
X130787500Y-47537500D01*
X130521292Y-51084619D02*
X131515381Y-51084619D01*
X131515381Y-51084619D02*
X132100000Y-50500000D01*
X129950850Y-50514177D02*
X130521292Y-51084619D01*
%TO.N,Board_6-+3.3V*%
X136650000Y-45125000D02*
X136650000Y-44450000D01*
X136150000Y-44200000D02*
X135150000Y-45200000D01*
X135150000Y-44352274D02*
X135415173Y-44087101D01*
X135150000Y-45200000D02*
X135150000Y-46289500D01*
X138984885Y-49485991D02*
X139942664Y-49485991D01*
X136650000Y-44450000D02*
X136400000Y-44200000D01*
X135398000Y-46537500D02*
X136012500Y-46537500D01*
X135150000Y-45200000D02*
X135150000Y-44352274D01*
X136012500Y-46537500D02*
X137737500Y-46537500D01*
X138150000Y-49064500D02*
X138150000Y-48450000D01*
X141379924Y-44110678D02*
X139948975Y-44110678D01*
X137909337Y-42071040D02*
X137909337Y-41470000D01*
X140900443Y-49494177D02*
X140925001Y-49469619D01*
X139948975Y-44110678D02*
X137909337Y-42071040D01*
X137737500Y-46537500D02*
X138150000Y-46950000D01*
X139942664Y-49485991D02*
X139950850Y-49494177D01*
X138571491Y-49485991D02*
X138150000Y-49064500D01*
X138984885Y-49485991D02*
X138571491Y-49485991D01*
X135150000Y-46289500D02*
X135398000Y-46537500D01*
X139950850Y-49494177D02*
X140900443Y-49494177D01*
X138150000Y-46950000D02*
X138150000Y-48450000D01*
X136400000Y-44200000D02*
X136150000Y-44200000D01*
%TO.N,Board_6-GND*%
X135862887Y-48737113D02*
X136150000Y-48450000D01*
X139150000Y-47313604D02*
X138150000Y-46313604D01*
X139150000Y-47450000D02*
X139562500Y-47037500D01*
X137650000Y-44510500D02*
X137650000Y-45125000D01*
X136150000Y-47675000D02*
X136012500Y-47537500D01*
X136150000Y-48450000D02*
X136150000Y-47675000D01*
X136909337Y-41470000D02*
X136909337Y-43769837D01*
X136012500Y-47537500D02*
X136874500Y-47537500D01*
X138150000Y-45010500D02*
X138150000Y-45125000D01*
X136874500Y-47537500D02*
X137150000Y-47262000D01*
X136909337Y-43769837D02*
X137650000Y-44510500D01*
X135862887Y-49506451D02*
X135862887Y-48737113D01*
X137650000Y-45125000D02*
X137650000Y-45739500D01*
X139562500Y-47037500D02*
X140787500Y-47037500D01*
X137352000Y-46037500D02*
X136012500Y-46037500D01*
X137650000Y-45739500D02*
X137352000Y-46037500D01*
X138150000Y-46313604D02*
X138150000Y-45125000D01*
X139150000Y-47450000D02*
X139150000Y-47313604D01*
X137650000Y-44510500D02*
X138150000Y-45010500D01*
%TO.N,Board_6-Net-(J5-Pin_3)*%
X138219998Y-40720000D02*
X138909337Y-41409339D01*
X136159337Y-40720000D02*
X138219998Y-40720000D01*
X135415173Y-43067101D02*
X135415173Y-41464164D01*
X140787500Y-46037500D02*
X139553239Y-46037500D01*
X135415173Y-41464164D02*
X136159337Y-40720000D01*
X139553239Y-46037500D02*
X139225867Y-46364872D01*
X138909337Y-41409339D02*
X138909337Y-41470000D01*
%TO.N,Board_6-Net-(J5-Pin_4)*%
X139909337Y-41470000D02*
X139909337Y-41620091D01*
X141024623Y-42735377D02*
X141379924Y-43090678D01*
X139909337Y-41620091D02*
X141024623Y-42735377D01*
X141475000Y-45125000D02*
X140650000Y-45125000D01*
X142024924Y-43735678D02*
X142024924Y-44575076D01*
X142024924Y-44575076D02*
X141475000Y-45125000D01*
X141024623Y-42735377D02*
X142024924Y-43735678D01*
%TO.N,Board_6-Net-(U1-BOOTN)*%
X135150000Y-49761173D02*
X135894818Y-50505991D01*
X135150000Y-47285500D02*
X135150000Y-49761173D01*
X135894818Y-50505991D02*
X138984885Y-50505991D01*
X135398000Y-47037500D02*
X135150000Y-47285500D01*
X136012500Y-47037500D02*
X135398000Y-47037500D01*
%TO.N,Board_6-Net-(U1-CAP)*%
X136822887Y-49506451D02*
X137208049Y-49506451D01*
X137208049Y-49506451D02*
X137650000Y-49064500D01*
X137650000Y-49064500D02*
X137650000Y-48450000D01*
%TO.N,Board_6-Net-(U1-ENV_SCL)*%
X141650000Y-49982310D02*
X141650000Y-49224080D01*
X141142691Y-50489619D02*
X141650000Y-49982310D01*
X140925001Y-50489619D02*
X141142691Y-50489619D01*
X140875920Y-48450000D02*
X140650000Y-48450000D01*
X141650000Y-49224080D02*
X140875920Y-48450000D01*
%TO.N,Board_6-Net-(U1-ENV_SDA)*%
X140521292Y-51084619D02*
X141515381Y-51084619D01*
X141515381Y-51084619D02*
X142100000Y-50500000D01*
X139950850Y-50514177D02*
X140521292Y-51084619D01*
X142100000Y-50500000D02*
X142100000Y-48850000D01*
X142100000Y-48850000D02*
X140787500Y-47537500D01*
%TO.N,Board_7-+3.3V*%
X146650000Y-45125000D02*
X146650000Y-44450000D01*
X147737500Y-46537500D02*
X148150000Y-46950000D01*
X150900443Y-49494177D02*
X150925001Y-49469619D01*
X151379924Y-44110678D02*
X149948975Y-44110678D01*
X148571491Y-49485991D02*
X148150000Y-49064500D01*
X148984885Y-49485991D02*
X149942664Y-49485991D01*
X146150000Y-44200000D02*
X145150000Y-45200000D01*
X145150000Y-46289500D02*
X145398000Y-46537500D01*
X148150000Y-46950000D02*
X148150000Y-48450000D01*
X145150000Y-45200000D02*
X145150000Y-44352274D01*
X149950850Y-49494177D02*
X150900443Y-49494177D01*
X148150000Y-49064500D02*
X148150000Y-48450000D01*
X148984885Y-49485991D02*
X148571491Y-49485991D01*
X146650000Y-44450000D02*
X146400000Y-44200000D01*
X145398000Y-46537500D02*
X146012500Y-46537500D01*
X145150000Y-44352274D02*
X145415173Y-44087101D01*
X147909337Y-42071040D02*
X147909337Y-41470000D01*
X149948975Y-44110678D02*
X147909337Y-42071040D01*
X146012500Y-46537500D02*
X147737500Y-46537500D01*
X146400000Y-44200000D02*
X146150000Y-44200000D01*
X149942664Y-49485991D02*
X149950850Y-49494177D01*
X145150000Y-45200000D02*
X145150000Y-46289500D01*
%TO.N,Board_7-GND*%
X148150000Y-46313604D02*
X148150000Y-45125000D01*
X147352000Y-46037500D02*
X146012500Y-46037500D01*
X149150000Y-47313604D02*
X148150000Y-46313604D01*
X149562500Y-47037500D02*
X150787500Y-47037500D01*
X146012500Y-47537500D02*
X146874500Y-47537500D01*
X146874500Y-47537500D02*
X147150000Y-47262000D01*
X148150000Y-45010500D02*
X148150000Y-45125000D01*
X146909337Y-43769837D02*
X147650000Y-44510500D01*
X145862887Y-49506451D02*
X145862887Y-48737113D01*
X147650000Y-44510500D02*
X148150000Y-45010500D01*
X145862887Y-48737113D02*
X146150000Y-48450000D01*
X147650000Y-45125000D02*
X147650000Y-45739500D01*
X146150000Y-47675000D02*
X146012500Y-47537500D01*
X147650000Y-45739500D02*
X147352000Y-46037500D01*
X146150000Y-48450000D02*
X146150000Y-47675000D01*
X147650000Y-44510500D02*
X147650000Y-45125000D01*
X149150000Y-47450000D02*
X149562500Y-47037500D01*
X149150000Y-47450000D02*
X149150000Y-47313604D01*
X146909337Y-41470000D02*
X146909337Y-43769837D01*
%TO.N,Board_7-Net-(J5-Pin_3)*%
X150787500Y-46037500D02*
X149553239Y-46037500D01*
X145415173Y-41464164D02*
X146159337Y-40720000D01*
X149553239Y-46037500D02*
X149225867Y-46364872D01*
X148219998Y-40720000D02*
X148909337Y-41409339D01*
X148909337Y-41409339D02*
X148909337Y-41470000D01*
X146159337Y-40720000D02*
X148219998Y-40720000D01*
X145415173Y-43067101D02*
X145415173Y-41464164D01*
%TO.N,Board_7-Net-(J5-Pin_4)*%
X151024623Y-42735377D02*
X152024924Y-43735678D01*
X149909337Y-41470000D02*
X149909337Y-41620091D01*
X152024924Y-43735678D02*
X152024924Y-44575076D01*
X151024623Y-42735377D02*
X151379924Y-43090678D01*
X149909337Y-41620091D02*
X151024623Y-42735377D01*
X151475000Y-45125000D02*
X150650000Y-45125000D01*
X152024924Y-44575076D02*
X151475000Y-45125000D01*
%TO.N,Board_7-Net-(U1-BOOTN)*%
X145150000Y-49761173D02*
X145894818Y-50505991D01*
X146012500Y-47037500D02*
X145398000Y-47037500D01*
X145150000Y-47285500D02*
X145150000Y-49761173D01*
X145398000Y-47037500D02*
X145150000Y-47285500D01*
X145894818Y-50505991D02*
X148984885Y-50505991D01*
%TO.N,Board_7-Net-(U1-CAP)*%
X147650000Y-49064500D02*
X147650000Y-48450000D01*
X147208049Y-49506451D02*
X147650000Y-49064500D01*
X146822887Y-49506451D02*
X147208049Y-49506451D01*
%TO.N,Board_7-Net-(U1-ENV_SCL)*%
X151142691Y-50489619D02*
X151650000Y-49982310D01*
X150875920Y-48450000D02*
X150650000Y-48450000D01*
X151650000Y-49982310D02*
X151650000Y-49224080D01*
X150925001Y-50489619D02*
X151142691Y-50489619D01*
X151650000Y-49224080D02*
X150875920Y-48450000D01*
%TO.N,Board_7-Net-(U1-ENV_SDA)*%
X152100000Y-48850000D02*
X150787500Y-47537500D01*
X149950850Y-50514177D02*
X150521292Y-51084619D01*
X152100000Y-50500000D02*
X152100000Y-48850000D01*
X150521292Y-51084619D02*
X151515381Y-51084619D01*
X151515381Y-51084619D02*
X152100000Y-50500000D01*
%TO.N,Board_8-+3.3V*%
X160900443Y-49494177D02*
X160925001Y-49469619D01*
X155150000Y-45200000D02*
X155150000Y-46289500D01*
X155150000Y-45200000D02*
X155150000Y-44352274D01*
X157737500Y-46537500D02*
X158150000Y-46950000D01*
X155150000Y-44352274D02*
X155415173Y-44087101D01*
X159950850Y-49494177D02*
X160900443Y-49494177D01*
X156400000Y-44200000D02*
X156150000Y-44200000D01*
X161379924Y-44110678D02*
X159948975Y-44110678D01*
X155398000Y-46537500D02*
X156012500Y-46537500D01*
X156650000Y-44450000D02*
X156400000Y-44200000D01*
X159948975Y-44110678D02*
X157909337Y-42071040D01*
X158984885Y-49485991D02*
X159942664Y-49485991D01*
X156150000Y-44200000D02*
X155150000Y-45200000D01*
X158984885Y-49485991D02*
X158571491Y-49485991D01*
X155150000Y-46289500D02*
X155398000Y-46537500D01*
X159942664Y-49485991D02*
X159950850Y-49494177D01*
X158150000Y-46950000D02*
X158150000Y-48450000D01*
X156012500Y-46537500D02*
X157737500Y-46537500D01*
X158571491Y-49485991D02*
X158150000Y-49064500D01*
X156650000Y-45125000D02*
X156650000Y-44450000D01*
X158150000Y-49064500D02*
X158150000Y-48450000D01*
X157909337Y-42071040D02*
X157909337Y-41470000D01*
%TO.N,Board_8-GND*%
X159150000Y-47450000D02*
X159562500Y-47037500D01*
X157352000Y-46037500D02*
X156012500Y-46037500D01*
X159150000Y-47313604D02*
X158150000Y-46313604D01*
X158150000Y-45010500D02*
X158150000Y-45125000D01*
X158150000Y-46313604D02*
X158150000Y-45125000D01*
X156909337Y-43769837D02*
X157650000Y-44510500D01*
X156012500Y-47537500D02*
X156874500Y-47537500D01*
X157650000Y-44510500D02*
X157650000Y-45125000D01*
X156909337Y-41470000D02*
X156909337Y-43769837D01*
X156874500Y-47537500D02*
X157150000Y-47262000D01*
X157650000Y-45125000D02*
X157650000Y-45739500D01*
X157650000Y-45739500D02*
X157352000Y-46037500D01*
X159150000Y-47450000D02*
X159150000Y-47313604D01*
X155862887Y-48737113D02*
X156150000Y-48450000D01*
X156150000Y-47675000D02*
X156012500Y-47537500D01*
X159562500Y-47037500D02*
X160787500Y-47037500D01*
X157650000Y-44510500D02*
X158150000Y-45010500D01*
X156150000Y-48450000D02*
X156150000Y-47675000D01*
X155862887Y-49506451D02*
X155862887Y-48737113D01*
%TO.N,Board_8-Net-(J5-Pin_3)*%
X156159337Y-40720000D02*
X158219998Y-40720000D01*
X155415173Y-41464164D02*
X156159337Y-40720000D01*
X155415173Y-43067101D02*
X155415173Y-41464164D01*
X160787500Y-46037500D02*
X159553239Y-46037500D01*
X158219998Y-40720000D02*
X158909337Y-41409339D01*
X159553239Y-46037500D02*
X159225867Y-46364872D01*
X158909337Y-41409339D02*
X158909337Y-41470000D01*
%TO.N,Board_8-Net-(J5-Pin_4)*%
X161024623Y-42735377D02*
X162024924Y-43735678D01*
X159909337Y-41470000D02*
X159909337Y-41620091D01*
X162024924Y-43735678D02*
X162024924Y-44575076D01*
X161024623Y-42735377D02*
X161379924Y-43090678D01*
X162024924Y-44575076D02*
X161475000Y-45125000D01*
X161475000Y-45125000D02*
X160650000Y-45125000D01*
X159909337Y-41620091D02*
X161024623Y-42735377D01*
%TO.N,Board_8-Net-(U1-BOOTN)*%
X155150000Y-47285500D02*
X155150000Y-49761173D01*
X155398000Y-47037500D02*
X155150000Y-47285500D01*
X156012500Y-47037500D02*
X155398000Y-47037500D01*
X155894818Y-50505991D02*
X158984885Y-50505991D01*
X155150000Y-49761173D02*
X155894818Y-50505991D01*
%TO.N,Board_8-Net-(U1-CAP)*%
X156822887Y-49506451D02*
X157208049Y-49506451D01*
X157208049Y-49506451D02*
X157650000Y-49064500D01*
X157650000Y-49064500D02*
X157650000Y-48450000D01*
%TO.N,Board_8-Net-(U1-ENV_SCL)*%
X161650000Y-49224080D02*
X160875920Y-48450000D01*
X161650000Y-49982310D02*
X161650000Y-49224080D01*
X160875920Y-48450000D02*
X160650000Y-48450000D01*
X161142691Y-50489619D02*
X161650000Y-49982310D01*
X160925001Y-50489619D02*
X161142691Y-50489619D01*
%TO.N,Board_8-Net-(U1-ENV_SDA)*%
X161515381Y-51084619D02*
X162100000Y-50500000D01*
X159950850Y-50514177D02*
X160521292Y-51084619D01*
X160521292Y-51084619D02*
X161515381Y-51084619D01*
X162100000Y-48850000D02*
X160787500Y-47537500D01*
X162100000Y-50500000D02*
X162100000Y-48850000D01*
%TO.N,Board_9-+3.3V*%
X166012500Y-46537500D02*
X167737500Y-46537500D01*
X165150000Y-46289500D02*
X165398000Y-46537500D01*
X171379924Y-44110678D02*
X169948975Y-44110678D01*
X165398000Y-46537500D02*
X166012500Y-46537500D01*
X169950850Y-49494177D02*
X170900443Y-49494177D01*
X168150000Y-46950000D02*
X168150000Y-48450000D01*
X169942664Y-49485991D02*
X169950850Y-49494177D01*
X166150000Y-44200000D02*
X165150000Y-45200000D01*
X170900443Y-49494177D02*
X170925001Y-49469619D01*
X165150000Y-45200000D02*
X165150000Y-44352274D01*
X165150000Y-44352274D02*
X165415173Y-44087101D01*
X168984885Y-49485991D02*
X168571491Y-49485991D01*
X168571491Y-49485991D02*
X168150000Y-49064500D01*
X167737500Y-46537500D02*
X168150000Y-46950000D01*
X166400000Y-44200000D02*
X166150000Y-44200000D01*
X166650000Y-44450000D02*
X166400000Y-44200000D01*
X168984885Y-49485991D02*
X169942664Y-49485991D01*
X166650000Y-45125000D02*
X166650000Y-44450000D01*
X169948975Y-44110678D02*
X167909337Y-42071040D01*
X167909337Y-42071040D02*
X167909337Y-41470000D01*
X168150000Y-49064500D02*
X168150000Y-48450000D01*
X165150000Y-45200000D02*
X165150000Y-46289500D01*
%TO.N,Board_9-GND*%
X167650000Y-45125000D02*
X167650000Y-45739500D01*
X167650000Y-44510500D02*
X167650000Y-45125000D01*
X166150000Y-48450000D02*
X166150000Y-47675000D01*
X166874500Y-47537500D02*
X167150000Y-47262000D01*
X169562500Y-47037500D02*
X170787500Y-47037500D01*
X168150000Y-46313604D02*
X168150000Y-45125000D01*
X166909337Y-43769837D02*
X167650000Y-44510500D01*
X165862887Y-48737113D02*
X166150000Y-48450000D01*
X167352000Y-46037500D02*
X166012500Y-46037500D01*
X166012500Y-47537500D02*
X166874500Y-47537500D01*
X169150000Y-47450000D02*
X169562500Y-47037500D01*
X168150000Y-45010500D02*
X168150000Y-45125000D01*
X167650000Y-44510500D02*
X168150000Y-45010500D01*
X166909337Y-41470000D02*
X166909337Y-43769837D01*
X165862887Y-49506451D02*
X165862887Y-48737113D01*
X169150000Y-47313604D02*
X168150000Y-46313604D01*
X166150000Y-47675000D02*
X166012500Y-47537500D01*
X167650000Y-45739500D02*
X167352000Y-46037500D01*
X169150000Y-47450000D02*
X169150000Y-47313604D01*
%TO.N,Board_9-Net-(J5-Pin_3)*%
X165415173Y-41464164D02*
X166159337Y-40720000D01*
X169553239Y-46037500D02*
X169225867Y-46364872D01*
X168909337Y-41409339D02*
X168909337Y-41470000D01*
X166159337Y-40720000D02*
X168219998Y-40720000D01*
X165415173Y-43067101D02*
X165415173Y-41464164D01*
X170787500Y-46037500D02*
X169553239Y-46037500D01*
X168219998Y-40720000D02*
X168909337Y-41409339D01*
%TO.N,Board_9-Net-(J5-Pin_4)*%
X169909337Y-41620091D02*
X171024623Y-42735377D01*
X172024924Y-43735678D02*
X172024924Y-44575076D01*
X171475000Y-45125000D02*
X170650000Y-45125000D01*
X171024623Y-42735377D02*
X172024924Y-43735678D01*
X172024924Y-44575076D02*
X171475000Y-45125000D01*
X169909337Y-41470000D02*
X169909337Y-41620091D01*
X171024623Y-42735377D02*
X171379924Y-43090678D01*
%TO.N,Board_9-Net-(U1-BOOTN)*%
X165150000Y-49761173D02*
X165894818Y-50505991D01*
X165150000Y-47285500D02*
X165150000Y-49761173D01*
X165894818Y-50505991D02*
X168984885Y-50505991D01*
X165398000Y-47037500D02*
X165150000Y-47285500D01*
X166012500Y-47037500D02*
X165398000Y-47037500D01*
%TO.N,Board_9-Net-(U1-CAP)*%
X166822887Y-49506451D02*
X167208049Y-49506451D01*
X167650000Y-49064500D02*
X167650000Y-48450000D01*
X167208049Y-49506451D02*
X167650000Y-49064500D01*
%TO.N,Board_9-Net-(U1-ENV_SCL)*%
X171142691Y-50489619D02*
X171650000Y-49982310D01*
X171650000Y-49224080D02*
X170875920Y-48450000D01*
X170925001Y-50489619D02*
X171142691Y-50489619D01*
X171650000Y-49982310D02*
X171650000Y-49224080D01*
X170875920Y-48450000D02*
X170650000Y-48450000D01*
%TO.N,Board_9-Net-(U1-ENV_SDA)*%
X172100000Y-50500000D02*
X172100000Y-48850000D01*
X170521292Y-51084619D02*
X171515381Y-51084619D01*
X172100000Y-48850000D02*
X170787500Y-47537500D01*
X171515381Y-51084619D02*
X172100000Y-50500000D01*
X169950850Y-50514177D02*
X170521292Y-51084619D01*
%TO.N,Board_10-+3.3V*%
X126012500Y-59837500D02*
X127737500Y-59837500D01*
X125150000Y-58500000D02*
X125150000Y-59589500D01*
X129948975Y-57410678D02*
X127909337Y-55371040D01*
X125150000Y-58500000D02*
X125150000Y-57652274D01*
X125150000Y-59589500D02*
X125398000Y-59837500D01*
X128984885Y-62785991D02*
X129942664Y-62785991D01*
X128571491Y-62785991D02*
X128150000Y-62364500D01*
X126400000Y-57500000D02*
X126150000Y-57500000D01*
X129950850Y-62794177D02*
X130900443Y-62794177D01*
X125398000Y-59837500D02*
X126012500Y-59837500D01*
X128984885Y-62785991D02*
X128571491Y-62785991D01*
X126650000Y-57750000D02*
X126400000Y-57500000D01*
X131379924Y-57410678D02*
X129948975Y-57410678D01*
X127909337Y-55371040D02*
X127909337Y-54770000D01*
X126150000Y-57500000D02*
X125150000Y-58500000D01*
X127737500Y-59837500D02*
X128150000Y-60250000D01*
X128150000Y-60250000D02*
X128150000Y-61750000D01*
X129942664Y-62785991D02*
X129950850Y-62794177D01*
X128150000Y-62364500D02*
X128150000Y-61750000D01*
X126650000Y-58425000D02*
X126650000Y-57750000D01*
X130900443Y-62794177D02*
X130925001Y-62769619D01*
X125150000Y-57652274D02*
X125415173Y-57387101D01*
%TO.N,Board_10-GND*%
X126909337Y-57069837D02*
X127650000Y-57810500D01*
X127650000Y-58425000D02*
X127650000Y-59039500D01*
X126150000Y-60975000D02*
X126012500Y-60837500D01*
X125862887Y-62806451D02*
X125862887Y-62037113D01*
X126150000Y-61750000D02*
X126150000Y-60975000D01*
X126909337Y-54770000D02*
X126909337Y-57069837D01*
X127650000Y-57810500D02*
X127650000Y-58425000D01*
X127352000Y-59337500D02*
X126012500Y-59337500D01*
X126874500Y-60837500D02*
X127150000Y-60562000D01*
X129150000Y-60750000D02*
X129562500Y-60337500D01*
X129150000Y-60613604D02*
X128150000Y-59613604D01*
X125862887Y-62037113D02*
X126150000Y-61750000D01*
X128150000Y-59613604D02*
X128150000Y-58425000D01*
X129150000Y-60750000D02*
X129150000Y-60613604D01*
X129562500Y-60337500D02*
X130787500Y-60337500D01*
X127650000Y-57810500D02*
X128150000Y-58310500D01*
X126012500Y-60837500D02*
X126874500Y-60837500D01*
X128150000Y-58310500D02*
X128150000Y-58425000D01*
X127650000Y-59039500D02*
X127352000Y-59337500D01*
%TO.N,Board_10-Net-(J5-Pin_3)*%
X128219998Y-54020000D02*
X128909337Y-54709339D01*
X130787500Y-59337500D02*
X129553239Y-59337500D01*
X125415173Y-56367101D02*
X125415173Y-54764164D01*
X126159337Y-54020000D02*
X128219998Y-54020000D01*
X129553239Y-59337500D02*
X129225867Y-59664872D01*
X128909337Y-54709339D02*
X128909337Y-54770000D01*
X125415173Y-54764164D02*
X126159337Y-54020000D01*
%TO.N,Board_10-Net-(J5-Pin_4)*%
X129909337Y-54920091D02*
X131024623Y-56035377D01*
X132024924Y-57035678D02*
X132024924Y-57875076D01*
X132024924Y-57875076D02*
X131475000Y-58425000D01*
X131024623Y-56035377D02*
X132024924Y-57035678D01*
X131024623Y-56035377D02*
X131379924Y-56390678D01*
X131475000Y-58425000D02*
X130650000Y-58425000D01*
X129909337Y-54770000D02*
X129909337Y-54920091D01*
%TO.N,Board_10-Net-(U1-BOOTN)*%
X125398000Y-60337500D02*
X125150000Y-60585500D01*
X125894818Y-63805991D02*
X128984885Y-63805991D01*
X126012500Y-60337500D02*
X125398000Y-60337500D01*
X125150000Y-63061173D02*
X125894818Y-63805991D01*
X125150000Y-60585500D02*
X125150000Y-63061173D01*
%TO.N,Board_10-Net-(U1-CAP)*%
X127208049Y-62806451D02*
X127650000Y-62364500D01*
X127650000Y-62364500D02*
X127650000Y-61750000D01*
X126822887Y-62806451D02*
X127208049Y-62806451D01*
%TO.N,Board_10-Net-(U1-ENV_SCL)*%
X131650000Y-62524080D02*
X130875920Y-61750000D01*
X130875920Y-61750000D02*
X130650000Y-61750000D01*
X130925001Y-63789619D02*
X131142691Y-63789619D01*
X131142691Y-63789619D02*
X131650000Y-63282310D01*
X131650000Y-63282310D02*
X131650000Y-62524080D01*
%TO.N,Board_10-Net-(U1-ENV_SDA)*%
X130521292Y-64384619D02*
X131515381Y-64384619D01*
X129950850Y-63814177D02*
X130521292Y-64384619D01*
X132100000Y-62150000D02*
X130787500Y-60837500D01*
X131515381Y-64384619D02*
X132100000Y-63800000D01*
X132100000Y-63800000D02*
X132100000Y-62150000D01*
%TO.N,Board_11-+3.3V*%
X138571491Y-62785991D02*
X138150000Y-62364500D01*
X136650000Y-57750000D02*
X136400000Y-57500000D01*
X139942664Y-62785991D02*
X139950850Y-62794177D01*
X135150000Y-57652274D02*
X135415173Y-57387101D01*
X135398000Y-59837500D02*
X136012500Y-59837500D01*
X136650000Y-58425000D02*
X136650000Y-57750000D01*
X138984885Y-62785991D02*
X138571491Y-62785991D01*
X138150000Y-62364500D02*
X138150000Y-61750000D01*
X140900443Y-62794177D02*
X140925001Y-62769619D01*
X138150000Y-60250000D02*
X138150000Y-61750000D01*
X136012500Y-59837500D02*
X137737500Y-59837500D01*
X136400000Y-57500000D02*
X136150000Y-57500000D01*
X137909337Y-55371040D02*
X137909337Y-54770000D01*
X135150000Y-58500000D02*
X135150000Y-57652274D01*
X138984885Y-62785991D02*
X139942664Y-62785991D01*
X135150000Y-59589500D02*
X135398000Y-59837500D01*
X135150000Y-58500000D02*
X135150000Y-59589500D01*
X137737500Y-59837500D02*
X138150000Y-60250000D01*
X141379924Y-57410678D02*
X139948975Y-57410678D01*
X139948975Y-57410678D02*
X137909337Y-55371040D01*
X139950850Y-62794177D02*
X140900443Y-62794177D01*
X136150000Y-57500000D02*
X135150000Y-58500000D01*
%TO.N,Board_11-GND*%
X139150000Y-60613604D02*
X138150000Y-59613604D01*
X135862887Y-62037113D02*
X136150000Y-61750000D01*
X139150000Y-60750000D02*
X139150000Y-60613604D01*
X137650000Y-57810500D02*
X138150000Y-58310500D01*
X139562500Y-60337500D02*
X140787500Y-60337500D01*
X138150000Y-59613604D02*
X138150000Y-58425000D01*
X137352000Y-59337500D02*
X136012500Y-59337500D01*
X136909337Y-54770000D02*
X136909337Y-57069837D01*
X136150000Y-60975000D02*
X136012500Y-60837500D01*
X135862887Y-62806451D02*
X135862887Y-62037113D01*
X136012500Y-60837500D02*
X136874500Y-60837500D01*
X138150000Y-58310500D02*
X138150000Y-58425000D01*
X136909337Y-57069837D02*
X137650000Y-57810500D01*
X137650000Y-59039500D02*
X137352000Y-59337500D01*
X136874500Y-60837500D02*
X137150000Y-60562000D01*
X139150000Y-60750000D02*
X139562500Y-60337500D01*
X136150000Y-61750000D02*
X136150000Y-60975000D01*
X137650000Y-58425000D02*
X137650000Y-59039500D01*
X137650000Y-57810500D02*
X137650000Y-58425000D01*
%TO.N,Board_11-Net-(J5-Pin_3)*%
X138219998Y-54020000D02*
X138909337Y-54709339D01*
X135415173Y-56367101D02*
X135415173Y-54764164D01*
X138909337Y-54709339D02*
X138909337Y-54770000D01*
X136159337Y-54020000D02*
X138219998Y-54020000D01*
X139553239Y-59337500D02*
X139225867Y-59664872D01*
X135415173Y-54764164D02*
X136159337Y-54020000D01*
X140787500Y-59337500D02*
X139553239Y-59337500D01*
%TO.N,Board_11-Net-(J5-Pin_4)*%
X139909337Y-54920091D02*
X141024623Y-56035377D01*
X142024924Y-57035678D02*
X142024924Y-57875076D01*
X141024623Y-56035377D02*
X142024924Y-57035678D01*
X139909337Y-54770000D02*
X139909337Y-54920091D01*
X142024924Y-57875076D02*
X141475000Y-58425000D01*
X141024623Y-56035377D02*
X141379924Y-56390678D01*
X141475000Y-58425000D02*
X140650000Y-58425000D01*
%TO.N,Board_11-Net-(U1-BOOTN)*%
X136012500Y-60337500D02*
X135398000Y-60337500D01*
X135150000Y-63061173D02*
X135894818Y-63805991D01*
X135398000Y-60337500D02*
X135150000Y-60585500D01*
X135894818Y-63805991D02*
X138984885Y-63805991D01*
X135150000Y-60585500D02*
X135150000Y-63061173D01*
%TO.N,Board_11-Net-(U1-CAP)*%
X136822887Y-62806451D02*
X137208049Y-62806451D01*
X137650000Y-62364500D02*
X137650000Y-61750000D01*
X137208049Y-62806451D02*
X137650000Y-62364500D01*
%TO.N,Board_11-Net-(U1-ENV_SCL)*%
X141650000Y-62524080D02*
X140875920Y-61750000D01*
X141142691Y-63789619D02*
X141650000Y-63282310D01*
X140925001Y-63789619D02*
X141142691Y-63789619D01*
X141650000Y-63282310D02*
X141650000Y-62524080D01*
X140875920Y-61750000D02*
X140650000Y-61750000D01*
%TO.N,Board_11-Net-(U1-ENV_SDA)*%
X140521292Y-64384619D02*
X141515381Y-64384619D01*
X141515381Y-64384619D02*
X142100000Y-63800000D01*
X142100000Y-63800000D02*
X142100000Y-62150000D01*
X142100000Y-62150000D02*
X140787500Y-60837500D01*
X139950850Y-63814177D02*
X140521292Y-64384619D01*
%TO.N,Board_12-+3.3V*%
X148150000Y-62364500D02*
X148150000Y-61750000D01*
X148984885Y-62785991D02*
X149942664Y-62785991D01*
X146150000Y-57500000D02*
X145150000Y-58500000D01*
X146650000Y-57750000D02*
X146400000Y-57500000D01*
X151379924Y-57410678D02*
X149948975Y-57410678D01*
X146650000Y-58425000D02*
X146650000Y-57750000D01*
X146012500Y-59837500D02*
X147737500Y-59837500D01*
X147737500Y-59837500D02*
X148150000Y-60250000D01*
X150900443Y-62794177D02*
X150925001Y-62769619D01*
X149950850Y-62794177D02*
X150900443Y-62794177D01*
X146400000Y-57500000D02*
X146150000Y-57500000D01*
X148150000Y-60250000D02*
X148150000Y-61750000D01*
X149942664Y-62785991D02*
X149950850Y-62794177D01*
X149948975Y-57410678D02*
X147909337Y-55371040D01*
X148984885Y-62785991D02*
X148571491Y-62785991D01*
X145150000Y-59589500D02*
X145398000Y-59837500D01*
X145150000Y-57652274D02*
X145415173Y-57387101D01*
X145150000Y-58500000D02*
X145150000Y-59589500D01*
X145398000Y-59837500D02*
X146012500Y-59837500D01*
X147909337Y-55371040D02*
X147909337Y-54770000D01*
X148571491Y-62785991D02*
X148150000Y-62364500D01*
X145150000Y-58500000D02*
X145150000Y-57652274D01*
%TO.N,Board_12-GND*%
X149562500Y-60337500D02*
X150787500Y-60337500D01*
X148150000Y-59613604D02*
X148150000Y-58425000D01*
X146909337Y-54770000D02*
X146909337Y-57069837D01*
X147650000Y-58425000D02*
X147650000Y-59039500D01*
X149150000Y-60750000D02*
X149150000Y-60613604D01*
X149150000Y-60613604D02*
X148150000Y-59613604D01*
X146909337Y-57069837D02*
X147650000Y-57810500D01*
X147650000Y-59039500D02*
X147352000Y-59337500D01*
X146150000Y-60975000D02*
X146012500Y-60837500D01*
X146874500Y-60837500D02*
X147150000Y-60562000D01*
X145862887Y-62037113D02*
X146150000Y-61750000D01*
X147650000Y-57810500D02*
X147650000Y-58425000D01*
X148150000Y-58310500D02*
X148150000Y-58425000D01*
X147352000Y-59337500D02*
X146012500Y-59337500D01*
X145862887Y-62806451D02*
X145862887Y-62037113D01*
X149150000Y-60750000D02*
X149562500Y-60337500D01*
X146012500Y-60837500D02*
X146874500Y-60837500D01*
X146150000Y-61750000D02*
X146150000Y-60975000D01*
X147650000Y-57810500D02*
X148150000Y-58310500D01*
%TO.N,Board_12-Net-(J5-Pin_3)*%
X145415173Y-54764164D02*
X146159337Y-54020000D01*
X148909337Y-54709339D02*
X148909337Y-54770000D01*
X146159337Y-54020000D02*
X148219998Y-54020000D01*
X148219998Y-54020000D02*
X148909337Y-54709339D01*
X149553239Y-59337500D02*
X149225867Y-59664872D01*
X150787500Y-59337500D02*
X149553239Y-59337500D01*
X145415173Y-56367101D02*
X145415173Y-54764164D01*
%TO.N,Board_12-Net-(J5-Pin_4)*%
X151475000Y-58425000D02*
X150650000Y-58425000D01*
X152024924Y-57875076D02*
X151475000Y-58425000D01*
X151024623Y-56035377D02*
X152024924Y-57035678D01*
X151024623Y-56035377D02*
X151379924Y-56390678D01*
X152024924Y-57035678D02*
X152024924Y-57875076D01*
X149909337Y-54920091D02*
X151024623Y-56035377D01*
X149909337Y-54770000D02*
X149909337Y-54920091D01*
%TO.N,Board_12-Net-(U1-BOOTN)*%
X145150000Y-63061173D02*
X145894818Y-63805991D01*
X145398000Y-60337500D02*
X145150000Y-60585500D01*
X145894818Y-63805991D02*
X148984885Y-63805991D01*
X145150000Y-60585500D02*
X145150000Y-63061173D01*
X146012500Y-60337500D02*
X145398000Y-60337500D01*
%TO.N,Board_12-Net-(U1-CAP)*%
X147208049Y-62806451D02*
X147650000Y-62364500D01*
X146822887Y-62806451D02*
X147208049Y-62806451D01*
X147650000Y-62364500D02*
X147650000Y-61750000D01*
%TO.N,Board_12-Net-(U1-ENV_SCL)*%
X150875920Y-61750000D02*
X150650000Y-61750000D01*
X151142691Y-63789619D02*
X151650000Y-63282310D01*
X151650000Y-62524080D02*
X150875920Y-61750000D01*
X150925001Y-63789619D02*
X151142691Y-63789619D01*
X151650000Y-63282310D02*
X151650000Y-62524080D01*
%TO.N,Board_12-Net-(U1-ENV_SDA)*%
X149950850Y-63814177D02*
X150521292Y-64384619D01*
X152100000Y-63800000D02*
X152100000Y-62150000D01*
X150521292Y-64384619D02*
X151515381Y-64384619D01*
X151515381Y-64384619D02*
X152100000Y-63800000D01*
X152100000Y-62150000D02*
X150787500Y-60837500D01*
%TO.N,Board_13-+3.3V*%
X159948975Y-57410678D02*
X157909337Y-55371040D01*
X157737500Y-59837500D02*
X158150000Y-60250000D01*
X159950850Y-62794177D02*
X160900443Y-62794177D01*
X161379924Y-57410678D02*
X159948975Y-57410678D01*
X158150000Y-62364500D02*
X158150000Y-61750000D01*
X156650000Y-57750000D02*
X156400000Y-57500000D01*
X155150000Y-57652274D02*
X155415173Y-57387101D01*
X157909337Y-55371040D02*
X157909337Y-54770000D01*
X155150000Y-59589500D02*
X155398000Y-59837500D01*
X155150000Y-58500000D02*
X155150000Y-57652274D01*
X156150000Y-57500000D02*
X155150000Y-58500000D01*
X156650000Y-58425000D02*
X156650000Y-57750000D01*
X158571491Y-62785991D02*
X158150000Y-62364500D01*
X155150000Y-58500000D02*
X155150000Y-59589500D01*
X158984885Y-62785991D02*
X158571491Y-62785991D01*
X158984885Y-62785991D02*
X159942664Y-62785991D01*
X156400000Y-57500000D02*
X156150000Y-57500000D01*
X155398000Y-59837500D02*
X156012500Y-59837500D01*
X160900443Y-62794177D02*
X160925001Y-62769619D01*
X159942664Y-62785991D02*
X159950850Y-62794177D01*
X158150000Y-60250000D02*
X158150000Y-61750000D01*
X156012500Y-59837500D02*
X157737500Y-59837500D01*
%TO.N,Board_13-GND*%
X159150000Y-60750000D02*
X159150000Y-60613604D01*
X156909337Y-57069837D02*
X157650000Y-57810500D01*
X157352000Y-59337500D02*
X156012500Y-59337500D01*
X155862887Y-62806451D02*
X155862887Y-62037113D01*
X157650000Y-58425000D02*
X157650000Y-59039500D01*
X158150000Y-59613604D02*
X158150000Y-58425000D01*
X158150000Y-58310500D02*
X158150000Y-58425000D01*
X159150000Y-60750000D02*
X159562500Y-60337500D01*
X157650000Y-59039500D02*
X157352000Y-59337500D01*
X159150000Y-60613604D02*
X158150000Y-59613604D01*
X156150000Y-61750000D02*
X156150000Y-60975000D01*
X156150000Y-60975000D02*
X156012500Y-60837500D01*
X156012500Y-60837500D02*
X156874500Y-60837500D01*
X156874500Y-60837500D02*
X157150000Y-60562000D01*
X159562500Y-60337500D02*
X160787500Y-60337500D01*
X157650000Y-57810500D02*
X158150000Y-58310500D01*
X155862887Y-62037113D02*
X156150000Y-61750000D01*
X156909337Y-54770000D02*
X156909337Y-57069837D01*
X157650000Y-57810500D02*
X157650000Y-58425000D01*
%TO.N,Board_13-Net-(J5-Pin_3)*%
X158909337Y-54709339D02*
X158909337Y-54770000D01*
X159553239Y-59337500D02*
X159225867Y-59664872D01*
X156159337Y-54020000D02*
X158219998Y-54020000D01*
X155415173Y-56367101D02*
X155415173Y-54764164D01*
X160787500Y-59337500D02*
X159553239Y-59337500D01*
X158219998Y-54020000D02*
X158909337Y-54709339D01*
X155415173Y-54764164D02*
X156159337Y-54020000D01*
%TO.N,Board_13-Net-(J5-Pin_4)*%
X162024924Y-57035678D02*
X162024924Y-57875076D01*
X161475000Y-58425000D02*
X160650000Y-58425000D01*
X161024623Y-56035377D02*
X162024924Y-57035678D01*
X159909337Y-54770000D02*
X159909337Y-54920091D01*
X159909337Y-54920091D02*
X161024623Y-56035377D01*
X161024623Y-56035377D02*
X161379924Y-56390678D01*
X162024924Y-57875076D02*
X161475000Y-58425000D01*
%TO.N,Board_13-Net-(U1-BOOTN)*%
X155398000Y-60337500D02*
X155150000Y-60585500D01*
X155150000Y-63061173D02*
X155894818Y-63805991D01*
X156012500Y-60337500D02*
X155398000Y-60337500D01*
X155894818Y-63805991D02*
X158984885Y-63805991D01*
X155150000Y-60585500D02*
X155150000Y-63061173D01*
%TO.N,Board_13-Net-(U1-CAP)*%
X157208049Y-62806451D02*
X157650000Y-62364500D01*
X156822887Y-62806451D02*
X157208049Y-62806451D01*
X157650000Y-62364500D02*
X157650000Y-61750000D01*
%TO.N,Board_13-Net-(U1-ENV_SCL)*%
X160875920Y-61750000D02*
X160650000Y-61750000D01*
X160925001Y-63789619D02*
X161142691Y-63789619D01*
X161650000Y-62524080D02*
X160875920Y-61750000D01*
X161142691Y-63789619D02*
X161650000Y-63282310D01*
X161650000Y-63282310D02*
X161650000Y-62524080D01*
%TO.N,Board_13-Net-(U1-ENV_SDA)*%
X162100000Y-63800000D02*
X162100000Y-62150000D01*
X159950850Y-63814177D02*
X160521292Y-64384619D01*
X160521292Y-64384619D02*
X161515381Y-64384619D01*
X161515381Y-64384619D02*
X162100000Y-63800000D01*
X162100000Y-62150000D02*
X160787500Y-60837500D01*
%TO.N,Board_14-+3.3V*%
X168984885Y-62785991D02*
X169942664Y-62785991D01*
X167909337Y-55371040D02*
X167909337Y-54770000D01*
X168150000Y-62364500D02*
X168150000Y-61750000D01*
X169950850Y-62794177D02*
X170900443Y-62794177D01*
X165150000Y-58500000D02*
X165150000Y-57652274D01*
X166650000Y-57750000D02*
X166400000Y-57500000D01*
X167737500Y-59837500D02*
X168150000Y-60250000D01*
X166012500Y-59837500D02*
X167737500Y-59837500D01*
X168150000Y-60250000D02*
X168150000Y-61750000D01*
X166650000Y-58425000D02*
X166650000Y-57750000D01*
X165398000Y-59837500D02*
X166012500Y-59837500D01*
X166400000Y-57500000D02*
X166150000Y-57500000D01*
X166150000Y-57500000D02*
X165150000Y-58500000D01*
X169942664Y-62785991D02*
X169950850Y-62794177D01*
X168571491Y-62785991D02*
X168150000Y-62364500D01*
X168984885Y-62785991D02*
X168571491Y-62785991D01*
X165150000Y-58500000D02*
X165150000Y-59589500D01*
X165150000Y-59589500D02*
X165398000Y-59837500D01*
X170900443Y-62794177D02*
X170925001Y-62769619D01*
X165150000Y-57652274D02*
X165415173Y-57387101D01*
X171379924Y-57410678D02*
X169948975Y-57410678D01*
X169948975Y-57410678D02*
X167909337Y-55371040D01*
%TO.N,Board_14-GND*%
X168150000Y-59613604D02*
X168150000Y-58425000D01*
X167352000Y-59337500D02*
X166012500Y-59337500D01*
X169150000Y-60750000D02*
X169150000Y-60613604D01*
X165862887Y-62806451D02*
X165862887Y-62037113D01*
X166012500Y-60837500D02*
X166874500Y-60837500D01*
X166909337Y-54770000D02*
X166909337Y-57069837D01*
X168150000Y-58310500D02*
X168150000Y-58425000D01*
X169150000Y-60750000D02*
X169562500Y-60337500D01*
X169150000Y-60613604D02*
X168150000Y-59613604D01*
X165862887Y-62037113D02*
X166150000Y-61750000D01*
X169562500Y-60337500D02*
X170787500Y-60337500D01*
X166150000Y-61750000D02*
X166150000Y-60975000D01*
X167650000Y-57810500D02*
X168150000Y-58310500D01*
X167650000Y-58425000D02*
X167650000Y-59039500D01*
X166909337Y-57069837D02*
X167650000Y-57810500D01*
X166150000Y-60975000D02*
X166012500Y-60837500D01*
X167650000Y-57810500D02*
X167650000Y-58425000D01*
X167650000Y-59039500D02*
X167352000Y-59337500D01*
X166874500Y-60837500D02*
X167150000Y-60562000D01*
%TO.N,Board_14-Net-(J5-Pin_3)*%
X168219998Y-54020000D02*
X168909337Y-54709339D01*
X165415173Y-54764164D02*
X166159337Y-54020000D01*
X170787500Y-59337500D02*
X169553239Y-59337500D01*
X166159337Y-54020000D02*
X168219998Y-54020000D01*
X168909337Y-54709339D02*
X168909337Y-54770000D01*
X165415173Y-56367101D02*
X165415173Y-54764164D01*
X169553239Y-59337500D02*
X169225867Y-59664872D01*
%TO.N,Board_14-Net-(J5-Pin_4)*%
X172024924Y-57875076D02*
X171475000Y-58425000D01*
X171024623Y-56035377D02*
X171379924Y-56390678D01*
X171475000Y-58425000D02*
X170650000Y-58425000D01*
X172024924Y-57035678D02*
X172024924Y-57875076D01*
X171024623Y-56035377D02*
X172024924Y-57035678D01*
X169909337Y-54920091D02*
X171024623Y-56035377D01*
X169909337Y-54770000D02*
X169909337Y-54920091D01*
%TO.N,Board_14-Net-(U1-BOOTN)*%
X165150000Y-63061173D02*
X165894818Y-63805991D01*
X165150000Y-60585500D02*
X165150000Y-63061173D01*
X165894818Y-63805991D02*
X168984885Y-63805991D01*
X166012500Y-60337500D02*
X165398000Y-60337500D01*
X165398000Y-60337500D02*
X165150000Y-60585500D01*
%TO.N,Board_14-Net-(U1-CAP)*%
X167208049Y-62806451D02*
X167650000Y-62364500D01*
X167650000Y-62364500D02*
X167650000Y-61750000D01*
X166822887Y-62806451D02*
X167208049Y-62806451D01*
%TO.N,Board_14-Net-(U1-ENV_SCL)*%
X170925001Y-63789619D02*
X171142691Y-63789619D01*
X171142691Y-63789619D02*
X171650000Y-63282310D01*
X171650000Y-63282310D02*
X171650000Y-62524080D01*
X171650000Y-62524080D02*
X170875920Y-61750000D01*
X170875920Y-61750000D02*
X170650000Y-61750000D01*
%TO.N,Board_14-Net-(U1-ENV_SDA)*%
X172100000Y-62150000D02*
X170787500Y-60837500D01*
X171515381Y-64384619D02*
X172100000Y-63800000D01*
X172100000Y-63800000D02*
X172100000Y-62150000D01*
X169950850Y-63814177D02*
X170521292Y-64384619D01*
X170521292Y-64384619D02*
X171515381Y-64384619D01*
%TO.N,Board_15-+3.3V*%
X130900443Y-76094177D02*
X130925001Y-76069619D01*
X125150000Y-72889500D02*
X125398000Y-73137500D01*
X128984885Y-76085991D02*
X128571491Y-76085991D01*
X126650000Y-71725000D02*
X126650000Y-71050000D01*
X126012500Y-73137500D02*
X127737500Y-73137500D01*
X128984885Y-76085991D02*
X129942664Y-76085991D01*
X129948975Y-70710678D02*
X127909337Y-68671040D01*
X126150000Y-70800000D02*
X125150000Y-71800000D01*
X129950850Y-76094177D02*
X130900443Y-76094177D01*
X129942664Y-76085991D02*
X129950850Y-76094177D01*
X126400000Y-70800000D02*
X126150000Y-70800000D01*
X127909337Y-68671040D02*
X127909337Y-68070000D01*
X127737500Y-73137500D02*
X128150000Y-73550000D01*
X128571491Y-76085991D02*
X128150000Y-75664500D01*
X125150000Y-70952274D02*
X125415173Y-70687101D01*
X125150000Y-71800000D02*
X125150000Y-72889500D01*
X131379924Y-70710678D02*
X129948975Y-70710678D01*
X126650000Y-71050000D02*
X126400000Y-70800000D01*
X125150000Y-71800000D02*
X125150000Y-70952274D01*
X125398000Y-73137500D02*
X126012500Y-73137500D01*
X128150000Y-75664500D02*
X128150000Y-75050000D01*
X128150000Y-73550000D02*
X128150000Y-75050000D01*
%TO.N,Board_15-GND*%
X127650000Y-71110500D02*
X127650000Y-71725000D01*
X128150000Y-71610500D02*
X128150000Y-71725000D01*
X127352000Y-72637500D02*
X126012500Y-72637500D01*
X127650000Y-71725000D02*
X127650000Y-72339500D01*
X126874500Y-74137500D02*
X127150000Y-73862000D01*
X126012500Y-74137500D02*
X126874500Y-74137500D01*
X126150000Y-74275000D02*
X126012500Y-74137500D01*
X129150000Y-74050000D02*
X129150000Y-73913604D01*
X126909337Y-70369837D02*
X127650000Y-71110500D01*
X126150000Y-75050000D02*
X126150000Y-74275000D01*
X129562500Y-73637500D02*
X130787500Y-73637500D01*
X127650000Y-71110500D02*
X128150000Y-71610500D01*
X125862887Y-75337113D02*
X126150000Y-75050000D01*
X129150000Y-73913604D02*
X128150000Y-72913604D01*
X126909337Y-68070000D02*
X126909337Y-70369837D01*
X128150000Y-72913604D02*
X128150000Y-71725000D01*
X127650000Y-72339500D02*
X127352000Y-72637500D01*
X125862887Y-76106451D02*
X125862887Y-75337113D01*
X129150000Y-74050000D02*
X129562500Y-73637500D01*
%TO.N,Board_15-Net-(J5-Pin_3)*%
X125415173Y-68064164D02*
X126159337Y-67320000D01*
X128219998Y-67320000D02*
X128909337Y-68009339D01*
X126159337Y-67320000D02*
X128219998Y-67320000D01*
X125415173Y-69667101D02*
X125415173Y-68064164D01*
X128909337Y-68009339D02*
X128909337Y-68070000D01*
X130787500Y-72637500D02*
X129553239Y-72637500D01*
X129553239Y-72637500D02*
X129225867Y-72964872D01*
%TO.N,Board_15-Net-(J5-Pin_4)*%
X131024623Y-69335377D02*
X132024924Y-70335678D01*
X132024924Y-71175076D02*
X131475000Y-71725000D01*
X129909337Y-68070000D02*
X129909337Y-68220091D01*
X131024623Y-69335377D02*
X131379924Y-69690678D01*
X129909337Y-68220091D02*
X131024623Y-69335377D01*
X132024924Y-70335678D02*
X132024924Y-71175076D01*
X131475000Y-71725000D02*
X130650000Y-71725000D01*
%TO.N,Board_15-Net-(U1-BOOTN)*%
X125398000Y-73637500D02*
X125150000Y-73885500D01*
X126012500Y-73637500D02*
X125398000Y-73637500D01*
X125150000Y-76361173D02*
X125894818Y-77105991D01*
X125894818Y-77105991D02*
X128984885Y-77105991D01*
X125150000Y-73885500D02*
X125150000Y-76361173D01*
%TO.N,Board_15-Net-(U1-CAP)*%
X127208049Y-76106451D02*
X127650000Y-75664500D01*
X126822887Y-76106451D02*
X127208049Y-76106451D01*
X127650000Y-75664500D02*
X127650000Y-75050000D01*
%TO.N,Board_15-Net-(U1-ENV_SCL)*%
X131650000Y-75824080D02*
X130875920Y-75050000D01*
X131142691Y-77089619D02*
X131650000Y-76582310D01*
X131650000Y-76582310D02*
X131650000Y-75824080D01*
X130875920Y-75050000D02*
X130650000Y-75050000D01*
X130925001Y-77089619D02*
X131142691Y-77089619D01*
%TO.N,Board_15-Net-(U1-ENV_SDA)*%
X130521292Y-77684619D02*
X131515381Y-77684619D01*
X132100000Y-75450000D02*
X130787500Y-74137500D01*
X129950850Y-77114177D02*
X130521292Y-77684619D01*
X131515381Y-77684619D02*
X132100000Y-77100000D01*
X132100000Y-77100000D02*
X132100000Y-75450000D01*
%TO.N,Board_16-+3.3V*%
X138984885Y-76085991D02*
X138571491Y-76085991D01*
X139942664Y-76085991D02*
X139950850Y-76094177D01*
X139950850Y-76094177D02*
X140900443Y-76094177D01*
X138150000Y-73550000D02*
X138150000Y-75050000D01*
X136150000Y-70800000D02*
X135150000Y-71800000D01*
X137737500Y-73137500D02*
X138150000Y-73550000D01*
X136012500Y-73137500D02*
X137737500Y-73137500D01*
X135150000Y-70952274D02*
X135415173Y-70687101D01*
X136400000Y-70800000D02*
X136150000Y-70800000D01*
X137909337Y-68671040D02*
X137909337Y-68070000D01*
X135398000Y-73137500D02*
X136012500Y-73137500D01*
X140900443Y-76094177D02*
X140925001Y-76069619D01*
X141379924Y-70710678D02*
X139948975Y-70710678D01*
X135150000Y-72889500D02*
X135398000Y-73137500D01*
X138571491Y-76085991D02*
X138150000Y-75664500D01*
X138984885Y-76085991D02*
X139942664Y-76085991D01*
X138150000Y-75664500D02*
X138150000Y-75050000D01*
X136650000Y-71050000D02*
X136400000Y-70800000D01*
X135150000Y-71800000D02*
X135150000Y-72889500D01*
X135150000Y-71800000D02*
X135150000Y-70952274D01*
X136650000Y-71725000D02*
X136650000Y-71050000D01*
X139948975Y-70710678D02*
X137909337Y-68671040D01*
%TO.N,Board_16-GND*%
X137650000Y-71110500D02*
X138150000Y-71610500D01*
X136150000Y-74275000D02*
X136012500Y-74137500D01*
X138150000Y-72913604D02*
X138150000Y-71725000D01*
X139150000Y-74050000D02*
X139150000Y-73913604D01*
X136150000Y-75050000D02*
X136150000Y-74275000D01*
X135862887Y-76106451D02*
X135862887Y-75337113D01*
X139150000Y-73913604D02*
X138150000Y-72913604D01*
X135862887Y-75337113D02*
X136150000Y-75050000D01*
X139562500Y-73637500D02*
X140787500Y-73637500D01*
X137650000Y-72339500D02*
X137352000Y-72637500D01*
X136909337Y-70369837D02*
X137650000Y-71110500D01*
X137352000Y-72637500D02*
X136012500Y-72637500D01*
X136874500Y-74137500D02*
X137150000Y-73862000D01*
X136909337Y-68070000D02*
X136909337Y-70369837D01*
X138150000Y-71610500D02*
X138150000Y-71725000D01*
X137650000Y-71110500D02*
X137650000Y-71725000D01*
X136012500Y-74137500D02*
X136874500Y-74137500D01*
X139150000Y-74050000D02*
X139562500Y-73637500D01*
X137650000Y-71725000D02*
X137650000Y-72339500D01*
%TO.N,Board_16-Net-(J5-Pin_3)*%
X135415173Y-69667101D02*
X135415173Y-68064164D01*
X136159337Y-67320000D02*
X138219998Y-67320000D01*
X135415173Y-68064164D02*
X136159337Y-67320000D01*
X140787500Y-72637500D02*
X139553239Y-72637500D01*
X138219998Y-67320000D02*
X138909337Y-68009339D01*
X138909337Y-68009339D02*
X138909337Y-68070000D01*
X139553239Y-72637500D02*
X139225867Y-72964872D01*
%TO.N,Board_16-Net-(J5-Pin_4)*%
X141024623Y-69335377D02*
X142024924Y-70335678D01*
X141024623Y-69335377D02*
X141379924Y-69690678D01*
X141475000Y-71725000D02*
X140650000Y-71725000D01*
X139909337Y-68070000D02*
X139909337Y-68220091D01*
X139909337Y-68220091D02*
X141024623Y-69335377D01*
X142024924Y-71175076D02*
X141475000Y-71725000D01*
X142024924Y-70335678D02*
X142024924Y-71175076D01*
%TO.N,Board_16-Net-(U1-BOOTN)*%
X135894818Y-77105991D02*
X138984885Y-77105991D01*
X135150000Y-73885500D02*
X135150000Y-76361173D01*
X136012500Y-73637500D02*
X135398000Y-73637500D01*
X135398000Y-73637500D02*
X135150000Y-73885500D01*
X135150000Y-76361173D02*
X135894818Y-77105991D01*
%TO.N,Board_16-Net-(U1-CAP)*%
X137650000Y-75664500D02*
X137650000Y-75050000D01*
X137208049Y-76106451D02*
X137650000Y-75664500D01*
X136822887Y-76106451D02*
X137208049Y-76106451D01*
%TO.N,Board_16-Net-(U1-ENV_SCL)*%
X141650000Y-76582310D02*
X141650000Y-75824080D01*
X140925001Y-77089619D02*
X141142691Y-77089619D01*
X141650000Y-75824080D02*
X140875920Y-75050000D01*
X141142691Y-77089619D02*
X141650000Y-76582310D01*
X140875920Y-75050000D02*
X140650000Y-75050000D01*
%TO.N,Board_16-Net-(U1-ENV_SDA)*%
X141515381Y-77684619D02*
X142100000Y-77100000D01*
X142100000Y-75450000D02*
X140787500Y-74137500D01*
X140521292Y-77684619D02*
X141515381Y-77684619D01*
X139950850Y-77114177D02*
X140521292Y-77684619D01*
X142100000Y-77100000D02*
X142100000Y-75450000D01*
%TO.N,Board_17-+3.3V*%
X146650000Y-71050000D02*
X146400000Y-70800000D01*
X145150000Y-70952274D02*
X145415173Y-70687101D01*
X148150000Y-75664500D02*
X148150000Y-75050000D01*
X149942664Y-76085991D02*
X149950850Y-76094177D01*
X146150000Y-70800000D02*
X145150000Y-71800000D01*
X148150000Y-73550000D02*
X148150000Y-75050000D01*
X145150000Y-71800000D02*
X145150000Y-72889500D01*
X145150000Y-71800000D02*
X145150000Y-70952274D01*
X147737500Y-73137500D02*
X148150000Y-73550000D01*
X146650000Y-71725000D02*
X146650000Y-71050000D01*
X145150000Y-72889500D02*
X145398000Y-73137500D01*
X146400000Y-70800000D02*
X146150000Y-70800000D01*
X147909337Y-68671040D02*
X147909337Y-68070000D01*
X148571491Y-76085991D02*
X148150000Y-75664500D01*
X149950850Y-76094177D02*
X150900443Y-76094177D01*
X145398000Y-73137500D02*
X146012500Y-73137500D01*
X149948975Y-70710678D02*
X147909337Y-68671040D01*
X148984885Y-76085991D02*
X149942664Y-76085991D01*
X151379924Y-70710678D02*
X149948975Y-70710678D01*
X150900443Y-76094177D02*
X150925001Y-76069619D01*
X146012500Y-73137500D02*
X147737500Y-73137500D01*
X148984885Y-76085991D02*
X148571491Y-76085991D01*
%TO.N,Board_17-GND*%
X146150000Y-75050000D02*
X146150000Y-74275000D01*
X146909337Y-68070000D02*
X146909337Y-70369837D01*
X148150000Y-71610500D02*
X148150000Y-71725000D01*
X147352000Y-72637500D02*
X146012500Y-72637500D01*
X147650000Y-71725000D02*
X147650000Y-72339500D01*
X146874500Y-74137500D02*
X147150000Y-73862000D01*
X147650000Y-71110500D02*
X147650000Y-71725000D01*
X149150000Y-74050000D02*
X149150000Y-73913604D01*
X145862887Y-75337113D02*
X146150000Y-75050000D01*
X147650000Y-72339500D02*
X147352000Y-72637500D01*
X145862887Y-76106451D02*
X145862887Y-75337113D01*
X149150000Y-74050000D02*
X149562500Y-73637500D01*
X147650000Y-71110500D02*
X148150000Y-71610500D01*
X149150000Y-73913604D02*
X148150000Y-72913604D01*
X148150000Y-72913604D02*
X148150000Y-71725000D01*
X146150000Y-74275000D02*
X146012500Y-74137500D01*
X149562500Y-73637500D02*
X150787500Y-73637500D01*
X146909337Y-70369837D02*
X147650000Y-71110500D01*
X146012500Y-74137500D02*
X146874500Y-74137500D01*
%TO.N,Board_17-Net-(J5-Pin_3)*%
X146159337Y-67320000D02*
X148219998Y-67320000D01*
X149553239Y-72637500D02*
X149225867Y-72964872D01*
X145415173Y-68064164D02*
X146159337Y-67320000D01*
X148219998Y-67320000D02*
X148909337Y-68009339D01*
X150787500Y-72637500D02*
X149553239Y-72637500D01*
X148909337Y-68009339D02*
X148909337Y-68070000D01*
X145415173Y-69667101D02*
X145415173Y-68064164D01*
%TO.N,Board_17-Net-(J5-Pin_4)*%
X149909337Y-68220091D02*
X151024623Y-69335377D01*
X151024623Y-69335377D02*
X152024924Y-70335678D01*
X151024623Y-69335377D02*
X151379924Y-69690678D01*
X151475000Y-71725000D02*
X150650000Y-71725000D01*
X152024924Y-71175076D02*
X151475000Y-71725000D01*
X149909337Y-68070000D02*
X149909337Y-68220091D01*
X152024924Y-70335678D02*
X152024924Y-71175076D01*
%TO.N,Board_17-Net-(U1-BOOTN)*%
X145150000Y-73885500D02*
X145150000Y-76361173D01*
X145150000Y-76361173D02*
X145894818Y-77105991D01*
X146012500Y-73637500D02*
X145398000Y-73637500D01*
X145894818Y-77105991D02*
X148984885Y-77105991D01*
X145398000Y-73637500D02*
X145150000Y-73885500D01*
%TO.N,Board_17-Net-(U1-CAP)*%
X146822887Y-76106451D02*
X147208049Y-76106451D01*
X147208049Y-76106451D02*
X147650000Y-75664500D01*
X147650000Y-75664500D02*
X147650000Y-75050000D01*
%TO.N,Board_17-Net-(U1-ENV_SCL)*%
X150925001Y-77089619D02*
X151142691Y-77089619D01*
X151650000Y-75824080D02*
X150875920Y-75050000D01*
X151142691Y-77089619D02*
X151650000Y-76582310D01*
X151650000Y-76582310D02*
X151650000Y-75824080D01*
X150875920Y-75050000D02*
X150650000Y-75050000D01*
%TO.N,Board_17-Net-(U1-ENV_SDA)*%
X152100000Y-77100000D02*
X152100000Y-75450000D01*
X149950850Y-77114177D02*
X150521292Y-77684619D01*
X150521292Y-77684619D02*
X151515381Y-77684619D01*
X151515381Y-77684619D02*
X152100000Y-77100000D01*
X152100000Y-75450000D02*
X150787500Y-74137500D01*
%TO.N,Board_18-+3.3V*%
X158150000Y-73550000D02*
X158150000Y-75050000D01*
X155150000Y-71800000D02*
X155150000Y-72889500D01*
X155150000Y-71800000D02*
X155150000Y-70952274D01*
X160900443Y-76094177D02*
X160925001Y-76069619D01*
X156150000Y-70800000D02*
X155150000Y-71800000D01*
X155150000Y-72889500D02*
X155398000Y-73137500D01*
X158984885Y-76085991D02*
X159942664Y-76085991D01*
X158984885Y-76085991D02*
X158571491Y-76085991D01*
X159950850Y-76094177D02*
X160900443Y-76094177D01*
X156400000Y-70800000D02*
X156150000Y-70800000D01*
X155150000Y-70952274D02*
X155415173Y-70687101D01*
X158571491Y-76085991D02*
X158150000Y-75664500D01*
X156650000Y-71050000D02*
X156400000Y-70800000D01*
X157909337Y-68671040D02*
X157909337Y-68070000D01*
X159948975Y-70710678D02*
X157909337Y-68671040D01*
X156012500Y-73137500D02*
X157737500Y-73137500D01*
X161379924Y-70710678D02*
X159948975Y-70710678D01*
X157737500Y-73137500D02*
X158150000Y-73550000D01*
X156650000Y-71725000D02*
X156650000Y-71050000D01*
X155398000Y-73137500D02*
X156012500Y-73137500D01*
X158150000Y-75664500D02*
X158150000Y-75050000D01*
X159942664Y-76085991D02*
X159950850Y-76094177D01*
%TO.N,Board_18-GND*%
X158150000Y-71610500D02*
X158150000Y-71725000D01*
X156012500Y-74137500D02*
X156874500Y-74137500D01*
X158150000Y-72913604D02*
X158150000Y-71725000D01*
X156150000Y-74275000D02*
X156012500Y-74137500D01*
X157650000Y-72339500D02*
X157352000Y-72637500D01*
X157650000Y-71110500D02*
X158150000Y-71610500D01*
X156909337Y-68070000D02*
X156909337Y-70369837D01*
X156909337Y-70369837D02*
X157650000Y-71110500D01*
X157650000Y-71725000D02*
X157650000Y-72339500D01*
X159562500Y-73637500D02*
X160787500Y-73637500D01*
X157352000Y-72637500D02*
X156012500Y-72637500D01*
X155862887Y-76106451D02*
X155862887Y-75337113D01*
X156150000Y-75050000D02*
X156150000Y-74275000D01*
X156874500Y-74137500D02*
X157150000Y-73862000D01*
X157650000Y-71110500D02*
X157650000Y-71725000D01*
X155862887Y-75337113D02*
X156150000Y-75050000D01*
X159150000Y-74050000D02*
X159562500Y-73637500D01*
X159150000Y-74050000D02*
X159150000Y-73913604D01*
X159150000Y-73913604D02*
X158150000Y-72913604D01*
%TO.N,Board_18-Net-(J5-Pin_3)*%
X160787500Y-72637500D02*
X159553239Y-72637500D01*
X155415173Y-68064164D02*
X156159337Y-67320000D01*
X159553239Y-72637500D02*
X159225867Y-72964872D01*
X158219998Y-67320000D02*
X158909337Y-68009339D01*
X155415173Y-69667101D02*
X155415173Y-68064164D01*
X158909337Y-68009339D02*
X158909337Y-68070000D01*
X156159337Y-67320000D02*
X158219998Y-67320000D01*
%TO.N,Board_18-Net-(J5-Pin_4)*%
X162024924Y-71175076D02*
X161475000Y-71725000D01*
X159909337Y-68070000D02*
X159909337Y-68220091D01*
X161024623Y-69335377D02*
X162024924Y-70335678D01*
X162024924Y-70335678D02*
X162024924Y-71175076D01*
X161024623Y-69335377D02*
X161379924Y-69690678D01*
X159909337Y-68220091D02*
X161024623Y-69335377D01*
X161475000Y-71725000D02*
X160650000Y-71725000D01*
%TO.N,Board_18-Net-(U1-BOOTN)*%
X155150000Y-73885500D02*
X155150000Y-76361173D01*
X155894818Y-77105991D02*
X158984885Y-77105991D01*
X155398000Y-73637500D02*
X155150000Y-73885500D01*
X155150000Y-76361173D02*
X155894818Y-77105991D01*
X156012500Y-73637500D02*
X155398000Y-73637500D01*
%TO.N,Board_18-Net-(U1-CAP)*%
X157208049Y-76106451D02*
X157650000Y-75664500D01*
X157650000Y-75664500D02*
X157650000Y-75050000D01*
X156822887Y-76106451D02*
X157208049Y-76106451D01*
%TO.N,Board_18-Net-(U1-ENV_SCL)*%
X161650000Y-75824080D02*
X160875920Y-75050000D01*
X161650000Y-76582310D02*
X161650000Y-75824080D01*
X160925001Y-77089619D02*
X161142691Y-77089619D01*
X160875920Y-75050000D02*
X160650000Y-75050000D01*
X161142691Y-77089619D02*
X161650000Y-76582310D01*
%TO.N,Board_18-Net-(U1-ENV_SDA)*%
X160521292Y-77684619D02*
X161515381Y-77684619D01*
X161515381Y-77684619D02*
X162100000Y-77100000D01*
X159950850Y-77114177D02*
X160521292Y-77684619D01*
X162100000Y-77100000D02*
X162100000Y-75450000D01*
X162100000Y-75450000D02*
X160787500Y-74137500D01*
%TO.N,Board_19-+3.3V*%
X166650000Y-71050000D02*
X166400000Y-70800000D01*
X166012500Y-73137500D02*
X167737500Y-73137500D01*
X169948975Y-70710678D02*
X167909337Y-68671040D01*
X168984885Y-76085991D02*
X168571491Y-76085991D01*
X166150000Y-70800000D02*
X165150000Y-71800000D01*
X168984885Y-76085991D02*
X169942664Y-76085991D01*
X166650000Y-71725000D02*
X166650000Y-71050000D01*
X165150000Y-72889500D02*
X165398000Y-73137500D01*
X171379924Y-70710678D02*
X169948975Y-70710678D01*
X165150000Y-71800000D02*
X165150000Y-72889500D01*
X167909337Y-68671040D02*
X167909337Y-68070000D01*
X169950850Y-76094177D02*
X170900443Y-76094177D01*
X168150000Y-73550000D02*
X168150000Y-75050000D01*
X167737500Y-73137500D02*
X168150000Y-73550000D01*
X169942664Y-76085991D02*
X169950850Y-76094177D01*
X170900443Y-76094177D02*
X170925001Y-76069619D01*
X165398000Y-73137500D02*
X166012500Y-73137500D01*
X168150000Y-75664500D02*
X168150000Y-75050000D01*
X165150000Y-70952274D02*
X165415173Y-70687101D01*
X166400000Y-70800000D02*
X166150000Y-70800000D01*
X168571491Y-76085991D02*
X168150000Y-75664500D01*
X165150000Y-71800000D02*
X165150000Y-70952274D01*
%TO.N,Board_19-GND*%
X169562500Y-73637500D02*
X170787500Y-73637500D01*
X169150000Y-74050000D02*
X169150000Y-73913604D01*
X166012500Y-74137500D02*
X166874500Y-74137500D01*
X166150000Y-74275000D02*
X166012500Y-74137500D01*
X165862887Y-76106451D02*
X165862887Y-75337113D01*
X168150000Y-72913604D02*
X168150000Y-71725000D01*
X167352000Y-72637500D02*
X166012500Y-72637500D01*
X166874500Y-74137500D02*
X167150000Y-73862000D01*
X166909337Y-70369837D02*
X167650000Y-71110500D01*
X169150000Y-73913604D02*
X168150000Y-72913604D01*
X166150000Y-75050000D02*
X166150000Y-74275000D01*
X167650000Y-72339500D02*
X167352000Y-72637500D01*
X167650000Y-71725000D02*
X167650000Y-72339500D01*
X169150000Y-74050000D02*
X169562500Y-73637500D01*
X165862887Y-75337113D02*
X166150000Y-75050000D01*
X166909337Y-68070000D02*
X166909337Y-70369837D01*
X168150000Y-71610500D02*
X168150000Y-71725000D01*
X167650000Y-71110500D02*
X167650000Y-71725000D01*
X167650000Y-71110500D02*
X168150000Y-71610500D01*
%TO.N,Board_19-Net-(J5-Pin_3)*%
X168219998Y-67320000D02*
X168909337Y-68009339D01*
X169553239Y-72637500D02*
X169225867Y-72964872D01*
X165415173Y-68064164D02*
X166159337Y-67320000D01*
X166159337Y-67320000D02*
X168219998Y-67320000D01*
X168909337Y-68009339D02*
X168909337Y-68070000D01*
X165415173Y-69667101D02*
X165415173Y-68064164D01*
X170787500Y-72637500D02*
X169553239Y-72637500D01*
%TO.N,Board_19-Net-(J5-Pin_4)*%
X169909337Y-68220091D02*
X171024623Y-69335377D01*
X171024623Y-69335377D02*
X172024924Y-70335678D01*
X171024623Y-69335377D02*
X171379924Y-69690678D01*
X172024924Y-71175076D02*
X171475000Y-71725000D01*
X171475000Y-71725000D02*
X170650000Y-71725000D01*
X172024924Y-70335678D02*
X172024924Y-71175076D01*
X169909337Y-68070000D02*
X169909337Y-68220091D01*
%TO.N,Board_19-Net-(U1-BOOTN)*%
X165150000Y-73885500D02*
X165150000Y-76361173D01*
X165150000Y-76361173D02*
X165894818Y-77105991D01*
X165894818Y-77105991D02*
X168984885Y-77105991D01*
X165398000Y-73637500D02*
X165150000Y-73885500D01*
X166012500Y-73637500D02*
X165398000Y-73637500D01*
%TO.N,Board_19-Net-(U1-CAP)*%
X166822887Y-76106451D02*
X167208049Y-76106451D01*
X167650000Y-75664500D02*
X167650000Y-75050000D01*
X167208049Y-76106451D02*
X167650000Y-75664500D01*
%TO.N,Board_19-Net-(U1-ENV_SCL)*%
X171142691Y-77089619D02*
X171650000Y-76582310D01*
X171650000Y-75824080D02*
X170875920Y-75050000D01*
X170875920Y-75050000D02*
X170650000Y-75050000D01*
X171650000Y-76582310D02*
X171650000Y-75824080D01*
X170925001Y-77089619D02*
X171142691Y-77089619D01*
%TO.N,Board_19-Net-(U1-ENV_SDA)*%
X170521292Y-77684619D02*
X171515381Y-77684619D01*
X171515381Y-77684619D02*
X172100000Y-77100000D01*
X172100000Y-77100000D02*
X172100000Y-75450000D01*
X172100000Y-75450000D02*
X170787500Y-74137500D01*
X169950850Y-77114177D02*
X170521292Y-77684619D01*
%TO.N,Board_20-+3.3V*%
X127737500Y-86437500D02*
X128150000Y-86850000D01*
X128984885Y-89385991D02*
X129942664Y-89385991D01*
X129948975Y-84010678D02*
X127909337Y-81971040D01*
X130900443Y-89394177D02*
X130925001Y-89369619D01*
X126150000Y-84100000D02*
X125150000Y-85100000D01*
X126012500Y-86437500D02*
X127737500Y-86437500D01*
X128150000Y-86850000D02*
X128150000Y-88350000D01*
X129942664Y-89385991D02*
X129950850Y-89394177D01*
X129950850Y-89394177D02*
X130900443Y-89394177D01*
X128571491Y-89385991D02*
X128150000Y-88964500D01*
X126400000Y-84100000D02*
X126150000Y-84100000D01*
X125150000Y-84252274D02*
X125415173Y-83987101D01*
X125398000Y-86437500D02*
X126012500Y-86437500D01*
X126650000Y-84350000D02*
X126400000Y-84100000D01*
X125150000Y-85100000D02*
X125150000Y-84252274D01*
X126650000Y-85025000D02*
X126650000Y-84350000D01*
X127909337Y-81971040D02*
X127909337Y-81370000D01*
X125150000Y-85100000D02*
X125150000Y-86189500D01*
X128984885Y-89385991D02*
X128571491Y-89385991D01*
X128150000Y-88964500D02*
X128150000Y-88350000D01*
X131379924Y-84010678D02*
X129948975Y-84010678D01*
X125150000Y-86189500D02*
X125398000Y-86437500D01*
%TO.N,Board_20-GND*%
X125862887Y-89406451D02*
X125862887Y-88637113D01*
X128150000Y-86213604D02*
X128150000Y-85025000D01*
X126909337Y-81370000D02*
X126909337Y-83669837D01*
X126012500Y-87437500D02*
X126874500Y-87437500D01*
X127650000Y-84410500D02*
X127650000Y-85025000D01*
X126874500Y-87437500D02*
X127150000Y-87162000D01*
X129562500Y-86937500D02*
X130787500Y-86937500D01*
X126150000Y-87575000D02*
X126012500Y-87437500D01*
X129150000Y-87350000D02*
X129562500Y-86937500D01*
X127352000Y-85937500D02*
X126012500Y-85937500D01*
X129150000Y-87213604D02*
X128150000Y-86213604D01*
X128150000Y-84910500D02*
X128150000Y-85025000D01*
X125862887Y-88637113D02*
X126150000Y-88350000D01*
X127650000Y-84410500D02*
X128150000Y-84910500D01*
X127650000Y-85639500D02*
X127352000Y-85937500D01*
X126150000Y-88350000D02*
X126150000Y-87575000D01*
X126909337Y-83669837D02*
X127650000Y-84410500D01*
X129150000Y-87350000D02*
X129150000Y-87213604D01*
X127650000Y-85025000D02*
X127650000Y-85639500D01*
%TO.N,Board_20-Net-(J5-Pin_3)*%
X129553239Y-85937500D02*
X129225867Y-86264872D01*
X125415173Y-81364164D02*
X126159337Y-80620000D01*
X130787500Y-85937500D02*
X129553239Y-85937500D01*
X125415173Y-82967101D02*
X125415173Y-81364164D01*
X126159337Y-80620000D02*
X128219998Y-80620000D01*
X128219998Y-80620000D02*
X128909337Y-81309339D01*
X128909337Y-81309339D02*
X128909337Y-81370000D01*
%TO.N,Board_20-Net-(J5-Pin_4)*%
X131024623Y-82635377D02*
X132024924Y-83635678D01*
X132024924Y-83635678D02*
X132024924Y-84475076D01*
X129909337Y-81520091D02*
X131024623Y-82635377D01*
X129909337Y-81370000D02*
X129909337Y-81520091D01*
X131475000Y-85025000D02*
X130650000Y-85025000D01*
X131024623Y-82635377D02*
X131379924Y-82990678D01*
X132024924Y-84475076D02*
X131475000Y-85025000D01*
%TO.N,Board_20-Net-(U1-BOOTN)*%
X125150000Y-89661173D02*
X125894818Y-90405991D01*
X126012500Y-86937500D02*
X125398000Y-86937500D01*
X125150000Y-87185500D02*
X125150000Y-89661173D01*
X125398000Y-86937500D02*
X125150000Y-87185500D01*
X125894818Y-90405991D02*
X128984885Y-90405991D01*
%TO.N,Board_20-Net-(U1-CAP)*%
X127650000Y-88964500D02*
X127650000Y-88350000D01*
X126822887Y-89406451D02*
X127208049Y-89406451D01*
X127208049Y-89406451D02*
X127650000Y-88964500D01*
%TO.N,Board_20-Net-(U1-ENV_SCL)*%
X131650000Y-89124080D02*
X130875920Y-88350000D01*
X131142691Y-90389619D02*
X131650000Y-89882310D01*
X130875920Y-88350000D02*
X130650000Y-88350000D01*
X131650000Y-89882310D02*
X131650000Y-89124080D01*
X130925001Y-90389619D02*
X131142691Y-90389619D01*
%TO.N,Board_20-Net-(U1-ENV_SDA)*%
X132100000Y-90400000D02*
X132100000Y-88750000D01*
X132100000Y-88750000D02*
X130787500Y-87437500D01*
X129950850Y-90414177D02*
X130521292Y-90984619D01*
X131515381Y-90984619D02*
X132100000Y-90400000D01*
X130521292Y-90984619D02*
X131515381Y-90984619D01*
%TO.N,Board_21-+3.3V*%
X136400000Y-84100000D02*
X136150000Y-84100000D01*
X141379924Y-84010678D02*
X139948975Y-84010678D01*
X137737500Y-86437500D02*
X138150000Y-86850000D01*
X135398000Y-86437500D02*
X136012500Y-86437500D01*
X139942664Y-89385991D02*
X139950850Y-89394177D01*
X135150000Y-85100000D02*
X135150000Y-86189500D01*
X136012500Y-86437500D02*
X137737500Y-86437500D01*
X138984885Y-89385991D02*
X138571491Y-89385991D01*
X135150000Y-84252274D02*
X135415173Y-83987101D01*
X140900443Y-89394177D02*
X140925001Y-89369619D01*
X136650000Y-84350000D02*
X136400000Y-84100000D01*
X138150000Y-86850000D02*
X138150000Y-88350000D01*
X138150000Y-88964500D02*
X138150000Y-88350000D01*
X137909337Y-81971040D02*
X137909337Y-81370000D01*
X139950850Y-89394177D02*
X140900443Y-89394177D01*
X139948975Y-84010678D02*
X137909337Y-81971040D01*
X136650000Y-85025000D02*
X136650000Y-84350000D01*
X135150000Y-85100000D02*
X135150000Y-84252274D01*
X138571491Y-89385991D02*
X138150000Y-88964500D01*
X138984885Y-89385991D02*
X139942664Y-89385991D01*
X136150000Y-84100000D02*
X135150000Y-85100000D01*
X135150000Y-86189500D02*
X135398000Y-86437500D01*
%TO.N,Board_21-GND*%
X136150000Y-88350000D02*
X136150000Y-87575000D01*
X139150000Y-87350000D02*
X139562500Y-86937500D01*
X138150000Y-86213604D02*
X138150000Y-85025000D01*
X135862887Y-89406451D02*
X135862887Y-88637113D01*
X136909337Y-81370000D02*
X136909337Y-83669837D01*
X137650000Y-84410500D02*
X137650000Y-85025000D01*
X135862887Y-88637113D02*
X136150000Y-88350000D01*
X137650000Y-85025000D02*
X137650000Y-85639500D01*
X136909337Y-83669837D02*
X137650000Y-84410500D01*
X139562500Y-86937500D02*
X140787500Y-86937500D01*
X136012500Y-87437500D02*
X136874500Y-87437500D01*
X138150000Y-84910500D02*
X138150000Y-85025000D01*
X137352000Y-85937500D02*
X136012500Y-85937500D01*
X136150000Y-87575000D02*
X136012500Y-87437500D01*
X137650000Y-84410500D02*
X138150000Y-84910500D01*
X136874500Y-87437500D02*
X137150000Y-87162000D01*
X139150000Y-87213604D02*
X138150000Y-86213604D01*
X137650000Y-85639500D02*
X137352000Y-85937500D01*
X139150000Y-87350000D02*
X139150000Y-87213604D01*
%TO.N,Board_21-Net-(J5-Pin_3)*%
X138909337Y-81309339D02*
X138909337Y-81370000D01*
X135415173Y-82967101D02*
X135415173Y-81364164D01*
X140787500Y-85937500D02*
X139553239Y-85937500D01*
X136159337Y-80620000D02*
X138219998Y-80620000D01*
X139553239Y-85937500D02*
X139225867Y-86264872D01*
X138219998Y-80620000D02*
X138909337Y-81309339D01*
X135415173Y-81364164D02*
X136159337Y-80620000D01*
%TO.N,Board_21-Net-(J5-Pin_4)*%
X141024623Y-82635377D02*
X141379924Y-82990678D01*
X139909337Y-81370000D02*
X139909337Y-81520091D01*
X142024924Y-83635678D02*
X142024924Y-84475076D01*
X142024924Y-84475076D02*
X141475000Y-85025000D01*
X141475000Y-85025000D02*
X140650000Y-85025000D01*
X139909337Y-81520091D02*
X141024623Y-82635377D01*
X141024623Y-82635377D02*
X142024924Y-83635678D01*
%TO.N,Board_21-Net-(U1-BOOTN)*%
X135150000Y-89661173D02*
X135894818Y-90405991D01*
X136012500Y-86937500D02*
X135398000Y-86937500D01*
X135398000Y-86937500D02*
X135150000Y-87185500D01*
X135894818Y-90405991D02*
X138984885Y-90405991D01*
X135150000Y-87185500D02*
X135150000Y-89661173D01*
%TO.N,Board_21-Net-(U1-CAP)*%
X137208049Y-89406451D02*
X137650000Y-88964500D01*
X136822887Y-89406451D02*
X137208049Y-89406451D01*
X137650000Y-88964500D02*
X137650000Y-88350000D01*
%TO.N,Board_21-Net-(U1-ENV_SCL)*%
X141650000Y-89124080D02*
X140875920Y-88350000D01*
X140875920Y-88350000D02*
X140650000Y-88350000D01*
X140925001Y-90389619D02*
X141142691Y-90389619D01*
X141650000Y-89882310D02*
X141650000Y-89124080D01*
X141142691Y-90389619D02*
X141650000Y-89882310D01*
%TO.N,Board_21-Net-(U1-ENV_SDA)*%
X141515381Y-90984619D02*
X142100000Y-90400000D01*
X139950850Y-90414177D02*
X140521292Y-90984619D01*
X142100000Y-88750000D02*
X140787500Y-87437500D01*
X142100000Y-90400000D02*
X142100000Y-88750000D01*
X140521292Y-90984619D02*
X141515381Y-90984619D01*
%TO.N,Board_22-+3.3V*%
X149942664Y-89385991D02*
X149950850Y-89394177D01*
X149948975Y-84010678D02*
X147909337Y-81971040D01*
X147737500Y-86437500D02*
X148150000Y-86850000D01*
X150900443Y-89394177D02*
X150925001Y-89369619D01*
X145150000Y-85100000D02*
X145150000Y-86189500D01*
X146650000Y-84350000D02*
X146400000Y-84100000D01*
X145150000Y-84252274D02*
X145415173Y-83987101D01*
X145150000Y-86189500D02*
X145398000Y-86437500D01*
X148150000Y-88964500D02*
X148150000Y-88350000D01*
X151379924Y-84010678D02*
X149948975Y-84010678D01*
X149950850Y-89394177D02*
X150900443Y-89394177D01*
X146012500Y-86437500D02*
X147737500Y-86437500D01*
X148984885Y-89385991D02*
X148571491Y-89385991D01*
X146400000Y-84100000D02*
X146150000Y-84100000D01*
X148150000Y-86850000D02*
X148150000Y-88350000D01*
X148984885Y-89385991D02*
X149942664Y-89385991D01*
X145150000Y-85100000D02*
X145150000Y-84252274D01*
X147909337Y-81971040D02*
X147909337Y-81370000D01*
X145398000Y-86437500D02*
X146012500Y-86437500D01*
X146150000Y-84100000D02*
X145150000Y-85100000D01*
X148571491Y-89385991D02*
X148150000Y-88964500D01*
X146650000Y-85025000D02*
X146650000Y-84350000D01*
%TO.N,Board_22-GND*%
X149150000Y-87350000D02*
X149150000Y-87213604D01*
X146874500Y-87437500D02*
X147150000Y-87162000D01*
X146909337Y-83669837D02*
X147650000Y-84410500D01*
X147650000Y-85025000D02*
X147650000Y-85639500D01*
X148150000Y-84910500D02*
X148150000Y-85025000D01*
X146909337Y-81370000D02*
X146909337Y-83669837D01*
X147650000Y-85639500D02*
X147352000Y-85937500D01*
X145862887Y-88637113D02*
X146150000Y-88350000D01*
X147650000Y-84410500D02*
X148150000Y-84910500D01*
X145862887Y-89406451D02*
X145862887Y-88637113D01*
X149562500Y-86937500D02*
X150787500Y-86937500D01*
X149150000Y-87350000D02*
X149562500Y-86937500D01*
X146012500Y-87437500D02*
X146874500Y-87437500D01*
X146150000Y-88350000D02*
X146150000Y-87575000D01*
X147352000Y-85937500D02*
X146012500Y-85937500D01*
X147650000Y-84410500D02*
X147650000Y-85025000D01*
X148150000Y-86213604D02*
X148150000Y-85025000D01*
X149150000Y-87213604D02*
X148150000Y-86213604D01*
X146150000Y-87575000D02*
X146012500Y-87437500D01*
%TO.N,Board_22-Net-(J5-Pin_3)*%
X150787500Y-85937500D02*
X149553239Y-85937500D01*
X148219998Y-80620000D02*
X148909337Y-81309339D01*
X148909337Y-81309339D02*
X148909337Y-81370000D01*
X146159337Y-80620000D02*
X148219998Y-80620000D01*
X145415173Y-81364164D02*
X146159337Y-80620000D01*
X149553239Y-85937500D02*
X149225867Y-86264872D01*
X145415173Y-82967101D02*
X145415173Y-81364164D01*
%TO.N,Board_22-Net-(J5-Pin_4)*%
X152024924Y-84475076D02*
X151475000Y-85025000D01*
X149909337Y-81370000D02*
X149909337Y-81520091D01*
X151024623Y-82635377D02*
X152024924Y-83635678D01*
X152024924Y-83635678D02*
X152024924Y-84475076D01*
X151475000Y-85025000D02*
X150650000Y-85025000D01*
X151024623Y-82635377D02*
X151379924Y-82990678D01*
X149909337Y-81520091D02*
X151024623Y-82635377D01*
%TO.N,Board_22-Net-(U1-BOOTN)*%
X145398000Y-86937500D02*
X145150000Y-87185500D01*
X146012500Y-86937500D02*
X145398000Y-86937500D01*
X145150000Y-89661173D02*
X145894818Y-90405991D01*
X145894818Y-90405991D02*
X148984885Y-90405991D01*
X145150000Y-87185500D02*
X145150000Y-89661173D01*
%TO.N,Board_22-Net-(U1-CAP)*%
X146822887Y-89406451D02*
X147208049Y-89406451D01*
X147650000Y-88964500D02*
X147650000Y-88350000D01*
X147208049Y-89406451D02*
X147650000Y-88964500D01*
%TO.N,Board_22-Net-(U1-ENV_SCL)*%
X151650000Y-89124080D02*
X150875920Y-88350000D01*
X151142691Y-90389619D02*
X151650000Y-89882310D01*
X151650000Y-89882310D02*
X151650000Y-89124080D01*
X150925001Y-90389619D02*
X151142691Y-90389619D01*
X150875920Y-88350000D02*
X150650000Y-88350000D01*
%TO.N,Board_22-Net-(U1-ENV_SDA)*%
X152100000Y-90400000D02*
X152100000Y-88750000D01*
X149950850Y-90414177D02*
X150521292Y-90984619D01*
X150521292Y-90984619D02*
X151515381Y-90984619D01*
X152100000Y-88750000D02*
X150787500Y-87437500D01*
X151515381Y-90984619D02*
X152100000Y-90400000D01*
%TO.N,Board_23-+3.3V*%
X160900443Y-89394177D02*
X160925001Y-89369619D01*
X157909337Y-81971040D02*
X157909337Y-81370000D01*
X155150000Y-85100000D02*
X155150000Y-84252274D01*
X156650000Y-84350000D02*
X156400000Y-84100000D01*
X158150000Y-86850000D02*
X158150000Y-88350000D01*
X161379924Y-84010678D02*
X159948975Y-84010678D01*
X159948975Y-84010678D02*
X157909337Y-81971040D01*
X159942664Y-89385991D02*
X159950850Y-89394177D01*
X156400000Y-84100000D02*
X156150000Y-84100000D01*
X158984885Y-89385991D02*
X159942664Y-89385991D01*
X158150000Y-88964500D02*
X158150000Y-88350000D01*
X155150000Y-86189500D02*
X155398000Y-86437500D01*
X156150000Y-84100000D02*
X155150000Y-85100000D01*
X157737500Y-86437500D02*
X158150000Y-86850000D01*
X155150000Y-85100000D02*
X155150000Y-86189500D01*
X158984885Y-89385991D02*
X158571491Y-89385991D01*
X159950850Y-89394177D02*
X160900443Y-89394177D01*
X158571491Y-89385991D02*
X158150000Y-88964500D01*
X155150000Y-84252274D02*
X155415173Y-83987101D01*
X155398000Y-86437500D02*
X156012500Y-86437500D01*
X156650000Y-85025000D02*
X156650000Y-84350000D01*
X156012500Y-86437500D02*
X157737500Y-86437500D01*
%TO.N,Board_23-GND*%
X156874500Y-87437500D02*
X157150000Y-87162000D01*
X156909337Y-83669837D02*
X157650000Y-84410500D01*
X159562500Y-86937500D02*
X160787500Y-86937500D01*
X157650000Y-84410500D02*
X158150000Y-84910500D01*
X157650000Y-84410500D02*
X157650000Y-85025000D01*
X157650000Y-85025000D02*
X157650000Y-85639500D01*
X157650000Y-85639500D02*
X157352000Y-85937500D01*
X159150000Y-87350000D02*
X159150000Y-87213604D01*
X157352000Y-85937500D02*
X156012500Y-85937500D01*
X159150000Y-87213604D02*
X158150000Y-86213604D01*
X159150000Y-87350000D02*
X159562500Y-86937500D01*
X155862887Y-89406451D02*
X155862887Y-88637113D01*
X158150000Y-86213604D02*
X158150000Y-85025000D01*
X155862887Y-88637113D02*
X156150000Y-88350000D01*
X156909337Y-81370000D02*
X156909337Y-83669837D01*
X156150000Y-87575000D02*
X156012500Y-87437500D01*
X156150000Y-88350000D02*
X156150000Y-87575000D01*
X158150000Y-84910500D02*
X158150000Y-85025000D01*
X156012500Y-87437500D02*
X156874500Y-87437500D01*
%TO.N,Board_23-Net-(J5-Pin_3)*%
X155415173Y-82967101D02*
X155415173Y-81364164D01*
X159553239Y-85937500D02*
X159225867Y-86264872D01*
X158219998Y-80620000D02*
X158909337Y-81309339D01*
X156159337Y-80620000D02*
X158219998Y-80620000D01*
X158909337Y-81309339D02*
X158909337Y-81370000D01*
X160787500Y-85937500D02*
X159553239Y-85937500D01*
X155415173Y-81364164D02*
X156159337Y-80620000D01*
%TO.N,Board_23-Net-(J5-Pin_4)*%
X162024924Y-84475076D02*
X161475000Y-85025000D01*
X161024623Y-82635377D02*
X161379924Y-82990678D01*
X161475000Y-85025000D02*
X160650000Y-85025000D01*
X159909337Y-81520091D02*
X161024623Y-82635377D01*
X159909337Y-81370000D02*
X159909337Y-81520091D01*
X162024924Y-83635678D02*
X162024924Y-84475076D01*
X161024623Y-82635377D02*
X162024924Y-83635678D01*
%TO.N,Board_23-Net-(U1-BOOTN)*%
X155150000Y-87185500D02*
X155150000Y-89661173D01*
X156012500Y-86937500D02*
X155398000Y-86937500D01*
X155894818Y-90405991D02*
X158984885Y-90405991D01*
X155150000Y-89661173D02*
X155894818Y-90405991D01*
X155398000Y-86937500D02*
X155150000Y-87185500D01*
%TO.N,Board_23-Net-(U1-CAP)*%
X157208049Y-89406451D02*
X157650000Y-88964500D01*
X156822887Y-89406451D02*
X157208049Y-89406451D01*
X157650000Y-88964500D02*
X157650000Y-88350000D01*
%TO.N,Board_23-Net-(U1-ENV_SCL)*%
X160875920Y-88350000D02*
X160650000Y-88350000D01*
X161142691Y-90389619D02*
X161650000Y-89882310D01*
X161650000Y-89882310D02*
X161650000Y-89124080D01*
X160925001Y-90389619D02*
X161142691Y-90389619D01*
X161650000Y-89124080D02*
X160875920Y-88350000D01*
%TO.N,Board_23-Net-(U1-ENV_SDA)*%
X162100000Y-90400000D02*
X162100000Y-88750000D01*
X161515381Y-90984619D02*
X162100000Y-90400000D01*
X160521292Y-90984619D02*
X161515381Y-90984619D01*
X162100000Y-88750000D02*
X160787500Y-87437500D01*
X159950850Y-90414177D02*
X160521292Y-90984619D01*
%TO.N,Board_24-+3.3V*%
X169950850Y-89394177D02*
X170900443Y-89394177D01*
X170900443Y-89394177D02*
X170925001Y-89369619D01*
X169948975Y-84010678D02*
X167909337Y-81971040D01*
X168984885Y-89385991D02*
X169942664Y-89385991D01*
X168571491Y-89385991D02*
X168150000Y-88964500D01*
X171379924Y-84010678D02*
X169948975Y-84010678D01*
X168150000Y-88964500D02*
X168150000Y-88350000D01*
X166150000Y-84100000D02*
X165150000Y-85100000D01*
X167909337Y-81971040D02*
X167909337Y-81370000D01*
X168150000Y-86850000D02*
X168150000Y-88350000D01*
X166650000Y-85025000D02*
X166650000Y-84350000D01*
X166400000Y-84100000D02*
X166150000Y-84100000D01*
X165150000Y-85100000D02*
X165150000Y-84252274D01*
X168984885Y-89385991D02*
X168571491Y-89385991D01*
X165150000Y-84252274D02*
X165415173Y-83987101D01*
X165398000Y-86437500D02*
X166012500Y-86437500D01*
X166650000Y-84350000D02*
X166400000Y-84100000D01*
X165150000Y-86189500D02*
X165398000Y-86437500D01*
X165150000Y-85100000D02*
X165150000Y-86189500D01*
X166012500Y-86437500D02*
X167737500Y-86437500D01*
X169942664Y-89385991D02*
X169950850Y-89394177D01*
X167737500Y-86437500D02*
X168150000Y-86850000D01*
%TO.N,Board_24-GND*%
X169150000Y-87213604D02*
X168150000Y-86213604D01*
X167650000Y-84410500D02*
X167650000Y-85025000D01*
X169562500Y-86937500D02*
X170787500Y-86937500D01*
X166150000Y-87575000D02*
X166012500Y-87437500D01*
X166012500Y-87437500D02*
X166874500Y-87437500D01*
X167650000Y-85025000D02*
X167650000Y-85639500D01*
X168150000Y-86213604D02*
X168150000Y-85025000D01*
X166874500Y-87437500D02*
X167150000Y-87162000D01*
X165862887Y-89406451D02*
X165862887Y-88637113D01*
X165862887Y-88637113D02*
X166150000Y-88350000D01*
X167352000Y-85937500D02*
X166012500Y-85937500D01*
X167650000Y-85639500D02*
X167352000Y-85937500D01*
X166909337Y-83669837D02*
X167650000Y-84410500D01*
X166150000Y-88350000D02*
X166150000Y-87575000D01*
X168150000Y-84910500D02*
X168150000Y-85025000D01*
X166909337Y-81370000D02*
X166909337Y-83669837D01*
X167650000Y-84410500D02*
X168150000Y-84910500D01*
X169150000Y-87350000D02*
X169562500Y-86937500D01*
X169150000Y-87350000D02*
X169150000Y-87213604D01*
%TO.N,Board_24-Net-(J5-Pin_3)*%
X166159337Y-80620000D02*
X168219998Y-80620000D01*
X168909337Y-81309339D02*
X168909337Y-81370000D01*
X169553239Y-85937500D02*
X169225867Y-86264872D01*
X165415173Y-82967101D02*
X165415173Y-81364164D01*
X165415173Y-81364164D02*
X166159337Y-80620000D01*
X170787500Y-85937500D02*
X169553239Y-85937500D01*
X168219998Y-80620000D02*
X168909337Y-81309339D01*
%TO.N,Board_24-Net-(J5-Pin_4)*%
X172024924Y-83635678D02*
X172024924Y-84475076D01*
X171475000Y-85025000D02*
X170650000Y-85025000D01*
X171024623Y-82635377D02*
X171379924Y-82990678D01*
X172024924Y-84475076D02*
X171475000Y-85025000D01*
X169909337Y-81520091D02*
X171024623Y-82635377D01*
X171024623Y-82635377D02*
X172024924Y-83635678D01*
X169909337Y-81370000D02*
X169909337Y-81520091D01*
%TO.N,Board_24-Net-(U1-BOOTN)*%
X165894818Y-90405991D02*
X168984885Y-90405991D01*
X166012500Y-86937500D02*
X165398000Y-86937500D01*
X165150000Y-89661173D02*
X165894818Y-90405991D01*
X165150000Y-87185500D02*
X165150000Y-89661173D01*
X165398000Y-86937500D02*
X165150000Y-87185500D01*
%TO.N,Board_24-Net-(U1-CAP)*%
X166822887Y-89406451D02*
X167208049Y-89406451D01*
X167208049Y-89406451D02*
X167650000Y-88964500D01*
X167650000Y-88964500D02*
X167650000Y-88350000D01*
%TO.N,Board_24-Net-(U1-ENV_SCL)*%
X170875920Y-88350000D02*
X170650000Y-88350000D01*
X171650000Y-89124080D02*
X170875920Y-88350000D01*
X170925001Y-90389619D02*
X171142691Y-90389619D01*
X171142691Y-90389619D02*
X171650000Y-89882310D01*
X171650000Y-89882310D02*
X171650000Y-89124080D01*
%TO.N,Board_24-Net-(U1-ENV_SDA)*%
X170521292Y-90984619D02*
X171515381Y-90984619D01*
X172100000Y-90400000D02*
X172100000Y-88750000D01*
X172100000Y-88750000D02*
X170787500Y-87437500D01*
X169950850Y-90414177D02*
X170521292Y-90984619D01*
X171515381Y-90984619D02*
X172100000Y-90400000D01*
%TD*%
M02*
