%TF.GenerationSoftware,KiCad,Pcbnew,7.0.5-1.fc38*%
%TF.CreationDate,2023-07-07T14:18:14-04:00*%
%TF.ProjectId,bno085-i2c-board-v3-square-panel,626e6f30-3835-42d6-9932-632d626f6172,rev?*%
%TF.SameCoordinates,Original*%
%TF.FileFunction,Profile,NP*%
%FSLAX46Y46*%
G04 Gerber Fmt 4.6, Leading zero omitted, Abs format (unit mm)*
G04 Created by KiCad (PCBNEW 7.0.5-1.fc38) date 2023-07-07 14:18:14*
%MOMM*%
%LPD*%
G01*
G04 APERTURE LIST*
%TA.AperFunction,Profile*%
%ADD10C,0.100000*%
%TD*%
G04 APERTURE END LIST*
D10*
X134500000Y-53800000D02*
X134500000Y-58000000D01*
X152320233Y-38298973D02*
X152320233Y-38298973D01*
X124500000Y-60500000D02*
X124500000Y-60500000D01*
X134501026Y-27179766D02*
X134500000Y-27200000D01*
X172483791Y-51478871D02*
X172490827Y-51459872D01*
X132369461Y-53612449D02*
X132350130Y-53606384D01*
X132414253Y-78164152D02*
X132430274Y-78151751D01*
X162414253Y-91464152D02*
X162430274Y-91451751D01*
X142497693Y-27169714D02*
X142490827Y-27140127D01*
X154509172Y-51459872D02*
X154520439Y-51488078D01*
X152497693Y-27169714D02*
X152490827Y-27140127D01*
X152430274Y-91451751D02*
X152444958Y-91437793D01*
X152397060Y-91474869D02*
X152414253Y-91464152D01*
X169750000Y-53600000D02*
X169750000Y-52600000D01*
X172474869Y-64797060D02*
X172483791Y-64778871D01*
X144500000Y-60500000D02*
X144500000Y-64700000D01*
X132430274Y-91451751D02*
X132444958Y-91437793D01*
X154548248Y-64830274D02*
X154569725Y-64851751D01*
X144500000Y-87100000D02*
X144500000Y-91300000D01*
X172479560Y-80311921D02*
X172464152Y-80285746D01*
X152359872Y-91490827D02*
X152378871Y-91483791D01*
X142493615Y-78050130D02*
X142497693Y-78030285D01*
X134535847Y-53685746D02*
X134520439Y-53711921D01*
X164562206Y-64844958D02*
X164585746Y-64864152D01*
X172378871Y-91483791D02*
X172397060Y-91474869D01*
X152430274Y-51551751D02*
X152444958Y-51537793D01*
X162300000Y-51600000D02*
X162320233Y-51598973D01*
X172500000Y-38100000D02*
X172500000Y-33900000D01*
X154700000Y-51600000D02*
X157250000Y-51600000D01*
X132414253Y-40335847D02*
X132388078Y-40320439D01*
X124548248Y-78130274D02*
X124562206Y-78144958D01*
X162444958Y-40362206D02*
X162430274Y-40348248D01*
X157250000Y-39300000D02*
X157250000Y-40300000D01*
X164640127Y-66909172D02*
X164611921Y-66920439D01*
X142500000Y-60500000D02*
X143500000Y-60500000D01*
X144504094Y-27159740D02*
X144501026Y-27179766D01*
X124640127Y-80209172D02*
X124611921Y-80220439D01*
X124679766Y-51598973D02*
X124700000Y-51600000D01*
X164520439Y-78088078D02*
X164535847Y-78114253D01*
X132320233Y-40301026D02*
X132300000Y-40300000D01*
X124525130Y-40402939D02*
X124512449Y-40430538D01*
X142500000Y-58000000D02*
X142500000Y-53800000D01*
X142495905Y-38140259D02*
X142498973Y-38120233D01*
X157250000Y-53600000D02*
X154700000Y-53600000D01*
X162495905Y-51440259D02*
X162498973Y-51420233D01*
X162300000Y-91500000D02*
X162320233Y-91498973D01*
X137250000Y-51600000D02*
X137250000Y-52600000D01*
X144700000Y-91500000D02*
X147250000Y-91500000D01*
X142378871Y-91483791D02*
X142397060Y-91474869D01*
X144700000Y-53600000D02*
X144700000Y-53600000D01*
X154640127Y-80209172D02*
X154611921Y-80220439D01*
X134602939Y-64874869D02*
X134630538Y-64887550D01*
X142378871Y-66916208D02*
X142350130Y-66906384D01*
X164700000Y-40300000D02*
X164669714Y-40302306D01*
X124700000Y-38300000D02*
X127250000Y-38300000D01*
X129750000Y-91500000D02*
X132300000Y-91500000D01*
X134700000Y-27000000D02*
X134669714Y-27002306D01*
X134548248Y-27069725D02*
X134530271Y-27094207D01*
X124506384Y-67049869D02*
X124502306Y-67069714D01*
X172500000Y-33900000D02*
X174500000Y-33900000D01*
X164555041Y-66962206D02*
X164541844Y-66977578D01*
X143500000Y-31400000D02*
X142500000Y-31400000D01*
X163500000Y-47200000D02*
X164500000Y-47200000D01*
X144630538Y-51587550D02*
X144649869Y-51593615D01*
X124500000Y-44700000D02*
X122500000Y-44700000D01*
X124555041Y-53662206D02*
X124541844Y-53677578D01*
X142437793Y-80255041D02*
X142422421Y-80241844D01*
X142300000Y-38300000D02*
X142320233Y-38298973D01*
X154621128Y-78183791D02*
X154649869Y-78193615D01*
X154602939Y-78174869D02*
X154621128Y-78183791D01*
X142487550Y-38169461D02*
X142495905Y-38140259D01*
X154512449Y-27130538D02*
X154506384Y-27149869D01*
X144535847Y-53685746D02*
X144520439Y-53711921D01*
X152340259Y-38295905D02*
X152359872Y-38290827D01*
X132300000Y-64900000D02*
X132320233Y-64898973D01*
X164585746Y-66935847D02*
X164569725Y-66948248D01*
X144649869Y-91493615D02*
X144669714Y-91497693D01*
X142437793Y-66955041D02*
X142422421Y-66941844D01*
X144562206Y-40355041D02*
X144548248Y-40369725D01*
X144502306Y-64730285D02*
X144509172Y-64759872D01*
X144520439Y-51488078D02*
X144535847Y-51514253D01*
X162388078Y-27020439D02*
X162369461Y-27012449D01*
X164525130Y-40402939D02*
X164516208Y-40421128D01*
X162378871Y-64883791D02*
X162397060Y-64874869D01*
X132497693Y-67069714D02*
X132490827Y-67040127D01*
X153500000Y-84600000D02*
X152500000Y-84600000D01*
X142444958Y-27062206D02*
X142430274Y-27048248D01*
X137250000Y-91500000D02*
X137250000Y-93500000D01*
X144548248Y-27069725D02*
X144535847Y-27085746D01*
X162300000Y-27000000D02*
X159750000Y-27000000D01*
X132500000Y-40500000D02*
X132497693Y-40469714D01*
X154569725Y-80248248D02*
X154555041Y-80262206D01*
X154520439Y-64788078D02*
X154535847Y-64814253D01*
X153500000Y-44700000D02*
X152500000Y-44700000D01*
X134649869Y-38293615D02*
X134679766Y-38298973D01*
X172437793Y-64844958D02*
X172451751Y-64830274D01*
X164525130Y-67002939D02*
X164516208Y-67021128D01*
X127250000Y-78200000D02*
X127250000Y-79200000D01*
X134520439Y-67011921D02*
X134512449Y-67030538D01*
X152378871Y-66916208D02*
X152350130Y-66906384D01*
X152397060Y-51574869D02*
X152414253Y-51564152D01*
X172300000Y-78200000D02*
X172320233Y-78198973D01*
X154640127Y-40309172D02*
X154611921Y-40320439D01*
X162451751Y-51530274D02*
X162464152Y-51514253D01*
X159750000Y-64900000D02*
X162300000Y-64900000D01*
X132320233Y-64898973D02*
X132340259Y-64895905D01*
X157250000Y-65900000D02*
X157250000Y-66900000D01*
X144548248Y-78130274D02*
X144562206Y-78144958D01*
X132320233Y-53601026D02*
X132300000Y-53600000D01*
X154585746Y-80235847D02*
X154569725Y-80248248D01*
X164630538Y-38287550D02*
X164649869Y-38293615D01*
X154562206Y-91444958D02*
X154577578Y-91458155D01*
X124500000Y-38100000D02*
X124502306Y-38130285D01*
X162490827Y-40440127D02*
X162479560Y-40411921D01*
X132397060Y-64874869D02*
X132414253Y-64864152D01*
X169750000Y-66900000D02*
X169750000Y-65900000D01*
X152464152Y-80285746D02*
X152451751Y-80269725D01*
X132359872Y-91490827D02*
X132378871Y-91483791D01*
X172464152Y-64814253D02*
X172474869Y-64797060D01*
X124502306Y-51430285D02*
X124509172Y-51459872D01*
X152397060Y-38274869D02*
X152414253Y-38264152D01*
X154548248Y-91430274D02*
X154562206Y-91444958D01*
X164700000Y-27000000D02*
X164669714Y-27002306D01*
X164640127Y-80209172D02*
X164611921Y-80220439D01*
X172498973Y-51420233D02*
X172500000Y-51400000D01*
X162444958Y-78137793D02*
X162464152Y-78114253D01*
X124679766Y-38298973D02*
X124700000Y-38300000D01*
X132330285Y-66902306D02*
X132300000Y-66900000D01*
X142330285Y-80202306D02*
X142300000Y-80200000D01*
X134500000Y-78000000D02*
X134502306Y-78030285D01*
X134700000Y-38300000D02*
X137250000Y-38300000D01*
X134669714Y-78197693D02*
X134700000Y-78200000D01*
X142500000Y-44700000D02*
X142500000Y-40500000D01*
X164500000Y-64700000D02*
X164502306Y-64730285D01*
X134669714Y-80202306D02*
X134640127Y-80209172D01*
X162330285Y-80202306D02*
X162300000Y-80200000D01*
X124640127Y-27009172D02*
X124640127Y-27009172D01*
X142490827Y-40440127D02*
X142479560Y-40411921D01*
X162437793Y-53655041D02*
X162414253Y-53635847D01*
X154669714Y-66902306D02*
X154640127Y-66909172D01*
X162437793Y-51544958D02*
X162451751Y-51530274D01*
X132444958Y-40362206D02*
X132430274Y-40348248D01*
X164700000Y-53600000D02*
X164669714Y-53602306D01*
X134509172Y-51459872D02*
X134520439Y-51488078D01*
X164500000Y-38100000D02*
X164502306Y-38130285D01*
X154649869Y-64893615D02*
X154679766Y-64898973D01*
X142340259Y-91495905D02*
X142359872Y-91490827D01*
X154649869Y-91493615D02*
X154669714Y-91497693D01*
X144509172Y-51459872D02*
X144520439Y-51488078D01*
X122500000Y-60500000D02*
X124500000Y-60500000D01*
X152500000Y-84600000D02*
X152500000Y-80400000D01*
X142458155Y-91422421D02*
X142469728Y-91405792D01*
X164535847Y-38214253D02*
X164555041Y-38237793D01*
X154535847Y-51514253D02*
X154548248Y-51530274D01*
X144548248Y-66969725D02*
X144535847Y-66985746D01*
X152497693Y-67069714D02*
X152497693Y-67069714D01*
X134500000Y-38100000D02*
X134502306Y-38130285D01*
X132397060Y-53625130D02*
X132369461Y-53612449D01*
X132490827Y-40440127D02*
X132479560Y-40411921D01*
X132490827Y-53740127D02*
X132479560Y-53711921D01*
X132500000Y-38100000D02*
X132500000Y-33900000D01*
X142320233Y-64898973D02*
X142320233Y-64898973D01*
X157250000Y-27000000D02*
X157250000Y-27000000D01*
X162330285Y-66902306D02*
X162300000Y-66900000D01*
X154501026Y-80379766D02*
X154500000Y-80400000D01*
X162464152Y-66985746D02*
X162451751Y-66969725D01*
X154585746Y-66935847D02*
X154569725Y-66948248D01*
X134679766Y-38298973D02*
X134700000Y-38300000D01*
X132458155Y-78122421D02*
X132469728Y-78105792D01*
X144509172Y-67040127D02*
X144504094Y-67059740D01*
X162479560Y-80311921D02*
X162464152Y-80285746D01*
X154602939Y-64874869D02*
X154621128Y-64883791D01*
X153500000Y-47200000D02*
X154500000Y-47200000D01*
X149750000Y-38300000D02*
X152300000Y-38300000D01*
X124525130Y-80302939D02*
X124512449Y-80330538D01*
X152300000Y-66900000D02*
X149750000Y-66900000D01*
X124535847Y-78114253D02*
X124548248Y-78130274D01*
X142444958Y-91437793D02*
X142458155Y-91422421D01*
X134700000Y-51600000D02*
X137250000Y-51600000D01*
X144569725Y-64851751D02*
X144585746Y-64864152D01*
X152378871Y-53616208D02*
X152350130Y-53606384D01*
X134512449Y-27130538D02*
X134506384Y-27149869D01*
X144500000Y-84600000D02*
X143500000Y-84600000D01*
X154611921Y-40320439D02*
X154585746Y-40335847D01*
X157250000Y-66900000D02*
X154700000Y-66900000D01*
X147250000Y-93500000D02*
X139750000Y-93500000D01*
X129750000Y-40300000D02*
X129750000Y-39300000D01*
X169750000Y-80200000D02*
X169750000Y-79200000D01*
X132464152Y-66985746D02*
X132451751Y-66969725D01*
X172359872Y-38290827D02*
X172378871Y-38283791D01*
X124555041Y-80262206D02*
X124535847Y-80285746D01*
X132464152Y-80285746D02*
X132451751Y-80269725D01*
X124630538Y-64887550D02*
X124649869Y-64893615D01*
X142414253Y-27035847D02*
X142388078Y-27020439D01*
X152464152Y-91414253D02*
X152474869Y-91397060D01*
X162320233Y-91498973D02*
X162340259Y-91495905D01*
X162490827Y-80340127D02*
X162479560Y-80311921D01*
X164555041Y-80262206D02*
X164541844Y-80277578D01*
X154669714Y-53602306D02*
X154640127Y-53609172D01*
X134500000Y-73800000D02*
X134500000Y-78000000D01*
X142479560Y-53711921D02*
X142464152Y-53685746D01*
X172359872Y-64890827D02*
X172378871Y-64883791D01*
X162500000Y-73800000D02*
X163500000Y-73800000D01*
X142500000Y-51400000D02*
X142500000Y-47200000D01*
X134700000Y-64900000D02*
X137250000Y-64900000D01*
X127250000Y-93500000D02*
X122500000Y-93500000D01*
X124516208Y-53721128D02*
X124506384Y-53749869D01*
X172437793Y-53655041D02*
X172414253Y-53635847D01*
X142430274Y-91451751D02*
X142444958Y-91437793D01*
X142497693Y-67069714D02*
X142490827Y-67040127D01*
X137250000Y-66900000D02*
X134700000Y-66900000D01*
X132464152Y-51514253D02*
X132474869Y-51497060D01*
X172490827Y-64759872D02*
X172495905Y-64740259D01*
X152350130Y-40306384D02*
X152330285Y-40302306D01*
X124640127Y-27009172D02*
X124611921Y-27020439D01*
X142378871Y-38283791D02*
X142397060Y-38274869D01*
X132437793Y-66955041D02*
X132422421Y-66941844D01*
X154611921Y-80220439D02*
X154585746Y-80235847D01*
X164525130Y-53702939D02*
X164516208Y-53721128D01*
X142320233Y-53601026D02*
X142300000Y-53600000D01*
X144509172Y-64759872D02*
X144520439Y-64788078D01*
X149750000Y-80200000D02*
X149750000Y-79200000D01*
X124679766Y-64898973D02*
X124700000Y-64900000D01*
X164509172Y-64759872D02*
X164520439Y-64788078D01*
X152500000Y-33900000D02*
X153500000Y-33900000D01*
X172437793Y-38244958D02*
X172451751Y-38230274D01*
X162495905Y-91340259D02*
X162498973Y-91320233D01*
X152388078Y-27020439D02*
X152369461Y-27012449D01*
X143500000Y-60500000D02*
X144500000Y-60500000D01*
X152495905Y-91340259D02*
X152498973Y-91320233D01*
X164562206Y-91444958D02*
X164577578Y-91458155D01*
X124562206Y-91444958D02*
X124577578Y-91458155D01*
X142500000Y-40500000D02*
X142497693Y-40469714D01*
X164611921Y-66920439D02*
X164585746Y-66935847D01*
X144504094Y-67059740D02*
X144501026Y-67079766D01*
X152378871Y-78183791D02*
X152397060Y-78174869D01*
X132500000Y-44700000D02*
X132500000Y-40500000D01*
X147250000Y-78200000D02*
X147250000Y-79200000D01*
X152479560Y-67011921D02*
X152464152Y-66985746D01*
X133500000Y-87100000D02*
X134500000Y-87100000D01*
X124569725Y-66948248D02*
X124555041Y-66962206D01*
X152490827Y-67040127D02*
X152479560Y-67011921D01*
X152490827Y-80340127D02*
X152479560Y-80311921D01*
X134585746Y-66935847D02*
X134562206Y-66955041D01*
X152414253Y-78164152D02*
X152430274Y-78151751D01*
X124520439Y-38188078D02*
X124535847Y-38214253D01*
X152300000Y-51600000D02*
X152320233Y-51598973D01*
X144611921Y-38279560D02*
X144630538Y-38287550D01*
X142369461Y-64887550D02*
X142388078Y-64879560D01*
X159750000Y-51600000D02*
X162300000Y-51600000D01*
X132487550Y-38169461D02*
X132493615Y-38150130D01*
X132369461Y-27012449D02*
X132350130Y-27006384D01*
X137250000Y-80200000D02*
X134700000Y-80200000D01*
X132474869Y-64797060D02*
X132483791Y-64778871D01*
X164506384Y-53749869D02*
X164502306Y-53769714D01*
X143500000Y-44700000D02*
X142500000Y-44700000D01*
X154525130Y-80302939D02*
X154512449Y-80330538D01*
X142414253Y-91464152D02*
X142430274Y-91451751D01*
X134501026Y-40479766D02*
X134500000Y-40500000D01*
X172474869Y-38197060D02*
X172483791Y-38178871D01*
X144500000Y-38100000D02*
X144502306Y-38130285D01*
X124700000Y-78200000D02*
X127250000Y-78200000D01*
X134535847Y-78114253D02*
X134548248Y-78130274D01*
X144640127Y-53609172D02*
X144611921Y-53620439D01*
X162490827Y-38159872D02*
X162495905Y-38140259D01*
X152414253Y-40335847D02*
X152388078Y-40320439D01*
X134512449Y-40430538D02*
X134506384Y-40449869D01*
X124669714Y-53602306D02*
X124640127Y-53609172D01*
X162500000Y-80400000D02*
X162497693Y-80369714D01*
X139750000Y-51600000D02*
X142300000Y-51600000D01*
X132495905Y-51440259D02*
X132498973Y-51420233D01*
X154611921Y-38279560D02*
X154630538Y-38287550D01*
X172500000Y-84600000D02*
X172500000Y-80400000D01*
X124585746Y-51564152D02*
X124602939Y-51574869D01*
X134700000Y-40300000D02*
X134669714Y-40302306D01*
X124500000Y-53800000D02*
X124500000Y-58000000D01*
X142350130Y-66906384D02*
X142330285Y-66902306D01*
X134509172Y-78059872D02*
X134520439Y-78088078D01*
X154669714Y-27002306D02*
X154640127Y-27009172D01*
X172414253Y-64864152D02*
X172437793Y-64844958D01*
X162340259Y-38295905D02*
X162359872Y-38290827D01*
X164649869Y-78193615D02*
X164669714Y-78197693D01*
X167250000Y-91500000D02*
X167250000Y-93500000D01*
X152330285Y-66902306D02*
X152300000Y-66900000D01*
X122500000Y-33900000D02*
X124500000Y-33900000D01*
X137250000Y-79200000D02*
X137250000Y-80200000D01*
X164679766Y-51598973D02*
X164700000Y-51600000D01*
X152320233Y-64898973D02*
X152340259Y-64895905D01*
X162359872Y-38290827D02*
X162378871Y-38283791D01*
X164509172Y-38159872D02*
X164520439Y-38188078D01*
X172483791Y-64778871D02*
X172490827Y-64759872D01*
X134512449Y-80330538D02*
X134506384Y-80349869D01*
X164577578Y-78158155D02*
X164602939Y-78174869D01*
X172430274Y-40348248D02*
X172414253Y-40335847D01*
X124520439Y-91388078D02*
X124535847Y-91414253D01*
X129750000Y-64900000D02*
X132300000Y-64900000D01*
X127250000Y-25000000D02*
X127250000Y-27000000D01*
X144640127Y-80209172D02*
X144611921Y-80220439D01*
X143500000Y-33900000D02*
X144500000Y-33900000D01*
X139750000Y-38300000D02*
X142300000Y-38300000D01*
X144611921Y-27020439D02*
X144585746Y-27035847D01*
X124569725Y-51551751D02*
X124585746Y-51564152D01*
X144548248Y-91430274D02*
X144562206Y-91444958D01*
X152359872Y-38290827D02*
X152378871Y-38283791D01*
X124506384Y-80349869D02*
X124502306Y-80369714D01*
X144500000Y-78000000D02*
X144502306Y-78030285D01*
X124500000Y-73800000D02*
X124500000Y-73800000D01*
X144500000Y-58000000D02*
X143500000Y-58000000D01*
X159750000Y-39300000D02*
X159750000Y-38300000D01*
X164502306Y-51430285D02*
X164509172Y-51459872D01*
X152451751Y-66969725D02*
X152437793Y-66955041D01*
X132330285Y-80202306D02*
X132300000Y-80200000D01*
X132451751Y-53669725D02*
X132430274Y-53648248D01*
X142497693Y-80369714D02*
X142490827Y-80340127D01*
X142490827Y-80340127D02*
X142479560Y-80311921D01*
X132437793Y-51544958D02*
X132451751Y-51530274D01*
X162300000Y-40300000D02*
X159750000Y-40300000D01*
X172340259Y-64895905D02*
X172359872Y-64890827D01*
X144555041Y-64837793D02*
X144569725Y-64851751D01*
X144548248Y-40369725D02*
X144535847Y-40385746D01*
X142490827Y-51459872D02*
X142495905Y-51440259D01*
X142458155Y-38222421D02*
X142469728Y-38205792D01*
X134585746Y-51564152D02*
X134602939Y-51574869D01*
X144535847Y-64814253D02*
X144555041Y-64837793D01*
X172330285Y-40302306D02*
X172300000Y-40300000D01*
X124585746Y-64864152D02*
X124602939Y-64874869D01*
X134700000Y-80200000D02*
X134669714Y-80202306D01*
X142397060Y-38274869D02*
X142414253Y-38264152D01*
X154500000Y-71300000D02*
X153500000Y-71300000D01*
X164500000Y-80400000D02*
X164500000Y-84600000D01*
X134509172Y-64759872D02*
X134520439Y-64788078D01*
X124649869Y-78193615D02*
X124669714Y-78197693D01*
X132490827Y-67040127D02*
X132479560Y-67011921D01*
X124502306Y-53769714D02*
X124500000Y-53800000D01*
X164541844Y-27077578D02*
X164525130Y-27102939D01*
X152378871Y-91483791D02*
X152397060Y-91474869D01*
X152430274Y-40348248D02*
X152414253Y-40335847D01*
X162340259Y-51595905D02*
X162359872Y-51590827D01*
X172378871Y-78183791D02*
X172397060Y-78174869D01*
X154525130Y-27102939D02*
X154512449Y-27130538D01*
X124520439Y-78088078D02*
X124535847Y-78114253D01*
X172497693Y-53769714D02*
X172490827Y-53740127D01*
X132397060Y-38274869D02*
X132414253Y-38264152D01*
X124669714Y-27002306D02*
X124640127Y-27009172D01*
X132340259Y-64895905D02*
X132359872Y-64890827D01*
X154520439Y-51488078D02*
X154535847Y-51514253D01*
X132300000Y-66900000D02*
X129750000Y-66900000D01*
X164602939Y-78174869D02*
X164621128Y-78183791D01*
X154577578Y-91458155D02*
X154602939Y-91474869D01*
X163500000Y-60500000D02*
X164500000Y-60500000D01*
X179500000Y-98500000D02*
X179500000Y-20000000D01*
X142500000Y-84600000D02*
X142500000Y-80400000D01*
X172451751Y-80269725D02*
X172437793Y-80255041D01*
X164700000Y-78200000D02*
X167250000Y-78200000D01*
X144502306Y-38130285D02*
X144509172Y-38159872D01*
X152320233Y-38298973D02*
X152340259Y-38295905D01*
X154535847Y-64814253D02*
X154548248Y-64830274D01*
X134611921Y-27020439D02*
X134585746Y-27035847D01*
X169750000Y-25000000D02*
X174500000Y-25000000D01*
X134530271Y-40394207D02*
X134520439Y-40411921D01*
X162369461Y-27012449D02*
X162350130Y-27006384D01*
X132422421Y-80241844D02*
X132397060Y-80225130D01*
X167250000Y-78200000D02*
X167250000Y-79200000D01*
X152378871Y-51583791D02*
X152397060Y-51574869D01*
X162359872Y-91490827D02*
X162378871Y-91483791D01*
X132490827Y-51459872D02*
X132495905Y-51440259D01*
X139750000Y-40300000D02*
X139750000Y-39300000D01*
X164500000Y-27200000D02*
X164500000Y-31400000D01*
X162359872Y-51590827D02*
X162378871Y-51583791D01*
X134535847Y-51514253D02*
X134548248Y-51530274D01*
X152359872Y-51590827D02*
X152378871Y-51583791D01*
X152464152Y-27085746D02*
X152451751Y-27069725D01*
X139750000Y-66900000D02*
X139750000Y-65900000D01*
X164520439Y-51488078D02*
X164535847Y-51514253D01*
X154535847Y-80285746D02*
X154525130Y-80302939D01*
X152500000Y-80400000D02*
X152497693Y-80369714D01*
X152300000Y-91500000D02*
X152320233Y-91498973D01*
X167250000Y-64900000D02*
X167250000Y-65900000D01*
X164500000Y-40500000D02*
X164500000Y-44700000D01*
X152430274Y-64851751D02*
X152444958Y-64837793D01*
X172320233Y-51598973D02*
X172340259Y-51595905D01*
X154569725Y-64851751D02*
X154585746Y-64864152D01*
X147250000Y-52600000D02*
X147250000Y-53600000D01*
X132497693Y-80369714D02*
X132490827Y-80340127D01*
X132474869Y-51497060D02*
X132483791Y-51478871D01*
X142500000Y-91300000D02*
X142500000Y-87100000D01*
X134500000Y-27200000D02*
X134500000Y-31400000D01*
X163500000Y-73800000D02*
X164500000Y-73800000D01*
X144602939Y-51574869D02*
X144630538Y-51587550D01*
X154535847Y-78114253D02*
X154548248Y-78130274D01*
X134669714Y-40302306D02*
X134640127Y-40309172D01*
X147250000Y-64900000D02*
X147250000Y-65900000D01*
X127250000Y-39300000D02*
X127250000Y-40300000D01*
X152498973Y-51420233D02*
X152500000Y-51400000D01*
X162350130Y-40306384D02*
X162330285Y-40302306D01*
X144700000Y-38300000D02*
X147250000Y-38300000D01*
X164516208Y-27121128D02*
X164506384Y-27149869D01*
X162300000Y-53600000D02*
X159750000Y-53600000D01*
X157250000Y-38300000D02*
X157250000Y-39300000D01*
X134500000Y-87100000D02*
X134500000Y-91300000D01*
X124585746Y-53635847D02*
X124569725Y-53648248D01*
X162474869Y-51497060D02*
X162483791Y-51478871D01*
X134500000Y-80400000D02*
X134500000Y-84600000D01*
X144500000Y-91300000D02*
X144502306Y-91330285D01*
X142320233Y-38298973D02*
X142340259Y-38295905D01*
X134500000Y-58000000D02*
X133500000Y-58000000D01*
X154649869Y-38293615D02*
X154669714Y-38297693D01*
X172320233Y-78198973D02*
X172340259Y-78195905D01*
X142430274Y-27048248D02*
X142414253Y-27035847D01*
X154500000Y-78000000D02*
X154502306Y-78030285D01*
X129750000Y-39300000D02*
X129750000Y-38300000D01*
X134577578Y-91458155D02*
X134602939Y-91474869D01*
X134569725Y-53648248D02*
X134548248Y-53669725D01*
X162414253Y-64864152D02*
X162437793Y-64844958D01*
X162405792Y-38269728D02*
X162422421Y-38258155D01*
X169750000Y-27000000D02*
X169750000Y-25000000D01*
X172464152Y-78114253D02*
X172474869Y-78097060D01*
X132495905Y-91340259D02*
X132498973Y-91320233D01*
X154500000Y-47200000D02*
X154500000Y-51400000D01*
X172397060Y-53625130D02*
X172369461Y-53612449D01*
X154700000Y-64900000D02*
X157250000Y-64900000D01*
X172464152Y-51514253D02*
X172474869Y-51497060D01*
X142464152Y-51514253D02*
X142474869Y-51497060D01*
X142422421Y-80241844D02*
X142397060Y-80225130D01*
X134535847Y-66985746D02*
X134520439Y-67011921D01*
X124700000Y-66900000D02*
X124669714Y-66902306D01*
X132498973Y-64720233D02*
X132500000Y-64700000D01*
X157250000Y-27000000D02*
X154700000Y-27000000D01*
X142330285Y-66902306D02*
X142300000Y-66900000D01*
X132444958Y-38237793D02*
X132458155Y-38222421D01*
X132378871Y-51583791D02*
X132397060Y-51574869D01*
X172300000Y-66900000D02*
X169750000Y-66900000D01*
X142479560Y-27111921D02*
X142464152Y-27085746D01*
X152444958Y-38237793D02*
X152458155Y-38222421D01*
X162397060Y-80225130D02*
X162378871Y-80216208D01*
X124602939Y-91474869D02*
X124621128Y-91483791D01*
X172500000Y-53800000D02*
X172497693Y-53769714D01*
X144585746Y-40335847D02*
X144562206Y-40355041D01*
X164506384Y-67049869D02*
X164502306Y-67069714D01*
X142397060Y-78174869D02*
X142414253Y-78164152D01*
X144500000Y-33900000D02*
X144500000Y-38100000D01*
X164577578Y-91458155D02*
X164602939Y-91474869D01*
X154512449Y-67030538D02*
X154506384Y-67049869D01*
X152497693Y-40469714D02*
X152490827Y-40440127D01*
X163500000Y-33900000D02*
X164500000Y-33900000D01*
X153500000Y-73800000D02*
X154500000Y-73800000D01*
X172300000Y-80200000D02*
X169750000Y-80200000D01*
X172444958Y-78137793D02*
X172464152Y-78114253D01*
X154555041Y-66962206D02*
X154535847Y-66985746D01*
X152300000Y-80200000D02*
X149750000Y-80200000D01*
X164700000Y-80200000D02*
X164669714Y-80202306D01*
X172430274Y-27048248D02*
X172414253Y-27035847D01*
X159750000Y-78200000D02*
X162300000Y-78200000D01*
X134611921Y-53620439D02*
X134585746Y-53635847D01*
X142479560Y-67011921D02*
X142464152Y-66985746D01*
X144500000Y-51400000D02*
X144502306Y-51430285D01*
X154569725Y-66948248D02*
X154555041Y-66962206D01*
X152444958Y-78137793D02*
X152464152Y-78114253D01*
X162497693Y-27169714D02*
X162490827Y-27140127D01*
X144512449Y-40430538D02*
X144504094Y-40459740D01*
X154548248Y-40369725D02*
X154535847Y-40385746D01*
X132451751Y-64830274D02*
X132464152Y-64814253D01*
X129750000Y-65900000D02*
X129750000Y-64900000D01*
X142369461Y-53612449D02*
X142350130Y-53606384D01*
X124500000Y-33900000D02*
X124500000Y-38100000D01*
X134512449Y-67030538D02*
X134506384Y-67049869D01*
X157250000Y-79200000D02*
X157250000Y-80200000D01*
X142320233Y-91498973D02*
X142340259Y-91495905D01*
X147250000Y-91500000D02*
X147250000Y-93500000D01*
X132300000Y-91500000D02*
X132320233Y-91498973D01*
X152414253Y-91464152D02*
X152430274Y-91451751D01*
X144569725Y-53648248D02*
X144548248Y-53669725D01*
X144548248Y-53669725D02*
X144535847Y-53685746D01*
X144562206Y-78144958D02*
X144577578Y-78158155D01*
X152497693Y-80369714D02*
X152497693Y-80369714D01*
X144621128Y-91483791D02*
X144649869Y-91493615D01*
X149750000Y-53600000D02*
X149750000Y-52600000D01*
X132397060Y-51574869D02*
X132414253Y-51564152D01*
X142414253Y-53635847D02*
X142397060Y-53625130D01*
X164585746Y-51564152D02*
X164602939Y-51574869D01*
X132320233Y-91498973D02*
X132340259Y-91495905D01*
X132300000Y-27000000D02*
X129750000Y-27000000D01*
X134520439Y-80311921D02*
X134512449Y-80330538D01*
X132378871Y-80216208D02*
X132350130Y-80206384D01*
X132437793Y-64844958D02*
X132451751Y-64830274D01*
X174500000Y-93500000D02*
X169750000Y-93500000D01*
X162497693Y-53769714D02*
X162490827Y-53740127D01*
X169750000Y-52600000D02*
X169750000Y-51600000D01*
X134502306Y-53769714D02*
X134500000Y-53800000D01*
X174500000Y-33900000D02*
X174500000Y-44700000D01*
X124535847Y-80285746D02*
X124525130Y-80302939D01*
X172300000Y-27000000D02*
X169750000Y-27000000D01*
X162414253Y-53635847D02*
X162397060Y-53625130D01*
X152500000Y-44700000D02*
X152500000Y-40500000D01*
X152495905Y-64740259D02*
X152498973Y-64720233D01*
X152350130Y-80206384D02*
X152330285Y-80202306D01*
X137250000Y-64900000D02*
X137250000Y-65900000D01*
X137250000Y-27000000D02*
X134700000Y-27000000D01*
X134602939Y-78174869D02*
X134621128Y-78183791D01*
X139750000Y-78200000D02*
X142300000Y-78200000D01*
X152500000Y-47200000D02*
X153500000Y-47200000D01*
X162369461Y-40312449D02*
X162350130Y-40306384D01*
X142444958Y-78137793D02*
X142458155Y-78122421D01*
X172497693Y-40469714D02*
X172490827Y-40440127D01*
X172378871Y-80216208D02*
X172350130Y-80206384D01*
X132500000Y-80400000D02*
X132497693Y-80369714D01*
X132300000Y-80200000D02*
X129750000Y-80200000D01*
X132359872Y-78190827D02*
X132378871Y-78183791D01*
X164541844Y-80277578D02*
X164525130Y-80302939D01*
X124585746Y-40335847D02*
X124569725Y-40348248D01*
X162500000Y-60500000D02*
X163500000Y-60500000D01*
X162300000Y-78200000D02*
X162300000Y-78200000D01*
X159750000Y-25000000D02*
X167250000Y-25000000D01*
X134500000Y-60500000D02*
X134500000Y-64700000D01*
X142498973Y-38120233D02*
X142500000Y-38100000D01*
X164602939Y-51574869D02*
X164630538Y-51587550D01*
X134669714Y-91497693D02*
X134700000Y-91500000D01*
X124562206Y-78144958D02*
X124577578Y-78158155D01*
X144512449Y-27130538D02*
X144504094Y-27159740D01*
X132490827Y-80340127D02*
X132479560Y-80311921D01*
X124585746Y-66935847D02*
X124569725Y-66948248D01*
X164535847Y-64814253D02*
X164548248Y-64830274D01*
X172340259Y-78195905D02*
X172359872Y-78190827D01*
X162320233Y-53601026D02*
X162300000Y-53600000D01*
X139750000Y-80200000D02*
X139750000Y-79200000D01*
X149750000Y-51600000D02*
X152300000Y-51600000D01*
X142378871Y-78183791D02*
X142397060Y-78174869D01*
X134548248Y-80269725D02*
X134535847Y-80285746D01*
X152300000Y-53600000D02*
X149750000Y-53600000D01*
X124621128Y-78183791D02*
X124649869Y-78193615D01*
X142500000Y-44700000D02*
X142500000Y-44700000D01*
X164621128Y-78183791D02*
X164649869Y-78193615D01*
X154585746Y-53635847D02*
X154569725Y-53648248D01*
X129750000Y-38300000D02*
X132300000Y-38300000D01*
X142500000Y-27200000D02*
X142497693Y-27169714D01*
X152495905Y-78040259D02*
X152498973Y-78020233D01*
X142369461Y-51587550D02*
X142388078Y-51579560D01*
X124555041Y-27062206D02*
X124541844Y-27077578D01*
X134577578Y-78158155D02*
X134602939Y-78174869D01*
X134500000Y-44700000D02*
X133500000Y-44700000D01*
X152469728Y-38205792D02*
X152479560Y-38188078D01*
X124602939Y-51574869D02*
X124630538Y-51587550D01*
X134611921Y-38279560D02*
X134630538Y-38287550D01*
X127250000Y-64900000D02*
X127250000Y-65900000D01*
X134621128Y-78183791D02*
X134649869Y-78193615D01*
X132479560Y-38188078D02*
X132487550Y-38169461D01*
X163500000Y-58000000D02*
X162500000Y-58000000D01*
X162464152Y-78114253D02*
X162474869Y-78097060D01*
X162490827Y-40440127D02*
X162490827Y-40440127D01*
X122500000Y-44700000D02*
X122500000Y-33900000D01*
X142320233Y-27001026D02*
X142300000Y-27000000D01*
X142500000Y-71300000D02*
X142500000Y-67100000D01*
X132350130Y-27006384D02*
X132320233Y-27001026D01*
X144669714Y-78197693D02*
X144700000Y-78200000D01*
X137250000Y-27000000D02*
X137250000Y-27000000D01*
X152490827Y-27140127D02*
X152479560Y-27111921D01*
X164555041Y-40362206D02*
X164541844Y-40377578D01*
X139750000Y-53600000D02*
X139750000Y-52600000D01*
X152444958Y-51537793D02*
X152464152Y-51514253D01*
X154506384Y-53749869D02*
X154501026Y-53779766D01*
X159750000Y-79200000D02*
X159750000Y-78200000D01*
X172397060Y-80225130D02*
X172378871Y-80216208D01*
X144500000Y-67100000D02*
X144500000Y-71300000D01*
X134500000Y-64700000D02*
X134502306Y-64730285D01*
X162369461Y-53612449D02*
X162350130Y-53606384D01*
X124569725Y-27048248D02*
X124555041Y-27062206D01*
X144669714Y-66902306D02*
X144640127Y-66909172D01*
X152500000Y-31400000D02*
X152500000Y-27200000D01*
X164585746Y-27035847D02*
X164569725Y-27048248D01*
X142464152Y-64814253D02*
X142474869Y-64797060D01*
X134502306Y-64730285D02*
X134509172Y-64759872D01*
X164525130Y-80302939D02*
X164516208Y-80321128D01*
X172430274Y-91451751D02*
X172444958Y-91437793D01*
X132500000Y-47200000D02*
X133500000Y-47200000D01*
X142350130Y-40306384D02*
X142320233Y-40301026D01*
X164700000Y-38300000D02*
X167250000Y-38300000D01*
X152444958Y-64837793D02*
X152464152Y-64814253D01*
X152320233Y-51598973D02*
X152340259Y-51595905D01*
X134569725Y-51551751D02*
X134585746Y-51564152D01*
X172500000Y-87100000D02*
X174500000Y-87100000D01*
X144640127Y-27009172D02*
X144611921Y-27020439D01*
X124611921Y-38279560D02*
X124630538Y-38287550D01*
X142464152Y-53685746D02*
X142444958Y-53662206D01*
X154512449Y-40430538D02*
X154506384Y-40449869D01*
X142490827Y-64759872D02*
X142495905Y-64740259D01*
X172397060Y-91474869D02*
X172414253Y-91464152D01*
X142464152Y-66985746D02*
X142451751Y-66969725D01*
X147250000Y-53600000D02*
X144700000Y-53600000D01*
X172451751Y-51530274D02*
X172464152Y-51514253D01*
X124669714Y-80202306D02*
X124640127Y-80209172D01*
X162500000Y-38100000D02*
X162500000Y-33900000D01*
X149750000Y-40300000D02*
X149750000Y-39300000D01*
X124520439Y-51488078D02*
X124535847Y-51514253D01*
X174500000Y-73800000D02*
X174500000Y-84600000D01*
X144621128Y-78183791D02*
X144649869Y-78193615D01*
X137250000Y-40300000D02*
X134700000Y-40300000D01*
X127250000Y-91500000D02*
X127250000Y-93500000D01*
X124700000Y-27000000D02*
X124669714Y-27002306D01*
X152430274Y-53648248D02*
X152414253Y-53635847D01*
X172495905Y-78040259D02*
X172498973Y-78020233D01*
X134630538Y-51587550D02*
X134649869Y-51593615D01*
X164602939Y-91474869D02*
X164621128Y-91483791D01*
X162500000Y-31400000D02*
X162500000Y-27200000D01*
X134520439Y-51488078D02*
X134535847Y-51514253D01*
X162495905Y-78040259D02*
X162498973Y-78020233D01*
X134520439Y-27111921D02*
X134512449Y-27130538D01*
X172451751Y-38230274D02*
X172464152Y-38214253D01*
X152500000Y-27200000D02*
X152497693Y-27169714D01*
X132359872Y-64890827D02*
X132378871Y-64883791D01*
X167250000Y-40300000D02*
X164700000Y-40300000D01*
X144585746Y-38264152D02*
X144611921Y-38279560D01*
X167250000Y-39300000D02*
X167250000Y-40300000D01*
X164500000Y-44700000D02*
X163500000Y-44700000D01*
X167250000Y-79200000D02*
X167250000Y-80200000D01*
X147250000Y-27000000D02*
X147250000Y-27000000D01*
X124501026Y-27179766D02*
X124500000Y-27200000D01*
X162500000Y-33900000D02*
X163500000Y-33900000D01*
X169750000Y-51600000D02*
X172300000Y-51600000D01*
X132500000Y-78000000D02*
X132500000Y-73800000D01*
X172340259Y-91495905D02*
X172359872Y-91490827D01*
X124500000Y-67100000D02*
X124500000Y-71300000D01*
X149750000Y-79200000D02*
X149750000Y-78200000D01*
X142479560Y-80311921D02*
X142464152Y-80285746D01*
X162490827Y-91359872D02*
X162495905Y-91340259D01*
X172397060Y-66925130D02*
X172378871Y-66916208D01*
X142300000Y-51600000D02*
X142320233Y-51598973D01*
X124500000Y-51400000D02*
X124502306Y-51430285D01*
X124502306Y-67069714D02*
X124500000Y-67100000D01*
X154611921Y-66920439D02*
X154585746Y-66935847D01*
X124541844Y-53677578D02*
X124525130Y-53702939D01*
X164500000Y-73800000D02*
X164500000Y-78000000D01*
X154669714Y-40302306D02*
X154640127Y-40309172D01*
X164500000Y-60500000D02*
X164500000Y-64700000D01*
X154502306Y-91330285D02*
X154509172Y-91359872D01*
X124502306Y-78030285D02*
X124509172Y-78059872D01*
X124611921Y-53620439D02*
X124585746Y-53635847D01*
X134548248Y-51530274D02*
X134569725Y-51551751D01*
X152495905Y-38140259D02*
X152498973Y-38120233D01*
X172300000Y-51600000D02*
X172320233Y-51598973D01*
X132500000Y-58000000D02*
X132500000Y-53800000D01*
X164502306Y-27169714D02*
X164500000Y-27200000D01*
X122500000Y-25000000D02*
X127250000Y-25000000D01*
X172500000Y-91300000D02*
X172500000Y-87100000D01*
X157250000Y-80200000D02*
X154700000Y-80200000D01*
X154679766Y-64898973D02*
X154700000Y-64900000D01*
X172340259Y-51595905D02*
X172359872Y-51590827D01*
X154640127Y-66909172D02*
X154611921Y-66920439D01*
X132359872Y-51590827D02*
X132378871Y-51583791D01*
X162422421Y-80241844D02*
X162397060Y-80225130D01*
X164669714Y-53602306D02*
X164640127Y-53609172D01*
X144562206Y-80255041D02*
X144548248Y-80269725D01*
X144500000Y-53800000D02*
X144500000Y-58000000D01*
X139750000Y-79200000D02*
X139750000Y-78200000D01*
X132378871Y-66916208D02*
X132350130Y-66906384D01*
X152430274Y-38251751D02*
X152444958Y-38237793D01*
X152430274Y-78151751D02*
X152444958Y-78137793D01*
X164502306Y-80369714D02*
X164500000Y-80400000D01*
X129750000Y-25000000D02*
X137250000Y-25000000D01*
X154500000Y-38100000D02*
X154502306Y-38130285D01*
X124500000Y-60500000D02*
X124500000Y-64700000D01*
X164502306Y-64730285D02*
X164509172Y-64759872D01*
X164502306Y-38130285D02*
X164509172Y-38159872D01*
X142414253Y-78164152D02*
X142430274Y-78151751D01*
X162350130Y-80206384D02*
X162330285Y-80202306D01*
X162464152Y-40385746D02*
X162444958Y-40362206D01*
X129750000Y-66900000D02*
X129750000Y-65900000D01*
X124500000Y-84600000D02*
X122500000Y-84600000D01*
X144520439Y-53711921D02*
X144512449Y-53730538D01*
X172444958Y-91437793D02*
X172464152Y-91414253D01*
X124500000Y-58000000D02*
X122500000Y-58000000D01*
X162498973Y-91320233D02*
X162500000Y-91300000D01*
X172495905Y-64740259D02*
X172498973Y-64720233D01*
X134506384Y-40449869D02*
X134501026Y-40479766D01*
X164585746Y-38264152D02*
X164611921Y-38279560D01*
X162500000Y-53800000D02*
X162497693Y-53769714D01*
X154700000Y-66900000D02*
X154669714Y-66902306D01*
X142422421Y-51558155D02*
X142437793Y-51544958D01*
X144509172Y-78059872D02*
X144520439Y-78088078D01*
X152320233Y-78198973D02*
X152340259Y-78195905D01*
X162464152Y-53685746D02*
X162451751Y-53669725D01*
X164502306Y-78030285D02*
X164509172Y-78059872D01*
X143500000Y-47200000D02*
X144500000Y-47200000D01*
X132414253Y-38264152D02*
X132430274Y-38251751D01*
X169750000Y-40300000D02*
X169750000Y-39300000D01*
X172474869Y-51497060D02*
X172483791Y-51478871D01*
X154500000Y-64700000D02*
X154502306Y-64730285D01*
X142397060Y-66925130D02*
X142378871Y-66916208D01*
X142388078Y-27020439D02*
X142369461Y-27012449D01*
X172330285Y-27002306D02*
X172300000Y-27000000D01*
X162397060Y-53625130D02*
X162369461Y-53612449D01*
X144700000Y-27000000D02*
X144669714Y-27002306D01*
X154500000Y-53800000D02*
X154500000Y-58000000D01*
X164585746Y-40335847D02*
X164569725Y-40348248D01*
X132500000Y-31400000D02*
X132500000Y-27200000D01*
X162359872Y-78190827D02*
X162378871Y-78183791D01*
X133500000Y-44700000D02*
X132500000Y-44700000D01*
X142451751Y-64830274D02*
X142464152Y-64814253D01*
X142498973Y-51420233D02*
X142500000Y-51400000D01*
X142320233Y-40301026D02*
X142300000Y-40300000D01*
X144500000Y-40500000D02*
X144500000Y-44700000D01*
X132451751Y-66969725D02*
X132437793Y-66955041D01*
X154506384Y-27149869D02*
X154501026Y-27179766D01*
X132497693Y-38130285D02*
X132500000Y-38100000D01*
X172495905Y-91340259D02*
X172498973Y-91320233D01*
X164548248Y-78130274D02*
X164562206Y-78144958D01*
X142340259Y-78195905D02*
X142359872Y-78190827D01*
X132500000Y-64700000D02*
X132500000Y-60500000D01*
X142493615Y-91350130D02*
X142497693Y-91330285D01*
X153500000Y-87100000D02*
X154500000Y-87100000D01*
X172464152Y-53685746D02*
X172451751Y-53669725D01*
X144569725Y-38251751D02*
X144585746Y-38264152D01*
X152300000Y-64900000D02*
X152320233Y-64898973D01*
X127250000Y-51600000D02*
X127250000Y-52600000D01*
X124541844Y-27077578D02*
X124525130Y-27102939D01*
X139750000Y-91500000D02*
X139750000Y-91500000D01*
X132479560Y-53711921D02*
X132464152Y-53685746D01*
X152464152Y-53685746D02*
X152451751Y-53669725D01*
X124649869Y-91493615D02*
X124669714Y-91497693D01*
X154611921Y-27020439D02*
X154585746Y-27035847D01*
X142300000Y-91500000D02*
X142320233Y-91498973D01*
X154611921Y-53620439D02*
X154585746Y-53635847D01*
X172490827Y-27140127D02*
X172479560Y-27111921D01*
X172474869Y-91397060D02*
X172483791Y-91378871D01*
X164502306Y-67069714D02*
X164500000Y-67100000D01*
X162464152Y-64814253D02*
X162474869Y-64797060D01*
X124669714Y-40302306D02*
X124640127Y-40309172D01*
X117500000Y-98500000D02*
X179500000Y-98500000D01*
X134649869Y-78193615D02*
X134669714Y-78197693D01*
X124569725Y-40348248D02*
X124555041Y-40362206D01*
X153500000Y-33900000D02*
X154500000Y-33900000D01*
X132350130Y-40306384D02*
X132320233Y-40301026D01*
X167250000Y-93500000D02*
X159750000Y-93500000D01*
X144669714Y-27002306D02*
X144640127Y-27009172D01*
X144649869Y-51593615D02*
X144679766Y-51598973D01*
X144585746Y-51564152D02*
X144602939Y-51574869D01*
X172414253Y-27035847D02*
X172388078Y-27020439D01*
X154585746Y-27035847D02*
X154569725Y-27048248D01*
X133500000Y-47200000D02*
X134500000Y-47200000D01*
X149750000Y-91500000D02*
X152300000Y-91500000D01*
X142490827Y-67040127D02*
X142479560Y-67011921D01*
X172464152Y-38214253D02*
X172474869Y-38197060D01*
X172490827Y-78059872D02*
X172495905Y-78040259D01*
X154562206Y-78144958D02*
X154577578Y-78158155D01*
X144548248Y-80269725D02*
X144535847Y-80285746D01*
X152414253Y-51564152D02*
X152430274Y-51551751D01*
X152500000Y-53800000D02*
X152497693Y-53769714D01*
X124500000Y-80400000D02*
X124500000Y-84600000D01*
X124640127Y-66909172D02*
X124611921Y-66920439D01*
X162500000Y-58000000D02*
X162500000Y-53800000D01*
X164679766Y-64898973D02*
X164700000Y-64900000D01*
X124535847Y-38214253D02*
X124555041Y-38237793D01*
X162378871Y-51583791D02*
X162397060Y-51574869D01*
X134562206Y-40355041D02*
X134548248Y-40369725D01*
X162378871Y-66916208D02*
X162350130Y-66906384D01*
X142451751Y-80269725D02*
X142437793Y-80255041D01*
X124569725Y-64851751D02*
X124585746Y-64864152D01*
X164502306Y-91330285D02*
X164509172Y-91359872D01*
X149750000Y-39300000D02*
X149750000Y-38300000D01*
X162340259Y-91495905D02*
X162359872Y-91490827D01*
X127250000Y-40300000D02*
X124700000Y-40300000D01*
X152498973Y-64720233D02*
X152500000Y-64700000D01*
X132430274Y-38251751D02*
X132444958Y-38237793D01*
X172500000Y-27200000D02*
X172497693Y-27169714D01*
X132497693Y-53769714D02*
X132490827Y-53740127D01*
X144700000Y-80200000D02*
X144669714Y-80202306D01*
X164548248Y-91430274D02*
X164562206Y-91444958D01*
X127250000Y-38300000D02*
X127250000Y-39300000D01*
X144669714Y-91497693D02*
X144700000Y-91500000D01*
X152437793Y-80255041D02*
X152422421Y-80241844D01*
X152479560Y-27111921D02*
X152464152Y-27085746D01*
X152340259Y-78195905D02*
X152359872Y-78190827D01*
X164669714Y-91497693D02*
X164700000Y-91500000D01*
X154679766Y-51598973D02*
X154700000Y-51600000D01*
X152474869Y-91397060D02*
X152483791Y-91378871D01*
X142474869Y-51497060D02*
X142483791Y-51478871D01*
X174500000Y-31400000D02*
X172500000Y-31400000D01*
X132430274Y-40348248D02*
X132414253Y-40335847D01*
X134562206Y-27055041D02*
X134548248Y-27069725D01*
X152490827Y-53740127D02*
X152479560Y-53711921D01*
X152498973Y-91320233D02*
X152500000Y-91300000D01*
X162437793Y-64844958D02*
X162451751Y-64830274D01*
X162397060Y-51574869D02*
X162414253Y-51564152D01*
X154535847Y-27085746D02*
X154525130Y-27102939D01*
X124669714Y-91497693D02*
X124700000Y-91500000D01*
X152487550Y-38169461D02*
X152495905Y-38140259D01*
X127250000Y-52600000D02*
X127250000Y-53600000D01*
X162500000Y-51400000D02*
X162500000Y-47200000D01*
X133500000Y-60500000D02*
X134500000Y-60500000D01*
X124512449Y-67030538D02*
X124506384Y-67049869D01*
X154700000Y-78200000D02*
X157250000Y-78200000D01*
X154621128Y-51583791D02*
X154649869Y-51593615D01*
X172500000Y-84600000D02*
X172500000Y-84600000D01*
X154506384Y-67049869D02*
X154501026Y-67079766D01*
X154700000Y-53600000D02*
X154669714Y-53602306D01*
X144585746Y-64864152D02*
X144602939Y-64874869D01*
X132498973Y-91320233D02*
X132500000Y-91300000D01*
X124500000Y-78000000D02*
X124502306Y-78030285D01*
X149750000Y-64900000D02*
X152300000Y-64900000D01*
X154700000Y-40300000D02*
X154669714Y-40302306D01*
X144509172Y-80340127D02*
X144504094Y-80359740D01*
X164516208Y-80321128D02*
X164506384Y-80349869D01*
X144520439Y-64788078D02*
X144535847Y-64814253D01*
X172464152Y-80285746D02*
X172451751Y-80269725D01*
X124548248Y-64830274D02*
X124569725Y-64851751D01*
X152369461Y-27012449D02*
X152350130Y-27006384D01*
X134602939Y-51574869D02*
X134630538Y-51587550D01*
X153500000Y-60500000D02*
X154500000Y-60500000D01*
X133500000Y-73800000D02*
X134500000Y-73800000D01*
X144585746Y-53635847D02*
X144569725Y-53648248D01*
X134562206Y-80255041D02*
X134548248Y-80269725D01*
X124506384Y-40449869D02*
X124501026Y-40479766D01*
X134669714Y-27002306D02*
X134640127Y-27009172D01*
X159750000Y-52600000D02*
X159750000Y-51600000D01*
X124535847Y-91414253D02*
X124548248Y-91430274D01*
X164520439Y-38188078D02*
X164535847Y-38214253D01*
X134506384Y-67049869D02*
X134502306Y-67069714D01*
X159750000Y-66900000D02*
X159750000Y-65900000D01*
X157250000Y-51600000D02*
X157250000Y-52600000D01*
X127250000Y-66900000D02*
X124700000Y-66900000D01*
X163500000Y-87100000D02*
X164500000Y-87100000D01*
X172479560Y-27111921D02*
X172464152Y-27085746D01*
X139750000Y-52600000D02*
X139750000Y-51600000D01*
X172500000Y-64700000D02*
X172500000Y-60500000D01*
X134640127Y-53609172D02*
X134611921Y-53620439D01*
X134611921Y-80220439D02*
X134585746Y-80235847D01*
X164700000Y-51600000D02*
X167250000Y-51600000D01*
X154640127Y-53609172D02*
X154611921Y-53620439D01*
X154500000Y-27200000D02*
X154500000Y-31400000D01*
X162500000Y-87100000D02*
X163500000Y-87100000D01*
X164541844Y-66977578D02*
X164525130Y-67002939D01*
X142405792Y-64869728D02*
X142422421Y-64858155D01*
X172350130Y-27006384D02*
X172330285Y-27002306D01*
X152397060Y-78174869D02*
X152414253Y-78164152D01*
X144512449Y-53730538D02*
X144504094Y-53759740D01*
X124700000Y-51600000D02*
X127250000Y-51600000D01*
X132430274Y-53648248D02*
X132414253Y-53635847D01*
X159750000Y-53600000D02*
X159750000Y-52600000D01*
X172500000Y-60500000D02*
X174500000Y-60500000D01*
X142487550Y-78069461D02*
X142493615Y-78050130D01*
X164555041Y-38237793D02*
X164569725Y-38251751D01*
X144585746Y-80235847D02*
X144562206Y-80255041D01*
X124700000Y-40300000D02*
X124669714Y-40302306D01*
X163500000Y-31400000D02*
X162500000Y-31400000D01*
X132300000Y-53600000D02*
X129750000Y-53600000D01*
X139750000Y-27000000D02*
X139750000Y-25000000D01*
X142300000Y-40300000D02*
X139750000Y-40300000D01*
X172495905Y-51440259D02*
X172498973Y-51420233D01*
X144611921Y-66920439D02*
X144585746Y-66935847D01*
X162422421Y-66941844D02*
X162397060Y-66925130D01*
X162483791Y-38178871D02*
X162490827Y-38159872D01*
X162497693Y-80369714D02*
X162490827Y-80340127D01*
X124500000Y-40500000D02*
X124500000Y-44700000D01*
X164548248Y-51530274D02*
X164562206Y-51544958D01*
X152422421Y-80241844D02*
X152397060Y-80225130D01*
X142359872Y-78190827D02*
X142378871Y-78183791D01*
X154548248Y-78130274D02*
X154562206Y-78144958D01*
X162500000Y-91300000D02*
X162500000Y-87100000D01*
X134562206Y-78144958D02*
X134577578Y-78158155D01*
X142464152Y-80285746D02*
X142451751Y-80269725D01*
X162451751Y-64830274D02*
X162464152Y-64814253D01*
X169750000Y-78200000D02*
X172300000Y-78200000D01*
X132490827Y-91359872D02*
X132495905Y-91340259D01*
X172359872Y-78190827D02*
X172378871Y-78183791D01*
X124500000Y-47200000D02*
X124500000Y-51400000D01*
X152451751Y-27069725D02*
X152430274Y-27048248D01*
X154502306Y-38130285D02*
X154509172Y-38159872D01*
X152497693Y-67069714D02*
X152490827Y-67040127D01*
X134548248Y-40369725D02*
X134530271Y-40394207D01*
X124700000Y-80200000D02*
X124669714Y-80202306D01*
X172497693Y-80369714D02*
X172490827Y-80340127D01*
X172464152Y-40385746D02*
X172444958Y-40362206D01*
X142451751Y-66969725D02*
X142437793Y-66955041D01*
X132369461Y-40312449D02*
X132350130Y-40306384D01*
X164611921Y-40320439D02*
X164585746Y-40335847D01*
X167250000Y-66900000D02*
X164700000Y-66900000D01*
X164535847Y-91414253D02*
X164548248Y-91430274D01*
X142388078Y-40320439D02*
X142369461Y-40312449D01*
X162350130Y-53606384D02*
X162320233Y-53601026D01*
X137250000Y-52600000D02*
X137250000Y-53600000D01*
X162479560Y-40411921D02*
X162464152Y-40385746D01*
X162495905Y-64740259D02*
X162498973Y-64720233D01*
X149750000Y-65900000D02*
X149750000Y-64900000D01*
X152500000Y-40500000D02*
X152497693Y-40469714D01*
X129750000Y-93500000D02*
X129750000Y-91500000D01*
X164569725Y-80248248D02*
X164555041Y-80262206D01*
X127250000Y-79200000D02*
X127250000Y-80200000D01*
X124500000Y-71300000D02*
X122500000Y-71300000D01*
X172500000Y-80400000D02*
X172497693Y-80369714D01*
X147250000Y-27000000D02*
X144700000Y-27000000D01*
X162498973Y-51420233D02*
X162500000Y-51400000D01*
X142487550Y-91369461D02*
X142493615Y-91350130D01*
X152479560Y-40411921D02*
X152464152Y-40385746D01*
X154500000Y-31400000D02*
X153500000Y-31400000D01*
X132359872Y-38290827D02*
X132378871Y-38283791D01*
X164509172Y-51459872D02*
X164520439Y-51488078D01*
X154649869Y-51593615D02*
X154679766Y-51598973D01*
X132350130Y-66906384D02*
X132330285Y-66902306D01*
X132397060Y-80225130D02*
X132378871Y-80216208D01*
X172500000Y-67100000D02*
X172497693Y-67069714D01*
X122500000Y-31400000D02*
X122500000Y-25000000D01*
X132498973Y-51420233D02*
X132500000Y-51400000D01*
X172479560Y-53711921D02*
X172464152Y-53685746D01*
X162350130Y-66906384D02*
X162330285Y-66902306D01*
X154535847Y-53685746D02*
X154525130Y-53702939D01*
X159750000Y-91500000D02*
X162300000Y-91500000D01*
X152500000Y-91300000D02*
X152500000Y-87100000D01*
X162430274Y-27048248D02*
X162414253Y-27035847D01*
X152500000Y-60500000D02*
X153500000Y-60500000D01*
X172350130Y-40306384D02*
X172330285Y-40302306D01*
X152414253Y-64864152D02*
X152430274Y-64851751D01*
X124500000Y-87100000D02*
X124500000Y-91300000D01*
X162490827Y-64759872D02*
X162495905Y-64740259D01*
X142350130Y-27006384D02*
X142320233Y-27001026D01*
X142500000Y-67100000D02*
X142497693Y-67069714D01*
X164669714Y-66902306D02*
X164640127Y-66909172D01*
X154500000Y-84600000D02*
X153500000Y-84600000D01*
X162378871Y-80216208D02*
X162350130Y-80206384D01*
X164562206Y-78144958D02*
X164577578Y-78158155D01*
X172437793Y-51544958D02*
X172451751Y-51530274D01*
X134585746Y-27035847D02*
X134562206Y-27055041D01*
X142497693Y-40469714D02*
X142490827Y-40440127D01*
X144669714Y-53602306D02*
X144640127Y-53609172D01*
X124602939Y-64874869D02*
X124630538Y-64887550D01*
X172490827Y-80340127D02*
X172479560Y-80311921D01*
X154500000Y-67100000D02*
X154500000Y-71300000D01*
X154509172Y-38159872D02*
X154520439Y-38188078D01*
X152498973Y-38120233D02*
X152500000Y-38100000D01*
X142464152Y-40385746D02*
X142444958Y-40362206D01*
X154520439Y-91388078D02*
X154535847Y-91414253D01*
X144500000Y-31400000D02*
X143500000Y-31400000D01*
X164569725Y-66948248D02*
X164555041Y-66962206D01*
X164669714Y-40302306D02*
X164640127Y-40309172D01*
X174500000Y-71300000D02*
X172500000Y-71300000D01*
X152490827Y-78059872D02*
X152495905Y-78040259D01*
X162474869Y-64797060D02*
X162483791Y-64778871D01*
X152378871Y-64883791D02*
X152397060Y-64874869D01*
X162437793Y-66955041D02*
X162422421Y-66941844D01*
X124577578Y-91458155D02*
X124602939Y-91474869D01*
X162444958Y-91437793D02*
X162464152Y-91414253D01*
X124669714Y-66902306D02*
X124640127Y-66909172D01*
X169750000Y-91500000D02*
X169750000Y-91500000D01*
X159750000Y-80200000D02*
X159750000Y-79200000D01*
X162483791Y-51478871D02*
X162490827Y-51459872D01*
X139750000Y-78200000D02*
X139750000Y-78200000D01*
X124640127Y-40309172D02*
X124611921Y-40320439D01*
X172350130Y-66906384D02*
X172330285Y-66902306D01*
X162483791Y-64778871D02*
X162490827Y-64759872D01*
X124555041Y-40362206D02*
X124541844Y-40377578D01*
X144611921Y-53620439D02*
X144585746Y-53635847D01*
X134500000Y-40500000D02*
X134500000Y-44700000D01*
X172378871Y-38283791D02*
X172405792Y-38269728D01*
X124509172Y-38159872D02*
X124520439Y-38188078D01*
X172479560Y-67011921D02*
X172464152Y-66985746D01*
X124509172Y-78059872D02*
X124520439Y-78088078D01*
X154669714Y-38297693D02*
X154700000Y-38300000D01*
X144502306Y-78030285D02*
X144509172Y-78059872D01*
X172350130Y-80206384D02*
X172330285Y-80202306D01*
X132430274Y-27048248D02*
X132414253Y-27035847D01*
X144649869Y-38293615D02*
X144679766Y-38298973D01*
X149750000Y-27000000D02*
X149750000Y-25000000D01*
X142422421Y-64858155D02*
X142437793Y-64844958D01*
X153500000Y-58000000D02*
X152500000Y-58000000D01*
X164506384Y-40449869D02*
X164502306Y-40469714D01*
X164506384Y-80349869D02*
X164502306Y-80369714D01*
X172500000Y-58000000D02*
X172500000Y-53800000D01*
X152500000Y-38100000D02*
X152500000Y-33900000D01*
X172500000Y-58000000D02*
X172500000Y-58000000D01*
X172444958Y-40362206D02*
X172430274Y-40348248D01*
X124611921Y-66920439D02*
X124585746Y-66935847D01*
X162500000Y-78000000D02*
X162500000Y-73800000D01*
X134502306Y-91330285D02*
X134509172Y-91359872D01*
X142490827Y-53740127D02*
X142479560Y-53711921D01*
X132397060Y-78174869D02*
X132414253Y-78164152D01*
X124512449Y-80330538D02*
X124506384Y-80349869D01*
X144501026Y-40479766D02*
X144500000Y-40500000D01*
X132464152Y-53685746D02*
X132451751Y-53669725D01*
X164500000Y-31400000D02*
X163500000Y-31400000D01*
X142430274Y-78151751D02*
X142444958Y-78137793D01*
X134700000Y-53600000D02*
X134669714Y-53602306D01*
X154621128Y-64883791D02*
X154649869Y-64893615D01*
X134649869Y-51593615D02*
X134679766Y-51598973D01*
X164500000Y-84600000D02*
X163500000Y-84600000D01*
X162474869Y-38197060D02*
X162483791Y-38178871D01*
X152474869Y-64797060D02*
X152483791Y-64778871D01*
X143500000Y-87100000D02*
X144500000Y-87100000D01*
X152474869Y-78097060D02*
X152483791Y-78078871D01*
X172490827Y-67040127D02*
X172479560Y-67011921D01*
X142495905Y-51440259D02*
X142498973Y-51420233D01*
X152340259Y-91495905D02*
X152359872Y-91490827D01*
X127250000Y-80200000D02*
X124700000Y-80200000D01*
X152464152Y-78114253D02*
X152474869Y-78097060D01*
X152340259Y-64895905D02*
X152359872Y-64890827D01*
X172414253Y-91464152D02*
X172430274Y-91451751D01*
X144501026Y-67079766D02*
X144500000Y-67100000D01*
X152483791Y-78078871D02*
X152490827Y-78059872D01*
X133500000Y-31400000D02*
X132500000Y-31400000D01*
X132498973Y-78020233D02*
X132500000Y-78000000D01*
X134640127Y-66909172D02*
X134611921Y-66920439D01*
X154585746Y-51564152D02*
X154602939Y-51574869D01*
X122500000Y-47200000D02*
X124500000Y-47200000D01*
X152490827Y-64759872D02*
X152495905Y-64740259D01*
X154509172Y-91359872D02*
X154520439Y-91388078D01*
X172498973Y-38120233D02*
X172500000Y-38100000D01*
X142378871Y-80216208D02*
X142350130Y-80206384D01*
X144562206Y-66955041D02*
X144548248Y-66969725D01*
X162397060Y-66925130D02*
X162378871Y-66916208D01*
X134640127Y-40309172D02*
X134611921Y-40320439D01*
X152451751Y-53669725D02*
X152430274Y-53648248D01*
X172500000Y-44700000D02*
X172500000Y-44700000D01*
X164700000Y-66900000D02*
X164669714Y-66902306D01*
X169750000Y-65900000D02*
X169750000Y-64900000D01*
X172378871Y-51583791D02*
X172397060Y-51574869D01*
X124569725Y-53648248D02*
X124555041Y-53662206D01*
X162397060Y-64874869D02*
X162414253Y-64864152D01*
X124649869Y-64893615D02*
X124679766Y-64898973D01*
X144555041Y-51537793D02*
X144569725Y-51551751D01*
X172397060Y-51574869D02*
X172414253Y-51564152D01*
X132340259Y-91495905D02*
X132359872Y-91490827D01*
X162378871Y-38283791D02*
X162405792Y-38269728D01*
X164509172Y-91359872D02*
X164520439Y-91388078D01*
X127250000Y-65900000D02*
X127250000Y-66900000D01*
X124555041Y-66962206D02*
X124535847Y-66985746D01*
X142469728Y-38205792D02*
X142479560Y-38188078D01*
X122500000Y-87100000D02*
X124500000Y-87100000D01*
X154602939Y-91474869D02*
X154621128Y-91483791D01*
X124502306Y-38130285D02*
X124509172Y-38159872D01*
X172320233Y-38298973D02*
X172340259Y-38295905D01*
X142340259Y-64895905D02*
X142369461Y-64887550D01*
X134669714Y-53602306D02*
X134640127Y-53609172D01*
X124525130Y-53702939D02*
X124516208Y-53721128D01*
X172483791Y-91378871D02*
X172490827Y-91359872D01*
X172500000Y-71300000D02*
X172500000Y-71300000D01*
X164535847Y-78114253D02*
X164548248Y-78130274D01*
X144535847Y-27085746D02*
X144520439Y-27111921D01*
X144669714Y-40302306D02*
X144640127Y-40309172D01*
X144500000Y-27200000D02*
X144500000Y-31400000D01*
X169750000Y-91500000D02*
X172300000Y-91500000D01*
X117500000Y-20000000D02*
X117500000Y-98500000D01*
X154569725Y-40348248D02*
X154548248Y-40369725D01*
X142350130Y-80206384D02*
X142330285Y-80202306D01*
X139750000Y-91500000D02*
X142300000Y-91500000D01*
X132483791Y-51478871D02*
X132490827Y-51459872D01*
X134500000Y-51400000D02*
X134502306Y-51430285D01*
X154506384Y-80349869D02*
X154501026Y-80379766D01*
X162437793Y-38244958D02*
X162451751Y-38230274D01*
X172397060Y-64874869D02*
X172414253Y-64864152D01*
X162464152Y-38214253D02*
X162474869Y-38197060D01*
X132479560Y-80311921D02*
X132464152Y-80285746D01*
X124577578Y-78158155D02*
X124602939Y-78174869D01*
X124500000Y-91300000D02*
X124502306Y-91330285D01*
X134569725Y-38251751D02*
X134594207Y-38269728D01*
X152437793Y-66955041D02*
X152422421Y-66941844D01*
X122500000Y-73800000D02*
X124500000Y-73800000D01*
X124500000Y-73800000D02*
X124500000Y-78000000D01*
X144630538Y-38287550D02*
X144649869Y-38293615D01*
X154500000Y-73800000D02*
X154500000Y-78000000D01*
X143500000Y-73800000D02*
X144500000Y-73800000D01*
X134585746Y-80235847D02*
X134562206Y-80255041D01*
X132464152Y-27085746D02*
X132444958Y-27062206D01*
X144500000Y-64700000D02*
X144502306Y-64730285D01*
X134502306Y-51430285D02*
X134509172Y-51459872D01*
X152350130Y-66906384D02*
X152330285Y-66902306D01*
X167250000Y-53600000D02*
X164700000Y-53600000D01*
X159750000Y-93500000D02*
X159750000Y-91500000D01*
X132483791Y-64778871D02*
X132490827Y-64759872D01*
X124548248Y-51530274D02*
X124569725Y-51551751D01*
X134520439Y-64788078D02*
X134535847Y-64814253D01*
X154555041Y-80262206D02*
X154535847Y-80285746D01*
X172500000Y-71300000D02*
X172500000Y-67100000D01*
X164500000Y-71300000D02*
X163500000Y-71300000D01*
X159750000Y-38300000D02*
X162300000Y-38300000D01*
X172422421Y-80241844D02*
X172397060Y-80225130D01*
X144569725Y-51551751D02*
X144585746Y-51564152D01*
X152330285Y-80202306D02*
X152300000Y-80200000D01*
X132414253Y-27035847D02*
X132388078Y-27020439D01*
X124611921Y-80220439D02*
X124585746Y-80235847D01*
X144504094Y-80359740D02*
X144501026Y-80379766D01*
X134502306Y-78030285D02*
X134509172Y-78059872D01*
X164525130Y-27102939D02*
X164516208Y-27121128D01*
X167250000Y-51600000D02*
X167250000Y-52600000D01*
X162490827Y-67040127D02*
X162479560Y-67011921D01*
X124535847Y-66985746D02*
X124525130Y-67002939D01*
X172414253Y-53635847D02*
X172397060Y-53625130D01*
X149750000Y-78200000D02*
X152300000Y-78200000D01*
X144502306Y-51430285D02*
X144509172Y-51459872D01*
X134506384Y-27149869D02*
X134501026Y-27179766D01*
X162500000Y-71300000D02*
X162500000Y-67100000D01*
X142388078Y-64879560D02*
X142405792Y-64869728D01*
X172464152Y-66985746D02*
X172451751Y-66969725D01*
X124500000Y-33900000D02*
X124500000Y-33900000D01*
X152359872Y-64890827D02*
X152378871Y-64883791D01*
X132350130Y-53606384D02*
X132320233Y-53601026D01*
X154500000Y-80400000D02*
X154500000Y-84600000D01*
X154501026Y-27179766D02*
X154500000Y-27200000D01*
X152320233Y-53601026D02*
X152300000Y-53600000D01*
X162320233Y-38298973D02*
X162340259Y-38295905D01*
X147250000Y-40300000D02*
X144700000Y-40300000D01*
X137250000Y-25000000D02*
X137250000Y-27000000D01*
X124535847Y-51514253D02*
X124548248Y-51530274D01*
X152300000Y-38300000D02*
X152320233Y-38298973D01*
X154525130Y-40402939D02*
X154512449Y-40430538D01*
X164700000Y-91500000D02*
X167250000Y-91500000D01*
X162490827Y-67040127D02*
X162490827Y-67040127D01*
X154585746Y-38264152D02*
X154611921Y-38279560D01*
X142414253Y-38264152D02*
X142430274Y-38251751D01*
X152397060Y-66925130D02*
X152378871Y-66916208D01*
X132500000Y-84600000D02*
X132500000Y-80400000D01*
X132300000Y-40300000D02*
X129750000Y-40300000D01*
X154500000Y-87100000D02*
X154500000Y-91300000D01*
X164506384Y-27149869D02*
X164502306Y-27169714D01*
X172500000Y-40500000D02*
X172497693Y-40469714D01*
X142497693Y-91330285D02*
X142500000Y-91300000D01*
X154502306Y-51430285D02*
X154509172Y-51459872D01*
X159750000Y-91500000D02*
X159750000Y-91500000D01*
X164502306Y-53769714D02*
X164500000Y-53800000D01*
X152497693Y-53769714D02*
X152490827Y-53740127D01*
X139750000Y-39300000D02*
X139750000Y-38300000D01*
X144611921Y-40320439D02*
X144585746Y-40335847D01*
X152430274Y-27048248D02*
X152414253Y-27035847D01*
X163500000Y-84600000D02*
X162500000Y-84600000D01*
X132500000Y-71300000D02*
X132500000Y-67100000D01*
X164700000Y-64900000D02*
X167250000Y-64900000D01*
X152451751Y-80269725D02*
X152437793Y-80255041D01*
X144520439Y-78088078D02*
X144535847Y-78114253D01*
X134530271Y-27094207D02*
X134520439Y-27111921D01*
X164649869Y-38293615D02*
X164669714Y-38297693D01*
X154500000Y-44700000D02*
X153500000Y-44700000D01*
X144562206Y-91444958D02*
X144577578Y-91458155D01*
X154630538Y-38287550D02*
X154649869Y-38293615D01*
X124506384Y-53749869D02*
X124502306Y-53769714D01*
X144679766Y-64898973D02*
X144700000Y-64900000D01*
X144535847Y-66985746D02*
X144520439Y-67011921D01*
X154649869Y-78193615D02*
X154669714Y-78197693D01*
X172497693Y-67069714D02*
X172490827Y-67040127D01*
X142469728Y-78105792D02*
X142479560Y-78088078D01*
X142397060Y-80225130D02*
X142378871Y-80216208D01*
X124541844Y-40377578D02*
X124525130Y-40402939D01*
X167250000Y-52600000D02*
X167250000Y-53600000D01*
X154501026Y-53779766D02*
X154500000Y-53800000D01*
X167250000Y-27000000D02*
X164700000Y-27000000D01*
X144630538Y-64887550D02*
X144649869Y-64893615D01*
X132458155Y-38222421D02*
X132469728Y-38205792D01*
X152497693Y-53769714D02*
X152497693Y-53769714D01*
X172483791Y-78078871D02*
X172490827Y-78059872D01*
X144535847Y-80285746D02*
X144520439Y-80311921D01*
X162378871Y-91483791D02*
X162397060Y-91474869D01*
X124621128Y-91483791D02*
X124649869Y-91493615D01*
X152500000Y-87100000D02*
X153500000Y-87100000D01*
X152300000Y-78200000D02*
X152320233Y-78198973D01*
X124700000Y-64900000D02*
X127250000Y-64900000D01*
X137250000Y-53600000D02*
X134700000Y-53600000D01*
X124506384Y-27149869D02*
X124501026Y-27179766D01*
X132500000Y-60500000D02*
X133500000Y-60500000D01*
X172340259Y-38295905D02*
X172359872Y-38290827D01*
X149750000Y-91500000D02*
X149750000Y-91500000D01*
X144700000Y-40300000D02*
X144669714Y-40302306D01*
X122500000Y-93500000D02*
X122500000Y-87100000D01*
X144535847Y-40385746D02*
X144520439Y-40411921D01*
X152378871Y-38283791D02*
X152397060Y-38274869D01*
X162474869Y-78097060D02*
X162483791Y-78078871D01*
X172300000Y-64900000D02*
X172320233Y-64898973D01*
X132469728Y-91405792D02*
X132483791Y-91378871D01*
X172422421Y-38258155D02*
X172437793Y-38244958D01*
X152369461Y-40312449D02*
X152350130Y-40306384D01*
X162500000Y-27200000D02*
X162497693Y-27169714D01*
X132490827Y-64759872D02*
X132495905Y-64740259D01*
X172437793Y-66955041D02*
X172422421Y-66941844D01*
X162320233Y-78198973D02*
X162340259Y-78195905D01*
X152479560Y-80311921D02*
X152464152Y-80285746D01*
X132388078Y-40320439D02*
X132369461Y-40312449D01*
X132378871Y-38283791D02*
X132397060Y-38274869D01*
X172369461Y-40312449D02*
X172350130Y-40306384D01*
X164500000Y-91300000D02*
X164502306Y-91330285D01*
X142300000Y-78200000D02*
X142320233Y-78198973D01*
X174500000Y-58000000D02*
X172500000Y-58000000D01*
X144640127Y-66909172D02*
X144611921Y-66920439D01*
X157250000Y-64900000D02*
X157250000Y-65900000D01*
X164548248Y-64830274D02*
X164562206Y-64844958D01*
X129750000Y-27000000D02*
X129750000Y-25000000D01*
X172500000Y-51400000D02*
X172500000Y-47200000D01*
X134585746Y-40335847D02*
X134562206Y-40355041D01*
X124585746Y-27035847D02*
X124569725Y-27048248D01*
X142497693Y-78030285D02*
X142500000Y-78000000D01*
X142350130Y-53606384D02*
X142320233Y-53601026D01*
X172479560Y-40411921D02*
X172464152Y-40385746D01*
X134500000Y-31400000D02*
X133500000Y-31400000D01*
X159750000Y-40300000D02*
X159750000Y-39300000D01*
X124630538Y-38287550D02*
X124649869Y-38293615D01*
X152490827Y-51459872D02*
X152495905Y-51440259D01*
X127250000Y-27000000D02*
X124700000Y-27000000D01*
X129750000Y-91500000D02*
X129750000Y-91500000D01*
X132483791Y-78078871D02*
X132490827Y-78059872D01*
X157250000Y-93500000D02*
X149750000Y-93500000D01*
X172498973Y-64720233D02*
X172500000Y-64700000D01*
X124525130Y-67002939D02*
X124512449Y-67030538D01*
X154602939Y-51574869D02*
X154621128Y-51583791D01*
X144700000Y-78200000D02*
X147250000Y-78200000D01*
X164611921Y-53620439D02*
X164585746Y-53635847D01*
X162451751Y-66969725D02*
X162437793Y-66955041D01*
X134506384Y-53749869D02*
X134502306Y-53769714D01*
X134562206Y-91444958D02*
X134577578Y-91458155D01*
X144700000Y-51600000D02*
X147250000Y-51600000D01*
X152479560Y-38188078D02*
X152487550Y-38169461D01*
X152500000Y-51400000D02*
X152500000Y-47200000D01*
X154535847Y-38214253D02*
X154548248Y-38230274D01*
X132458155Y-91422421D02*
X132469728Y-91405792D01*
X172330285Y-66902306D02*
X172300000Y-66900000D01*
X132378871Y-64883791D02*
X132397060Y-64874869D01*
X162497693Y-40469714D02*
X162490827Y-40440127D01*
X154577578Y-78158155D02*
X154602939Y-78174869D01*
X144501026Y-53779766D02*
X144500000Y-53800000D01*
X154502306Y-64730285D02*
X154509172Y-64759872D01*
X134502306Y-80369714D02*
X134500000Y-80400000D01*
X134669714Y-66902306D02*
X134640127Y-66909172D01*
X142320233Y-51598973D02*
X142340259Y-51595905D01*
X144602939Y-64874869D02*
X144630538Y-64887550D01*
X167250000Y-25000000D02*
X167250000Y-27000000D01*
X124555041Y-38237793D02*
X124569725Y-38251751D01*
X142458155Y-78122421D02*
X142469728Y-78105792D01*
X172490827Y-51459872D02*
X172495905Y-51440259D01*
X122500000Y-84600000D02*
X122500000Y-73800000D01*
X162498973Y-38120233D02*
X162500000Y-38100000D01*
X133500000Y-71300000D02*
X132500000Y-71300000D01*
X134520439Y-91388078D02*
X134535847Y-91414253D01*
X164516208Y-40421128D02*
X164506384Y-40449869D01*
X152397060Y-64874869D02*
X152414253Y-64864152D01*
X129750000Y-51600000D02*
X132300000Y-51600000D01*
X172369461Y-53612449D02*
X172350130Y-53606384D01*
X172300000Y-91500000D02*
X172320233Y-91498973D01*
X152397060Y-53625130D02*
X152378871Y-53616208D01*
X124500000Y-31400000D02*
X122500000Y-31400000D01*
X164535847Y-51514253D02*
X164548248Y-51530274D01*
X132414253Y-53635847D02*
X132397060Y-53625130D01*
X152378871Y-80216208D02*
X152350130Y-80206384D01*
X169750000Y-93500000D02*
X169750000Y-91500000D01*
X164500000Y-87100000D02*
X164500000Y-91300000D01*
X134502306Y-67069714D02*
X134500000Y-67100000D01*
X144679766Y-51598973D02*
X144700000Y-51600000D01*
X144535847Y-91414253D02*
X144548248Y-91430274D01*
X152500000Y-73800000D02*
X153500000Y-73800000D01*
X142397060Y-53625130D02*
X142369461Y-53612449D01*
X132320233Y-38298973D02*
X132340259Y-38295905D01*
X152500000Y-71300000D02*
X152500000Y-67100000D01*
X147250000Y-51600000D02*
X147250000Y-52600000D01*
X162414253Y-78164152D02*
X162430274Y-78151751D01*
X174500000Y-25000000D02*
X174500000Y-31400000D01*
X152500000Y-78000000D02*
X152500000Y-73800000D01*
X164520439Y-91388078D02*
X164535847Y-91414253D01*
X152330285Y-27002306D02*
X152300000Y-27000000D01*
X147250000Y-80200000D02*
X144700000Y-80200000D01*
X172500000Y-31400000D02*
X172500000Y-31400000D01*
X162414253Y-27035847D02*
X162388078Y-27020439D01*
X162330285Y-27002306D02*
X162300000Y-27000000D01*
X152479560Y-53711921D02*
X152464152Y-53685746D01*
X169750000Y-79200000D02*
X169750000Y-78200000D01*
X132397060Y-91474869D02*
X132414253Y-91464152D01*
X152458155Y-38222421D02*
X152469728Y-38205792D01*
X154520439Y-38188078D02*
X154535847Y-38214253D01*
X154548248Y-51530274D02*
X154569725Y-51551751D01*
X142430274Y-53648248D02*
X142414253Y-53635847D01*
X172414253Y-51564152D02*
X172437793Y-51544958D01*
X142483791Y-51478871D02*
X142490827Y-51459872D01*
X174500000Y-60500000D02*
X174500000Y-71300000D01*
X152498973Y-78020233D02*
X152500000Y-78000000D01*
X132464152Y-64814253D02*
X132474869Y-64797060D01*
X134506384Y-80349869D02*
X134502306Y-80369714D01*
X162490827Y-27140127D02*
X162479560Y-27111921D01*
X124548248Y-91430274D02*
X124562206Y-91444958D01*
X162397060Y-91474869D02*
X162414253Y-91464152D01*
X142451751Y-51530274D02*
X142464152Y-51514253D01*
X142479560Y-38188078D02*
X142487550Y-38169461D01*
X152500000Y-58000000D02*
X152500000Y-53800000D01*
X154669714Y-80202306D02*
X154640127Y-80209172D01*
X162397060Y-78174869D02*
X162414253Y-78164152D01*
X154500000Y-51400000D02*
X154502306Y-51430285D01*
X132300000Y-38300000D02*
X132320233Y-38298973D01*
X157250000Y-52600000D02*
X157250000Y-53600000D01*
X144602939Y-91474869D02*
X144621128Y-91483791D01*
X144500000Y-44700000D02*
X143500000Y-44700000D01*
X132464152Y-40385746D02*
X132444958Y-40362206D01*
X179500000Y-20000000D02*
X117500000Y-20000000D01*
X162378871Y-78183791D02*
X162397060Y-78174869D01*
X132479560Y-27111921D02*
X132464152Y-27085746D01*
X132500000Y-73800000D02*
X133500000Y-73800000D01*
X154500000Y-91300000D02*
X154502306Y-91330285D01*
X142490827Y-27140127D02*
X142479560Y-27111921D01*
X142498973Y-64720233D02*
X142500000Y-64700000D01*
X144640127Y-40309172D02*
X144611921Y-40320439D01*
X144611921Y-80220439D02*
X144585746Y-80235847D01*
X172498973Y-78020233D02*
X172500000Y-78000000D01*
X147250000Y-66900000D02*
X144700000Y-66900000D01*
X124525130Y-27102939D02*
X124512449Y-27130538D01*
X154525130Y-67002939D02*
X154512449Y-67030538D01*
X144504094Y-53759740D02*
X144501026Y-53779766D01*
X164630538Y-51587550D02*
X164649869Y-51593615D01*
X152500000Y-64700000D02*
X152500000Y-60500000D01*
X157250000Y-91500000D02*
X157250000Y-93500000D01*
X142422421Y-66941844D02*
X142397060Y-66925130D01*
X124569725Y-80248248D02*
X124555041Y-80262206D01*
X164500000Y-51400000D02*
X164502306Y-51430285D01*
X143500000Y-71300000D02*
X142500000Y-71300000D01*
X172437793Y-80255041D02*
X172422421Y-80241844D01*
X124502306Y-80369714D02*
X124500000Y-80400000D01*
X154506384Y-40449869D02*
X154501026Y-40479766D01*
X144679766Y-38298973D02*
X144700000Y-38300000D01*
X132444958Y-91437793D02*
X132458155Y-91422421D01*
X152495905Y-51440259D02*
X152498973Y-51420233D01*
X134502306Y-38130285D02*
X134509172Y-38159872D01*
X164541844Y-53677578D02*
X164525130Y-53702939D01*
X132340259Y-51595905D02*
X132359872Y-51590827D01*
X144577578Y-78158155D02*
X144602939Y-78174869D01*
X144520439Y-80311921D02*
X144509172Y-80340127D01*
X154535847Y-40385746D02*
X154525130Y-40402939D01*
X144602939Y-78174869D02*
X144621128Y-78183791D01*
X142479560Y-40411921D02*
X142464152Y-40385746D01*
X162320233Y-64898973D02*
X162340259Y-64895905D01*
X172444958Y-27062206D02*
X172430274Y-27048248D01*
X172330285Y-80202306D02*
X172300000Y-80200000D01*
X142430274Y-38251751D02*
X142444958Y-38237793D01*
X172490827Y-53740127D02*
X172479560Y-53711921D01*
X152397060Y-80225130D02*
X152378871Y-80216208D01*
X144562206Y-27055041D02*
X144548248Y-27069725D01*
X132300000Y-78200000D02*
X132320233Y-78198973D01*
X124509172Y-64759872D02*
X124520439Y-64788078D01*
X144535847Y-38214253D02*
X144555041Y-38237793D01*
X147250000Y-39300000D02*
X147250000Y-40300000D01*
X172495905Y-38140259D02*
X172498973Y-38120233D01*
X134640127Y-80209172D02*
X134611921Y-80220439D01*
X134548248Y-66969725D02*
X134535847Y-66985746D01*
X124500000Y-64700000D02*
X124502306Y-64730285D01*
X152483791Y-91378871D02*
X152490827Y-91359872D01*
X142300000Y-27000000D02*
X139750000Y-27000000D01*
X132320233Y-51598973D02*
X132340259Y-51595905D01*
X124611921Y-27020439D02*
X124585746Y-27035847D01*
X144700000Y-66900000D02*
X144669714Y-66902306D01*
X164502306Y-40469714D02*
X164500000Y-40500000D01*
X152464152Y-51514253D02*
X152474869Y-51497060D01*
X132493615Y-38150130D02*
X132497693Y-38130285D01*
X134649869Y-91493615D02*
X134669714Y-91497693D01*
X132500000Y-53800000D02*
X132500000Y-53800000D01*
X142500000Y-78000000D02*
X142500000Y-73800000D01*
X142437793Y-64844958D02*
X142451751Y-64830274D01*
X132490827Y-27140127D02*
X132479560Y-27111921D01*
X152359872Y-78190827D02*
X152378871Y-78183791D01*
X164569725Y-38251751D02*
X164585746Y-38264152D01*
X172378871Y-64883791D02*
X172397060Y-64874869D01*
X124585746Y-38264152D02*
X124611921Y-38279560D01*
X147250000Y-38300000D02*
X147250000Y-39300000D01*
X142359872Y-91490827D02*
X142378871Y-91483791D01*
X172414253Y-40335847D02*
X172388078Y-40320439D01*
X164640127Y-27009172D02*
X164611921Y-27020439D01*
X142320233Y-78198973D02*
X142340259Y-78195905D01*
X152490827Y-91359872D02*
X152495905Y-91340259D01*
X174500000Y-87100000D02*
X174500000Y-93500000D01*
X142500000Y-64700000D02*
X142500000Y-60500000D01*
X132378871Y-91483791D02*
X132397060Y-91474869D01*
X153500000Y-31400000D02*
X152500000Y-31400000D01*
X134700000Y-91500000D02*
X137250000Y-91500000D01*
X147250000Y-25000000D02*
X147250000Y-27000000D01*
X164611921Y-38279560D02*
X164630538Y-38287550D01*
X162320233Y-51598973D02*
X162340259Y-51595905D01*
X142469728Y-91405792D02*
X142479560Y-91388078D01*
X124611921Y-40320439D02*
X124585746Y-40335847D01*
X154700000Y-27000000D02*
X154669714Y-27002306D01*
X142500000Y-80400000D02*
X142497693Y-80369714D01*
X132500000Y-27200000D02*
X132497693Y-27169714D01*
X132437793Y-80255041D02*
X132422421Y-80241844D01*
X154535847Y-91414253D02*
X154548248Y-91430274D01*
X142388078Y-51579560D02*
X142405792Y-51569728D01*
X152464152Y-66985746D02*
X152451751Y-66969725D01*
X144509172Y-91359872D02*
X144520439Y-91388078D01*
X134509172Y-91359872D02*
X134520439Y-91388078D01*
X162500000Y-84600000D02*
X162500000Y-80400000D01*
X152464152Y-64814253D02*
X152474869Y-64797060D01*
X152483791Y-51478871D02*
X152490827Y-51459872D01*
X162451751Y-38230274D02*
X162464152Y-38214253D01*
X134621128Y-91483791D02*
X134649869Y-91493615D01*
X152340259Y-51595905D02*
X152359872Y-51590827D01*
X162300000Y-64900000D02*
X162320233Y-64898973D01*
X132430274Y-78151751D02*
X132444958Y-78137793D01*
X172474869Y-78097060D02*
X172483791Y-78078871D01*
X134500000Y-84600000D02*
X133500000Y-84600000D01*
X134500000Y-33900000D02*
X134500000Y-38100000D01*
X142483791Y-64778871D02*
X142490827Y-64759872D01*
X124500000Y-47200000D02*
X124500000Y-47200000D01*
X134700000Y-78200000D02*
X137250000Y-78200000D01*
X164500000Y-47200000D02*
X164500000Y-51400000D01*
X132378871Y-78183791D02*
X132397060Y-78174869D01*
X164649869Y-51593615D02*
X164679766Y-51598973D01*
X159750000Y-65900000D02*
X159750000Y-64900000D01*
X164585746Y-53635847D02*
X164569725Y-53648248D01*
X157250000Y-78200000D02*
X157250000Y-79200000D01*
X164562206Y-51544958D02*
X164585746Y-51564152D01*
X172490827Y-40440127D02*
X172479560Y-40411921D01*
X132300000Y-51600000D02*
X132320233Y-51598973D01*
X154640127Y-27009172D02*
X154611921Y-27020439D01*
X164585746Y-64864152D02*
X164602939Y-64874869D01*
X154569725Y-53648248D02*
X154548248Y-53669725D01*
X152330285Y-40302306D02*
X152300000Y-40300000D01*
X122500000Y-71300000D02*
X122500000Y-60500000D01*
X164621128Y-91483791D02*
X164649869Y-91493615D01*
X154548248Y-27069725D02*
X154535847Y-27085746D01*
X124535847Y-64814253D02*
X124548248Y-64830274D01*
X144501026Y-80379766D02*
X144500000Y-80400000D01*
X134640127Y-27009172D02*
X134611921Y-27020439D01*
X132451751Y-80269725D02*
X132437793Y-80255041D01*
X149750000Y-52600000D02*
X149750000Y-51600000D01*
X172388078Y-40320439D02*
X172369461Y-40312449D01*
X124649869Y-38293615D02*
X124679766Y-38298973D01*
X152464152Y-40385746D02*
X152451751Y-40369725D01*
X133500000Y-84600000D02*
X132500000Y-84600000D01*
X124501026Y-40479766D02*
X124500000Y-40500000D01*
X152451751Y-40369725D02*
X152430274Y-40348248D01*
X167250000Y-80200000D02*
X164700000Y-80200000D01*
X163500000Y-44700000D02*
X162500000Y-44700000D01*
X154548248Y-53669725D02*
X154535847Y-53685746D01*
X147250000Y-79200000D02*
X147250000Y-80200000D01*
X164569725Y-27048248D02*
X164555041Y-27062206D01*
X172369461Y-27012449D02*
X172350130Y-27006384D01*
X162479560Y-53711921D02*
X162464152Y-53685746D01*
X134548248Y-78130274D02*
X134562206Y-78144958D01*
X149750000Y-66900000D02*
X149750000Y-65900000D01*
X162300000Y-80200000D02*
X159750000Y-80200000D01*
X142359872Y-38290827D02*
X142378871Y-38283791D01*
X154502306Y-78030285D02*
X154509172Y-78059872D01*
X144520439Y-91388078D02*
X144535847Y-91414253D01*
X172359872Y-51590827D02*
X172378871Y-51583791D01*
X134520439Y-53711921D02*
X134512449Y-53730538D01*
X152497693Y-80369714D02*
X152490827Y-80340127D01*
X162340259Y-78195905D02*
X162359872Y-78190827D01*
X142500000Y-38100000D02*
X142500000Y-33900000D01*
X154700000Y-91500000D02*
X157250000Y-91500000D01*
X134594207Y-38269728D02*
X134611921Y-38279560D01*
X157250000Y-40300000D02*
X154700000Y-40300000D01*
X134630538Y-64887550D02*
X134649869Y-64893615D01*
X162340259Y-64895905D02*
X162359872Y-64890827D01*
X172300000Y-53600000D02*
X169750000Y-53600000D01*
X162497693Y-67069714D02*
X162490827Y-67040127D01*
X154500000Y-58000000D02*
X153500000Y-58000000D01*
X142500000Y-31400000D02*
X142500000Y-27200000D01*
X134555041Y-38237793D02*
X134569725Y-38251751D01*
X132414253Y-51564152D02*
X132437793Y-51544958D01*
X162430274Y-40348248D02*
X162414253Y-40335847D01*
X137250000Y-38300000D02*
X137250000Y-39300000D01*
X132495905Y-78040259D02*
X132498973Y-78020233D01*
X164516208Y-53721128D02*
X164506384Y-53749869D01*
X129750000Y-53600000D02*
X129750000Y-52600000D01*
X172497693Y-27169714D02*
X172490827Y-27140127D01*
X154585746Y-40335847D02*
X154569725Y-40348248D01*
X132350130Y-80206384D02*
X132330285Y-80202306D01*
X162350130Y-27006384D02*
X162330285Y-27002306D01*
X164669714Y-80202306D02*
X164640127Y-80209172D01*
X152350130Y-53606384D02*
X152320233Y-53601026D01*
X132500000Y-67100000D02*
X132497693Y-67069714D01*
X132340259Y-38295905D02*
X132359872Y-38290827D01*
X142414253Y-40335847D02*
X142388078Y-40320439D01*
X142479560Y-78088078D02*
X142487550Y-78069461D01*
X124500000Y-27200000D02*
X124500000Y-31400000D01*
X144501026Y-27179766D02*
X144500000Y-27200000D01*
X162430274Y-78151751D02*
X162444958Y-78137793D01*
X162483791Y-78078871D02*
X162490827Y-78059872D01*
X144500000Y-80400000D02*
X144500000Y-84600000D01*
X134611921Y-66920439D02*
X134585746Y-66935847D01*
X134535847Y-80285746D02*
X134520439Y-80311921D01*
X164500000Y-33900000D02*
X164500000Y-38100000D01*
X164630538Y-64887550D02*
X164649869Y-64893615D01*
X142444958Y-38237793D02*
X142458155Y-38222421D01*
X172451751Y-66969725D02*
X172437793Y-66955041D01*
X144700000Y-64900000D02*
X147250000Y-64900000D01*
X162300000Y-38300000D02*
X162320233Y-38298973D01*
X124630538Y-51587550D02*
X124649869Y-51593615D01*
X132500000Y-67100000D02*
X132500000Y-67100000D01*
X154500000Y-33900000D02*
X154500000Y-38100000D01*
X132500000Y-33900000D02*
X133500000Y-33900000D01*
X152388078Y-40320439D02*
X152369461Y-40312449D01*
X144585746Y-66935847D02*
X144562206Y-66955041D01*
X169750000Y-39300000D02*
X169750000Y-38300000D01*
X164500000Y-67100000D02*
X164500000Y-71300000D01*
X142479560Y-91388078D02*
X142487550Y-91369461D01*
X152414253Y-27035847D02*
X152388078Y-27020439D01*
X142405792Y-51569728D02*
X142422421Y-51558155D01*
X154569725Y-38251751D02*
X154585746Y-38264152D01*
X172414253Y-78164152D02*
X172430274Y-78151751D01*
X154525130Y-53702939D02*
X154516208Y-53721128D01*
X154500000Y-40500000D02*
X154500000Y-44700000D01*
X132320233Y-78198973D02*
X132340259Y-78195905D01*
X157250000Y-25000000D02*
X157250000Y-27000000D01*
X142369461Y-40312449D02*
X142350130Y-40306384D01*
X152490827Y-40440127D02*
X152479560Y-40411921D01*
X134585746Y-53635847D02*
X134569725Y-53648248D01*
X124585746Y-80235847D02*
X124569725Y-80248248D01*
X134562206Y-66955041D02*
X134548248Y-66969725D01*
X154509172Y-78059872D02*
X154520439Y-78088078D01*
X117500000Y-98500000D02*
X117500000Y-98500000D01*
X134679766Y-51598973D02*
X134700000Y-51600000D01*
X162414253Y-40335847D02*
X162388078Y-40320439D01*
X142500000Y-33900000D02*
X143500000Y-33900000D01*
X172464152Y-27085746D02*
X172444958Y-27062206D01*
X152300000Y-27000000D02*
X149750000Y-27000000D01*
X144649869Y-64893615D02*
X144679766Y-64898973D01*
X162490827Y-51459872D02*
X162495905Y-51440259D01*
X159750000Y-27000000D02*
X159750000Y-25000000D01*
X142437793Y-51544958D02*
X142451751Y-51530274D01*
X162479560Y-27111921D02*
X162464152Y-27085746D01*
X142497693Y-53769714D02*
X142490827Y-53740127D01*
X162464152Y-51514253D02*
X162474869Y-51497060D01*
X132500000Y-51400000D02*
X132500000Y-47200000D01*
X162451751Y-53669725D02*
X162437793Y-53655041D01*
X134535847Y-64814253D02*
X134548248Y-64830274D01*
X122500000Y-58000000D02*
X122500000Y-47200000D01*
X124700000Y-53600000D02*
X124669714Y-53602306D01*
X124512449Y-40430538D02*
X124506384Y-40449869D01*
X172500000Y-47200000D02*
X174500000Y-47200000D01*
X142300000Y-66900000D02*
X139750000Y-66900000D01*
X162464152Y-27085746D02*
X162444958Y-27062206D01*
X164649869Y-64893615D02*
X164679766Y-64898973D01*
X172300000Y-40300000D02*
X169750000Y-40300000D01*
X172500000Y-78000000D02*
X172500000Y-73800000D01*
X154585746Y-64864152D02*
X154602939Y-64874869D01*
X132500000Y-84600000D02*
X132500000Y-84600000D01*
X162388078Y-40320439D02*
X162369461Y-40312449D01*
X162422421Y-38258155D02*
X162437793Y-38244958D01*
X144509172Y-38159872D02*
X144520439Y-38188078D01*
X124569725Y-38251751D02*
X124585746Y-38264152D01*
X132414253Y-91464152D02*
X132430274Y-91451751D01*
X162498973Y-64720233D02*
X162500000Y-64700000D01*
X152444958Y-91437793D02*
X152464152Y-91414253D01*
X132483791Y-91378871D02*
X132490827Y-91359872D01*
X174500000Y-84600000D02*
X172500000Y-84600000D01*
X132414253Y-64864152D02*
X132437793Y-64844958D01*
X132320233Y-27001026D02*
X132300000Y-27000000D01*
X132500000Y-53800000D02*
X132497693Y-53769714D01*
X164500000Y-78000000D02*
X164502306Y-78030285D01*
X172451751Y-53669725D02*
X172437793Y-53655041D01*
X162490827Y-78059872D02*
X162495905Y-78040259D01*
X164585746Y-80235847D02*
X164569725Y-80248248D01*
X169750000Y-38300000D02*
X172300000Y-38300000D01*
X144500000Y-71300000D02*
X143500000Y-71300000D01*
X154700000Y-38300000D02*
X157250000Y-38300000D01*
X134630538Y-38287550D02*
X134649869Y-38293615D01*
X164541844Y-40377578D02*
X164525130Y-40402939D01*
X142500000Y-47200000D02*
X143500000Y-47200000D01*
X144669714Y-80202306D02*
X144640127Y-80209172D01*
X174500000Y-47200000D02*
X174500000Y-58000000D01*
X162497693Y-53769714D02*
X162497693Y-53769714D01*
X132500000Y-40500000D02*
X132500000Y-40500000D01*
X132397060Y-66925130D02*
X132378871Y-66916208D01*
X129750000Y-79200000D02*
X129750000Y-78200000D01*
X142397060Y-91474869D02*
X142414253Y-91464152D01*
X163500000Y-71300000D02*
X162500000Y-71300000D01*
X154500000Y-60500000D02*
X154500000Y-64700000D01*
X142430274Y-40348248D02*
X142414253Y-40335847D01*
X127250000Y-53600000D02*
X124700000Y-53600000D01*
X143500000Y-84600000D02*
X142500000Y-84600000D01*
X154501026Y-40479766D02*
X154500000Y-40500000D01*
X162500000Y-44700000D02*
X162500000Y-40500000D01*
X124502306Y-91330285D02*
X124509172Y-91359872D01*
X162464152Y-91414253D02*
X162474869Y-91397060D01*
X164569725Y-53648248D02*
X164555041Y-53662206D01*
X142340259Y-51595905D02*
X142369461Y-51587550D01*
X134520439Y-40411921D02*
X134512449Y-40430538D01*
X172422421Y-66941844D02*
X172397060Y-66925130D01*
X124649869Y-51593615D02*
X124679766Y-51598973D01*
X162500000Y-40500000D02*
X162497693Y-40469714D01*
X134520439Y-38188078D02*
X134535847Y-38214253D01*
X167250000Y-27000000D02*
X167250000Y-27000000D01*
X133500000Y-33900000D02*
X134500000Y-33900000D01*
X137250000Y-93500000D02*
X129750000Y-93500000D01*
X172397060Y-78174869D02*
X172414253Y-78164152D01*
X142369461Y-27012449D02*
X142350130Y-27006384D01*
X164555041Y-27062206D02*
X164541844Y-27077578D01*
X164640127Y-40309172D02*
X164611921Y-40320439D01*
X134585746Y-64864152D02*
X134602939Y-64874869D01*
X142300000Y-80200000D02*
X139750000Y-80200000D01*
X134509172Y-38159872D02*
X134520439Y-38188078D01*
X172500000Y-73800000D02*
X174500000Y-73800000D01*
X164516208Y-67021128D02*
X164506384Y-67049869D01*
X124640127Y-53609172D02*
X124611921Y-53620439D01*
X124669714Y-78197693D02*
X124700000Y-78200000D01*
X164500000Y-53800000D02*
X164500000Y-58000000D01*
X162474869Y-91397060D02*
X162483791Y-91378871D01*
X162479560Y-67011921D02*
X162464152Y-66985746D01*
X144555041Y-38237793D02*
X144569725Y-38251751D01*
X142320233Y-64898973D02*
X142340259Y-64895905D01*
X172378871Y-66916208D02*
X172350130Y-66906384D01*
X139750000Y-65900000D02*
X139750000Y-64900000D01*
X124512449Y-27130538D02*
X124506384Y-27149869D01*
X129750000Y-78200000D02*
X132300000Y-78200000D01*
X134520439Y-78088078D02*
X134535847Y-78114253D01*
X132422421Y-66941844D02*
X132397060Y-66925130D01*
X164611921Y-80220439D02*
X164585746Y-80235847D01*
X164602939Y-64874869D02*
X164630538Y-64887550D01*
X132469728Y-38205792D02*
X132479560Y-38188078D01*
X124602939Y-78174869D02*
X124621128Y-78183791D01*
X134535847Y-91414253D02*
X134548248Y-91430274D01*
X134548248Y-64830274D02*
X134569725Y-64851751D01*
X142500000Y-87100000D02*
X143500000Y-87100000D01*
X144535847Y-51514253D02*
X144555041Y-51537793D01*
X132500000Y-87100000D02*
X133500000Y-87100000D01*
X164649869Y-91493615D02*
X164669714Y-91497693D01*
X139750000Y-25000000D02*
X147250000Y-25000000D01*
X149750000Y-25000000D02*
X157250000Y-25000000D01*
X142444958Y-53662206D02*
X142430274Y-53648248D01*
X133500000Y-58000000D02*
X132500000Y-58000000D01*
X164520439Y-64788078D02*
X164535847Y-64814253D01*
X142500000Y-73800000D02*
X143500000Y-73800000D01*
X167250000Y-38300000D02*
X167250000Y-39300000D01*
X134500000Y-91300000D02*
X134502306Y-91330285D01*
X124520439Y-64788078D02*
X124535847Y-64814253D01*
X139750000Y-64900000D02*
X142300000Y-64900000D01*
X132469728Y-78105792D02*
X132483791Y-78078871D01*
X162500000Y-64700000D02*
X162500000Y-60500000D01*
X172500000Y-44700000D02*
X172500000Y-40500000D01*
X154509172Y-64759872D02*
X154520439Y-64788078D01*
X142300000Y-64900000D02*
X142320233Y-64898973D01*
X129750000Y-52600000D02*
X129750000Y-51600000D01*
X162464152Y-80285746D02*
X162451751Y-80269725D01*
X139750000Y-93500000D02*
X139750000Y-91500000D01*
X172405792Y-38269728D02*
X172422421Y-38258155D01*
X132500000Y-91300000D02*
X132500000Y-87100000D01*
X134548248Y-91430274D02*
X134562206Y-91444958D01*
X172490827Y-38159872D02*
X172495905Y-38140259D01*
X132388078Y-27020439D02*
X132369461Y-27012449D01*
X167250000Y-65900000D02*
X167250000Y-66900000D01*
X132444958Y-27062206D02*
X132430274Y-27048248D01*
X154700000Y-80200000D02*
X154669714Y-80202306D01*
X149750000Y-93500000D02*
X149750000Y-91500000D01*
X164500000Y-58000000D02*
X163500000Y-58000000D01*
X144500000Y-47200000D02*
X144500000Y-51400000D01*
X164669714Y-38297693D02*
X164700000Y-38300000D01*
X169750000Y-64900000D02*
X172300000Y-64900000D01*
X172320233Y-53601026D02*
X172300000Y-53600000D01*
X172388078Y-27020439D02*
X172369461Y-27012449D01*
X124500000Y-87100000D02*
X124500000Y-87100000D01*
X162498973Y-78020233D02*
X162500000Y-78000000D01*
X162495905Y-38140259D02*
X162498973Y-38120233D01*
X172350130Y-53606384D02*
X172320233Y-53601026D01*
X172320233Y-64898973D02*
X172340259Y-64895905D01*
X162300000Y-66900000D02*
X159750000Y-66900000D01*
X154501026Y-67079766D02*
X154500000Y-67100000D01*
X162500000Y-67100000D02*
X162497693Y-67069714D01*
X164640127Y-53609172D02*
X164611921Y-53620439D01*
X132444958Y-78137793D02*
X132458155Y-78122421D01*
X142340259Y-38295905D02*
X142359872Y-38290827D01*
X134649869Y-64893615D02*
X134679766Y-64898973D01*
X172483791Y-38178871D02*
X172490827Y-38159872D01*
X134500000Y-67100000D02*
X134500000Y-71300000D01*
X162483791Y-91378871D02*
X162490827Y-91359872D01*
X162444958Y-27062206D02*
X162430274Y-27048248D01*
X144535847Y-78114253D02*
X144548248Y-78130274D01*
X147250000Y-65900000D02*
X147250000Y-66900000D01*
X152320233Y-91498973D02*
X152340259Y-91495905D01*
X132497693Y-40469714D02*
X132490827Y-40440127D01*
X172490827Y-91359872D02*
X172495905Y-91340259D01*
X162490827Y-53740127D02*
X162479560Y-53711921D01*
X144520439Y-27111921D02*
X144512449Y-27130538D01*
X144520439Y-40411921D02*
X144512449Y-40430538D01*
X154516208Y-53721128D02*
X154506384Y-53749869D01*
X154669714Y-91497693D02*
X154700000Y-91500000D01*
X144500000Y-73800000D02*
X144500000Y-78000000D01*
X142474869Y-64797060D02*
X142483791Y-64778871D01*
X162437793Y-80255041D02*
X162422421Y-80241844D01*
X154569725Y-51551751D02*
X154585746Y-51564152D01*
X124502306Y-64730285D02*
X124509172Y-64759872D01*
X152483791Y-64778871D02*
X152490827Y-64759872D01*
X162500000Y-47200000D02*
X163500000Y-47200000D01*
X152500000Y-67100000D02*
X152497693Y-67069714D01*
X144504094Y-40459740D02*
X144501026Y-40479766D01*
X134611921Y-40320439D02*
X134585746Y-40335847D01*
X142444958Y-40362206D02*
X142430274Y-40348248D01*
X142300000Y-53600000D02*
X139750000Y-53600000D01*
X174500000Y-44700000D02*
X172500000Y-44700000D01*
X162330285Y-40302306D02*
X162300000Y-40300000D01*
X143500000Y-58000000D02*
X142500000Y-58000000D01*
X164509172Y-78059872D02*
X164520439Y-78088078D01*
X154520439Y-78088078D02*
X154535847Y-78114253D01*
X134500000Y-71300000D02*
X133500000Y-71300000D01*
X132340259Y-78195905D02*
X132359872Y-78190827D01*
X172500000Y-31400000D02*
X172500000Y-27200000D01*
X153500000Y-71300000D02*
X152500000Y-71300000D01*
X144520439Y-67011921D02*
X144509172Y-67040127D01*
X172430274Y-78151751D02*
X172444958Y-78137793D01*
X154569725Y-27048248D02*
X154548248Y-27069725D01*
X164555041Y-53662206D02*
X164541844Y-53677578D01*
X164669714Y-78197693D02*
X164700000Y-78200000D01*
X134500000Y-47200000D02*
X134500000Y-51400000D01*
X132497693Y-27169714D02*
X132490827Y-27140127D01*
X144577578Y-91458155D02*
X144602939Y-91474869D01*
X137250000Y-39300000D02*
X137250000Y-40300000D01*
X132451751Y-51530274D02*
X132464152Y-51514253D01*
X152350130Y-27006384D02*
X152330285Y-27002306D01*
X152300000Y-40300000D02*
X149750000Y-40300000D01*
X132479560Y-40411921D02*
X132464152Y-40385746D01*
X164669714Y-27002306D02*
X164640127Y-27009172D01*
X142464152Y-27085746D02*
X142444958Y-27062206D01*
X144700000Y-53600000D02*
X144669714Y-53602306D01*
X164569725Y-40348248D02*
X164555041Y-40362206D01*
X152414253Y-53635847D02*
X152397060Y-53625130D01*
X172320233Y-91498973D02*
X172340259Y-91495905D01*
X134569725Y-64851751D02*
X134585746Y-64864152D01*
X134512449Y-53730538D02*
X134506384Y-53749869D01*
X162359872Y-64890827D02*
X162378871Y-64883791D01*
X164611921Y-27020439D02*
X164585746Y-27035847D01*
X124509172Y-91359872D02*
X124520439Y-91388078D01*
X172498973Y-91320233D02*
X172500000Y-91300000D01*
X152422421Y-66941844D02*
X152397060Y-66925130D01*
X172300000Y-38300000D02*
X172320233Y-38298973D01*
X134602939Y-91474869D02*
X134621128Y-91483791D01*
X134548248Y-53669725D02*
X134535847Y-53685746D01*
X137250000Y-65900000D02*
X137250000Y-66900000D01*
X142500000Y-53800000D02*
X142497693Y-53769714D01*
X172359872Y-91490827D02*
X172378871Y-91483791D01*
X124700000Y-91500000D02*
X127250000Y-91500000D01*
X144502306Y-91330285D02*
X144509172Y-91359872D01*
X154535847Y-66985746D02*
X154525130Y-67002939D01*
X162451751Y-80269725D02*
X162437793Y-80255041D01*
X132490827Y-78059872D02*
X132495905Y-78040259D01*
X144585746Y-27035847D02*
X144562206Y-27055041D01*
X154512449Y-80330538D02*
X154506384Y-80349869D01*
X154669714Y-78197693D02*
X154700000Y-78200000D01*
X162414253Y-51564152D02*
X162437793Y-51544958D01*
X142495905Y-64740259D02*
X142498973Y-64720233D01*
X134679766Y-64898973D02*
X134700000Y-64900000D01*
X134700000Y-66900000D02*
X134669714Y-66902306D01*
X134535847Y-38214253D02*
X134555041Y-38237793D01*
X162430274Y-91451751D02*
X162444958Y-91437793D01*
X129750000Y-80200000D02*
X129750000Y-79200000D01*
X154548248Y-38230274D02*
X154569725Y-38251751D01*
X152474869Y-51497060D02*
X152483791Y-51478871D01*
X172464152Y-91414253D02*
X172474869Y-91397060D01*
X172451751Y-64830274D02*
X172464152Y-64814253D01*
X152414253Y-38264152D02*
X152430274Y-38251751D01*
X144520439Y-38188078D02*
X144535847Y-38214253D01*
X144649869Y-78193615D02*
X144669714Y-78197693D01*
X132479560Y-67011921D02*
X132464152Y-66985746D01*
X162300000Y-78200000D02*
X162320233Y-78198973D01*
X124509172Y-51459872D02*
X124520439Y-51488078D01*
X137250000Y-78200000D02*
X137250000Y-79200000D01*
X132495905Y-64740259D02*
X132498973Y-64720233D01*
X154621128Y-91483791D02*
X154649869Y-91493615D01*
M02*
