M48
; DRILL file {KiCad 7.0.5-1.fc38} date Fri 07 Jul 2023 14:18:20 EDT
; FORMAT={-:-/ absolute / metric / decimal}
; #@! TF.CreationDate,2023-07-07T14:18:20-04:00
; #@! TF.GenerationSoftware,Kicad,Pcbnew,7.0.5-1.fc38
; #@! TF.FileFunction,Plated,1,2,PTH
FMAT,2
METRIC
; #@! TA.AperFunction,Plated,PTH,ViaDrill
T1C0.400
; #@! TA.AperFunction,Plated,PTH,ComponentDrill
T2C0.500
%
G90
G05
T1
X125.15Y-31.9
X125.15Y-45.2
X125.15Y-58.5
X125.15Y-71.8
X125.15Y-85.1
X127.15Y-33.962
X127.15Y-47.262
X127.15Y-60.562
X127.15Y-73.862
X127.15Y-87.162
X129.15Y-34.15
X129.15Y-47.45
X129.15Y-60.75
X129.15Y-74.05
X129.15Y-87.35
X129.226Y-33.065
X129.226Y-46.365
X129.226Y-59.665
X129.226Y-72.965
X129.226Y-86.265
X135.15Y-31.9
X135.15Y-45.2
X135.15Y-58.5
X135.15Y-71.8
X135.15Y-85.1
X137.15Y-33.962
X137.15Y-47.262
X137.15Y-60.562
X137.15Y-73.862
X137.15Y-87.162
X139.15Y-34.15
X139.15Y-47.45
X139.15Y-60.75
X139.15Y-74.05
X139.15Y-87.35
X139.226Y-33.065
X139.226Y-46.365
X139.226Y-59.665
X139.226Y-72.965
X139.226Y-86.265
X145.15Y-31.9
X145.15Y-45.2
X145.15Y-58.5
X145.15Y-71.8
X145.15Y-85.1
X147.15Y-33.962
X147.15Y-47.262
X147.15Y-60.562
X147.15Y-73.862
X147.15Y-87.162
X149.15Y-34.15
X149.15Y-47.45
X149.15Y-60.75
X149.15Y-74.05
X149.15Y-87.35
X149.226Y-33.065
X149.226Y-46.365
X149.226Y-59.665
X149.226Y-72.965
X149.226Y-86.265
X155.15Y-31.9
X155.15Y-45.2
X155.15Y-58.5
X155.15Y-71.8
X155.15Y-85.1
X157.15Y-33.962
X157.15Y-47.262
X157.15Y-60.562
X157.15Y-73.862
X157.15Y-87.162
X159.15Y-34.15
X159.15Y-47.45
X159.15Y-60.75
X159.15Y-74.05
X159.15Y-87.35
X159.226Y-33.065
X159.226Y-46.365
X159.226Y-59.665
X159.226Y-72.965
X159.226Y-86.265
X165.15Y-31.9
X165.15Y-45.2
X165.15Y-58.5
X165.15Y-71.8
X165.15Y-85.1
X167.15Y-33.962
X167.15Y-47.262
X167.15Y-60.562
X167.15Y-73.862
X167.15Y-87.162
X169.15Y-34.15
X169.15Y-47.45
X169.15Y-60.75
X169.15Y-74.05
X169.15Y-87.35
X169.226Y-33.065
X169.226Y-46.365
X169.226Y-59.665
X169.226Y-72.965
X169.226Y-86.265
T2
X126.909Y-28.17
X126.909Y-41.47
X126.909Y-54.77
X126.909Y-68.07
X126.909Y-81.37
X127.909Y-28.17
X127.909Y-41.47
X127.909Y-54.77
X127.909Y-68.07
X127.909Y-81.37
X128.909Y-28.17
X128.909Y-41.47
X128.909Y-54.77
X128.909Y-68.07
X128.909Y-81.37
X129.909Y-28.17
X129.909Y-41.47
X129.909Y-54.77
X129.909Y-68.07
X129.909Y-81.37
X136.909Y-28.17
X136.909Y-41.47
X136.909Y-54.77
X136.909Y-68.07
X136.909Y-81.37
X137.909Y-28.17
X137.909Y-41.47
X137.909Y-54.77
X137.909Y-68.07
X137.909Y-81.37
X138.909Y-28.17
X138.909Y-41.47
X138.909Y-54.77
X138.909Y-68.07
X138.909Y-81.37
X139.909Y-28.17
X139.909Y-41.47
X139.909Y-54.77
X139.909Y-68.07
X139.909Y-81.37
X146.909Y-28.17
X146.909Y-41.47
X146.909Y-54.77
X146.909Y-68.07
X146.909Y-81.37
X147.909Y-28.17
X147.909Y-41.47
X147.909Y-54.77
X147.909Y-68.07
X147.909Y-81.37
X148.909Y-28.17
X148.909Y-41.47
X148.909Y-54.77
X148.909Y-68.07
X148.909Y-81.37
X149.909Y-28.17
X149.909Y-41.47
X149.909Y-54.77
X149.909Y-68.07
X149.909Y-81.37
X156.909Y-28.17
X156.909Y-41.47
X156.909Y-54.77
X156.909Y-68.07
X156.909Y-81.37
X157.909Y-28.17
X157.909Y-41.47
X157.909Y-54.77
X157.909Y-68.07
X157.909Y-81.37
X158.909Y-28.17
X158.909Y-41.47
X158.909Y-54.77
X158.909Y-68.07
X158.909Y-81.37
X159.909Y-28.17
X159.909Y-41.47
X159.909Y-54.77
X159.909Y-68.07
X159.909Y-81.37
X166.909Y-28.17
X166.909Y-41.47
X166.909Y-54.77
X166.909Y-68.07
X166.909Y-81.37
X167.909Y-28.17
X167.909Y-41.47
X167.909Y-54.77
X167.909Y-68.07
X167.909Y-81.37
X168.909Y-28.17
X168.909Y-41.47
X168.909Y-54.77
X168.909Y-68.07
X168.909Y-81.37
X169.909Y-28.17
X169.909Y-41.47
X169.909Y-54.77
X169.909Y-68.07
X169.909Y-81.37
T0
M30
